G04 #@! TF.GenerationSoftware,KiCad,Pcbnew,7.0.8-7.0.8~ubuntu22.04.1*
G04 #@! TF.CreationDate,2024-01-26T15:53:44+01:00*
G04 #@! TF.ProjectId,shoulder,73686f75-6c64-4657-922e-6b696361645f,1.1*
G04 #@! TF.SameCoordinates,Original*
G04 #@! TF.FileFunction,Legend,Bot*
G04 #@! TF.FilePolarity,Positive*
%FSLAX46Y46*%
G04 Gerber Fmt 4.6, Leading zero omitted, Abs format (unit mm)*
G04 Created by KiCad (PCBNEW 7.0.8-7.0.8~ubuntu22.04.1) date 2024-01-26 15:53:44*
%MOMM*%
%LPD*%
G01*
G04 APERTURE LIST*
G04 Aperture macros list*
%AMRoundRect*
0 Rectangle with rounded corners*
0 $1 Rounding radius*
0 $2 $3 $4 $5 $6 $7 $8 $9 X,Y pos of 4 corners*
0 Add a 4 corners polygon primitive as box body*
4,1,4,$2,$3,$4,$5,$6,$7,$8,$9,$2,$3,0*
0 Add four circle primitives for the rounded corners*
1,1,$1+$1,$2,$3*
1,1,$1+$1,$4,$5*
1,1,$1+$1,$6,$7*
1,1,$1+$1,$8,$9*
0 Add four rect primitives between the rounded corners*
20,1,$1+$1,$2,$3,$4,$5,0*
20,1,$1+$1,$4,$5,$6,$7,0*
20,1,$1+$1,$6,$7,$8,$9,0*
20,1,$1+$1,$8,$9,$2,$3,0*%
G04 Aperture macros list end*
%ADD10C,0.300000*%
%ADD11C,0.150000*%
%ADD12C,0.508000*%
%ADD13C,0.120000*%
%ADD14C,1.600200*%
%ADD15R,2.000000X2.000000*%
%ADD16O,2.000000X2.000000*%
%ADD17R,2.400000X2.400000*%
%ADD18C,2.400000*%
%ADD19R,1.700000X1.700000*%
%ADD20O,1.700000X1.700000*%
%ADD21C,3.200000*%
%ADD22R,1.905000X2.000000*%
%ADD23O,1.905000X2.000000*%
%ADD24C,1.800000*%
%ADD25R,1.600000X1.600000*%
%ADD26C,1.600000*%
%ADD27O,1.900000X1.200000*%
%ADD28C,1.450000*%
%ADD29R,1.300000X1.300000*%
%ADD30C,1.300000*%
%ADD31C,1.524000*%
%ADD32C,0.965200*%
%ADD33R,2.600000X2.600000*%
%ADD34C,2.600000*%
%ADD35C,2.000000*%
%ADD36RoundRect,0.225000X0.250000X-0.225000X0.250000X0.225000X-0.250000X0.225000X-0.250000X-0.225000X0*%
%ADD37RoundRect,0.225000X0.225000X0.250000X-0.225000X0.250000X-0.225000X-0.250000X0.225000X-0.250000X0*%
%ADD38RoundRect,0.225000X-0.250000X0.225000X-0.250000X-0.225000X0.250000X-0.225000X0.250000X0.225000X0*%
%ADD39RoundRect,0.225000X-0.225000X-0.250000X0.225000X-0.250000X0.225000X0.250000X-0.225000X0.250000X0*%
G04 APERTURE END LIST*
D10*
G36*
X128766765Y-99764748D02*
G01*
X128749907Y-99765160D01*
X128734136Y-99766397D01*
X128719453Y-99768458D01*
X128699467Y-99773095D01*
X128681929Y-99779586D01*
X128666838Y-99787932D01*
X128654194Y-99798133D01*
X128643997Y-99810189D01*
X128636248Y-99824099D01*
X128630945Y-99839864D01*
X128628090Y-99857484D01*
X128627547Y-99870261D01*
X128628770Y-99889117D01*
X128632441Y-99906119D01*
X128638559Y-99921266D01*
X128647124Y-99934558D01*
X128658137Y-99945996D01*
X128671596Y-99955578D01*
X128687503Y-99963306D01*
X128705857Y-99969180D01*
X128726658Y-99973198D01*
X128741885Y-99974847D01*
X128758200Y-99975671D01*
X128766765Y-99975774D01*
X128840771Y-99975774D01*
X128840771Y-100290115D01*
X128464881Y-99967348D01*
X128480251Y-99960335D01*
X128493572Y-99951938D01*
X128504843Y-99942154D01*
X128516051Y-99927978D01*
X128524056Y-99911636D01*
X128528155Y-99897004D01*
X128530204Y-99880987D01*
X128530460Y-99872459D01*
X128529236Y-99853210D01*
X128525566Y-99835854D01*
X128519448Y-99820392D01*
X128510882Y-99806823D01*
X128499870Y-99795147D01*
X128486410Y-99785365D01*
X128470504Y-99777476D01*
X128452150Y-99771480D01*
X128431349Y-99767378D01*
X128416122Y-99765695D01*
X128399807Y-99764853D01*
X128391242Y-99764748D01*
X128180216Y-99764748D01*
X128163357Y-99765160D01*
X128147587Y-99766397D01*
X128132903Y-99768458D01*
X128112918Y-99773095D01*
X128095380Y-99779586D01*
X128080289Y-99787932D01*
X128067645Y-99798133D01*
X128057448Y-99810189D01*
X128049699Y-99824099D01*
X128044396Y-99839864D01*
X128041541Y-99857484D01*
X128040997Y-99870261D01*
X128042147Y-99889117D01*
X128045596Y-99906119D01*
X128051343Y-99921266D01*
X128059390Y-99934558D01*
X128069736Y-99945996D01*
X128082381Y-99955578D01*
X128097325Y-99963306D01*
X128114568Y-99969180D01*
X128134110Y-99973198D01*
X128155951Y-99975362D01*
X128171789Y-99975774D01*
X128542916Y-100298541D01*
X128517567Y-100313060D01*
X128505046Y-100321110D01*
X128492627Y-100329688D01*
X128480311Y-100338793D01*
X128468097Y-100348425D01*
X128455985Y-100358585D01*
X128443975Y-100369272D01*
X128432068Y-100380487D01*
X128420263Y-100392229D01*
X128408561Y-100404498D01*
X128396960Y-100417295D01*
X128385462Y-100430619D01*
X128374067Y-100444470D01*
X128362774Y-100458849D01*
X128351583Y-100473755D01*
X128340494Y-100489188D01*
X128329508Y-100505149D01*
X128318624Y-100521637D01*
X128307842Y-100538653D01*
X128297163Y-100556196D01*
X128286586Y-100574266D01*
X128276111Y-100592864D01*
X128265739Y-100611989D01*
X128255469Y-100631641D01*
X128245301Y-100651821D01*
X128235236Y-100672528D01*
X128225273Y-100693762D01*
X128215412Y-100715524D01*
X128205654Y-100737813D01*
X128195998Y-100760630D01*
X128186444Y-100783974D01*
X128119033Y-100783974D01*
X128102130Y-100784386D01*
X128086318Y-100785622D01*
X128071596Y-100787683D01*
X128051558Y-100792320D01*
X128033974Y-100798811D01*
X128018843Y-100807158D01*
X128006166Y-100817359D01*
X127995942Y-100829414D01*
X127988172Y-100843325D01*
X127982856Y-100859090D01*
X127979993Y-100876710D01*
X127979448Y-100889487D01*
X127980675Y-100908343D01*
X127984355Y-100925344D01*
X127990490Y-100940491D01*
X127999077Y-100953784D01*
X128010119Y-100965221D01*
X128023614Y-100974804D01*
X128039562Y-100982532D01*
X128057965Y-100988405D01*
X128078821Y-100992424D01*
X128094088Y-100994072D01*
X128110445Y-100994896D01*
X128119033Y-100995000D01*
X128350942Y-100995000D01*
X128355588Y-100980973D01*
X128365011Y-100953390D01*
X128374605Y-100926433D01*
X128384371Y-100900104D01*
X128394309Y-100874401D01*
X128404418Y-100849325D01*
X128414699Y-100824876D01*
X128425152Y-100801054D01*
X128435776Y-100777858D01*
X128446573Y-100755290D01*
X128457541Y-100733348D01*
X128468680Y-100712033D01*
X128479992Y-100691345D01*
X128491475Y-100671283D01*
X128503130Y-100651849D01*
X128514957Y-100633041D01*
X128520935Y-100623872D01*
X128532937Y-100606100D01*
X128544949Y-100589234D01*
X128556969Y-100573276D01*
X128568997Y-100558225D01*
X128581034Y-100544081D01*
X128593080Y-100530845D01*
X128605134Y-100518516D01*
X128617197Y-100507094D01*
X128629268Y-100496580D01*
X128641348Y-100486972D01*
X128653437Y-100478273D01*
X128671586Y-100466924D01*
X128689754Y-100457618D01*
X128707942Y-100450352D01*
X128714009Y-100448384D01*
X128840771Y-100556095D01*
X128840771Y-100783974D01*
X128766765Y-100783974D01*
X128749907Y-100784386D01*
X128734136Y-100785622D01*
X128719453Y-100787683D01*
X128699467Y-100792320D01*
X128681929Y-100798811D01*
X128666838Y-100807158D01*
X128654194Y-100817359D01*
X128643997Y-100829414D01*
X128636248Y-100843325D01*
X128630945Y-100859090D01*
X128628090Y-100876710D01*
X128627547Y-100889487D01*
X128628770Y-100908343D01*
X128632441Y-100925344D01*
X128638559Y-100940491D01*
X128647124Y-100953784D01*
X128658137Y-100965221D01*
X128671596Y-100974804D01*
X128687503Y-100982532D01*
X128705857Y-100988405D01*
X128726658Y-100992424D01*
X128741885Y-100994072D01*
X128758200Y-100994896D01*
X128766765Y-100995000D01*
X129083304Y-100995000D01*
X129100162Y-100994587D01*
X129115933Y-100993351D01*
X129130616Y-100991290D01*
X129150602Y-100986653D01*
X129168140Y-100980162D01*
X129183231Y-100971816D01*
X129195875Y-100961615D01*
X129206072Y-100949559D01*
X129213821Y-100935648D01*
X129219123Y-100919883D01*
X129221978Y-100902264D01*
X129222522Y-100889487D01*
X129221299Y-100870630D01*
X129217628Y-100853629D01*
X129211510Y-100838482D01*
X129202945Y-100825190D01*
X129191932Y-100813752D01*
X129178473Y-100804170D01*
X129162566Y-100796442D01*
X129144212Y-100790568D01*
X129123411Y-100786550D01*
X129108184Y-100784901D01*
X129091869Y-100784077D01*
X129083304Y-100783974D01*
X129051796Y-100783974D01*
X129051796Y-99975774D01*
X129083304Y-99975774D01*
X129100162Y-99975362D01*
X129115933Y-99974125D01*
X129130616Y-99972065D01*
X129150602Y-99967428D01*
X129168140Y-99960936D01*
X129183231Y-99952590D01*
X129195875Y-99942389D01*
X129206072Y-99930333D01*
X129213821Y-99916423D01*
X129219123Y-99900658D01*
X129221978Y-99883038D01*
X129222522Y-99870261D01*
X129221961Y-99855578D01*
X129219682Y-99838947D01*
X129215650Y-99824230D01*
X129208497Y-99809096D01*
X129198820Y-99796718D01*
X129186618Y-99787096D01*
X129172047Y-99779502D01*
X129158212Y-99774373D01*
X129142838Y-99770335D01*
X129125926Y-99767389D01*
X129111288Y-99765818D01*
X129095666Y-99764945D01*
X129083304Y-99764748D01*
X128766765Y-99764748D01*
G37*
G36*
X127858088Y-99764945D02*
G01*
X127873710Y-99765818D01*
X127888347Y-99767389D01*
X127905259Y-99770335D01*
X127920633Y-99774373D01*
X127934468Y-99779502D01*
X127949040Y-99787096D01*
X127961242Y-99796718D01*
X127970919Y-99809096D01*
X127978071Y-99824230D01*
X127982104Y-99838947D01*
X127984383Y-99855578D01*
X127984944Y-99870261D01*
X127984400Y-99883038D01*
X127981545Y-99900658D01*
X127976243Y-99916423D01*
X127968493Y-99930333D01*
X127958296Y-99942389D01*
X127945653Y-99952590D01*
X127930561Y-99960936D01*
X127913023Y-99967428D01*
X127893038Y-99972065D01*
X127878355Y-99974125D01*
X127862584Y-99975362D01*
X127845725Y-99975774D01*
X127813852Y-99975774D01*
X127813852Y-100783974D01*
X127845725Y-100783974D01*
X127854290Y-100784077D01*
X127870605Y-100784901D01*
X127885832Y-100786550D01*
X127906633Y-100790568D01*
X127924987Y-100796442D01*
X127940894Y-100804170D01*
X127954354Y-100813752D01*
X127965366Y-100825190D01*
X127973931Y-100838482D01*
X127980049Y-100853629D01*
X127983720Y-100870630D01*
X127984944Y-100889487D01*
X127984400Y-100902264D01*
X127981545Y-100919883D01*
X127976243Y-100935648D01*
X127968493Y-100949559D01*
X127958296Y-100961615D01*
X127945653Y-100971816D01*
X127930561Y-100980162D01*
X127913023Y-100986653D01*
X127893038Y-100991290D01*
X127878355Y-100993351D01*
X127862584Y-100994587D01*
X127845725Y-100995000D01*
X127529187Y-100995000D01*
X127520599Y-100994896D01*
X127504241Y-100994072D01*
X127488974Y-100992424D01*
X127468118Y-100988405D01*
X127449716Y-100982532D01*
X127433767Y-100974804D01*
X127420272Y-100965221D01*
X127409231Y-100953784D01*
X127400643Y-100940491D01*
X127394509Y-100925344D01*
X127390829Y-100908343D01*
X127389602Y-100889487D01*
X127390147Y-100876710D01*
X127393010Y-100859090D01*
X127398326Y-100843325D01*
X127406096Y-100829414D01*
X127416319Y-100817359D01*
X127428996Y-100807158D01*
X127444127Y-100798811D01*
X127461711Y-100792320D01*
X127481750Y-100787683D01*
X127496471Y-100785622D01*
X127512284Y-100784386D01*
X127529187Y-100783974D01*
X127602826Y-100783974D01*
X127602826Y-100526420D01*
X127400226Y-100526420D01*
X127391590Y-100529831D01*
X127377846Y-100536752D01*
X127363155Y-100545837D01*
X127347517Y-100557085D01*
X127330933Y-100570498D01*
X127319351Y-100580642D01*
X127307349Y-100591747D01*
X127294925Y-100603814D01*
X127282081Y-100616843D01*
X127268816Y-100630833D01*
X127255130Y-100645786D01*
X127241024Y-100661700D01*
X127226497Y-100678575D01*
X127211549Y-100696413D01*
X127196515Y-100714752D01*
X127181822Y-100733135D01*
X127167469Y-100751560D01*
X127153457Y-100770029D01*
X127139786Y-100788540D01*
X127126455Y-100807095D01*
X127113465Y-100825692D01*
X127100815Y-100844332D01*
X127088506Y-100863015D01*
X127076538Y-100881741D01*
X127064910Y-100900510D01*
X127053623Y-100919322D01*
X127042676Y-100938177D01*
X127032070Y-100957075D01*
X127021805Y-100976016D01*
X127011880Y-100995000D01*
X126845184Y-100995000D01*
X126836619Y-100994896D01*
X126820305Y-100994072D01*
X126805078Y-100992424D01*
X126784276Y-100988405D01*
X126765922Y-100982532D01*
X126750016Y-100974804D01*
X126736556Y-100965221D01*
X126725544Y-100953784D01*
X126716978Y-100940491D01*
X126710860Y-100925344D01*
X126707190Y-100908343D01*
X126705966Y-100889487D01*
X126706510Y-100876710D01*
X126709365Y-100859090D01*
X126714667Y-100843325D01*
X126722417Y-100829414D01*
X126732613Y-100817359D01*
X126745257Y-100807158D01*
X126760348Y-100798811D01*
X126777886Y-100792320D01*
X126797872Y-100787683D01*
X126812555Y-100785622D01*
X126828326Y-100784386D01*
X126845184Y-100783974D01*
X126872662Y-100783974D01*
X126880730Y-100771256D01*
X126888813Y-100758705D01*
X126896913Y-100746318D01*
X126905028Y-100734097D01*
X126921305Y-100710150D01*
X126937646Y-100686864D01*
X126954049Y-100664240D01*
X126970515Y-100642277D01*
X126987045Y-100620974D01*
X127003637Y-100600334D01*
X127020292Y-100580354D01*
X127037010Y-100561035D01*
X127053792Y-100542378D01*
X127070636Y-100524382D01*
X127087543Y-100507047D01*
X127104513Y-100490373D01*
X127121546Y-100474360D01*
X127138642Y-100459009D01*
X127124622Y-100451155D01*
X127111048Y-100443166D01*
X127097918Y-100435041D01*
X127085233Y-100426780D01*
X127061199Y-100409850D01*
X127038945Y-100392376D01*
X127018472Y-100374358D01*
X126999779Y-100355797D01*
X126982866Y-100336692D01*
X126967733Y-100317042D01*
X126954381Y-100296849D01*
X126942809Y-100276113D01*
X126933017Y-100254832D01*
X126925006Y-100233008D01*
X126918775Y-100210639D01*
X126914324Y-100187727D01*
X126911654Y-100164271D01*
X126910764Y-100140272D01*
X126910917Y-100134043D01*
X127134246Y-100134043D01*
X127134332Y-100138895D01*
X127136393Y-100157786D01*
X127141201Y-100175852D01*
X127148757Y-100193094D01*
X127159061Y-100209512D01*
X127168592Y-100221284D01*
X127179669Y-100232593D01*
X127192292Y-100243438D01*
X127206460Y-100253819D01*
X127222173Y-100263736D01*
X127233294Y-100269992D01*
X127250636Y-100278618D01*
X127268770Y-100286337D01*
X127287696Y-100293147D01*
X127307414Y-100299049D01*
X127327925Y-100304043D01*
X127349227Y-100308129D01*
X127363869Y-100310349D01*
X127378863Y-100312165D01*
X127394208Y-100313578D01*
X127409906Y-100314587D01*
X127425956Y-100315192D01*
X127442358Y-100315394D01*
X127602826Y-100315394D01*
X127602826Y-99975774D01*
X127366521Y-99975774D01*
X127354020Y-99975952D01*
X127335789Y-99976883D01*
X127318184Y-99978613D01*
X127301202Y-99981142D01*
X127284846Y-99984470D01*
X127269114Y-99988595D01*
X127254007Y-99993520D01*
X127239524Y-99999243D01*
X127225667Y-100005764D01*
X127212433Y-100013085D01*
X127199825Y-100021203D01*
X127184455Y-100032904D01*
X127171134Y-100045292D01*
X127159863Y-100058366D01*
X127150641Y-100072128D01*
X127143468Y-100086576D01*
X127138345Y-100101712D01*
X127135271Y-100117534D01*
X127134246Y-100134043D01*
X126910917Y-100134043D01*
X126911270Y-100119678D01*
X126912790Y-100099571D01*
X126915323Y-100079950D01*
X126918869Y-100060816D01*
X126923429Y-100042169D01*
X126929002Y-100024008D01*
X126935588Y-100006334D01*
X126943187Y-99989146D01*
X126951799Y-99972445D01*
X126961425Y-99956231D01*
X126972064Y-99940503D01*
X126983716Y-99925262D01*
X126996381Y-99910507D01*
X127010060Y-99896239D01*
X127024752Y-99882457D01*
X127040457Y-99869162D01*
X127056962Y-99856518D01*
X127074053Y-99844690D01*
X127091732Y-99833678D01*
X127109997Y-99823481D01*
X127128849Y-99814100D01*
X127148288Y-99805535D01*
X127168313Y-99797785D01*
X127188926Y-99790852D01*
X127210125Y-99784734D01*
X127231911Y-99779431D01*
X127254283Y-99774945D01*
X127277242Y-99771274D01*
X127300788Y-99768419D01*
X127324921Y-99766380D01*
X127349641Y-99765156D01*
X127374947Y-99764748D01*
X127845725Y-99764748D01*
X127858088Y-99764945D01*
G37*
G36*
X125780530Y-100783974D02*
G01*
X125764169Y-100784323D01*
X125748794Y-100785370D01*
X125730958Y-100787662D01*
X125714662Y-100791045D01*
X125699903Y-100795519D01*
X125684224Y-100802328D01*
X125677215Y-100806322D01*
X125665013Y-100815943D01*
X125655336Y-100828321D01*
X125648184Y-100843455D01*
X125644151Y-100858172D01*
X125641872Y-100874803D01*
X125641311Y-100889487D01*
X125642535Y-100908343D01*
X125646206Y-100925344D01*
X125652324Y-100940491D01*
X125660889Y-100953784D01*
X125671901Y-100965221D01*
X125685361Y-100974804D01*
X125701268Y-100982532D01*
X125719622Y-100988405D01*
X125740423Y-100992424D01*
X125755650Y-100994072D01*
X125771965Y-100994896D01*
X125780530Y-100995000D01*
X126418004Y-100995000D01*
X126434862Y-100994587D01*
X126450633Y-100993351D01*
X126465316Y-100991290D01*
X126485302Y-100986653D01*
X126502840Y-100980162D01*
X126517931Y-100971816D01*
X126530575Y-100961615D01*
X126540771Y-100949559D01*
X126548521Y-100935648D01*
X126553823Y-100919883D01*
X126556678Y-100902264D01*
X126557222Y-100889487D01*
X126556661Y-100874803D01*
X126554382Y-100858172D01*
X126550350Y-100843455D01*
X126543197Y-100828321D01*
X126533520Y-100815943D01*
X126521318Y-100806322D01*
X126506747Y-100798727D01*
X126492912Y-100793598D01*
X126477538Y-100789561D01*
X126460626Y-100786614D01*
X126445988Y-100785043D01*
X126430366Y-100784170D01*
X126418004Y-100783974D01*
X126204780Y-100783974D01*
X126204780Y-99975774D01*
X126418004Y-99975774D01*
X126434862Y-99975362D01*
X126450633Y-99974125D01*
X126465316Y-99972065D01*
X126485302Y-99967428D01*
X126502840Y-99960936D01*
X126517931Y-99952590D01*
X126530575Y-99942389D01*
X126540771Y-99930333D01*
X126548521Y-99916423D01*
X126553823Y-99900658D01*
X126556678Y-99883038D01*
X126557222Y-99870261D01*
X126556661Y-99855578D01*
X126554382Y-99838947D01*
X126550350Y-99824230D01*
X126543197Y-99809096D01*
X126533520Y-99796718D01*
X126521318Y-99787096D01*
X126506747Y-99779502D01*
X126492912Y-99774373D01*
X126477538Y-99770335D01*
X126460626Y-99767389D01*
X126445988Y-99765818D01*
X126430366Y-99764945D01*
X126418004Y-99764748D01*
X125780530Y-99764748D01*
X125764169Y-99765097D01*
X125748794Y-99766145D01*
X125730958Y-99768437D01*
X125714662Y-99771819D01*
X125699903Y-99776293D01*
X125684224Y-99783103D01*
X125677215Y-99787096D01*
X125665013Y-99796718D01*
X125655336Y-99809096D01*
X125648184Y-99824230D01*
X125644151Y-99838947D01*
X125641872Y-99855578D01*
X125641311Y-99870261D01*
X125642535Y-99889117D01*
X125646206Y-99906119D01*
X125652324Y-99921266D01*
X125660889Y-99934558D01*
X125671901Y-99945996D01*
X125685361Y-99955578D01*
X125701268Y-99963306D01*
X125719622Y-99969180D01*
X125740423Y-99973198D01*
X125755650Y-99974847D01*
X125771965Y-99975671D01*
X125780530Y-99975774D01*
X125993754Y-99975774D01*
X125993754Y-100783974D01*
X125780530Y-100783974D01*
G37*
G36*
X124485799Y-99735073D02*
G01*
X124470715Y-99735634D01*
X124453743Y-99737913D01*
X124438865Y-99741945D01*
X124423774Y-99749098D01*
X124411697Y-99758775D01*
X124402634Y-99770976D01*
X124395786Y-99785548D01*
X124390355Y-99802335D01*
X124386911Y-99818016D01*
X124384452Y-99835236D01*
X124383192Y-99850120D01*
X124382563Y-99865988D01*
X124382484Y-99874291D01*
X124382484Y-100060038D01*
X124382887Y-100077163D01*
X124384098Y-100093182D01*
X124386116Y-100108097D01*
X124390656Y-100128398D01*
X124397012Y-100146214D01*
X124405185Y-100161543D01*
X124415173Y-100174386D01*
X124426978Y-100184744D01*
X124440598Y-100192616D01*
X124456035Y-100198002D01*
X124473288Y-100200902D01*
X124485799Y-100201454D01*
X124500954Y-100200810D01*
X124515700Y-100198704D01*
X124516573Y-100198524D01*
X124531250Y-100193962D01*
X124539654Y-100190097D01*
X124551683Y-100181149D01*
X124557606Y-100175076D01*
X124567287Y-100163537D01*
X124570429Y-100159323D01*
X124576949Y-100145790D01*
X124578855Y-100140638D01*
X124583134Y-100126180D01*
X124583984Y-100122686D01*
X124587404Y-100107675D01*
X124588381Y-100103635D01*
X124591171Y-100089038D01*
X124591311Y-100087515D01*
X124595902Y-100072053D01*
X124602165Y-100057359D01*
X124610099Y-100043431D01*
X124619705Y-100030271D01*
X124630982Y-100017877D01*
X124643931Y-100006251D01*
X124658551Y-99995392D01*
X124674842Y-99985300D01*
X124687959Y-99978294D01*
X124701616Y-99971977D01*
X124715814Y-99966350D01*
X124730553Y-99961411D01*
X124745833Y-99957162D01*
X124761654Y-99953602D01*
X124778016Y-99950731D01*
X124794918Y-99948549D01*
X124812362Y-99947056D01*
X124830347Y-99946252D01*
X124842637Y-99946099D01*
X124860930Y-99946508D01*
X124878714Y-99947734D01*
X124895989Y-99949779D01*
X124912756Y-99952642D01*
X124929014Y-99956322D01*
X124944763Y-99960820D01*
X124960003Y-99966137D01*
X124974735Y-99972271D01*
X124988957Y-99979223D01*
X125002671Y-99986993D01*
X125011531Y-99992627D01*
X125023971Y-100001534D01*
X125038654Y-100013982D01*
X125051162Y-100027083D01*
X125061495Y-100040836D01*
X125069652Y-100055241D01*
X125075634Y-100070299D01*
X125079441Y-100086010D01*
X125081072Y-100102373D01*
X125081140Y-100106566D01*
X125080053Y-100124009D01*
X125076790Y-100140432D01*
X125071352Y-100155836D01*
X125063738Y-100170222D01*
X125053949Y-100183589D01*
X125041985Y-100195936D01*
X125027846Y-100207265D01*
X125011531Y-100217575D01*
X124998211Y-100224618D01*
X124984492Y-100231184D01*
X124970373Y-100237274D01*
X124955855Y-100242888D01*
X124940938Y-100248025D01*
X124925622Y-100252685D01*
X124909906Y-100256869D01*
X124893791Y-100260577D01*
X124877277Y-100263807D01*
X124860363Y-100266561D01*
X124848866Y-100268133D01*
X124831299Y-100270433D01*
X124813360Y-100273074D01*
X124795046Y-100276057D01*
X124776360Y-100279381D01*
X124757299Y-100283047D01*
X124737866Y-100287053D01*
X124718058Y-100291402D01*
X124697878Y-100296091D01*
X124677323Y-100301122D01*
X124656395Y-100306494D01*
X124642236Y-100310265D01*
X124621297Y-100316163D01*
X124601209Y-100322453D01*
X124581971Y-100329137D01*
X124563582Y-100336214D01*
X124546044Y-100343683D01*
X124529356Y-100351545D01*
X124513518Y-100359800D01*
X124498530Y-100368448D01*
X124484392Y-100377489D01*
X124471104Y-100386922D01*
X124462718Y-100393429D01*
X124447634Y-100406096D01*
X124433523Y-100419275D01*
X124420385Y-100432967D01*
X124408221Y-100447170D01*
X124397030Y-100461887D01*
X124386811Y-100477115D01*
X124377567Y-100492856D01*
X124369295Y-100509109D01*
X124361996Y-100525874D01*
X124355671Y-100543152D01*
X124350318Y-100560942D01*
X124345939Y-100579245D01*
X124342533Y-100598060D01*
X124340100Y-100617387D01*
X124338640Y-100637226D01*
X124338154Y-100657578D01*
X124338673Y-100677894D01*
X124340232Y-100697718D01*
X124342829Y-100717049D01*
X124346466Y-100735888D01*
X124351141Y-100754235D01*
X124356855Y-100772090D01*
X124363609Y-100789452D01*
X124371401Y-100806322D01*
X124380233Y-100822700D01*
X124390103Y-100838585D01*
X124401012Y-100853978D01*
X124412961Y-100868879D01*
X124425948Y-100883287D01*
X124439974Y-100897203D01*
X124455040Y-100910627D01*
X124471144Y-100923558D01*
X124488097Y-100935803D01*
X124505708Y-100947258D01*
X124523978Y-100957922D01*
X124542906Y-100967797D01*
X124562492Y-100976882D01*
X124582736Y-100985176D01*
X124603639Y-100992681D01*
X124625200Y-100999396D01*
X124647420Y-101005321D01*
X124670297Y-101010455D01*
X124693833Y-101014800D01*
X124718028Y-101018355D01*
X124742880Y-101021120D01*
X124768391Y-101023095D01*
X124794561Y-101024280D01*
X124821388Y-101024675D01*
X124843197Y-101024353D01*
X124864842Y-101023387D01*
X124886325Y-101021777D01*
X124907644Y-101019523D01*
X124928800Y-101016625D01*
X124949793Y-101013083D01*
X124970623Y-101008897D01*
X124991290Y-101004067D01*
X125011793Y-100998593D01*
X125032134Y-100992475D01*
X125052311Y-100985713D01*
X125072325Y-100978307D01*
X125092176Y-100970257D01*
X125111864Y-100961563D01*
X125131388Y-100952225D01*
X125150750Y-100942243D01*
X125161283Y-100954093D01*
X125171816Y-100964362D01*
X125184982Y-100974978D01*
X125198148Y-100983124D01*
X125213948Y-100989641D01*
X125229747Y-100992604D01*
X125235013Y-100992801D01*
X125254263Y-100991578D01*
X125271618Y-100987907D01*
X125287081Y-100981789D01*
X125300650Y-100973224D01*
X125312326Y-100962211D01*
X125322108Y-100948752D01*
X125329997Y-100932845D01*
X125335993Y-100914491D01*
X125340095Y-100893690D01*
X125341778Y-100878463D01*
X125342619Y-100862148D01*
X125342725Y-100853583D01*
X125342725Y-100714364D01*
X125342364Y-100697506D01*
X125341282Y-100681735D01*
X125339479Y-100667052D01*
X125336210Y-100650227D01*
X125331815Y-100635102D01*
X125325053Y-100619196D01*
X125319644Y-100609951D01*
X125309602Y-100598123D01*
X125297061Y-100588742D01*
X125282021Y-100581808D01*
X125267579Y-100577899D01*
X125251403Y-100575690D01*
X125237212Y-100575146D01*
X125222277Y-100575872D01*
X125207411Y-100578276D01*
X125202407Y-100579542D01*
X125187936Y-100584672D01*
X125176029Y-100591999D01*
X125164575Y-100601618D01*
X125158077Y-100607752D01*
X125149407Y-100619736D01*
X125145621Y-100627903D01*
X125139828Y-100641727D01*
X125137927Y-100646953D01*
X125133519Y-100661219D01*
X125132798Y-100663806D01*
X125129501Y-100676263D01*
X125124715Y-100690287D01*
X125117685Y-100703786D01*
X125108412Y-100716757D01*
X125096894Y-100729202D01*
X125083133Y-100741121D01*
X125067127Y-100752512D01*
X125053650Y-100760710D01*
X125038911Y-100768612D01*
X125028384Y-100773715D01*
X125011939Y-100780852D01*
X124995167Y-100787287D01*
X124978065Y-100793019D01*
X124960635Y-100798050D01*
X124942877Y-100802379D01*
X124924790Y-100806006D01*
X124906375Y-100808930D01*
X124887631Y-100811153D01*
X124868559Y-100812674D01*
X124849159Y-100813493D01*
X124836043Y-100813649D01*
X124814255Y-100813240D01*
X124793131Y-100812013D01*
X124772670Y-100809969D01*
X124752872Y-100807106D01*
X124733738Y-100803426D01*
X124715267Y-100798927D01*
X124697459Y-100793611D01*
X124680315Y-100787477D01*
X124663834Y-100780525D01*
X124648016Y-100772755D01*
X124637840Y-100767121D01*
X124623501Y-100758213D01*
X124610573Y-100748939D01*
X124599055Y-100739297D01*
X124585891Y-100725870D01*
X124575235Y-100711791D01*
X124567087Y-100697059D01*
X124561445Y-100681675D01*
X124558311Y-100665638D01*
X124557606Y-100653182D01*
X124558579Y-100637737D01*
X124561499Y-100623094D01*
X124566364Y-100609252D01*
X124573176Y-100596212D01*
X124581935Y-100583973D01*
X124592640Y-100572536D01*
X124605291Y-100561900D01*
X124619888Y-100552065D01*
X124635756Y-100542940D01*
X124652219Y-100534617D01*
X124669278Y-100527095D01*
X124686933Y-100520375D01*
X124705182Y-100514456D01*
X124724027Y-100509338D01*
X124738551Y-100506026D01*
X124753410Y-100503164D01*
X124763503Y-100501507D01*
X124778994Y-100498993D01*
X124794968Y-100496260D01*
X124811426Y-100493309D01*
X124828366Y-100490138D01*
X124845790Y-100486749D01*
X124863696Y-100483140D01*
X124882086Y-100479312D01*
X124900958Y-100475266D01*
X124920313Y-100471001D01*
X124940152Y-100466516D01*
X124953646Y-100463405D01*
X124973599Y-100458506D01*
X124992792Y-100453427D01*
X125011226Y-100448168D01*
X125028899Y-100442728D01*
X125045813Y-100437108D01*
X125061966Y-100431308D01*
X125077360Y-100425327D01*
X125091994Y-100419166D01*
X125105868Y-100412825D01*
X125123184Y-100404090D01*
X125127302Y-100401856D01*
X125142050Y-100392920D01*
X125156205Y-100383424D01*
X125169768Y-100373368D01*
X125182738Y-100362752D01*
X125195116Y-100351575D01*
X125206901Y-100339839D01*
X125218093Y-100327541D01*
X125228694Y-100314684D01*
X125238701Y-100301266D01*
X125248117Y-100287288D01*
X125254064Y-100277658D01*
X125262380Y-100262852D01*
X125269877Y-100247832D01*
X125276556Y-100232601D01*
X125282418Y-100217157D01*
X125287461Y-100201500D01*
X125291687Y-100185631D01*
X125295095Y-100169549D01*
X125297685Y-100153255D01*
X125299457Y-100136748D01*
X125300411Y-100120029D01*
X125300593Y-100108764D01*
X125300082Y-100088916D01*
X125298549Y-100069489D01*
X125295995Y-100050482D01*
X125292418Y-100031897D01*
X125287820Y-100013731D01*
X125282200Y-99995987D01*
X125275558Y-99978664D01*
X125267895Y-99961761D01*
X125259209Y-99945279D01*
X125249502Y-99929217D01*
X125238773Y-99913577D01*
X125227022Y-99898357D01*
X125214249Y-99883558D01*
X125200455Y-99869179D01*
X125185639Y-99855222D01*
X125169801Y-99841685D01*
X125153153Y-99828775D01*
X125135998Y-99816698D01*
X125118336Y-99805453D01*
X125100169Y-99795042D01*
X125081494Y-99785464D01*
X125062313Y-99776718D01*
X125042625Y-99768805D01*
X125022431Y-99761726D01*
X125001730Y-99755479D01*
X124980522Y-99750065D01*
X124958808Y-99745484D01*
X124936587Y-99741736D01*
X124913859Y-99738821D01*
X124890625Y-99736739D01*
X124866885Y-99735489D01*
X124842637Y-99735073D01*
X124822503Y-99735345D01*
X124802767Y-99736160D01*
X124783428Y-99737520D01*
X124764487Y-99739423D01*
X124745944Y-99741871D01*
X124727799Y-99744862D01*
X124710052Y-99748396D01*
X124692703Y-99752475D01*
X124675751Y-99757098D01*
X124659198Y-99762264D01*
X124643042Y-99767974D01*
X124627284Y-99774228D01*
X124611924Y-99781026D01*
X124596961Y-99788367D01*
X124582397Y-99796253D01*
X124568230Y-99804682D01*
X124561911Y-99790596D01*
X124554538Y-99776408D01*
X124546111Y-99763156D01*
X124535578Y-99751034D01*
X124534525Y-99750094D01*
X124521164Y-99741542D01*
X124505937Y-99736848D01*
X124489724Y-99735131D01*
X124485799Y-99735073D01*
G37*
G36*
X123339078Y-100783974D02*
G01*
X123322176Y-100784386D01*
X123306363Y-100785622D01*
X123291641Y-100787683D01*
X123271603Y-100792320D01*
X123254019Y-100798811D01*
X123238888Y-100807158D01*
X123226211Y-100817359D01*
X123215987Y-100829414D01*
X123208218Y-100843325D01*
X123202901Y-100859090D01*
X123200039Y-100876710D01*
X123199494Y-100889487D01*
X123200720Y-100908343D01*
X123204401Y-100925344D01*
X123210535Y-100940491D01*
X123219123Y-100953784D01*
X123230164Y-100965221D01*
X123243659Y-100974804D01*
X123259608Y-100982532D01*
X123278010Y-100988405D01*
X123298866Y-100992424D01*
X123314133Y-100994072D01*
X123330491Y-100994896D01*
X123339078Y-100995000D01*
X123826343Y-100995000D01*
X123843201Y-100994587D01*
X123858972Y-100993351D01*
X123873655Y-100991290D01*
X123893641Y-100986653D01*
X123911179Y-100980162D01*
X123926270Y-100971816D01*
X123938914Y-100961615D01*
X123949111Y-100949559D01*
X123956860Y-100935648D01*
X123962162Y-100919883D01*
X123965017Y-100902264D01*
X123965561Y-100889487D01*
X123965000Y-100874803D01*
X123962721Y-100858172D01*
X123958689Y-100843455D01*
X123951536Y-100828321D01*
X123941859Y-100815943D01*
X123929658Y-100806322D01*
X123915086Y-100798727D01*
X123901251Y-100793598D01*
X123885877Y-100789561D01*
X123868965Y-100786614D01*
X123854327Y-100785043D01*
X123838705Y-100784170D01*
X123826343Y-100783974D01*
X123689323Y-100783974D01*
X123689323Y-99975774D01*
X123915003Y-99975774D01*
X123915003Y-100172145D01*
X123915415Y-100189004D01*
X123916652Y-100204775D01*
X123918712Y-100219458D01*
X123923349Y-100239443D01*
X123929841Y-100256982D01*
X123938187Y-100272073D01*
X123948388Y-100284716D01*
X123960444Y-100294913D01*
X123974354Y-100302663D01*
X123990119Y-100307965D01*
X124007739Y-100310820D01*
X124020516Y-100311364D01*
X124039372Y-100310140D01*
X124056374Y-100306469D01*
X124071521Y-100300351D01*
X124084813Y-100291786D01*
X124096250Y-100280774D01*
X124105833Y-100267314D01*
X124113561Y-100251407D01*
X124119434Y-100233053D01*
X124123453Y-100212252D01*
X124125101Y-100197025D01*
X124125926Y-100180711D01*
X124126029Y-100172145D01*
X124126029Y-99764748D01*
X123037194Y-99764748D01*
X123037194Y-100172145D01*
X123037543Y-100188506D01*
X123038591Y-100203882D01*
X123040883Y-100221717D01*
X123044265Y-100238014D01*
X123048739Y-100252772D01*
X123055549Y-100268451D01*
X123059542Y-100275460D01*
X123069164Y-100287662D01*
X123081541Y-100297339D01*
X123096675Y-100304492D01*
X123111393Y-100308524D01*
X123128024Y-100310803D01*
X123142707Y-100311364D01*
X123161563Y-100310140D01*
X123178565Y-100306469D01*
X123193712Y-100300351D01*
X123207004Y-100291786D01*
X123218441Y-100280774D01*
X123228024Y-100267314D01*
X123235752Y-100251407D01*
X123241625Y-100233053D01*
X123245644Y-100212252D01*
X123247293Y-100197025D01*
X123248117Y-100180711D01*
X123248220Y-100172145D01*
X123248220Y-99975774D01*
X123478297Y-99975774D01*
X123478297Y-100783974D01*
X123339078Y-100783974D01*
G37*
G36*
X122004047Y-100783974D02*
G01*
X121987686Y-100784323D01*
X121972311Y-100785370D01*
X121954475Y-100787662D01*
X121938179Y-100791045D01*
X121923420Y-100795519D01*
X121907741Y-100802328D01*
X121900732Y-100806322D01*
X121888531Y-100815943D01*
X121878853Y-100828321D01*
X121871701Y-100843455D01*
X121867669Y-100858172D01*
X121865390Y-100874803D01*
X121864829Y-100889487D01*
X121866052Y-100908343D01*
X121869723Y-100925344D01*
X121875841Y-100940491D01*
X121884406Y-100953784D01*
X121895419Y-100965221D01*
X121908878Y-100974804D01*
X121924785Y-100982532D01*
X121943139Y-100988405D01*
X121963940Y-100992424D01*
X121979167Y-100994072D01*
X121995482Y-100994896D01*
X122004047Y-100995000D01*
X122641521Y-100995000D01*
X122658379Y-100994587D01*
X122674150Y-100993351D01*
X122688833Y-100991290D01*
X122708819Y-100986653D01*
X122726357Y-100980162D01*
X122741448Y-100971816D01*
X122754092Y-100961615D01*
X122764289Y-100949559D01*
X122772038Y-100935648D01*
X122777340Y-100919883D01*
X122780195Y-100902264D01*
X122780739Y-100889487D01*
X122780178Y-100874803D01*
X122777899Y-100858172D01*
X122773867Y-100843455D01*
X122766714Y-100828321D01*
X122757037Y-100815943D01*
X122744836Y-100806322D01*
X122730264Y-100798727D01*
X122716429Y-100793598D01*
X122701055Y-100789561D01*
X122684143Y-100786614D01*
X122669505Y-100785043D01*
X122653883Y-100784170D01*
X122641521Y-100783974D01*
X122428297Y-100783974D01*
X122428297Y-99975774D01*
X122641521Y-99975774D01*
X122658379Y-99975362D01*
X122674150Y-99974125D01*
X122688833Y-99972065D01*
X122708819Y-99967428D01*
X122726357Y-99960936D01*
X122741448Y-99952590D01*
X122754092Y-99942389D01*
X122764289Y-99930333D01*
X122772038Y-99916423D01*
X122777340Y-99900658D01*
X122780195Y-99883038D01*
X122780739Y-99870261D01*
X122780178Y-99855578D01*
X122777899Y-99838947D01*
X122773867Y-99824230D01*
X122766714Y-99809096D01*
X122757037Y-99796718D01*
X122744836Y-99787096D01*
X122730264Y-99779502D01*
X122716429Y-99774373D01*
X122701055Y-99770335D01*
X122684143Y-99767389D01*
X122669505Y-99765818D01*
X122653883Y-99764945D01*
X122641521Y-99764748D01*
X122004047Y-99764748D01*
X121987686Y-99765097D01*
X121972311Y-99766145D01*
X121954475Y-99768437D01*
X121938179Y-99771819D01*
X121923420Y-99776293D01*
X121907741Y-99783103D01*
X121900732Y-99787096D01*
X121888531Y-99796718D01*
X121878853Y-99809096D01*
X121871701Y-99824230D01*
X121867669Y-99838947D01*
X121865390Y-99855578D01*
X121864829Y-99870261D01*
X121866052Y-99889117D01*
X121869723Y-99906119D01*
X121875841Y-99921266D01*
X121884406Y-99934558D01*
X121895419Y-99945996D01*
X121908878Y-99955578D01*
X121924785Y-99963306D01*
X121943139Y-99969180D01*
X121963940Y-99973198D01*
X121979167Y-99974847D01*
X121995482Y-99975671D01*
X122004047Y-99975774D01*
X122217271Y-99975774D01*
X122217271Y-100783974D01*
X122004047Y-100783974D01*
G37*
G36*
X121418146Y-99764935D02*
G01*
X121433811Y-99765765D01*
X121448526Y-99767259D01*
X121465583Y-99770061D01*
X121481155Y-99773900D01*
X121495243Y-99778776D01*
X121510188Y-99785997D01*
X121522763Y-99795323D01*
X121532736Y-99807636D01*
X121540108Y-99822937D01*
X121544264Y-99837971D01*
X121546613Y-99855080D01*
X121547191Y-99870261D01*
X121546638Y-99883038D01*
X121543738Y-99900658D01*
X121538352Y-99916423D01*
X121530480Y-99930333D01*
X121520123Y-99942389D01*
X121507279Y-99952590D01*
X121491950Y-99960936D01*
X121474135Y-99967428D01*
X121453834Y-99972065D01*
X121438919Y-99974125D01*
X121422899Y-99975362D01*
X121405774Y-99975774D01*
X121272784Y-99975774D01*
X121599947Y-100783974D01*
X121612319Y-100784160D01*
X121627984Y-100784990D01*
X121642699Y-100786485D01*
X121659756Y-100789286D01*
X121675328Y-100793125D01*
X121689416Y-100798001D01*
X121704361Y-100805223D01*
X121716936Y-100814548D01*
X121726910Y-100826861D01*
X121734281Y-100842163D01*
X121738437Y-100857196D01*
X121740786Y-100874305D01*
X121741364Y-100889487D01*
X121740820Y-100902264D01*
X121737965Y-100919883D01*
X121732663Y-100935648D01*
X121724913Y-100949559D01*
X121714716Y-100961615D01*
X121702073Y-100971816D01*
X121686982Y-100980162D01*
X121669443Y-100986653D01*
X121649458Y-100991290D01*
X121634775Y-100993351D01*
X121619004Y-100994587D01*
X121602145Y-100995000D01*
X121321510Y-100995000D01*
X121312945Y-100994896D01*
X121296630Y-100994072D01*
X121281403Y-100992424D01*
X121260602Y-100988405D01*
X121242248Y-100982532D01*
X121226341Y-100974804D01*
X121212882Y-100965221D01*
X121201869Y-100953784D01*
X121193304Y-100940491D01*
X121187186Y-100925344D01*
X121183515Y-100908343D01*
X121182292Y-100889487D01*
X121182836Y-100876710D01*
X121185691Y-100859090D01*
X121190993Y-100843325D01*
X121198743Y-100829414D01*
X121208939Y-100817359D01*
X121221583Y-100807158D01*
X121236674Y-100798811D01*
X121254212Y-100792320D01*
X121274198Y-100787683D01*
X121288881Y-100785622D01*
X121304652Y-100784386D01*
X121321510Y-100783974D01*
X121369870Y-100783974D01*
X121321510Y-100661608D01*
X120819225Y-100661608D01*
X120770498Y-100783974D01*
X120819225Y-100783974D01*
X120831588Y-100784170D01*
X120847210Y-100785043D01*
X120861847Y-100786614D01*
X120878759Y-100789561D01*
X120894133Y-100793598D01*
X120907968Y-100798727D01*
X120922540Y-100806322D01*
X120934741Y-100815943D01*
X120944418Y-100828321D01*
X120951571Y-100843455D01*
X120955603Y-100858172D01*
X120957882Y-100874803D01*
X120958443Y-100889487D01*
X120957900Y-100902264D01*
X120955044Y-100919883D01*
X120949742Y-100935648D01*
X120941993Y-100949559D01*
X120931796Y-100961615D01*
X120919152Y-100971816D01*
X120904061Y-100980162D01*
X120886523Y-100986653D01*
X120866537Y-100991290D01*
X120851854Y-100993351D01*
X120836083Y-100994587D01*
X120819225Y-100995000D01*
X120525767Y-100995000D01*
X120517202Y-100994896D01*
X120500887Y-100994072D01*
X120485660Y-100992424D01*
X120464859Y-100988405D01*
X120446505Y-100982532D01*
X120430598Y-100974804D01*
X120417139Y-100965221D01*
X120406126Y-100953784D01*
X120397561Y-100940491D01*
X120391443Y-100925344D01*
X120387772Y-100908343D01*
X120386549Y-100889487D01*
X120387110Y-100876710D01*
X120390055Y-100859090D01*
X120395525Y-100843325D01*
X120403519Y-100829414D01*
X120414037Y-100817359D01*
X120427081Y-100807158D01*
X120442648Y-100798811D01*
X120460740Y-100792320D01*
X120481357Y-100787683D01*
X120496504Y-100785622D01*
X120512773Y-100784386D01*
X120530163Y-100783974D01*
X120667499Y-100450582D01*
X120905687Y-100450582D01*
X121236880Y-100450582D01*
X121070184Y-100045383D01*
X120905687Y-100450582D01*
X120667499Y-100450582D01*
X120950017Y-99764748D01*
X121405774Y-99764748D01*
X121418146Y-99764935D01*
G37*
G36*
X119328122Y-99764748D02*
G01*
X119311264Y-99765160D01*
X119295493Y-99766397D01*
X119280810Y-99768458D01*
X119260824Y-99773095D01*
X119243286Y-99779586D01*
X119228195Y-99787932D01*
X119215551Y-99798133D01*
X119205355Y-99810189D01*
X119197605Y-99824099D01*
X119192303Y-99839864D01*
X119189448Y-99857484D01*
X119188904Y-99870261D01*
X119190034Y-99889117D01*
X119193425Y-99906119D01*
X119199076Y-99921266D01*
X119206987Y-99934558D01*
X119217159Y-99945996D01*
X119229592Y-99955578D01*
X119244285Y-99963306D01*
X119261238Y-99969180D01*
X119280452Y-99973198D01*
X119301926Y-99975362D01*
X119317498Y-99975774D01*
X119317498Y-100995000D01*
X119526692Y-100995000D01*
X120073307Y-100163719D01*
X120073307Y-100783974D01*
X119999302Y-100783974D01*
X119982941Y-100784323D01*
X119967565Y-100785370D01*
X119949730Y-100787662D01*
X119933433Y-100791045D01*
X119918675Y-100795519D01*
X119902996Y-100802328D01*
X119895987Y-100806322D01*
X119883785Y-100815943D01*
X119874108Y-100828321D01*
X119866955Y-100843455D01*
X119862923Y-100858172D01*
X119860644Y-100874803D01*
X119860083Y-100889487D01*
X119861307Y-100908343D01*
X119864978Y-100925344D01*
X119871096Y-100940491D01*
X119879661Y-100953784D01*
X119890673Y-100965221D01*
X119904133Y-100974804D01*
X119920040Y-100982532D01*
X119938394Y-100988405D01*
X119959195Y-100992424D01*
X119974422Y-100994072D01*
X119990736Y-100994896D01*
X119999302Y-100995000D01*
X120271510Y-100995000D01*
X120288635Y-100994587D01*
X120304655Y-100993351D01*
X120319570Y-100991290D01*
X120339871Y-100986653D01*
X120357686Y-100980162D01*
X120373015Y-100971816D01*
X120385859Y-100961615D01*
X120396217Y-100949559D01*
X120404088Y-100935648D01*
X120409474Y-100919883D01*
X120412375Y-100902264D01*
X120412927Y-100889487D01*
X120411797Y-100870630D01*
X120408406Y-100853629D01*
X120402755Y-100838482D01*
X120394843Y-100825190D01*
X120384671Y-100813752D01*
X120372239Y-100804170D01*
X120357546Y-100796442D01*
X120340593Y-100790568D01*
X120321379Y-100786550D01*
X120299905Y-100784386D01*
X120284333Y-100783974D01*
X120284333Y-99975774D01*
X120315840Y-99975774D01*
X120332699Y-99975362D01*
X120348470Y-99974125D01*
X120363153Y-99972065D01*
X120383138Y-99967428D01*
X120400677Y-99960936D01*
X120415768Y-99952590D01*
X120428412Y-99942389D01*
X120438608Y-99930333D01*
X120446358Y-99916423D01*
X120451660Y-99900658D01*
X120454515Y-99883038D01*
X120455059Y-99870261D01*
X120454498Y-99855578D01*
X120452219Y-99838947D01*
X120448187Y-99824230D01*
X120441034Y-99809096D01*
X120431357Y-99796718D01*
X120419155Y-99787096D01*
X120404584Y-99779502D01*
X120390748Y-99774373D01*
X120375375Y-99770335D01*
X120358462Y-99767389D01*
X120343825Y-99765818D01*
X120328203Y-99764945D01*
X120315840Y-99764748D01*
X120073307Y-99764748D01*
X119528524Y-100591999D01*
X119528524Y-99975774D01*
X119602529Y-99975774D01*
X119619388Y-99975362D01*
X119635158Y-99974125D01*
X119649842Y-99972065D01*
X119669827Y-99967428D01*
X119687365Y-99960936D01*
X119702456Y-99952590D01*
X119715100Y-99942389D01*
X119725297Y-99930333D01*
X119733046Y-99916423D01*
X119738349Y-99900658D01*
X119741204Y-99883038D01*
X119741748Y-99870261D01*
X119741187Y-99855578D01*
X119738908Y-99838947D01*
X119734875Y-99824230D01*
X119727723Y-99809096D01*
X119718046Y-99796718D01*
X119705844Y-99787096D01*
X119691272Y-99779502D01*
X119677437Y-99774373D01*
X119662063Y-99770335D01*
X119645151Y-99767389D01*
X119630514Y-99765818D01*
X119614892Y-99764945D01*
X119602529Y-99764748D01*
X119328122Y-99764748D01*
G37*
G36*
X117761941Y-99764836D02*
G01*
X117777443Y-99765534D01*
X117795564Y-99767389D01*
X117812290Y-99770335D01*
X117827621Y-99774373D01*
X117841556Y-99779502D01*
X117856437Y-99787096D01*
X117868888Y-99796718D01*
X117878762Y-99809096D01*
X117886061Y-99824230D01*
X117890175Y-99838947D01*
X117892501Y-99855578D01*
X117893073Y-99870261D01*
X117892530Y-99883038D01*
X117889675Y-99900658D01*
X117884372Y-99916423D01*
X117876623Y-99930333D01*
X117866426Y-99942389D01*
X117853782Y-99952590D01*
X117838691Y-99960936D01*
X117821153Y-99967428D01*
X117801168Y-99972065D01*
X117786484Y-99974125D01*
X117770714Y-99975362D01*
X117753855Y-99975774D01*
X117722348Y-99975774D01*
X117722348Y-100783974D01*
X117753855Y-100783974D01*
X117762420Y-100784077D01*
X117778735Y-100784901D01*
X117793962Y-100786550D01*
X117814763Y-100790568D01*
X117833117Y-100796442D01*
X117849024Y-100804170D01*
X117862483Y-100813752D01*
X117873496Y-100825190D01*
X117882061Y-100838482D01*
X117888179Y-100853629D01*
X117891850Y-100870630D01*
X117893073Y-100889487D01*
X117892530Y-100902264D01*
X117889675Y-100919883D01*
X117884372Y-100935648D01*
X117876623Y-100949559D01*
X117866426Y-100961615D01*
X117853782Y-100971816D01*
X117838691Y-100980162D01*
X117821153Y-100986653D01*
X117801168Y-100991290D01*
X117786484Y-100993351D01*
X117770714Y-100994587D01*
X117753855Y-100995000D01*
X117131402Y-100995000D01*
X117108198Y-100994637D01*
X117085572Y-100993551D01*
X117063525Y-100991741D01*
X117042055Y-100989206D01*
X117021164Y-100985948D01*
X117000851Y-100981965D01*
X116981116Y-100977258D01*
X116961959Y-100971827D01*
X116943380Y-100965672D01*
X116925379Y-100958792D01*
X116907957Y-100951189D01*
X116891113Y-100942861D01*
X116874847Y-100933810D01*
X116859159Y-100924034D01*
X116844049Y-100913534D01*
X116829518Y-100902309D01*
X116815721Y-100890447D01*
X116802813Y-100878124D01*
X116790796Y-100865339D01*
X116779670Y-100852095D01*
X116769433Y-100838389D01*
X116760086Y-100824222D01*
X116751630Y-100809595D01*
X116744064Y-100794507D01*
X116737387Y-100778958D01*
X116731601Y-100762948D01*
X116726706Y-100746477D01*
X116722700Y-100729546D01*
X116719584Y-100712153D01*
X116717359Y-100694300D01*
X116716024Y-100675986D01*
X116715883Y-100670034D01*
X116926605Y-100670034D01*
X116927446Y-100683832D01*
X116931864Y-100702859D01*
X116940068Y-100719883D01*
X116952060Y-100734904D01*
X116967838Y-100747923D01*
X116980460Y-100755489D01*
X116994765Y-100762165D01*
X117010754Y-100767951D01*
X117028425Y-100772847D01*
X117047780Y-100776852D01*
X117068817Y-100779968D01*
X117091537Y-100782193D01*
X117115940Y-100783529D01*
X117142027Y-100783974D01*
X117511322Y-100783974D01*
X117511322Y-100484288D01*
X117226290Y-100484288D01*
X117217893Y-100484337D01*
X117201410Y-100484735D01*
X117185341Y-100485531D01*
X117169688Y-100486725D01*
X117154449Y-100488316D01*
X117139626Y-100490305D01*
X117118169Y-100494035D01*
X117097645Y-100498660D01*
X117078056Y-100504180D01*
X117059400Y-100510595D01*
X117041679Y-100517906D01*
X117024891Y-100526112D01*
X117009036Y-100535212D01*
X117003965Y-100538405D01*
X116989716Y-100548379D01*
X116976917Y-100558944D01*
X116965567Y-100570103D01*
X116955665Y-100581854D01*
X116947213Y-100594197D01*
X116940209Y-100607133D01*
X116933125Y-100625302D01*
X116929503Y-100639620D01*
X116927329Y-100654531D01*
X116926605Y-100670034D01*
X116715883Y-100670034D01*
X116715579Y-100657212D01*
X116715797Y-100645156D01*
X116717546Y-100621529D01*
X116721044Y-100598545D01*
X116726290Y-100576205D01*
X116733285Y-100554510D01*
X116742030Y-100533458D01*
X116752522Y-100513051D01*
X116764764Y-100493287D01*
X116778755Y-100474167D01*
X116794494Y-100455692D01*
X116811982Y-100437860D01*
X116831219Y-100420672D01*
X116852205Y-100404129D01*
X116874940Y-100388229D01*
X116899423Y-100372973D01*
X116912321Y-100365587D01*
X116925655Y-100358362D01*
X116939427Y-100351297D01*
X116923323Y-100338259D01*
X116908258Y-100324971D01*
X116894231Y-100311434D01*
X116881244Y-100297648D01*
X116869296Y-100283613D01*
X116858386Y-100269329D01*
X116848516Y-100254796D01*
X116839685Y-100240014D01*
X116831892Y-100224983D01*
X116825139Y-100209703D01*
X116819424Y-100194174D01*
X116814749Y-100178396D01*
X116811112Y-100162369D01*
X116808515Y-100146093D01*
X116806957Y-100129568D01*
X116806437Y-100112794D01*
X116806482Y-100110963D01*
X117017463Y-100110963D01*
X117017532Y-100115402D01*
X117019189Y-100132653D01*
X117023056Y-100149091D01*
X117029132Y-100164715D01*
X117037419Y-100179527D01*
X117047914Y-100193526D01*
X117060620Y-100206713D01*
X117075535Y-100219086D01*
X117088171Y-100227833D01*
X117097179Y-100233334D01*
X117111323Y-100240920D01*
X117126227Y-100247708D01*
X117141891Y-100253697D01*
X117158316Y-100258888D01*
X117175500Y-100263280D01*
X117193444Y-100266873D01*
X117212148Y-100269668D01*
X117231611Y-100271665D01*
X117251835Y-100272863D01*
X117272819Y-100273262D01*
X117511322Y-100273262D01*
X117511322Y-99975774D01*
X117230321Y-99975774D01*
X117224179Y-99975809D01*
X117206249Y-99976335D01*
X117189060Y-99977492D01*
X117172611Y-99979280D01*
X117156903Y-99981700D01*
X117141935Y-99984750D01*
X117123130Y-99989799D01*
X117105642Y-99995970D01*
X117089471Y-100003263D01*
X117074616Y-100011678D01*
X117071099Y-100013949D01*
X117058151Y-100023569D01*
X117046988Y-100034047D01*
X117035546Y-100048353D01*
X117026895Y-100064000D01*
X117021035Y-100080989D01*
X117018356Y-100095547D01*
X117017463Y-100110963D01*
X116806482Y-100110963D01*
X116806895Y-100094263D01*
X116808269Y-100076129D01*
X116810559Y-100058394D01*
X116813764Y-100041056D01*
X116817886Y-100024116D01*
X116822923Y-100007573D01*
X116828877Y-99991429D01*
X116835746Y-99975683D01*
X116843531Y-99960334D01*
X116852233Y-99945383D01*
X116861850Y-99930830D01*
X116872383Y-99916675D01*
X116883831Y-99902918D01*
X116896196Y-99889558D01*
X116909477Y-99876597D01*
X116923674Y-99864033D01*
X116938527Y-99852010D01*
X116953870Y-99840763D01*
X116969702Y-99830292D01*
X116986024Y-99820596D01*
X117002835Y-99811676D01*
X117020136Y-99803531D01*
X117037926Y-99796163D01*
X117056206Y-99789569D01*
X117074975Y-99783752D01*
X117094233Y-99778710D01*
X117113981Y-99774444D01*
X117134219Y-99770954D01*
X117154945Y-99768239D01*
X117176162Y-99766300D01*
X117197867Y-99765136D01*
X117220062Y-99764748D01*
X117753855Y-99764748D01*
X117761941Y-99764836D01*
G37*
G36*
X115562264Y-100448384D02*
G01*
X115547581Y-100448945D01*
X115530949Y-100451224D01*
X115516232Y-100455256D01*
X115501098Y-100462409D01*
X115488721Y-100472086D01*
X115479099Y-100484288D01*
X115471504Y-100498937D01*
X115466376Y-100512954D01*
X115462338Y-100528618D01*
X115459392Y-100545927D01*
X115457820Y-100560959D01*
X115456947Y-100577045D01*
X115456751Y-100589801D01*
X115456751Y-100995000D01*
X116452896Y-100995000D01*
X116469754Y-100994587D01*
X116485525Y-100993351D01*
X116500208Y-100991290D01*
X116520193Y-100986653D01*
X116537732Y-100980162D01*
X116552823Y-100971816D01*
X116565467Y-100961615D01*
X116575663Y-100949559D01*
X116583413Y-100935648D01*
X116588715Y-100919883D01*
X116591570Y-100902264D01*
X116592114Y-100889487D01*
X116591553Y-100874803D01*
X116589274Y-100858172D01*
X116585242Y-100843455D01*
X116578089Y-100828321D01*
X116568412Y-100815943D01*
X116556210Y-100806322D01*
X116541639Y-100798727D01*
X116527803Y-100793598D01*
X116512430Y-100789561D01*
X116495518Y-100786614D01*
X116480880Y-100785043D01*
X116465258Y-100784170D01*
X116452896Y-100783974D01*
X116332362Y-100783974D01*
X116332362Y-99975774D01*
X116452896Y-99975774D01*
X116469754Y-99975362D01*
X116485525Y-99974125D01*
X116500208Y-99972065D01*
X116520193Y-99967428D01*
X116537732Y-99960936D01*
X116552823Y-99952590D01*
X116565467Y-99942389D01*
X116575663Y-99930333D01*
X116583413Y-99916423D01*
X116588715Y-99900658D01*
X116591570Y-99883038D01*
X116592114Y-99870261D01*
X116591553Y-99855578D01*
X116589274Y-99838947D01*
X116585242Y-99824230D01*
X116578089Y-99809096D01*
X116568412Y-99796718D01*
X116556210Y-99787096D01*
X116541639Y-99779502D01*
X116527803Y-99774373D01*
X116512430Y-99770335D01*
X116495518Y-99767389D01*
X116480880Y-99765818D01*
X116465258Y-99764945D01*
X116452896Y-99764748D01*
X116001168Y-99764748D01*
X115984310Y-99765160D01*
X115968539Y-99766397D01*
X115953856Y-99768458D01*
X115933870Y-99773095D01*
X115916332Y-99779586D01*
X115901241Y-99787932D01*
X115888597Y-99798133D01*
X115878401Y-99810189D01*
X115870651Y-99824099D01*
X115865349Y-99839864D01*
X115862494Y-99857484D01*
X115861950Y-99870261D01*
X115863174Y-99889117D01*
X115866844Y-99906119D01*
X115872962Y-99921266D01*
X115881528Y-99934558D01*
X115892540Y-99945996D01*
X115906000Y-99955578D01*
X115921906Y-99963306D01*
X115940260Y-99969180D01*
X115961062Y-99973198D01*
X115976289Y-99974847D01*
X115992603Y-99975671D01*
X116001168Y-99975774D01*
X116121336Y-99975774D01*
X116121336Y-100783974D01*
X115667777Y-100783974D01*
X115667777Y-100589801D01*
X115667365Y-100572676D01*
X115666128Y-100556656D01*
X115664067Y-100541741D01*
X115659431Y-100521440D01*
X115652939Y-100503625D01*
X115644593Y-100488296D01*
X115634392Y-100475452D01*
X115622336Y-100465094D01*
X115608426Y-100457223D01*
X115592661Y-100451837D01*
X115575041Y-100448936D01*
X115562264Y-100448384D01*
G37*
G36*
X114784909Y-99735257D02*
G01*
X114799864Y-99735811D01*
X114814684Y-99736734D01*
X114829369Y-99738027D01*
X114858334Y-99741719D01*
X114886757Y-99746888D01*
X114914639Y-99753534D01*
X114941981Y-99761657D01*
X114968781Y-99771257D01*
X114995040Y-99782334D01*
X115020759Y-99794887D01*
X115045937Y-99808918D01*
X115070573Y-99824426D01*
X115082688Y-99832733D01*
X115094669Y-99841410D01*
X115106514Y-99850456D01*
X115118223Y-99859871D01*
X115129798Y-99869656D01*
X115141237Y-99879810D01*
X115152541Y-99890333D01*
X115163710Y-99901225D01*
X115174743Y-99912486D01*
X115185642Y-99924117D01*
X115196280Y-99935985D01*
X115206582Y-99948003D01*
X115216545Y-99960173D01*
X115226171Y-99972494D01*
X115235458Y-99984966D01*
X115244409Y-99997589D01*
X115253021Y-100010362D01*
X115261296Y-100023287D01*
X115269233Y-100036363D01*
X115276832Y-100049589D01*
X115284093Y-100062967D01*
X115291017Y-100076496D01*
X115297603Y-100090175D01*
X115303851Y-100104006D01*
X115309762Y-100117987D01*
X115315334Y-100132120D01*
X115320569Y-100146404D01*
X115325467Y-100160838D01*
X115330026Y-100175424D01*
X115334248Y-100190160D01*
X115338132Y-100205048D01*
X115341678Y-100220086D01*
X115344887Y-100235276D01*
X115347758Y-100250616D01*
X115350291Y-100266107D01*
X115352486Y-100281750D01*
X115354344Y-100297543D01*
X115355864Y-100313488D01*
X115357046Y-100329583D01*
X115357890Y-100345829D01*
X115358397Y-100362227D01*
X115358565Y-100378775D01*
X115358398Y-100395459D01*
X115357894Y-100411988D01*
X115357055Y-100428363D01*
X115355881Y-100444583D01*
X115354371Y-100460649D01*
X115352525Y-100476560D01*
X115350343Y-100492316D01*
X115347826Y-100507918D01*
X115344974Y-100523366D01*
X115341786Y-100538658D01*
X115338262Y-100553797D01*
X115334403Y-100568780D01*
X115330208Y-100583610D01*
X115325677Y-100598284D01*
X115320811Y-100612804D01*
X115315609Y-100627170D01*
X115310072Y-100641381D01*
X115304199Y-100655437D01*
X115297990Y-100669339D01*
X115291446Y-100683086D01*
X115284567Y-100696679D01*
X115277351Y-100710117D01*
X115269800Y-100723400D01*
X115261914Y-100736530D01*
X115253692Y-100749504D01*
X115245134Y-100762324D01*
X115236241Y-100774989D01*
X115227012Y-100787500D01*
X115217448Y-100799856D01*
X115207548Y-100812058D01*
X115197312Y-100824105D01*
X115186741Y-100835997D01*
X115175908Y-100847606D01*
X115164933Y-100858845D01*
X115153817Y-100869716D01*
X115142559Y-100880219D01*
X115131160Y-100890353D01*
X115119619Y-100900118D01*
X115107936Y-100909515D01*
X115096111Y-100918544D01*
X115084145Y-100927204D01*
X115072037Y-100935495D01*
X115047396Y-100950973D01*
X115022189Y-100964976D01*
X114996414Y-100977506D01*
X114970073Y-100988561D01*
X114943166Y-100998142D01*
X114915691Y-101006249D01*
X114887650Y-101012883D01*
X114859042Y-101018042D01*
X114844526Y-101020069D01*
X114829867Y-101021727D01*
X114815068Y-101023017D01*
X114800126Y-101023938D01*
X114785043Y-101024491D01*
X114769818Y-101024675D01*
X114754839Y-101024491D01*
X114739991Y-101023941D01*
X114710685Y-101021738D01*
X114681899Y-101018068D01*
X114653635Y-101012928D01*
X114625891Y-101006321D01*
X114598669Y-100998245D01*
X114571967Y-100988701D01*
X114545786Y-100977689D01*
X114520127Y-100965208D01*
X114494988Y-100951259D01*
X114470370Y-100935842D01*
X114458256Y-100927582D01*
X114446273Y-100918956D01*
X114434419Y-100909963D01*
X114422697Y-100900602D01*
X114411104Y-100890874D01*
X114399641Y-100880780D01*
X114388309Y-100870318D01*
X114377107Y-100859489D01*
X114366035Y-100848293D01*
X114355094Y-100836730D01*
X114344387Y-100824914D01*
X114334021Y-100812958D01*
X114323994Y-100800863D01*
X114314307Y-100788628D01*
X114304960Y-100776253D01*
X114295953Y-100763739D01*
X114287286Y-100751086D01*
X114278959Y-100738293D01*
X114270971Y-100725360D01*
X114263324Y-100712288D01*
X114256016Y-100699076D01*
X114249048Y-100685725D01*
X114242421Y-100672234D01*
X114236133Y-100658604D01*
X114230185Y-100644834D01*
X114224576Y-100630925D01*
X114219308Y-100616876D01*
X114214380Y-100602688D01*
X114209791Y-100588360D01*
X114205543Y-100573892D01*
X114201634Y-100559285D01*
X114198065Y-100544539D01*
X114194836Y-100529653D01*
X114191947Y-100514627D01*
X114189398Y-100499462D01*
X114187189Y-100484157D01*
X114185319Y-100468713D01*
X114183790Y-100453130D01*
X114182600Y-100437406D01*
X114181750Y-100421544D01*
X114181241Y-100405541D01*
X114181071Y-100389399D01*
X114181115Y-100385003D01*
X114392096Y-100385003D01*
X114392534Y-100406704D01*
X114393848Y-100428028D01*
X114396038Y-100448974D01*
X114399103Y-100469542D01*
X114403044Y-100489732D01*
X114407862Y-100509544D01*
X114413555Y-100528978D01*
X114420123Y-100548035D01*
X114427568Y-100566714D01*
X114435888Y-100585015D01*
X114445085Y-100602938D01*
X114455157Y-100620484D01*
X114466105Y-100637651D01*
X114477929Y-100654441D01*
X114490628Y-100670853D01*
X114504204Y-100686887D01*
X114518336Y-100702237D01*
X114532798Y-100716597D01*
X114547588Y-100729966D01*
X114562708Y-100742346D01*
X114578157Y-100753734D01*
X114593935Y-100764133D01*
X114610042Y-100773541D01*
X114626478Y-100781959D01*
X114643244Y-100789386D01*
X114660338Y-100795823D01*
X114677762Y-100801270D01*
X114695515Y-100805727D01*
X114713597Y-100809193D01*
X114732008Y-100811669D01*
X114750749Y-100813154D01*
X114769818Y-100813649D01*
X114789151Y-100813151D01*
X114808132Y-100811657D01*
X114826761Y-100809167D01*
X114845037Y-100805681D01*
X114862962Y-100801199D01*
X114880534Y-100795720D01*
X114897755Y-100789246D01*
X114914624Y-100781775D01*
X114931140Y-100773309D01*
X114947304Y-100763847D01*
X114963117Y-100753388D01*
X114978577Y-100741933D01*
X114993685Y-100729483D01*
X115008441Y-100716036D01*
X115022846Y-100701593D01*
X115036898Y-100686154D01*
X115050296Y-100669970D01*
X115062829Y-100653382D01*
X115074499Y-100636390D01*
X115085303Y-100618995D01*
X115095244Y-100601197D01*
X115104320Y-100582994D01*
X115112532Y-100564388D01*
X115119879Y-100545379D01*
X115126362Y-100525966D01*
X115131981Y-100506149D01*
X115136735Y-100485929D01*
X115140625Y-100465305D01*
X115143650Y-100444278D01*
X115145811Y-100422847D01*
X115147107Y-100401013D01*
X115147540Y-100378775D01*
X115147103Y-100356804D01*
X115145794Y-100335223D01*
X115143611Y-100314031D01*
X115140556Y-100293229D01*
X115136627Y-100272815D01*
X115131826Y-100252791D01*
X115126152Y-100233156D01*
X115119604Y-100213911D01*
X115112184Y-100195055D01*
X115103891Y-100176588D01*
X115094724Y-100158510D01*
X115084685Y-100140821D01*
X115073773Y-100123522D01*
X115061988Y-100106612D01*
X115049330Y-100090091D01*
X115035799Y-100073960D01*
X115021622Y-100058477D01*
X115007119Y-100043992D01*
X114992290Y-100030507D01*
X114977134Y-100018020D01*
X114961653Y-100006533D01*
X114945845Y-99996044D01*
X114929710Y-99986555D01*
X114913250Y-99978064D01*
X114896463Y-99970572D01*
X114879350Y-99964079D01*
X114861910Y-99958585D01*
X114844144Y-99954090D01*
X114826052Y-99950594D01*
X114807634Y-99948096D01*
X114788889Y-99946598D01*
X114769818Y-99946099D01*
X114750487Y-99946602D01*
X114731510Y-99948114D01*
X114712888Y-99950632D01*
X114694622Y-99954159D01*
X114676710Y-99958692D01*
X114659153Y-99964234D01*
X114641951Y-99970782D01*
X114625104Y-99978339D01*
X114608612Y-99986902D01*
X114592475Y-99996474D01*
X114576693Y-100007052D01*
X114561265Y-100018639D01*
X114546193Y-100031232D01*
X114531475Y-100044834D01*
X114517113Y-100059443D01*
X114503105Y-100075059D01*
X114489662Y-100091339D01*
X114477087Y-100108032D01*
X114465379Y-100125136D01*
X114454539Y-100142653D01*
X114444565Y-100160582D01*
X114435459Y-100178923D01*
X114427220Y-100197676D01*
X114419849Y-100216842D01*
X114413344Y-100236419D01*
X114407707Y-100256409D01*
X114402937Y-100276811D01*
X114399035Y-100297625D01*
X114395999Y-100318851D01*
X114393831Y-100340490D01*
X114392530Y-100362540D01*
X114392096Y-100385003D01*
X114181115Y-100385003D01*
X114181265Y-100370018D01*
X114181849Y-100350891D01*
X114182822Y-100332019D01*
X114184185Y-100313402D01*
X114185936Y-100295039D01*
X114188077Y-100276931D01*
X114190608Y-100259078D01*
X114193527Y-100241480D01*
X114196836Y-100224136D01*
X114200534Y-100207047D01*
X114204621Y-100190213D01*
X114209098Y-100173634D01*
X114213963Y-100157309D01*
X114219218Y-100141239D01*
X114224863Y-100125424D01*
X114230896Y-100109863D01*
X114234008Y-100102202D01*
X114240357Y-100087206D01*
X114246871Y-100072649D01*
X114253551Y-100058530D01*
X114260398Y-100044848D01*
X114267410Y-100031605D01*
X114278240Y-100012561D01*
X114289444Y-99994502D01*
X114301021Y-99977428D01*
X114312971Y-99961340D01*
X114325295Y-99946237D01*
X114337993Y-99932120D01*
X114351064Y-99918988D01*
X114359968Y-99910607D01*
X114373571Y-99898380D01*
X114387471Y-99886564D01*
X114401667Y-99875161D01*
X114416159Y-99864170D01*
X114430948Y-99853592D01*
X114446032Y-99843425D01*
X114461413Y-99833671D01*
X114477090Y-99824328D01*
X114493063Y-99815398D01*
X114509333Y-99806880D01*
X114520184Y-99801459D01*
X114536106Y-99793778D01*
X114551602Y-99786639D01*
X114566674Y-99780040D01*
X114581321Y-99773982D01*
X114595542Y-99768465D01*
X114609339Y-99763489D01*
X114627073Y-99757696D01*
X114644052Y-99752864D01*
X114660275Y-99748995D01*
X114675771Y-99745732D01*
X114690752Y-99742904D01*
X114705218Y-99740511D01*
X114722575Y-99738132D01*
X114739128Y-99736432D01*
X114754875Y-99735413D01*
X114769818Y-99735073D01*
X114784909Y-99735257D01*
G37*
G36*
X113382397Y-100889487D02*
G01*
X113381836Y-100874803D01*
X113379557Y-100858172D01*
X113375524Y-100843455D01*
X113368372Y-100828321D01*
X113358695Y-100815943D01*
X113346493Y-100806322D01*
X113331908Y-100798727D01*
X113318043Y-100793598D01*
X113302621Y-100789561D01*
X113285642Y-100786614D01*
X113270939Y-100785043D01*
X113255240Y-100784170D01*
X113242812Y-100783974D01*
X113169173Y-100783974D01*
X113169173Y-100173977D01*
X113403279Y-100705938D01*
X113595254Y-100705938D01*
X113844382Y-100176175D01*
X113844382Y-100783974D01*
X113770376Y-100783974D01*
X113753518Y-100784323D01*
X113737747Y-100785370D01*
X113723064Y-100787116D01*
X113706239Y-100790281D01*
X113691114Y-100794537D01*
X113675207Y-100801084D01*
X113665963Y-100806322D01*
X113654134Y-100815943D01*
X113644753Y-100828321D01*
X113637820Y-100843455D01*
X113633911Y-100858172D01*
X113631702Y-100874803D01*
X113631158Y-100889487D01*
X113632382Y-100908343D01*
X113636052Y-100925344D01*
X113642170Y-100940491D01*
X113650735Y-100953784D01*
X113661748Y-100965221D01*
X113675207Y-100974804D01*
X113691114Y-100982532D01*
X113709468Y-100988405D01*
X113730269Y-100992424D01*
X113745496Y-100994072D01*
X113761811Y-100994896D01*
X113770376Y-100995000D01*
X114042951Y-100995000D01*
X114060032Y-100994587D01*
X114076010Y-100993351D01*
X114090886Y-100991290D01*
X114111135Y-100986653D01*
X114128904Y-100980162D01*
X114144193Y-100971816D01*
X114157004Y-100961615D01*
X114167335Y-100949559D01*
X114175186Y-100935648D01*
X114180558Y-100919883D01*
X114183451Y-100902264D01*
X114184002Y-100889487D01*
X114182871Y-100870630D01*
X114179481Y-100853629D01*
X114173830Y-100838482D01*
X114165918Y-100825190D01*
X114155746Y-100813752D01*
X114143314Y-100804170D01*
X114128621Y-100796442D01*
X114111668Y-100790568D01*
X114092454Y-100786550D01*
X114070980Y-100784386D01*
X114055408Y-100783974D01*
X114055408Y-99977972D01*
X114075050Y-99975220D01*
X114092760Y-99970948D01*
X114108538Y-99965157D01*
X114122384Y-99957845D01*
X114134298Y-99949014D01*
X114147178Y-99934874D01*
X114156623Y-99918033D01*
X114161453Y-99903629D01*
X114164351Y-99887705D01*
X114165317Y-99870261D01*
X114164274Y-99854835D01*
X114161144Y-99840156D01*
X114155928Y-99826224D01*
X114148625Y-99813040D01*
X114139235Y-99800602D01*
X114135642Y-99796622D01*
X114123032Y-99785790D01*
X114110261Y-99778475D01*
X114095433Y-99772717D01*
X114078548Y-99768515D01*
X114063558Y-99766273D01*
X114047252Y-99765028D01*
X114034159Y-99764748D01*
X113796022Y-99764748D01*
X113504762Y-100393429D01*
X113219731Y-99764748D01*
X112987822Y-99764748D01*
X112970919Y-99765160D01*
X112955107Y-99766397D01*
X112940385Y-99768458D01*
X112920347Y-99773095D01*
X112902763Y-99779586D01*
X112887632Y-99787932D01*
X112874955Y-99798133D01*
X112864731Y-99810189D01*
X112856962Y-99824099D01*
X112851645Y-99839864D01*
X112848783Y-99857484D01*
X112848237Y-99870261D01*
X112849203Y-99887312D01*
X112852101Y-99902882D01*
X112856931Y-99916970D01*
X112866377Y-99933451D01*
X112879257Y-99947299D01*
X112891171Y-99955956D01*
X112905017Y-99963132D01*
X112920795Y-99968827D01*
X112938505Y-99973041D01*
X112958147Y-99975774D01*
X112958147Y-100783974D01*
X112942575Y-100784386D01*
X112921101Y-100786550D01*
X112901887Y-100790568D01*
X112884934Y-100796442D01*
X112870241Y-100804170D01*
X112857808Y-100813752D01*
X112847636Y-100825190D01*
X112839725Y-100838482D01*
X112834074Y-100853629D01*
X112830683Y-100870630D01*
X112829553Y-100889487D01*
X112830776Y-100908343D01*
X112834447Y-100925344D01*
X112840565Y-100940491D01*
X112849130Y-100953784D01*
X112860143Y-100965221D01*
X112873602Y-100974804D01*
X112889509Y-100982532D01*
X112907863Y-100988405D01*
X112928664Y-100992424D01*
X112943891Y-100994072D01*
X112960206Y-100994896D01*
X112968771Y-100995000D01*
X113242812Y-100995000D01*
X113259715Y-100994587D01*
X113275527Y-100993351D01*
X113290249Y-100991290D01*
X113310287Y-100986653D01*
X113327871Y-100980162D01*
X113343002Y-100971816D01*
X113355679Y-100961615D01*
X113365903Y-100949559D01*
X113373673Y-100935648D01*
X113378989Y-100919883D01*
X113381851Y-100902264D01*
X113382397Y-100889487D01*
G37*
D11*
X123289580Y-82082142D02*
X123337200Y-82034523D01*
X123337200Y-82034523D02*
X123384819Y-81891666D01*
X123384819Y-81891666D02*
X123384819Y-81796428D01*
X123384819Y-81796428D02*
X123337200Y-81653571D01*
X123337200Y-81653571D02*
X123241961Y-81558333D01*
X123241961Y-81558333D02*
X123146723Y-81510714D01*
X123146723Y-81510714D02*
X122956247Y-81463095D01*
X122956247Y-81463095D02*
X122813390Y-81463095D01*
X122813390Y-81463095D02*
X122622914Y-81510714D01*
X122622914Y-81510714D02*
X122527676Y-81558333D01*
X122527676Y-81558333D02*
X122432438Y-81653571D01*
X122432438Y-81653571D02*
X122384819Y-81796428D01*
X122384819Y-81796428D02*
X122384819Y-81891666D01*
X122384819Y-81891666D02*
X122432438Y-82034523D01*
X122432438Y-82034523D02*
X122480057Y-82082142D01*
X122480057Y-82463095D02*
X122432438Y-82510714D01*
X122432438Y-82510714D02*
X122384819Y-82605952D01*
X122384819Y-82605952D02*
X122384819Y-82844047D01*
X122384819Y-82844047D02*
X122432438Y-82939285D01*
X122432438Y-82939285D02*
X122480057Y-82986904D01*
X122480057Y-82986904D02*
X122575295Y-83034523D01*
X122575295Y-83034523D02*
X122670533Y-83034523D01*
X122670533Y-83034523D02*
X122813390Y-82986904D01*
X122813390Y-82986904D02*
X123384819Y-82415476D01*
X123384819Y-82415476D02*
X123384819Y-83034523D01*
X122384819Y-83653571D02*
X122384819Y-83748809D01*
X122384819Y-83748809D02*
X122432438Y-83844047D01*
X122432438Y-83844047D02*
X122480057Y-83891666D01*
X122480057Y-83891666D02*
X122575295Y-83939285D01*
X122575295Y-83939285D02*
X122765771Y-83986904D01*
X122765771Y-83986904D02*
X123003866Y-83986904D01*
X123003866Y-83986904D02*
X123194342Y-83939285D01*
X123194342Y-83939285D02*
X123289580Y-83891666D01*
X123289580Y-83891666D02*
X123337200Y-83844047D01*
X123337200Y-83844047D02*
X123384819Y-83748809D01*
X123384819Y-83748809D02*
X123384819Y-83653571D01*
X123384819Y-83653571D02*
X123337200Y-83558333D01*
X123337200Y-83558333D02*
X123289580Y-83510714D01*
X123289580Y-83510714D02*
X123194342Y-83463095D01*
X123194342Y-83463095D02*
X123003866Y-83415476D01*
X123003866Y-83415476D02*
X122765771Y-83415476D01*
X122765771Y-83415476D02*
X122575295Y-83463095D01*
X122575295Y-83463095D02*
X122480057Y-83510714D01*
X122480057Y-83510714D02*
X122432438Y-83558333D01*
X122432438Y-83558333D02*
X122384819Y-83653571D01*
X112892857Y-79429580D02*
X112940476Y-79477200D01*
X112940476Y-79477200D02*
X113083333Y-79524819D01*
X113083333Y-79524819D02*
X113178571Y-79524819D01*
X113178571Y-79524819D02*
X113321428Y-79477200D01*
X113321428Y-79477200D02*
X113416666Y-79381961D01*
X113416666Y-79381961D02*
X113464285Y-79286723D01*
X113464285Y-79286723D02*
X113511904Y-79096247D01*
X113511904Y-79096247D02*
X113511904Y-78953390D01*
X113511904Y-78953390D02*
X113464285Y-78762914D01*
X113464285Y-78762914D02*
X113416666Y-78667676D01*
X113416666Y-78667676D02*
X113321428Y-78572438D01*
X113321428Y-78572438D02*
X113178571Y-78524819D01*
X113178571Y-78524819D02*
X113083333Y-78524819D01*
X113083333Y-78524819D02*
X112940476Y-78572438D01*
X112940476Y-78572438D02*
X112892857Y-78620057D01*
X111940476Y-79524819D02*
X112511904Y-79524819D01*
X112226190Y-79524819D02*
X112226190Y-78524819D01*
X112226190Y-78524819D02*
X112321428Y-78667676D01*
X112321428Y-78667676D02*
X112416666Y-78762914D01*
X112416666Y-78762914D02*
X112511904Y-78810533D01*
X111464285Y-79524819D02*
X111273809Y-79524819D01*
X111273809Y-79524819D02*
X111178571Y-79477200D01*
X111178571Y-79477200D02*
X111130952Y-79429580D01*
X111130952Y-79429580D02*
X111035714Y-79286723D01*
X111035714Y-79286723D02*
X110988095Y-79096247D01*
X110988095Y-79096247D02*
X110988095Y-78715295D01*
X110988095Y-78715295D02*
X111035714Y-78620057D01*
X111035714Y-78620057D02*
X111083333Y-78572438D01*
X111083333Y-78572438D02*
X111178571Y-78524819D01*
X111178571Y-78524819D02*
X111369047Y-78524819D01*
X111369047Y-78524819D02*
X111464285Y-78572438D01*
X111464285Y-78572438D02*
X111511904Y-78620057D01*
X111511904Y-78620057D02*
X111559523Y-78715295D01*
X111559523Y-78715295D02*
X111559523Y-78953390D01*
X111559523Y-78953390D02*
X111511904Y-79048628D01*
X111511904Y-79048628D02*
X111464285Y-79096247D01*
X111464285Y-79096247D02*
X111369047Y-79143866D01*
X111369047Y-79143866D02*
X111178571Y-79143866D01*
X111178571Y-79143866D02*
X111083333Y-79096247D01*
X111083333Y-79096247D02*
X111035714Y-79048628D01*
X111035714Y-79048628D02*
X110988095Y-78953390D01*
X108929580Y-87607142D02*
X108977200Y-87559523D01*
X108977200Y-87559523D02*
X109024819Y-87416666D01*
X109024819Y-87416666D02*
X109024819Y-87321428D01*
X109024819Y-87321428D02*
X108977200Y-87178571D01*
X108977200Y-87178571D02*
X108881961Y-87083333D01*
X108881961Y-87083333D02*
X108786723Y-87035714D01*
X108786723Y-87035714D02*
X108596247Y-86988095D01*
X108596247Y-86988095D02*
X108453390Y-86988095D01*
X108453390Y-86988095D02*
X108262914Y-87035714D01*
X108262914Y-87035714D02*
X108167676Y-87083333D01*
X108167676Y-87083333D02*
X108072438Y-87178571D01*
X108072438Y-87178571D02*
X108024819Y-87321428D01*
X108024819Y-87321428D02*
X108024819Y-87416666D01*
X108024819Y-87416666D02*
X108072438Y-87559523D01*
X108072438Y-87559523D02*
X108120057Y-87607142D01*
X109024819Y-88559523D02*
X109024819Y-87988095D01*
X109024819Y-88273809D02*
X108024819Y-88273809D01*
X108024819Y-88273809D02*
X108167676Y-88178571D01*
X108167676Y-88178571D02*
X108262914Y-88083333D01*
X108262914Y-88083333D02*
X108310533Y-87988095D01*
X108453390Y-89130952D02*
X108405771Y-89035714D01*
X108405771Y-89035714D02*
X108358152Y-88988095D01*
X108358152Y-88988095D02*
X108262914Y-88940476D01*
X108262914Y-88940476D02*
X108215295Y-88940476D01*
X108215295Y-88940476D02*
X108120057Y-88988095D01*
X108120057Y-88988095D02*
X108072438Y-89035714D01*
X108072438Y-89035714D02*
X108024819Y-89130952D01*
X108024819Y-89130952D02*
X108024819Y-89321428D01*
X108024819Y-89321428D02*
X108072438Y-89416666D01*
X108072438Y-89416666D02*
X108120057Y-89464285D01*
X108120057Y-89464285D02*
X108215295Y-89511904D01*
X108215295Y-89511904D02*
X108262914Y-89511904D01*
X108262914Y-89511904D02*
X108358152Y-89464285D01*
X108358152Y-89464285D02*
X108405771Y-89416666D01*
X108405771Y-89416666D02*
X108453390Y-89321428D01*
X108453390Y-89321428D02*
X108453390Y-89130952D01*
X108453390Y-89130952D02*
X108501009Y-89035714D01*
X108501009Y-89035714D02*
X108548628Y-88988095D01*
X108548628Y-88988095D02*
X108643866Y-88940476D01*
X108643866Y-88940476D02*
X108834342Y-88940476D01*
X108834342Y-88940476D02*
X108929580Y-88988095D01*
X108929580Y-88988095D02*
X108977200Y-89035714D01*
X108977200Y-89035714D02*
X109024819Y-89130952D01*
X109024819Y-89130952D02*
X109024819Y-89321428D01*
X109024819Y-89321428D02*
X108977200Y-89416666D01*
X108977200Y-89416666D02*
X108929580Y-89464285D01*
X108929580Y-89464285D02*
X108834342Y-89511904D01*
X108834342Y-89511904D02*
X108643866Y-89511904D01*
X108643866Y-89511904D02*
X108548628Y-89464285D01*
X108548628Y-89464285D02*
X108501009Y-89416666D01*
X108501009Y-89416666D02*
X108453390Y-89321428D01*
X119892857Y-93789580D02*
X119940476Y-93837200D01*
X119940476Y-93837200D02*
X120083333Y-93884819D01*
X120083333Y-93884819D02*
X120178571Y-93884819D01*
X120178571Y-93884819D02*
X120321428Y-93837200D01*
X120321428Y-93837200D02*
X120416666Y-93741961D01*
X120416666Y-93741961D02*
X120464285Y-93646723D01*
X120464285Y-93646723D02*
X120511904Y-93456247D01*
X120511904Y-93456247D02*
X120511904Y-93313390D01*
X120511904Y-93313390D02*
X120464285Y-93122914D01*
X120464285Y-93122914D02*
X120416666Y-93027676D01*
X120416666Y-93027676D02*
X120321428Y-92932438D01*
X120321428Y-92932438D02*
X120178571Y-92884819D01*
X120178571Y-92884819D02*
X120083333Y-92884819D01*
X120083333Y-92884819D02*
X119940476Y-92932438D01*
X119940476Y-92932438D02*
X119892857Y-92980057D01*
X119511904Y-92980057D02*
X119464285Y-92932438D01*
X119464285Y-92932438D02*
X119369047Y-92884819D01*
X119369047Y-92884819D02*
X119130952Y-92884819D01*
X119130952Y-92884819D02*
X119035714Y-92932438D01*
X119035714Y-92932438D02*
X118988095Y-92980057D01*
X118988095Y-92980057D02*
X118940476Y-93075295D01*
X118940476Y-93075295D02*
X118940476Y-93170533D01*
X118940476Y-93170533D02*
X118988095Y-93313390D01*
X118988095Y-93313390D02*
X119559523Y-93884819D01*
X119559523Y-93884819D02*
X118940476Y-93884819D01*
X117988095Y-93884819D02*
X118559523Y-93884819D01*
X118273809Y-93884819D02*
X118273809Y-92884819D01*
X118273809Y-92884819D02*
X118369047Y-93027676D01*
X118369047Y-93027676D02*
X118464285Y-93122914D01*
X118464285Y-93122914D02*
X118559523Y-93170533D01*
X113392857Y-93789580D02*
X113440476Y-93837200D01*
X113440476Y-93837200D02*
X113583333Y-93884819D01*
X113583333Y-93884819D02*
X113678571Y-93884819D01*
X113678571Y-93884819D02*
X113821428Y-93837200D01*
X113821428Y-93837200D02*
X113916666Y-93741961D01*
X113916666Y-93741961D02*
X113964285Y-93646723D01*
X113964285Y-93646723D02*
X114011904Y-93456247D01*
X114011904Y-93456247D02*
X114011904Y-93313390D01*
X114011904Y-93313390D02*
X113964285Y-93122914D01*
X113964285Y-93122914D02*
X113916666Y-93027676D01*
X113916666Y-93027676D02*
X113821428Y-92932438D01*
X113821428Y-92932438D02*
X113678571Y-92884819D01*
X113678571Y-92884819D02*
X113583333Y-92884819D01*
X113583333Y-92884819D02*
X113440476Y-92932438D01*
X113440476Y-92932438D02*
X113392857Y-92980057D01*
X113011904Y-92980057D02*
X112964285Y-92932438D01*
X112964285Y-92932438D02*
X112869047Y-92884819D01*
X112869047Y-92884819D02*
X112630952Y-92884819D01*
X112630952Y-92884819D02*
X112535714Y-92932438D01*
X112535714Y-92932438D02*
X112488095Y-92980057D01*
X112488095Y-92980057D02*
X112440476Y-93075295D01*
X112440476Y-93075295D02*
X112440476Y-93170533D01*
X112440476Y-93170533D02*
X112488095Y-93313390D01*
X112488095Y-93313390D02*
X113059523Y-93884819D01*
X113059523Y-93884819D02*
X112440476Y-93884819D01*
X112059523Y-92980057D02*
X112011904Y-92932438D01*
X112011904Y-92932438D02*
X111916666Y-92884819D01*
X111916666Y-92884819D02*
X111678571Y-92884819D01*
X111678571Y-92884819D02*
X111583333Y-92932438D01*
X111583333Y-92932438D02*
X111535714Y-92980057D01*
X111535714Y-92980057D02*
X111488095Y-93075295D01*
X111488095Y-93075295D02*
X111488095Y-93170533D01*
X111488095Y-93170533D02*
X111535714Y-93313390D01*
X111535714Y-93313390D02*
X112107142Y-93884819D01*
X112107142Y-93884819D02*
X111488095Y-93884819D01*
D12*
X63563000Y-42250000D02*
G75*
G03*
X63563000Y-42250000I-381000J0D01*
G01*
X63523000Y-52000000D02*
G75*
G03*
X63523000Y-52000000I-381000J0D01*
G01*
D13*
X120990000Y-82865580D02*
X120990000Y-82584420D01*
X122010000Y-82865580D02*
X122010000Y-82584420D01*
X112390580Y-81010000D02*
X112109420Y-81010000D01*
X112390580Y-79990000D02*
X112109420Y-79990000D01*
X110510000Y-88109420D02*
X110510000Y-88390580D01*
X109490000Y-88109420D02*
X109490000Y-88390580D01*
X119109420Y-91490000D02*
X119390580Y-91490000D01*
X119109420Y-92510000D02*
X119390580Y-92510000D01*
X112609420Y-91490000D02*
X112890580Y-91490000D01*
X112609420Y-92510000D02*
X112890580Y-92510000D01*
%LPC*%
D14*
X67500000Y-42250000D03*
X70040000Y-42250000D03*
D15*
X134000000Y-32500000D03*
D16*
X128920000Y-32500000D03*
D17*
X78737246Y-46250000D03*
D18*
X86237246Y-46250000D03*
D19*
X89175000Y-99525000D03*
D20*
X89175000Y-96985000D03*
X91715000Y-99525000D03*
X91715000Y-96985000D03*
X94255000Y-99525000D03*
X94255000Y-96985000D03*
X96795000Y-99525000D03*
X96795000Y-96985000D03*
X99335000Y-99525000D03*
X99335000Y-96985000D03*
D21*
X144750000Y-98350000D03*
D19*
X124750000Y-40750000D03*
D20*
X124750000Y-43290000D03*
D22*
X107170000Y-20000000D03*
D23*
X109710000Y-20000000D03*
X112250000Y-20000000D03*
D21*
X71750000Y-22500000D03*
D24*
X131000000Y-44250000D03*
X138620000Y-46790000D03*
X143700000Y-44250000D03*
D19*
X144290000Y-90500000D03*
D20*
X141750000Y-90500000D03*
X144290000Y-87960000D03*
X141750000Y-87960000D03*
X144290000Y-85420000D03*
X141750000Y-85420000D03*
X144290000Y-82880000D03*
X141750000Y-82880000D03*
X144290000Y-80340000D03*
X141750000Y-80340000D03*
D25*
X107250000Y-25500000D03*
D26*
X105250000Y-25500000D03*
D15*
X106500000Y-36540000D03*
D16*
X106500000Y-31460000D03*
D27*
X146950000Y-75850000D03*
D28*
X144250000Y-74850000D03*
X144250000Y-69850000D03*
D27*
X146950000Y-68850000D03*
D15*
X115000000Y-32250000D03*
D16*
X109920000Y-32250000D03*
D25*
X126000000Y-25750000D03*
D26*
X124000000Y-25750000D03*
D29*
X104250000Y-67000000D03*
D30*
X102980000Y-68270000D03*
X101710000Y-67000000D03*
D21*
X66750000Y-98350000D03*
X139750000Y-22500000D03*
D31*
X93630000Y-57250000D03*
X93630000Y-42010000D03*
X99980000Y-42010000D03*
X101250000Y-57250000D03*
D15*
X119210000Y-97000000D03*
D16*
X124290000Y-97000000D03*
D22*
X126170000Y-20000000D03*
D23*
X128710000Y-20000000D03*
X131250000Y-20000000D03*
D19*
X115420000Y-36250000D03*
D20*
X117960000Y-36250000D03*
X120500000Y-36250000D03*
D19*
X110500000Y-40750000D03*
D20*
X110500000Y-43290000D03*
D32*
X106000000Y-81250000D03*
X106000000Y-86130001D03*
D33*
X81295000Y-30750000D03*
D34*
X81295000Y-27250000D03*
X81295000Y-23750000D03*
X81295000Y-20250000D03*
D19*
X122000000Y-71750000D03*
D20*
X119460000Y-71750000D03*
D19*
X124675000Y-62250000D03*
D20*
X127215000Y-62250000D03*
X129755000Y-62250000D03*
X132295000Y-62250000D03*
X134835000Y-62250000D03*
D19*
X112250000Y-75000000D03*
D20*
X109710000Y-75000000D03*
D15*
X76000000Y-61632323D03*
D35*
X76000000Y-66632323D03*
D24*
X131025000Y-51475000D03*
X138645000Y-54015000D03*
X143725000Y-51475000D03*
D19*
X95750000Y-64170000D03*
D20*
X95750000Y-66710000D03*
X95750000Y-69250000D03*
D25*
X113500000Y-25500000D03*
D26*
X111500000Y-25500000D03*
D19*
X85330000Y-90000000D03*
D20*
X82790000Y-90000000D03*
X80250000Y-90000000D03*
X77710000Y-90000000D03*
X75170000Y-90000000D03*
X72630000Y-90000000D03*
X70090000Y-90000000D03*
D14*
X67460000Y-52000000D03*
X70000000Y-52000000D03*
D15*
X124750000Y-36500000D03*
D16*
X124750000Y-31420000D03*
D33*
X95295000Y-30750000D03*
D34*
X95295000Y-27250000D03*
X95295000Y-23750000D03*
X95295000Y-20250000D03*
D25*
X132500000Y-25750000D03*
D26*
X130500000Y-25750000D03*
D36*
X121500000Y-83500000D03*
X121500000Y-81950000D03*
D37*
X113025000Y-80500000D03*
X111475000Y-80500000D03*
D38*
X110000000Y-87475000D03*
X110000000Y-89025000D03*
D39*
X118475000Y-92000000D03*
X120025000Y-92000000D03*
X111975000Y-92000000D03*
X113525000Y-92000000D03*
%LPD*%
M02*
