M48
; DRILL file {KiCad 7.0.8-7.0.8~ubuntu22.04.1} date Fri 26 Jan 2024 15:53:49 CET
; FORMAT={-:-/ absolute / metric / decimal}
; #@! TF.CreationDate,2024-01-26T15:53:49+01:00
; #@! TF.GenerationSoftware,Kicad,Pcbnew,7.0.8-7.0.8~ubuntu22.04.1
; #@! TF.FileFunction,Plated,1,4,PTH
FMAT,2
METRIC
; #@! TA.AperFunction,Plated,PTH,ViaDrill
T1C0.400
; #@! TA.AperFunction,Plated,PTH,ComponentDrill
T2C0.457
; #@! TA.AperFunction,Plated,PTH,ComponentDrill
T3C0.600
; #@! TA.AperFunction,Plated,PTH,ComponentDrill
T4C0.750
; #@! TA.AperFunction,Plated,PTH,ComponentDrill
T5C0.762
; #@! TA.AperFunction,Plated,PTH,ViaDrill
T6C0.800
; #@! TA.AperFunction,Plated,PTH,ComponentDrill
T7C0.800
; #@! TA.AperFunction,Plated,PTH,ComponentDrill
T8C0.850
; #@! TA.AperFunction,Plated,PTH,ComponentDrill
T9C1.000
; #@! TA.AperFunction,Plated,PTH,ComponentDrill
T10C1.092
; #@! TA.AperFunction,Plated,PTH,ComponentDrill
T11C1.100
; #@! TA.AperFunction,Plated,PTH,ComponentDrill
T12C1.200
; #@! TA.AperFunction,Plated,PTH,ComponentDrill
T13C1.300
%
G90
G05
T1
X65.75Y-29.25
X65.75Y-33.25
X69.75Y-29.25
X69.75Y-33.25
X73.0Y-96.75
X73.0Y-100.75
X73.5Y-85.75
X73.75Y-29.25
X73.75Y-33.25
X77.0Y-96.75
X77.0Y-100.75
X80.25Y-39.5
X80.25Y-43.5
X81.0Y-96.75
X81.0Y-100.75
X84.25Y-39.5
X84.25Y-43.5
X86.0Y-85.5
X88.5Y-85.25
X88.5Y-89.25
X92.5Y-85.25
X92.5Y-89.25
X96.5Y-45.75
X96.5Y-49.75
X96.5Y-53.75
X98.75Y-85.25
X100.5Y-45.75
X100.5Y-49.75
X100.5Y-53.75
X101.0Y-92.5
X102.5Y-96.75
X102.5Y-100.75
X106.5Y-96.75
X106.5Y-100.75
X107.67Y-47.5
X108.75Y-72.5
X110.5Y-96.75
X110.5Y-100.75
X111.5Y-65.25
X111.67Y-47.5
X111.67Y-51.5
X111.75Y-85.5
X111.75Y-87.75
X111.75Y-88.75
X112.0Y-82.0
X112.25Y-90.5
X112.75Y-34.75
X113.0Y-82.0
X113.25Y-65.25
X113.5Y-90.5
X114.785Y-77.113
X115.67Y-47.5
X115.67Y-51.5
X115.67Y-55.5
X115.775Y-77.25
X116.5Y-63.25
X117.0Y-58.75
X117.25Y-23.75
X117.25Y-27.75
X118.5Y-90.25
X119.512Y-90.238
X119.67Y-47.5
X119.67Y-51.5
X119.67Y-55.5
X119.738Y-82.488
X119.75Y-83.5
X121.25Y-23.75
X121.25Y-27.75
X123.67Y-51.5
X123.67Y-55.5
X126.0Y-89.0
X128.546Y-86.934
X129.364Y-87.509
X130.212Y-88.038
X130.5Y-95.0
X130.5Y-99.0
X133.25Y-83.525
X133.25Y-91.25
X133.5Y-88.75
X134.0Y-36.75
X134.5Y-95.0
X134.5Y-99.0
X134.75Y-92.0
X135.25Y-72.5
X135.355Y-82.08
X135.5Y-89.75
X135.75Y-87.75
X138.25Y-88.0
X138.5Y-95.0
X138.5Y-99.0
X138.75Y-60.25
X138.75Y-64.25
X140.0Y-30.25
X140.0Y-34.25
X140.0Y-38.25
X140.75Y-72.5
X142.0Y-74.5
X142.75Y-60.25
X142.75Y-64.25
X144.0Y-30.25
X144.0Y-34.25
X144.0Y-38.25
X146.75Y-60.25
X146.75Y-64.25
T2
X106.0Y-81.25
X106.0Y-86.13
T4
X101.71Y-67.0
X102.98Y-68.27
X104.25Y-67.0
T5
X93.63Y-42.01
X93.63Y-57.25
X99.98Y-42.01
X101.25Y-57.25
T6
X66.5Y-78.5
X68.0Y-78.5
X68.0Y-80.0
X79.5Y-78.5
X80.25Y-56.75
X81.0Y-78.5
X81.0Y-80.0
X81.75Y-55.0
X82.5Y-66.5
X85.0Y-66.25
T7
X105.25Y-25.5
X107.25Y-25.5
X111.5Y-25.5
X113.5Y-25.5
X124.0Y-25.75
X126.0Y-25.75
X130.5Y-25.75
X132.5Y-25.75
T8
X144.25Y-69.85
X144.25Y-74.85
T9
X70.09Y-90.0
X72.63Y-90.0
X75.17Y-90.0
X76.0Y-61.632
X76.0Y-66.632
X77.71Y-90.0
X80.25Y-90.0
X82.79Y-90.0
X85.33Y-90.0
X89.175Y-96.985
X89.175Y-99.525
X91.715Y-96.985
X91.715Y-99.525
X94.255Y-96.985
X94.255Y-99.525
X95.75Y-64.17
X95.75Y-66.71
X95.75Y-69.25
X96.795Y-96.985
X96.795Y-99.525
X99.335Y-96.985
X99.335Y-99.525
X106.5Y-31.46
X106.5Y-36.54
X109.71Y-75.0
X109.92Y-32.25
X110.5Y-40.75
X110.5Y-43.29
X112.25Y-75.0
X115.0Y-32.25
X115.42Y-36.25
X117.96Y-36.25
X119.21Y-97.0
X119.46Y-71.75
X120.5Y-36.25
X122.0Y-71.75
X124.29Y-97.0
X124.675Y-62.25
X124.75Y-31.42
X124.75Y-36.5
X124.75Y-40.75
X124.75Y-43.29
X127.215Y-62.25
X128.92Y-32.5
X129.755Y-62.25
X131.0Y-44.25
X131.025Y-51.475
X132.295Y-62.25
X134.0Y-32.5
X134.835Y-62.25
X138.62Y-46.79
X138.645Y-54.015
X141.75Y-80.34
X141.75Y-82.88
X141.75Y-85.42
X141.75Y-87.96
X141.75Y-90.5
X143.7Y-44.25
X143.725Y-51.475
X144.29Y-80.34
X144.29Y-82.88
X144.29Y-85.42
X144.29Y-87.96
X144.29Y-90.5
T10
X67.46Y-52.0
X67.5Y-42.25
X70.0Y-52.0
X70.04Y-42.25
T11
X107.17Y-20.0
X109.71Y-20.0
X112.25Y-20.0
X126.17Y-20.0
X128.71Y-20.0
X131.25Y-20.0
T12
X78.737Y-46.25
X86.237Y-46.25
T13
X81.295Y-20.25
X81.295Y-23.75
X81.295Y-27.25
X81.295Y-30.75
X95.295Y-20.25
X95.295Y-23.75
X95.295Y-27.25
X95.295Y-30.75
T3
X146.6Y-68.85G85X147.3Y-68.85
G05
X147.3Y-75.85G85X146.6Y-75.85
G05
T0
M30
