%TF.GenerationSoftware,KiCad,Pcbnew,7.0.8-7.0.8~ubuntu22.04.1*%
%TF.CreationDate,2024-01-26T15:53:50+01:00*%
%TF.ProjectId,shoulder,73686f75-6c64-4657-922e-6b696361645f,1.1*%
%TF.SameCoordinates,Original*%
%TF.FileFunction,Drillmap*%
%TF.FilePolarity,Positive*%
%FSLAX45Y45*%
G04 Gerber Fmt 4.5, Leading zero omitted, Abs format (unit mm)*
G04 Created by KiCad (PCBNEW 7.0.8-7.0.8~ubuntu22.04.1) date 2024-01-26 15:53:50*
%MOMM*%
%LPD*%
G01*
G04 APERTURE LIST*
%ADD10C,0.100000*%
%ADD11C,0.200000*%
%ADD12C,0.320000*%
G04 APERTURE END LIST*
D10*
X6175000Y-1450000D02*
X14975000Y-1450000D01*
X14975000Y-10250000D01*
X6175000Y-10250000D01*
X6175000Y-1450000D01*
D11*
D12*
X6515000Y-9675000D02*
X6835000Y-9995000D01*
X6835000Y-9675000D02*
X6515000Y-9995000D01*
X7015000Y-2090000D02*
X7335000Y-2410000D01*
X7335000Y-2090000D02*
X7015000Y-2410000D01*
X13815000Y-2090000D02*
X14135000Y-2410000D01*
X14135000Y-2090000D02*
X13815000Y-2410000D01*
X14315000Y-9675000D02*
X14635000Y-9995000D01*
X14635000Y-9675000D02*
X14315000Y-9995000D01*
D11*
X6430777Y-10566484D02*
X6430777Y-10366484D01*
X6430777Y-10366484D02*
X6478396Y-10366484D01*
X6478396Y-10366484D02*
X6506967Y-10376008D01*
X6506967Y-10376008D02*
X6526015Y-10395055D01*
X6526015Y-10395055D02*
X6535539Y-10414103D01*
X6535539Y-10414103D02*
X6545062Y-10452198D01*
X6545062Y-10452198D02*
X6545062Y-10480770D01*
X6545062Y-10480770D02*
X6535539Y-10518865D01*
X6535539Y-10518865D02*
X6526015Y-10537912D01*
X6526015Y-10537912D02*
X6506967Y-10556960D01*
X6506967Y-10556960D02*
X6478396Y-10566484D01*
X6478396Y-10566484D02*
X6430777Y-10566484D01*
X6630777Y-10566484D02*
X6630777Y-10433150D01*
X6630777Y-10471246D02*
X6640301Y-10452198D01*
X6640301Y-10452198D02*
X6649824Y-10442674D01*
X6649824Y-10442674D02*
X6668872Y-10433150D01*
X6668872Y-10433150D02*
X6687920Y-10433150D01*
X6754586Y-10566484D02*
X6754586Y-10433150D01*
X6754586Y-10366484D02*
X6745062Y-10376008D01*
X6745062Y-10376008D02*
X6754586Y-10385531D01*
X6754586Y-10385531D02*
X6764110Y-10376008D01*
X6764110Y-10376008D02*
X6754586Y-10366484D01*
X6754586Y-10366484D02*
X6754586Y-10385531D01*
X6878396Y-10566484D02*
X6859348Y-10556960D01*
X6859348Y-10556960D02*
X6849824Y-10537912D01*
X6849824Y-10537912D02*
X6849824Y-10366484D01*
X6983158Y-10566484D02*
X6964110Y-10556960D01*
X6964110Y-10556960D02*
X6954586Y-10537912D01*
X6954586Y-10537912D02*
X6954586Y-10366484D01*
X7211729Y-10566484D02*
X7211729Y-10366484D01*
X7211729Y-10366484D02*
X7278396Y-10509341D01*
X7278396Y-10509341D02*
X7345062Y-10366484D01*
X7345062Y-10366484D02*
X7345062Y-10566484D01*
X7526015Y-10566484D02*
X7526015Y-10461722D01*
X7526015Y-10461722D02*
X7516491Y-10442674D01*
X7516491Y-10442674D02*
X7497443Y-10433150D01*
X7497443Y-10433150D02*
X7459348Y-10433150D01*
X7459348Y-10433150D02*
X7440301Y-10442674D01*
X7526015Y-10556960D02*
X7506967Y-10566484D01*
X7506967Y-10566484D02*
X7459348Y-10566484D01*
X7459348Y-10566484D02*
X7440301Y-10556960D01*
X7440301Y-10556960D02*
X7430777Y-10537912D01*
X7430777Y-10537912D02*
X7430777Y-10518865D01*
X7430777Y-10518865D02*
X7440301Y-10499817D01*
X7440301Y-10499817D02*
X7459348Y-10490293D01*
X7459348Y-10490293D02*
X7506967Y-10490293D01*
X7506967Y-10490293D02*
X7526015Y-10480770D01*
X7621253Y-10433150D02*
X7621253Y-10633150D01*
X7621253Y-10442674D02*
X7640301Y-10433150D01*
X7640301Y-10433150D02*
X7678396Y-10433150D01*
X7678396Y-10433150D02*
X7697443Y-10442674D01*
X7697443Y-10442674D02*
X7706967Y-10452198D01*
X7706967Y-10452198D02*
X7716491Y-10471246D01*
X7716491Y-10471246D02*
X7716491Y-10528389D01*
X7716491Y-10528389D02*
X7706967Y-10547436D01*
X7706967Y-10547436D02*
X7697443Y-10556960D01*
X7697443Y-10556960D02*
X7678396Y-10566484D01*
X7678396Y-10566484D02*
X7640301Y-10566484D01*
X7640301Y-10566484D02*
X7621253Y-10556960D01*
X7802205Y-10547436D02*
X7811729Y-10556960D01*
X7811729Y-10556960D02*
X7802205Y-10566484D01*
X7802205Y-10566484D02*
X7792682Y-10556960D01*
X7792682Y-10556960D02*
X7802205Y-10547436D01*
X7802205Y-10547436D02*
X7802205Y-10566484D01*
X7802205Y-10442674D02*
X7811729Y-10452198D01*
X7811729Y-10452198D02*
X7802205Y-10461722D01*
X7802205Y-10461722D02*
X7792682Y-10452198D01*
X7792682Y-10452198D02*
X7802205Y-10442674D01*
X7802205Y-10442674D02*
X7802205Y-10461722D01*
X5970000Y-10795000D02*
X6170000Y-10995000D01*
X6170000Y-10795000D02*
X5970000Y-10995000D01*
X6411729Y-10786484D02*
X6535539Y-10786484D01*
X6535539Y-10786484D02*
X6468872Y-10862674D01*
X6468872Y-10862674D02*
X6497443Y-10862674D01*
X6497443Y-10862674D02*
X6516491Y-10872198D01*
X6516491Y-10872198D02*
X6526015Y-10881722D01*
X6526015Y-10881722D02*
X6535539Y-10900770D01*
X6535539Y-10900770D02*
X6535539Y-10948389D01*
X6535539Y-10948389D02*
X6526015Y-10967436D01*
X6526015Y-10967436D02*
X6516491Y-10976960D01*
X6516491Y-10976960D02*
X6497443Y-10986484D01*
X6497443Y-10986484D02*
X6440301Y-10986484D01*
X6440301Y-10986484D02*
X6421253Y-10976960D01*
X6421253Y-10976960D02*
X6411729Y-10967436D01*
X6621253Y-10967436D02*
X6630777Y-10976960D01*
X6630777Y-10976960D02*
X6621253Y-10986484D01*
X6621253Y-10986484D02*
X6611729Y-10976960D01*
X6611729Y-10976960D02*
X6621253Y-10967436D01*
X6621253Y-10967436D02*
X6621253Y-10986484D01*
X6706967Y-10805531D02*
X6716491Y-10796008D01*
X6716491Y-10796008D02*
X6735539Y-10786484D01*
X6735539Y-10786484D02*
X6783158Y-10786484D01*
X6783158Y-10786484D02*
X6802205Y-10796008D01*
X6802205Y-10796008D02*
X6811729Y-10805531D01*
X6811729Y-10805531D02*
X6821253Y-10824579D01*
X6821253Y-10824579D02*
X6821253Y-10843627D01*
X6821253Y-10843627D02*
X6811729Y-10872198D01*
X6811729Y-10872198D02*
X6697443Y-10986484D01*
X6697443Y-10986484D02*
X6821253Y-10986484D01*
X6945062Y-10786484D02*
X6964110Y-10786484D01*
X6964110Y-10786484D02*
X6983158Y-10796008D01*
X6983158Y-10796008D02*
X6992682Y-10805531D01*
X6992682Y-10805531D02*
X7002205Y-10824579D01*
X7002205Y-10824579D02*
X7011729Y-10862674D01*
X7011729Y-10862674D02*
X7011729Y-10910293D01*
X7011729Y-10910293D02*
X7002205Y-10948389D01*
X7002205Y-10948389D02*
X6992682Y-10967436D01*
X6992682Y-10967436D02*
X6983158Y-10976960D01*
X6983158Y-10976960D02*
X6964110Y-10986484D01*
X6964110Y-10986484D02*
X6945062Y-10986484D01*
X6945062Y-10986484D02*
X6926015Y-10976960D01*
X6926015Y-10976960D02*
X6916491Y-10967436D01*
X6916491Y-10967436D02*
X6906967Y-10948389D01*
X6906967Y-10948389D02*
X6897443Y-10910293D01*
X6897443Y-10910293D02*
X6897443Y-10862674D01*
X6897443Y-10862674D02*
X6906967Y-10824579D01*
X6906967Y-10824579D02*
X6916491Y-10805531D01*
X6916491Y-10805531D02*
X6926015Y-10796008D01*
X6926015Y-10796008D02*
X6945062Y-10786484D01*
X7135539Y-10786484D02*
X7154586Y-10786484D01*
X7154586Y-10786484D02*
X7173634Y-10796008D01*
X7173634Y-10796008D02*
X7183158Y-10805531D01*
X7183158Y-10805531D02*
X7192682Y-10824579D01*
X7192682Y-10824579D02*
X7202205Y-10862674D01*
X7202205Y-10862674D02*
X7202205Y-10910293D01*
X7202205Y-10910293D02*
X7192682Y-10948389D01*
X7192682Y-10948389D02*
X7183158Y-10967436D01*
X7183158Y-10967436D02*
X7173634Y-10976960D01*
X7173634Y-10976960D02*
X7154586Y-10986484D01*
X7154586Y-10986484D02*
X7135539Y-10986484D01*
X7135539Y-10986484D02*
X7116491Y-10976960D01*
X7116491Y-10976960D02*
X7106967Y-10967436D01*
X7106967Y-10967436D02*
X7097443Y-10948389D01*
X7097443Y-10948389D02*
X7087920Y-10910293D01*
X7087920Y-10910293D02*
X7087920Y-10862674D01*
X7087920Y-10862674D02*
X7097443Y-10824579D01*
X7097443Y-10824579D02*
X7106967Y-10805531D01*
X7106967Y-10805531D02*
X7116491Y-10796008D01*
X7116491Y-10796008D02*
X7135539Y-10786484D01*
X7287920Y-10986484D02*
X7287920Y-10853150D01*
X7287920Y-10872198D02*
X7297443Y-10862674D01*
X7297443Y-10862674D02*
X7316491Y-10853150D01*
X7316491Y-10853150D02*
X7345063Y-10853150D01*
X7345063Y-10853150D02*
X7364110Y-10862674D01*
X7364110Y-10862674D02*
X7373634Y-10881722D01*
X7373634Y-10881722D02*
X7373634Y-10986484D01*
X7373634Y-10881722D02*
X7383158Y-10862674D01*
X7383158Y-10862674D02*
X7402205Y-10853150D01*
X7402205Y-10853150D02*
X7430777Y-10853150D01*
X7430777Y-10853150D02*
X7449824Y-10862674D01*
X7449824Y-10862674D02*
X7459348Y-10881722D01*
X7459348Y-10881722D02*
X7459348Y-10986484D01*
X7554586Y-10986484D02*
X7554586Y-10853150D01*
X7554586Y-10872198D02*
X7564110Y-10862674D01*
X7564110Y-10862674D02*
X7583158Y-10853150D01*
X7583158Y-10853150D02*
X7611729Y-10853150D01*
X7611729Y-10853150D02*
X7630777Y-10862674D01*
X7630777Y-10862674D02*
X7640301Y-10881722D01*
X7640301Y-10881722D02*
X7640301Y-10986484D01*
X7640301Y-10881722D02*
X7649824Y-10862674D01*
X7649824Y-10862674D02*
X7668872Y-10853150D01*
X7668872Y-10853150D02*
X7697443Y-10853150D01*
X7697443Y-10853150D02*
X7716491Y-10862674D01*
X7716491Y-10862674D02*
X7726015Y-10881722D01*
X7726015Y-10881722D02*
X7726015Y-10986484D01*
X8116491Y-10776960D02*
X7945063Y-11034103D01*
X8373634Y-10786484D02*
X8392682Y-10786484D01*
X8392682Y-10786484D02*
X8411729Y-10796008D01*
X8411729Y-10796008D02*
X8421253Y-10805531D01*
X8421253Y-10805531D02*
X8430777Y-10824579D01*
X8430777Y-10824579D02*
X8440301Y-10862674D01*
X8440301Y-10862674D02*
X8440301Y-10910293D01*
X8440301Y-10910293D02*
X8430777Y-10948389D01*
X8430777Y-10948389D02*
X8421253Y-10967436D01*
X8421253Y-10967436D02*
X8411729Y-10976960D01*
X8411729Y-10976960D02*
X8392682Y-10986484D01*
X8392682Y-10986484D02*
X8373634Y-10986484D01*
X8373634Y-10986484D02*
X8354586Y-10976960D01*
X8354586Y-10976960D02*
X8345063Y-10967436D01*
X8345063Y-10967436D02*
X8335539Y-10948389D01*
X8335539Y-10948389D02*
X8326015Y-10910293D01*
X8326015Y-10910293D02*
X8326015Y-10862674D01*
X8326015Y-10862674D02*
X8335539Y-10824579D01*
X8335539Y-10824579D02*
X8345063Y-10805531D01*
X8345063Y-10805531D02*
X8354586Y-10796008D01*
X8354586Y-10796008D02*
X8373634Y-10786484D01*
X8526015Y-10967436D02*
X8535539Y-10976960D01*
X8535539Y-10976960D02*
X8526015Y-10986484D01*
X8526015Y-10986484D02*
X8516491Y-10976960D01*
X8516491Y-10976960D02*
X8526015Y-10967436D01*
X8526015Y-10967436D02*
X8526015Y-10986484D01*
X8726015Y-10986484D02*
X8611729Y-10986484D01*
X8668872Y-10986484D02*
X8668872Y-10786484D01*
X8668872Y-10786484D02*
X8649825Y-10815055D01*
X8649825Y-10815055D02*
X8630777Y-10834103D01*
X8630777Y-10834103D02*
X8611729Y-10843627D01*
X8802206Y-10805531D02*
X8811729Y-10796008D01*
X8811729Y-10796008D02*
X8830777Y-10786484D01*
X8830777Y-10786484D02*
X8878396Y-10786484D01*
X8878396Y-10786484D02*
X8897444Y-10796008D01*
X8897444Y-10796008D02*
X8906968Y-10805531D01*
X8906968Y-10805531D02*
X8916491Y-10824579D01*
X8916491Y-10824579D02*
X8916491Y-10843627D01*
X8916491Y-10843627D02*
X8906968Y-10872198D01*
X8906968Y-10872198D02*
X8792682Y-10986484D01*
X8792682Y-10986484D02*
X8916491Y-10986484D01*
X9087920Y-10786484D02*
X9049825Y-10786484D01*
X9049825Y-10786484D02*
X9030777Y-10796008D01*
X9030777Y-10796008D02*
X9021253Y-10805531D01*
X9021253Y-10805531D02*
X9002206Y-10834103D01*
X9002206Y-10834103D02*
X8992682Y-10872198D01*
X8992682Y-10872198D02*
X8992682Y-10948389D01*
X8992682Y-10948389D02*
X9002206Y-10967436D01*
X9002206Y-10967436D02*
X9011729Y-10976960D01*
X9011729Y-10976960D02*
X9030777Y-10986484D01*
X9030777Y-10986484D02*
X9068872Y-10986484D01*
X9068872Y-10986484D02*
X9087920Y-10976960D01*
X9087920Y-10976960D02*
X9097444Y-10967436D01*
X9097444Y-10967436D02*
X9106968Y-10948389D01*
X9106968Y-10948389D02*
X9106968Y-10900770D01*
X9106968Y-10900770D02*
X9097444Y-10881722D01*
X9097444Y-10881722D02*
X9087920Y-10872198D01*
X9087920Y-10872198D02*
X9068872Y-10862674D01*
X9068872Y-10862674D02*
X9030777Y-10862674D01*
X9030777Y-10862674D02*
X9011729Y-10872198D01*
X9011729Y-10872198D02*
X9002206Y-10881722D01*
X9002206Y-10881722D02*
X8992682Y-10900770D01*
X9230777Y-10786484D02*
X9249825Y-10786484D01*
X9249825Y-10786484D02*
X9268872Y-10796008D01*
X9268872Y-10796008D02*
X9278396Y-10805531D01*
X9278396Y-10805531D02*
X9287920Y-10824579D01*
X9287920Y-10824579D02*
X9297444Y-10862674D01*
X9297444Y-10862674D02*
X9297444Y-10910293D01*
X9297444Y-10910293D02*
X9287920Y-10948389D01*
X9287920Y-10948389D02*
X9278396Y-10967436D01*
X9278396Y-10967436D02*
X9268872Y-10976960D01*
X9268872Y-10976960D02*
X9249825Y-10986484D01*
X9249825Y-10986484D02*
X9230777Y-10986484D01*
X9230777Y-10986484D02*
X9211729Y-10976960D01*
X9211729Y-10976960D02*
X9202206Y-10967436D01*
X9202206Y-10967436D02*
X9192682Y-10948389D01*
X9192682Y-10948389D02*
X9183158Y-10910293D01*
X9183158Y-10910293D02*
X9183158Y-10862674D01*
X9183158Y-10862674D02*
X9192682Y-10824579D01*
X9192682Y-10824579D02*
X9202206Y-10805531D01*
X9202206Y-10805531D02*
X9211729Y-10796008D01*
X9211729Y-10796008D02*
X9230777Y-10786484D01*
X9373634Y-10786484D02*
X9373634Y-10824579D01*
X9449825Y-10786484D02*
X9449825Y-10824579D01*
X9745063Y-11062674D02*
X9735539Y-11053150D01*
X9735539Y-11053150D02*
X9716491Y-11024579D01*
X9716491Y-11024579D02*
X9706968Y-11005531D01*
X9706968Y-11005531D02*
X9697444Y-10976960D01*
X9697444Y-10976960D02*
X9687920Y-10929341D01*
X9687920Y-10929341D02*
X9687920Y-10891246D01*
X9687920Y-10891246D02*
X9697444Y-10843627D01*
X9697444Y-10843627D02*
X9706968Y-10815055D01*
X9706968Y-10815055D02*
X9716491Y-10796008D01*
X9716491Y-10796008D02*
X9735539Y-10767436D01*
X9735539Y-10767436D02*
X9745063Y-10757912D01*
X9906968Y-10853150D02*
X9906968Y-10986484D01*
X9859349Y-10776960D02*
X9811730Y-10919817D01*
X9811730Y-10919817D02*
X9935539Y-10919817D01*
X10164111Y-10986484D02*
X10164111Y-10786484D01*
X10249825Y-10986484D02*
X10249825Y-10881722D01*
X10249825Y-10881722D02*
X10240301Y-10862674D01*
X10240301Y-10862674D02*
X10221253Y-10853150D01*
X10221253Y-10853150D02*
X10192682Y-10853150D01*
X10192682Y-10853150D02*
X10173634Y-10862674D01*
X10173634Y-10862674D02*
X10164111Y-10872198D01*
X10373634Y-10986484D02*
X10354587Y-10976960D01*
X10354587Y-10976960D02*
X10345063Y-10967436D01*
X10345063Y-10967436D02*
X10335539Y-10948389D01*
X10335539Y-10948389D02*
X10335539Y-10891246D01*
X10335539Y-10891246D02*
X10345063Y-10872198D01*
X10345063Y-10872198D02*
X10354587Y-10862674D01*
X10354587Y-10862674D02*
X10373634Y-10853150D01*
X10373634Y-10853150D02*
X10402206Y-10853150D01*
X10402206Y-10853150D02*
X10421253Y-10862674D01*
X10421253Y-10862674D02*
X10430777Y-10872198D01*
X10430777Y-10872198D02*
X10440301Y-10891246D01*
X10440301Y-10891246D02*
X10440301Y-10948389D01*
X10440301Y-10948389D02*
X10430777Y-10967436D01*
X10430777Y-10967436D02*
X10421253Y-10976960D01*
X10421253Y-10976960D02*
X10402206Y-10986484D01*
X10402206Y-10986484D02*
X10373634Y-10986484D01*
X10554587Y-10986484D02*
X10535539Y-10976960D01*
X10535539Y-10976960D02*
X10526015Y-10957912D01*
X10526015Y-10957912D02*
X10526015Y-10786484D01*
X10706968Y-10976960D02*
X10687920Y-10986484D01*
X10687920Y-10986484D02*
X10649825Y-10986484D01*
X10649825Y-10986484D02*
X10630777Y-10976960D01*
X10630777Y-10976960D02*
X10621253Y-10957912D01*
X10621253Y-10957912D02*
X10621253Y-10881722D01*
X10621253Y-10881722D02*
X10630777Y-10862674D01*
X10630777Y-10862674D02*
X10649825Y-10853150D01*
X10649825Y-10853150D02*
X10687920Y-10853150D01*
X10687920Y-10853150D02*
X10706968Y-10862674D01*
X10706968Y-10862674D02*
X10716492Y-10881722D01*
X10716492Y-10881722D02*
X10716492Y-10900770D01*
X10716492Y-10900770D02*
X10621253Y-10919817D01*
X10792682Y-10976960D02*
X10811730Y-10986484D01*
X10811730Y-10986484D02*
X10849825Y-10986484D01*
X10849825Y-10986484D02*
X10868873Y-10976960D01*
X10868873Y-10976960D02*
X10878396Y-10957912D01*
X10878396Y-10957912D02*
X10878396Y-10948389D01*
X10878396Y-10948389D02*
X10868873Y-10929341D01*
X10868873Y-10929341D02*
X10849825Y-10919817D01*
X10849825Y-10919817D02*
X10821253Y-10919817D01*
X10821253Y-10919817D02*
X10802206Y-10910293D01*
X10802206Y-10910293D02*
X10792682Y-10891246D01*
X10792682Y-10891246D02*
X10792682Y-10881722D01*
X10792682Y-10881722D02*
X10802206Y-10862674D01*
X10802206Y-10862674D02*
X10821253Y-10853150D01*
X10821253Y-10853150D02*
X10849825Y-10853150D01*
X10849825Y-10853150D02*
X10868873Y-10862674D01*
X10945063Y-11062674D02*
X10954587Y-11053150D01*
X10954587Y-11053150D02*
X10973634Y-11024579D01*
X10973634Y-11024579D02*
X10983158Y-11005531D01*
X10983158Y-11005531D02*
X10992682Y-10976960D01*
X10992682Y-10976960D02*
X11002206Y-10929341D01*
X11002206Y-10929341D02*
X11002206Y-10891246D01*
X11002206Y-10891246D02*
X10992682Y-10843627D01*
X10992682Y-10843627D02*
X10983158Y-10815055D01*
X10983158Y-10815055D02*
X10973634Y-10796008D01*
X10973634Y-10796008D02*
X10954587Y-10767436D01*
X10954587Y-10767436D02*
X10945063Y-10757912D01*
X11306968Y-11062674D02*
X11297444Y-11053150D01*
X11297444Y-11053150D02*
X11278396Y-11024579D01*
X11278396Y-11024579D02*
X11268872Y-11005531D01*
X11268872Y-11005531D02*
X11259349Y-10976960D01*
X11259349Y-10976960D02*
X11249825Y-10929341D01*
X11249825Y-10929341D02*
X11249825Y-10891246D01*
X11249825Y-10891246D02*
X11259349Y-10843627D01*
X11259349Y-10843627D02*
X11268872Y-10815055D01*
X11268872Y-10815055D02*
X11278396Y-10796008D01*
X11278396Y-10796008D02*
X11297444Y-10767436D01*
X11297444Y-10767436D02*
X11306968Y-10757912D01*
X11383158Y-10853150D02*
X11383158Y-10986484D01*
X11383158Y-10872198D02*
X11392682Y-10862674D01*
X11392682Y-10862674D02*
X11411730Y-10853150D01*
X11411730Y-10853150D02*
X11440301Y-10853150D01*
X11440301Y-10853150D02*
X11459349Y-10862674D01*
X11459349Y-10862674D02*
X11468872Y-10881722D01*
X11468872Y-10881722D02*
X11468872Y-10986484D01*
X11592682Y-10986484D02*
X11573634Y-10976960D01*
X11573634Y-10976960D02*
X11564111Y-10967436D01*
X11564111Y-10967436D02*
X11554587Y-10948389D01*
X11554587Y-10948389D02*
X11554587Y-10891246D01*
X11554587Y-10891246D02*
X11564111Y-10872198D01*
X11564111Y-10872198D02*
X11573634Y-10862674D01*
X11573634Y-10862674D02*
X11592682Y-10853150D01*
X11592682Y-10853150D02*
X11621253Y-10853150D01*
X11621253Y-10853150D02*
X11640301Y-10862674D01*
X11640301Y-10862674D02*
X11649825Y-10872198D01*
X11649825Y-10872198D02*
X11659349Y-10891246D01*
X11659349Y-10891246D02*
X11659349Y-10948389D01*
X11659349Y-10948389D02*
X11649825Y-10967436D01*
X11649825Y-10967436D02*
X11640301Y-10976960D01*
X11640301Y-10976960D02*
X11621253Y-10986484D01*
X11621253Y-10986484D02*
X11592682Y-10986484D01*
X11716492Y-10853150D02*
X11792682Y-10853150D01*
X11745063Y-10786484D02*
X11745063Y-10957912D01*
X11745063Y-10957912D02*
X11754587Y-10976960D01*
X11754587Y-10976960D02*
X11773634Y-10986484D01*
X11773634Y-10986484D02*
X11792682Y-10986484D01*
X12011730Y-10853150D02*
X12011730Y-11053150D01*
X12011730Y-10862674D02*
X12030777Y-10853150D01*
X12030777Y-10853150D02*
X12068873Y-10853150D01*
X12068873Y-10853150D02*
X12087920Y-10862674D01*
X12087920Y-10862674D02*
X12097444Y-10872198D01*
X12097444Y-10872198D02*
X12106968Y-10891246D01*
X12106968Y-10891246D02*
X12106968Y-10948389D01*
X12106968Y-10948389D02*
X12097444Y-10967436D01*
X12097444Y-10967436D02*
X12087920Y-10976960D01*
X12087920Y-10976960D02*
X12068873Y-10986484D01*
X12068873Y-10986484D02*
X12030777Y-10986484D01*
X12030777Y-10986484D02*
X12011730Y-10976960D01*
X12221253Y-10986484D02*
X12202206Y-10976960D01*
X12202206Y-10976960D02*
X12192682Y-10957912D01*
X12192682Y-10957912D02*
X12192682Y-10786484D01*
X12383158Y-10986484D02*
X12383158Y-10881722D01*
X12383158Y-10881722D02*
X12373634Y-10862674D01*
X12373634Y-10862674D02*
X12354587Y-10853150D01*
X12354587Y-10853150D02*
X12316492Y-10853150D01*
X12316492Y-10853150D02*
X12297444Y-10862674D01*
X12383158Y-10976960D02*
X12364111Y-10986484D01*
X12364111Y-10986484D02*
X12316492Y-10986484D01*
X12316492Y-10986484D02*
X12297444Y-10976960D01*
X12297444Y-10976960D02*
X12287920Y-10957912D01*
X12287920Y-10957912D02*
X12287920Y-10938865D01*
X12287920Y-10938865D02*
X12297444Y-10919817D01*
X12297444Y-10919817D02*
X12316492Y-10910293D01*
X12316492Y-10910293D02*
X12364111Y-10910293D01*
X12364111Y-10910293D02*
X12383158Y-10900770D01*
X12449825Y-10853150D02*
X12526015Y-10853150D01*
X12478396Y-10786484D02*
X12478396Y-10957912D01*
X12478396Y-10957912D02*
X12487920Y-10976960D01*
X12487920Y-10976960D02*
X12506968Y-10986484D01*
X12506968Y-10986484D02*
X12526015Y-10986484D01*
X12668873Y-10976960D02*
X12649825Y-10986484D01*
X12649825Y-10986484D02*
X12611730Y-10986484D01*
X12611730Y-10986484D02*
X12592682Y-10976960D01*
X12592682Y-10976960D02*
X12583158Y-10957912D01*
X12583158Y-10957912D02*
X12583158Y-10881722D01*
X12583158Y-10881722D02*
X12592682Y-10862674D01*
X12592682Y-10862674D02*
X12611730Y-10853150D01*
X12611730Y-10853150D02*
X12649825Y-10853150D01*
X12649825Y-10853150D02*
X12668873Y-10862674D01*
X12668873Y-10862674D02*
X12678396Y-10881722D01*
X12678396Y-10881722D02*
X12678396Y-10900770D01*
X12678396Y-10900770D02*
X12583158Y-10919817D01*
X12849825Y-10986484D02*
X12849825Y-10786484D01*
X12849825Y-10976960D02*
X12830777Y-10986484D01*
X12830777Y-10986484D02*
X12792682Y-10986484D01*
X12792682Y-10986484D02*
X12773634Y-10976960D01*
X12773634Y-10976960D02*
X12764111Y-10967436D01*
X12764111Y-10967436D02*
X12754587Y-10948389D01*
X12754587Y-10948389D02*
X12754587Y-10891246D01*
X12754587Y-10891246D02*
X12764111Y-10872198D01*
X12764111Y-10872198D02*
X12773634Y-10862674D01*
X12773634Y-10862674D02*
X12792682Y-10853150D01*
X12792682Y-10853150D02*
X12830777Y-10853150D01*
X12830777Y-10853150D02*
X12849825Y-10862674D01*
X12926015Y-11062674D02*
X12935539Y-11053150D01*
X12935539Y-11053150D02*
X12954587Y-11024579D01*
X12954587Y-11024579D02*
X12964111Y-11005531D01*
X12964111Y-11005531D02*
X12973634Y-10976960D01*
X12973634Y-10976960D02*
X12983158Y-10929341D01*
X12983158Y-10929341D02*
X12983158Y-10891246D01*
X12983158Y-10891246D02*
X12973634Y-10843627D01*
X12973634Y-10843627D02*
X12964111Y-10815055D01*
X12964111Y-10815055D02*
X12954587Y-10796008D01*
X12954587Y-10796008D02*
X12935539Y-10767436D01*
X12935539Y-10767436D02*
X12926015Y-10757912D01*
M02*
