G04 #@! TF.GenerationSoftware,KiCad,Pcbnew,7.0.8-7.0.8~ubuntu22.04.1*
G04 #@! TF.CreationDate,2024-01-26T15:53:44+01:00*
G04 #@! TF.ProjectId,shoulder,73686f75-6c64-4657-922e-6b696361645f,1.1*
G04 #@! TF.SameCoordinates,Original*
G04 #@! TF.FileFunction,Soldermask,Top*
G04 #@! TF.FilePolarity,Negative*
%FSLAX46Y46*%
G04 Gerber Fmt 4.6, Leading zero omitted, Abs format (unit mm)*
G04 Created by KiCad (PCBNEW 7.0.8-7.0.8~ubuntu22.04.1) date 2024-01-26 15:53:44*
%MOMM*%
%LPD*%
G01*
G04 APERTURE LIST*
G04 Aperture macros list*
%AMRoundRect*
0 Rectangle with rounded corners*
0 $1 Rounding radius*
0 $2 $3 $4 $5 $6 $7 $8 $9 X,Y pos of 4 corners*
0 Add a 4 corners polygon primitive as box body*
4,1,4,$2,$3,$4,$5,$6,$7,$8,$9,$2,$3,0*
0 Add four circle primitives for the rounded corners*
1,1,$1+$1,$2,$3*
1,1,$1+$1,$4,$5*
1,1,$1+$1,$6,$7*
1,1,$1+$1,$8,$9*
0 Add four rect primitives between the rounded corners*
20,1,$1+$1,$2,$3,$4,$5,0*
20,1,$1+$1,$4,$5,$6,$7,0*
20,1,$1+$1,$6,$7,$8,$9,0*
20,1,$1+$1,$8,$9,$2,$3,0*%
G04 Aperture macros list end*
%ADD10C,1.600200*%
%ADD11R,2.000000X2.000000*%
%ADD12O,2.000000X2.000000*%
%ADD13R,2.400000X2.400000*%
%ADD14C,2.400000*%
%ADD15RoundRect,0.135000X0.135000X0.185000X-0.135000X0.185000X-0.135000X-0.185000X0.135000X-0.185000X0*%
%ADD16R,1.700000X1.700000*%
%ADD17O,1.700000X1.700000*%
%ADD18C,3.200000*%
%ADD19R,1.905000X2.000000*%
%ADD20O,1.905000X2.000000*%
%ADD21C,1.800000*%
%ADD22RoundRect,0.225000X-0.250000X0.225000X-0.250000X-0.225000X0.250000X-0.225000X0.250000X0.225000X0*%
%ADD23RoundRect,0.200000X0.200000X0.275000X-0.200000X0.275000X-0.200000X-0.275000X0.200000X-0.275000X0*%
%ADD24R,1.600000X1.600000*%
%ADD25C,1.600000*%
%ADD26RoundRect,0.135000X0.185000X-0.135000X0.185000X0.135000X-0.185000X0.135000X-0.185000X-0.135000X0*%
%ADD27R,1.350000X0.400000*%
%ADD28O,1.900000X1.200000*%
%ADD29R,1.900000X1.200000*%
%ADD30C,1.450000*%
%ADD31R,1.900000X1.500000*%
%ADD32RoundRect,0.135000X-0.185000X0.135000X-0.185000X-0.135000X0.185000X-0.135000X0.185000X0.135000X0*%
%ADD33RoundRect,0.135000X-0.135000X-0.185000X0.135000X-0.185000X0.135000X0.185000X-0.135000X0.185000X0*%
%ADD34RoundRect,0.225000X0.225000X0.250000X-0.225000X0.250000X-0.225000X-0.250000X0.225000X-0.250000X0*%
%ADD35R,1.300000X1.300000*%
%ADD36C,1.300000*%
%ADD37RoundRect,0.250000X0.450000X-0.262500X0.450000X0.262500X-0.450000X0.262500X-0.450000X-0.262500X0*%
%ADD38RoundRect,0.218750X0.256250X-0.218750X0.256250X0.218750X-0.256250X0.218750X-0.256250X-0.218750X0*%
%ADD39R,0.558800X1.460500*%
%ADD40R,3.403600X2.717800*%
%ADD41RoundRect,0.237500X-0.250000X-0.237500X0.250000X-0.237500X0.250000X0.237500X-0.250000X0.237500X0*%
%ADD42RoundRect,0.250000X-0.450000X0.262500X-0.450000X-0.262500X0.450000X-0.262500X0.450000X0.262500X0*%
%ADD43C,1.524000*%
%ADD44RoundRect,0.225000X-0.225000X-0.250000X0.225000X-0.250000X0.225000X0.250000X-0.225000X0.250000X0*%
%ADD45R,0.351536X0.576580*%
%ADD46R,0.576580X0.351536*%
%ADD47R,0.532600X1.454899*%
%ADD48R,1.000000X2.800000*%
%ADD49C,0.965200*%
%ADD50R,2.600000X2.600000*%
%ADD51C,2.600000*%
%ADD52RoundRect,0.225000X0.250000X-0.225000X0.250000X0.225000X-0.250000X0.225000X-0.250000X-0.225000X0*%
%ADD53RoundRect,0.075000X-0.700000X-0.075000X0.700000X-0.075000X0.700000X0.075000X-0.700000X0.075000X0*%
%ADD54RoundRect,0.075000X-0.075000X-0.700000X0.075000X-0.700000X0.075000X0.700000X-0.075000X0.700000X0*%
%ADD55RoundRect,0.237500X-0.237500X0.250000X-0.237500X-0.250000X0.237500X-0.250000X0.237500X0.250000X0*%
%ADD56C,2.000000*%
%ADD57RoundRect,0.250000X-0.262500X-0.450000X0.262500X-0.450000X0.262500X0.450000X-0.262500X0.450000X0*%
%ADD58R,0.685800X0.330200*%
%ADD59RoundRect,0.250000X0.262500X0.450000X-0.262500X0.450000X-0.262500X-0.450000X0.262500X-0.450000X0*%
%ADD60RoundRect,0.237500X0.250000X0.237500X-0.250000X0.237500X-0.250000X-0.237500X0.250000X-0.237500X0*%
%ADD61RoundRect,0.218750X0.218750X0.256250X-0.218750X0.256250X-0.218750X-0.256250X0.218750X-0.256250X0*%
G04 APERTURE END LIST*
D10*
X67500000Y-42250000D03*
X70040000Y-42250000D03*
D11*
X134000000Y-32500000D03*
D12*
X128920000Y-32500000D03*
D13*
X78737246Y-46250000D03*
D14*
X86237246Y-46250000D03*
D15*
X124769999Y-88750000D03*
X123749999Y-88750000D03*
D16*
X89175000Y-99525000D03*
D17*
X89175000Y-96985000D03*
X91715000Y-99525000D03*
X91715000Y-96985000D03*
X94255000Y-99525000D03*
X94255000Y-96985000D03*
X96795000Y-99525000D03*
X96795000Y-96985000D03*
X99335000Y-99525000D03*
X99335000Y-96985000D03*
D18*
X144750000Y-98350000D03*
D16*
X124750000Y-40750000D03*
D17*
X124750000Y-43290000D03*
D19*
X107170000Y-20000000D03*
D20*
X109710000Y-20000000D03*
X112250000Y-20000000D03*
D18*
X71750000Y-22500000D03*
D21*
X131000000Y-44250000D03*
X138620000Y-46790000D03*
X143700000Y-44250000D03*
D22*
X98750000Y-81225000D03*
X98750000Y-82775000D03*
D23*
X113325000Y-59500000D03*
X111675000Y-59500000D03*
D16*
X144290000Y-90500000D03*
D17*
X141750000Y-90500000D03*
X144290000Y-87960000D03*
X141750000Y-87960000D03*
X144290000Y-85420000D03*
X141750000Y-85420000D03*
X144290000Y-82880000D03*
X141750000Y-82880000D03*
X144290000Y-80340000D03*
X141750000Y-80340000D03*
D24*
X107250000Y-25500000D03*
D25*
X105250000Y-25500000D03*
D26*
X114000000Y-97010000D03*
X114000000Y-95990000D03*
D11*
X106500000Y-36540000D03*
D12*
X106500000Y-31460000D03*
D27*
X144250000Y-73650000D03*
X144250000Y-73000000D03*
X144250000Y-72350000D03*
X144250000Y-71700000D03*
X144250000Y-71050000D03*
D28*
X146950000Y-75850000D03*
D29*
X146950000Y-75250000D03*
D30*
X144250000Y-74850000D03*
D31*
X146950000Y-73350000D03*
X146950000Y-71350000D03*
D30*
X144250000Y-69850000D03*
D29*
X146950000Y-69450000D03*
D28*
X146950000Y-68850000D03*
D32*
X120750000Y-76249999D03*
X120750000Y-77269999D03*
D11*
X115000000Y-32250000D03*
D12*
X109920000Y-32250000D03*
D33*
X101240000Y-76250000D03*
X102260000Y-76250000D03*
D24*
X126000000Y-25750000D03*
D25*
X124000000Y-25750000D03*
D34*
X117275000Y-94500000D03*
X115725000Y-94500000D03*
D35*
X104250000Y-67000000D03*
D36*
X102980000Y-68270000D03*
X101710000Y-67000000D03*
D18*
X66750000Y-98350000D03*
D37*
X66500000Y-81912500D03*
X66500000Y-80087500D03*
D38*
X119750000Y-44537500D03*
X119750000Y-42962500D03*
D18*
X139750000Y-22500000D03*
D39*
X68845000Y-81974150D03*
X70115000Y-81974150D03*
X71385000Y-81974150D03*
X72655000Y-81974150D03*
X72655000Y-76525850D03*
X71385000Y-76525850D03*
X70115000Y-76525850D03*
X68845000Y-76525850D03*
D40*
X70750000Y-79250000D03*
D41*
X131587500Y-79250000D03*
X133412500Y-79250000D03*
D42*
X131750000Y-85087500D03*
X131750000Y-86912500D03*
D43*
X93630000Y-57250000D03*
X93630000Y-42010000D03*
X99980000Y-42010000D03*
X101250000Y-57250000D03*
D11*
X119210000Y-97000000D03*
D12*
X124290000Y-97000000D03*
D19*
X126170000Y-20000000D03*
D20*
X128710000Y-20000000D03*
X131250000Y-20000000D03*
D44*
X121225000Y-94500000D03*
X122775000Y-94500000D03*
D45*
X134999999Y-88710300D03*
X135500000Y-88710300D03*
X136000000Y-88710300D03*
X136500001Y-88710300D03*
D46*
X136706300Y-87999999D03*
X136706300Y-87500000D03*
X136706300Y-87000001D03*
D45*
X136500001Y-86289700D03*
X136000000Y-86289700D03*
X135500000Y-86289700D03*
X134999999Y-86289700D03*
D46*
X134793700Y-87000001D03*
X134793700Y-87500000D03*
X134793700Y-87999999D03*
D38*
X114750000Y-44537500D03*
X114750000Y-42962500D03*
D47*
X110595000Y-67721348D03*
X111865000Y-67721348D03*
X113135000Y-67721348D03*
X114405000Y-67721348D03*
X114405000Y-62278652D03*
X113135000Y-62278652D03*
X111865000Y-62278652D03*
X110595000Y-62278652D03*
D16*
X115420000Y-36250000D03*
D17*
X117960000Y-36250000D03*
X120500000Y-36250000D03*
D15*
X127510000Y-87000000D03*
X126490000Y-87000000D03*
D16*
X110500000Y-40750000D03*
D17*
X110500000Y-43290000D03*
D48*
X92500000Y-81150000D03*
X92500000Y-75350000D03*
X96500000Y-81150000D03*
X96500000Y-75350000D03*
D39*
X81750000Y-81948300D03*
X83020000Y-81948300D03*
X84290000Y-81948300D03*
X85560000Y-81948300D03*
X85560000Y-76500000D03*
X84290000Y-76500000D03*
X83020000Y-76500000D03*
X81750000Y-76500000D03*
D40*
X83655000Y-79224150D03*
D49*
X106000000Y-81250000D03*
X106000000Y-86130001D03*
D50*
X81295000Y-30750000D03*
D51*
X81295000Y-27250000D03*
X81295000Y-23750000D03*
X81295000Y-20250000D03*
D52*
X116000000Y-61775000D03*
X116000000Y-60225000D03*
D53*
X110075000Y-82500000D03*
X110075000Y-83000000D03*
X110075000Y-83500000D03*
X110075000Y-84000000D03*
X110075000Y-84500000D03*
X110075000Y-85000000D03*
X110075000Y-85500000D03*
X110075000Y-86000000D03*
X110075000Y-86500000D03*
X110075000Y-87000000D03*
X110075000Y-87500000D03*
X110075000Y-88000000D03*
X110075000Y-88500000D03*
X110075000Y-89000000D03*
X110075000Y-89500000D03*
X110075000Y-90000000D03*
D54*
X112000000Y-91925000D03*
X112500000Y-91925000D03*
X113000000Y-91925000D03*
X113500000Y-91925000D03*
X114000000Y-91925000D03*
X114500000Y-91925000D03*
X115000000Y-91925000D03*
X115500000Y-91925000D03*
X116000000Y-91925000D03*
X116500000Y-91925000D03*
X117000000Y-91925000D03*
X117500000Y-91925000D03*
X118000000Y-91925000D03*
X118500000Y-91925000D03*
X119000000Y-91925000D03*
X119500000Y-91925000D03*
D53*
X121425000Y-90000000D03*
X121425000Y-89500000D03*
X121425000Y-89000000D03*
X121425000Y-88500000D03*
X121425000Y-88000000D03*
X121425000Y-87500000D03*
X121425000Y-87000000D03*
X121425000Y-86500000D03*
X121425000Y-86000000D03*
X121425000Y-85500000D03*
X121425000Y-85000000D03*
X121425000Y-84500000D03*
X121425000Y-84000000D03*
X121425000Y-83500000D03*
X121425000Y-83000000D03*
X121425000Y-82500000D03*
D54*
X119500000Y-80575000D03*
X119000000Y-80575000D03*
X118500000Y-80575000D03*
X118000000Y-80575000D03*
X117500000Y-80575000D03*
X117000000Y-80575000D03*
X116500000Y-80575000D03*
X116000000Y-80575000D03*
X115500000Y-80575000D03*
X115000000Y-80575000D03*
X114500000Y-80575000D03*
X114000000Y-80575000D03*
X113500000Y-80575000D03*
X113000000Y-80575000D03*
X112500000Y-80575000D03*
X112000000Y-80575000D03*
D34*
X113275000Y-69750000D03*
X111725000Y-69750000D03*
D16*
X122000000Y-71750000D03*
D17*
X119460000Y-71750000D03*
D16*
X124675000Y-62250000D03*
D17*
X127215000Y-62250000D03*
X129755000Y-62250000D03*
X132295000Y-62250000D03*
X134835000Y-62250000D03*
D32*
X117000000Y-73490000D03*
X117000000Y-74510000D03*
X119500000Y-76240000D03*
X119500000Y-77260000D03*
D44*
X130975000Y-36750000D03*
X132525000Y-36750000D03*
D37*
X121750000Y-33662500D03*
X121750000Y-31837500D03*
D55*
X127500000Y-82587500D03*
X127500000Y-84412500D03*
D34*
X102525000Y-86250000D03*
X100975000Y-86250000D03*
X102525000Y-81250000D03*
X100975000Y-81250000D03*
D16*
X112250000Y-75000000D03*
D17*
X109710000Y-75000000D03*
D11*
X76000000Y-61632323D03*
D56*
X76000000Y-66632323D03*
D21*
X131025000Y-51475000D03*
X138645000Y-54015000D03*
X143725000Y-51475000D03*
D37*
X79500000Y-81912500D03*
X79500000Y-80087500D03*
D52*
X74500000Y-79775000D03*
X74500000Y-78225000D03*
D37*
X103500000Y-34162500D03*
X103500000Y-32337500D03*
D42*
X119750000Y-39337500D03*
X119750000Y-41162500D03*
D16*
X95750000Y-64170000D03*
D17*
X95750000Y-66710000D03*
X95750000Y-69250000D03*
D24*
X113500000Y-25500000D03*
D25*
X111500000Y-25500000D03*
D16*
X85330000Y-90000000D03*
D17*
X82790000Y-90000000D03*
X80250000Y-90000000D03*
X77710000Y-90000000D03*
X75170000Y-90000000D03*
X72630000Y-90000000D03*
X70090000Y-90000000D03*
D57*
X110337500Y-72250000D03*
X112162500Y-72250000D03*
D58*
X139000000Y-73000000D03*
X139000000Y-72500001D03*
X139000000Y-72000002D03*
X137577600Y-72000002D03*
X137577600Y-72500001D03*
X137577600Y-73000000D03*
D10*
X67460000Y-52000000D03*
X70000000Y-52000000D03*
D42*
X114750000Y-39337500D03*
X114750000Y-41162500D03*
D37*
X131750000Y-90412500D03*
X131750000Y-88587500D03*
D11*
X124750000Y-36500000D03*
D12*
X124750000Y-31420000D03*
D32*
X115750000Y-73490000D03*
X115750000Y-74510000D03*
D59*
X102662500Y-79000000D03*
X100837500Y-79000000D03*
D52*
X87500000Y-79525000D03*
X87500000Y-77975000D03*
D33*
X102500000Y-92500000D03*
X103520000Y-92500000D03*
D50*
X95295000Y-30750000D03*
D51*
X95295000Y-27250000D03*
X95295000Y-23750000D03*
X95295000Y-20250000D03*
D52*
X136500000Y-84775000D03*
X136500000Y-83225000D03*
D44*
X131685000Y-82080000D03*
X133235000Y-82080000D03*
D60*
X133412500Y-77500000D03*
X131587500Y-77500000D03*
D61*
X128287500Y-97000000D03*
X126712500Y-97000000D03*
D24*
X132500000Y-25750000D03*
D25*
X130500000Y-25750000D03*
D44*
X110475000Y-36500000D03*
X112025000Y-36500000D03*
D32*
X114750000Y-73480001D03*
X114750000Y-74500001D03*
M02*
