G04 #@! TF.GenerationSoftware,KiCad,Pcbnew,7.0.8-7.0.8~ubuntu22.04.1*
G04 #@! TF.CreationDate,2024-01-26T15:53:44+01:00*
G04 #@! TF.ProjectId,shoulder,73686f75-6c64-4657-922e-6b696361645f,1.1*
G04 #@! TF.SameCoordinates,Original*
G04 #@! TF.FileFunction,Soldermask,Bot*
G04 #@! TF.FilePolarity,Negative*
%FSLAX46Y46*%
G04 Gerber Fmt 4.6, Leading zero omitted, Abs format (unit mm)*
G04 Created by KiCad (PCBNEW 7.0.8-7.0.8~ubuntu22.04.1) date 2024-01-26 15:53:44*
%MOMM*%
%LPD*%
G01*
G04 APERTURE LIST*
G04 Aperture macros list*
%AMRoundRect*
0 Rectangle with rounded corners*
0 $1 Rounding radius*
0 $2 $3 $4 $5 $6 $7 $8 $9 X,Y pos of 4 corners*
0 Add a 4 corners polygon primitive as box body*
4,1,4,$2,$3,$4,$5,$6,$7,$8,$9,$2,$3,0*
0 Add four circle primitives for the rounded corners*
1,1,$1+$1,$2,$3*
1,1,$1+$1,$4,$5*
1,1,$1+$1,$6,$7*
1,1,$1+$1,$8,$9*
0 Add four rect primitives between the rounded corners*
20,1,$1+$1,$2,$3,$4,$5,0*
20,1,$1+$1,$4,$5,$6,$7,0*
20,1,$1+$1,$6,$7,$8,$9,0*
20,1,$1+$1,$8,$9,$2,$3,0*%
G04 Aperture macros list end*
%ADD10C,1.600200*%
%ADD11R,2.000000X2.000000*%
%ADD12O,2.000000X2.000000*%
%ADD13R,2.400000X2.400000*%
%ADD14C,2.400000*%
%ADD15R,1.700000X1.700000*%
%ADD16O,1.700000X1.700000*%
%ADD17C,3.200000*%
%ADD18R,1.905000X2.000000*%
%ADD19O,1.905000X2.000000*%
%ADD20C,1.800000*%
%ADD21R,1.600000X1.600000*%
%ADD22C,1.600000*%
%ADD23O,1.900000X1.200000*%
%ADD24C,1.450000*%
%ADD25R,1.300000X1.300000*%
%ADD26C,1.300000*%
%ADD27C,1.524000*%
%ADD28C,0.965200*%
%ADD29R,2.600000X2.600000*%
%ADD30C,2.600000*%
%ADD31C,2.000000*%
%ADD32RoundRect,0.225000X0.250000X-0.225000X0.250000X0.225000X-0.250000X0.225000X-0.250000X-0.225000X0*%
%ADD33RoundRect,0.225000X0.225000X0.250000X-0.225000X0.250000X-0.225000X-0.250000X0.225000X-0.250000X0*%
%ADD34RoundRect,0.225000X-0.250000X0.225000X-0.250000X-0.225000X0.250000X-0.225000X0.250000X0.225000X0*%
%ADD35RoundRect,0.225000X-0.225000X-0.250000X0.225000X-0.250000X0.225000X0.250000X-0.225000X0.250000X0*%
G04 APERTURE END LIST*
D10*
X67500000Y-42250000D03*
X70040000Y-42250000D03*
D11*
X134000000Y-32500000D03*
D12*
X128920000Y-32500000D03*
D13*
X78737246Y-46250000D03*
D14*
X86237246Y-46250000D03*
D15*
X89175000Y-99525000D03*
D16*
X89175000Y-96985000D03*
X91715000Y-99525000D03*
X91715000Y-96985000D03*
X94255000Y-99525000D03*
X94255000Y-96985000D03*
X96795000Y-99525000D03*
X96795000Y-96985000D03*
X99335000Y-99525000D03*
X99335000Y-96985000D03*
D17*
X144750000Y-98350000D03*
D15*
X124750000Y-40750000D03*
D16*
X124750000Y-43290000D03*
D18*
X107170000Y-20000000D03*
D19*
X109710000Y-20000000D03*
X112250000Y-20000000D03*
D17*
X71750000Y-22500000D03*
D20*
X131000000Y-44250000D03*
X138620000Y-46790000D03*
X143700000Y-44250000D03*
D15*
X144290000Y-90500000D03*
D16*
X141750000Y-90500000D03*
X144290000Y-87960000D03*
X141750000Y-87960000D03*
X144290000Y-85420000D03*
X141750000Y-85420000D03*
X144290000Y-82880000D03*
X141750000Y-82880000D03*
X144290000Y-80340000D03*
X141750000Y-80340000D03*
D21*
X107250000Y-25500000D03*
D22*
X105250000Y-25500000D03*
D11*
X106500000Y-36540000D03*
D12*
X106500000Y-31460000D03*
D23*
X146950000Y-75850000D03*
D24*
X144250000Y-74850000D03*
X144250000Y-69850000D03*
D23*
X146950000Y-68850000D03*
D11*
X115000000Y-32250000D03*
D12*
X109920000Y-32250000D03*
D21*
X126000000Y-25750000D03*
D22*
X124000000Y-25750000D03*
D25*
X104250000Y-67000000D03*
D26*
X102980000Y-68270000D03*
X101710000Y-67000000D03*
D17*
X66750000Y-98350000D03*
X139750000Y-22500000D03*
D27*
X93630000Y-57250000D03*
X93630000Y-42010000D03*
X99980000Y-42010000D03*
X101250000Y-57250000D03*
D11*
X119210000Y-97000000D03*
D12*
X124290000Y-97000000D03*
D18*
X126170000Y-20000000D03*
D19*
X128710000Y-20000000D03*
X131250000Y-20000000D03*
D15*
X115420000Y-36250000D03*
D16*
X117960000Y-36250000D03*
X120500000Y-36250000D03*
D15*
X110500000Y-40750000D03*
D16*
X110500000Y-43290000D03*
D28*
X106000000Y-81250000D03*
X106000000Y-86130001D03*
D29*
X81295000Y-30750000D03*
D30*
X81295000Y-27250000D03*
X81295000Y-23750000D03*
X81295000Y-20250000D03*
D15*
X122000000Y-71750000D03*
D16*
X119460000Y-71750000D03*
D15*
X124675000Y-62250000D03*
D16*
X127215000Y-62250000D03*
X129755000Y-62250000D03*
X132295000Y-62250000D03*
X134835000Y-62250000D03*
D15*
X112250000Y-75000000D03*
D16*
X109710000Y-75000000D03*
D11*
X76000000Y-61632323D03*
D31*
X76000000Y-66632323D03*
D20*
X131025000Y-51475000D03*
X138645000Y-54015000D03*
X143725000Y-51475000D03*
D15*
X95750000Y-64170000D03*
D16*
X95750000Y-66710000D03*
X95750000Y-69250000D03*
D21*
X113500000Y-25500000D03*
D22*
X111500000Y-25500000D03*
D15*
X85330000Y-90000000D03*
D16*
X82790000Y-90000000D03*
X80250000Y-90000000D03*
X77710000Y-90000000D03*
X75170000Y-90000000D03*
X72630000Y-90000000D03*
X70090000Y-90000000D03*
D10*
X67460000Y-52000000D03*
X70000000Y-52000000D03*
D11*
X124750000Y-36500000D03*
D12*
X124750000Y-31420000D03*
D29*
X95295000Y-30750000D03*
D30*
X95295000Y-27250000D03*
X95295000Y-23750000D03*
X95295000Y-20250000D03*
D21*
X132500000Y-25750000D03*
D22*
X130500000Y-25750000D03*
D32*
X121500000Y-83500000D03*
X121500000Y-81950000D03*
D33*
X113025000Y-80500000D03*
X111475000Y-80500000D03*
D34*
X110000000Y-87475000D03*
X110000000Y-89025000D03*
D35*
X118475000Y-92000000D03*
X120025000Y-92000000D03*
X111975000Y-92000000D03*
X113525000Y-92000000D03*
M02*
