M48
; DRILL file {KiCad 7.0.8-7.0.8~ubuntu22.04.1} date Fri 26 Jan 2024 16:09:17 CET
; FORMAT={-:-/ absolute / metric / decimal}
; #@! TF.CreationDate,2024-01-26T16:09:17+01:00
; #@! TF.GenerationSoftware,Kicad,Pcbnew,7.0.8-7.0.8~ubuntu22.04.1
; #@! TF.FileFunction,Plated,1,4,PTH
FMAT,2
METRIC
; #@! TA.AperFunction,Plated,PTH,ViaDrill
T1C0.400
; #@! TA.AperFunction,Plated,PTH,ComponentDrill
T2C0.457
; #@! TA.AperFunction,Plated,PTH,ViaDrill
T3C0.500
; #@! TA.AperFunction,Plated,PTH,ComponentDrill
T4C0.600
; #@! TA.AperFunction,Plated,PTH,ComponentDrill
T5C0.750
; #@! TA.AperFunction,Plated,PTH,ComponentDrill
T6C0.762
; #@! TA.AperFunction,Plated,PTH,ComponentDrill
T7C0.800
; #@! TA.AperFunction,Plated,PTH,ComponentDrill
T8C0.850
; #@! TA.AperFunction,Plated,PTH,ComponentDrill
T9C1.000
; #@! TA.AperFunction,Plated,PTH,ComponentDrill
T10C1.016
; #@! TA.AperFunction,Plated,PTH,ComponentDrill
T11C1.092
; #@! TA.AperFunction,Plated,PTH,ComponentDrill
T12C1.100
; #@! TA.AperFunction,Plated,PTH,ComponentDrill
T13C1.200
; #@! TA.AperFunction,Plated,PTH,ComponentDrill
T14C1.300
%
G90
G05
T1
X34.6Y-92.2
X34.6Y-97.2
X39.6Y-92.2
X39.6Y-97.2
X39.8Y-81.2
X41.6Y-81.2
X42.4Y-82.9
X43.3Y-79.3
X44.3Y-54.9
X44.3Y-60.6
X46.3Y-82.4
X47.3Y-52.1
X47.3Y-57.1
X51.0Y-80.6
X51.2Y-82.4
X52.3Y-52.1
X52.3Y-57.1
X58.5Y-85.7
X58.5Y-90.7
X63.5Y-85.7
X63.5Y-90.7
X65.4Y-62.0
X65.4Y-67.0
X66.6Y-71.6
X66.6Y-78.7
X67.7Y-28.7
X67.7Y-33.7
X70.4Y-62.0
X70.4Y-67.0
X71.4Y-90.9
X72.7Y-28.7
X72.7Y-33.7
X74.4Y-94.4
X77.5Y-76.2
X77.5Y-82.4
X79.7Y-61.0
X83.4Y-28.7
X83.4Y-33.7
X83.6Y-91.3
X85.8Y-94.5
X88.4Y-28.7
X88.4Y-33.7
X89.7Y-94.1
X91.1Y-94.1
X91.2Y-60.7
X92.4Y-84.6
X93.3Y-81.9
X98.4Y-90.9
X98.5Y-89.9
X98.6Y-83.6
X98.8Y-84.7
X100.227Y-95.923
X100.3Y-82.8
X101.24Y-82.8
X103.1Y-99.0
X103.825Y-96.932
X105.8Y-90.7
X106.715Y-91.2
X107.0Y-84.1
X107.021Y-83.081
X111.1Y-86.414
X111.205Y-87.348
X112.0Y-38.5
X112.7Y-89.085
X114.3Y-88.135
X115.6Y-64.1
X115.6Y-69.1
X120.6Y-64.1
X120.6Y-69.1
X121.7Y-90.8
X121.7Y-95.8
X125.6Y-64.1
X125.6Y-69.1
X125.6Y-81.1
X125.6Y-86.1
X126.7Y-90.8
X126.7Y-95.8
X129.0Y-55.2
X129.0Y-60.2
X130.6Y-64.1
X130.6Y-69.1
X130.6Y-81.1
X130.6Y-86.1
X131.6Y-76.5
X132.1Y-90.8
X132.1Y-95.8
X132.2Y-74.9
X133.3Y-77.7
X134.0Y-55.2
X134.0Y-60.2
X135.6Y-64.1
X135.6Y-69.1
X137.1Y-90.8
X137.1Y-95.8
X139.5Y-39.0
X140.6Y-64.1
X140.6Y-69.1
X146.2Y-75.3
X146.2Y-80.3
X151.2Y-75.3
X151.2Y-80.3
T2
X102.42Y-77.7
X107.3Y-77.7
T3
X79.3Y-54.9
X80.5Y-54.6
X90.5Y-54.9
X91.7Y-54.6
T5
X95.73Y-56.73
X97.0Y-55.46
X97.0Y-58.0
T6
X62.38Y-28.69
X62.38Y-35.04
X77.62Y-27.42
X77.62Y-35.04
T7
X105.5Y-30.0
X105.5Y-46.0
X107.5Y-30.0
X107.5Y-46.0
X133.0Y-46.0
X133.045Y-30.0
X135.0Y-46.0
X135.045Y-30.0
T8
X37.3Y-80.2
X37.3Y-85.2
T9
X59.78Y-95.06
X59.78Y-97.6
X62.32Y-95.06
X62.32Y-97.6
X64.86Y-95.06
X64.86Y-97.6
X67.4Y-95.06
X67.4Y-97.6
X69.94Y-95.06
X69.94Y-97.6
X74.28Y-70.4
X76.82Y-70.4
X79.36Y-70.4
X81.9Y-70.4
X84.44Y-70.4
X86.98Y-70.4
X87.2Y-85.56
X87.2Y-90.64
X89.52Y-70.4
X93.3Y-63.3
X93.96Y-48.5
X95.84Y-63.3
X98.38Y-63.3
X99.04Y-48.5
X104.46Y-35.0
X109.54Y-35.0
X112.5Y-50.0
X112.5Y-52.54
X118.625Y-85.3
X119.0Y-58.5
X121.165Y-85.3
X121.54Y-58.5
X122.46Y-48.5
X124.08Y-58.5
X127.54Y-48.5
X131.5Y-35.0
X136.58Y-35.0
X140.5Y-50.0
X140.5Y-52.54
X150.175Y-68.325
X150.3Y-58.4
X157.795Y-70.865
X157.92Y-60.94
X162.875Y-68.325
X163.0Y-58.4
X166.2Y-75.06
X166.2Y-77.6
X166.2Y-82.2
X166.2Y-84.74
X166.2Y-87.28
X166.2Y-89.82
X166.2Y-92.36
T10
X35.66Y-48.54
X35.66Y-51.08
X35.66Y-53.62
X35.66Y-56.16
X35.66Y-58.7
X35.66Y-61.24
X35.66Y-63.78
X35.66Y-66.32
X35.66Y-68.86
X35.66Y-71.4
X38.2Y-48.54
X38.2Y-51.08
X38.2Y-53.62
X38.2Y-56.16
X38.2Y-58.7
X38.2Y-61.24
X38.2Y-63.78
X38.2Y-66.32
X38.2Y-68.86
X38.2Y-71.4
T11
X43.0Y-36.46
X43.0Y-39.0
T12
X94.96Y-25.77
X97.5Y-25.77
X100.04Y-25.77
X121.96Y-25.77
X124.5Y-25.77
X127.04Y-25.77
T13
X55.0Y-45.0
X55.0Y-64.9
X62.5Y-45.0
X62.5Y-64.9
T14
X162.4Y-41.0
X162.4Y-44.5
X162.4Y-48.0
X162.4Y-51.5
T4
X34.25Y-79.2G85X34.95Y-79.2
G05
X34.95Y-86.2G85X34.25Y-86.2
G05
T0
M30
