G04 #@! TF.GenerationSoftware,KiCad,Pcbnew,7.0.8-7.0.8~ubuntu22.04.1*
G04 #@! TF.CreationDate,2024-01-26T16:09:11+01:00*
G04 #@! TF.ProjectId,torso,746f7273-6f2e-46b6-9963-61645f706362,1.1*
G04 #@! TF.SameCoordinates,Original*
G04 #@! TF.FileFunction,Soldermask,Top*
G04 #@! TF.FilePolarity,Negative*
%FSLAX46Y46*%
G04 Gerber Fmt 4.6, Leading zero omitted, Abs format (unit mm)*
G04 Created by KiCad (PCBNEW 7.0.8-7.0.8~ubuntu22.04.1) date 2024-01-26 16:09:11*
%MOMM*%
%LPD*%
G01*
G04 APERTURE LIST*
G04 Aperture macros list*
%AMRoundRect*
0 Rectangle with rounded corners*
0 $1 Rounding radius*
0 $2 $3 $4 $5 $6 $7 $8 $9 X,Y pos of 4 corners*
0 Add a 4 corners polygon primitive as box body*
4,1,4,$2,$3,$4,$5,$6,$7,$8,$9,$2,$3,0*
0 Add four circle primitives for the rounded corners*
1,1,$1+$1,$2,$3*
1,1,$1+$1,$4,$5*
1,1,$1+$1,$6,$7*
1,1,$1+$1,$8,$9*
0 Add four rect primitives between the rounded corners*
20,1,$1+$1,$2,$3,$4,$5,0*
20,1,$1+$1,$4,$5,$6,$7,0*
20,1,$1+$1,$6,$7,$8,$9,0*
20,1,$1+$1,$8,$9,$2,$3,0*%
G04 Aperture macros list end*
%ADD10RoundRect,0.225000X0.250000X-0.225000X0.250000X0.225000X-0.250000X0.225000X-0.250000X-0.225000X0*%
%ADD11C,5.300000*%
%ADD12R,1.700000X1.700000*%
%ADD13O,1.700000X1.700000*%
%ADD14RoundRect,0.250000X-0.262500X-0.450000X0.262500X-0.450000X0.262500X0.450000X-0.262500X0.450000X0*%
%ADD15RoundRect,0.135000X0.135000X0.185000X-0.135000X0.185000X-0.135000X-0.185000X0.135000X-0.185000X0*%
%ADD16R,1.454899X0.532600*%
%ADD17R,2.400000X2.400000*%
%ADD18C,2.400000*%
%ADD19RoundRect,0.135000X-0.135000X-0.185000X0.135000X-0.185000X0.135000X0.185000X-0.135000X0.185000X0*%
%ADD20RoundRect,0.237500X0.250000X0.237500X-0.250000X0.237500X-0.250000X-0.237500X0.250000X-0.237500X0*%
%ADD21R,2.000000X2.000000*%
%ADD22O,2.000000X2.000000*%
%ADD23R,1.600000X1.600000*%
%ADD24C,1.600000*%
%ADD25C,1.524000*%
%ADD26RoundRect,0.200000X0.275000X-0.200000X0.275000X0.200000X-0.275000X0.200000X-0.275000X-0.200000X0*%
%ADD27RoundRect,0.250000X0.450000X-0.262500X0.450000X0.262500X-0.450000X0.262500X-0.450000X-0.262500X0*%
%ADD28RoundRect,0.135000X-0.185000X0.135000X-0.185000X-0.135000X0.185000X-0.135000X0.185000X0.135000X0*%
%ADD29RoundRect,0.218750X-0.256250X0.218750X-0.256250X-0.218750X0.256250X-0.218750X0.256250X0.218750X0*%
%ADD30O,3.500000X3.500000*%
%ADD31R,1.905000X2.000000*%
%ADD32O,1.905000X2.000000*%
%ADD33C,1.800000*%
%ADD34R,2.800000X1.000000*%
%ADD35R,1.300000X1.300000*%
%ADD36C,1.300000*%
%ADD37C,3.500000*%
%ADD38R,0.685800X0.330200*%
%ADD39R,0.558800X1.460500*%
%ADD40R,3.403600X2.717800*%
%ADD41RoundRect,0.218750X-0.218750X-0.256250X0.218750X-0.256250X0.218750X0.256250X-0.218750X0.256250X0*%
%ADD42R,1.350000X0.400000*%
%ADD43O,1.900000X1.200000*%
%ADD44R,1.900000X1.200000*%
%ADD45C,1.450000*%
%ADD46R,1.900000X1.500000*%
%ADD47RoundRect,0.075000X-0.075000X0.700000X-0.075000X-0.700000X0.075000X-0.700000X0.075000X0.700000X0*%
%ADD48RoundRect,0.075000X-0.700000X0.075000X-0.700000X-0.075000X0.700000X-0.075000X0.700000X0.075000X0*%
%ADD49RoundRect,0.225000X-0.225000X-0.250000X0.225000X-0.250000X0.225000X0.250000X-0.225000X0.250000X0*%
%ADD50RoundRect,0.225000X0.225000X0.250000X-0.225000X0.250000X-0.225000X-0.250000X0.225000X-0.250000X0*%
%ADD51RoundRect,0.250000X0.262500X0.450000X-0.262500X0.450000X-0.262500X-0.450000X0.262500X-0.450000X0*%
%ADD52C,0.965200*%
%ADD53RoundRect,0.135000X0.185000X-0.135000X0.185000X0.135000X-0.185000X0.135000X-0.185000X-0.135000X0*%
%ADD54R,2.600000X2.600000*%
%ADD55C,2.600000*%
%ADD56C,1.600200*%
G04 APERTURE END LIST*
D10*
X107300000Y-74475000D03*
X107300000Y-72925000D03*
X102400000Y-74475000D03*
X102400000Y-72925000D03*
D11*
X48500000Y-90500000D03*
D10*
X127600000Y-76975000D03*
X127600000Y-75425000D03*
D12*
X118625000Y-85300000D03*
D13*
X121165000Y-85300000D03*
D14*
X133500000Y-39000000D03*
X135325000Y-39000000D03*
D15*
X115310000Y-92000000D03*
X114290000Y-92000000D03*
D10*
X91824000Y-89723500D03*
X91824000Y-88173500D03*
D15*
X115310000Y-89700000D03*
X114290000Y-89700000D03*
D16*
X129557304Y-74290000D03*
X129557304Y-75560000D03*
X129557304Y-76830000D03*
X129557304Y-78100000D03*
X135000000Y-78100000D03*
X135000000Y-76830000D03*
X135000000Y-75560000D03*
X135000000Y-74290000D03*
D14*
X141587500Y-41500000D03*
X143412500Y-41500000D03*
D17*
X62500000Y-64900000D03*
D18*
X55000000Y-64900000D03*
D19*
X100990000Y-96600000D03*
X102010000Y-96600000D03*
D20*
X50112500Y-79300000D03*
X48287500Y-79300000D03*
D21*
X104460000Y-35000000D03*
D22*
X109540000Y-35000000D03*
D23*
X133000000Y-46000000D03*
D24*
X135000000Y-46000000D03*
D12*
X166200000Y-77600000D03*
D13*
X166200000Y-75060000D03*
D25*
X77620000Y-35040000D03*
X62380000Y-35040000D03*
X62380000Y-28690000D03*
X77620000Y-27420000D03*
D26*
X137500000Y-77225000D03*
X137500000Y-75575000D03*
D11*
X151500000Y-31500000D03*
D27*
X83500000Y-60500000D03*
X83500000Y-58675000D03*
D12*
X166200000Y-82200000D03*
D13*
X166200000Y-84740000D03*
X166200000Y-87280000D03*
X166200000Y-89820000D03*
X166200000Y-92360000D03*
D28*
X109000000Y-73290000D03*
X109000000Y-74310000D03*
D29*
X89923999Y-83961000D03*
X89923999Y-85536000D03*
D23*
X133044888Y-30000000D03*
D24*
X135044888Y-30000000D03*
D21*
X93960000Y-48500000D03*
D22*
X99040000Y-48500000D03*
D30*
X97500000Y-42430000D03*
D31*
X100040000Y-25770000D03*
D32*
X97500000Y-25770000D03*
X94960000Y-25770000D03*
D21*
X87200000Y-90640000D03*
D22*
X87200000Y-85560000D03*
D15*
X113410000Y-85800000D03*
X112390000Y-85800000D03*
D33*
X150175000Y-68324999D03*
X157795000Y-70864999D03*
X162875000Y-68324999D03*
D12*
X124079999Y-58500000D03*
D13*
X121539999Y-58500000D03*
X118999999Y-58500000D03*
D30*
X124500000Y-42430000D03*
D31*
X127040000Y-25770000D03*
D32*
X124500000Y-25770000D03*
X121960000Y-25770000D03*
D34*
X110900000Y-64500000D03*
X110900000Y-60500000D03*
X105100000Y-64500000D03*
X105100000Y-60500000D03*
D35*
X97000000Y-58000000D03*
D36*
X95730000Y-56730000D03*
X97000000Y-55460000D03*
D37*
X114000000Y-28500000D03*
D19*
X96080000Y-94200000D03*
X97100000Y-94200000D03*
D38*
X47488800Y-81900001D03*
X47488800Y-82400000D03*
X47488800Y-82899999D03*
X48911200Y-82899999D03*
X48911200Y-82400000D03*
X48911200Y-81900001D03*
D12*
X93300000Y-63300000D03*
D13*
X95840000Y-63300000D03*
X98380000Y-63300000D03*
D19*
X100990000Y-95500000D03*
X102010000Y-95500000D03*
D39*
X85690000Y-60500000D03*
X86960000Y-60500000D03*
X88230000Y-60500000D03*
X89500000Y-60500000D03*
X89500000Y-55051700D03*
X88230000Y-55051700D03*
X86960000Y-55051700D03*
X85690000Y-55051700D03*
D40*
X87595000Y-57775850D03*
D10*
X102400000Y-63400000D03*
X102400000Y-61850000D03*
D17*
X62500000Y-45000000D03*
D18*
X55000000Y-45000000D03*
D10*
X91700000Y-57275000D03*
X91700000Y-55725000D03*
D41*
X112887500Y-45087500D03*
X114462500Y-45087500D03*
D42*
X37300000Y-81400000D03*
X37300000Y-82050000D03*
X37300000Y-82700000D03*
X37300000Y-83350000D03*
X37300000Y-84000000D03*
D43*
X34600000Y-79200000D03*
D44*
X34600000Y-79800000D03*
D45*
X37300000Y-80200000D03*
D46*
X34600000Y-81700000D03*
X34600000Y-83700000D03*
D45*
X37300000Y-85200000D03*
D44*
X34600000Y-85600000D03*
D43*
X34600000Y-86200000D03*
D25*
X35660000Y-48540000D03*
X35660000Y-51080000D03*
X35660000Y-53620000D03*
X35660000Y-56160000D03*
X35660000Y-58700000D03*
X35660000Y-61240000D03*
X35660000Y-63780000D03*
X35660000Y-66320000D03*
X35660000Y-68860000D03*
X35660000Y-71400000D03*
X38200000Y-48540000D03*
X38200000Y-51080000D03*
X38200000Y-53620000D03*
X38200000Y-56160000D03*
X38200000Y-58700000D03*
X38200000Y-61240000D03*
X38200000Y-63780000D03*
X38200000Y-66320000D03*
X38200000Y-68860000D03*
X38200000Y-71400000D03*
D47*
X106550000Y-81325000D03*
X106050000Y-81325000D03*
X105550000Y-81325000D03*
X105050000Y-81325000D03*
X104550000Y-81325000D03*
X104050000Y-81325000D03*
X103550000Y-81325000D03*
X103050000Y-81325000D03*
X102550000Y-81325000D03*
X102050000Y-81325000D03*
X101550000Y-81325000D03*
X101050000Y-81325000D03*
X100550000Y-81325000D03*
X100050000Y-81325000D03*
X99550000Y-81325000D03*
X99050000Y-81325000D03*
D48*
X97125000Y-83250000D03*
X97125000Y-83750000D03*
X97125000Y-84250000D03*
X97125000Y-84750000D03*
X97125000Y-85250000D03*
X97125000Y-85750000D03*
X97125000Y-86250000D03*
X97125000Y-86750000D03*
X97125000Y-87250000D03*
X97125000Y-87750000D03*
X97125000Y-88250000D03*
X97125000Y-88750000D03*
X97125000Y-89250000D03*
X97125000Y-89750000D03*
X97125000Y-90250000D03*
X97125000Y-90750000D03*
D47*
X99050000Y-92675000D03*
X99550000Y-92675000D03*
X100050000Y-92675000D03*
X100550000Y-92675000D03*
X101050000Y-92675000D03*
X101550000Y-92675000D03*
X102050000Y-92675000D03*
X102550000Y-92675000D03*
X103050000Y-92675000D03*
X103550000Y-92675000D03*
X104050000Y-92675000D03*
X104550000Y-92675000D03*
X105050000Y-92675000D03*
X105550000Y-92675000D03*
X106050000Y-92675000D03*
X106550000Y-92675000D03*
D48*
X108475000Y-90750000D03*
X108475000Y-90250000D03*
X108475000Y-89750000D03*
X108475000Y-89250000D03*
X108475000Y-88750000D03*
X108475000Y-88250000D03*
X108475000Y-87750000D03*
X108475000Y-87250000D03*
X108475000Y-86750000D03*
X108475000Y-86250000D03*
X108475000Y-85750000D03*
X108475000Y-85250000D03*
X108475000Y-84750000D03*
X108475000Y-84250000D03*
X108475000Y-83750000D03*
X108475000Y-83250000D03*
D33*
X150300000Y-58400000D03*
X157920000Y-60940000D03*
X163000000Y-58400000D03*
D14*
X112675000Y-42000000D03*
X114500000Y-42000000D03*
D20*
X105912500Y-99000000D03*
X104087500Y-99000000D03*
D21*
X122460000Y-48500000D03*
D22*
X127540000Y-48500000D03*
D49*
X106225000Y-42000000D03*
X107775000Y-42000000D03*
D12*
X112500000Y-50000000D03*
D13*
X112500000Y-52540000D03*
D23*
X105500000Y-30000000D03*
D24*
X107500000Y-30000000D03*
D12*
X140500000Y-50000000D03*
D13*
X140500000Y-52540000D03*
D27*
X72310000Y-60475850D03*
X72310000Y-58650850D03*
D19*
X94490000Y-81900000D03*
X95510000Y-81900000D03*
D39*
X74500000Y-60500000D03*
X75770000Y-60500000D03*
X77040000Y-60500000D03*
X78310000Y-60500000D03*
X78310000Y-55051700D03*
X77040000Y-55051700D03*
X75770000Y-55051700D03*
X74500000Y-55051700D03*
D40*
X76405000Y-57775850D03*
D14*
X106087500Y-38500000D03*
X107912500Y-38500000D03*
D50*
X135075000Y-80000000D03*
X133525000Y-80000000D03*
D37*
X45500000Y-28500000D03*
D10*
X93424001Y-89723500D03*
X93424001Y-88173500D03*
D15*
X113419999Y-87200000D03*
X112399999Y-87200000D03*
D51*
X120412500Y-81400000D03*
X118587500Y-81400000D03*
D10*
X80500000Y-57275000D03*
X80500000Y-55725000D03*
D27*
X104700000Y-74612500D03*
X104700000Y-72787500D03*
D52*
X107300000Y-77700000D03*
X102419999Y-77700000D03*
D49*
X133725000Y-42000000D03*
X135275000Y-42000000D03*
D53*
X99300000Y-96510000D03*
X99300000Y-95490000D03*
D12*
X89520000Y-70400000D03*
D13*
X86980000Y-70400000D03*
X84440000Y-70400000D03*
X81900000Y-70400000D03*
X79360000Y-70400000D03*
X76820000Y-70400000D03*
X74280000Y-70400000D03*
D54*
X162400000Y-41000000D03*
D55*
X162400000Y-44500000D03*
X162400000Y-48000000D03*
X162400000Y-51500000D03*
D21*
X131500000Y-35000000D03*
D22*
X136580000Y-35000000D03*
D53*
X93400000Y-92419999D03*
X93400000Y-91399999D03*
D56*
X43000000Y-39000000D03*
X43000000Y-36460000D03*
D12*
X69940000Y-95060000D03*
D13*
X69940000Y-97600000D03*
X67400000Y-95060000D03*
X67400000Y-97600000D03*
X64860000Y-95060000D03*
X64860000Y-97600000D03*
X62320000Y-95060000D03*
X62320000Y-97600000D03*
X59780000Y-95060000D03*
X59780000Y-97600000D03*
D23*
X105500000Y-46000000D03*
D24*
X107500000Y-46000000D03*
D11*
X151500000Y-90500000D03*
D20*
X46612500Y-79300000D03*
X44787500Y-79300000D03*
D41*
X141712500Y-44500000D03*
X143287500Y-44500000D03*
M02*
