G04 #@! TF.GenerationSoftware,KiCad,Pcbnew,7.0.8-7.0.8~ubuntu22.04.1*
G04 #@! TF.CreationDate,2024-01-26T16:09:11+01:00*
G04 #@! TF.ProjectId,torso,746f7273-6f2e-46b6-9963-61645f706362,1.1*
G04 #@! TF.SameCoordinates,Original*
G04 #@! TF.FileFunction,Paste,Top*
G04 #@! TF.FilePolarity,Positive*
%FSLAX46Y46*%
G04 Gerber Fmt 4.6, Leading zero omitted, Abs format (unit mm)*
G04 Created by KiCad (PCBNEW 7.0.8-7.0.8~ubuntu22.04.1) date 2024-01-26 16:09:11*
%MOMM*%
%LPD*%
G01*
G04 APERTURE LIST*
G04 Aperture macros list*
%AMRoundRect*
0 Rectangle with rounded corners*
0 $1 Rounding radius*
0 $2 $3 $4 $5 $6 $7 $8 $9 X,Y pos of 4 corners*
0 Add a 4 corners polygon primitive as box body*
4,1,4,$2,$3,$4,$5,$6,$7,$8,$9,$2,$3,0*
0 Add four circle primitives for the rounded corners*
1,1,$1+$1,$2,$3*
1,1,$1+$1,$4,$5*
1,1,$1+$1,$6,$7*
1,1,$1+$1,$8,$9*
0 Add four rect primitives between the rounded corners*
20,1,$1+$1,$2,$3,$4,$5,0*
20,1,$1+$1,$4,$5,$6,$7,0*
20,1,$1+$1,$6,$7,$8,$9,0*
20,1,$1+$1,$8,$9,$2,$3,0*%
G04 Aperture macros list end*
%ADD10RoundRect,0.225000X0.250000X-0.225000X0.250000X0.225000X-0.250000X0.225000X-0.250000X-0.225000X0*%
%ADD11RoundRect,0.250000X-0.262500X-0.450000X0.262500X-0.450000X0.262500X0.450000X-0.262500X0.450000X0*%
%ADD12RoundRect,0.135000X0.135000X0.185000X-0.135000X0.185000X-0.135000X-0.185000X0.135000X-0.185000X0*%
%ADD13R,1.454899X0.532600*%
%ADD14RoundRect,0.135000X-0.135000X-0.185000X0.135000X-0.185000X0.135000X0.185000X-0.135000X0.185000X0*%
%ADD15RoundRect,0.237500X0.250000X0.237500X-0.250000X0.237500X-0.250000X-0.237500X0.250000X-0.237500X0*%
%ADD16RoundRect,0.200000X0.275000X-0.200000X0.275000X0.200000X-0.275000X0.200000X-0.275000X-0.200000X0*%
%ADD17RoundRect,0.250000X0.450000X-0.262500X0.450000X0.262500X-0.450000X0.262500X-0.450000X-0.262500X0*%
%ADD18RoundRect,0.135000X-0.185000X0.135000X-0.185000X-0.135000X0.185000X-0.135000X0.185000X0.135000X0*%
%ADD19RoundRect,0.218750X-0.256250X0.218750X-0.256250X-0.218750X0.256250X-0.218750X0.256250X0.218750X0*%
%ADD20R,2.800000X1.000000*%
%ADD21R,0.685800X0.330200*%
%ADD22R,0.558800X1.460500*%
%ADD23RoundRect,0.218750X-0.218750X-0.256250X0.218750X-0.256250X0.218750X0.256250X-0.218750X0.256250X0*%
%ADD24R,1.350000X0.400000*%
%ADD25R,1.900000X1.500000*%
%ADD26RoundRect,0.075000X-0.075000X0.700000X-0.075000X-0.700000X0.075000X-0.700000X0.075000X0.700000X0*%
%ADD27RoundRect,0.075000X-0.700000X0.075000X-0.700000X-0.075000X0.700000X-0.075000X0.700000X0.075000X0*%
%ADD28RoundRect,0.225000X-0.225000X-0.250000X0.225000X-0.250000X0.225000X0.250000X-0.225000X0.250000X0*%
%ADD29RoundRect,0.225000X0.225000X0.250000X-0.225000X0.250000X-0.225000X-0.250000X0.225000X-0.250000X0*%
%ADD30RoundRect,0.250000X0.262500X0.450000X-0.262500X0.450000X-0.262500X-0.450000X0.262500X-0.450000X0*%
%ADD31RoundRect,0.135000X0.185000X-0.135000X0.185000X0.135000X-0.185000X0.135000X-0.185000X-0.135000X0*%
G04 APERTURE END LIST*
G36*
X87495000Y-59034750D02*
G01*
X85993200Y-59034750D01*
X85993200Y-57875850D01*
X87495000Y-57875850D01*
X87495000Y-59034750D01*
G37*
G36*
X89196800Y-59034750D02*
G01*
X87695000Y-59034750D01*
X87695000Y-57875850D01*
X89196800Y-57875850D01*
X89196800Y-59034750D01*
G37*
G36*
X87495000Y-57675850D02*
G01*
X85993200Y-57675850D01*
X85993200Y-56516950D01*
X87495000Y-56516950D01*
X87495000Y-57675850D01*
G37*
G36*
X89196800Y-57675850D02*
G01*
X87695000Y-57675850D01*
X87695000Y-56516950D01*
X89196800Y-56516950D01*
X89196800Y-57675850D01*
G37*
G36*
X76305000Y-59034750D02*
G01*
X74803200Y-59034750D01*
X74803200Y-57875850D01*
X76305000Y-57875850D01*
X76305000Y-59034750D01*
G37*
G36*
X78006800Y-59034750D02*
G01*
X76505000Y-59034750D01*
X76505000Y-57875850D01*
X78006800Y-57875850D01*
X78006800Y-59034750D01*
G37*
G36*
X76305000Y-57675850D02*
G01*
X74803200Y-57675850D01*
X74803200Y-56516950D01*
X76305000Y-56516950D01*
X76305000Y-57675850D01*
G37*
G36*
X78006800Y-57675850D02*
G01*
X76505000Y-57675850D01*
X76505000Y-56516950D01*
X78006800Y-56516950D01*
X78006800Y-57675850D01*
G37*
D10*
X107300000Y-74475000D03*
X107300000Y-72925000D03*
X102400000Y-74475000D03*
X102400000Y-72925000D03*
X127600000Y-76975000D03*
X127600000Y-75425000D03*
D11*
X133500000Y-39000000D03*
X135325000Y-39000000D03*
D12*
X115310000Y-92000000D03*
X114290000Y-92000000D03*
D10*
X91824000Y-89723500D03*
X91824000Y-88173500D03*
D12*
X115310000Y-89700000D03*
X114290000Y-89700000D03*
D13*
X129557304Y-74290000D03*
X129557304Y-75560000D03*
X129557304Y-76830000D03*
X129557304Y-78100000D03*
X135000000Y-78100000D03*
X135000000Y-76830000D03*
X135000000Y-75560000D03*
X135000000Y-74290000D03*
D11*
X141587500Y-41500000D03*
X143412500Y-41500000D03*
D14*
X100990000Y-96600000D03*
X102010000Y-96600000D03*
D15*
X50112500Y-79300000D03*
X48287500Y-79300000D03*
D16*
X137500000Y-77225000D03*
X137500000Y-75575000D03*
D17*
X83500000Y-60500000D03*
X83500000Y-58675000D03*
D18*
X109000000Y-73290000D03*
X109000000Y-74310000D03*
D19*
X89923999Y-83961000D03*
X89923999Y-85536000D03*
D12*
X113410000Y-85800000D03*
X112390000Y-85800000D03*
D20*
X110900000Y-64500000D03*
X110900000Y-60500000D03*
X105100000Y-64500000D03*
X105100000Y-60500000D03*
D14*
X96080000Y-94200000D03*
X97100000Y-94200000D03*
D21*
X47488800Y-81900001D03*
X47488800Y-82400000D03*
X47488800Y-82899999D03*
X48911200Y-82899999D03*
X48911200Y-82400000D03*
X48911200Y-81900001D03*
D14*
X100990000Y-95500000D03*
X102010000Y-95500000D03*
D22*
X85690000Y-60500000D03*
X86960000Y-60500000D03*
X88230000Y-60500000D03*
X89500000Y-60500000D03*
X89500000Y-55051700D03*
X88230000Y-55051700D03*
X86960000Y-55051700D03*
X85690000Y-55051700D03*
D10*
X102400000Y-63400000D03*
X102400000Y-61850000D03*
X91700000Y-57275000D03*
X91700000Y-55725000D03*
D23*
X112887500Y-45087500D03*
X114462500Y-45087500D03*
D24*
X37300000Y-81400000D03*
X37300000Y-82050000D03*
X37300000Y-82700000D03*
X37300000Y-83350000D03*
X37300000Y-84000000D03*
D25*
X34600000Y-81700000D03*
X34600000Y-83700000D03*
D26*
X106550000Y-81325000D03*
X106050000Y-81325000D03*
X105550000Y-81325000D03*
X105050000Y-81325000D03*
X104550000Y-81325000D03*
X104050000Y-81325000D03*
X103550000Y-81325000D03*
X103050000Y-81325000D03*
X102550000Y-81325000D03*
X102050000Y-81325000D03*
X101550000Y-81325000D03*
X101050000Y-81325000D03*
X100550000Y-81325000D03*
X100050000Y-81325000D03*
X99550000Y-81325000D03*
X99050000Y-81325000D03*
D27*
X97125000Y-83250000D03*
X97125000Y-83750000D03*
X97125000Y-84250000D03*
X97125000Y-84750000D03*
X97125000Y-85250000D03*
X97125000Y-85750000D03*
X97125000Y-86250000D03*
X97125000Y-86750000D03*
X97125000Y-87250000D03*
X97125000Y-87750000D03*
X97125000Y-88250000D03*
X97125000Y-88750000D03*
X97125000Y-89250000D03*
X97125000Y-89750000D03*
X97125000Y-90250000D03*
X97125000Y-90750000D03*
D26*
X99050000Y-92675000D03*
X99550000Y-92675000D03*
X100050000Y-92675000D03*
X100550000Y-92675000D03*
X101050000Y-92675000D03*
X101550000Y-92675000D03*
X102050000Y-92675000D03*
X102550000Y-92675000D03*
X103050000Y-92675000D03*
X103550000Y-92675000D03*
X104050000Y-92675000D03*
X104550000Y-92675000D03*
X105050000Y-92675000D03*
X105550000Y-92675000D03*
X106050000Y-92675000D03*
X106550000Y-92675000D03*
D27*
X108475000Y-90750000D03*
X108475000Y-90250000D03*
X108475000Y-89750000D03*
X108475000Y-89250000D03*
X108475000Y-88750000D03*
X108475000Y-88250000D03*
X108475000Y-87750000D03*
X108475000Y-87250000D03*
X108475000Y-86750000D03*
X108475000Y-86250000D03*
X108475000Y-85750000D03*
X108475000Y-85250000D03*
X108475000Y-84750000D03*
X108475000Y-84250000D03*
X108475000Y-83750000D03*
X108475000Y-83250000D03*
D11*
X112675000Y-42000000D03*
X114500000Y-42000000D03*
D15*
X105912500Y-99000000D03*
X104087500Y-99000000D03*
D28*
X106225000Y-42000000D03*
X107775000Y-42000000D03*
D17*
X72310000Y-60475850D03*
X72310000Y-58650850D03*
D14*
X94490000Y-81900000D03*
X95510000Y-81900000D03*
D22*
X74500000Y-60500000D03*
X75770000Y-60500000D03*
X77040000Y-60500000D03*
X78310000Y-60500000D03*
X78310000Y-55051700D03*
X77040000Y-55051700D03*
X75770000Y-55051700D03*
X74500000Y-55051700D03*
D11*
X106087500Y-38500000D03*
X107912500Y-38500000D03*
D29*
X135075000Y-80000000D03*
X133525000Y-80000000D03*
D10*
X93424001Y-89723500D03*
X93424001Y-88173500D03*
D12*
X113419999Y-87200000D03*
X112399999Y-87200000D03*
D30*
X120412500Y-81400000D03*
X118587500Y-81400000D03*
D10*
X80500000Y-57275000D03*
X80500000Y-55725000D03*
D17*
X104700000Y-74612500D03*
X104700000Y-72787500D03*
D28*
X133725000Y-42000000D03*
X135275000Y-42000000D03*
D31*
X99300000Y-96510000D03*
X99300000Y-95490000D03*
X93400000Y-92419999D03*
X93400000Y-91399999D03*
D15*
X46612500Y-79300000D03*
X44787500Y-79300000D03*
D23*
X141712500Y-44500000D03*
X143287500Y-44500000D03*
M02*
