<svg width="4288" height="1672" xmlns="http://www.w3.org/2000/svg" xmlns:xlink="http://www.w3.org/1999/xlink" xml:space="preserve" overflow="hidden"><defs><clipPath id="clip0"><rect x="920" y="151" width="4288" height="1672"/></clipPath><clipPath id="clip1"><rect x="1169" y="322" width="3833" height="1225"/></clipPath><clipPath id="clip2"><rect x="1169" y="322" width="3833" height="1225"/></clipPath><clipPath id="clip3"><rect x="1169" y="322" width="3833" height="1225"/></clipPath></defs><g clip-path="url(#clip0)" transform="translate(-920 -151)"><rect x="921" y="152" width="4285" height="1669" fill="#FFFFFF"/><g><path d="M1169.5 1544.5 4998.5 1544.5M1169.5 1347.54 4998.5 1347.54M1169.5 1150.54 4998.5 1150.54M1169.5 953.531 4998.5 953.531M1169.5 755.525 4998.5 755.525M1169.5 558.518 4998.5 558.518M1169.5 361.5 4998.5 361.5" stroke="#D9D9D9" stroke-width="3.4375" stroke-linejoin="round" stroke-miterlimit="10" fill="none"/></g><g><path d="M1169.5 1504.5 4998.5 1504.5" stroke="#D9D9D9" stroke-width="3.4375" stroke-linejoin="round" stroke-miterlimit="10" fill="none" fill-rule="evenodd"/></g><g clip-path="url(#clip1)"><path d="M1175 1048.03 1186.04 1048.03 1197.04 1048.03 1208.04 1048.03 1218.04 1048.03 1229.04 1048.03 1240.04 1048.03 1251.04 1110.04 1262.04 1048.03 1272.04 1048.03 1283.04 1048.03 1294.04 1048.03 1305.04 1048.03 1315.04 1048.03 1326.04 1048.03 1337.04 1048.03 1348.04 1102.04 1359.04 1048.03 1369.04 1048.03 1380.05 1048.03 1391.05 1048.03 1402.05 1048.03 1413.05 1048.03 1423.05 1048.03 1434.05 1048.03 1445.05 1048.03 1456.05 1048.03 1466.05 1048.03 1477.05 1048.03 1488.05 1048.03 1499.05 1048.03 1510.05 1505 1520.05 1048.03 1531.05 1503.05 1542.05 1048.03 1553.05 1048.03 1564.05 1106.04 1574.05 1048.03 1585.05 1048.03 1596.05 1048.03 1607.05 1048.03 1617.05 1048.03 1628.05 1048.03 1639.05 1048.03 1650.05 1048.03 1661.05 1048.03 1671.05 1106.04 1682.06 1048.03 1693.06 1048.03 1704.06 1048.03 1715.06 1048.03 1725.06 1048.03 1736.06 1048.03 1747.06 1048.03 1758.06 1048.03 1768.06 1048.03 1779.06 1048.03 1790.06 1048.03 1801.06 1048.03 1812.06 1048.03 1822.06 1048.03 1833.06 1048.03 1844.06 1048.03 1855.06 1048.03 1866.06 1048.03 1876.06 1048.03 1887.06 1108.04 1898.06 1048.03 1909.06 1048.03 1919.06 1048.03 1930.06 1048.03 1941.06 1048.03 1952.06 1048.03 1963.06 1048.03 1973.06 1048.03 1984.06 1048.03 1995.07 1048.03 2006.07 1048.03 2017.07 1048.03 2027.07 1048.03 2038.07 1048.03 2049.07 1048.03 2060.07 1048.03 2070.07 1048.03 2081.07 1048.03 2092.07 1048.03 2103.07 1106.04 2114.07 1048.03 2124.07 1048.03 2135.07 1113.04 2146.07 1048.03 2157.07 1048.03 2168.07 1048.03 2178.07 1048.03 2189.07 1048.03 2200.07 1048.03 2211.07 1048.03 2221.07 1048.03 2232.07 1048.03 2243.07 1048.03 2254.07 1048.03 2265.07 1048.03 2275.07 1048.03 2286.07 1048.03 2297.08 1048.03 2308.08 1048.03 2319.08 1048.03 2329.08 1048.03 2340.08 1048.03 2351.08 1048.03 2362.08 1048.03 2372.08 1048.03 2383.08 1048.03 2394.08 1048.03 2405.08 1048.03 2416.08 1048.03 2426.08 1107.04 2437.08 1048.03 2448.08 1048.03 2459.08 1048.03 2470.08 1048.03 2480.08 1048.03 2491.08 1048.03 2502.08 1048.03 2513.08 1048.03 2523.08 1048.03 2534.08 1048.03 2545.08 1048.03 2556.08 1048.03 2567.08 1048.03 2577.08 1048.03 2588.08 1048.03 2599.09 1048.03 2610.09 1105.04 2621.09 1048.03 2631.09 1048.03 2642.09 1048.03 2653.09 1048.03 2664.09 1048.03 2674.09 1048.03 2685.09 1105.04 2696.09 1048.03 2707.09 1048.03 2718.09 1048.03 2728.09 1048.03 2739.09 1048.03 2750.09 1048.03 2761.09 1048.03 2772.09 1048.03 2782.09 1048.03 2793.09 1048.03 2804.09 1048.03 2815.09 1048.03 2825.09 1103.04 2836.09 1048.03 2847.09 1048.03 2858.09 1048.03 2869.09 1048.03 2879.09 1048.03 2890.09 1048.03 2901.1 1048.03 2912.1 1048.03 2923.1 1048.03 2933.1 1110.04 2944.1 1048.03 2955.1 1048.03 2966.1 1048.03 2976.1 1048.03 2987.1 1048.03 2998.1 1048.03 3009.1 1048.03 3020.1 1048.03 3030.1 1048.03 3041.1 1106.04 3052.1 1048.03 3063.1 1048.03 3074.1 1048.03 3084.1 1048.03 3095.1 1048.03 3106.1 1048.03 3117.1 1048.03 3127.1 1048.03 3138.1 1048.03 3149.1 1048.03 3160.1 1048.03 3171.1 1048.03 3181.1 1048.03 3192.1 1048.03 3203.1 1048.03 3214.11 1048.03 3225.11 1048.03 3235.11 1048.03 3246.11 1048.03 3257.11 1102.04 3268.11 1048.03 3278.11 1048.03 3289.11 1048.03 3300.11 1048.03 3311.11 1048.03 3322.11 1048.03 3332.11 1048.03 3343.11 1048.03 3354.11 1048.03 3365.11 1048.03 3376.11 1048.03 3386.11 1048.03 3397.11 1048.03 3408.11 1048.03 3419.11 1048.03 3429.11 1048.03 3440.11 1048.03 3451.11 1048.03 3462.11 1048.03 3473.11 1048.03 3483.11 1048.03 3494.11 1048.03 3505.11 1048.03 3516.12-2894.09 3527.12 1048.03 3537.12 1048.03 3548.12 1048.03 3559.12 1102.04 3570.12 1048.03 3580.12 1048.03 3591.12 1048.03 3602.12 1048.03 3613.12 1048.03 3624.12 1048.03 3634.12 1048.03 3645.12 1048.03 3656.12 1048.03 3667.12 1105.04 3678.12 1048.03 3688.12 1048.03 3699.12 1048.03 3710.12 1481.05 3721.12 1048.03 3731.12 1442.05 3742.12 1048.03 3753.12 1048.03 3764.12 1048.03 3775.12 1105.04 3785.12 1048.03 3796.12 1048.03 3807.12 1048.03 3818.12 1048.03 3828.13 1048.03 3839.13 1048.03 3850.13 1048.03 3861.13 1048.03 3872.13 1048.03 3882.13 1048.03 3893.13 1048.03 3904.13 1048.03 3915.13 1048.03 3926.13 1048.03 3936.13 1048.03 3947.13 1048.03 3958.13 1105.04 3969.13 1048.03 3979.13 1048.03 3990.13 1048.03 4001.13 1048.03 4012.13 1048.03 4023.13 1048.03 4033.13 1048.03 4044.13 1048.03 4055.13 1048.03 4066.13 1048.03 4077.13 1048.03 4087.13 1048.03 4098.13 1048.03 4109.13 1048.03 4120.14 1048.03 4130.14 1048.03 4141.14 1048.03 4152.14 1048.03 4163.14 1048.03 4174.14 1048.03 4184.14 1048.03 4195.14 1048.03 4206.14 1101.04 4217.14 1048.03 4228.14 1048.03 4238.14 1048.03 4249.14 1048.03 4260.14 1048.03 4271.14 1048.03 4281.14 1048.03 4292.14 1048.03 4303.14 1048.03 4314.14 1048.03 4325.14 1048.03 4335.14 1048.03 4346.14 1048.03 4357.14 1048.03 4368.14 1048.03 4379.14 1048.03 4389.14 1048.03 4400.14 1048.03 4411.14 1048.03 4422.15 1058.03 4432.15 1048.03 4443.15 1048.03 4454.15 1084.04 4465.15 1048.03 4476.15 1048.03 4486.15 1048.03 4497.15 1048.03 4508.15 1048.03 4519.15 1038.03 4530.15 1022.03 4540.15 1005.03 4551.15 988.032 4562.15 970.032 4573.15 953.031 4583.15 936.031 4594.15 901.03 4605.15 883.029 4616.15 1148.04 4627.15 849.028 4637.15 831.027 4648.15 814.027 4659.15 797.026 4670.15 779.026 4681.15-3197 4691.15 728.024 4702.15 1503.05 4713.15 1503.05 4724.15 695.023 4734.16 689.023 4745.16 690.023 4756.16 1505 4767.16 688.023 4778.16 689.023 4788.16 688.023 4799.16 689.023 4810.16 689.023 4821.16 689.023 4832.16 689.023 4842.16 689.023 4853.16 688.023 4864.16 688.023 4875.16 688.023M4896.16 683.022 4907.16 685.022 4918.16 684.022 4929.16 683.022 4939.16 682.022 4950.16 682.022 4961.16 683.022 4972.16 685.022 4983.16 686.023 4993 686.023" stroke="#156082" stroke-width="10.3125" stroke-linecap="round" stroke-linejoin="round" stroke-miterlimit="10" fill="none"/></g><g clip-path="url(#clip2)"><path d="M1175 1065.03 1186.04 1065.03 1197.04 1065.03 1208.04 1065.03 1218.04 1065.03 1229.04 1065.03 1240.04 1065.03 1251.04 1065.03 1262.04 1065.03 1272.04 1065.03 1283.04 1065.03 1294.04 1065.03 1305.04 1065.03 1315.04 1065.03 1326.04 1065.03 1337.04 1065.03 1348.04 1065.03 1359.04 1065.03 1369.04 1065.03 1380.05 1065.03 1391.05 1065.03 1402.05 1065.03 1413.05 1065.03 1423.05 1065.03 1434.05 1065.03 1445.05 1065.03 1456.05 1065.03 1466.05 1065.03 1477.05 1065.03 1488.05 1065.03 1499.05 1065.03M1520.05 1065.03 1531.05 1494 1542.05 1065.03 1553.05 1065.03 1564.05 1065.03 1574.05 1065.03 1585.05 1065.03 1596.05 1065.03 1607.05 1065.03 1617.05 1065.03 1628.05 1065.03 1639.05 1065.03 1650.05 1065.03 1661.05 1065.03 1671.05 1065.03 1682.06 1065.03 1693.06 1065.03 1704.06 1065.03 1715.06 1065.03 1725.06 1065.03 1736.06 1065.03 1747.06 1065.03 1758.06 1065.03 1768.06 1065.03 1779.06 1065.03 1790.06 1065.03 1801.06 1065.03 1812.06 1065.03 1822.06 1065.03 1833.06 1065.03 1844.06 1065.03 1855.06 1065.03 1866.06 1065.03 1876.06 1065.03 1887.06 1065.03 1898.06 1065.03 1909.06 1065.03 1919.06 1065.03 1930.06 1065.03 1941.06 1065.03 1952.06 1065.03 1963.06 1065.03 1973.06 1065.03 1984.06 1065.03 1995.07 1065.03 2006.07 1065.03 2017.07 1065.03 2027.07 1065.03 2038.07 1065.03 2049.07 1065.03 2060.07 1065.03 2070.07 1065.03 2081.07 1065.03 2092.07 1065.03 2103.07 1065.03 2114.07 1065.03 2124.07 1065.03 2135.07 1065.03 2146.07 1065.03 2157.07 1065.03 2168.07 1065.03 2178.07 1065.03 2189.07 1065.03 2200.07 1065.03 2211.07 1065.03 2221.07 1065.03 2232.07 1065.03 2243.07 1065.03 2254.07 1065.03 2265.07 1065.03 2275.07 1065.03 2286.07 1065.03 2297.08 1065.03 2308.08 1065.03 2319.08 1065.03 2329.08 1065.03 2340.08 1065.03 2351.08 1065.03 2362.08 1065.03 2372.08 1065.03 2383.08 1065.03 2394.08 1065.03 2405.08 1065.03 2416.08 1065.03 2426.08 1065.03 2437.08 1065.03 2448.08 1065.03 2459.08 1065.03 2470.08 1065.03 2480.08 1065.03 2491.08 1065.03 2502.08-385961 2513.08 1065.03 2523.08-2894.09 2534.08 1065.03 2545.08 1065.03 2556.08 1065.03 2567.08 1065.03 2577.08 1065.03 2588.08 1065.03 2599.09 1065.03 2610.09 1065.03 2621.09 1065.03 2631.09 1065.03 2642.09 1065.03 2653.09 1065.03 2664.09 1065.03 2674.09 1065.03 2685.09 1065.03 2696.09 1065.03 2707.09 1065.03 2718.09 1065.03 2728.09 1065.03 2739.09 1065.03 2750.09 1065.03 2761.09 1065.03 2772.09 1065.03 2782.09 1065.03 2793.09 1065.03 2804.09 1065.03 2815.09 1065.03 2825.09 1065.03 2836.09 1065.03 2847.09 1065.03 2858.09 1065.03 2869.09 1065.03 2879.09 1065.03 2890.09 1065.03 2901.1 1065.03 2912.1 1065.03 2923.1 1065.03 2933.1 1065.03 2944.1 1065.03 2955.1 1065.03 2966.1 1065.03 2976.1 1065.03 2987.1 1065.03 2998.1 1065.03 3009.1 1065.03 3020.1 1065.03 3030.1 1065.03 3041.1 1065.03 3052.1 1065.03 3063.1 1065.03 3074.1 1065.03 3084.1 1065.03 3095.1 1065.03 3106.1 1065.03 3117.1 1065.03 3127.1 1065.03 3138.1 1065.03 3149.1 1065.03 3160.1 1065.03 3171.1 1065.03 3181.1 1065.03 3192.1 1065.03 3203.1 1065.03 3214.11 1065.03 3225.11 1065.03 3235.11 1065.03 3246.11 1065.03 3257.11 1065.03 3268.11 1065.03 3278.11 1065.03 3289.11 1065.03 3300.11 1065.03 3311.11 1065.03 3322.11 1065.03 3332.11 1065.03 3343.11 1065.03 3354.11 1065.03 3365.11 1065.03 3376.11 1065.03 3386.11 1065.03 3397.11 1065.03 3408.11 1065.03 3419.11 1065.03 3429.11 1065.03 3440.11 1065.03 3451.11 1065.03 3462.11 1065.03 3473.11 1065.03 3483.11 1065.03 3494.11 1065.03 3505.11 1065.03 3516.12 1065.03 3527.12 1065.03 3537.12 1065.03 3548.12 1065.03 3559.12 1065.03 3570.12 1065.03 3580.12 1065.03 3591.12 1065.03 3602.12 1065.03 3613.12 1065.03 3624.12 1065.03 3634.12 1065.03 3645.12 1065.03 3656.12 1065.03 3667.12 1065.03 3678.12 1065.03 3688.12 1065.03 3699.12 1065.03 3710.12 1065.03 3721.12 1065.03 3731.12 1065.03 3742.12 1065.03 3753.12 1065.03 3764.12 1065.03 3775.12 1065.03 3785.12 1065.03 3796.12 1065.03 3807.12 1065.03 3818.12 1065.03 3828.13 1065.03 3839.13 1065.03 3850.13 1065.03 3861.13 1065.03 3872.13 1065.03 3882.13 1065.03 3893.13 1065.03 3904.13 1065.03 3915.13 1065.03 3926.13 1065.03 3936.13 1065.03 3947.13 1065.03 3958.13 1065.03 3969.13 1065.03 3979.13 1065.03 3990.13 1065.03 4001.13 1065.03 4012.13 1065.03 4023.13 1065.03 4033.13 1065.03 4044.13 1065.03 4055.13 1065.03 4066.13 1065.03 4077.13 1065.03 4087.13 1065.03 4098.13 1065.03 4109.13 1065.03 4120.14 1065.03 4130.14 1065.03 4141.14 1065.03 4152.14 1065.03 4163.14 1065.03 4174.14 1065.03 4184.14 1065.03 4195.14 1065.03 4206.14 1065.03 4217.14 1065.03 4228.14 1065.03 4238.14 1065.03 4249.14 1065.03 4260.14 1065.03 4271.14 1065.03 4281.14 1065.03 4292.14 1065.03 4303.14 1065.03 4314.14 1065.03 4325.14 1065.03 4335.14 1065.03 4346.14 1065.03 4357.14 1065.03 4368.14 1065.03 4379.14 1065.03 4389.14 1065.03 4400.14 1065.03 4411.14 1065.03 4422.15 1065.03 4432.15 1065.03 4443.15 1065.03 4454.15 1065.03 4465.15 1065.03 4476.15 1065.03 4486.15 1065.03 4497.15 1065.03 4508.15 1065.03 4519.15 1065.03 4530.15 1065.03 4540.15 1065.03 4551.15 1065.03 4562.15 1065.03 4573.15 1065.03 4583.15 1065.03 4594.15 1065.03 4605.15 1065.03 4616.15 1065.03 4627.15 1065.03 4637.15 1065.03 4648.15 1065.03 4659.15 1065.03 4670.15 1065.03 4681.15 1065.03 4691.15 1065.03 4702.15 1434.06 4713.15 1349.03 4724.15 1065.03 4734.16 1065.03 4745.16 1065.03 4756.16 1065.03 4767.16 1065.03 4778.16 1065.03 4788.16 1065.03 4799.16 1065.03 4810.16 1065.03 4821.16 1065.03 4832.16 1065.03 4842.16 1065.03 4853.16 1065.03 4864.16 1065.03 4875.16 1065.03 4885.16 1461.06 4896.16 1065.03 4907.16 1065.03 4918.16 1065.03 4929.16 1065.03 4939.16 1065.03 4950.16 1065.03 4961.16 1065.03 4972.16 1065.03 4983.16 1065.03 4993 1065.03" stroke="#E97132" stroke-width="10.3125" stroke-linecap="round" stroke-linejoin="round" stroke-miterlimit="10" fill="none"/></g><g clip-path="url(#clip3)"><path d="M1175 1080.03 1186.04 860.031 1197.04 958.031 1208.04 1031.03 1218.04 811.031 1229.04 909.031 1240.04 1056.03 1251.04 860.031 1262.04 860.031 1272.04 909.031 1283.04 1056.03 1294.04 811.031 1305.04 909.031 1315.04-385961 1326.04 884.031 1337.04 982.031 1348.04 836.031 1359.04 909.031 1369.04 982.031 1380.05 1056.03 1391.05 884.031 1402.05 933.031 1413.05 1007.03 1423.05 811.031 1434.05 860.031 1445.05 958.031 1456.05 860.031 1466.05 860.031 1477.05 958.031 1488.05 933.031 1499.05 860.031M1542.05 933.031 1553.05 958.031 1564.05 811.031 1574.05 884.031 1585.05 982.031 1596.05 787.031 1607.05 860.031 1617.05 909.031 1628.05 982.031 1639.05 787.031 1650.05 860.031 1661.05 982.031 1671.05 836.031 1682.06 811.031 1693.06 933.031 1704.06 1080.03 1715.06 860.031 1725.06 884.031 1736.06 1056.03 1747.06 836.031 1758.06 884.031 1768.06 982.031 1779.06 860.031 1790.06 836.031 1801.06 884.031 1812.06 933.031 1822.06 811.031 1833.06 909.031 1844.06 1080.03 1855.06 762.031 1866.06 860.031 1876.06 958.031 1887.06 836.031 1898.06 811.031 1909.06 933.031 1919.06 1031.03 1930.06 836.031 1941.06 884.031 1952.06 933.031 1963.06 811.031 1973.06 909.031 1984.06 933.031 1995.07 787.031 2006.07 836.031 2017.07 909.031 2027.07 1080.03 2038.07 787.031 2049.07 933.031 2060.07 982.031 2070.07 836.031 2081.07 787.031 2092.07 909.031 2103.07 811.031 2114.07 836.031 2124.07 1007.03 2135.07 713.031 2146.07 860.031 2157.07 958.031 2168.07 1031.03 2178.07 811.031 2189.07 909.031 2200.07 982.031 2211.07 762.031 2221.07 860.031 2232.07 933.031 2243.07 958.031 2254.07 787.031 2265.07 860.031 2275.07 1031.03 2286.07 860.031 2297.08 933.031 2308.08 958.031 2319.08 811.031 2329.08 860.031 2340.08 958.031 2351.08 1056.03 2362.08 836.031 2372.08 933.031 2383.08 1031.03 2394.08 787.031 2405.08 884.031 2416.08 958.031 2426.08 836.031 2437.08 836.031 2448.08 884.031 2459.08 958.031 2470.08 860.031 2480.08 884.031 2491.08 933.031 2502.08-25728.8 2513.08 909.031 2523.08-25728.8 2534.08 1056.03 2545.08 811.031 2556.08 884.031 2567.08 958.031 2577.08 836.031 2588.08 860.031 2599.09 933.031 2610.09 811.031 2621.09 836.031 2631.09 909.031 2642.09 1056.03 2653.09 860.031 2664.09 860.031 2674.09 1007.03 2685.09 836.031 2696.09 884.031 2707.09 958.031 2718.09 787.031 2728.09 860.031 2739.09 933.031 2750.09 1031.03 2761.09 811.031 2772.09 860.031 2782.09 1007.03 2793.09 836.031 2804.09 811.031 2815.09 909.031 2825.09 811.031 2836.09 836.031 2847.09 884.031 2858.09 811.031 2869.09 860.031 2879.09 836.031 2890.09 958.031 2901.1 811.031 2912.1 884.031 2923.1 1007.03 2933.1 762.031 2944.1 836.031 2955.1 909.031 2966.1 933.031 2976.1 811.031 2987.1 884.031 2998.1 1007.03 3009.1 762.031 3020.1 836.031 3030.1 933.031 3041.1 787.031 3052.1 836.031 3063.1 1007.03 3074.1 1007.03 3084.1 836.031 3095.1 909.031 3106.1 1007.03 3117.1 787.031 3127.1 884.031 3138.1 1007.03 3149.1 787.031 3160.1 811.031 3171.1 860.031 3181.1 933.031 3192.1 762.031 3203.1 860.031 3214.11 1007.03 3225.11 738.031 3235.11 836.031 3246.11 909.031 3257.11 787.031 3268.11 909.031 3278.11 933.031 3289.11 933.031 3300.11 811.031 3311.11 909.031 3322.11 933.031 3332.11 787.031 3343.11 860.031 3354.11 933.031 3365.11 836.031 3376.11 811.031 3386.11 909.031 3397.11 982.031 3408.11 836.031 3419.11 860.031 3429.11 958.031 3440.11 836.031 3451.11 811.031 3462.11 933.031 3473.11 787.031 3483.11 860.031 3494.11 982.031 3505.11 1031.03 3516.12-385961 3527.12 787.031 3537.12 836.031 3548.12 958.031 3559.12 811.031 3570.12 787.031 3580.12 836.031 3591.12 1007.03 3602.12 836.031 3613.12 884.031 3624.12 982.031 3634.12 811.031 3645.12 860.031 3656.12 982.031 3667.12 713.031 3678.12 787.031 3688.12 909.031 3699.12 1056.03 3710.12 787.031 3721.12 860.031 3731.12 958.031 3742.12 811.031 3753.12 811.031 3764.12 933.031 3775.12 787.031 3785.12 762.031 3796.12 860.031 3807.12 1007.03 3818.12 787.031 3828.13 811.031 3839.13 958.031 3850.13 787.031 3861.13 836.031 3872.13 860.031 3882.13 738.031 3893.13 762.031 3904.13 836.031 3915.13 713.031 3926.13 787.031 3936.13 787.031 3947.13 860.031 3958.13 713.031 3969.13 860.031 3979.13 860.031 3990.13 787.031 4001.13 836.031 4012.13 860.031 4023.13 982.031 4033.13 787.031 4044.13 884.031 4055.13 933.031 4066.13 762.031 4077.13 811.031 4087.13 958.031 4098.13 787.031 4109.13 762.031 4120.14 884.031 4130.14 982.031 4141.14 713.031 4152.14 836.031 4163.14 982.031 4174.14 811.031 4184.14 762.031 4195.14 860.031 4206.14 762.031 4217.14 787.031 4228.14 909.031 4238.14 738.031 4249.14 811.031 4260.14 860.031 4271.14 884.031 4281.14 762.031 4292.14 811.031 4303.14 1031.03 4314.14 713.031 4325.14 762.031 4335.14 836.031 4346.14 1007.03 4357.14 738.031 4368.14 860.031 4379.14 860.031 4389.14 811.031 4400.14 884.031 4411.14 1007.03 4422.15 811.031 4432.15 933.031 4443.15 1007.03 4454.15 738.031 4465.15 860.031 4476.15 884.031 4486.15 1104.03 4497.15 884.031 4508.15-26828.9 4519.15-2928.09 4530.15 787.031 4540.15 1471.06 4551.15 1544 4562.15 1544 4573.15 1544 4583.15-34844.2 4594.15 1544 4605.15 1544 4616.15 1544 4627.15 1544 4637.15 1544 4648.15 1544 4659.15 1544 4670.15 1544 4681.15 1349.03 4691.15 1275.03M4724.15-7693.25 4734.16 1544 4745.16-7864.28 4756.16 1300.03 4767.16 1544 4778.16 1544 4788.16-7815.25 4799.16 1544 4810.16-3172.12 4821.16 1544 4832.16 1544 4842.16 1373.06 4853.16 1544 4864.16 1544 4875.16-8011.25 4885.16-6007.19 4896.16 1544 4907.16 1544 4918.16-4418.16 4929.16-5567.19 4939.16-3514.12 4950.16-2928.09 4961.16 29 4972.16 1544 4983.16 1544 4993 1544" stroke="#4EA72E" stroke-width="10.3125" stroke-linecap="round" stroke-linejoin="round" stroke-miterlimit="10" fill="none"/></g><g><text fill="#595959" font-family="Aptos Narrow,Aptos Narrow_MSFontService,sans-serif" font-weight="400" font-stretch="semi-condensed" font-size="41" transform="matrix(1 0 0 1 5036.97 1556)">0</text></g><g><text fill="#595959" font-family="Aptos Narrow,Aptos Narrow_MSFontService,sans-serif" font-weight="400" font-stretch="semi-condensed" font-size="41" transform="matrix(1 0 0 1 5036.97 1434)">5</text></g><g><text fill="#595959" font-family="Aptos Narrow,Aptos Narrow_MSFontService,sans-serif" font-weight="400" font-stretch="semi-condensed" font-size="41" transform="matrix(1 0 0 1 5036.97 1312)">10</text></g><g><text fill="#595959" font-family="Aptos Narrow,Aptos Narrow_MSFontService,sans-serif" font-weight="400" font-stretch="semi-condensed" font-size="41" transform="matrix(1 0 0 1 5036.97 1189)">15</text></g><g><text fill="#595959" font-family="Aptos Narrow,Aptos Narrow_MSFontService,sans-serif" font-weight="400" font-stretch="semi-condensed" font-size="41" transform="matrix(1 0 0 1 5036.97 1067)">20</text></g><g><text fill="#595959" font-family="Aptos Narrow,Aptos Narrow_MSFontService,sans-serif" font-weight="400" font-stretch="semi-condensed" font-size="41" transform="matrix(1 0 0 1 5036.97 945)">25</text></g><g><text fill="#595959" font-family="Aptos Narrow,Aptos Narrow_MSFontService,sans-serif" font-weight="400" font-stretch="semi-condensed" font-size="41" transform="matrix(1 0 0 1 5036.97 823)">30</text></g><g><text fill="#595959" font-family="Aptos Narrow,Aptos Narrow_MSFontService,sans-serif" font-weight="400" font-stretch="semi-condensed" font-size="41" transform="matrix(1 0 0 1 5036.97 701)">35</text></g><g><text fill="#595959" font-family="Aptos Narrow,Aptos Narrow_MSFontService,sans-serif" font-weight="400" font-stretch="semi-condensed" font-size="41" transform="matrix(1 0 0 1 5036.97 578)">40</text></g><g><text fill="#595959" font-family="Aptos Narrow,Aptos Narrow_MSFontService,sans-serif" font-weight="400" font-stretch="semi-condensed" font-size="41" transform="matrix(1 0 0 1 5036.97 456)">45</text></g><g><text fill="#595959" font-family="Aptos Narrow,Aptos Narrow_MSFontService,sans-serif" font-weight="400" font-stretch="semi-condensed" font-size="41" transform="matrix(1 0 0 1 5036.97 334)">50</text></g><g><text fill="#595959" font-family="Aptos Narrow,Aptos Narrow_MSFontService,sans-serif" font-weight="400" font-stretch="semi-condensed" font-size="41" transform="matrix(1 0 0 1 1056.5 1556)">-100</text></g><g><text fill="#595959" font-family="Aptos Narrow,Aptos Narrow_MSFontService,sans-serif" font-weight="400" font-stretch="semi-condensed" font-size="41" transform="matrix(1 0 0 1 1069.13 1359)">400</text></g><g><text fill="#595959" font-family="Aptos Narrow,Aptos Narrow_MSFontService,sans-serif" font-weight="400" font-stretch="semi-condensed" font-size="41" transform="matrix(1 0 0 1 1069.13 1162)">900</text></g><g><text fill="#595959" font-family="Aptos Narrow,Aptos Narrow_MSFontService,sans-serif" font-weight="400" font-stretch="semi-condensed" font-size="41" transform="matrix(1 0 0 1 1048.23 965)">1400</text></g><g><text fill="#595959" font-family="Aptos Narrow,Aptos Narrow_MSFontService,sans-serif" font-weight="400" font-stretch="semi-condensed" font-size="41" transform="matrix(1 0 0 1 1048.23 768)">1900</text></g><g><text fill="#595959" font-family="Aptos Narrow,Aptos Narrow_MSFontService,sans-serif" font-weight="400" font-stretch="semi-condensed" font-size="41" transform="matrix(1 0 0 1 1048.23 570)">2400</text></g><g><text fill="#595959" font-family="Aptos Narrow,Aptos Narrow_MSFontService,sans-serif" font-weight="400" font-stretch="semi-condensed" font-size="41" transform="matrix(1 0 0 1 1048.23 373)">2900</text></g><g><text fill="#595959" font-family="Aptos Narrow,Aptos Narrow_MSFontService,sans-serif" font-weight="400" font-stretch="semi-condensed" font-size="41" transform="matrix(6.12323e-17 -1 1 6.12323e-17 1189.13 1552)">1</text></g><g><text fill="#595959" font-family="Aptos Narrow,Aptos Narrow_MSFontService,sans-serif" font-weight="400" font-stretch="semi-condensed" font-size="41" transform="matrix(6.12323e-17 -1 1 6.12323e-17 1243.06 1552)">6</text></g><g><text fill="#595959" font-family="Aptos Narrow,Aptos Narrow_MSFontService,sans-serif" font-weight="400" font-stretch="semi-condensed" font-size="41" transform="matrix(6.12323e-17 -1 1 6.12323e-17 1296.99 1573)">11</text></g><g><text fill="#595959" font-family="Aptos Narrow,Aptos Narrow_MSFontService,sans-serif" font-weight="400" font-stretch="semi-condensed" font-size="41" transform="matrix(6.12323e-17 -1 1 6.12323e-17 1350.92 1573)">16</text></g><g><text fill="#595959" font-family="Aptos Narrow,Aptos Narrow_MSFontService,sans-serif" font-weight="400" font-stretch="semi-condensed" font-size="41" transform="matrix(6.12323e-17 -1 1 6.12323e-17 1404.85 1573)">21</text></g><g><text fill="#595959" font-family="Aptos Narrow,Aptos Narrow_MSFontService,sans-serif" font-weight="400" font-stretch="semi-condensed" font-size="41" transform="matrix(6.12323e-17 -1 1 6.12323e-17 1458.78 1573)">26</text></g><g><text fill="#595959" font-family="Aptos Narrow,Aptos Narrow_MSFontService,sans-serif" font-weight="400" font-stretch="semi-condensed" font-size="41" transform="matrix(6.12323e-17 -1 1 6.12323e-17 1512.71 1573)">31</text></g><g><text fill="#595959" font-family="Aptos Narrow,Aptos Narrow_MSFontService,sans-serif" font-weight="400" font-stretch="semi-condensed" font-size="41" transform="matrix(6.12323e-17 -1 1 6.12323e-17 1566.64 1573)">36</text></g><g><text fill="#595959" font-family="Aptos Narrow,Aptos Narrow_MSFontService,sans-serif" font-weight="400" font-stretch="semi-condensed" font-size="41" transform="matrix(6.12323e-17 -1 1 6.12323e-17 1620.57 1573)">41</text></g><g><text fill="#595959" font-family="Aptos Narrow,Aptos Narrow_MSFontService,sans-serif" font-weight="400" font-stretch="semi-condensed" font-size="41" transform="matrix(6.12323e-17 -1 1 6.12323e-17 1674.5 1573)">46</text></g><g><text fill="#595959" font-family="Aptos Narrow,Aptos Narrow_MSFontService,sans-serif" font-weight="400" font-stretch="semi-condensed" font-size="41" transform="matrix(6.12323e-17 -1 1 6.12323e-17 1728.43 1573)">51</text></g><g><text fill="#595959" font-family="Aptos Narrow,Aptos Narrow_MSFontService,sans-serif" font-weight="400" font-stretch="semi-condensed" font-size="41" transform="matrix(6.12323e-17 -1 1 6.12323e-17 1782.35 1573)">56</text></g><g><text fill="#595959" font-family="Aptos Narrow,Aptos Narrow_MSFontService,sans-serif" font-weight="400" font-stretch="semi-condensed" font-size="41" transform="matrix(6.12323e-17 -1 1 6.12323e-17 1836.28 1573)">61</text></g><g><text fill="#595959" font-family="Aptos Narrow,Aptos Narrow_MSFontService,sans-serif" font-weight="400" font-stretch="semi-condensed" font-size="41" transform="matrix(6.12323e-17 -1 1 6.12323e-17 1890.21 1573)">66</text></g><g><text fill="#595959" font-family="Aptos Narrow,Aptos Narrow_MSFontService,sans-serif" font-weight="400" font-stretch="semi-condensed" font-size="41" transform="matrix(6.12323e-17 -1 1 6.12323e-17 1944.14 1573)">71</text></g><g><text fill="#595959" font-family="Aptos Narrow,Aptos Narrow_MSFontService,sans-serif" font-weight="400" font-stretch="semi-condensed" font-size="41" transform="matrix(6.12323e-17 -1 1 6.12323e-17 1998.07 1573)">76</text></g><g><text fill="#595959" font-family="Aptos Narrow,Aptos Narrow_MSFontService,sans-serif" font-weight="400" font-stretch="semi-condensed" font-size="41" transform="matrix(6.12323e-17 -1 1 6.12323e-17 2052 1573)">81</text></g><g><text fill="#595959" font-family="Aptos Narrow,Aptos Narrow_MSFontService,sans-serif" font-weight="400" font-stretch="semi-condensed" font-size="41" transform="matrix(6.12323e-17 -1 1 6.12323e-17 2105.93 1573)">86</text></g><g><text fill="#595959" font-family="Aptos Narrow,Aptos Narrow_MSFontService,sans-serif" font-weight="400" font-stretch="semi-condensed" font-size="41" transform="matrix(6.12323e-17 -1 1 6.12323e-17 2159.86 1573)">91</text></g><g><text fill="#595959" font-family="Aptos Narrow,Aptos Narrow_MSFontService,sans-serif" font-weight="400" font-stretch="semi-condensed" font-size="41" transform="matrix(6.12323e-17 -1 1 6.12323e-17 2213.79 1573)">96</text></g><g><text fill="#595959" font-family="Aptos Narrow,Aptos Narrow_MSFontService,sans-serif" font-weight="400" font-stretch="semi-condensed" font-size="41" transform="matrix(6.12323e-17 -1 1 6.12323e-17 2267.72 1593)">101</text></g><g><text fill="#595959" font-family="Aptos Narrow,Aptos Narrow_MSFontService,sans-serif" font-weight="400" font-stretch="semi-condensed" font-size="41" transform="matrix(6.12323e-17 -1 1 6.12323e-17 2321.65 1593)">106</text></g><g><text fill="#595959" font-family="Aptos Narrow,Aptos Narrow_MSFontService,sans-serif" font-weight="400" font-stretch="semi-condensed" font-size="41" transform="matrix(6.12323e-17 -1 1 6.12323e-17 2375.58 1593)">111</text></g><g><text fill="#595959" font-family="Aptos Narrow,Aptos Narrow_MSFontService,sans-serif" font-weight="400" font-stretch="semi-condensed" font-size="41" transform="matrix(6.12323e-17 -1 1 6.12323e-17 2429.5 1593)">116</text></g><g><text fill="#595959" font-family="Aptos Narrow,Aptos Narrow_MSFontService,sans-serif" font-weight="400" font-stretch="semi-condensed" font-size="41" transform="matrix(6.12323e-17 -1 1 6.12323e-17 2483.43 1593)">121</text></g><g><text fill="#595959" font-family="Aptos Narrow,Aptos Narrow_MSFontService,sans-serif" font-weight="400" font-stretch="semi-condensed" font-size="41" transform="matrix(6.12323e-17 -1 1 6.12323e-17 2537.36 1593)">126</text></g><g><text fill="#595959" font-family="Aptos Narrow,Aptos Narrow_MSFontService,sans-serif" font-weight="400" font-stretch="semi-condensed" font-size="41" transform="matrix(6.12323e-17 -1 1 6.12323e-17 2591.29 1593)">131</text></g><g><text fill="#595959" font-family="Aptos Narrow,Aptos Narrow_MSFontService,sans-serif" font-weight="400" font-stretch="semi-condensed" font-size="41" transform="matrix(6.12323e-17 -1 1 6.12323e-17 2645.22 1593)">136</text></g><g><text fill="#595959" font-family="Aptos Narrow,Aptos Narrow_MSFontService,sans-serif" font-weight="400" font-stretch="semi-condensed" font-size="41" transform="matrix(6.12323e-17 -1 1 6.12323e-17 2699.15 1593)">141</text></g><g><text fill="#595959" font-family="Aptos Narrow,Aptos Narrow_MSFontService,sans-serif" font-weight="400" font-stretch="semi-condensed" font-size="41" transform="matrix(6.12323e-17 -1 1 6.12323e-17 2753.08 1593)">146</text></g><g><text fill="#595959" font-family="Aptos Narrow,Aptos Narrow_MSFontService,sans-serif" font-weight="400" font-stretch="semi-condensed" font-size="41" transform="matrix(6.12323e-17 -1 1 6.12323e-17 2807.01 1593)">151</text></g><g><text fill="#595959" font-family="Aptos Narrow,Aptos Narrow_MSFontService,sans-serif" font-weight="400" font-stretch="semi-condensed" font-size="41" transform="matrix(6.12323e-17 -1 1 6.12323e-17 2860.94 1593)">156</text></g><g><text fill="#595959" font-family="Aptos Narrow,Aptos Narrow_MSFontService,sans-serif" font-weight="400" font-stretch="semi-condensed" font-size="41" transform="matrix(6.12323e-17 -1 1 6.12323e-17 2914.87 1593)">161</text></g><g><text fill="#595959" font-family="Aptos Narrow,Aptos Narrow_MSFontService,sans-serif" font-weight="400" font-stretch="semi-condensed" font-size="41" transform="matrix(6.12323e-17 -1 1 6.12323e-17 2968.8 1593)">166</text></g><g><text fill="#595959" font-family="Aptos Narrow,Aptos Narrow_MSFontService,sans-serif" font-weight="400" font-stretch="semi-condensed" font-size="41" transform="matrix(6.12323e-17 -1 1 6.12323e-17 3022.73 1593)">171</text></g><g><text fill="#595959" font-family="Aptos Narrow,Aptos Narrow_MSFontService,sans-serif" font-weight="400" font-stretch="semi-condensed" font-size="41" transform="matrix(6.12323e-17 -1 1 6.12323e-17 3076.65 1593)">176</text></g><g><text fill="#595959" font-family="Aptos Narrow,Aptos Narrow_MSFontService,sans-serif" font-weight="400" font-stretch="semi-condensed" font-size="41" transform="matrix(6.12323e-17 -1 1 6.12323e-17 3130.58 1593)">181</text></g><g><text fill="#595959" font-family="Aptos Narrow,Aptos Narrow_MSFontService,sans-serif" font-weight="400" font-stretch="semi-condensed" font-size="41" transform="matrix(6.12323e-17 -1 1 6.12323e-17 3184.51 1593)">186</text></g><g><text fill="#595959" font-family="Aptos Narrow,Aptos Narrow_MSFontService,sans-serif" font-weight="400" font-stretch="semi-condensed" font-size="41" transform="matrix(6.12323e-17 -1 1 6.12323e-17 3238.44 1593)">191</text></g><g><text fill="#595959" font-family="Aptos Narrow,Aptos Narrow_MSFontService,sans-serif" font-weight="400" font-stretch="semi-condensed" font-size="41" transform="matrix(6.12323e-17 -1 1 6.12323e-17 3292.37 1593)">196</text></g><g><text fill="#595959" font-family="Aptos Narrow,Aptos Narrow_MSFontService,sans-serif" font-weight="400" font-stretch="semi-condensed" font-size="41" transform="matrix(6.12323e-17 -1 1 6.12323e-17 3346.3 1593)">201</text></g><g><text fill="#595959" font-family="Aptos Narrow,Aptos Narrow_MSFontService,sans-serif" font-weight="400" font-stretch="semi-condensed" font-size="41" transform="matrix(6.12323e-17 -1 1 6.12323e-17 3400.23 1593)">206</text></g><g><text fill="#595959" font-family="Aptos Narrow,Aptos Narrow_MSFontService,sans-serif" font-weight="400" font-stretch="semi-condensed" font-size="41" transform="matrix(6.12323e-17 -1 1 6.12323e-17 3454.16 1593)">211</text></g><g><text fill="#595959" font-family="Aptos Narrow,Aptos Narrow_MSFontService,sans-serif" font-weight="400" font-stretch="semi-condensed" font-size="41" transform="matrix(6.12323e-17 -1 1 6.12323e-17 3508.09 1593)">216</text></g><g><text fill="#595959" font-family="Aptos Narrow,Aptos Narrow_MSFontService,sans-serif" font-weight="400" font-stretch="semi-condensed" font-size="41" transform="matrix(6.12323e-17 -1 1 6.12323e-17 3562.02 1593)">221</text></g><g><text fill="#595959" font-family="Aptos Narrow,Aptos Narrow_MSFontService,sans-serif" font-weight="400" font-stretch="semi-condensed" font-size="41" transform="matrix(6.12323e-17 -1 1 6.12323e-17 3615.95 1593)">226</text></g><g><text fill="#595959" font-family="Aptos Narrow,Aptos Narrow_MSFontService,sans-serif" font-weight="400" font-stretch="semi-condensed" font-size="41" transform="matrix(6.12323e-17 -1 1 6.12323e-17 3669.88 1593)">231</text></g><g><text fill="#595959" font-family="Aptos Narrow,Aptos Narrow_MSFontService,sans-serif" font-weight="400" font-stretch="semi-condensed" font-size="41" transform="matrix(6.12323e-17 -1 1 6.12323e-17 3723.8 1593)">236</text></g><g><text fill="#595959" font-family="Aptos Narrow,Aptos Narrow_MSFontService,sans-serif" font-weight="400" font-stretch="semi-condensed" font-size="41" transform="matrix(6.12323e-17 -1 1 6.12323e-17 3777.73 1593)">241</text></g><g><text fill="#595959" font-family="Aptos Narrow,Aptos Narrow_MSFontService,sans-serif" font-weight="400" font-stretch="semi-condensed" font-size="41" transform="matrix(6.12323e-17 -1 1 6.12323e-17 3831.66 1593)">246</text></g><g><text fill="#595959" font-family="Aptos Narrow,Aptos Narrow_MSFontService,sans-serif" font-weight="400" font-stretch="semi-condensed" font-size="41" transform="matrix(6.12323e-17 -1 1 6.12323e-17 3885.59 1593)">251</text></g><g><text fill="#595959" font-family="Aptos Narrow,Aptos Narrow_MSFontService,sans-serif" font-weight="400" font-stretch="semi-condensed" font-size="41" transform="matrix(6.12323e-17 -1 1 6.12323e-17 3939.52 1593)">256</text></g><g><text fill="#595959" font-family="Aptos Narrow,Aptos Narrow_MSFontService,sans-serif" font-weight="400" font-stretch="semi-condensed" font-size="41" transform="matrix(6.12323e-17 -1 1 6.12323e-17 3993.45 1593)">261</text></g><g><text fill="#595959" font-family="Aptos Narrow,Aptos Narrow_MSFontService,sans-serif" font-weight="400" font-stretch="semi-condensed" font-size="41" transform="matrix(6.12323e-17 -1 1 6.12323e-17 4047.38 1593)">266</text></g><g><text fill="#595959" font-family="Aptos Narrow,Aptos Narrow_MSFontService,sans-serif" font-weight="400" font-stretch="semi-condensed" font-size="41" transform="matrix(6.12323e-17 -1 1 6.12323e-17 4101.31 1593)">271</text></g><g><text fill="#595959" font-family="Aptos Narrow,Aptos Narrow_MSFontService,sans-serif" font-weight="400" font-stretch="semi-condensed" font-size="41" transform="matrix(6.12323e-17 -1 1 6.12323e-17 4155.24 1593)">276</text></g><g><text fill="#595959" font-family="Aptos Narrow,Aptos Narrow_MSFontService,sans-serif" font-weight="400" font-stretch="semi-condensed" font-size="41" transform="matrix(6.12323e-17 -1 1 6.12323e-17 4209.17 1593)">281</text></g><g><text fill="#595959" font-family="Aptos Narrow,Aptos Narrow_MSFontService,sans-serif" font-weight="400" font-stretch="semi-condensed" font-size="41" transform="matrix(6.12323e-17 -1 1 6.12323e-17 4263.1 1593)">286</text></g><g><text fill="#595959" font-family="Aptos Narrow,Aptos Narrow_MSFontService,sans-serif" font-weight="400" font-stretch="semi-condensed" font-size="41" transform="matrix(6.12323e-17 -1 1 6.12323e-17 4317.02 1593)">291</text></g><g><text fill="#595959" font-family="Aptos Narrow,Aptos Narrow_MSFontService,sans-serif" font-weight="400" font-stretch="semi-condensed" font-size="41" transform="matrix(6.12323e-17 -1 1 6.12323e-17 4370.95 1593)">296</text></g><g><text fill="#595959" font-family="Aptos Narrow,Aptos Narrow_MSFontService,sans-serif" font-weight="400" font-stretch="semi-condensed" font-size="41" transform="matrix(6.12323e-17 -1 1 6.12323e-17 4424.88 1593)">301</text></g><g><text fill="#595959" font-family="Aptos Narrow,Aptos Narrow_MSFontService,sans-serif" font-weight="400" font-stretch="semi-condensed" font-size="41" transform="matrix(6.12323e-17 -1 1 6.12323e-17 4478.81 1593)">306</text></g><g><text fill="#595959" font-family="Aptos Narrow,Aptos Narrow_MSFontService,sans-serif" font-weight="400" font-stretch="semi-condensed" font-size="41" transform="matrix(6.12323e-17 -1 1 6.12323e-17 4532.74 1593)">311</text></g><g><text fill="#595959" font-family="Aptos Narrow,Aptos Narrow_MSFontService,sans-serif" font-weight="400" font-stretch="semi-condensed" font-size="41" transform="matrix(6.12323e-17 -1 1 6.12323e-17 4586.67 1593)">316</text></g><g><text fill="#595959" font-family="Aptos Narrow,Aptos Narrow_MSFontService,sans-serif" font-weight="400" font-stretch="semi-condensed" font-size="41" transform="matrix(6.12323e-17 -1 1 6.12323e-17 4640.6 1593)">321</text></g><g><text fill="#595959" font-family="Aptos Narrow,Aptos Narrow_MSFontService,sans-serif" font-weight="400" font-stretch="semi-condensed" font-size="41" transform="matrix(6.12323e-17 -1 1 6.12323e-17 4694.53 1593)">326</text></g><g><text fill="#595959" font-family="Aptos Narrow,Aptos Narrow_MSFontService,sans-serif" font-weight="400" font-stretch="semi-condensed" font-size="41" transform="matrix(6.12323e-17 -1 1 6.12323e-17 4748.46 1593)">331</text></g><g><text fill="#595959" font-family="Aptos Narrow,Aptos Narrow_MSFontService,sans-serif" font-weight="400" font-stretch="semi-condensed" font-size="41" transform="matrix(6.12323e-17 -1 1 6.12323e-17 4802.39 1593)">336</text></g><g><text fill="#595959" font-family="Aptos Narrow,Aptos Narrow_MSFontService,sans-serif" font-weight="400" font-stretch="semi-condensed" font-size="41" transform="matrix(6.12323e-17 -1 1 6.12323e-17 4856.32 1593)">341</text></g><g><text fill="#595959" font-family="Aptos Narrow,Aptos Narrow_MSFontService,sans-serif" font-weight="400" font-stretch="semi-condensed" font-size="41" transform="matrix(6.12323e-17 -1 1 6.12323e-17 4910.25 1593)">346</text></g><g><text fill="#595959" font-family="Aptos Narrow,Aptos Narrow_MSFontService,sans-serif" font-weight="400" font-stretch="semi-condensed" font-size="41" transform="matrix(6.12323e-17 -1 1 6.12323e-17 4964.17 1593)">351</text></g><g><text fill="#595959" font-family="Aptos Narrow,Aptos Narrow_MSFontService,sans-serif" font-weight="400" font-stretch="semi-condensed" font-size="46" transform="matrix(6.12323e-17 -1 1 6.12323e-17 5135.51 964)">mA</text></g><g><text fill="#595959" font-family="Aptos Narrow,Aptos Narrow_MSFontService,sans-serif" font-weight="400" font-stretch="semi-condensed" font-size="46" transform="matrix(6.12323e-17 -1 1 6.12323e-17 1021.53 981)">mrad</text></g><g><text fill="#595959" font-family="Aptos Narrow,Aptos Narrow_MSFontService,sans-serif" font-weight="400" font-stretch="semi-condensed" font-size="46" transform="matrix(1 0 0 1 3004.68 1646)">Axis Title</text></g><g><text fill="#595959" font-family="Aptos Narrow,Aptos Narrow_MSFontService,sans-serif" font-weight="400" font-stretch="semi-condensed" font-size="64" transform="matrix(1 0 0 1 2808.7 247)">Shoulder crash data</text></g><g><rect x="2480.5" y="1716.5" width="1166" height="77" stroke="#4EA72E" stroke-width="3.4375" stroke-linejoin="round" stroke-miterlimit="10" fill="none"/></g><g><path d="M2543 1755 2631 1755" stroke="#156082" stroke-width="10.3125" stroke-linecap="round" stroke-linejoin="round" stroke-miterlimit="10" fill="none" fill-rule="evenodd"/></g><g><text fill="#595959" font-family="Aptos Narrow,Aptos Narrow_MSFontService,sans-serif" font-weight="400" font-stretch="semi-condensed" font-size="41" transform="matrix(1 0 0 1 2640.6 1767)">Pos [mrad]</text></g><g><path d="M2879 1755 2967 1755" stroke="#E97132" stroke-width="10.3125" stroke-linecap="round" stroke-linejoin="round" stroke-miterlimit="10" fill="none" fill-rule="evenodd"/></g><g><text fill="#595959" font-family="Aptos Narrow,Aptos Narrow_MSFontService,sans-serif" font-weight="400" font-stretch="semi-condensed" font-size="41" transform="matrix(1 0 0 1 2976.55 1767)">Setpoint [mrad]</text></g><g><path d="M3292 1755 3380 1755" stroke="#4EA72E" stroke-width="10.3125" stroke-linecap="round" stroke-linejoin="round" stroke-miterlimit="10" fill="none" fill-rule="evenodd"/></g><g><text fill="#595959" font-family="Aptos Narrow,Aptos Narrow_MSFontService,sans-serif" font-weight="400" font-stretch="semi-condensed" font-size="41" transform="matrix(1 0 0 1 3389.62 1767)">Current [mA]</text></g><rect x="921.5" y="152.5" width="4285" height="1669" stroke="#D9D9D9" stroke-width="3.4375" stroke-linejoin="round" stroke-miterlimit="10" fill="none"/></g></svg>