G04 #@! TF.GenerationSoftware,KiCad,Pcbnew,7.0.8-7.0.8~ubuntu22.04.1*
G04 #@! TF.CreationDate,2024-01-26T15:30:58+01:00*
G04 #@! TF.ProjectId,hand,68616e64-2e6b-4696-9361-645f70636258,rev?*
G04 #@! TF.SameCoordinates,Original*
G04 #@! TF.FileFunction,Soldermask,Bot*
G04 #@! TF.FilePolarity,Negative*
%FSLAX46Y46*%
G04 Gerber Fmt 4.6, Leading zero omitted, Abs format (unit mm)*
G04 Created by KiCad (PCBNEW 7.0.8-7.0.8~ubuntu22.04.1) date 2024-01-26 15:30:58*
%MOMM*%
%LPD*%
G01*
G04 APERTURE LIST*
G04 Aperture macros list*
%AMRoundRect*
0 Rectangle with rounded corners*
0 $1 Rounding radius*
0 $2 $3 $4 $5 $6 $7 $8 $9 X,Y pos of 4 corners*
0 Add a 4 corners polygon primitive as box body*
4,1,4,$2,$3,$4,$5,$6,$7,$8,$9,$2,$3,0*
0 Add four circle primitives for the rounded corners*
1,1,$1+$1,$2,$3*
1,1,$1+$1,$4,$5*
1,1,$1+$1,$6,$7*
1,1,$1+$1,$8,$9*
0 Add four rect primitives between the rounded corners*
20,1,$1+$1,$2,$3,$4,$5,0*
20,1,$1+$1,$4,$5,$6,$7,0*
20,1,$1+$1,$6,$7,$8,$9,0*
20,1,$1+$1,$8,$9,$2,$3,0*%
G04 Aperture macros list end*
%ADD10R,2.000000X2.000000*%
%ADD11O,2.000000X2.000000*%
%ADD12O,3.500000X3.500000*%
%ADD13R,2.000000X1.905000*%
%ADD14O,2.000000X1.905000*%
%ADD15C,1.800000*%
%ADD16R,2.200000X2.200000*%
%ADD17O,2.200000X2.200000*%
%ADD18C,0.965200*%
%ADD19R,1.700000X1.700000*%
%ADD20O,1.700000X1.700000*%
%ADD21C,2.200000*%
%ADD22RoundRect,0.225000X-0.225000X-0.250000X0.225000X-0.250000X0.225000X0.250000X-0.225000X0.250000X0*%
%ADD23RoundRect,0.225000X0.225000X0.250000X-0.225000X0.250000X-0.225000X-0.250000X0.225000X-0.250000X0*%
%ADD24RoundRect,0.225000X0.250000X-0.225000X0.250000X0.225000X-0.250000X0.225000X-0.250000X-0.225000X0*%
%ADD25RoundRect,0.225000X-0.250000X0.225000X-0.250000X-0.225000X0.250000X-0.225000X0.250000X0.225000X0*%
G04 APERTURE END LIST*
D10*
X27725000Y-65141460D03*
D11*
X27725000Y-60061460D03*
D10*
X32100000Y-48061460D03*
D11*
X37180000Y-48061460D03*
D12*
X75455000Y-55261460D03*
D13*
X58795000Y-52721460D03*
D14*
X58795000Y-55261460D03*
X58795000Y-57801460D03*
D15*
X31000000Y-88836460D03*
X28460000Y-83756460D03*
X31000000Y-76136460D03*
D16*
X31410000Y-103911460D03*
D17*
X33950000Y-103911460D03*
X36490000Y-103911460D03*
X39030000Y-103911460D03*
X41570000Y-103911460D03*
D12*
X47455000Y-55361460D03*
D13*
X30795000Y-52821460D03*
D14*
X30795000Y-55361460D03*
X30795000Y-57901460D03*
D10*
X54825000Y-61301460D03*
D11*
X54825000Y-56221460D03*
D18*
X53525000Y-34461460D03*
X53525000Y-29581459D03*
D19*
X55725000Y-44061460D03*
D20*
X55725000Y-41521460D03*
D19*
X65650000Y-62686460D03*
D20*
X65650000Y-65226460D03*
D15*
X71125000Y-73261460D03*
X66045000Y-75801460D03*
X58425000Y-73261460D03*
D19*
X65660000Y-23281460D03*
D20*
X68200000Y-23281460D03*
X65660000Y-25821460D03*
X68200000Y-25821460D03*
X65660000Y-28361460D03*
X68200000Y-28361460D03*
X65660000Y-30901460D03*
X68200000Y-30901460D03*
X65660000Y-33441460D03*
X68200000Y-33441460D03*
D10*
X60525000Y-62121460D03*
D11*
X60525000Y-67201460D03*
D19*
X39050000Y-62786460D03*
D20*
X39050000Y-65326460D03*
D16*
X60330000Y-103811460D03*
D17*
X62870000Y-103811460D03*
X65410000Y-103811460D03*
X67950000Y-103811460D03*
X70490000Y-103811460D03*
D21*
X47450000Y-55311460D03*
X75450000Y-55311460D03*
D19*
X59325000Y-35961460D03*
D20*
X61865000Y-35961460D03*
D22*
X45025000Y-37911460D03*
X46575000Y-37911460D03*
D19*
X76250000Y-71361460D03*
D20*
X78790000Y-71361460D03*
X76250000Y-68821460D03*
X78790000Y-68821460D03*
X76250000Y-66281460D03*
X78790000Y-66281460D03*
X76250000Y-63741460D03*
X78790000Y-63741460D03*
D19*
X78665000Y-79681460D03*
D20*
X76125000Y-79681460D03*
X78665000Y-82221460D03*
X76125000Y-82221460D03*
X78665000Y-84761460D03*
X76125000Y-84761460D03*
X78665000Y-87301460D03*
X76125000Y-87301460D03*
D19*
X76925000Y-20761460D03*
D20*
X76925000Y-23301460D03*
X76925000Y-25841460D03*
D23*
X46075000Y-26511460D03*
X44525000Y-26511460D03*
D10*
X38025000Y-69761460D03*
D11*
X53025000Y-69761460D03*
D10*
X33865000Y-71261460D03*
D11*
X28785000Y-71261460D03*
D24*
X47900000Y-30986460D03*
X47900000Y-29436460D03*
D19*
X78700000Y-75461460D03*
D20*
X76160000Y-75461460D03*
D10*
X57125000Y-69961460D03*
D11*
X72125000Y-69961460D03*
D25*
X36600000Y-34936460D03*
X36600000Y-36486460D03*
D23*
X39475000Y-26811460D03*
X37925000Y-26811460D03*
M02*
