M48
; DRILL file {KiCad 7.0.8-7.0.8~ubuntu22.04.1} date Fri 26 Jan 2024 15:31:27 CET
; FORMAT={-:-/ absolute / metric / decimal}
; #@! TF.CreationDate,2024-01-26T15:31:27+01:00
; #@! TF.GenerationSoftware,Kicad,Pcbnew,7.0.8-7.0.8~ubuntu22.04.1
; #@! TF.FileFunction,Plated,1,4,PTH
FMAT,2
METRIC
; #@! TA.AperFunction,Plated,PTH,ViaDrill
T1C0.400
; #@! TA.AperFunction,Plated,PTH,ComponentDrill
T2C0.457
; #@! TA.AperFunction,Plated,PTH,ViaDrill
T3C0.800
; #@! TA.AperFunction,Plated,PTH,ComponentDrill
T4C1.000
; #@! TA.AperFunction,Plated,PTH,ComponentDrill
T5C1.100
; #@! TA.AperFunction,Plated,PTH,ComponentDrill
T6C1.500
%
G90
G05
T1
X28.2Y-22.9
X28.625Y-36.161
X28.7Y-31.2
X29.1Y-107.7
X30.2Y-30.8
X30.625Y-37.261
X30.925Y-34.661
X32.425Y-30.161
X33.1Y-80.0
X33.1Y-81.1
X33.1Y-82.2
X33.2Y-87.3
X33.2Y-88.4
X33.2Y-89.5
X33.598Y-30.061
X34.525Y-30.061
X35.176Y-33.461
X35.3Y-22.9
X36.2Y-107.7
X36.3Y-97.3
X37.3Y-41.4
X38.125Y-36.361
X38.4Y-34.3
X38.425Y-35.461
X38.825Y-28.061
X39.3Y-100.3
X39.318Y-36.418
X40.025Y-28.061
X40.1Y-94.4
X40.5Y-36.0
X41.297Y-94.4
X41.7Y-35.948
X41.8Y-22.9
X41.948Y-40.461
X42.5Y-36.6
X42.625Y-41.261
X42.7Y-107.7
X43.4Y-48.0
X43.9Y-46.6
X44.0Y-71.9
X44.0Y-94.773
X44.0Y-95.7
X44.825Y-28.161
X45.325Y-36.361
X45.925Y-28.161
X46.425Y-36.361
X46.6Y-29.661
X46.6Y-31.1
X46.9Y-67.2
X48.5Y-98.2
X48.5Y-101.9
X48.718Y-65.828
X48.8Y-52.0
X49.4Y-65.2
X49.825Y-83.061
X49.948Y-31.86
X50.096Y-64.5
X50.37Y-31.035
X50.748Y-63.8
X50.9Y-30.0
X51.1Y-87.3
X51.1Y-88.4
X51.1Y-89.5
X51.179Y-28.5
X51.2Y-79.7
X51.2Y-80.8
X51.2Y-81.9
X51.4Y-63.1
X51.475Y-27.399
X51.7Y-26.5
X52.073Y-62.4
X52.3Y-24.3
X53.0Y-36.9
X53.4Y-52.0
X53.5Y-98.3
X53.5Y-101.9
X54.4Y-24.8
X55.0Y-93.3
X55.3Y-84.8
X56.1Y-25.5
X56.6Y-48.773
X56.6Y-49.7
X56.625Y-62.961
X58.9Y-107.3
X62.0Y-86.3
X62.8Y-95.3
X63.8Y-97.4
X63.8Y-101.1
X64.8Y-82.0
X64.9Y-90.7
X66.0Y-107.3
X66.325Y-84.161
X68.0Y-37.9
X68.0Y-39.3
X68.4Y-85.9
X68.8Y-97.5
X68.8Y-101.1
X69.7Y-39.9
X71.9Y-86.0
X72.5Y-107.3
X76.125Y-37.361
X76.125Y-38.961
X76.4Y-43.4
T2
X53.525Y-29.581
X53.525Y-34.461
T3
X36.9Y-74.4
T4
X27.725Y-60.061
X27.725Y-65.141
X28.46Y-83.756
X28.785Y-71.261
X31.0Y-76.136
X31.0Y-88.836
X32.1Y-48.061
X33.865Y-71.261
X37.18Y-48.061
X38.025Y-69.761
X39.05Y-62.786
X39.05Y-65.326
X53.025Y-69.761
X54.825Y-56.221
X54.825Y-61.301
X55.725Y-41.521
X55.725Y-44.061
X57.125Y-69.961
X58.425Y-73.261
X59.325Y-35.961
X60.525Y-62.121
X60.525Y-67.201
X61.865Y-35.961
X65.65Y-62.686
X65.65Y-65.226
X65.66Y-23.281
X65.66Y-25.821
X65.66Y-28.361
X65.66Y-30.901
X65.66Y-33.441
X66.045Y-75.801
X68.2Y-23.281
X68.2Y-25.821
X68.2Y-28.361
X68.2Y-30.901
X68.2Y-33.441
X71.125Y-73.261
X72.125Y-69.961
X76.125Y-79.681
X76.125Y-82.221
X76.125Y-84.761
X76.125Y-87.301
X76.16Y-75.461
X76.25Y-63.741
X76.25Y-66.281
X76.25Y-68.821
X76.25Y-71.361
X76.925Y-20.761
X76.925Y-23.301
X76.925Y-25.841
X78.665Y-79.681
X78.665Y-82.221
X78.665Y-84.761
X78.665Y-87.301
X78.7Y-75.461
X78.79Y-63.741
X78.79Y-66.281
X78.79Y-68.821
X78.79Y-71.361
T5
X30.795Y-52.821
X30.795Y-55.361
X30.795Y-57.901
X58.795Y-52.721
X58.795Y-55.261
X58.795Y-57.801
T6
X31.41Y-103.911
X33.95Y-103.911
X36.49Y-103.911
X39.03Y-103.911
X41.57Y-103.911
X60.33Y-103.811
X62.87Y-103.811
X65.41Y-103.811
X67.95Y-103.811
X70.49Y-103.811
T0
M30
