G04 #@! TF.GenerationSoftware,KiCad,Pcbnew,7.0.8-7.0.8~ubuntu22.04.1*
G04 #@! TF.CreationDate,2024-01-26T15:30:58+01:00*
G04 #@! TF.ProjectId,hand,68616e64-2e6b-4696-9361-645f70636258,rev?*
G04 #@! TF.SameCoordinates,Original*
G04 #@! TF.FileFunction,Legend,Bot*
G04 #@! TF.FilePolarity,Positive*
%FSLAX46Y46*%
G04 Gerber Fmt 4.6, Leading zero omitted, Abs format (unit mm)*
G04 Created by KiCad (PCBNEW 7.0.8-7.0.8~ubuntu22.04.1) date 2024-01-26 15:30:58*
%MOMM*%
%LPD*%
G01*
G04 APERTURE LIST*
G04 Aperture macros list*
%AMRoundRect*
0 Rectangle with rounded corners*
0 $1 Rounding radius*
0 $2 $3 $4 $5 $6 $7 $8 $9 X,Y pos of 4 corners*
0 Add a 4 corners polygon primitive as box body*
4,1,4,$2,$3,$4,$5,$6,$7,$8,$9,$2,$3,0*
0 Add four circle primitives for the rounded corners*
1,1,$1+$1,$2,$3*
1,1,$1+$1,$4,$5*
1,1,$1+$1,$6,$7*
1,1,$1+$1,$8,$9*
0 Add four rect primitives between the rounded corners*
20,1,$1+$1,$2,$3,$4,$5,0*
20,1,$1+$1,$4,$5,$6,$7,0*
20,1,$1+$1,$6,$7,$8,$9,0*
20,1,$1+$1,$8,$9,$2,$3,0*%
G04 Aperture macros list end*
%ADD10C,0.250000*%
%ADD11C,0.300000*%
%ADD12C,0.150000*%
%ADD13C,0.120000*%
%ADD14R,2.000000X2.000000*%
%ADD15O,2.000000X2.000000*%
%ADD16O,3.500000X3.500000*%
%ADD17R,2.000000X1.905000*%
%ADD18O,2.000000X1.905000*%
%ADD19C,1.800000*%
%ADD20R,2.200000X2.200000*%
%ADD21O,2.200000X2.200000*%
%ADD22C,0.965200*%
%ADD23R,1.700000X1.700000*%
%ADD24O,1.700000X1.700000*%
%ADD25C,2.200000*%
%ADD26RoundRect,0.225000X-0.225000X-0.250000X0.225000X-0.250000X0.225000X0.250000X-0.225000X0.250000X0*%
%ADD27RoundRect,0.225000X0.225000X0.250000X-0.225000X0.250000X-0.225000X-0.250000X0.225000X-0.250000X0*%
%ADD28RoundRect,0.225000X0.250000X-0.225000X0.250000X0.225000X-0.250000X0.225000X-0.250000X-0.225000X0*%
%ADD29RoundRect,0.225000X-0.250000X0.225000X-0.250000X-0.225000X0.250000X-0.225000X0.250000X0.225000X0*%
G04 APERTURE END LIST*
D10*
G36*
X50535938Y-107499617D02*
G01*
X50535938Y-108006177D01*
X50324912Y-108006177D01*
X50302959Y-108007548D01*
X50281527Y-108012815D01*
X50263294Y-108023951D01*
X50252355Y-108040464D01*
X50248709Y-108062353D01*
X50251388Y-108082440D01*
X50261285Y-108100622D01*
X50278476Y-108113148D01*
X50299015Y-108119382D01*
X50320224Y-108121402D01*
X50324912Y-108121460D01*
X50803140Y-108121460D01*
X50824952Y-108120016D01*
X50846247Y-108114475D01*
X50864363Y-108102758D01*
X50875232Y-108085384D01*
X50878781Y-108065989D01*
X50878855Y-108062353D01*
X50875232Y-108040464D01*
X50864363Y-108023951D01*
X50846247Y-108012815D01*
X50824952Y-108007548D01*
X50803140Y-108006177D01*
X50651221Y-108006177D01*
X50651221Y-106652583D01*
X50803140Y-106652583D01*
X50824952Y-106651140D01*
X50846247Y-106645599D01*
X50864363Y-106633881D01*
X50875232Y-106616507D01*
X50878781Y-106597113D01*
X50878855Y-106593476D01*
X50875232Y-106571587D01*
X50864363Y-106555075D01*
X50846247Y-106543938D01*
X50824952Y-106538672D01*
X50803140Y-106537300D01*
X50324912Y-106537300D01*
X50302959Y-106538672D01*
X50281527Y-106543938D01*
X50263294Y-106555075D01*
X50252355Y-106571587D01*
X50248709Y-106593476D01*
X50251388Y-106613563D01*
X50261285Y-106631746D01*
X50278476Y-106644271D01*
X50299015Y-106650505D01*
X50320224Y-106652525D01*
X50324912Y-106652583D01*
X50535938Y-106652583D01*
X50535938Y-107353560D01*
X49748011Y-106652583D01*
X49874528Y-106652583D01*
X49897185Y-106651140D01*
X49919305Y-106645599D01*
X49938121Y-106633881D01*
X49949411Y-106616507D01*
X49953098Y-106597113D01*
X49953175Y-106593476D01*
X49949411Y-106571587D01*
X49938121Y-106555075D01*
X49919305Y-106543938D01*
X49897185Y-106538672D01*
X49874528Y-106537300D01*
X49542358Y-106537300D01*
X49519701Y-106538672D01*
X49497582Y-106543938D01*
X49478765Y-106555075D01*
X49467475Y-106571587D01*
X49463712Y-106593476D01*
X49466477Y-106613563D01*
X49476692Y-106631746D01*
X49494433Y-106644271D01*
X49515631Y-106650505D01*
X49537520Y-106652525D01*
X49542358Y-106652583D01*
X49587299Y-106652583D01*
X50212072Y-107209945D01*
X50186789Y-107220778D01*
X50162231Y-107232148D01*
X50138399Y-107244057D01*
X50115291Y-107256504D01*
X50092908Y-107269489D01*
X50071251Y-107283012D01*
X50050318Y-107297073D01*
X50030111Y-107311672D01*
X50010629Y-107326810D01*
X49991872Y-107342485D01*
X49973840Y-107358699D01*
X49956533Y-107375450D01*
X49939951Y-107392740D01*
X49924094Y-107410568D01*
X49908963Y-107428934D01*
X49894556Y-107447838D01*
X49880276Y-107467936D01*
X49865644Y-107490008D01*
X49850661Y-107514052D01*
X49835327Y-107540070D01*
X49819643Y-107568061D01*
X49803606Y-107598024D01*
X49787219Y-107629961D01*
X49770481Y-107663871D01*
X49761980Y-107681565D01*
X49753392Y-107699753D01*
X49744715Y-107718434D01*
X49735951Y-107737609D01*
X49727099Y-107757277D01*
X49718160Y-107777438D01*
X49709132Y-107798092D01*
X49700017Y-107819240D01*
X49690814Y-107840880D01*
X49681523Y-107863014D01*
X49672145Y-107885642D01*
X49662678Y-107908762D01*
X49653124Y-107932376D01*
X49643482Y-107956483D01*
X49633753Y-107981083D01*
X49623935Y-108006177D01*
X49466643Y-108006177D01*
X49444690Y-108007548D01*
X49423257Y-108012815D01*
X49405025Y-108023951D01*
X49394086Y-108040464D01*
X49390439Y-108062353D01*
X49393118Y-108082440D01*
X49403016Y-108100622D01*
X49420206Y-108113148D01*
X49440746Y-108119382D01*
X49461955Y-108121402D01*
X49466643Y-108121460D01*
X49711374Y-108121460D01*
X49721019Y-108094970D01*
X49730599Y-108068989D01*
X49740112Y-108043518D01*
X49749560Y-108018557D01*
X49758942Y-107994105D01*
X49768258Y-107970163D01*
X49777508Y-107946730D01*
X49786693Y-107923806D01*
X49795811Y-107901392D01*
X49804864Y-107879487D01*
X49813851Y-107858092D01*
X49822772Y-107837207D01*
X49831627Y-107816830D01*
X49840417Y-107796964D01*
X49849140Y-107777607D01*
X49857798Y-107758759D01*
X49866390Y-107740421D01*
X49874916Y-107722592D01*
X49891770Y-107688463D01*
X49908362Y-107656372D01*
X49924690Y-107626318D01*
X49940755Y-107598303D01*
X49956556Y-107572325D01*
X49972094Y-107548386D01*
X49987369Y-107526484D01*
X50002760Y-107505943D01*
X50018769Y-107486207D01*
X50035397Y-107467276D01*
X50052643Y-107449151D01*
X50070507Y-107431830D01*
X50088989Y-107415315D01*
X50108089Y-107399605D01*
X50127808Y-107384701D01*
X50148145Y-107370602D01*
X50169101Y-107357308D01*
X50190674Y-107344819D01*
X50212866Y-107333135D01*
X50235676Y-107322257D01*
X50259104Y-107312184D01*
X50283151Y-107302916D01*
X50307815Y-107294453D01*
X50535938Y-107499617D01*
G37*
G36*
X49146515Y-106538672D02*
G01*
X49167810Y-106543938D01*
X49185926Y-106555075D01*
X49196795Y-106571587D01*
X49200418Y-106593476D01*
X49200344Y-106597113D01*
X49196795Y-106616507D01*
X49185926Y-106633881D01*
X49167810Y-106645599D01*
X49146515Y-106651140D01*
X49124703Y-106652583D01*
X48972784Y-106652583D01*
X48972784Y-108006177D01*
X49124703Y-108006177D01*
X49146515Y-108007548D01*
X49167810Y-108012815D01*
X49185926Y-108023951D01*
X49196795Y-108040464D01*
X49200418Y-108062353D01*
X49200344Y-108065989D01*
X49196795Y-108085384D01*
X49185926Y-108102758D01*
X49167810Y-108114475D01*
X49146515Y-108120016D01*
X49124703Y-108121460D01*
X48646475Y-108121460D01*
X48641787Y-108121402D01*
X48620578Y-108119382D01*
X48600039Y-108113148D01*
X48582848Y-108100622D01*
X48572951Y-108082440D01*
X48570272Y-108062353D01*
X48573918Y-108040464D01*
X48584858Y-108023951D01*
X48603090Y-108012815D01*
X48624522Y-108007548D01*
X48646475Y-108006177D01*
X48857501Y-108006177D01*
X48857501Y-107415109D01*
X48485764Y-107415109D01*
X48465894Y-107424549D01*
X48446341Y-107434549D01*
X48427105Y-107445111D01*
X48408186Y-107456234D01*
X48389583Y-107467917D01*
X48371298Y-107480162D01*
X48353329Y-107492967D01*
X48335676Y-107506334D01*
X48318341Y-107520261D01*
X48301322Y-107534750D01*
X48284620Y-107549800D01*
X48268235Y-107565410D01*
X48252166Y-107581582D01*
X48236415Y-107598314D01*
X48220980Y-107615608D01*
X48205861Y-107633462D01*
X48190644Y-107652313D01*
X48174911Y-107672717D01*
X48158663Y-107694674D01*
X48141900Y-107718184D01*
X48124622Y-107743248D01*
X48106828Y-107769864D01*
X48088520Y-107798034D01*
X48069696Y-107827757D01*
X48050357Y-107859034D01*
X48030503Y-107891864D01*
X48020382Y-107908861D01*
X48010133Y-107926246D01*
X47999755Y-107944020D01*
X47989248Y-107962183D01*
X47978613Y-107980733D01*
X47967849Y-107999672D01*
X47956955Y-108018999D01*
X47945934Y-108038715D01*
X47934783Y-108058818D01*
X47923503Y-108079310D01*
X47912095Y-108100191D01*
X47900558Y-108121460D01*
X47740334Y-108121460D01*
X47735646Y-108121402D01*
X47714437Y-108119382D01*
X47693898Y-108113148D01*
X47676707Y-108100622D01*
X47666810Y-108082440D01*
X47664131Y-108062353D01*
X47667777Y-108040464D01*
X47678717Y-108023951D01*
X47696949Y-108012815D01*
X47718381Y-108007548D01*
X47740334Y-108006177D01*
X47827285Y-108006177D01*
X47837951Y-107987551D01*
X47848458Y-107969289D01*
X47858804Y-107951388D01*
X47868989Y-107933850D01*
X47879015Y-107916675D01*
X47898585Y-107883412D01*
X47917514Y-107851600D01*
X47935801Y-107821237D01*
X47953448Y-107792325D01*
X47970453Y-107764863D01*
X47986817Y-107738851D01*
X48002541Y-107714290D01*
X48017623Y-107691178D01*
X48032063Y-107669517D01*
X48045863Y-107649306D01*
X48059022Y-107630545D01*
X48071539Y-107613234D01*
X48089113Y-107589987D01*
X48100514Y-107575617D01*
X48118239Y-107554441D01*
X48136710Y-107533720D01*
X48155928Y-107513454D01*
X48175894Y-107493643D01*
X48196606Y-107474287D01*
X48218066Y-107455386D01*
X48240272Y-107436941D01*
X48263226Y-107418950D01*
X48278943Y-107407209D01*
X48294993Y-107395671D01*
X48311374Y-107384335D01*
X48287332Y-107375744D01*
X48264052Y-107366885D01*
X48241536Y-107357757D01*
X48219783Y-107348362D01*
X48198794Y-107338699D01*
X48178567Y-107328767D01*
X48159104Y-107318568D01*
X48140404Y-107308100D01*
X48122468Y-107297365D01*
X48105294Y-107286361D01*
X48073237Y-107263549D01*
X48044234Y-107239665D01*
X48018283Y-107214708D01*
X47995385Y-107188679D01*
X47975540Y-107161577D01*
X47958749Y-107133404D01*
X47945010Y-107104158D01*
X47934324Y-107073839D01*
X47926692Y-107042448D01*
X47922112Y-107009985D01*
X47920586Y-106976449D01*
X47920664Y-106973518D01*
X48035868Y-106973518D01*
X48036441Y-106990218D01*
X48039446Y-107014696D01*
X48045027Y-107038487D01*
X48053185Y-107061591D01*
X48063918Y-107084007D01*
X48077227Y-107105737D01*
X48093113Y-107126781D01*
X48111574Y-107147137D01*
X48132611Y-107166806D01*
X48148067Y-107179537D01*
X48164668Y-107191963D01*
X48182414Y-107204083D01*
X48200914Y-107215677D01*
X48219898Y-107226523D01*
X48239366Y-107236621D01*
X48259320Y-107245971D01*
X48279758Y-107254573D01*
X48300681Y-107262427D01*
X48322088Y-107269533D01*
X48343981Y-107275891D01*
X48366358Y-107281501D01*
X48389219Y-107286363D01*
X48412565Y-107290477D01*
X48436396Y-107293843D01*
X48460712Y-107296461D01*
X48485512Y-107298331D01*
X48510797Y-107299453D01*
X48536566Y-107299827D01*
X48857501Y-107299827D01*
X48857501Y-106652583D01*
X48426657Y-106652583D01*
X48407795Y-106652963D01*
X48379981Y-106654956D01*
X48352743Y-106658659D01*
X48326080Y-106664070D01*
X48299992Y-106671189D01*
X48274480Y-106680018D01*
X48249543Y-106690555D01*
X48225181Y-106702801D01*
X48201394Y-106716756D01*
X48178183Y-106732419D01*
X48155547Y-106749792D01*
X48141055Y-106762057D01*
X48121069Y-106780885D01*
X48103188Y-106800228D01*
X48087410Y-106820086D01*
X48073735Y-106840459D01*
X48062165Y-106861348D01*
X48052698Y-106882751D01*
X48045335Y-106904670D01*
X48040076Y-106927104D01*
X48036920Y-106950054D01*
X48035868Y-106973518D01*
X47920664Y-106973518D01*
X47921173Y-106954465D01*
X47922937Y-106932844D01*
X47925875Y-106911585D01*
X47929989Y-106890689D01*
X47935278Y-106870156D01*
X47941743Y-106849985D01*
X47949383Y-106830176D01*
X47958199Y-106810730D01*
X47968190Y-106791647D01*
X47979357Y-106772926D01*
X47991699Y-106754568D01*
X48005216Y-106736572D01*
X48019909Y-106718939D01*
X48035777Y-106701668D01*
X48052820Y-106684760D01*
X48071039Y-106668215D01*
X48090060Y-106652362D01*
X48109508Y-106637532D01*
X48129383Y-106623724D01*
X48149685Y-106610940D01*
X48170416Y-106599178D01*
X48191573Y-106588439D01*
X48213158Y-106578722D01*
X48235170Y-106570029D01*
X48257610Y-106562358D01*
X48280478Y-106555710D01*
X48303772Y-106550085D01*
X48327494Y-106545483D01*
X48351644Y-106541903D01*
X48376221Y-106539346D01*
X48401225Y-106537812D01*
X48426657Y-106537300D01*
X49124703Y-106537300D01*
X49146515Y-106538672D01*
G37*
G36*
X46742847Y-106652583D02*
G01*
X46742847Y-108006177D01*
X46351570Y-108006177D01*
X46328913Y-108007548D01*
X46306794Y-108012815D01*
X46287977Y-108023951D01*
X46276687Y-108040464D01*
X46272923Y-108062353D01*
X46275688Y-108082440D01*
X46285903Y-108100622D01*
X46303645Y-108113148D01*
X46324842Y-108119382D01*
X46346731Y-108121402D01*
X46351570Y-108121460D01*
X47249406Y-108121460D01*
X47271219Y-108120016D01*
X47292514Y-108114475D01*
X47310629Y-108102758D01*
X47321499Y-108085384D01*
X47325048Y-108065989D01*
X47325122Y-108062353D01*
X47321499Y-108040464D01*
X47310629Y-108023951D01*
X47292514Y-108012815D01*
X47271219Y-108007548D01*
X47249406Y-108006177D01*
X46858129Y-108006177D01*
X46858129Y-106652583D01*
X47249406Y-106652583D01*
X47271219Y-106651140D01*
X47292514Y-106645599D01*
X47310629Y-106633881D01*
X47321499Y-106616507D01*
X47325048Y-106597113D01*
X47325122Y-106593476D01*
X47321499Y-106571587D01*
X47310629Y-106555075D01*
X47292514Y-106543938D01*
X47271219Y-106538672D01*
X47249406Y-106537300D01*
X46351570Y-106537300D01*
X46328913Y-106538672D01*
X46306794Y-106543938D01*
X46287977Y-106555075D01*
X46276687Y-106571587D01*
X46272923Y-106593476D01*
X46275688Y-106613563D01*
X46285903Y-106631746D01*
X46303645Y-106644271D01*
X46324842Y-106650505D01*
X46346731Y-106652525D01*
X46351570Y-106652583D01*
X46742847Y-106652583D01*
G37*
G36*
X44658967Y-107691104D02*
G01*
X44659611Y-107669334D01*
X44661543Y-107648353D01*
X44664763Y-107628163D01*
X44669271Y-107608763D01*
X44677285Y-107584125D01*
X44687589Y-107560892D01*
X44700183Y-107539062D01*
X44715066Y-107518638D01*
X44732240Y-107499617D01*
X44751107Y-107482070D01*
X44771074Y-107466064D01*
X44792140Y-107451601D01*
X44814305Y-107438679D01*
X44837569Y-107427298D01*
X44855739Y-107419775D01*
X44874526Y-107413119D01*
X44893932Y-107407330D01*
X44913956Y-107402409D01*
X44934378Y-107397873D01*
X44955161Y-107393244D01*
X44976304Y-107388520D01*
X44997808Y-107383701D01*
X45019672Y-107378788D01*
X45041898Y-107373781D01*
X45064483Y-107368679D01*
X45087430Y-107363482D01*
X45110737Y-107358192D01*
X45134404Y-107352806D01*
X45150383Y-107349164D01*
X45174208Y-107343555D01*
X45197690Y-107337904D01*
X45220828Y-107332209D01*
X45243623Y-107326472D01*
X45266074Y-107320692D01*
X45288182Y-107314868D01*
X45309946Y-107309002D01*
X45331367Y-107303093D01*
X45352445Y-107297141D01*
X45373179Y-107291146D01*
X45386810Y-107287126D01*
X45406747Y-107280587D01*
X45426074Y-107273061D01*
X45444792Y-107264547D01*
X45462900Y-107255046D01*
X45480398Y-107244558D01*
X45497286Y-107233081D01*
X45513565Y-107220618D01*
X45529234Y-107207167D01*
X45544294Y-107192728D01*
X45558744Y-107177303D01*
X45568039Y-107166470D01*
X45581133Y-107149345D01*
X45592940Y-107131310D01*
X45603459Y-107112365D01*
X45612689Y-107092510D01*
X45620632Y-107071745D01*
X45627287Y-107050069D01*
X45632653Y-107027483D01*
X45636732Y-107003987D01*
X45639523Y-106979581D01*
X45641025Y-106954265D01*
X45641311Y-106936882D01*
X45640735Y-106913915D01*
X45639006Y-106891422D01*
X45636125Y-106869402D01*
X45632091Y-106847855D01*
X45626905Y-106826782D01*
X45620566Y-106806181D01*
X45613075Y-106786054D01*
X45604431Y-106766400D01*
X45594634Y-106747219D01*
X45583685Y-106728512D01*
X45571584Y-106710278D01*
X45558330Y-106692517D01*
X45543923Y-106675229D01*
X45528364Y-106658414D01*
X45511653Y-106642073D01*
X45493789Y-106626205D01*
X45474997Y-106611003D01*
X45455626Y-106596781D01*
X45435674Y-106583541D01*
X45415143Y-106571281D01*
X45394031Y-106560002D01*
X45372339Y-106549703D01*
X45350067Y-106540386D01*
X45327215Y-106532049D01*
X45303783Y-106524693D01*
X45279771Y-106518318D01*
X45255179Y-106512924D01*
X45230006Y-106508510D01*
X45204254Y-106505078D01*
X45177922Y-106502626D01*
X45151009Y-106501154D01*
X45123517Y-106500664D01*
X45093519Y-106501313D01*
X45064097Y-106503259D01*
X45035251Y-106506503D01*
X45006982Y-106511044D01*
X44979289Y-106516883D01*
X44952173Y-106524020D01*
X44925632Y-106532454D01*
X44899668Y-106542185D01*
X44874280Y-106553214D01*
X44849468Y-106565541D01*
X44825233Y-106579165D01*
X44801574Y-106594087D01*
X44778491Y-106610306D01*
X44755985Y-106627823D01*
X44734054Y-106646637D01*
X44712700Y-106666749D01*
X44712700Y-106613504D01*
X44711257Y-106591551D01*
X44705716Y-106570119D01*
X44693998Y-106551886D01*
X44676624Y-106540947D01*
X44657230Y-106537375D01*
X44653593Y-106537300D01*
X44631705Y-106540947D01*
X44615192Y-106551886D01*
X44604055Y-106570119D01*
X44598789Y-106591551D01*
X44597418Y-106613504D01*
X44597418Y-106903176D01*
X44598789Y-106924989D01*
X44604055Y-106946284D01*
X44615192Y-106964399D01*
X44631705Y-106975268D01*
X44653593Y-106978891D01*
X44675622Y-106975666D01*
X44694559Y-106964079D01*
X44705669Y-106947029D01*
X44711135Y-106927280D01*
X44712700Y-106911480D01*
X44715197Y-106888128D01*
X44719575Y-106865513D01*
X44725833Y-106843637D01*
X44733972Y-106822500D01*
X44743991Y-106802101D01*
X44755891Y-106782440D01*
X44769671Y-106763518D01*
X44785332Y-106745334D01*
X44802873Y-106727889D01*
X44822295Y-106711182D01*
X44836287Y-106700455D01*
X44858323Y-106685352D01*
X44881201Y-106671735D01*
X44904920Y-106659604D01*
X44929481Y-106648958D01*
X44954883Y-106639797D01*
X44981127Y-106632122D01*
X45008212Y-106625932D01*
X45036139Y-106621228D01*
X45064907Y-106618010D01*
X45084553Y-106616689D01*
X45104573Y-106616029D01*
X45114724Y-106615947D01*
X45136345Y-106616311D01*
X45157489Y-106617404D01*
X45178156Y-106619227D01*
X45198346Y-106621778D01*
X45218060Y-106625058D01*
X45237296Y-106629067D01*
X45265255Y-106636447D01*
X45292141Y-106645468D01*
X45317954Y-106656128D01*
X45342694Y-106668428D01*
X45366360Y-106682369D01*
X45388953Y-106697949D01*
X45403419Y-106709247D01*
X45423759Y-106727045D01*
X45442099Y-106745632D01*
X45458438Y-106765009D01*
X45472776Y-106785176D01*
X45485114Y-106806134D01*
X45495451Y-106827881D01*
X45503787Y-106850418D01*
X45510122Y-106873745D01*
X45514457Y-106897862D01*
X45516791Y-106922769D01*
X45517236Y-106939813D01*
X45516596Y-106959964D01*
X45513753Y-106985697D01*
X45508636Y-107010133D01*
X45501243Y-107033271D01*
X45491577Y-107055112D01*
X45479636Y-107075655D01*
X45465420Y-107094901D01*
X45448930Y-107112849D01*
X45444452Y-107117133D01*
X45425584Y-107133306D01*
X45405617Y-107148121D01*
X45384551Y-107161577D01*
X45362386Y-107173675D01*
X45339122Y-107184414D01*
X45314759Y-107193795D01*
X45295765Y-107199938D01*
X45276153Y-107205318D01*
X45262735Y-107208480D01*
X45242230Y-107213041D01*
X45221382Y-107217748D01*
X45200190Y-107222601D01*
X45178654Y-107227599D01*
X45156776Y-107232744D01*
X45134553Y-107238035D01*
X45111988Y-107243472D01*
X45089078Y-107249055D01*
X45065826Y-107254783D01*
X45042230Y-107260658D01*
X45026308Y-107264656D01*
X45002483Y-107270718D01*
X44979001Y-107276814D01*
X44955863Y-107282945D01*
X44933068Y-107289110D01*
X44910617Y-107295310D01*
X44888509Y-107301544D01*
X44866745Y-107307812D01*
X44845324Y-107314115D01*
X44824247Y-107320452D01*
X44803513Y-107326823D01*
X44789881Y-107331090D01*
X44769861Y-107337942D01*
X44750468Y-107345859D01*
X44731702Y-107354840D01*
X44713563Y-107364887D01*
X44696050Y-107375998D01*
X44679164Y-107388174D01*
X44662906Y-107401414D01*
X44647274Y-107415720D01*
X44632268Y-107431090D01*
X44617890Y-107447525D01*
X44608653Y-107459073D01*
X44595558Y-107477096D01*
X44583751Y-107495996D01*
X44573233Y-107515771D01*
X44564002Y-107536422D01*
X44556059Y-107557948D01*
X44549405Y-107580351D01*
X44544038Y-107603629D01*
X44539959Y-107627784D01*
X44537169Y-107652814D01*
X44535666Y-107678720D01*
X44535380Y-107696477D01*
X44536017Y-107721897D01*
X44537929Y-107746745D01*
X44541116Y-107771021D01*
X44545577Y-107794724D01*
X44551313Y-107817854D01*
X44558323Y-107840412D01*
X44566609Y-107862398D01*
X44576168Y-107883811D01*
X44587003Y-107904652D01*
X44599112Y-107924920D01*
X44612496Y-107944616D01*
X44627154Y-107963740D01*
X44643087Y-107982291D01*
X44660295Y-108000269D01*
X44678777Y-108017675D01*
X44698534Y-108034509D01*
X44719279Y-108050480D01*
X44740727Y-108065421D01*
X44762877Y-108079331D01*
X44785729Y-108092211D01*
X44809283Y-108104061D01*
X44833539Y-108114880D01*
X44858498Y-108124669D01*
X44884159Y-108133427D01*
X44910522Y-108141155D01*
X44937587Y-108147853D01*
X44965354Y-108153520D01*
X44993824Y-108158157D01*
X45022995Y-108161763D01*
X45052869Y-108164339D01*
X45083446Y-108165885D01*
X45114724Y-108166400D01*
X45151559Y-108165608D01*
X45187447Y-108163233D01*
X45222389Y-108159273D01*
X45256385Y-108153730D01*
X45289434Y-108146603D01*
X45321536Y-108137892D01*
X45352693Y-108127598D01*
X45382903Y-108115720D01*
X45412166Y-108102258D01*
X45440483Y-108087212D01*
X45467853Y-108070583D01*
X45494277Y-108052369D01*
X45519755Y-108032572D01*
X45544286Y-108011191D01*
X45567871Y-107988227D01*
X45590509Y-107963679D01*
X45590509Y-108045256D01*
X45591952Y-108067209D01*
X45597493Y-108088641D01*
X45609211Y-108106874D01*
X45626585Y-108117813D01*
X45645979Y-108121385D01*
X45649616Y-108121460D01*
X45671505Y-108117813D01*
X45688017Y-108106874D01*
X45699154Y-108088641D01*
X45704420Y-108067209D01*
X45705792Y-108045256D01*
X45705792Y-107730182D01*
X45704349Y-107708370D01*
X45698807Y-107687075D01*
X45687090Y-107668960D01*
X45669716Y-107658090D01*
X45650321Y-107654541D01*
X45646685Y-107654467D01*
X45625798Y-107657693D01*
X45607823Y-107669279D01*
X45597254Y-107686329D01*
X45592028Y-107706079D01*
X45590509Y-107721878D01*
X45588251Y-107747338D01*
X45583674Y-107772059D01*
X45576779Y-107796041D01*
X45567565Y-107819285D01*
X45556033Y-107841791D01*
X45542183Y-107863558D01*
X45526014Y-107884587D01*
X45507527Y-107904877D01*
X45486722Y-107924429D01*
X45471564Y-107937053D01*
X45455375Y-107949349D01*
X45446894Y-107955374D01*
X45429465Y-107966968D01*
X45411616Y-107977814D01*
X45393348Y-107987912D01*
X45374659Y-107997262D01*
X45355551Y-108005864D01*
X45336023Y-108013718D01*
X45316075Y-108020824D01*
X45295708Y-108027182D01*
X45274920Y-108032792D01*
X45253713Y-108037654D01*
X45232086Y-108041768D01*
X45210040Y-108045134D01*
X45187573Y-108047752D01*
X45164687Y-108049622D01*
X45141381Y-108050744D01*
X45117655Y-108051118D01*
X45093305Y-108050717D01*
X45069470Y-108049515D01*
X45046151Y-108047511D01*
X45023346Y-108044706D01*
X45001057Y-108041100D01*
X44979284Y-108036692D01*
X44958025Y-108031483D01*
X44937281Y-108025472D01*
X44917053Y-108018660D01*
X44897340Y-108011046D01*
X44878142Y-108002632D01*
X44859460Y-107993415D01*
X44841292Y-107983397D01*
X44823640Y-107972578D01*
X44806503Y-107960958D01*
X44789881Y-107948536D01*
X44774028Y-107935509D01*
X44759198Y-107922073D01*
X44745391Y-107908230D01*
X44726597Y-107886699D01*
X44710105Y-107864249D01*
X44695914Y-107840880D01*
X44684024Y-107816593D01*
X44674436Y-107791387D01*
X44667149Y-107765262D01*
X44662163Y-107738218D01*
X44659478Y-107710256D01*
X44658967Y-107691104D01*
G37*
G36*
X43383042Y-108006177D02*
G01*
X43087508Y-108006177D01*
X43065696Y-108007548D01*
X43044401Y-108012815D01*
X43026285Y-108023951D01*
X43015416Y-108040464D01*
X43011793Y-108062353D01*
X43014455Y-108082440D01*
X43024289Y-108100622D01*
X43041369Y-108113148D01*
X43061777Y-108119382D01*
X43082850Y-108121402D01*
X43087508Y-108121460D01*
X43793859Y-108121460D01*
X43815812Y-108120016D01*
X43837244Y-108114475D01*
X43855476Y-108102758D01*
X43866416Y-108085384D01*
X43869988Y-108065989D01*
X43870062Y-108062353D01*
X43866416Y-108040464D01*
X43855476Y-108023951D01*
X43837244Y-108012815D01*
X43815812Y-108007548D01*
X43793859Y-108006177D01*
X43498325Y-108006177D01*
X43498325Y-106652583D01*
X43968248Y-106652583D01*
X43968248Y-106858235D01*
X43969691Y-106880048D01*
X43975232Y-106901343D01*
X43986950Y-106919458D01*
X44004324Y-106930328D01*
X44023718Y-106933877D01*
X44027355Y-106933951D01*
X44049244Y-106930328D01*
X44065756Y-106919458D01*
X44076893Y-106901343D01*
X44082159Y-106880048D01*
X44083531Y-106858235D01*
X44083531Y-106537300D01*
X42800767Y-106537300D01*
X42800767Y-106858235D01*
X42802139Y-106880048D01*
X42807405Y-106901343D01*
X42818542Y-106919458D01*
X42835054Y-106930328D01*
X42856943Y-106933951D01*
X42876211Y-106930484D01*
X42893896Y-106918997D01*
X42899441Y-106912946D01*
X42909562Y-106895406D01*
X42914736Y-106876190D01*
X42916050Y-106858235D01*
X42916050Y-106652583D01*
X43383042Y-106652583D01*
X43383042Y-108006177D01*
G37*
G36*
X41707536Y-106652583D02*
G01*
X41707536Y-108006177D01*
X41316259Y-108006177D01*
X41293602Y-108007548D01*
X41271483Y-108012815D01*
X41252666Y-108023951D01*
X41241376Y-108040464D01*
X41237613Y-108062353D01*
X41240378Y-108082440D01*
X41250593Y-108100622D01*
X41268334Y-108113148D01*
X41289532Y-108119382D01*
X41311421Y-108121402D01*
X41316259Y-108121460D01*
X42214096Y-108121460D01*
X42235908Y-108120016D01*
X42257203Y-108114475D01*
X42275319Y-108102758D01*
X42286188Y-108085384D01*
X42289737Y-108065989D01*
X42289811Y-108062353D01*
X42286188Y-108040464D01*
X42275319Y-108023951D01*
X42257203Y-108012815D01*
X42235908Y-108007548D01*
X42214096Y-108006177D01*
X41822819Y-108006177D01*
X41822819Y-106652583D01*
X42214096Y-106652583D01*
X42235908Y-106651140D01*
X42257203Y-106645599D01*
X42275319Y-106633881D01*
X42286188Y-106616507D01*
X42289737Y-106597113D01*
X42289811Y-106593476D01*
X42286188Y-106571587D01*
X42275319Y-106555075D01*
X42257203Y-106543938D01*
X42235908Y-106538672D01*
X42214096Y-106537300D01*
X41316259Y-106537300D01*
X41293602Y-106538672D01*
X41271483Y-106543938D01*
X41252666Y-106555075D01*
X41241376Y-106571587D01*
X41237613Y-106593476D01*
X41240378Y-106613563D01*
X41250593Y-106631746D01*
X41268334Y-106644271D01*
X41289532Y-106650505D01*
X41311421Y-106652525D01*
X41316259Y-106652583D01*
X41707536Y-106652583D01*
G37*
G36*
X40596691Y-106538672D02*
G01*
X40618123Y-106543938D01*
X40636356Y-106555075D01*
X40647295Y-106571587D01*
X40650942Y-106593476D01*
X40650867Y-106597113D01*
X40647295Y-106616507D01*
X40636356Y-106633881D01*
X40618123Y-106645599D01*
X40596691Y-106651140D01*
X40574738Y-106652583D01*
X40237194Y-106652583D01*
X40740823Y-108006177D01*
X40828262Y-108006177D01*
X40850074Y-108007548D01*
X40871369Y-108012815D01*
X40889485Y-108023951D01*
X40900354Y-108040464D01*
X40903977Y-108062353D01*
X40903903Y-108065989D01*
X40900354Y-108085384D01*
X40889485Y-108102758D01*
X40871369Y-108114475D01*
X40850074Y-108120016D01*
X40828262Y-108121460D01*
X40403279Y-108121460D01*
X40398591Y-108121402D01*
X40377382Y-108119382D01*
X40356843Y-108113148D01*
X40339652Y-108100622D01*
X40329755Y-108082440D01*
X40327076Y-108062353D01*
X40330722Y-108040464D01*
X40341661Y-108023951D01*
X40359894Y-108012815D01*
X40381326Y-108007548D01*
X40403279Y-108006177D01*
X40625540Y-108006177D01*
X40473621Y-107592429D01*
X39725261Y-107592429D01*
X39567480Y-108006177D01*
X39781437Y-108006177D01*
X39803250Y-108007548D01*
X39824544Y-108012815D01*
X39842660Y-108023951D01*
X39853529Y-108040464D01*
X39857152Y-108062353D01*
X39857078Y-108065989D01*
X39853529Y-108085384D01*
X39842660Y-108102758D01*
X39824544Y-108114475D01*
X39803250Y-108120016D01*
X39781437Y-108121460D01*
X39342288Y-108121460D01*
X39337630Y-108121402D01*
X39316557Y-108119382D01*
X39296149Y-108113148D01*
X39279069Y-108100622D01*
X39269235Y-108082440D01*
X39266573Y-108062353D01*
X39270196Y-108040464D01*
X39281066Y-108023951D01*
X39299181Y-108012815D01*
X39320476Y-108007548D01*
X39342288Y-108006177D01*
X39446336Y-108006177D01*
X39646020Y-107477147D01*
X39767271Y-107477147D01*
X40428681Y-107477147D01*
X40124842Y-106652583D01*
X40082344Y-106652583D01*
X39767271Y-107477147D01*
X39646020Y-107477147D01*
X40000767Y-106537300D01*
X40574738Y-106537300D01*
X40596691Y-106538672D01*
G37*
G36*
X37841172Y-108121460D02*
G01*
X37987718Y-108121460D01*
X38845987Y-106703386D01*
X38845987Y-108006177D01*
X38634961Y-108006177D01*
X38613008Y-108007548D01*
X38591576Y-108012815D01*
X38573343Y-108023951D01*
X38562404Y-108040464D01*
X38558757Y-108062353D01*
X38561436Y-108082440D01*
X38571334Y-108100622D01*
X38588524Y-108113148D01*
X38609064Y-108119382D01*
X38630273Y-108121402D01*
X38634961Y-108121460D01*
X39057013Y-108121460D01*
X39078825Y-108120016D01*
X39100120Y-108114475D01*
X39118236Y-108102758D01*
X39129105Y-108085384D01*
X39132654Y-108065989D01*
X39132728Y-108062353D01*
X39129105Y-108040464D01*
X39118236Y-108023951D01*
X39100120Y-108012815D01*
X39078825Y-108007548D01*
X39057013Y-108006177D01*
X38961270Y-108006177D01*
X38961270Y-106652583D01*
X39113189Y-106652583D01*
X39135001Y-106651140D01*
X39156296Y-106645599D01*
X39174412Y-106633881D01*
X39185281Y-106616507D01*
X39188830Y-106597113D01*
X39188904Y-106593476D01*
X39185281Y-106571587D01*
X39174412Y-106555075D01*
X39156296Y-106543938D01*
X39135001Y-106538672D01*
X39113189Y-106537300D01*
X38814724Y-106537300D01*
X37956454Y-107955374D01*
X37956454Y-106652583D01*
X38165038Y-106652583D01*
X38187695Y-106651140D01*
X38209814Y-106645599D01*
X38228631Y-106633881D01*
X38239921Y-106616507D01*
X38243607Y-106597113D01*
X38243684Y-106593476D01*
X38239921Y-106571587D01*
X38228631Y-106555075D01*
X38209814Y-106543938D01*
X38187695Y-106538672D01*
X38165038Y-106537300D01*
X37745429Y-106537300D01*
X37723616Y-106538672D01*
X37702321Y-106543938D01*
X37684206Y-106555075D01*
X37673336Y-106571587D01*
X37669713Y-106593476D01*
X37672375Y-106613563D01*
X37682209Y-106631746D01*
X37699290Y-106644271D01*
X37719697Y-106650505D01*
X37740770Y-106652525D01*
X37745429Y-106652583D01*
X37841172Y-106652583D01*
X37841172Y-108121460D01*
G37*
G36*
X35719021Y-106538672D02*
G01*
X35740316Y-106543938D01*
X35758431Y-106555075D01*
X35769300Y-106571587D01*
X35772923Y-106593476D01*
X35772849Y-106597113D01*
X35769300Y-106616507D01*
X35758431Y-106633881D01*
X35740316Y-106645599D01*
X35719021Y-106651140D01*
X35697208Y-106652583D01*
X35545289Y-106652583D01*
X35545289Y-108006177D01*
X35697208Y-108006177D01*
X35719021Y-108007548D01*
X35740316Y-108012815D01*
X35758431Y-108023951D01*
X35769300Y-108040464D01*
X35772923Y-108062353D01*
X35772849Y-108065989D01*
X35769300Y-108085384D01*
X35758431Y-108102758D01*
X35740316Y-108114475D01*
X35719021Y-108120016D01*
X35697208Y-108121460D01*
X34836008Y-108121460D01*
X34812347Y-108120965D01*
X34789113Y-108119483D01*
X34766307Y-108117012D01*
X34743928Y-108113552D01*
X34721977Y-108109104D01*
X34700453Y-108103668D01*
X34679357Y-108097243D01*
X34658688Y-108089830D01*
X34638446Y-108081428D01*
X34618632Y-108072038D01*
X34599245Y-108061660D01*
X34580286Y-108050293D01*
X34561754Y-108037938D01*
X34543649Y-108024594D01*
X34525972Y-108010262D01*
X34508722Y-107994942D01*
X34492160Y-107978929D01*
X34476666Y-107962518D01*
X34462240Y-107945712D01*
X34448883Y-107928508D01*
X34436594Y-107910907D01*
X34425375Y-107892909D01*
X34415223Y-107874515D01*
X34406140Y-107855723D01*
X34398126Y-107836535D01*
X34391181Y-107816950D01*
X34385303Y-107796968D01*
X34380495Y-107776589D01*
X34376755Y-107755813D01*
X34374084Y-107734640D01*
X34372481Y-107713070D01*
X34371946Y-107691104D01*
X34487229Y-107691104D01*
X34487636Y-107707434D01*
X34489769Y-107731342D01*
X34493732Y-107754546D01*
X34499524Y-107777046D01*
X34507144Y-107798841D01*
X34516594Y-107819933D01*
X34527873Y-107840321D01*
X34540980Y-107860004D01*
X34555917Y-107878984D01*
X34572682Y-107897259D01*
X34591277Y-107914830D01*
X34604460Y-107925892D01*
X34624900Y-107941146D01*
X34646140Y-107954794D01*
X34668177Y-107966837D01*
X34691013Y-107977274D01*
X34714648Y-107986106D01*
X34739082Y-107993331D01*
X34764314Y-107998951D01*
X34790344Y-108002965D01*
X34817173Y-108005374D01*
X34844801Y-108006177D01*
X35430006Y-108006177D01*
X35430006Y-107356002D01*
X35010397Y-107356002D01*
X34991579Y-107356130D01*
X34963996Y-107356801D01*
X34937185Y-107358048D01*
X34911148Y-107359870D01*
X34885883Y-107362267D01*
X34861391Y-107365239D01*
X34837672Y-107368787D01*
X34814725Y-107372910D01*
X34792552Y-107377608D01*
X34771151Y-107382882D01*
X34750523Y-107388731D01*
X34743799Y-107390766D01*
X34724274Y-107397104D01*
X34705720Y-107403794D01*
X34682490Y-107413263D01*
X34660985Y-107423357D01*
X34641206Y-107434077D01*
X34623151Y-107445422D01*
X34606821Y-107457394D01*
X34588834Y-107473239D01*
X34572770Y-107489468D01*
X34558161Y-107505792D01*
X34545006Y-107522212D01*
X34533307Y-107538727D01*
X34521188Y-107558671D01*
X34511165Y-107578752D01*
X34508266Y-107585430D01*
X34500693Y-107605741D01*
X34494803Y-107626463D01*
X34490595Y-107647598D01*
X34488071Y-107669145D01*
X34487229Y-107691104D01*
X34371946Y-107691104D01*
X34373341Y-107656538D01*
X34377526Y-107623181D01*
X34384500Y-107591035D01*
X34394264Y-107560098D01*
X34406818Y-107530371D01*
X34422161Y-107501854D01*
X34440294Y-107474546D01*
X34461217Y-107448448D01*
X34484930Y-107423560D01*
X34511432Y-107399882D01*
X34540724Y-107377414D01*
X34572806Y-107356155D01*
X34589893Y-107345979D01*
X34607677Y-107336106D01*
X34626159Y-107326535D01*
X34645338Y-107317267D01*
X34665215Y-107308301D01*
X34685789Y-107299638D01*
X34707061Y-107291277D01*
X34729030Y-107283218D01*
X34700104Y-107266728D01*
X34673044Y-107249619D01*
X34647851Y-107231893D01*
X34624524Y-107213548D01*
X34603063Y-107194585D01*
X34583468Y-107175003D01*
X34565740Y-107154804D01*
X34549877Y-107133986D01*
X34535881Y-107112550D01*
X34523751Y-107090495D01*
X34513487Y-107067823D01*
X34505089Y-107044532D01*
X34498558Y-107020623D01*
X34493892Y-106996095D01*
X34491093Y-106970950D01*
X34490160Y-106945186D01*
X34490221Y-106942744D01*
X34605443Y-106942744D01*
X34605893Y-106958749D01*
X34608257Y-106982099D01*
X34612648Y-107004659D01*
X34619065Y-107026429D01*
X34627508Y-107047409D01*
X34637978Y-107067599D01*
X34650475Y-107086999D01*
X34664998Y-107105610D01*
X34681547Y-107123430D01*
X34700123Y-107140460D01*
X34720725Y-107156700D01*
X34742912Y-107171715D01*
X34766240Y-107185254D01*
X34790711Y-107197315D01*
X34816323Y-107207900D01*
X34843078Y-107217007D01*
X34870975Y-107224638D01*
X34890207Y-107228905D01*
X34909947Y-107232515D01*
X34930194Y-107235469D01*
X34950949Y-107237766D01*
X34972211Y-107239407D01*
X34993981Y-107240392D01*
X35016259Y-107240720D01*
X35430006Y-107240720D01*
X35430006Y-106652583D01*
X34968387Y-106652583D01*
X34949230Y-106652907D01*
X34921237Y-106654610D01*
X34894138Y-106657773D01*
X34867931Y-106662396D01*
X34842618Y-106668478D01*
X34818197Y-106676020D01*
X34794670Y-106685022D01*
X34772035Y-106695483D01*
X34750294Y-106707404D01*
X34729445Y-106720785D01*
X34709490Y-106735626D01*
X34696891Y-106746166D01*
X34679515Y-106762578D01*
X34663969Y-106779711D01*
X34650252Y-106797566D01*
X34638364Y-106816142D01*
X34628305Y-106835439D01*
X34620074Y-106855457D01*
X34613673Y-106876197D01*
X34609101Y-106897658D01*
X34606357Y-106919840D01*
X34605443Y-106942744D01*
X34490221Y-106942744D01*
X34490698Y-106923612D01*
X34492312Y-106902489D01*
X34495003Y-106881816D01*
X34498770Y-106861594D01*
X34503612Y-106841822D01*
X34509532Y-106822500D01*
X34516527Y-106803628D01*
X34524598Y-106785207D01*
X34533746Y-106767236D01*
X34543970Y-106749715D01*
X34555270Y-106732645D01*
X34567646Y-106716025D01*
X34581098Y-106699855D01*
X34595627Y-106684136D01*
X34611232Y-106668867D01*
X34627913Y-106654048D01*
X34645397Y-106639911D01*
X34663412Y-106626686D01*
X34681957Y-106614372D01*
X34701033Y-106602971D01*
X34720639Y-106592482D01*
X34740776Y-106582905D01*
X34761443Y-106574240D01*
X34782641Y-106566487D01*
X34804369Y-106559647D01*
X34826627Y-106553718D01*
X34849416Y-106548702D01*
X34872736Y-106544597D01*
X34896586Y-106541405D01*
X34920966Y-106539125D01*
X34945877Y-106537756D01*
X34971318Y-106537300D01*
X35697208Y-106537300D01*
X35719021Y-106538672D01*
G37*
G36*
X33576692Y-106652583D02*
G01*
X33576692Y-108006177D01*
X32808792Y-108006177D01*
X32808792Y-107555793D01*
X32807349Y-107533981D01*
X32801808Y-107512686D01*
X32790090Y-107494570D01*
X32772716Y-107483701D01*
X32753322Y-107480152D01*
X32749685Y-107480078D01*
X32727797Y-107483701D01*
X32711284Y-107494570D01*
X32700148Y-107512686D01*
X32694881Y-107533981D01*
X32693510Y-107555793D01*
X32693510Y-108121460D01*
X33962595Y-108121460D01*
X33984408Y-108120016D01*
X34005703Y-108114475D01*
X34023818Y-108102758D01*
X34034688Y-108085384D01*
X34038237Y-108065989D01*
X34038311Y-108062353D01*
X34034688Y-108040464D01*
X34023818Y-108023951D01*
X34005703Y-108012815D01*
X33984408Y-108007548D01*
X33962595Y-108006177D01*
X33692463Y-108006177D01*
X33692463Y-106652583D01*
X33962595Y-106652583D01*
X33984408Y-106651140D01*
X34005703Y-106645599D01*
X34023818Y-106633881D01*
X34034688Y-106616507D01*
X34038237Y-106597113D01*
X34038311Y-106593476D01*
X34034688Y-106571587D01*
X34023818Y-106555075D01*
X34005703Y-106543938D01*
X33984408Y-106538672D01*
X33962595Y-106537300D01*
X33307048Y-106537300D01*
X33285094Y-106538672D01*
X33263662Y-106543938D01*
X33245430Y-106555075D01*
X33234490Y-106571587D01*
X33230844Y-106593476D01*
X33233523Y-106613563D01*
X33243420Y-106631746D01*
X33260611Y-106644271D01*
X33281150Y-106650505D01*
X33302359Y-106652525D01*
X33307048Y-106652583D01*
X33576692Y-106652583D01*
G37*
G36*
X31711292Y-106500901D02*
G01*
X31747177Y-106502793D01*
X31782371Y-106506579D01*
X31816874Y-106512258D01*
X31850686Y-106519829D01*
X31883808Y-106529294D01*
X31916239Y-106540651D01*
X31947979Y-106553901D01*
X31979028Y-106569044D01*
X32009387Y-106586080D01*
X32039055Y-106605009D01*
X32068032Y-106625831D01*
X32096318Y-106648545D01*
X32123914Y-106673153D01*
X32150819Y-106699653D01*
X32177033Y-106728046D01*
X32189881Y-106742953D01*
X32202413Y-106758170D01*
X32214547Y-106773596D01*
X32237623Y-106805075D01*
X32259107Y-106837389D01*
X32278999Y-106870539D01*
X32297300Y-106904525D01*
X32314010Y-106939347D01*
X32329128Y-106975005D01*
X32342655Y-107011498D01*
X32348821Y-107030058D01*
X32354590Y-107048827D01*
X32359961Y-107067805D01*
X32364934Y-107086992D01*
X32369510Y-107106388D01*
X32373687Y-107125992D01*
X32377467Y-107145806D01*
X32380848Y-107165829D01*
X32383832Y-107186060D01*
X32386418Y-107206501D01*
X32388606Y-107227150D01*
X32390397Y-107248009D01*
X32391789Y-107269076D01*
X32392784Y-107290353D01*
X32393380Y-107311838D01*
X32393579Y-107333532D01*
X32393380Y-107355227D01*
X32392784Y-107376713D01*
X32391789Y-107397992D01*
X32390397Y-107419063D01*
X32388606Y-107439926D01*
X32386418Y-107460580D01*
X32383832Y-107481027D01*
X32380848Y-107501266D01*
X32377467Y-107521297D01*
X32373687Y-107541119D01*
X32369510Y-107560734D01*
X32364934Y-107580141D01*
X32359961Y-107599340D01*
X32354590Y-107618331D01*
X32348821Y-107637114D01*
X32336090Y-107674055D01*
X32321768Y-107710165D01*
X32305854Y-107745443D01*
X32288348Y-107779889D01*
X32269252Y-107813503D01*
X32248564Y-107846285D01*
X32226284Y-107878235D01*
X32214547Y-107893898D01*
X32202413Y-107909353D01*
X32189881Y-107924600D01*
X32164012Y-107953880D01*
X32137453Y-107981272D01*
X32110202Y-108006774D01*
X32082261Y-108030387D01*
X32053630Y-108052112D01*
X32024307Y-108071947D01*
X31994294Y-108089893D01*
X31963590Y-108105950D01*
X31932195Y-108120118D01*
X31900110Y-108132397D01*
X31867333Y-108142787D01*
X31833866Y-108151288D01*
X31799709Y-108157899D01*
X31764860Y-108162622D01*
X31729321Y-108165456D01*
X31693091Y-108166400D01*
X31675069Y-108166165D01*
X31639520Y-108164288D01*
X31604632Y-108160533D01*
X31570403Y-108154900D01*
X31536835Y-108147389D01*
X31503927Y-108138001D01*
X31471680Y-108126736D01*
X31440092Y-108113592D01*
X31409165Y-108098571D01*
X31378898Y-108081673D01*
X31349291Y-108062897D01*
X31320344Y-108042243D01*
X31292058Y-108019711D01*
X31264432Y-107995302D01*
X31237466Y-107969016D01*
X31211160Y-107940851D01*
X31198255Y-107926065D01*
X31185602Y-107910916D01*
X31173352Y-107895573D01*
X31150055Y-107864302D01*
X31128365Y-107832253D01*
X31108282Y-107799425D01*
X31089805Y-107765819D01*
X31072935Y-107731434D01*
X31057672Y-107696271D01*
X31044016Y-107660329D01*
X31031966Y-107623609D01*
X31021522Y-107586110D01*
X31016903Y-107567068D01*
X31012686Y-107547832D01*
X31008870Y-107528402D01*
X31005456Y-107508776D01*
X31002443Y-107488956D01*
X30999832Y-107468942D01*
X30997623Y-107448733D01*
X30995816Y-107428329D01*
X30994410Y-107407730D01*
X30993406Y-107386937D01*
X30992803Y-107365950D01*
X30992602Y-107344767D01*
X30992628Y-107341836D01*
X31107885Y-107341836D01*
X31108561Y-107377792D01*
X31110587Y-107413117D01*
X31113964Y-107447813D01*
X31118693Y-107481879D01*
X31124772Y-107515316D01*
X31132202Y-107548122D01*
X31140984Y-107580299D01*
X31151116Y-107611847D01*
X31162599Y-107642765D01*
X31175433Y-107673053D01*
X31189619Y-107702711D01*
X31205155Y-107731740D01*
X31222042Y-107760138D01*
X31240280Y-107787908D01*
X31259869Y-107815047D01*
X31280809Y-107841557D01*
X31302684Y-107866934D01*
X31325078Y-107890673D01*
X31347991Y-107912775D01*
X31371423Y-107933240D01*
X31395374Y-107952068D01*
X31419844Y-107969258D01*
X31444833Y-107984811D01*
X31470341Y-107998727D01*
X31496369Y-108011006D01*
X31522915Y-108021648D01*
X31549980Y-108030653D01*
X31577564Y-108038020D01*
X31605667Y-108043750D01*
X31634289Y-108047843D01*
X31663431Y-108050299D01*
X31693091Y-108051118D01*
X31723043Y-108050293D01*
X31752450Y-108047820D01*
X31781310Y-108043699D01*
X31809625Y-108037928D01*
X31837395Y-108030510D01*
X31864618Y-108021442D01*
X31891296Y-108010726D01*
X31917428Y-107998361D01*
X31943014Y-107984348D01*
X31968055Y-107968686D01*
X31992550Y-107951375D01*
X32016499Y-107932416D01*
X32039902Y-107911808D01*
X32062760Y-107889551D01*
X32085072Y-107865646D01*
X32106838Y-107840092D01*
X32127601Y-107813383D01*
X32147024Y-107786015D01*
X32165107Y-107757986D01*
X32181851Y-107729297D01*
X32197256Y-107699948D01*
X32211321Y-107669938D01*
X32224046Y-107639269D01*
X32235432Y-107607939D01*
X32245479Y-107575949D01*
X32254185Y-107543299D01*
X32261553Y-107509988D01*
X32267581Y-107476017D01*
X32272269Y-107441386D01*
X32275618Y-107406095D01*
X32277627Y-107370144D01*
X32278297Y-107333532D01*
X32277627Y-107296920D01*
X32275618Y-107260969D01*
X32272269Y-107225678D01*
X32267581Y-107191047D01*
X32261553Y-107157076D01*
X32254185Y-107123766D01*
X32245479Y-107091115D01*
X32235432Y-107059125D01*
X32224046Y-107027795D01*
X32211321Y-106997126D01*
X32197256Y-106967116D01*
X32181851Y-106937767D01*
X32165107Y-106909078D01*
X32147024Y-106881049D01*
X32127601Y-106853681D01*
X32106838Y-106826972D01*
X32085072Y-106801419D01*
X32062760Y-106777513D01*
X32039902Y-106755257D01*
X32016499Y-106734649D01*
X31992550Y-106715689D01*
X31968055Y-106698379D01*
X31943014Y-106682716D01*
X31917428Y-106668703D01*
X31891296Y-106656338D01*
X31864618Y-106645622D01*
X31837395Y-106636555D01*
X31809625Y-106629136D01*
X31781310Y-106623365D01*
X31752450Y-106619244D01*
X31723043Y-106616771D01*
X31693091Y-106615947D01*
X31662791Y-106616771D01*
X31633076Y-106619244D01*
X31603944Y-106623365D01*
X31575396Y-106629136D01*
X31547432Y-106636555D01*
X31520052Y-106645622D01*
X31493256Y-106656338D01*
X31467044Y-106668703D01*
X31441416Y-106682716D01*
X31416371Y-106698379D01*
X31391911Y-106715689D01*
X31368034Y-106734649D01*
X31344741Y-106755257D01*
X31322033Y-106777513D01*
X31299908Y-106801419D01*
X31278367Y-106826972D01*
X31257722Y-106853713D01*
X31238410Y-106881179D01*
X31220429Y-106909370D01*
X31203781Y-106938286D01*
X31188464Y-106967927D01*
X31174479Y-106998294D01*
X31161826Y-107029385D01*
X31150505Y-107061201D01*
X31140516Y-107093743D01*
X31131859Y-107127009D01*
X31124534Y-107161001D01*
X31118540Y-107195718D01*
X31113879Y-107231160D01*
X31110549Y-107267327D01*
X31108551Y-107304219D01*
X31107885Y-107341836D01*
X30992628Y-107341836D01*
X30992799Y-107322561D01*
X30993389Y-107300576D01*
X30994371Y-107278815D01*
X30995747Y-107257275D01*
X30997516Y-107235958D01*
X30999678Y-107214862D01*
X31002233Y-107193990D01*
X31005181Y-107173339D01*
X31008522Y-107152911D01*
X31012256Y-107132705D01*
X31016384Y-107112722D01*
X31020904Y-107092961D01*
X31025818Y-107073422D01*
X31031124Y-107054105D01*
X31036824Y-107035011D01*
X31042916Y-107016138D01*
X31049402Y-106997489D01*
X31056281Y-106979061D01*
X31063553Y-106960856D01*
X31079276Y-106925113D01*
X31096572Y-106890258D01*
X31115439Y-106856293D01*
X31135879Y-106823218D01*
X31157892Y-106791031D01*
X31169488Y-106775271D01*
X31181477Y-106759734D01*
X31193859Y-106744418D01*
X31219336Y-106714901D01*
X31245577Y-106687288D01*
X31272581Y-106661580D01*
X31300348Y-106637776D01*
X31328879Y-106615876D01*
X31358173Y-106595881D01*
X31388230Y-106577789D01*
X31419050Y-106561603D01*
X31450634Y-106547320D01*
X31482981Y-106534942D01*
X31516091Y-106524468D01*
X31549965Y-106515899D01*
X31584601Y-106509233D01*
X31620001Y-106504473D01*
X31656164Y-106501616D01*
X31693091Y-106500664D01*
X31711292Y-106500901D01*
G37*
G36*
X29941381Y-107646163D02*
G01*
X30070830Y-107646163D01*
X30518283Y-106652583D01*
X30540753Y-106652583D01*
X30540753Y-108006177D01*
X30332658Y-108006177D01*
X30310001Y-108007548D01*
X30287882Y-108012815D01*
X30269065Y-108023951D01*
X30257775Y-108040464D01*
X30254012Y-108062353D01*
X30256777Y-108082440D01*
X30266992Y-108100622D01*
X30284733Y-108113148D01*
X30305931Y-108119382D01*
X30327820Y-108121402D01*
X30332658Y-108121460D01*
X30751779Y-108121460D01*
X30773732Y-108120016D01*
X30795165Y-108114475D01*
X30813397Y-108102758D01*
X30824336Y-108085384D01*
X30827908Y-108065989D01*
X30827983Y-108062353D01*
X30824336Y-108040464D01*
X30813397Y-108023951D01*
X30795165Y-108012815D01*
X30773732Y-108007548D01*
X30751779Y-108006177D01*
X30656036Y-108006177D01*
X30656036Y-106652583D01*
X30726378Y-106652583D01*
X30748331Y-106651140D01*
X30769763Y-106645599D01*
X30787996Y-106633881D01*
X30798935Y-106616507D01*
X30802507Y-106597113D01*
X30802581Y-106593476D01*
X30798935Y-106571587D01*
X30787996Y-106555075D01*
X30769763Y-106543938D01*
X30748331Y-106538672D01*
X30726378Y-106537300D01*
X30447941Y-106537300D01*
X30006350Y-107516714D01*
X29573063Y-106537300D01*
X29291695Y-106537300D01*
X29269742Y-106538672D01*
X29248310Y-106543938D01*
X29230077Y-106555075D01*
X29219138Y-106571587D01*
X29215491Y-106593476D01*
X29218171Y-106613563D01*
X29228068Y-106631746D01*
X29245259Y-106644271D01*
X29265798Y-106650505D01*
X29287007Y-106652525D01*
X29291695Y-106652583D01*
X29362037Y-106652583D01*
X29362037Y-108006177D01*
X29266294Y-108006177D01*
X29244341Y-108007548D01*
X29222908Y-108012815D01*
X29204676Y-108023951D01*
X29193737Y-108040464D01*
X29190090Y-108062353D01*
X29192769Y-108082440D01*
X29202667Y-108100622D01*
X29219857Y-108113148D01*
X29240397Y-108119382D01*
X29261606Y-108121402D01*
X29266294Y-108121460D01*
X29685415Y-108121460D01*
X29707368Y-108120016D01*
X29728800Y-108114475D01*
X29747033Y-108102758D01*
X29757972Y-108085384D01*
X29761544Y-108065989D01*
X29761618Y-108062353D01*
X29757972Y-108040464D01*
X29747033Y-108023951D01*
X29728800Y-108012815D01*
X29707368Y-108007548D01*
X29685415Y-108006177D01*
X29477320Y-108006177D01*
X29477320Y-106652583D01*
X29499790Y-106652583D01*
X29941381Y-107646163D01*
G37*
D11*
X74929400Y-19754510D02*
X74929400Y-20897368D01*
X75500828Y-20325939D02*
X74357971Y-20325939D01*
X74000828Y-23040225D02*
X74000828Y-23325939D01*
X74000828Y-23325939D02*
X74072257Y-23468796D01*
X74072257Y-23468796D02*
X74215114Y-23611653D01*
X74215114Y-23611653D02*
X74500828Y-23683082D01*
X74500828Y-23683082D02*
X75000828Y-23683082D01*
X75000828Y-23683082D02*
X75286542Y-23611653D01*
X75286542Y-23611653D02*
X75429400Y-23468796D01*
X75429400Y-23468796D02*
X75500828Y-23325939D01*
X75500828Y-23325939D02*
X75500828Y-23040225D01*
X75500828Y-23040225D02*
X75429400Y-22897368D01*
X75429400Y-22897368D02*
X75286542Y-22754510D01*
X75286542Y-22754510D02*
X75000828Y-22683082D01*
X75000828Y-22683082D02*
X74500828Y-22683082D01*
X74500828Y-22683082D02*
X74215114Y-22754510D01*
X74215114Y-22754510D02*
X74072257Y-22897368D01*
X74072257Y-22897368D02*
X74000828Y-23040225D01*
X74072257Y-26254511D02*
X74000828Y-26111654D01*
X74000828Y-26111654D02*
X74000828Y-25897368D01*
X74000828Y-25897368D02*
X74072257Y-25683082D01*
X74072257Y-25683082D02*
X74215114Y-25540225D01*
X74215114Y-25540225D02*
X74357971Y-25468796D01*
X74357971Y-25468796D02*
X74643685Y-25397368D01*
X74643685Y-25397368D02*
X74857971Y-25397368D01*
X74857971Y-25397368D02*
X75143685Y-25468796D01*
X75143685Y-25468796D02*
X75286542Y-25540225D01*
X75286542Y-25540225D02*
X75429400Y-25683082D01*
X75429400Y-25683082D02*
X75500828Y-25897368D01*
X75500828Y-25897368D02*
X75500828Y-26040225D01*
X75500828Y-26040225D02*
X75429400Y-26254511D01*
X75429400Y-26254511D02*
X75357971Y-26325939D01*
X75357971Y-26325939D02*
X74857971Y-26325939D01*
X74857971Y-26325939D02*
X74857971Y-26040225D01*
D12*
X46716666Y-39701040D02*
X46764285Y-39748660D01*
X46764285Y-39748660D02*
X46907142Y-39796279D01*
X46907142Y-39796279D02*
X47002380Y-39796279D01*
X47002380Y-39796279D02*
X47145237Y-39748660D01*
X47145237Y-39748660D02*
X47240475Y-39653421D01*
X47240475Y-39653421D02*
X47288094Y-39558183D01*
X47288094Y-39558183D02*
X47335713Y-39367707D01*
X47335713Y-39367707D02*
X47335713Y-39224850D01*
X47335713Y-39224850D02*
X47288094Y-39034374D01*
X47288094Y-39034374D02*
X47240475Y-38939136D01*
X47240475Y-38939136D02*
X47145237Y-38843898D01*
X47145237Y-38843898D02*
X47002380Y-38796279D01*
X47002380Y-38796279D02*
X46907142Y-38796279D01*
X46907142Y-38796279D02*
X46764285Y-38843898D01*
X46764285Y-38843898D02*
X46716666Y-38891517D01*
X46383332Y-38796279D02*
X45716666Y-38796279D01*
X45716666Y-38796279D02*
X46145237Y-39796279D01*
X73084580Y-21177650D02*
X73132200Y-21130031D01*
X73132200Y-21130031D02*
X73179819Y-20987174D01*
X73179819Y-20987174D02*
X73179819Y-20891936D01*
X73179819Y-20891936D02*
X73132200Y-20749079D01*
X73132200Y-20749079D02*
X73036961Y-20653841D01*
X73036961Y-20653841D02*
X72941723Y-20606222D01*
X72941723Y-20606222D02*
X72751247Y-20558603D01*
X72751247Y-20558603D02*
X72608390Y-20558603D01*
X72608390Y-20558603D02*
X72417914Y-20606222D01*
X72417914Y-20606222D02*
X72322676Y-20653841D01*
X72322676Y-20653841D02*
X72227438Y-20749079D01*
X72227438Y-20749079D02*
X72179819Y-20891936D01*
X72179819Y-20891936D02*
X72179819Y-20987174D01*
X72179819Y-20987174D02*
X72227438Y-21130031D01*
X72227438Y-21130031D02*
X72275057Y-21177650D01*
X72179819Y-21796698D02*
X72179819Y-21987174D01*
X72179819Y-21987174D02*
X72227438Y-22082412D01*
X72227438Y-22082412D02*
X72322676Y-22177650D01*
X72322676Y-22177650D02*
X72513152Y-22225269D01*
X72513152Y-22225269D02*
X72846485Y-22225269D01*
X72846485Y-22225269D02*
X73036961Y-22177650D01*
X73036961Y-22177650D02*
X73132200Y-22082412D01*
X73132200Y-22082412D02*
X73179819Y-21987174D01*
X73179819Y-21987174D02*
X73179819Y-21796698D01*
X73179819Y-21796698D02*
X73132200Y-21701460D01*
X73132200Y-21701460D02*
X73036961Y-21606222D01*
X73036961Y-21606222D02*
X72846485Y-21558603D01*
X72846485Y-21558603D02*
X72513152Y-21558603D01*
X72513152Y-21558603D02*
X72322676Y-21606222D01*
X72322676Y-21606222D02*
X72227438Y-21701460D01*
X72227438Y-21701460D02*
X72179819Y-21796698D01*
X73179819Y-22653841D02*
X72179819Y-22653841D01*
X72179819Y-22653841D02*
X73179819Y-23225269D01*
X73179819Y-23225269D02*
X72179819Y-23225269D01*
X73275057Y-23463365D02*
X73275057Y-24225269D01*
X72894104Y-24415746D02*
X72894104Y-24891936D01*
X73179819Y-24320508D02*
X72179819Y-24653841D01*
X72179819Y-24653841D02*
X73179819Y-24987174D01*
X73179819Y-25844317D02*
X73179819Y-25272889D01*
X73179819Y-25558603D02*
X72179819Y-25558603D01*
X72179819Y-25558603D02*
X72322676Y-25463365D01*
X72322676Y-25463365D02*
X72417914Y-25368127D01*
X72417914Y-25368127D02*
X72465533Y-25272889D01*
X45192857Y-25441040D02*
X45240476Y-25488660D01*
X45240476Y-25488660D02*
X45383333Y-25536279D01*
X45383333Y-25536279D02*
X45478571Y-25536279D01*
X45478571Y-25536279D02*
X45621428Y-25488660D01*
X45621428Y-25488660D02*
X45716666Y-25393421D01*
X45716666Y-25393421D02*
X45764285Y-25298183D01*
X45764285Y-25298183D02*
X45811904Y-25107707D01*
X45811904Y-25107707D02*
X45811904Y-24964850D01*
X45811904Y-24964850D02*
X45764285Y-24774374D01*
X45764285Y-24774374D02*
X45716666Y-24679136D01*
X45716666Y-24679136D02*
X45621428Y-24583898D01*
X45621428Y-24583898D02*
X45478571Y-24536279D01*
X45478571Y-24536279D02*
X45383333Y-24536279D01*
X45383333Y-24536279D02*
X45240476Y-24583898D01*
X45240476Y-24583898D02*
X45192857Y-24631517D01*
X44240476Y-25536279D02*
X44811904Y-25536279D01*
X44526190Y-25536279D02*
X44526190Y-24536279D01*
X44526190Y-24536279D02*
X44621428Y-24679136D01*
X44621428Y-24679136D02*
X44716666Y-24774374D01*
X44716666Y-24774374D02*
X44811904Y-24821993D01*
X43621428Y-24536279D02*
X43526190Y-24536279D01*
X43526190Y-24536279D02*
X43430952Y-24583898D01*
X43430952Y-24583898D02*
X43383333Y-24631517D01*
X43383333Y-24631517D02*
X43335714Y-24726755D01*
X43335714Y-24726755D02*
X43288095Y-24917231D01*
X43288095Y-24917231D02*
X43288095Y-25155326D01*
X43288095Y-25155326D02*
X43335714Y-25345802D01*
X43335714Y-25345802D02*
X43383333Y-25441040D01*
X43383333Y-25441040D02*
X43430952Y-25488660D01*
X43430952Y-25488660D02*
X43526190Y-25536279D01*
X43526190Y-25536279D02*
X43621428Y-25536279D01*
X43621428Y-25536279D02*
X43716666Y-25488660D01*
X43716666Y-25488660D02*
X43764285Y-25441040D01*
X43764285Y-25441040D02*
X43811904Y-25345802D01*
X43811904Y-25345802D02*
X43859523Y-25155326D01*
X43859523Y-25155326D02*
X43859523Y-24917231D01*
X43859523Y-24917231D02*
X43811904Y-24726755D01*
X43811904Y-24726755D02*
X43764285Y-24631517D01*
X43764285Y-24631517D02*
X43716666Y-24583898D01*
X43716666Y-24583898D02*
X43621428Y-24536279D01*
X46067857Y-70321040D02*
X46115476Y-70368660D01*
X46115476Y-70368660D02*
X46258333Y-70416279D01*
X46258333Y-70416279D02*
X46353571Y-70416279D01*
X46353571Y-70416279D02*
X46496428Y-70368660D01*
X46496428Y-70368660D02*
X46591666Y-70273421D01*
X46591666Y-70273421D02*
X46639285Y-70178183D01*
X46639285Y-70178183D02*
X46686904Y-69987707D01*
X46686904Y-69987707D02*
X46686904Y-69844850D01*
X46686904Y-69844850D02*
X46639285Y-69654374D01*
X46639285Y-69654374D02*
X46591666Y-69559136D01*
X46591666Y-69559136D02*
X46496428Y-69463898D01*
X46496428Y-69463898D02*
X46353571Y-69416279D01*
X46353571Y-69416279D02*
X46258333Y-69416279D01*
X46258333Y-69416279D02*
X46115476Y-69463898D01*
X46115476Y-69463898D02*
X46067857Y-69511517D01*
X45115476Y-70416279D02*
X45686904Y-70416279D01*
X45401190Y-70416279D02*
X45401190Y-69416279D01*
X45401190Y-69416279D02*
X45496428Y-69559136D01*
X45496428Y-69559136D02*
X45591666Y-69654374D01*
X45591666Y-69654374D02*
X45686904Y-69701993D01*
X44258333Y-69416279D02*
X44448809Y-69416279D01*
X44448809Y-69416279D02*
X44544047Y-69463898D01*
X44544047Y-69463898D02*
X44591666Y-69511517D01*
X44591666Y-69511517D02*
X44686904Y-69654374D01*
X44686904Y-69654374D02*
X44734523Y-69844850D01*
X44734523Y-69844850D02*
X44734523Y-70225802D01*
X44734523Y-70225802D02*
X44686904Y-70321040D01*
X44686904Y-70321040D02*
X44639285Y-70368660D01*
X44639285Y-70368660D02*
X44544047Y-70416279D01*
X44544047Y-70416279D02*
X44353571Y-70416279D01*
X44353571Y-70416279D02*
X44258333Y-70368660D01*
X44258333Y-70368660D02*
X44210714Y-70321040D01*
X44210714Y-70321040D02*
X44163095Y-70225802D01*
X44163095Y-70225802D02*
X44163095Y-69987707D01*
X44163095Y-69987707D02*
X44210714Y-69892469D01*
X44210714Y-69892469D02*
X44258333Y-69844850D01*
X44258333Y-69844850D02*
X44353571Y-69797231D01*
X44353571Y-69797231D02*
X44544047Y-69797231D01*
X44544047Y-69797231D02*
X44639285Y-69844850D01*
X44639285Y-69844850D02*
X44686904Y-69892469D01*
X44686904Y-69892469D02*
X44734523Y-69987707D01*
X32063094Y-71716279D02*
X32063094Y-70716279D01*
X32063094Y-70716279D02*
X31824999Y-70716279D01*
X31824999Y-70716279D02*
X31682142Y-70763898D01*
X31682142Y-70763898D02*
X31586904Y-70859136D01*
X31586904Y-70859136D02*
X31539285Y-70954374D01*
X31539285Y-70954374D02*
X31491666Y-71144850D01*
X31491666Y-71144850D02*
X31491666Y-71287707D01*
X31491666Y-71287707D02*
X31539285Y-71478183D01*
X31539285Y-71478183D02*
X31586904Y-71573421D01*
X31586904Y-71573421D02*
X31682142Y-71668660D01*
X31682142Y-71668660D02*
X31824999Y-71716279D01*
X31824999Y-71716279D02*
X32063094Y-71716279D01*
X30634523Y-71049612D02*
X30634523Y-71716279D01*
X30872618Y-70668660D02*
X31110713Y-71382945D01*
X31110713Y-71382945D02*
X30491666Y-71382945D01*
X49689580Y-30044793D02*
X49737200Y-29997174D01*
X49737200Y-29997174D02*
X49784819Y-29854317D01*
X49784819Y-29854317D02*
X49784819Y-29759079D01*
X49784819Y-29759079D02*
X49737200Y-29616222D01*
X49737200Y-29616222D02*
X49641961Y-29520984D01*
X49641961Y-29520984D02*
X49546723Y-29473365D01*
X49546723Y-29473365D02*
X49356247Y-29425746D01*
X49356247Y-29425746D02*
X49213390Y-29425746D01*
X49213390Y-29425746D02*
X49022914Y-29473365D01*
X49022914Y-29473365D02*
X48927676Y-29520984D01*
X48927676Y-29520984D02*
X48832438Y-29616222D01*
X48832438Y-29616222D02*
X48784819Y-29759079D01*
X48784819Y-29759079D02*
X48784819Y-29854317D01*
X48784819Y-29854317D02*
X48832438Y-29997174D01*
X48832438Y-29997174D02*
X48880057Y-30044793D01*
X48784819Y-30901936D02*
X48784819Y-30711460D01*
X48784819Y-30711460D02*
X48832438Y-30616222D01*
X48832438Y-30616222D02*
X48880057Y-30568603D01*
X48880057Y-30568603D02*
X49022914Y-30473365D01*
X49022914Y-30473365D02*
X49213390Y-30425746D01*
X49213390Y-30425746D02*
X49594342Y-30425746D01*
X49594342Y-30425746D02*
X49689580Y-30473365D01*
X49689580Y-30473365D02*
X49737200Y-30520984D01*
X49737200Y-30520984D02*
X49784819Y-30616222D01*
X49784819Y-30616222D02*
X49784819Y-30806698D01*
X49784819Y-30806698D02*
X49737200Y-30901936D01*
X49737200Y-30901936D02*
X49689580Y-30949555D01*
X49689580Y-30949555D02*
X49594342Y-30997174D01*
X49594342Y-30997174D02*
X49356247Y-30997174D01*
X49356247Y-30997174D02*
X49261009Y-30949555D01*
X49261009Y-30949555D02*
X49213390Y-30901936D01*
X49213390Y-30901936D02*
X49165771Y-30806698D01*
X49165771Y-30806698D02*
X49165771Y-30616222D01*
X49165771Y-30616222D02*
X49213390Y-30520984D01*
X49213390Y-30520984D02*
X49261009Y-30473365D01*
X49261009Y-30473365D02*
X49356247Y-30425746D01*
X65667857Y-70363540D02*
X65715476Y-70411160D01*
X65715476Y-70411160D02*
X65858333Y-70458779D01*
X65858333Y-70458779D02*
X65953571Y-70458779D01*
X65953571Y-70458779D02*
X66096428Y-70411160D01*
X66096428Y-70411160D02*
X66191666Y-70315921D01*
X66191666Y-70315921D02*
X66239285Y-70220683D01*
X66239285Y-70220683D02*
X66286904Y-70030207D01*
X66286904Y-70030207D02*
X66286904Y-69887350D01*
X66286904Y-69887350D02*
X66239285Y-69696874D01*
X66239285Y-69696874D02*
X66191666Y-69601636D01*
X66191666Y-69601636D02*
X66096428Y-69506398D01*
X66096428Y-69506398D02*
X65953571Y-69458779D01*
X65953571Y-69458779D02*
X65858333Y-69458779D01*
X65858333Y-69458779D02*
X65715476Y-69506398D01*
X65715476Y-69506398D02*
X65667857Y-69554017D01*
X64715476Y-70458779D02*
X65286904Y-70458779D01*
X65001190Y-70458779D02*
X65001190Y-69458779D01*
X65001190Y-69458779D02*
X65096428Y-69601636D01*
X65096428Y-69601636D02*
X65191666Y-69696874D01*
X65191666Y-69696874D02*
X65286904Y-69744493D01*
X63810714Y-69458779D02*
X64286904Y-69458779D01*
X64286904Y-69458779D02*
X64334523Y-69934969D01*
X64334523Y-69934969D02*
X64286904Y-69887350D01*
X64286904Y-69887350D02*
X64191666Y-69839731D01*
X64191666Y-69839731D02*
X63953571Y-69839731D01*
X63953571Y-69839731D02*
X63858333Y-69887350D01*
X63858333Y-69887350D02*
X63810714Y-69934969D01*
X63810714Y-69934969D02*
X63763095Y-70030207D01*
X63763095Y-70030207D02*
X63763095Y-70268302D01*
X63763095Y-70268302D02*
X63810714Y-70363540D01*
X63810714Y-70363540D02*
X63858333Y-70411160D01*
X63858333Y-70411160D02*
X63953571Y-70458779D01*
X63953571Y-70458779D02*
X64191666Y-70458779D01*
X64191666Y-70458779D02*
X64286904Y-70411160D01*
X64286904Y-70411160D02*
X64334523Y-70363540D01*
X35529580Y-35544793D02*
X35577200Y-35497174D01*
X35577200Y-35497174D02*
X35624819Y-35354317D01*
X35624819Y-35354317D02*
X35624819Y-35259079D01*
X35624819Y-35259079D02*
X35577200Y-35116222D01*
X35577200Y-35116222D02*
X35481961Y-35020984D01*
X35481961Y-35020984D02*
X35386723Y-34973365D01*
X35386723Y-34973365D02*
X35196247Y-34925746D01*
X35196247Y-34925746D02*
X35053390Y-34925746D01*
X35053390Y-34925746D02*
X34862914Y-34973365D01*
X34862914Y-34973365D02*
X34767676Y-35020984D01*
X34767676Y-35020984D02*
X34672438Y-35116222D01*
X34672438Y-35116222D02*
X34624819Y-35259079D01*
X34624819Y-35259079D02*
X34624819Y-35354317D01*
X34624819Y-35354317D02*
X34672438Y-35497174D01*
X34672438Y-35497174D02*
X34720057Y-35544793D01*
X35053390Y-36116222D02*
X35005771Y-36020984D01*
X35005771Y-36020984D02*
X34958152Y-35973365D01*
X34958152Y-35973365D02*
X34862914Y-35925746D01*
X34862914Y-35925746D02*
X34815295Y-35925746D01*
X34815295Y-35925746D02*
X34720057Y-35973365D01*
X34720057Y-35973365D02*
X34672438Y-36020984D01*
X34672438Y-36020984D02*
X34624819Y-36116222D01*
X34624819Y-36116222D02*
X34624819Y-36306698D01*
X34624819Y-36306698D02*
X34672438Y-36401936D01*
X34672438Y-36401936D02*
X34720057Y-36449555D01*
X34720057Y-36449555D02*
X34815295Y-36497174D01*
X34815295Y-36497174D02*
X34862914Y-36497174D01*
X34862914Y-36497174D02*
X34958152Y-36449555D01*
X34958152Y-36449555D02*
X35005771Y-36401936D01*
X35005771Y-36401936D02*
X35053390Y-36306698D01*
X35053390Y-36306698D02*
X35053390Y-36116222D01*
X35053390Y-36116222D02*
X35101009Y-36020984D01*
X35101009Y-36020984D02*
X35148628Y-35973365D01*
X35148628Y-35973365D02*
X35243866Y-35925746D01*
X35243866Y-35925746D02*
X35434342Y-35925746D01*
X35434342Y-35925746D02*
X35529580Y-35973365D01*
X35529580Y-35973365D02*
X35577200Y-36020984D01*
X35577200Y-36020984D02*
X35624819Y-36116222D01*
X35624819Y-36116222D02*
X35624819Y-36306698D01*
X35624819Y-36306698D02*
X35577200Y-36401936D01*
X35577200Y-36401936D02*
X35529580Y-36449555D01*
X35529580Y-36449555D02*
X35434342Y-36497174D01*
X35434342Y-36497174D02*
X35243866Y-36497174D01*
X35243866Y-36497174D02*
X35148628Y-36449555D01*
X35148628Y-36449555D02*
X35101009Y-36401936D01*
X35101009Y-36401936D02*
X35053390Y-36306698D01*
X38866666Y-25741040D02*
X38914285Y-25788660D01*
X38914285Y-25788660D02*
X39057142Y-25836279D01*
X39057142Y-25836279D02*
X39152380Y-25836279D01*
X39152380Y-25836279D02*
X39295237Y-25788660D01*
X39295237Y-25788660D02*
X39390475Y-25693421D01*
X39390475Y-25693421D02*
X39438094Y-25598183D01*
X39438094Y-25598183D02*
X39485713Y-25407707D01*
X39485713Y-25407707D02*
X39485713Y-25264850D01*
X39485713Y-25264850D02*
X39438094Y-25074374D01*
X39438094Y-25074374D02*
X39390475Y-24979136D01*
X39390475Y-24979136D02*
X39295237Y-24883898D01*
X39295237Y-24883898D02*
X39152380Y-24836279D01*
X39152380Y-24836279D02*
X39057142Y-24836279D01*
X39057142Y-24836279D02*
X38914285Y-24883898D01*
X38914285Y-24883898D02*
X38866666Y-24931517D01*
X38390475Y-25836279D02*
X38199999Y-25836279D01*
X38199999Y-25836279D02*
X38104761Y-25788660D01*
X38104761Y-25788660D02*
X38057142Y-25741040D01*
X38057142Y-25741040D02*
X37961904Y-25598183D01*
X37961904Y-25598183D02*
X37914285Y-25407707D01*
X37914285Y-25407707D02*
X37914285Y-25026755D01*
X37914285Y-25026755D02*
X37961904Y-24931517D01*
X37961904Y-24931517D02*
X38009523Y-24883898D01*
X38009523Y-24883898D02*
X38104761Y-24836279D01*
X38104761Y-24836279D02*
X38295237Y-24836279D01*
X38295237Y-24836279D02*
X38390475Y-24883898D01*
X38390475Y-24883898D02*
X38438094Y-24931517D01*
X38438094Y-24931517D02*
X38485713Y-25026755D01*
X38485713Y-25026755D02*
X38485713Y-25264850D01*
X38485713Y-25264850D02*
X38438094Y-25360088D01*
X38438094Y-25360088D02*
X38390475Y-25407707D01*
X38390475Y-25407707D02*
X38295237Y-25455326D01*
X38295237Y-25455326D02*
X38104761Y-25455326D01*
X38104761Y-25455326D02*
X38009523Y-25407707D01*
X38009523Y-25407707D02*
X37961904Y-25360088D01*
X37961904Y-25360088D02*
X37914285Y-25264850D01*
D13*
X45659420Y-37401460D02*
X45940580Y-37401460D01*
X45659420Y-38421460D02*
X45940580Y-38421460D01*
X74920000Y-62411460D02*
X80120000Y-62411460D01*
X74920000Y-70091460D02*
X74920000Y-62411460D01*
X74920000Y-70091460D02*
X77520000Y-70091460D01*
X74920000Y-71361460D02*
X74920000Y-72691460D01*
X74920000Y-72691460D02*
X76250000Y-72691460D01*
X77520000Y-70091460D02*
X77520000Y-72691460D01*
X77520000Y-72691460D02*
X80120000Y-72691460D01*
X80120000Y-72691460D02*
X80120000Y-62411460D01*
X79995000Y-88631460D02*
X74795000Y-88631460D01*
X79995000Y-80951460D02*
X79995000Y-88631460D01*
X79995000Y-80951460D02*
X77395000Y-80951460D01*
X79995000Y-79681460D02*
X79995000Y-78351460D01*
X79995000Y-78351460D02*
X78665000Y-78351460D01*
X77395000Y-80951460D02*
X77395000Y-78351460D01*
X77395000Y-78351460D02*
X74795000Y-78351460D01*
X74795000Y-78351460D02*
X74795000Y-88631460D01*
X78255000Y-27171460D02*
X75595000Y-27171460D01*
X78255000Y-22031460D02*
X78255000Y-27171460D01*
X78255000Y-22031460D02*
X75595000Y-22031460D01*
X78255000Y-20761460D02*
X78255000Y-19431460D01*
X78255000Y-19431460D02*
X76925000Y-19431460D01*
X75595000Y-22031460D02*
X75595000Y-27171460D01*
X45440580Y-27021460D02*
X45159420Y-27021460D01*
X45440580Y-26001460D02*
X45159420Y-26001460D01*
X38655000Y-71961460D02*
X40155000Y-71961460D01*
X39265000Y-69761460D02*
X40405000Y-69761460D01*
X39405000Y-72711460D02*
X39405000Y-71211460D01*
X40405000Y-67391460D02*
X41905000Y-67391460D01*
X40405000Y-72131460D02*
X40405000Y-67391460D01*
X40405000Y-72131460D02*
X41905000Y-72131460D01*
X41905000Y-67391460D02*
X42655000Y-68141460D01*
X41905000Y-72131460D02*
X42655000Y-71381460D01*
X42655000Y-68141460D02*
X43405000Y-67391460D01*
X42655000Y-71381460D02*
X43405000Y-72131460D01*
X43405000Y-67391460D02*
X50645000Y-67391460D01*
X43405000Y-72131460D02*
X50645000Y-72131460D01*
X50645000Y-72131460D02*
X50645000Y-67391460D01*
X51785000Y-69761460D02*
X50645000Y-69761460D01*
X33045000Y-72681460D02*
X29605000Y-72681460D01*
X33045000Y-72501460D02*
X33045000Y-72681460D01*
X33045000Y-70021460D02*
X33045000Y-69841460D01*
X33045000Y-69841460D02*
X29605000Y-69841460D01*
X32565000Y-69841460D02*
X32565000Y-72681460D01*
X32445000Y-69841460D02*
X32445000Y-72681460D01*
X32325000Y-69841460D02*
X32325000Y-72681460D01*
X29605000Y-72681460D02*
X29605000Y-72501460D01*
X29605000Y-69841460D02*
X29605000Y-70021460D01*
X47390000Y-30352040D02*
X47390000Y-30070880D01*
X48410000Y-30352040D02*
X48410000Y-30070880D01*
X74830000Y-76791460D02*
X74830000Y-74131460D01*
X77430000Y-76791460D02*
X74830000Y-76791460D01*
X77430000Y-76791460D02*
X77430000Y-74131460D01*
X78700000Y-76791460D02*
X80030000Y-76791460D01*
X80030000Y-76791460D02*
X80030000Y-75461460D01*
X77430000Y-74131460D02*
X74830000Y-74131460D01*
X57755000Y-72161460D02*
X59255000Y-72161460D01*
X58365000Y-69961460D02*
X59505000Y-69961460D01*
X58505000Y-72911460D02*
X58505000Y-71411460D01*
X59505000Y-67591460D02*
X61005000Y-67591460D01*
X59505000Y-72331460D02*
X59505000Y-67591460D01*
X59505000Y-72331460D02*
X61005000Y-72331460D01*
X61005000Y-67591460D02*
X61755000Y-68341460D01*
X61005000Y-72331460D02*
X61755000Y-71581460D01*
X61755000Y-68341460D02*
X62505000Y-67591460D01*
X61755000Y-71581460D02*
X62505000Y-72331460D01*
X62505000Y-67591460D02*
X69745000Y-67591460D01*
X62505000Y-72331460D02*
X69745000Y-72331460D01*
X69745000Y-72331460D02*
X69745000Y-67591460D01*
X70885000Y-69961460D02*
X69745000Y-69961460D01*
X37110000Y-35570880D02*
X37110000Y-35852040D01*
X36090000Y-35570880D02*
X36090000Y-35852040D01*
X38840580Y-27321460D02*
X38559420Y-27321460D01*
X38840580Y-26301460D02*
X38559420Y-26301460D01*
%LPC*%
D14*
X27725000Y-65141460D03*
D15*
X27725000Y-60061460D03*
D14*
X32100000Y-48061460D03*
D15*
X37180000Y-48061460D03*
D16*
X75455000Y-55261460D03*
D17*
X58795000Y-52721460D03*
D18*
X58795000Y-55261460D03*
X58795000Y-57801460D03*
D19*
X31000000Y-88836460D03*
X28460000Y-83756460D03*
X31000000Y-76136460D03*
D20*
X31410000Y-103911460D03*
D21*
X33950000Y-103911460D03*
X36490000Y-103911460D03*
X39030000Y-103911460D03*
X41570000Y-103911460D03*
D16*
X47455000Y-55361460D03*
D17*
X30795000Y-52821460D03*
D18*
X30795000Y-55361460D03*
X30795000Y-57901460D03*
D14*
X54825000Y-61301460D03*
D15*
X54825000Y-56221460D03*
D22*
X53525000Y-34461460D03*
X53525000Y-29581459D03*
D23*
X55725000Y-44061460D03*
D24*
X55725000Y-41521460D03*
D23*
X65650000Y-62686460D03*
D24*
X65650000Y-65226460D03*
D19*
X71125000Y-73261460D03*
X66045000Y-75801460D03*
X58425000Y-73261460D03*
D23*
X65660000Y-23281460D03*
D24*
X68200000Y-23281460D03*
X65660000Y-25821460D03*
X68200000Y-25821460D03*
X65660000Y-28361460D03*
X68200000Y-28361460D03*
X65660000Y-30901460D03*
X68200000Y-30901460D03*
X65660000Y-33441460D03*
X68200000Y-33441460D03*
D14*
X60525000Y-62121460D03*
D15*
X60525000Y-67201460D03*
D23*
X39050000Y-62786460D03*
D24*
X39050000Y-65326460D03*
D20*
X60330000Y-103811460D03*
D21*
X62870000Y-103811460D03*
X65410000Y-103811460D03*
X67950000Y-103811460D03*
X70490000Y-103811460D03*
D25*
X47450000Y-55311460D03*
X75450000Y-55311460D03*
D23*
X59325000Y-35961460D03*
D24*
X61865000Y-35961460D03*
D26*
X45025000Y-37911460D03*
X46575000Y-37911460D03*
D23*
X76250000Y-71361460D03*
D24*
X78790000Y-71361460D03*
X76250000Y-68821460D03*
X78790000Y-68821460D03*
X76250000Y-66281460D03*
X78790000Y-66281460D03*
X76250000Y-63741460D03*
X78790000Y-63741460D03*
D23*
X78665000Y-79681460D03*
D24*
X76125000Y-79681460D03*
X78665000Y-82221460D03*
X76125000Y-82221460D03*
X78665000Y-84761460D03*
X76125000Y-84761460D03*
X78665000Y-87301460D03*
X76125000Y-87301460D03*
D23*
X76925000Y-20761460D03*
D24*
X76925000Y-23301460D03*
X76925000Y-25841460D03*
D27*
X46075000Y-26511460D03*
X44525000Y-26511460D03*
D14*
X38025000Y-69761460D03*
D15*
X53025000Y-69761460D03*
D14*
X33865000Y-71261460D03*
D15*
X28785000Y-71261460D03*
D28*
X47900000Y-30986460D03*
X47900000Y-29436460D03*
D23*
X78700000Y-75461460D03*
D24*
X76160000Y-75461460D03*
D14*
X57125000Y-69961460D03*
D15*
X72125000Y-69961460D03*
D29*
X36600000Y-34936460D03*
X36600000Y-36486460D03*
D27*
X39475000Y-26811460D03*
X37925000Y-26811460D03*
%LPD*%
M02*
