G04 #@! TF.GenerationSoftware,KiCad,Pcbnew,7.0.8-7.0.8~ubuntu22.04.1*
G04 #@! TF.CreationDate,2023-11-03T15:42:22+01:00*
G04 #@! TF.ProjectId,hand,68616e64-2e6b-4696-9361-645f70636258,rev?*
G04 #@! TF.SameCoordinates,Original*
G04 #@! TF.FileFunction,Soldermask,Bot*
G04 #@! TF.FilePolarity,Negative*
%FSLAX46Y46*%
G04 Gerber Fmt 4.6, Leading zero omitted, Abs format (unit mm)*
G04 Created by KiCad (PCBNEW 7.0.8-7.0.8~ubuntu22.04.1) date 2023-11-03 15:42:22*
%MOMM*%
%LPD*%
G01*
G04 APERTURE LIST*
G04 Aperture macros list*
%AMRoundRect*
0 Rectangle with rounded corners*
0 $1 Rounding radius*
0 $2 $3 $4 $5 $6 $7 $8 $9 X,Y pos of 4 corners*
0 Add a 4 corners polygon primitive as box body*
4,1,4,$2,$3,$4,$5,$6,$7,$8,$9,$2,$3,0*
0 Add four circle primitives for the rounded corners*
1,1,$1+$1,$2,$3*
1,1,$1+$1,$4,$5*
1,1,$1+$1,$6,$7*
1,1,$1+$1,$8,$9*
0 Add four rect primitives between the rounded corners*
20,1,$1+$1,$2,$3,$4,$5,0*
20,1,$1+$1,$4,$5,$6,$7,0*
20,1,$1+$1,$6,$7,$8,$9,0*
20,1,$1+$1,$8,$9,$2,$3,0*%
G04 Aperture macros list end*
%ADD10R,2.000000X2.000000*%
%ADD11O,2.000000X2.000000*%
%ADD12O,3.500000X3.500000*%
%ADD13R,2.000000X1.905000*%
%ADD14O,2.000000X1.905000*%
%ADD15R,1.700000X1.700000*%
%ADD16O,1.700000X1.700000*%
%ADD17C,2.700000*%
%ADD18C,0.965200*%
%ADD19R,1.000000X1.000000*%
%ADD20O,1.000000X1.000000*%
%ADD21C,2.200000*%
%ADD22RoundRect,0.225000X-0.250000X0.225000X-0.250000X-0.225000X0.250000X-0.225000X0.250000X0.225000X0*%
%ADD23C,1.800000*%
%ADD24C,1.524000*%
%ADD25RoundRect,0.225000X-0.225000X-0.250000X0.225000X-0.250000X0.225000X0.250000X-0.225000X0.250000X0*%
%ADD26RoundRect,0.225000X0.225000X0.250000X-0.225000X0.250000X-0.225000X-0.250000X0.225000X-0.250000X0*%
%ADD27RoundRect,0.250000X0.450000X-0.262500X0.450000X0.262500X-0.450000X0.262500X-0.450000X-0.262500X0*%
%ADD28RoundRect,0.225000X0.250000X-0.225000X0.250000X0.225000X-0.250000X0.225000X-0.250000X-0.225000X0*%
G04 APERTURE END LIST*
D10*
X152000000Y-48800000D03*
D11*
X157080000Y-48800000D03*
D12*
X195355000Y-56000000D03*
D13*
X178695000Y-53460000D03*
D14*
X178695000Y-56000000D03*
X178695000Y-58540000D03*
D15*
X151710000Y-104650000D03*
D16*
X154250000Y-104650000D03*
X156790000Y-104650000D03*
X159330000Y-104650000D03*
X161870000Y-104650000D03*
D12*
X167355000Y-56100000D03*
D13*
X150695000Y-53560000D03*
D14*
X150695000Y-56100000D03*
X150695000Y-58640000D03*
D10*
X176785000Y-63500000D03*
D11*
X181865000Y-63500000D03*
D15*
X165515000Y-82540000D03*
D16*
X162975000Y-82540000D03*
X165515000Y-80000000D03*
X162975000Y-80000000D03*
D15*
X165465000Y-76200000D03*
D16*
X162925000Y-76200000D03*
X165465000Y-73660000D03*
X162925000Y-73660000D03*
X165465000Y-71120000D03*
X162925000Y-71120000D03*
X165465000Y-68580000D03*
X162925000Y-68580000D03*
D15*
X165525000Y-94320000D03*
D16*
X162985000Y-94320000D03*
X165525000Y-91780000D03*
X162985000Y-91780000D03*
X165525000Y-89240000D03*
X162985000Y-89240000D03*
X165525000Y-86700000D03*
X162985000Y-86700000D03*
D17*
X215900000Y-55674999D03*
D18*
X173425000Y-35200000D03*
X173425000Y-30319999D03*
D19*
X169300000Y-49200000D03*
D20*
X170570000Y-49200000D03*
D15*
X185560000Y-24020000D03*
D16*
X188100000Y-24020000D03*
X185560000Y-26560000D03*
X188100000Y-26560000D03*
X185560000Y-29100000D03*
X188100000Y-29100000D03*
X185560000Y-31640000D03*
X188100000Y-31640000D03*
X185560000Y-34180000D03*
X188100000Y-34180000D03*
D10*
X181765000Y-69400000D03*
D11*
X176685000Y-69400000D03*
D19*
X177292000Y-49530000D03*
D20*
X178562000Y-49530000D03*
D15*
X180430000Y-104550000D03*
D16*
X182970000Y-104550000D03*
X185510000Y-104550000D03*
X188050000Y-104550000D03*
X190590000Y-104550000D03*
D19*
X164975000Y-49125000D03*
D20*
X166245000Y-49125000D03*
D17*
X243400000Y-55674999D03*
D21*
X167350000Y-56050000D03*
X195350000Y-56050000D03*
D19*
X181770000Y-28600000D03*
D20*
X180500000Y-28600000D03*
D10*
X153725000Y-74980000D03*
D11*
X153725000Y-69900000D03*
D22*
X163000000Y-32350000D03*
X163000000Y-33900000D03*
D23*
X157025000Y-84200000D03*
X159565000Y-79120000D03*
X157025000Y-71500000D03*
D15*
X203500000Y-29280000D03*
D16*
X203500000Y-26740000D03*
X203500000Y-24200000D03*
D24*
X229560000Y-31492500D03*
X232100000Y-31492500D03*
X228925000Y-23287500D03*
X230825000Y-23287500D03*
X232725000Y-23287500D03*
D25*
X164925000Y-38650000D03*
X166475000Y-38650000D03*
D26*
X174700000Y-94200000D03*
X173150000Y-94200000D03*
D22*
X160900000Y-32350000D03*
X160900000Y-33900000D03*
D15*
X196900000Y-24060000D03*
D16*
X196900000Y-26600000D03*
X196900000Y-29140000D03*
D26*
X174700000Y-84800000D03*
X173150000Y-84800000D03*
X165975000Y-27250000D03*
X164425000Y-27250000D03*
D27*
X170600000Y-83925000D03*
X170600000Y-82100000D03*
D10*
X149500000Y-73100000D03*
D11*
X149500000Y-88100000D03*
D10*
X153725000Y-83840000D03*
D11*
X153725000Y-78760000D03*
D23*
X190025000Y-66600000D03*
X184945000Y-64060000D03*
X177325000Y-66600000D03*
D28*
X167800000Y-31725000D03*
X167800000Y-30175000D03*
D10*
X177700000Y-72700000D03*
D11*
X192700000Y-72700000D03*
D27*
X168400000Y-86000000D03*
X168400000Y-84175000D03*
D22*
X156500000Y-35675000D03*
X156500000Y-37225000D03*
D26*
X159375000Y-27550000D03*
X157825000Y-27550000D03*
M02*
