G04 #@! TF.GenerationSoftware,KiCad,Pcbnew,7.0.8-7.0.8~ubuntu22.04.1*
G04 #@! TF.CreationDate,2024-01-26T15:30:58+01:00*
G04 #@! TF.ProjectId,hand,68616e64-2e6b-4696-9361-645f70636258,rev?*
G04 #@! TF.SameCoordinates,Original*
G04 #@! TF.FileFunction,Copper,L3,Inr*
G04 #@! TF.FilePolarity,Positive*
%FSLAX46Y46*%
G04 Gerber Fmt 4.6, Leading zero omitted, Abs format (unit mm)*
G04 Created by KiCad (PCBNEW 7.0.8-7.0.8~ubuntu22.04.1) date 2024-01-26 15:30:58*
%MOMM*%
%LPD*%
G01*
G04 APERTURE LIST*
G04 #@! TA.AperFunction,ComponentPad*
%ADD10R,2.000000X2.000000*%
G04 #@! TD*
G04 #@! TA.AperFunction,ComponentPad*
%ADD11O,2.000000X2.000000*%
G04 #@! TD*
G04 #@! TA.AperFunction,ComponentPad*
%ADD12R,2.000000X1.905000*%
G04 #@! TD*
G04 #@! TA.AperFunction,ComponentPad*
%ADD13O,2.000000X1.905000*%
G04 #@! TD*
G04 #@! TA.AperFunction,ComponentPad*
%ADD14C,1.800000*%
G04 #@! TD*
G04 #@! TA.AperFunction,ComponentPad*
%ADD15R,2.200000X2.200000*%
G04 #@! TD*
G04 #@! TA.AperFunction,ComponentPad*
%ADD16O,2.200000X2.200000*%
G04 #@! TD*
G04 #@! TA.AperFunction,ComponentPad*
%ADD17C,0.965200*%
G04 #@! TD*
G04 #@! TA.AperFunction,ComponentPad*
%ADD18R,1.700000X1.700000*%
G04 #@! TD*
G04 #@! TA.AperFunction,ComponentPad*
%ADD19O,1.700000X1.700000*%
G04 #@! TD*
G04 #@! TA.AperFunction,ViaPad*
%ADD20C,0.800000*%
G04 #@! TD*
G04 #@! TA.AperFunction,ViaPad*
%ADD21C,1.200000*%
G04 #@! TD*
G04 APERTURE END LIST*
D10*
X27725000Y-65141460D03*
D11*
X27725000Y-60061460D03*
D10*
X32100000Y-48061460D03*
D11*
X37180000Y-48061460D03*
D12*
X58795000Y-52721460D03*
D13*
X58795000Y-55261460D03*
X58795000Y-57801460D03*
D14*
X31000000Y-88836460D03*
X28460000Y-83756460D03*
X31000000Y-76136460D03*
D15*
X31410000Y-103911460D03*
D16*
X33950000Y-103911460D03*
X36490000Y-103911460D03*
X39030000Y-103911460D03*
X41570000Y-103911460D03*
D12*
X30795000Y-52821460D03*
D13*
X30795000Y-55361460D03*
X30795000Y-57901460D03*
D10*
X54825000Y-61301460D03*
D11*
X54825000Y-56221460D03*
D17*
X53525000Y-34461460D03*
X53525000Y-29581459D03*
D18*
X55725000Y-44061460D03*
D19*
X55725000Y-41521460D03*
D18*
X65650000Y-62686460D03*
D19*
X65650000Y-65226460D03*
D14*
X71125000Y-73261460D03*
X66045000Y-75801460D03*
X58425000Y-73261460D03*
D18*
X65660000Y-23281460D03*
D19*
X68200000Y-23281460D03*
X65660000Y-25821460D03*
X68200000Y-25821460D03*
X65660000Y-28361460D03*
X68200000Y-28361460D03*
X65660000Y-30901460D03*
X68200000Y-30901460D03*
X65660000Y-33441460D03*
X68200000Y-33441460D03*
D10*
X60525000Y-62121460D03*
D11*
X60525000Y-67201460D03*
D18*
X39050000Y-62786460D03*
D19*
X39050000Y-65326460D03*
D15*
X60330000Y-103811460D03*
D16*
X62870000Y-103811460D03*
X65410000Y-103811460D03*
X67950000Y-103811460D03*
X70490000Y-103811460D03*
D18*
X59325000Y-35961460D03*
D19*
X61865000Y-35961460D03*
D18*
X76250000Y-71361460D03*
D19*
X78790000Y-71361460D03*
X76250000Y-68821460D03*
X78790000Y-68821460D03*
X76250000Y-66281460D03*
X78790000Y-66281460D03*
X76250000Y-63741460D03*
X78790000Y-63741460D03*
D18*
X78665000Y-79681460D03*
D19*
X76125000Y-79681460D03*
X78665000Y-82221460D03*
X76125000Y-82221460D03*
X78665000Y-84761460D03*
X76125000Y-84761460D03*
X78665000Y-87301460D03*
X76125000Y-87301460D03*
D18*
X76925000Y-20761460D03*
D19*
X76925000Y-23301460D03*
X76925000Y-25841460D03*
D10*
X38025000Y-69761460D03*
D11*
X53025000Y-69761460D03*
D10*
X33865000Y-71261460D03*
D11*
X28785000Y-71261460D03*
D18*
X78700000Y-75461460D03*
D19*
X76160000Y-75461460D03*
D10*
X57125000Y-69961460D03*
D11*
X72125000Y-69961460D03*
D20*
X55000000Y-93300000D03*
X46600000Y-29661460D03*
X69700000Y-39900000D03*
X30625000Y-37261460D03*
X37300000Y-41400000D03*
X38825000Y-28061460D03*
X44825000Y-28161460D03*
X46425000Y-36361460D03*
X38125000Y-36361460D03*
X55300000Y-84800000D03*
X30200000Y-30800000D03*
X53500000Y-98300000D03*
X36200000Y-107700000D03*
X41800000Y-22900000D03*
X51100000Y-87300000D03*
X29100000Y-107700000D03*
X68800000Y-97500000D03*
X62800000Y-95300000D03*
X33100000Y-80000000D03*
X35176500Y-33461460D03*
X51200000Y-80800000D03*
X33200000Y-88400000D03*
X33100000Y-81100000D03*
X28200000Y-22900000D03*
X68400000Y-85900000D03*
X46600000Y-31100000D03*
X72500000Y-107300000D03*
X42700000Y-107700000D03*
X40025000Y-28061460D03*
X51100000Y-89500000D03*
X48500000Y-101900000D03*
X51200000Y-81900000D03*
X64900000Y-90700000D03*
X33200000Y-89500000D03*
X51100000Y-88400000D03*
X68000000Y-37900000D03*
X66000000Y-107300000D03*
X68800000Y-101100000D03*
X45325000Y-36361460D03*
X71900000Y-86000000D03*
X76400000Y-43400000D03*
X53500000Y-101900000D03*
X58900000Y-107300000D03*
X63800000Y-101100000D03*
X32425000Y-30161460D03*
X53000000Y-36900000D03*
X28625000Y-36161460D03*
X51200000Y-79700000D03*
X35300000Y-22900000D03*
X62000000Y-86300000D03*
X45925000Y-28161460D03*
X33100000Y-82200000D03*
X33200000Y-87300000D03*
X48500000Y-98200000D03*
X63800000Y-97400000D03*
X38425000Y-35461460D03*
X64800000Y-82000000D03*
X56625000Y-62961460D03*
X49825000Y-83061460D03*
D21*
X36900000Y-74400000D03*
D20*
X66325000Y-84161460D03*
X68000000Y-39300000D03*
X48800000Y-52000000D03*
X46900000Y-67200000D03*
X36300000Y-97300000D03*
X39300000Y-100300000D03*
X53400000Y-52000000D03*
X44000000Y-71900000D03*
X76125000Y-38961460D03*
X76125000Y-37361460D03*
X51700000Y-26500000D03*
X52073500Y-62400000D03*
X51475290Y-27398839D03*
X51400000Y-63100000D03*
X51178638Y-28500000D03*
X50748500Y-63800000D03*
X50900000Y-30000000D03*
X50096500Y-64500000D03*
X49400000Y-65200000D03*
X50370212Y-31034996D03*
X48718482Y-65827645D03*
X49948500Y-31859960D03*
X54400000Y-24800000D03*
X41700000Y-35948500D03*
X56100000Y-25500000D03*
X42500000Y-36600000D03*
X52300000Y-24300000D03*
X40500000Y-36000000D03*
X41948500Y-40461460D03*
X42625000Y-41261460D03*
X41297000Y-94400000D03*
X34525000Y-30061460D03*
X44000000Y-94773497D03*
X33598497Y-30061460D03*
X40100000Y-94400000D03*
X44000000Y-95700000D03*
X43900000Y-46600000D03*
X43400000Y-48000000D03*
X56600000Y-48773500D03*
X56600000Y-49700000D03*
X39318230Y-36418230D03*
X38400000Y-34300000D03*
X28700000Y-31200000D03*
X30925000Y-34661460D03*
G04 #@! TA.AperFunction,Conductor*
G36*
X75890539Y-21381145D02*
G01*
X75936294Y-21433949D01*
X75947500Y-21485460D01*
X75947500Y-21624018D01*
X75954898Y-21661209D01*
X75983077Y-21703382D01*
X76025250Y-21731561D01*
X76025252Y-21731562D01*
X76053205Y-21737122D01*
X76062441Y-21738960D01*
X76062442Y-21738960D01*
X77787559Y-21738960D01*
X77794957Y-21737488D01*
X77824748Y-21731562D01*
X77866922Y-21703382D01*
X77895102Y-21661208D01*
X77902500Y-21624018D01*
X77902500Y-21485460D01*
X77922185Y-21418421D01*
X77974989Y-21372666D01*
X78026500Y-21361460D01*
X78801000Y-21361460D01*
X78868039Y-21381145D01*
X78913794Y-21433949D01*
X78925000Y-21485460D01*
X78925000Y-61361460D01*
X80801000Y-61361460D01*
X80868039Y-61381145D01*
X80913794Y-61433949D01*
X80925000Y-61485460D01*
X80925000Y-94837460D01*
X80905315Y-94904499D01*
X80852511Y-94950254D01*
X80801000Y-94961460D01*
X78925000Y-94961460D01*
X78925000Y-102037460D01*
X78905315Y-102104499D01*
X78852511Y-102150254D01*
X78801000Y-102161460D01*
X76325000Y-102161460D01*
X76325000Y-109037460D01*
X76305315Y-109104499D01*
X76252511Y-109150254D01*
X76201000Y-109161460D01*
X25749000Y-109161460D01*
X25681961Y-109141775D01*
X25636206Y-109088971D01*
X25625000Y-109037460D01*
X25625000Y-107700001D01*
X28567948Y-107700001D01*
X28586076Y-107837703D01*
X28586078Y-107837708D01*
X28639227Y-107966023D01*
X28639228Y-107966025D01*
X28639229Y-107966026D01*
X28723782Y-108076218D01*
X28833974Y-108160771D01*
X28962295Y-108213923D01*
X29031147Y-108222987D01*
X29099999Y-108232052D01*
X29100000Y-108232052D01*
X29100001Y-108232052D01*
X29145901Y-108226009D01*
X29237705Y-108213923D01*
X29366026Y-108160771D01*
X29476218Y-108076218D01*
X29560771Y-107966026D01*
X29613923Y-107837705D01*
X29632052Y-107700001D01*
X35667948Y-107700001D01*
X35686076Y-107837703D01*
X35686078Y-107837708D01*
X35739227Y-107966023D01*
X35739228Y-107966025D01*
X35739229Y-107966026D01*
X35823782Y-108076218D01*
X35933974Y-108160771D01*
X36062295Y-108213923D01*
X36131147Y-108222987D01*
X36199999Y-108232052D01*
X36200000Y-108232052D01*
X36200001Y-108232052D01*
X36245901Y-108226009D01*
X36337705Y-108213923D01*
X36466026Y-108160771D01*
X36576218Y-108076218D01*
X36660771Y-107966026D01*
X36713923Y-107837705D01*
X36732052Y-107700001D01*
X42167948Y-107700001D01*
X42186076Y-107837703D01*
X42186078Y-107837708D01*
X42239227Y-107966023D01*
X42239228Y-107966025D01*
X42239229Y-107966026D01*
X42323782Y-108076218D01*
X42433974Y-108160771D01*
X42562295Y-108213923D01*
X42631147Y-108222987D01*
X42699999Y-108232052D01*
X42700000Y-108232052D01*
X42700001Y-108232052D01*
X42745901Y-108226009D01*
X42837705Y-108213923D01*
X42966026Y-108160771D01*
X43076218Y-108076218D01*
X43160771Y-107966026D01*
X43213923Y-107837705D01*
X43232052Y-107700000D01*
X43213923Y-107562295D01*
X43162318Y-107437708D01*
X43160772Y-107433976D01*
X43160771Y-107433975D01*
X43160771Y-107433974D01*
X43076218Y-107323782D01*
X43045226Y-107300001D01*
X58367948Y-107300001D01*
X58386076Y-107437703D01*
X58386078Y-107437708D01*
X58439227Y-107566023D01*
X58439228Y-107566025D01*
X58439229Y-107566026D01*
X58523782Y-107676218D01*
X58633974Y-107760771D01*
X58762295Y-107813923D01*
X58831147Y-107822987D01*
X58899999Y-107832052D01*
X58900000Y-107832052D01*
X58900001Y-107832052D01*
X58945901Y-107826009D01*
X59037705Y-107813923D01*
X59166026Y-107760771D01*
X59276218Y-107676218D01*
X59360771Y-107566026D01*
X59413923Y-107437705D01*
X59432052Y-107300001D01*
X65467948Y-107300001D01*
X65486076Y-107437703D01*
X65486078Y-107437708D01*
X65539227Y-107566023D01*
X65539228Y-107566025D01*
X65539229Y-107566026D01*
X65623782Y-107676218D01*
X65733974Y-107760771D01*
X65862295Y-107813923D01*
X65931147Y-107822987D01*
X65999999Y-107832052D01*
X66000000Y-107832052D01*
X66000001Y-107832052D01*
X66045901Y-107826009D01*
X66137705Y-107813923D01*
X66266026Y-107760771D01*
X66376218Y-107676218D01*
X66460771Y-107566026D01*
X66513923Y-107437705D01*
X66532052Y-107300001D01*
X71967948Y-107300001D01*
X71986076Y-107437703D01*
X71986078Y-107437708D01*
X72039227Y-107566023D01*
X72039228Y-107566025D01*
X72039229Y-107566026D01*
X72123782Y-107676218D01*
X72233974Y-107760771D01*
X72362295Y-107813923D01*
X72431147Y-107822987D01*
X72499999Y-107832052D01*
X72500000Y-107832052D01*
X72500001Y-107832052D01*
X72545901Y-107826009D01*
X72637705Y-107813923D01*
X72766026Y-107760771D01*
X72876218Y-107676218D01*
X72960771Y-107566026D01*
X73013923Y-107437705D01*
X73032052Y-107300000D01*
X73024051Y-107239229D01*
X73013923Y-107162296D01*
X73013921Y-107162291D01*
X72960772Y-107033976D01*
X72960771Y-107033975D01*
X72960771Y-107033974D01*
X72876218Y-106923782D01*
X72766026Y-106839229D01*
X72766025Y-106839228D01*
X72766023Y-106839227D01*
X72637708Y-106786078D01*
X72637703Y-106786076D01*
X72500001Y-106767948D01*
X72499999Y-106767948D01*
X72362296Y-106786076D01*
X72362291Y-106786078D01*
X72233976Y-106839227D01*
X72123782Y-106923782D01*
X72039227Y-107033976D01*
X71986078Y-107162291D01*
X71986076Y-107162296D01*
X71967948Y-107299998D01*
X71967948Y-107300001D01*
X66532052Y-107300001D01*
X66532052Y-107300000D01*
X66524051Y-107239229D01*
X66513923Y-107162296D01*
X66513921Y-107162291D01*
X66460772Y-107033976D01*
X66460771Y-107033975D01*
X66460771Y-107033974D01*
X66376218Y-106923782D01*
X66266026Y-106839229D01*
X66266025Y-106839228D01*
X66266023Y-106839227D01*
X66137708Y-106786078D01*
X66137703Y-106786076D01*
X66000001Y-106767948D01*
X65999999Y-106767948D01*
X65862296Y-106786076D01*
X65862291Y-106786078D01*
X65733976Y-106839227D01*
X65623782Y-106923782D01*
X65539227Y-107033976D01*
X65486078Y-107162291D01*
X65486076Y-107162296D01*
X65467948Y-107299998D01*
X65467948Y-107300001D01*
X59432052Y-107300001D01*
X59432052Y-107300000D01*
X59424051Y-107239229D01*
X59413923Y-107162296D01*
X59413921Y-107162291D01*
X59360772Y-107033976D01*
X59360771Y-107033975D01*
X59360771Y-107033974D01*
X59276218Y-106923782D01*
X59166026Y-106839229D01*
X59166025Y-106839228D01*
X59166023Y-106839227D01*
X59037708Y-106786078D01*
X59037703Y-106786076D01*
X58900001Y-106767948D01*
X58899999Y-106767948D01*
X58762296Y-106786076D01*
X58762291Y-106786078D01*
X58633976Y-106839227D01*
X58523782Y-106923782D01*
X58439227Y-107033976D01*
X58386078Y-107162291D01*
X58386076Y-107162296D01*
X58367948Y-107299998D01*
X58367948Y-107300001D01*
X43045226Y-107300001D01*
X42966026Y-107239229D01*
X42966025Y-107239228D01*
X42966023Y-107239227D01*
X42837708Y-107186078D01*
X42837703Y-107186076D01*
X42700001Y-107167948D01*
X42699999Y-107167948D01*
X42562296Y-107186076D01*
X42562291Y-107186078D01*
X42433976Y-107239227D01*
X42323782Y-107323782D01*
X42239227Y-107433976D01*
X42186078Y-107562291D01*
X42186076Y-107562296D01*
X42167948Y-107699998D01*
X42167948Y-107700001D01*
X36732052Y-107700001D01*
X36732052Y-107700000D01*
X36713923Y-107562295D01*
X36662318Y-107437708D01*
X36660772Y-107433976D01*
X36660771Y-107433975D01*
X36660771Y-107433974D01*
X36576218Y-107323782D01*
X36466026Y-107239229D01*
X36466025Y-107239228D01*
X36466023Y-107239227D01*
X36337708Y-107186078D01*
X36337703Y-107186076D01*
X36200001Y-107167948D01*
X36199999Y-107167948D01*
X36062296Y-107186076D01*
X36062291Y-107186078D01*
X35933976Y-107239227D01*
X35823782Y-107323782D01*
X35739227Y-107433976D01*
X35686078Y-107562291D01*
X35686076Y-107562296D01*
X35667948Y-107699998D01*
X35667948Y-107700001D01*
X29632052Y-107700001D01*
X29632052Y-107700000D01*
X29613923Y-107562295D01*
X29562318Y-107437708D01*
X29560772Y-107433976D01*
X29560771Y-107433975D01*
X29560771Y-107433974D01*
X29476218Y-107323782D01*
X29366026Y-107239229D01*
X29366025Y-107239228D01*
X29366023Y-107239227D01*
X29237708Y-107186078D01*
X29237703Y-107186076D01*
X29100001Y-107167948D01*
X29099999Y-107167948D01*
X28962296Y-107186076D01*
X28962291Y-107186078D01*
X28833976Y-107239227D01*
X28723782Y-107323782D01*
X28639227Y-107433976D01*
X28586078Y-107562291D01*
X28586076Y-107562296D01*
X28567948Y-107699998D01*
X28567948Y-107700001D01*
X25625000Y-107700001D01*
X25625000Y-97646389D01*
X26519176Y-97646389D01*
X26519705Y-97651296D01*
X26523036Y-103475588D01*
X26523036Y-104361866D01*
X26523074Y-104362270D01*
X26523074Y-104393352D01*
X26523074Y-104417878D01*
X26525336Y-104429252D01*
X26549520Y-104550855D01*
X26549522Y-104550861D01*
X26601403Y-104676121D01*
X26601406Y-104676128D01*
X26609012Y-104687512D01*
X26676729Y-104788864D01*
X26676731Y-104788866D01*
X26772603Y-104884743D01*
X26885337Y-104960075D01*
X27010602Y-105011966D01*
X27143582Y-105038422D01*
X27186610Y-105038422D01*
X27186616Y-105038424D01*
X27211277Y-105038424D01*
X27211376Y-105038424D01*
X27211876Y-105038424D01*
X28837222Y-105038424D01*
X28837365Y-105038465D01*
X28888624Y-105038463D01*
X28888624Y-105038464D01*
X28956421Y-105038462D01*
X29029023Y-105024018D01*
X30182500Y-105024018D01*
X30189898Y-105061209D01*
X30218077Y-105103382D01*
X30260250Y-105131561D01*
X30260252Y-105131562D01*
X30288205Y-105137122D01*
X30297441Y-105138960D01*
X30297442Y-105138960D01*
X32522559Y-105138960D01*
X32529957Y-105137488D01*
X32559748Y-105131562D01*
X32601922Y-105103382D01*
X32630102Y-105061208D01*
X32637500Y-105024018D01*
X32637500Y-104560635D01*
X32657185Y-104493596D01*
X32709989Y-104447841D01*
X32779147Y-104437897D01*
X32842703Y-104466922D01*
X32873882Y-104508231D01*
X32882891Y-104527551D01*
X32882895Y-104527559D01*
X33006088Y-104703497D01*
X33157962Y-104855371D01*
X33333900Y-104978564D01*
X33333902Y-104978565D01*
X33333905Y-104978567D01*
X33528567Y-105069339D01*
X33736033Y-105124929D01*
X33907206Y-105139905D01*
X33949999Y-105143649D01*
X33950000Y-105143649D01*
X33950001Y-105143649D01*
X33985661Y-105140529D01*
X34163967Y-105124929D01*
X34371433Y-105069339D01*
X34566095Y-104978567D01*
X34742036Y-104855372D01*
X34893912Y-104703496D01*
X35017107Y-104527555D01*
X35096657Y-104356958D01*
X35107618Y-104333453D01*
X35153790Y-104281013D01*
X35220984Y-104261861D01*
X35287865Y-104282077D01*
X35332382Y-104333453D01*
X35422891Y-104527551D01*
X35422895Y-104527559D01*
X35546088Y-104703497D01*
X35697962Y-104855371D01*
X35873900Y-104978564D01*
X35873902Y-104978565D01*
X35873905Y-104978567D01*
X36068567Y-105069339D01*
X36276033Y-105124929D01*
X36447206Y-105139905D01*
X36489999Y-105143649D01*
X36490000Y-105143649D01*
X36490001Y-105143649D01*
X36525661Y-105140529D01*
X36703967Y-105124929D01*
X36911433Y-105069339D01*
X37106095Y-104978567D01*
X37282036Y-104855372D01*
X37433912Y-104703496D01*
X37557107Y-104527555D01*
X37636657Y-104356958D01*
X37647618Y-104333453D01*
X37693790Y-104281013D01*
X37760984Y-104261861D01*
X37827865Y-104282077D01*
X37872382Y-104333453D01*
X37962891Y-104527551D01*
X37962895Y-104527559D01*
X38086088Y-104703497D01*
X38237962Y-104855371D01*
X38413900Y-104978564D01*
X38413902Y-104978565D01*
X38413905Y-104978567D01*
X38608567Y-105069339D01*
X38816033Y-105124929D01*
X38987206Y-105139905D01*
X39029999Y-105143649D01*
X39030000Y-105143649D01*
X39030001Y-105143649D01*
X39065661Y-105140529D01*
X39243967Y-105124929D01*
X39451433Y-105069339D01*
X39646095Y-104978567D01*
X39822036Y-104855372D01*
X39973912Y-104703496D01*
X40097107Y-104527555D01*
X40176657Y-104356958D01*
X40187618Y-104333453D01*
X40233790Y-104281013D01*
X40300984Y-104261861D01*
X40367865Y-104282077D01*
X40412382Y-104333453D01*
X40502891Y-104527551D01*
X40502895Y-104527559D01*
X40626088Y-104703497D01*
X40777962Y-104855371D01*
X40953900Y-104978564D01*
X40953902Y-104978565D01*
X40953905Y-104978567D01*
X41148567Y-105069339D01*
X41356033Y-105124929D01*
X41527206Y-105139905D01*
X41569999Y-105143649D01*
X41570000Y-105143649D01*
X41570001Y-105143649D01*
X41605661Y-105140529D01*
X41783967Y-105124929D01*
X41991433Y-105069339D01*
X42186095Y-104978567D01*
X42362036Y-104855372D01*
X42513912Y-104703496D01*
X42637107Y-104527555D01*
X42727879Y-104332893D01*
X42783469Y-104125427D01*
X42802189Y-103911460D01*
X42783469Y-103697493D01*
X42727879Y-103490027D01*
X42637107Y-103295366D01*
X42513912Y-103119424D01*
X42513910Y-103119421D01*
X42362037Y-102967548D01*
X42186099Y-102844355D01*
X42186095Y-102844353D01*
X42146668Y-102825968D01*
X41991433Y-102753581D01*
X41991429Y-102753580D01*
X41991425Y-102753578D01*
X41783972Y-102697992D01*
X41783962Y-102697990D01*
X41570001Y-102679271D01*
X41569999Y-102679271D01*
X41356037Y-102697990D01*
X41356027Y-102697992D01*
X41148574Y-102753578D01*
X41148565Y-102753582D01*
X40953907Y-102844352D01*
X40953905Y-102844353D01*
X40777961Y-102967549D01*
X40626089Y-103119421D01*
X40502893Y-103295365D01*
X40502892Y-103295367D01*
X40412382Y-103489467D01*
X40366210Y-103541906D01*
X40299016Y-103561058D01*
X40232135Y-103540842D01*
X40187618Y-103489467D01*
X40106118Y-103314691D01*
X40097107Y-103295366D01*
X39973912Y-103119424D01*
X39973910Y-103119421D01*
X39822037Y-102967548D01*
X39646099Y-102844355D01*
X39646095Y-102844353D01*
X39606668Y-102825968D01*
X39451433Y-102753581D01*
X39451429Y-102753580D01*
X39451425Y-102753578D01*
X39243972Y-102697992D01*
X39243962Y-102697990D01*
X39030001Y-102679271D01*
X39029999Y-102679271D01*
X38816037Y-102697990D01*
X38816027Y-102697992D01*
X38608574Y-102753578D01*
X38608565Y-102753582D01*
X38413907Y-102844352D01*
X38413905Y-102844353D01*
X38237961Y-102967549D01*
X38086089Y-103119421D01*
X37962893Y-103295365D01*
X37962892Y-103295367D01*
X37872382Y-103489467D01*
X37826210Y-103541906D01*
X37759016Y-103561058D01*
X37692135Y-103540842D01*
X37647618Y-103489467D01*
X37566118Y-103314691D01*
X37557107Y-103295366D01*
X37433912Y-103119424D01*
X37433910Y-103119421D01*
X37282037Y-102967548D01*
X37106099Y-102844355D01*
X37106095Y-102844353D01*
X37066668Y-102825968D01*
X36911433Y-102753581D01*
X36911429Y-102753580D01*
X36911425Y-102753578D01*
X36703972Y-102697992D01*
X36703962Y-102697990D01*
X36490001Y-102679271D01*
X36489999Y-102679271D01*
X36276037Y-102697990D01*
X36276027Y-102697992D01*
X36068574Y-102753578D01*
X36068565Y-102753582D01*
X35873907Y-102844352D01*
X35873905Y-102844353D01*
X35697961Y-102967549D01*
X35546089Y-103119421D01*
X35422893Y-103295365D01*
X35422892Y-103295367D01*
X35332382Y-103489467D01*
X35286210Y-103541906D01*
X35219016Y-103561058D01*
X35152135Y-103540842D01*
X35107618Y-103489467D01*
X35026118Y-103314691D01*
X35017107Y-103295366D01*
X34893912Y-103119424D01*
X34893910Y-103119421D01*
X34742037Y-102967548D01*
X34566099Y-102844355D01*
X34566095Y-102844353D01*
X34526668Y-102825968D01*
X34371433Y-102753581D01*
X34371429Y-102753580D01*
X34371425Y-102753578D01*
X34163972Y-102697992D01*
X34163962Y-102697990D01*
X33950001Y-102679271D01*
X33949999Y-102679271D01*
X33736037Y-102697990D01*
X33736027Y-102697992D01*
X33528574Y-102753578D01*
X33528565Y-102753582D01*
X33333907Y-102844352D01*
X33333905Y-102844353D01*
X33157961Y-102967549D01*
X33006089Y-103119421D01*
X32889254Y-103286281D01*
X32882893Y-103295366D01*
X32874718Y-103312899D01*
X32873882Y-103314691D01*
X32827708Y-103367130D01*
X32760515Y-103386281D01*
X32693634Y-103366064D01*
X32648300Y-103312899D01*
X32637500Y-103262285D01*
X32637500Y-102798901D01*
X32635662Y-102789665D01*
X32630102Y-102761712D01*
X32624667Y-102753578D01*
X32601922Y-102719537D01*
X32559749Y-102691358D01*
X32522559Y-102683960D01*
X32522558Y-102683960D01*
X30297442Y-102683960D01*
X30297441Y-102683960D01*
X30260250Y-102691358D01*
X30218077Y-102719537D01*
X30189898Y-102761710D01*
X30182500Y-102798901D01*
X30182500Y-105024018D01*
X29029023Y-105024018D01*
X29089410Y-105012004D01*
X29214682Y-104960110D01*
X29327423Y-104884774D01*
X29423300Y-104788892D01*
X29498629Y-104676146D01*
X29550516Y-104550872D01*
X29576966Y-104417881D01*
X29576964Y-104350084D01*
X29576964Y-104349584D01*
X29576964Y-100300001D01*
X38767948Y-100300001D01*
X38786076Y-100437703D01*
X38786078Y-100437708D01*
X38839227Y-100566023D01*
X38839228Y-100566025D01*
X38839229Y-100566026D01*
X38923782Y-100676218D01*
X39033974Y-100760771D01*
X39162295Y-100813923D01*
X39231147Y-100822987D01*
X39299999Y-100832052D01*
X39300000Y-100832052D01*
X39300001Y-100832052D01*
X39345901Y-100826009D01*
X39437705Y-100813923D01*
X39566026Y-100760771D01*
X39676218Y-100676218D01*
X39760771Y-100566026D01*
X39813923Y-100437705D01*
X39832052Y-100300000D01*
X39813923Y-100162295D01*
X39760771Y-100033974D01*
X39676218Y-99923782D01*
X39566026Y-99839229D01*
X39566025Y-99839228D01*
X39566023Y-99839227D01*
X39437708Y-99786078D01*
X39437703Y-99786076D01*
X39300001Y-99767948D01*
X39299999Y-99767948D01*
X39162296Y-99786076D01*
X39162291Y-99786078D01*
X39033976Y-99839227D01*
X38923782Y-99923782D01*
X38839227Y-100033976D01*
X38786078Y-100162291D01*
X38786076Y-100162296D01*
X38767948Y-100299998D01*
X38767948Y-100300001D01*
X29576964Y-100300001D01*
X29576964Y-97649236D01*
X29577008Y-97649082D01*
X29577003Y-97597836D01*
X29577004Y-97597836D01*
X29576998Y-97530040D01*
X29550535Y-97397054D01*
X29550534Y-97397053D01*
X29550534Y-97397050D01*
X29550533Y-97397047D01*
X29510329Y-97300001D01*
X35767948Y-97300001D01*
X35786076Y-97437703D01*
X35786078Y-97437708D01*
X35839227Y-97566023D01*
X35839228Y-97566025D01*
X35839229Y-97566026D01*
X35923782Y-97676218D01*
X36033974Y-97760771D01*
X36033975Y-97760771D01*
X36033976Y-97760772D01*
X36051301Y-97767948D01*
X36162295Y-97813923D01*
X36231147Y-97822987D01*
X36299999Y-97832052D01*
X36300000Y-97832052D01*
X36300001Y-97832052D01*
X36345901Y-97826009D01*
X36437705Y-97813923D01*
X36566026Y-97760771D01*
X36676218Y-97676218D01*
X36760771Y-97566026D01*
X36770494Y-97542553D01*
X43217708Y-97542553D01*
X43217712Y-97610353D01*
X43217712Y-104361560D01*
X43219239Y-104369277D01*
X43221598Y-104393352D01*
X43221597Y-104429257D01*
X43221597Y-104429261D01*
X43248041Y-104562232D01*
X43248042Y-104562237D01*
X43248045Y-104562245D01*
X43299926Y-104687512D01*
X43345266Y-104755372D01*
X43367645Y-104788867D01*
X43375253Y-104800253D01*
X43375255Y-104800256D01*
X43422463Y-104847465D01*
X43471126Y-104896130D01*
X43471129Y-104896132D01*
X43471130Y-104896133D01*
X43583859Y-104971458D01*
X43583868Y-104971463D01*
X43616871Y-104985133D01*
X43709133Y-105023349D01*
X43842117Y-105049800D01*
X43842118Y-105049800D01*
X45638596Y-105049800D01*
X45638618Y-105049796D01*
X45654896Y-105049795D01*
X45654954Y-105049795D01*
X45787935Y-105023334D01*
X45913200Y-104971442D01*
X46025935Y-104896111D01*
X46121811Y-104800235D01*
X46197142Y-104687500D01*
X46249034Y-104562235D01*
X46275495Y-104429254D01*
X46275500Y-104361460D01*
X46275500Y-104360960D01*
X46275500Y-104350183D01*
X55469176Y-104350183D01*
X55470517Y-104356958D01*
X55471117Y-104360538D01*
X55472494Y-104370534D01*
X55473074Y-104379002D01*
X55473074Y-104417878D01*
X55499520Y-104550853D01*
X55499522Y-104550861D01*
X55551403Y-104676121D01*
X55551406Y-104676128D01*
X55559012Y-104687512D01*
X55626729Y-104788864D01*
X55626731Y-104788866D01*
X55722603Y-104884743D01*
X55835337Y-104960075D01*
X55960602Y-105011966D01*
X56093582Y-105038422D01*
X56136610Y-105038422D01*
X56136616Y-105038424D01*
X56161277Y-105038424D01*
X56161376Y-105038424D01*
X56161876Y-105038424D01*
X57787222Y-105038424D01*
X57787365Y-105038465D01*
X57838624Y-105038463D01*
X57838624Y-105038464D01*
X57906421Y-105038462D01*
X58039410Y-105012004D01*
X58164682Y-104960110D01*
X58218694Y-104924018D01*
X59102500Y-104924018D01*
X59109898Y-104961209D01*
X59138077Y-105003382D01*
X59180250Y-105031561D01*
X59180252Y-105031562D01*
X59208205Y-105037122D01*
X59217441Y-105038960D01*
X59217442Y-105038960D01*
X61442559Y-105038960D01*
X61450159Y-105037448D01*
X61479748Y-105031562D01*
X61521922Y-105003382D01*
X61550102Y-104961208D01*
X61557500Y-104924018D01*
X61557500Y-104460635D01*
X61577185Y-104393596D01*
X61629989Y-104347841D01*
X61699147Y-104337897D01*
X61762703Y-104366922D01*
X61793882Y-104408231D01*
X61802891Y-104427551D01*
X61802895Y-104427559D01*
X61926088Y-104603497D01*
X62077962Y-104755371D01*
X62253900Y-104878564D01*
X62253902Y-104878565D01*
X62253905Y-104878567D01*
X62448567Y-104969339D01*
X62448573Y-104969340D01*
X62448574Y-104969341D01*
X62498508Y-104982720D01*
X62656033Y-105024929D01*
X62827206Y-105039905D01*
X62869999Y-105043649D01*
X62870000Y-105043649D01*
X62870001Y-105043649D01*
X62905661Y-105040529D01*
X63083967Y-105024929D01*
X63291433Y-104969339D01*
X63486095Y-104878567D01*
X63662036Y-104755372D01*
X63813912Y-104603496D01*
X63937107Y-104427555D01*
X64027618Y-104233453D01*
X64073790Y-104181013D01*
X64140984Y-104161861D01*
X64207865Y-104182077D01*
X64252382Y-104233453D01*
X64342891Y-104427551D01*
X64342895Y-104427559D01*
X64466088Y-104603497D01*
X64617962Y-104755371D01*
X64793900Y-104878564D01*
X64793902Y-104878565D01*
X64793905Y-104878567D01*
X64988567Y-104969339D01*
X64988573Y-104969340D01*
X64988574Y-104969341D01*
X65038508Y-104982720D01*
X65196033Y-105024929D01*
X65367206Y-105039905D01*
X65409999Y-105043649D01*
X65410000Y-105043649D01*
X65410001Y-105043649D01*
X65445661Y-105040529D01*
X65623967Y-105024929D01*
X65831433Y-104969339D01*
X66026095Y-104878567D01*
X66202036Y-104755372D01*
X66353912Y-104603496D01*
X66477107Y-104427555D01*
X66567618Y-104233453D01*
X66613790Y-104181013D01*
X66680984Y-104161861D01*
X66747865Y-104182077D01*
X66792382Y-104233453D01*
X66882891Y-104427551D01*
X66882895Y-104427559D01*
X67006088Y-104603497D01*
X67157962Y-104755371D01*
X67333900Y-104878564D01*
X67333902Y-104878565D01*
X67333905Y-104878567D01*
X67528567Y-104969339D01*
X67528573Y-104969340D01*
X67528574Y-104969341D01*
X67578508Y-104982720D01*
X67736033Y-105024929D01*
X67907206Y-105039905D01*
X67949999Y-105043649D01*
X67950000Y-105043649D01*
X67950001Y-105043649D01*
X67985661Y-105040529D01*
X68163967Y-105024929D01*
X68371433Y-104969339D01*
X68566095Y-104878567D01*
X68742036Y-104755372D01*
X68893912Y-104603496D01*
X69017107Y-104427555D01*
X69107618Y-104233453D01*
X69153790Y-104181013D01*
X69220984Y-104161861D01*
X69287865Y-104182077D01*
X69332382Y-104233453D01*
X69422891Y-104427551D01*
X69422895Y-104427559D01*
X69546088Y-104603497D01*
X69697962Y-104755371D01*
X69873900Y-104878564D01*
X69873902Y-104878565D01*
X69873905Y-104878567D01*
X70068567Y-104969339D01*
X70068573Y-104969340D01*
X70068574Y-104969341D01*
X70118508Y-104982720D01*
X70276033Y-105024929D01*
X70447206Y-105039905D01*
X70489999Y-105043649D01*
X70490000Y-105043649D01*
X70490001Y-105043649D01*
X70525661Y-105040529D01*
X70703967Y-105024929D01*
X70911433Y-104969339D01*
X71106095Y-104878567D01*
X71282036Y-104755372D01*
X71433912Y-104603496D01*
X71557107Y-104427555D01*
X71593186Y-104350183D01*
X72244176Y-104350183D01*
X72245517Y-104356958D01*
X72246117Y-104360538D01*
X72247494Y-104370534D01*
X72248074Y-104379002D01*
X72248074Y-104417878D01*
X72274520Y-104550853D01*
X72274522Y-104550861D01*
X72326403Y-104676121D01*
X72326406Y-104676128D01*
X72334012Y-104687512D01*
X72401729Y-104788864D01*
X72401731Y-104788866D01*
X72497603Y-104884743D01*
X72610337Y-104960075D01*
X72735602Y-105011966D01*
X72868582Y-105038422D01*
X72911610Y-105038422D01*
X72911616Y-105038424D01*
X72936277Y-105038424D01*
X72936376Y-105038424D01*
X72936876Y-105038424D01*
X74562222Y-105038424D01*
X74562365Y-105038465D01*
X74613624Y-105038463D01*
X74613624Y-105038464D01*
X74681421Y-105038462D01*
X74814410Y-105012004D01*
X74939682Y-104960110D01*
X75052423Y-104884774D01*
X75148300Y-104788892D01*
X75223629Y-104676146D01*
X75275516Y-104550872D01*
X75301966Y-104417881D01*
X75301964Y-104350084D01*
X75301964Y-104349584D01*
X75301964Y-97649236D01*
X75302008Y-97649082D01*
X75302003Y-97597836D01*
X75302004Y-97597836D01*
X75301998Y-97530040D01*
X75275535Y-97397054D01*
X75275534Y-97397053D01*
X75275534Y-97397050D01*
X75275533Y-97397047D01*
X75223642Y-97271791D01*
X75223638Y-97271784D01*
X75148305Y-97159051D01*
X75148298Y-97159044D01*
X75052427Y-97063176D01*
X75008721Y-97033974D01*
X74939679Y-96987843D01*
X74939675Y-96987841D01*
X74939673Y-96987840D01*
X74814408Y-96935953D01*
X74814403Y-96935952D01*
X74681417Y-96909497D01*
X74613723Y-96909496D01*
X72932417Y-96909496D01*
X72926335Y-96909496D01*
X72914307Y-96910674D01*
X72864723Y-96910674D01*
X72864722Y-96910674D01*
X72845877Y-96914421D01*
X72731744Y-96937120D01*
X72731738Y-96937122D01*
X72606478Y-96989003D01*
X72606474Y-96989005D01*
X72606472Y-96989006D01*
X72606469Y-96989007D01*
X72606467Y-96989009D01*
X72493735Y-97064329D01*
X72493732Y-97064332D01*
X72397860Y-97160200D01*
X72397856Y-97160204D01*
X72322525Y-97272936D01*
X72270634Y-97398202D01*
X72244177Y-97531185D01*
X72244176Y-97598876D01*
X72244176Y-104350183D01*
X71593186Y-104350183D01*
X71647879Y-104232893D01*
X71703469Y-104025427D01*
X71722189Y-103811460D01*
X71703469Y-103597493D01*
X71647879Y-103390027D01*
X71557107Y-103195366D01*
X71433912Y-103019424D01*
X71433910Y-103019421D01*
X71282037Y-102867548D01*
X71106099Y-102744355D01*
X71106095Y-102744353D01*
X71052879Y-102719538D01*
X70911433Y-102653581D01*
X70911429Y-102653580D01*
X70911425Y-102653578D01*
X70703972Y-102597992D01*
X70703962Y-102597990D01*
X70490001Y-102579271D01*
X70489999Y-102579271D01*
X70276037Y-102597990D01*
X70276027Y-102597992D01*
X70068574Y-102653578D01*
X70068565Y-102653582D01*
X69873907Y-102744352D01*
X69873905Y-102744353D01*
X69697961Y-102867549D01*
X69546089Y-103019421D01*
X69422893Y-103195365D01*
X69422892Y-103195367D01*
X69332382Y-103389467D01*
X69286210Y-103441906D01*
X69219016Y-103461058D01*
X69152135Y-103440842D01*
X69107618Y-103389467D01*
X69072749Y-103314691D01*
X69017107Y-103195366D01*
X68893912Y-103019424D01*
X68893910Y-103019421D01*
X68742037Y-102867548D01*
X68566099Y-102744355D01*
X68566095Y-102744353D01*
X68512879Y-102719538D01*
X68371433Y-102653581D01*
X68371429Y-102653580D01*
X68371425Y-102653578D01*
X68163972Y-102597992D01*
X68163962Y-102597990D01*
X67950001Y-102579271D01*
X67949999Y-102579271D01*
X67736037Y-102597990D01*
X67736027Y-102597992D01*
X67528574Y-102653578D01*
X67528565Y-102653582D01*
X67333907Y-102744352D01*
X67333905Y-102744353D01*
X67157961Y-102867549D01*
X67006089Y-103019421D01*
X66882893Y-103195365D01*
X66882892Y-103195367D01*
X66792382Y-103389467D01*
X66746210Y-103441906D01*
X66679016Y-103461058D01*
X66612135Y-103440842D01*
X66567618Y-103389467D01*
X66532749Y-103314691D01*
X66477107Y-103195366D01*
X66353912Y-103019424D01*
X66353910Y-103019421D01*
X66202037Y-102867548D01*
X66026099Y-102744355D01*
X66026095Y-102744353D01*
X65972879Y-102719538D01*
X65831433Y-102653581D01*
X65831429Y-102653580D01*
X65831425Y-102653578D01*
X65623972Y-102597992D01*
X65623962Y-102597990D01*
X65410001Y-102579271D01*
X65409999Y-102579271D01*
X65196037Y-102597990D01*
X65196027Y-102597992D01*
X64988574Y-102653578D01*
X64988565Y-102653582D01*
X64793907Y-102744352D01*
X64793905Y-102744353D01*
X64617961Y-102867549D01*
X64466089Y-103019421D01*
X64342893Y-103195365D01*
X64342892Y-103195367D01*
X64252382Y-103389467D01*
X64206210Y-103441906D01*
X64139016Y-103461058D01*
X64072135Y-103440842D01*
X64027618Y-103389467D01*
X63992749Y-103314691D01*
X63937107Y-103195366D01*
X63813912Y-103019424D01*
X63813910Y-103019421D01*
X63662037Y-102867548D01*
X63486099Y-102744355D01*
X63486095Y-102744353D01*
X63432879Y-102719538D01*
X63291433Y-102653581D01*
X63291429Y-102653580D01*
X63291425Y-102653578D01*
X63083972Y-102597992D01*
X63083962Y-102597990D01*
X62870001Y-102579271D01*
X62869999Y-102579271D01*
X62656037Y-102597990D01*
X62656027Y-102597992D01*
X62448574Y-102653578D01*
X62448565Y-102653582D01*
X62253907Y-102744352D01*
X62253905Y-102744353D01*
X62077961Y-102867549D01*
X61926089Y-103019421D01*
X61826056Y-103162285D01*
X61802893Y-103195366D01*
X61794718Y-103212899D01*
X61793882Y-103214691D01*
X61747708Y-103267130D01*
X61680515Y-103286281D01*
X61613634Y-103266064D01*
X61568300Y-103212899D01*
X61557500Y-103162285D01*
X61557500Y-102698901D01*
X61553595Y-102679271D01*
X61550102Y-102661712D01*
X61524855Y-102623927D01*
X61521922Y-102619537D01*
X61479749Y-102591358D01*
X61442559Y-102583960D01*
X61442558Y-102583960D01*
X59217442Y-102583960D01*
X59217441Y-102583960D01*
X59180250Y-102591358D01*
X59138077Y-102619537D01*
X59109898Y-102661710D01*
X59102500Y-102698901D01*
X59102500Y-104924018D01*
X58218694Y-104924018D01*
X58277423Y-104884774D01*
X58373300Y-104788892D01*
X58448629Y-104676146D01*
X58500516Y-104550872D01*
X58526966Y-104417881D01*
X58526964Y-104350084D01*
X58526964Y-104349584D01*
X58526964Y-101100001D01*
X63267948Y-101100001D01*
X63286076Y-101237703D01*
X63286078Y-101237708D01*
X63339227Y-101366023D01*
X63339228Y-101366025D01*
X63339229Y-101366026D01*
X63423782Y-101476218D01*
X63533974Y-101560771D01*
X63662295Y-101613923D01*
X63731147Y-101622987D01*
X63799999Y-101632052D01*
X63800000Y-101632052D01*
X63800001Y-101632052D01*
X63845901Y-101626009D01*
X63937705Y-101613923D01*
X64066026Y-101560771D01*
X64176218Y-101476218D01*
X64260771Y-101366026D01*
X64313923Y-101237705D01*
X64332052Y-101100001D01*
X68267948Y-101100001D01*
X68286076Y-101237703D01*
X68286078Y-101237708D01*
X68339227Y-101366023D01*
X68339228Y-101366025D01*
X68339229Y-101366026D01*
X68423782Y-101476218D01*
X68533974Y-101560771D01*
X68662295Y-101613923D01*
X68731147Y-101622987D01*
X68799999Y-101632052D01*
X68800000Y-101632052D01*
X68800001Y-101632052D01*
X68845901Y-101626009D01*
X68937705Y-101613923D01*
X69066026Y-101560771D01*
X69176218Y-101476218D01*
X69260771Y-101366026D01*
X69313923Y-101237705D01*
X69332052Y-101100000D01*
X69313923Y-100962295D01*
X69260771Y-100833974D01*
X69176218Y-100723782D01*
X69066026Y-100639229D01*
X69066025Y-100639228D01*
X69066023Y-100639227D01*
X68937708Y-100586078D01*
X68937703Y-100586076D01*
X68800001Y-100567948D01*
X68799999Y-100567948D01*
X68662296Y-100586076D01*
X68662291Y-100586078D01*
X68533976Y-100639227D01*
X68423782Y-100723782D01*
X68339227Y-100833976D01*
X68286078Y-100962291D01*
X68286076Y-100962296D01*
X68267948Y-101099998D01*
X68267948Y-101100001D01*
X64332052Y-101100001D01*
X64332052Y-101100000D01*
X64313923Y-100962295D01*
X64260771Y-100833974D01*
X64176218Y-100723782D01*
X64066026Y-100639229D01*
X64066025Y-100639228D01*
X64066023Y-100639227D01*
X63937708Y-100586078D01*
X63937703Y-100586076D01*
X63800001Y-100567948D01*
X63799999Y-100567948D01*
X63662296Y-100586076D01*
X63662291Y-100586078D01*
X63533976Y-100639227D01*
X63423782Y-100723782D01*
X63339227Y-100833976D01*
X63286078Y-100962291D01*
X63286076Y-100962296D01*
X63267948Y-101099998D01*
X63267948Y-101100001D01*
X58526964Y-101100001D01*
X58526964Y-97649236D01*
X58527008Y-97649082D01*
X58527003Y-97597836D01*
X58527004Y-97597836D01*
X58526998Y-97530040D01*
X58501121Y-97400001D01*
X63267948Y-97400001D01*
X63286076Y-97537703D01*
X63286078Y-97537708D01*
X63339227Y-97666023D01*
X63339228Y-97666025D01*
X63339229Y-97666026D01*
X63423782Y-97776218D01*
X63533974Y-97860771D01*
X63662295Y-97913923D01*
X63731147Y-97922987D01*
X63799999Y-97932052D01*
X63800000Y-97932052D01*
X63800001Y-97932052D01*
X63845901Y-97926009D01*
X63937705Y-97913923D01*
X64066026Y-97860771D01*
X64176218Y-97776218D01*
X64260771Y-97666026D01*
X64313923Y-97537705D01*
X64318887Y-97500001D01*
X68267948Y-97500001D01*
X68286076Y-97637703D01*
X68286078Y-97637708D01*
X68339227Y-97766023D01*
X68339228Y-97766025D01*
X68339229Y-97766026D01*
X68423782Y-97876218D01*
X68533974Y-97960771D01*
X68662295Y-98013923D01*
X68731147Y-98022987D01*
X68799999Y-98032052D01*
X68800000Y-98032052D01*
X68800001Y-98032052D01*
X68845901Y-98026009D01*
X68937705Y-98013923D01*
X69066026Y-97960771D01*
X69176218Y-97876218D01*
X69260771Y-97766026D01*
X69313923Y-97637705D01*
X69327088Y-97537703D01*
X69332052Y-97500001D01*
X69332052Y-97499998D01*
X69318499Y-97397054D01*
X69313923Y-97362295D01*
X69276910Y-97272937D01*
X69260772Y-97233976D01*
X69260771Y-97233975D01*
X69260771Y-97233974D01*
X69176218Y-97123782D01*
X69066026Y-97039229D01*
X69066025Y-97039228D01*
X69066023Y-97039227D01*
X68937708Y-96986078D01*
X68937703Y-96986076D01*
X68800001Y-96967948D01*
X68799999Y-96967948D01*
X68662296Y-96986076D01*
X68662291Y-96986078D01*
X68533976Y-97039227D01*
X68423782Y-97123782D01*
X68339227Y-97233976D01*
X68286078Y-97362291D01*
X68286076Y-97362296D01*
X68267948Y-97499998D01*
X68267948Y-97500001D01*
X64318887Y-97500001D01*
X64330944Y-97408414D01*
X64332052Y-97400001D01*
X64332052Y-97399998D01*
X64313923Y-97262296D01*
X64313921Y-97262291D01*
X64260772Y-97133976D01*
X64260771Y-97133975D01*
X64260771Y-97133974D01*
X64176218Y-97023782D01*
X64066026Y-96939229D01*
X64066025Y-96939228D01*
X64066023Y-96939227D01*
X63937708Y-96886078D01*
X63937703Y-96886076D01*
X63800001Y-96867948D01*
X63799999Y-96867948D01*
X63662296Y-96886076D01*
X63662291Y-96886078D01*
X63533976Y-96939227D01*
X63423782Y-97023782D01*
X63339227Y-97133976D01*
X63286078Y-97262291D01*
X63286076Y-97262296D01*
X63267948Y-97399998D01*
X63267948Y-97400001D01*
X58501121Y-97400001D01*
X58500535Y-97397054D01*
X58500534Y-97397053D01*
X58500534Y-97397050D01*
X58500533Y-97397047D01*
X58448642Y-97271791D01*
X58448638Y-97271784D01*
X58373305Y-97159051D01*
X58373298Y-97159044D01*
X58277427Y-97063176D01*
X58233721Y-97033974D01*
X58164679Y-96987843D01*
X58164675Y-96987841D01*
X58164673Y-96987840D01*
X58039408Y-96935953D01*
X58039403Y-96935952D01*
X57906417Y-96909497D01*
X57838723Y-96909496D01*
X56157417Y-96909496D01*
X56151335Y-96909496D01*
X56139307Y-96910674D01*
X56089723Y-96910674D01*
X56089722Y-96910674D01*
X56070877Y-96914421D01*
X55956744Y-96937120D01*
X55956738Y-96937122D01*
X55831478Y-96989003D01*
X55831474Y-96989005D01*
X55831472Y-96989006D01*
X55831469Y-96989007D01*
X55831467Y-96989009D01*
X55718735Y-97064329D01*
X55718732Y-97064332D01*
X55622860Y-97160200D01*
X55622856Y-97160204D01*
X55547525Y-97272936D01*
X55495634Y-97398202D01*
X55469177Y-97531185D01*
X55469176Y-97598876D01*
X55469176Y-104350183D01*
X46275500Y-104350183D01*
X46275500Y-101900001D01*
X47967948Y-101900001D01*
X47986076Y-102037703D01*
X47986078Y-102037708D01*
X48039227Y-102166023D01*
X48039228Y-102166025D01*
X48039229Y-102166026D01*
X48123782Y-102276218D01*
X48233974Y-102360771D01*
X48362295Y-102413923D01*
X48431147Y-102422987D01*
X48499999Y-102432052D01*
X48500000Y-102432052D01*
X48500001Y-102432052D01*
X48545901Y-102426009D01*
X48637705Y-102413923D01*
X48766026Y-102360771D01*
X48876218Y-102276218D01*
X48960771Y-102166026D01*
X49013923Y-102037705D01*
X49032052Y-101900001D01*
X52967948Y-101900001D01*
X52986076Y-102037703D01*
X52986078Y-102037708D01*
X53039227Y-102166023D01*
X53039228Y-102166025D01*
X53039229Y-102166026D01*
X53123782Y-102276218D01*
X53233974Y-102360771D01*
X53362295Y-102413923D01*
X53431147Y-102422987D01*
X53499999Y-102432052D01*
X53500000Y-102432052D01*
X53500001Y-102432052D01*
X53545901Y-102426009D01*
X53637705Y-102413923D01*
X53766026Y-102360771D01*
X53876218Y-102276218D01*
X53960771Y-102166026D01*
X54013923Y-102037705D01*
X54032052Y-101900000D01*
X54013923Y-101762295D01*
X53960771Y-101633974D01*
X53876218Y-101523782D01*
X53766026Y-101439229D01*
X53766025Y-101439228D01*
X53766023Y-101439227D01*
X53637708Y-101386078D01*
X53637703Y-101386076D01*
X53500001Y-101367948D01*
X53499999Y-101367948D01*
X53362296Y-101386076D01*
X53362291Y-101386078D01*
X53233976Y-101439227D01*
X53123782Y-101523782D01*
X53039227Y-101633976D01*
X52986078Y-101762291D01*
X52986076Y-101762296D01*
X52967948Y-101899998D01*
X52967948Y-101900001D01*
X49032052Y-101900001D01*
X49032052Y-101900000D01*
X49013923Y-101762295D01*
X48960771Y-101633974D01*
X48876218Y-101523782D01*
X48766026Y-101439229D01*
X48766025Y-101439228D01*
X48766023Y-101439227D01*
X48637708Y-101386078D01*
X48637703Y-101386076D01*
X48500001Y-101367948D01*
X48499999Y-101367948D01*
X48362296Y-101386076D01*
X48362291Y-101386078D01*
X48233976Y-101439227D01*
X48123782Y-101523782D01*
X48039227Y-101633976D01*
X47986078Y-101762291D01*
X47986076Y-101762296D01*
X47967948Y-101899998D01*
X47967948Y-101900001D01*
X46275500Y-101900001D01*
X46275500Y-98200001D01*
X47967948Y-98200001D01*
X47986076Y-98337703D01*
X47986078Y-98337708D01*
X48039227Y-98466023D01*
X48039228Y-98466025D01*
X48039229Y-98466026D01*
X48123782Y-98576218D01*
X48233974Y-98660771D01*
X48362295Y-98713923D01*
X48431147Y-98722987D01*
X48499999Y-98732052D01*
X48500000Y-98732052D01*
X48500001Y-98732052D01*
X48545901Y-98726009D01*
X48637705Y-98713923D01*
X48766026Y-98660771D01*
X48876218Y-98576218D01*
X48960771Y-98466026D01*
X49013923Y-98337705D01*
X49018887Y-98300001D01*
X52967948Y-98300001D01*
X52986076Y-98437703D01*
X52986078Y-98437708D01*
X53039227Y-98566023D01*
X53039228Y-98566025D01*
X53039229Y-98566026D01*
X53123782Y-98676218D01*
X53233974Y-98760771D01*
X53362295Y-98813923D01*
X53431147Y-98822987D01*
X53499999Y-98832052D01*
X53500000Y-98832052D01*
X53500001Y-98832052D01*
X53545901Y-98826009D01*
X53637705Y-98813923D01*
X53766026Y-98760771D01*
X53876218Y-98676218D01*
X53960771Y-98566026D01*
X54013923Y-98437705D01*
X54032052Y-98300000D01*
X54013923Y-98162295D01*
X53960771Y-98033974D01*
X53876218Y-97923782D01*
X53766026Y-97839229D01*
X53766025Y-97839228D01*
X53766023Y-97839227D01*
X53637708Y-97786078D01*
X53637703Y-97786076D01*
X53500001Y-97767948D01*
X53499999Y-97767948D01*
X53362296Y-97786076D01*
X53362291Y-97786078D01*
X53233976Y-97839227D01*
X53123782Y-97923782D01*
X53039227Y-98033976D01*
X52986078Y-98162291D01*
X52986076Y-98162296D01*
X52967948Y-98299998D01*
X52967948Y-98300001D01*
X49018887Y-98300001D01*
X49032052Y-98200000D01*
X49013923Y-98062295D01*
X48960771Y-97933974D01*
X48876218Y-97823782D01*
X48766026Y-97739229D01*
X48766025Y-97739228D01*
X48766023Y-97739227D01*
X48637708Y-97686078D01*
X48637703Y-97686076D01*
X48500001Y-97667948D01*
X48499999Y-97667948D01*
X48362296Y-97686076D01*
X48362291Y-97686078D01*
X48233976Y-97739227D01*
X48123782Y-97823782D01*
X48039227Y-97933976D01*
X47986078Y-98062291D01*
X47986076Y-98062296D01*
X47967948Y-98199998D01*
X47967948Y-98200001D01*
X46275500Y-98200001D01*
X46275500Y-97660606D01*
X46275521Y-97660534D01*
X46275530Y-97597836D01*
X46275537Y-97541412D01*
X46273504Y-97531182D01*
X46249099Y-97408413D01*
X46249098Y-97408412D01*
X46245613Y-97399998D01*
X46197215Y-97283131D01*
X46121883Y-97170382D01*
X46025997Y-97074499D01*
X45953910Y-97026339D01*
X45913243Y-96999170D01*
X45787965Y-96947295D01*
X45787960Y-96947293D01*
X45654961Y-96920860D01*
X45654960Y-96920860D01*
X45587160Y-96920872D01*
X43899665Y-96920872D01*
X43888038Y-96922010D01*
X43838255Y-96922008D01*
X43838254Y-96922008D01*
X43838253Y-96922008D01*
X43705268Y-96948452D01*
X43705262Y-96948454D01*
X43579995Y-97000335D01*
X43467244Y-97075670D01*
X43371370Y-97171544D01*
X43296035Y-97284295D01*
X43244154Y-97409562D01*
X43244152Y-97409568D01*
X43217708Y-97542553D01*
X36770494Y-97542553D01*
X36813923Y-97437705D01*
X36832052Y-97300000D01*
X36829984Y-97284295D01*
X36814988Y-97170382D01*
X36813923Y-97162295D01*
X36760771Y-97033974D01*
X36676218Y-96923782D01*
X36566026Y-96839229D01*
X36566025Y-96839228D01*
X36566023Y-96839227D01*
X36437708Y-96786078D01*
X36437703Y-96786076D01*
X36300001Y-96767948D01*
X36299999Y-96767948D01*
X36162296Y-96786076D01*
X36162291Y-96786078D01*
X36033976Y-96839227D01*
X35923782Y-96923782D01*
X35839227Y-97033976D01*
X35786078Y-97162291D01*
X35786076Y-97162296D01*
X35767948Y-97299998D01*
X35767948Y-97300001D01*
X29510329Y-97300001D01*
X29498642Y-97271791D01*
X29498638Y-97271784D01*
X29423305Y-97159051D01*
X29423298Y-97159044D01*
X29327427Y-97063176D01*
X29283721Y-97033974D01*
X29214679Y-96987843D01*
X29214675Y-96987841D01*
X29214673Y-96987840D01*
X29089408Y-96935953D01*
X29089403Y-96935952D01*
X28956417Y-96909497D01*
X28888624Y-96909496D01*
X28888124Y-96909496D01*
X28841293Y-96909496D01*
X28836310Y-96910031D01*
X27944844Y-96910636D01*
X27195848Y-96910636D01*
X27195438Y-96910674D01*
X27139723Y-96910674D01*
X27139722Y-96910674D01*
X27120877Y-96914421D01*
X27006744Y-96937120D01*
X27006738Y-96937122D01*
X26881478Y-96989003D01*
X26881474Y-96989005D01*
X26881472Y-96989006D01*
X26881469Y-96989007D01*
X26881467Y-96989009D01*
X26768735Y-97064329D01*
X26768732Y-97064332D01*
X26672860Y-97160200D01*
X26672856Y-97160204D01*
X26597525Y-97272936D01*
X26545634Y-97398202D01*
X26519177Y-97531185D01*
X26519176Y-97598976D01*
X26519176Y-97646389D01*
X25625000Y-97646389D01*
X25625000Y-95700001D01*
X43467948Y-95700001D01*
X43486076Y-95837703D01*
X43486078Y-95837708D01*
X43539227Y-95966023D01*
X43539228Y-95966025D01*
X43539229Y-95966026D01*
X43623782Y-96076218D01*
X43733974Y-96160771D01*
X43862295Y-96213923D01*
X43931147Y-96222987D01*
X43999999Y-96232052D01*
X44000000Y-96232052D01*
X44000001Y-96232052D01*
X44045901Y-96226009D01*
X44137705Y-96213923D01*
X44266026Y-96160771D01*
X44376218Y-96076218D01*
X44460771Y-95966026D01*
X44513923Y-95837705D01*
X44532052Y-95700000D01*
X44513923Y-95562295D01*
X44462318Y-95437708D01*
X44460772Y-95433976D01*
X44460771Y-95433975D01*
X44460771Y-95433974D01*
X44376218Y-95323782D01*
X44376215Y-95323780D01*
X44371270Y-95317335D01*
X44372483Y-95316404D01*
X44363526Y-95300001D01*
X62267948Y-95300001D01*
X62286076Y-95437703D01*
X62286078Y-95437708D01*
X62339227Y-95566023D01*
X62339228Y-95566025D01*
X62339229Y-95566026D01*
X62423782Y-95676218D01*
X62533974Y-95760771D01*
X62662295Y-95813923D01*
X62731147Y-95822987D01*
X62799999Y-95832052D01*
X62800000Y-95832052D01*
X62800001Y-95832052D01*
X62845901Y-95826009D01*
X62937705Y-95813923D01*
X63066026Y-95760771D01*
X63176218Y-95676218D01*
X63260771Y-95566026D01*
X63313923Y-95437705D01*
X63332052Y-95300000D01*
X63324051Y-95239229D01*
X63313923Y-95162296D01*
X63313921Y-95162291D01*
X63311382Y-95156162D01*
X63271932Y-95060919D01*
X63260772Y-95033976D01*
X63260771Y-95033975D01*
X63260771Y-95033974D01*
X63176218Y-94923782D01*
X63066026Y-94839229D01*
X63066025Y-94839228D01*
X63066023Y-94839227D01*
X62937708Y-94786078D01*
X62937703Y-94786076D01*
X62800001Y-94767948D01*
X62799999Y-94767948D01*
X62662296Y-94786076D01*
X62662291Y-94786078D01*
X62533976Y-94839227D01*
X62423782Y-94923782D01*
X62339227Y-95033976D01*
X62286078Y-95162291D01*
X62286076Y-95162296D01*
X62267948Y-95299998D01*
X62267948Y-95300001D01*
X44363526Y-95300001D01*
X44343380Y-95263106D01*
X44348364Y-95193414D01*
X44371964Y-95156694D01*
X44371270Y-95156162D01*
X44376215Y-95149717D01*
X44376218Y-95149715D01*
X44460771Y-95039523D01*
X44513923Y-94911202D01*
X44532052Y-94773497D01*
X44531321Y-94767948D01*
X44513923Y-94635793D01*
X44513921Y-94635788D01*
X44499942Y-94602040D01*
X44460771Y-94507471D01*
X44376218Y-94397279D01*
X44266026Y-94312726D01*
X44266025Y-94312725D01*
X44266023Y-94312724D01*
X44137708Y-94259575D01*
X44137703Y-94259573D01*
X44000001Y-94241445D01*
X43999999Y-94241445D01*
X43862296Y-94259573D01*
X43862291Y-94259575D01*
X43733976Y-94312724D01*
X43623782Y-94397279D01*
X43539227Y-94507473D01*
X43486078Y-94635788D01*
X43486076Y-94635793D01*
X43467948Y-94773495D01*
X43467948Y-94773498D01*
X43486076Y-94911200D01*
X43486078Y-94911205D01*
X43539227Y-95039520D01*
X43539228Y-95039522D01*
X43539229Y-95039523D01*
X43623782Y-95149715D01*
X43623784Y-95149716D01*
X43628730Y-95156162D01*
X43627516Y-95157093D01*
X43656619Y-95210390D01*
X43651635Y-95280082D01*
X43628037Y-95316803D01*
X43628730Y-95317335D01*
X43623784Y-95323780D01*
X43623782Y-95323782D01*
X43566528Y-95398395D01*
X43539227Y-95433976D01*
X43486078Y-95562291D01*
X43486076Y-95562296D01*
X43467948Y-95699998D01*
X43467948Y-95700001D01*
X25625000Y-95700001D01*
X25625000Y-94400001D01*
X39567948Y-94400001D01*
X39586076Y-94537703D01*
X39586078Y-94537708D01*
X39639227Y-94666023D01*
X39639228Y-94666025D01*
X39639229Y-94666026D01*
X39723782Y-94776218D01*
X39833974Y-94860771D01*
X39962295Y-94913923D01*
X40031147Y-94922987D01*
X40099999Y-94932052D01*
X40100000Y-94932052D01*
X40100001Y-94932052D01*
X40145901Y-94926009D01*
X40237705Y-94913923D01*
X40366026Y-94860771D01*
X40476218Y-94776218D01*
X40560771Y-94666026D01*
X40583939Y-94610092D01*
X40627779Y-94555689D01*
X40694073Y-94533624D01*
X40761773Y-94550903D01*
X40809384Y-94602040D01*
X40813061Y-94610093D01*
X40836227Y-94666023D01*
X40836228Y-94666025D01*
X40836229Y-94666026D01*
X40920782Y-94776218D01*
X41030974Y-94860771D01*
X41159295Y-94913923D01*
X41228147Y-94922987D01*
X41296999Y-94932052D01*
X41297000Y-94932052D01*
X41297001Y-94932052D01*
X41342901Y-94926009D01*
X41434705Y-94913923D01*
X41563026Y-94860771D01*
X41673218Y-94776218D01*
X41757771Y-94666026D01*
X41810923Y-94537705D01*
X41829052Y-94400000D01*
X41810923Y-94262295D01*
X41757771Y-94133974D01*
X41673218Y-94023782D01*
X41563026Y-93939229D01*
X41563025Y-93939228D01*
X41563023Y-93939227D01*
X41434708Y-93886078D01*
X41434703Y-93886076D01*
X41297001Y-93867948D01*
X41296999Y-93867948D01*
X41159296Y-93886076D01*
X41159291Y-93886078D01*
X41030976Y-93939227D01*
X40920782Y-94023782D01*
X40836228Y-94133975D01*
X40813061Y-94189907D01*
X40769220Y-94244310D01*
X40702926Y-94266375D01*
X40635227Y-94249096D01*
X40587616Y-94197959D01*
X40583939Y-94189907D01*
X40560771Y-94133974D01*
X40476218Y-94023782D01*
X40366026Y-93939229D01*
X40366025Y-93939228D01*
X40366023Y-93939227D01*
X40237708Y-93886078D01*
X40237703Y-93886076D01*
X40100001Y-93867948D01*
X40099999Y-93867948D01*
X39962296Y-93886076D01*
X39962291Y-93886078D01*
X39833976Y-93939227D01*
X39723782Y-94023782D01*
X39639227Y-94133976D01*
X39586078Y-94262291D01*
X39586076Y-94262296D01*
X39567948Y-94399998D01*
X39567948Y-94400001D01*
X25625000Y-94400001D01*
X25625000Y-90700001D01*
X64367948Y-90700001D01*
X64386076Y-90837703D01*
X64386078Y-90837708D01*
X64439227Y-90966023D01*
X64439228Y-90966025D01*
X64439229Y-90966026D01*
X64523782Y-91076218D01*
X64633974Y-91160771D01*
X64762295Y-91213923D01*
X64831147Y-91222987D01*
X64899999Y-91232052D01*
X64900000Y-91232052D01*
X64900001Y-91232052D01*
X64945901Y-91226009D01*
X65037705Y-91213923D01*
X65166026Y-91160771D01*
X65276218Y-91076218D01*
X65360771Y-90966026D01*
X65413923Y-90837705D01*
X65432052Y-90700000D01*
X65413923Y-90562295D01*
X65360771Y-90433974D01*
X65276218Y-90323782D01*
X65166026Y-90239229D01*
X65166025Y-90239228D01*
X65166023Y-90239227D01*
X65037708Y-90186078D01*
X65037703Y-90186076D01*
X64900001Y-90167948D01*
X64899999Y-90167948D01*
X64762296Y-90186076D01*
X64762291Y-90186078D01*
X64633976Y-90239227D01*
X64523782Y-90323782D01*
X64439227Y-90433976D01*
X64386078Y-90562291D01*
X64386076Y-90562296D01*
X64367948Y-90699998D01*
X64367948Y-90700001D01*
X25625000Y-90700001D01*
X25625000Y-88836460D01*
X29967528Y-88836460D01*
X29987366Y-89037883D01*
X29990549Y-89048376D01*
X30046120Y-89231570D01*
X30046121Y-89231573D01*
X30046122Y-89231574D01*
X30046123Y-89231577D01*
X30141527Y-89410065D01*
X30141531Y-89410072D01*
X30269931Y-89566528D01*
X30426387Y-89694928D01*
X30426394Y-89694932D01*
X30604882Y-89790336D01*
X30604883Y-89790336D01*
X30604890Y-89790340D01*
X30798575Y-89849093D01*
X30798574Y-89849093D01*
X30816634Y-89850871D01*
X31000000Y-89868932D01*
X31201425Y-89849093D01*
X31395110Y-89790340D01*
X31573611Y-89694929D01*
X31730068Y-89566528D01*
X31784665Y-89500001D01*
X32667948Y-89500001D01*
X32686076Y-89637703D01*
X32686078Y-89637708D01*
X32739227Y-89766023D01*
X32739228Y-89766025D01*
X32739229Y-89766026D01*
X32823782Y-89876218D01*
X32933974Y-89960771D01*
X33062295Y-90013923D01*
X33131147Y-90022987D01*
X33199999Y-90032052D01*
X33200000Y-90032052D01*
X33200001Y-90032052D01*
X33245901Y-90026009D01*
X33337705Y-90013923D01*
X33466026Y-89960771D01*
X33576218Y-89876218D01*
X33660771Y-89766026D01*
X33713923Y-89637705D01*
X33732052Y-89500001D01*
X50567948Y-89500001D01*
X50586076Y-89637703D01*
X50586078Y-89637708D01*
X50639227Y-89766023D01*
X50639228Y-89766025D01*
X50639229Y-89766026D01*
X50723782Y-89876218D01*
X50833974Y-89960771D01*
X50962295Y-90013923D01*
X51031147Y-90022987D01*
X51099999Y-90032052D01*
X51100000Y-90032052D01*
X51100001Y-90032052D01*
X51145901Y-90026009D01*
X51237705Y-90013923D01*
X51366026Y-89960771D01*
X51476218Y-89876218D01*
X51560771Y-89766026D01*
X51613923Y-89637705D01*
X51632052Y-89500000D01*
X51613923Y-89362295D01*
X51560771Y-89233974D01*
X51476218Y-89123782D01*
X51476216Y-89123781D01*
X51476216Y-89123780D01*
X51428561Y-89087213D01*
X51377945Y-89048374D01*
X51336743Y-88991948D01*
X51332588Y-88922202D01*
X51366800Y-88861282D01*
X51377941Y-88851628D01*
X51476218Y-88776218D01*
X51560771Y-88666026D01*
X51613923Y-88537705D01*
X51632052Y-88400000D01*
X51613923Y-88262295D01*
X51560771Y-88133974D01*
X51476218Y-88023782D01*
X51476216Y-88023781D01*
X51476216Y-88023780D01*
X51416542Y-87977991D01*
X51377945Y-87948374D01*
X51336743Y-87891948D01*
X51332588Y-87822202D01*
X51366800Y-87761282D01*
X51377941Y-87751628D01*
X51476218Y-87676218D01*
X51560771Y-87566026D01*
X51613923Y-87437705D01*
X51631860Y-87301460D01*
X75142770Y-87301460D01*
X75161643Y-87493086D01*
X75217538Y-87677344D01*
X75308302Y-87847152D01*
X75308306Y-87847159D01*
X75430458Y-87996001D01*
X75579300Y-88118153D01*
X75579307Y-88118157D01*
X75749115Y-88208921D01*
X75749117Y-88208922D01*
X75933376Y-88264817D01*
X76125000Y-88283690D01*
X76316624Y-88264817D01*
X76500883Y-88208922D01*
X76670698Y-88118154D01*
X76819541Y-87996001D01*
X76941694Y-87847158D01*
X77032462Y-87677343D01*
X77088357Y-87493084D01*
X77107230Y-87301460D01*
X77682770Y-87301460D01*
X77701643Y-87493086D01*
X77757538Y-87677344D01*
X77848302Y-87847152D01*
X77848306Y-87847159D01*
X77970458Y-87996001D01*
X78119300Y-88118153D01*
X78119307Y-88118157D01*
X78289115Y-88208921D01*
X78289117Y-88208922D01*
X78473376Y-88264817D01*
X78665000Y-88283690D01*
X78856624Y-88264817D01*
X79040883Y-88208922D01*
X79210698Y-88118154D01*
X79359541Y-87996001D01*
X79481694Y-87847158D01*
X79572462Y-87677343D01*
X79628357Y-87493084D01*
X79647230Y-87301460D01*
X79628357Y-87109836D01*
X79572462Y-86925577D01*
X79512781Y-86813921D01*
X79481697Y-86755767D01*
X79481693Y-86755760D01*
X79359541Y-86606918D01*
X79210699Y-86484766D01*
X79210692Y-86484762D01*
X79040884Y-86393998D01*
X78856626Y-86338103D01*
X78665000Y-86319230D01*
X78473373Y-86338103D01*
X78289115Y-86393998D01*
X78119307Y-86484762D01*
X78119300Y-86484766D01*
X77970458Y-86606918D01*
X77848306Y-86755760D01*
X77848302Y-86755767D01*
X77757538Y-86925575D01*
X77701643Y-87109833D01*
X77682770Y-87301460D01*
X77107230Y-87301460D01*
X77088357Y-87109836D01*
X77032462Y-86925577D01*
X76972781Y-86813921D01*
X76941697Y-86755767D01*
X76941693Y-86755760D01*
X76819541Y-86606918D01*
X76670699Y-86484766D01*
X76670692Y-86484762D01*
X76500884Y-86393998D01*
X76316626Y-86338103D01*
X76125000Y-86319230D01*
X75933373Y-86338103D01*
X75749115Y-86393998D01*
X75579307Y-86484762D01*
X75579300Y-86484766D01*
X75430458Y-86606918D01*
X75308306Y-86755760D01*
X75308302Y-86755767D01*
X75217538Y-86925575D01*
X75161643Y-87109833D01*
X75142770Y-87301460D01*
X51631860Y-87301460D01*
X51632052Y-87300000D01*
X51613923Y-87162295D01*
X51560771Y-87033974D01*
X51476218Y-86923782D01*
X51366026Y-86839229D01*
X51366025Y-86839228D01*
X51366023Y-86839227D01*
X51237708Y-86786078D01*
X51237703Y-86786076D01*
X51100001Y-86767948D01*
X51099999Y-86767948D01*
X50962296Y-86786076D01*
X50962291Y-86786078D01*
X50833976Y-86839227D01*
X50723782Y-86923782D01*
X50639227Y-87033976D01*
X50586078Y-87162291D01*
X50586076Y-87162296D01*
X50567948Y-87299998D01*
X50567948Y-87300001D01*
X50586076Y-87437703D01*
X50586078Y-87437708D01*
X50639227Y-87566023D01*
X50639228Y-87566025D01*
X50639229Y-87566026D01*
X50723782Y-87676218D01*
X50822054Y-87751625D01*
X50863256Y-87808052D01*
X50867411Y-87877798D01*
X50833199Y-87938719D01*
X50822058Y-87948371D01*
X50759987Y-87996001D01*
X50723782Y-88023782D01*
X50639227Y-88133976D01*
X50586078Y-88262291D01*
X50586076Y-88262296D01*
X50567948Y-88399998D01*
X50567948Y-88400001D01*
X50586076Y-88537703D01*
X50586078Y-88537708D01*
X50639227Y-88666023D01*
X50639228Y-88666025D01*
X50639229Y-88666026D01*
X50723782Y-88776218D01*
X50822054Y-88851625D01*
X50863256Y-88908052D01*
X50867411Y-88977798D01*
X50833199Y-89038719D01*
X50822058Y-89048371D01*
X50723785Y-89123780D01*
X50723782Y-89123782D01*
X50639227Y-89233976D01*
X50586078Y-89362291D01*
X50586076Y-89362296D01*
X50567948Y-89499998D01*
X50567948Y-89500001D01*
X33732052Y-89500001D01*
X33732052Y-89500000D01*
X33713923Y-89362295D01*
X33660771Y-89233974D01*
X33576218Y-89123782D01*
X33576216Y-89123781D01*
X33576216Y-89123780D01*
X33528561Y-89087213D01*
X33477945Y-89048374D01*
X33436743Y-88991948D01*
X33432588Y-88922202D01*
X33466800Y-88861282D01*
X33477941Y-88851628D01*
X33576218Y-88776218D01*
X33660771Y-88666026D01*
X33713923Y-88537705D01*
X33732052Y-88400000D01*
X33713923Y-88262295D01*
X33660771Y-88133974D01*
X33576218Y-88023782D01*
X33576216Y-88023781D01*
X33576216Y-88023780D01*
X33516542Y-87977991D01*
X33477945Y-87948374D01*
X33436743Y-87891948D01*
X33432588Y-87822202D01*
X33466800Y-87761282D01*
X33477941Y-87751628D01*
X33576218Y-87676218D01*
X33660771Y-87566026D01*
X33713923Y-87437705D01*
X33732052Y-87300000D01*
X33713923Y-87162295D01*
X33660771Y-87033974D01*
X33576218Y-86923782D01*
X33466026Y-86839229D01*
X33466025Y-86839228D01*
X33466023Y-86839227D01*
X33337708Y-86786078D01*
X33337703Y-86786076D01*
X33200001Y-86767948D01*
X33199999Y-86767948D01*
X33062296Y-86786076D01*
X33062291Y-86786078D01*
X32933976Y-86839227D01*
X32823782Y-86923782D01*
X32739227Y-87033976D01*
X32686078Y-87162291D01*
X32686076Y-87162296D01*
X32667948Y-87299998D01*
X32667948Y-87300001D01*
X32686076Y-87437703D01*
X32686078Y-87437708D01*
X32739227Y-87566023D01*
X32739228Y-87566025D01*
X32739229Y-87566026D01*
X32823782Y-87676218D01*
X32922054Y-87751625D01*
X32963256Y-87808052D01*
X32967411Y-87877798D01*
X32933199Y-87938719D01*
X32922058Y-87948371D01*
X32859987Y-87996001D01*
X32823782Y-88023782D01*
X32739227Y-88133976D01*
X32686078Y-88262291D01*
X32686076Y-88262296D01*
X32667948Y-88399998D01*
X32667948Y-88400001D01*
X32686076Y-88537703D01*
X32686078Y-88537708D01*
X32739227Y-88666023D01*
X32739228Y-88666025D01*
X32739229Y-88666026D01*
X32823782Y-88776218D01*
X32922054Y-88851625D01*
X32963256Y-88908052D01*
X32967411Y-88977798D01*
X32933199Y-89038719D01*
X32922058Y-89048371D01*
X32823785Y-89123780D01*
X32823782Y-89123782D01*
X32739227Y-89233976D01*
X32686078Y-89362291D01*
X32686076Y-89362296D01*
X32667948Y-89499998D01*
X32667948Y-89500001D01*
X31784665Y-89500001D01*
X31858469Y-89410071D01*
X31953880Y-89231570D01*
X32012633Y-89037885D01*
X32032472Y-88836460D01*
X32012633Y-88635035D01*
X31953880Y-88441350D01*
X31953876Y-88441342D01*
X31858472Y-88262854D01*
X31858468Y-88262847D01*
X31730068Y-88106391D01*
X31573612Y-87977991D01*
X31573605Y-87977987D01*
X31395117Y-87882583D01*
X31395114Y-87882582D01*
X31395113Y-87882581D01*
X31395110Y-87882580D01*
X31201425Y-87823827D01*
X31201423Y-87823826D01*
X31201425Y-87823826D01*
X31000000Y-87803988D01*
X30798576Y-87823826D01*
X30684217Y-87858516D01*
X30604890Y-87882580D01*
X30604887Y-87882581D01*
X30604885Y-87882582D01*
X30604882Y-87882583D01*
X30426394Y-87977987D01*
X30426387Y-87977991D01*
X30269931Y-88106391D01*
X30141531Y-88262847D01*
X30141527Y-88262854D01*
X30046123Y-88441342D01*
X30046122Y-88441345D01*
X29987366Y-88635036D01*
X29967528Y-88836460D01*
X25625000Y-88836460D01*
X25625000Y-86300001D01*
X61467948Y-86300001D01*
X61486076Y-86437703D01*
X61486078Y-86437708D01*
X61539227Y-86566023D01*
X61539228Y-86566025D01*
X61539229Y-86566026D01*
X61623782Y-86676218D01*
X61733974Y-86760771D01*
X61862295Y-86813923D01*
X61931147Y-86822987D01*
X61999999Y-86832052D01*
X62000000Y-86832052D01*
X62000001Y-86832052D01*
X62045901Y-86826009D01*
X62137705Y-86813923D01*
X62266026Y-86760771D01*
X62376218Y-86676218D01*
X62460771Y-86566026D01*
X62513923Y-86437705D01*
X62532052Y-86300000D01*
X62513923Y-86162295D01*
X62462318Y-86037708D01*
X62460772Y-86033976D01*
X62460771Y-86033975D01*
X62460771Y-86033974D01*
X62376218Y-85923782D01*
X62345226Y-85900001D01*
X67867948Y-85900001D01*
X67886076Y-86037703D01*
X67886078Y-86037708D01*
X67939227Y-86166023D01*
X67939228Y-86166025D01*
X67939229Y-86166026D01*
X68023782Y-86276218D01*
X68133974Y-86360771D01*
X68262295Y-86413923D01*
X68331147Y-86422987D01*
X68399999Y-86432052D01*
X68400000Y-86432052D01*
X68400001Y-86432052D01*
X68445901Y-86426009D01*
X68537705Y-86413923D01*
X68666026Y-86360771D01*
X68776218Y-86276218D01*
X68860771Y-86166026D01*
X68913923Y-86037705D01*
X68918887Y-86000001D01*
X71367948Y-86000001D01*
X71386076Y-86137703D01*
X71386078Y-86137708D01*
X71439227Y-86266023D01*
X71439228Y-86266025D01*
X71439229Y-86266026D01*
X71523782Y-86376218D01*
X71633974Y-86460771D01*
X71762295Y-86513923D01*
X71831147Y-86522987D01*
X71899999Y-86532052D01*
X71900000Y-86532052D01*
X71900001Y-86532052D01*
X71945901Y-86526009D01*
X72037705Y-86513923D01*
X72166026Y-86460771D01*
X72276218Y-86376218D01*
X72360771Y-86266026D01*
X72413923Y-86137705D01*
X72432052Y-86000000D01*
X72413923Y-85862295D01*
X72372500Y-85762291D01*
X72360772Y-85733976D01*
X72360771Y-85733975D01*
X72360771Y-85733974D01*
X72276218Y-85623782D01*
X72166026Y-85539229D01*
X72166025Y-85539228D01*
X72166023Y-85539227D01*
X72037708Y-85486078D01*
X72037703Y-85486076D01*
X71900001Y-85467948D01*
X71899999Y-85467948D01*
X71762296Y-85486076D01*
X71762291Y-85486078D01*
X71633976Y-85539227D01*
X71523782Y-85623782D01*
X71439227Y-85733976D01*
X71386078Y-85862291D01*
X71386076Y-85862296D01*
X71367948Y-85999998D01*
X71367948Y-86000001D01*
X68918887Y-86000001D01*
X68932052Y-85900000D01*
X68924051Y-85839229D01*
X68913923Y-85762296D01*
X68913921Y-85762291D01*
X68906216Y-85743690D01*
X68860771Y-85633974D01*
X68776218Y-85523782D01*
X68666026Y-85439229D01*
X68666025Y-85439228D01*
X68666023Y-85439227D01*
X68537708Y-85386078D01*
X68537703Y-85386076D01*
X68400001Y-85367948D01*
X68399999Y-85367948D01*
X68262296Y-85386076D01*
X68262291Y-85386078D01*
X68133976Y-85439227D01*
X68023782Y-85523782D01*
X67939227Y-85633976D01*
X67886078Y-85762291D01*
X67886076Y-85762296D01*
X67867948Y-85899998D01*
X67867948Y-85900001D01*
X62345226Y-85900001D01*
X62266026Y-85839229D01*
X62266025Y-85839228D01*
X62266023Y-85839227D01*
X62137708Y-85786078D01*
X62137703Y-85786076D01*
X62000001Y-85767948D01*
X61999999Y-85767948D01*
X61862296Y-85786076D01*
X61862291Y-85786078D01*
X61733976Y-85839227D01*
X61623782Y-85923782D01*
X61539227Y-86033976D01*
X61486078Y-86162291D01*
X61486076Y-86162296D01*
X61467948Y-86299998D01*
X61467948Y-86300001D01*
X25625000Y-86300001D01*
X25625000Y-83756460D01*
X27427528Y-83756460D01*
X27447366Y-83957883D01*
X27447367Y-83957885D01*
X27506120Y-84151570D01*
X27506121Y-84151573D01*
X27506122Y-84151574D01*
X27506123Y-84151577D01*
X27601527Y-84330065D01*
X27601531Y-84330072D01*
X27729931Y-84486528D01*
X27886387Y-84614928D01*
X27886394Y-84614932D01*
X28064882Y-84710336D01*
X28064883Y-84710336D01*
X28064890Y-84710340D01*
X28258575Y-84769093D01*
X28258574Y-84769093D01*
X28276634Y-84770871D01*
X28460000Y-84788932D01*
X28661425Y-84769093D01*
X28686588Y-84761460D01*
X75142770Y-84761460D01*
X75161643Y-84953086D01*
X75217538Y-85137344D01*
X75308302Y-85307152D01*
X75308306Y-85307159D01*
X75430458Y-85456001D01*
X75579300Y-85578153D01*
X75579307Y-85578157D01*
X75749115Y-85668921D01*
X75749117Y-85668922D01*
X75933376Y-85724817D01*
X76125000Y-85743690D01*
X76316624Y-85724817D01*
X76500883Y-85668922D01*
X76670698Y-85578154D01*
X76819541Y-85456001D01*
X76941694Y-85307158D01*
X77032462Y-85137343D01*
X77088357Y-84953084D01*
X77107230Y-84761460D01*
X77682770Y-84761460D01*
X77701643Y-84953086D01*
X77757538Y-85137344D01*
X77848302Y-85307152D01*
X77848306Y-85307159D01*
X77970458Y-85456001D01*
X78119300Y-85578153D01*
X78119307Y-85578157D01*
X78289115Y-85668921D01*
X78289117Y-85668922D01*
X78473376Y-85724817D01*
X78665000Y-85743690D01*
X78856624Y-85724817D01*
X79040883Y-85668922D01*
X79210698Y-85578154D01*
X79359541Y-85456001D01*
X79481694Y-85307158D01*
X79572462Y-85137343D01*
X79628357Y-84953084D01*
X79647230Y-84761460D01*
X79628357Y-84569836D01*
X79572462Y-84385577D01*
X79542794Y-84330072D01*
X79481697Y-84215767D01*
X79481693Y-84215760D01*
X79359541Y-84066918D01*
X79210699Y-83944766D01*
X79210692Y-83944762D01*
X79040884Y-83853998D01*
X78856626Y-83798103D01*
X78665000Y-83779230D01*
X78473373Y-83798103D01*
X78289115Y-83853998D01*
X78119307Y-83944762D01*
X78119300Y-83944766D01*
X77970458Y-84066918D01*
X77848306Y-84215760D01*
X77848302Y-84215767D01*
X77757538Y-84385575D01*
X77701643Y-84569833D01*
X77682770Y-84761460D01*
X77107230Y-84761460D01*
X77088357Y-84569836D01*
X77032462Y-84385577D01*
X77002794Y-84330072D01*
X76941697Y-84215767D01*
X76941693Y-84215760D01*
X76819541Y-84066918D01*
X76670699Y-83944766D01*
X76670692Y-83944762D01*
X76500884Y-83853998D01*
X76316626Y-83798103D01*
X76125000Y-83779230D01*
X75933373Y-83798103D01*
X75749115Y-83853998D01*
X75579307Y-83944762D01*
X75579300Y-83944766D01*
X75430458Y-84066918D01*
X75308306Y-84215760D01*
X75308302Y-84215767D01*
X75217538Y-84385575D01*
X75161643Y-84569833D01*
X75142770Y-84761460D01*
X28686588Y-84761460D01*
X28855110Y-84710340D01*
X29033611Y-84614929D01*
X29190068Y-84486528D01*
X29318469Y-84330071D01*
X29408593Y-84161461D01*
X65792948Y-84161461D01*
X65811076Y-84299163D01*
X65811078Y-84299168D01*
X65864227Y-84427483D01*
X65864228Y-84427485D01*
X65864229Y-84427486D01*
X65948782Y-84537678D01*
X66058974Y-84622231D01*
X66187295Y-84675383D01*
X66256147Y-84684447D01*
X66324999Y-84693512D01*
X66325000Y-84693512D01*
X66325001Y-84693512D01*
X66370901Y-84687469D01*
X66462705Y-84675383D01*
X66591026Y-84622231D01*
X66701218Y-84537678D01*
X66785771Y-84427486D01*
X66838923Y-84299165D01*
X66857052Y-84161460D01*
X66855750Y-84151574D01*
X66838923Y-84023756D01*
X66838921Y-84023751D01*
X66785772Y-83895436D01*
X66785771Y-83895435D01*
X66785771Y-83895434D01*
X66701218Y-83785242D01*
X66591026Y-83700689D01*
X66591025Y-83700688D01*
X66591023Y-83700687D01*
X66462708Y-83647538D01*
X66462703Y-83647536D01*
X66325001Y-83629408D01*
X66324999Y-83629408D01*
X66187296Y-83647536D01*
X66187291Y-83647538D01*
X66058976Y-83700687D01*
X65948782Y-83785242D01*
X65864227Y-83895436D01*
X65811078Y-84023751D01*
X65811076Y-84023756D01*
X65792948Y-84161458D01*
X65792948Y-84161461D01*
X29408593Y-84161461D01*
X29413880Y-84151570D01*
X29472633Y-83957885D01*
X29492472Y-83756460D01*
X29472633Y-83555035D01*
X29413880Y-83361350D01*
X29413876Y-83361342D01*
X29318472Y-83182854D01*
X29318468Y-83182847D01*
X29218849Y-83061461D01*
X49292948Y-83061461D01*
X49311076Y-83199163D01*
X49311078Y-83199168D01*
X49364227Y-83327483D01*
X49364228Y-83327485D01*
X49364229Y-83327486D01*
X49448782Y-83437678D01*
X49558974Y-83522231D01*
X49687295Y-83575383D01*
X49756147Y-83584447D01*
X49824999Y-83593512D01*
X49825000Y-83593512D01*
X49825001Y-83593512D01*
X49870901Y-83587469D01*
X49962705Y-83575383D01*
X50091026Y-83522231D01*
X50201218Y-83437678D01*
X50285771Y-83327486D01*
X50338923Y-83199165D01*
X50357052Y-83061460D01*
X50338923Y-82923755D01*
X50285771Y-82795434D01*
X50201218Y-82685242D01*
X50091026Y-82600689D01*
X50091025Y-82600688D01*
X50091023Y-82600687D01*
X49962708Y-82547538D01*
X49962703Y-82547536D01*
X49825001Y-82529408D01*
X49824999Y-82529408D01*
X49687296Y-82547536D01*
X49687291Y-82547538D01*
X49558976Y-82600687D01*
X49448782Y-82685242D01*
X49364227Y-82795436D01*
X49311078Y-82923751D01*
X49311076Y-82923756D01*
X49292948Y-83061458D01*
X49292948Y-83061461D01*
X29218849Y-83061461D01*
X29190068Y-83026391D01*
X29033612Y-82897991D01*
X29033605Y-82897987D01*
X28855117Y-82802583D01*
X28855114Y-82802582D01*
X28855113Y-82802581D01*
X28855110Y-82802580D01*
X28661425Y-82743827D01*
X28661423Y-82743826D01*
X28661425Y-82743826D01*
X28460000Y-82723988D01*
X28258576Y-82743826D01*
X28144217Y-82778516D01*
X28064890Y-82802580D01*
X28064887Y-82802581D01*
X28064885Y-82802582D01*
X28064882Y-82802583D01*
X27886394Y-82897987D01*
X27886387Y-82897991D01*
X27729931Y-83026391D01*
X27601531Y-83182847D01*
X27601527Y-83182854D01*
X27506123Y-83361342D01*
X27506122Y-83361345D01*
X27447366Y-83555036D01*
X27427528Y-83756460D01*
X25625000Y-83756460D01*
X25625000Y-82200001D01*
X32567948Y-82200001D01*
X32586076Y-82337703D01*
X32586078Y-82337708D01*
X32639227Y-82466023D01*
X32639228Y-82466025D01*
X32639229Y-82466026D01*
X32723782Y-82576218D01*
X32833974Y-82660771D01*
X32962295Y-82713923D01*
X33031147Y-82722987D01*
X33099999Y-82732052D01*
X33100000Y-82732052D01*
X33100001Y-82732052D01*
X33161253Y-82723988D01*
X33237705Y-82713923D01*
X33366026Y-82660771D01*
X33476218Y-82576218D01*
X33560771Y-82466026D01*
X33613923Y-82337705D01*
X33632052Y-82200000D01*
X33613923Y-82062295D01*
X33560771Y-81933974D01*
X33534703Y-81900001D01*
X50667948Y-81900001D01*
X50686076Y-82037703D01*
X50686078Y-82037708D01*
X50739227Y-82166023D01*
X50739228Y-82166025D01*
X50739229Y-82166026D01*
X50823782Y-82276218D01*
X50933974Y-82360771D01*
X51062295Y-82413923D01*
X51131147Y-82422987D01*
X51199999Y-82432052D01*
X51200000Y-82432052D01*
X51200001Y-82432052D01*
X51245901Y-82426009D01*
X51337705Y-82413923D01*
X51466026Y-82360771D01*
X51576218Y-82276218D01*
X51660771Y-82166026D01*
X51713923Y-82037705D01*
X51718887Y-82000001D01*
X64267948Y-82000001D01*
X64286076Y-82137703D01*
X64286078Y-82137708D01*
X64339227Y-82266023D01*
X64339228Y-82266025D01*
X64339229Y-82266026D01*
X64423782Y-82376218D01*
X64533974Y-82460771D01*
X64533975Y-82460771D01*
X64533976Y-82460772D01*
X64576747Y-82478488D01*
X64662295Y-82513923D01*
X64731147Y-82522987D01*
X64799999Y-82532052D01*
X64800000Y-82532052D01*
X64800001Y-82532052D01*
X64845901Y-82526009D01*
X64937705Y-82513923D01*
X65066026Y-82460771D01*
X65176218Y-82376218D01*
X65260771Y-82266026D01*
X65279231Y-82221460D01*
X75142770Y-82221460D01*
X75161643Y-82413086D01*
X75217538Y-82597344D01*
X75308302Y-82767152D01*
X75308306Y-82767159D01*
X75430458Y-82916001D01*
X75579300Y-83038153D01*
X75579307Y-83038157D01*
X75622904Y-83061460D01*
X75749117Y-83128922D01*
X75933376Y-83184817D01*
X76125000Y-83203690D01*
X76316624Y-83184817D01*
X76500883Y-83128922D01*
X76670698Y-83038154D01*
X76819541Y-82916001D01*
X76941694Y-82767158D01*
X77032462Y-82597343D01*
X77088357Y-82413084D01*
X77107230Y-82221460D01*
X77682770Y-82221460D01*
X77701643Y-82413086D01*
X77757538Y-82597344D01*
X77848302Y-82767152D01*
X77848306Y-82767159D01*
X77970458Y-82916001D01*
X78119300Y-83038153D01*
X78119307Y-83038157D01*
X78162904Y-83061460D01*
X78289117Y-83128922D01*
X78473376Y-83184817D01*
X78665000Y-83203690D01*
X78856624Y-83184817D01*
X79040883Y-83128922D01*
X79210698Y-83038154D01*
X79359541Y-82916001D01*
X79481694Y-82767158D01*
X79572462Y-82597343D01*
X79628357Y-82413084D01*
X79647230Y-82221460D01*
X79628357Y-82029836D01*
X79572462Y-81845577D01*
X79560811Y-81823780D01*
X79481697Y-81675767D01*
X79481693Y-81675760D01*
X79359541Y-81526918D01*
X79210699Y-81404766D01*
X79210692Y-81404762D01*
X79040884Y-81313998D01*
X78856626Y-81258103D01*
X78665000Y-81239230D01*
X78473373Y-81258103D01*
X78289115Y-81313998D01*
X78119307Y-81404762D01*
X78119300Y-81404766D01*
X77970458Y-81526918D01*
X77848306Y-81675760D01*
X77848302Y-81675767D01*
X77757538Y-81845575D01*
X77701643Y-82029833D01*
X77682770Y-82221460D01*
X77107230Y-82221460D01*
X77088357Y-82029836D01*
X77032462Y-81845577D01*
X77020811Y-81823780D01*
X76941697Y-81675767D01*
X76941693Y-81675760D01*
X76819541Y-81526918D01*
X76670699Y-81404766D01*
X76670692Y-81404762D01*
X76500884Y-81313998D01*
X76316626Y-81258103D01*
X76125000Y-81239230D01*
X75933373Y-81258103D01*
X75749115Y-81313998D01*
X75579307Y-81404762D01*
X75579300Y-81404766D01*
X75430458Y-81526918D01*
X75308306Y-81675760D01*
X75308302Y-81675767D01*
X75217538Y-81845575D01*
X75161643Y-82029833D01*
X75142770Y-82221460D01*
X65279231Y-82221460D01*
X65313923Y-82137705D01*
X65328124Y-82029836D01*
X65332052Y-82000001D01*
X65332052Y-81999998D01*
X65313923Y-81862296D01*
X65313921Y-81862291D01*
X65297969Y-81823780D01*
X65272500Y-81762291D01*
X65260772Y-81733976D01*
X65260771Y-81733975D01*
X65260771Y-81733974D01*
X65176218Y-81623782D01*
X65066026Y-81539229D01*
X65066025Y-81539228D01*
X65066023Y-81539227D01*
X64937708Y-81486078D01*
X64937703Y-81486076D01*
X64800001Y-81467948D01*
X64799999Y-81467948D01*
X64662296Y-81486076D01*
X64662291Y-81486078D01*
X64533976Y-81539227D01*
X64423782Y-81623782D01*
X64339227Y-81733976D01*
X64286078Y-81862291D01*
X64286076Y-81862296D01*
X64267948Y-81999998D01*
X64267948Y-82000001D01*
X51718887Y-82000001D01*
X51732052Y-81900000D01*
X51713923Y-81762295D01*
X51660771Y-81633974D01*
X51576218Y-81523782D01*
X51576216Y-81523781D01*
X51576216Y-81523780D01*
X51503453Y-81467948D01*
X51477945Y-81448374D01*
X51436743Y-81391948D01*
X51432588Y-81322202D01*
X51466800Y-81261282D01*
X51477941Y-81251628D01*
X51576218Y-81176218D01*
X51660771Y-81066026D01*
X51713923Y-80937705D01*
X51732052Y-80800000D01*
X51713923Y-80662295D01*
X51660771Y-80533974D01*
X51576218Y-80423782D01*
X51576216Y-80423781D01*
X51576216Y-80423780D01*
X51513948Y-80376001D01*
X51477945Y-80348374D01*
X51436743Y-80291948D01*
X51432588Y-80222202D01*
X51466800Y-80161282D01*
X51477941Y-80151628D01*
X51576218Y-80076218D01*
X51660771Y-79966026D01*
X51713923Y-79837705D01*
X51732052Y-79700000D01*
X51729611Y-79681460D01*
X75142770Y-79681460D01*
X75161643Y-79873086D01*
X75217538Y-80057344D01*
X75308302Y-80227152D01*
X75308306Y-80227159D01*
X75430458Y-80376001D01*
X75579300Y-80498153D01*
X75579307Y-80498157D01*
X75709877Y-80567948D01*
X75749117Y-80588922D01*
X75933376Y-80644817D01*
X76125000Y-80663690D01*
X76316624Y-80644817D01*
X76500883Y-80588922D01*
X76584892Y-80544018D01*
X77687500Y-80544018D01*
X77694898Y-80581209D01*
X77723077Y-80623382D01*
X77765250Y-80651561D01*
X77765252Y-80651562D01*
X77793205Y-80657122D01*
X77802441Y-80658960D01*
X77802442Y-80658960D01*
X79527559Y-80658960D01*
X79534957Y-80657488D01*
X79564748Y-80651562D01*
X79606922Y-80623382D01*
X79635102Y-80581208D01*
X79642500Y-80544018D01*
X79642500Y-78818902D01*
X79635102Y-78781712D01*
X79629948Y-78773998D01*
X79606922Y-78739537D01*
X79564749Y-78711358D01*
X79527559Y-78703960D01*
X79527558Y-78703960D01*
X77802442Y-78703960D01*
X77802441Y-78703960D01*
X77765250Y-78711358D01*
X77723077Y-78739537D01*
X77694898Y-78781710D01*
X77687500Y-78818901D01*
X77687500Y-80544018D01*
X76584892Y-80544018D01*
X76670698Y-80498154D01*
X76819541Y-80376001D01*
X76941694Y-80227158D01*
X77032462Y-80057343D01*
X77088357Y-79873084D01*
X77107230Y-79681460D01*
X77088357Y-79489836D01*
X77032462Y-79305577D01*
X76996997Y-79239227D01*
X76941697Y-79135767D01*
X76941693Y-79135760D01*
X76819541Y-78986918D01*
X76670699Y-78864766D01*
X76670692Y-78864762D01*
X76500884Y-78773998D01*
X76316626Y-78718103D01*
X76125000Y-78699230D01*
X75933373Y-78718103D01*
X75749115Y-78773998D01*
X75579307Y-78864762D01*
X75579300Y-78864766D01*
X75430458Y-78986918D01*
X75308306Y-79135760D01*
X75308302Y-79135767D01*
X75217538Y-79305575D01*
X75161643Y-79489833D01*
X75142770Y-79681460D01*
X51729611Y-79681460D01*
X51713923Y-79562295D01*
X51660771Y-79433974D01*
X51576218Y-79323782D01*
X51466026Y-79239229D01*
X51466025Y-79239228D01*
X51466023Y-79239227D01*
X51337708Y-79186078D01*
X51337703Y-79186076D01*
X51200001Y-79167948D01*
X51199999Y-79167948D01*
X51062296Y-79186076D01*
X51062291Y-79186078D01*
X50933976Y-79239227D01*
X50823782Y-79323782D01*
X50739227Y-79433976D01*
X50686078Y-79562291D01*
X50686076Y-79562296D01*
X50667948Y-79699998D01*
X50667948Y-79700001D01*
X50686076Y-79837703D01*
X50686078Y-79837708D01*
X50739227Y-79966023D01*
X50739228Y-79966025D01*
X50739229Y-79966026D01*
X50823782Y-80076218D01*
X50922054Y-80151625D01*
X50963256Y-80208052D01*
X50967411Y-80277798D01*
X50933199Y-80338719D01*
X50922058Y-80348371D01*
X50885769Y-80376218D01*
X50823782Y-80423782D01*
X50739227Y-80533976D01*
X50686078Y-80662291D01*
X50686076Y-80662296D01*
X50667948Y-80799998D01*
X50667948Y-80800001D01*
X50686076Y-80937703D01*
X50686078Y-80937708D01*
X50739227Y-81066023D01*
X50739228Y-81066025D01*
X50739229Y-81066026D01*
X50823782Y-81176218D01*
X50922054Y-81251625D01*
X50963256Y-81308052D01*
X50967411Y-81377798D01*
X50933199Y-81438719D01*
X50922058Y-81448371D01*
X50872919Y-81486078D01*
X50823782Y-81523782D01*
X50739227Y-81633976D01*
X50686078Y-81762291D01*
X50686076Y-81762296D01*
X50667948Y-81899998D01*
X50667948Y-81900001D01*
X33534703Y-81900001D01*
X33476218Y-81823782D01*
X33476216Y-81823781D01*
X33476216Y-81823780D01*
X33428561Y-81787213D01*
X33377945Y-81748374D01*
X33336743Y-81691948D01*
X33332588Y-81622202D01*
X33366800Y-81561282D01*
X33377941Y-81551628D01*
X33476218Y-81476218D01*
X33560771Y-81366026D01*
X33613923Y-81237705D01*
X33632052Y-81100000D01*
X33613923Y-80962295D01*
X33560771Y-80833974D01*
X33476218Y-80723782D01*
X33476216Y-80723781D01*
X33476216Y-80723780D01*
X33397903Y-80663689D01*
X33377945Y-80648374D01*
X33336743Y-80591948D01*
X33332588Y-80522202D01*
X33366800Y-80461282D01*
X33377941Y-80451628D01*
X33476218Y-80376218D01*
X33560771Y-80266026D01*
X33613923Y-80137705D01*
X33632052Y-80000000D01*
X33613923Y-79862295D01*
X33560771Y-79733974D01*
X33476218Y-79623782D01*
X33366026Y-79539229D01*
X33366025Y-79539228D01*
X33366023Y-79539227D01*
X33237708Y-79486078D01*
X33237703Y-79486076D01*
X33100001Y-79467948D01*
X33099999Y-79467948D01*
X32962296Y-79486076D01*
X32962291Y-79486078D01*
X32833976Y-79539227D01*
X32723782Y-79623782D01*
X32639227Y-79733976D01*
X32586078Y-79862291D01*
X32586076Y-79862296D01*
X32567948Y-79999998D01*
X32567948Y-80000001D01*
X32586076Y-80137703D01*
X32586078Y-80137708D01*
X32639227Y-80266023D01*
X32639228Y-80266025D01*
X32639229Y-80266026D01*
X32723782Y-80376218D01*
X32822054Y-80451625D01*
X32863256Y-80508052D01*
X32867411Y-80577798D01*
X32833199Y-80638719D01*
X32822058Y-80648371D01*
X32802096Y-80663690D01*
X32723782Y-80723782D01*
X32639227Y-80833976D01*
X32586078Y-80962291D01*
X32586076Y-80962296D01*
X32567948Y-81099998D01*
X32567948Y-81100001D01*
X32586076Y-81237703D01*
X32586078Y-81237708D01*
X32639227Y-81366023D01*
X32639228Y-81366025D01*
X32639229Y-81366026D01*
X32723782Y-81476218D01*
X32822054Y-81551625D01*
X32863256Y-81608052D01*
X32867411Y-81677798D01*
X32833199Y-81738719D01*
X32822058Y-81748371D01*
X32723785Y-81823780D01*
X32723782Y-81823782D01*
X32639227Y-81933976D01*
X32586078Y-82062291D01*
X32586076Y-82062296D01*
X32567948Y-82199998D01*
X32567948Y-82200001D01*
X25625000Y-82200001D01*
X25625000Y-76136460D01*
X29967528Y-76136460D01*
X29987366Y-76337883D01*
X29996782Y-76368922D01*
X30046120Y-76531570D01*
X30046121Y-76531573D01*
X30046122Y-76531574D01*
X30046123Y-76531577D01*
X30141527Y-76710065D01*
X30141531Y-76710072D01*
X30269931Y-76866528D01*
X30426387Y-76994928D01*
X30426394Y-76994932D01*
X30604882Y-77090336D01*
X30604883Y-77090336D01*
X30604890Y-77090340D01*
X30798575Y-77149093D01*
X30798574Y-77149093D01*
X30816634Y-77150871D01*
X31000000Y-77168932D01*
X31201425Y-77149093D01*
X31395110Y-77090340D01*
X31573611Y-76994929D01*
X31730068Y-76866528D01*
X31858469Y-76710071D01*
X31953880Y-76531570D01*
X32012633Y-76337885D01*
X32032472Y-76136460D01*
X32012633Y-75935035D01*
X31972114Y-75801460D01*
X65012528Y-75801460D01*
X65032366Y-76002883D01*
X65032367Y-76002885D01*
X65091120Y-76196570D01*
X65091121Y-76196573D01*
X65091122Y-76196574D01*
X65091123Y-76196577D01*
X65186527Y-76375065D01*
X65186531Y-76375072D01*
X65314931Y-76531528D01*
X65471387Y-76659928D01*
X65471394Y-76659932D01*
X65649882Y-76755336D01*
X65649883Y-76755336D01*
X65649890Y-76755340D01*
X65843575Y-76814093D01*
X65843574Y-76814093D01*
X65861634Y-76815871D01*
X66045000Y-76833932D01*
X66246425Y-76814093D01*
X66440110Y-76755340D01*
X66618611Y-76659929D01*
X66775068Y-76531528D01*
X66903469Y-76375071D01*
X66998880Y-76196570D01*
X67057633Y-76002885D01*
X67077472Y-75801460D01*
X67057633Y-75600035D01*
X67015597Y-75461460D01*
X75177770Y-75461460D01*
X75196643Y-75653086D01*
X75252538Y-75837344D01*
X75343302Y-76007152D01*
X75343306Y-76007159D01*
X75465458Y-76156001D01*
X75614300Y-76278153D01*
X75614307Y-76278157D01*
X75726047Y-76337883D01*
X75784117Y-76368922D01*
X75968376Y-76424817D01*
X76160000Y-76443690D01*
X76351624Y-76424817D01*
X76535883Y-76368922D01*
X76619892Y-76324018D01*
X77722500Y-76324018D01*
X77729898Y-76361209D01*
X77758077Y-76403382D01*
X77800250Y-76431561D01*
X77800252Y-76431562D01*
X77828205Y-76437122D01*
X77837441Y-76438960D01*
X77837442Y-76438960D01*
X79562559Y-76438960D01*
X79569957Y-76437488D01*
X79599748Y-76431562D01*
X79641922Y-76403382D01*
X79670102Y-76361208D01*
X79677500Y-76324018D01*
X79677500Y-74598902D01*
X79670102Y-74561712D01*
X79664948Y-74553998D01*
X79641922Y-74519537D01*
X79599749Y-74491358D01*
X79562559Y-74483960D01*
X79562558Y-74483960D01*
X77837442Y-74483960D01*
X77837441Y-74483960D01*
X77800250Y-74491358D01*
X77758077Y-74519537D01*
X77729898Y-74561710D01*
X77722500Y-74598901D01*
X77722500Y-76324018D01*
X76619892Y-76324018D01*
X76705698Y-76278154D01*
X76854541Y-76156001D01*
X76976694Y-76007158D01*
X77067462Y-75837343D01*
X77123357Y-75653084D01*
X77142230Y-75461460D01*
X77123357Y-75269836D01*
X77067462Y-75085577D01*
X77059880Y-75071392D01*
X76976697Y-74915767D01*
X76976693Y-74915760D01*
X76854541Y-74766918D01*
X76705699Y-74644766D01*
X76705692Y-74644762D01*
X76535884Y-74553998D01*
X76351626Y-74498103D01*
X76160000Y-74479230D01*
X75968373Y-74498103D01*
X75784115Y-74553998D01*
X75614307Y-74644762D01*
X75614300Y-74644766D01*
X75465458Y-74766918D01*
X75343306Y-74915760D01*
X75343302Y-74915767D01*
X75252538Y-75085575D01*
X75196643Y-75269833D01*
X75177770Y-75461460D01*
X67015597Y-75461460D01*
X66998880Y-75406350D01*
X66930271Y-75277991D01*
X66903472Y-75227854D01*
X66903468Y-75227847D01*
X66775068Y-75071391D01*
X66618612Y-74942991D01*
X66618605Y-74942987D01*
X66440117Y-74847583D01*
X66440114Y-74847582D01*
X66440113Y-74847581D01*
X66440110Y-74847580D01*
X66246425Y-74788827D01*
X66246423Y-74788826D01*
X66246425Y-74788826D01*
X66045000Y-74768988D01*
X65843576Y-74788826D01*
X65729217Y-74823516D01*
X65649890Y-74847580D01*
X65649887Y-74847581D01*
X65649885Y-74847582D01*
X65649882Y-74847583D01*
X65471394Y-74942987D01*
X65471387Y-74942991D01*
X65314931Y-75071391D01*
X65186531Y-75227847D01*
X65186527Y-75227854D01*
X65091123Y-75406342D01*
X65091122Y-75406345D01*
X65091121Y-75406347D01*
X65091120Y-75406350D01*
X65074403Y-75461460D01*
X65032366Y-75600036D01*
X65012528Y-75801460D01*
X31972114Y-75801460D01*
X31953880Y-75741350D01*
X31878346Y-75600036D01*
X31858472Y-75562854D01*
X31858468Y-75562847D01*
X31730068Y-75406391D01*
X31573612Y-75277991D01*
X31573605Y-75277987D01*
X31395117Y-75182583D01*
X31395114Y-75182582D01*
X31395113Y-75182581D01*
X31395110Y-75182580D01*
X31201425Y-75123827D01*
X31201423Y-75123826D01*
X31201425Y-75123826D01*
X31000000Y-75103988D01*
X30798576Y-75123826D01*
X30684217Y-75158516D01*
X30604890Y-75182580D01*
X30604887Y-75182581D01*
X30604885Y-75182582D01*
X30604882Y-75182583D01*
X30426394Y-75277987D01*
X30426387Y-75277991D01*
X30269931Y-75406391D01*
X30141531Y-75562847D01*
X30141527Y-75562854D01*
X30046123Y-75741342D01*
X30046122Y-75741345D01*
X29987366Y-75935036D01*
X29967528Y-76136460D01*
X25625000Y-76136460D01*
X25625000Y-74400003D01*
X36167897Y-74400003D01*
X36186250Y-74562899D01*
X36186251Y-74562905D01*
X36240397Y-74717647D01*
X36240398Y-74717648D01*
X36327619Y-74856459D01*
X36443541Y-74972381D01*
X36582352Y-75059602D01*
X36737092Y-75113748D01*
X36737098Y-75113748D01*
X36737100Y-75113749D01*
X36899996Y-75132103D01*
X36900000Y-75132103D01*
X36900004Y-75132103D01*
X37062899Y-75113749D01*
X37062898Y-75113749D01*
X37062908Y-75113748D01*
X37217648Y-75059602D01*
X37356459Y-74972381D01*
X37472381Y-74856459D01*
X37559602Y-74717648D01*
X37613748Y-74562908D01*
X37632103Y-74400000D01*
X37613748Y-74237092D01*
X37559602Y-74082352D01*
X37472381Y-73943541D01*
X37356459Y-73827619D01*
X37217647Y-73740397D01*
X37062905Y-73686251D01*
X37062899Y-73686250D01*
X36900004Y-73667897D01*
X36899996Y-73667897D01*
X36737100Y-73686250D01*
X36737094Y-73686251D01*
X36582352Y-73740397D01*
X36443540Y-73827619D01*
X36327619Y-73943540D01*
X36240397Y-74082352D01*
X36186251Y-74237094D01*
X36186250Y-74237100D01*
X36167897Y-74399996D01*
X36167897Y-74400003D01*
X25625000Y-74400003D01*
X25625000Y-73261460D01*
X57392528Y-73261460D01*
X57412366Y-73462883D01*
X57412367Y-73462885D01*
X57471120Y-73656570D01*
X57471121Y-73656573D01*
X57471122Y-73656574D01*
X57471123Y-73656577D01*
X57566527Y-73835065D01*
X57566531Y-73835072D01*
X57694931Y-73991528D01*
X57851387Y-74119928D01*
X57851394Y-74119932D01*
X58029882Y-74215336D01*
X58029883Y-74215336D01*
X58029890Y-74215340D01*
X58223575Y-74274093D01*
X58223574Y-74274093D01*
X58241634Y-74275871D01*
X58425000Y-74293932D01*
X58626425Y-74274093D01*
X58820110Y-74215340D01*
X58998611Y-74119929D01*
X59155068Y-73991528D01*
X59283469Y-73835071D01*
X59378880Y-73656570D01*
X59437633Y-73462885D01*
X59457472Y-73261460D01*
X70092528Y-73261460D01*
X70112366Y-73462883D01*
X70112367Y-73462885D01*
X70171120Y-73656570D01*
X70171121Y-73656573D01*
X70171122Y-73656574D01*
X70171123Y-73656577D01*
X70266527Y-73835065D01*
X70266531Y-73835072D01*
X70394931Y-73991528D01*
X70551387Y-74119928D01*
X70551394Y-74119932D01*
X70729882Y-74215336D01*
X70729883Y-74215336D01*
X70729890Y-74215340D01*
X70923575Y-74274093D01*
X70923574Y-74274093D01*
X70941634Y-74275871D01*
X71125000Y-74293932D01*
X71326425Y-74274093D01*
X71520110Y-74215340D01*
X71698611Y-74119929D01*
X71855068Y-73991528D01*
X71983469Y-73835071D01*
X72078880Y-73656570D01*
X72137633Y-73462885D01*
X72157472Y-73261460D01*
X72137633Y-73060035D01*
X72078880Y-72866350D01*
X71983469Y-72687849D01*
X71983468Y-72687847D01*
X71855068Y-72531391D01*
X71698612Y-72402991D01*
X71698605Y-72402987D01*
X71520117Y-72307583D01*
X71520114Y-72307582D01*
X71520113Y-72307581D01*
X71520110Y-72307580D01*
X71326425Y-72248827D01*
X71326423Y-72248826D01*
X71326425Y-72248826D01*
X71125000Y-72228988D01*
X70923576Y-72248826D01*
X70809217Y-72283516D01*
X70729890Y-72307580D01*
X70729887Y-72307581D01*
X70729885Y-72307582D01*
X70729882Y-72307583D01*
X70551394Y-72402987D01*
X70551387Y-72402991D01*
X70394931Y-72531391D01*
X70266531Y-72687847D01*
X70266527Y-72687854D01*
X70171123Y-72866342D01*
X70171122Y-72866345D01*
X70112366Y-73060036D01*
X70092528Y-73261460D01*
X59457472Y-73261460D01*
X59437633Y-73060035D01*
X59378880Y-72866350D01*
X59283469Y-72687849D01*
X59283468Y-72687847D01*
X59155068Y-72531391D01*
X58998612Y-72402991D01*
X58998605Y-72402987D01*
X58820117Y-72307583D01*
X58820114Y-72307582D01*
X58820113Y-72307581D01*
X58820110Y-72307580D01*
X58626425Y-72248827D01*
X58626423Y-72248826D01*
X58626425Y-72248826D01*
X58425000Y-72228988D01*
X58223576Y-72248826D01*
X58109217Y-72283516D01*
X58029890Y-72307580D01*
X58029887Y-72307581D01*
X58029885Y-72307582D01*
X58029882Y-72307583D01*
X57851394Y-72402987D01*
X57851387Y-72402991D01*
X57694931Y-72531391D01*
X57566531Y-72687847D01*
X57566527Y-72687854D01*
X57471123Y-72866342D01*
X57471122Y-72866345D01*
X57412366Y-73060036D01*
X57392528Y-73261460D01*
X25625000Y-73261460D01*
X25625000Y-71261460D01*
X27652670Y-71261460D01*
X27671949Y-71469524D01*
X27671950Y-71469526D01*
X27729132Y-71670500D01*
X27729138Y-71670515D01*
X27822274Y-71857555D01*
X27948199Y-72024308D01*
X28102618Y-72165078D01*
X28102620Y-72165080D01*
X28280273Y-72275078D01*
X28280274Y-72275078D01*
X28280277Y-72275080D01*
X28475123Y-72350564D01*
X28680522Y-72388960D01*
X28680524Y-72388960D01*
X28889476Y-72388960D01*
X28889478Y-72388960D01*
X29094877Y-72350564D01*
X29289723Y-72275080D01*
X29291438Y-72274018D01*
X32737500Y-72274018D01*
X32744898Y-72311209D01*
X32773077Y-72353382D01*
X32815250Y-72381561D01*
X32815252Y-72381562D01*
X32843205Y-72387122D01*
X32852441Y-72388960D01*
X32852442Y-72388960D01*
X34877559Y-72388960D01*
X34884957Y-72387488D01*
X34914748Y-72381562D01*
X34956922Y-72353382D01*
X34985102Y-72311208D01*
X34992500Y-72274018D01*
X34992500Y-71900001D01*
X43467948Y-71900001D01*
X43486076Y-72037703D01*
X43486078Y-72037708D01*
X43539227Y-72166023D01*
X43539228Y-72166025D01*
X43539229Y-72166026D01*
X43623782Y-72276218D01*
X43733974Y-72360771D01*
X43862295Y-72413923D01*
X43931147Y-72422987D01*
X43999999Y-72432052D01*
X44000000Y-72432052D01*
X44000001Y-72432052D01*
X44045901Y-72426009D01*
X44137705Y-72413923D01*
X44266026Y-72360771D01*
X44376218Y-72276218D01*
X44416272Y-72224018D01*
X75272500Y-72224018D01*
X75279898Y-72261209D01*
X75308077Y-72303382D01*
X75350250Y-72331561D01*
X75350252Y-72331562D01*
X75378205Y-72337122D01*
X75387441Y-72338960D01*
X75387442Y-72338960D01*
X77112559Y-72338960D01*
X77119957Y-72337488D01*
X77149748Y-72331562D01*
X77191922Y-72303382D01*
X77220102Y-72261208D01*
X77227500Y-72224018D01*
X77227500Y-71361460D01*
X77807770Y-71361460D01*
X77826643Y-71553086D01*
X77882538Y-71737344D01*
X77973302Y-71907152D01*
X77973306Y-71907159D01*
X78095458Y-72056001D01*
X78244300Y-72178153D01*
X78244307Y-72178157D01*
X78376520Y-72248826D01*
X78414117Y-72268922D01*
X78598376Y-72324817D01*
X78790000Y-72343690D01*
X78981624Y-72324817D01*
X79165883Y-72268922D01*
X79335698Y-72178154D01*
X79484541Y-72056001D01*
X79606694Y-71907158D01*
X79697462Y-71737343D01*
X79753357Y-71553084D01*
X79772230Y-71361460D01*
X79753357Y-71169836D01*
X79697462Y-70985577D01*
X79641865Y-70881562D01*
X79606697Y-70815767D01*
X79606693Y-70815760D01*
X79484541Y-70666918D01*
X79335699Y-70544766D01*
X79335692Y-70544762D01*
X79165884Y-70453998D01*
X78981626Y-70398103D01*
X78790000Y-70379230D01*
X78598373Y-70398103D01*
X78414115Y-70453998D01*
X78244307Y-70544762D01*
X78244300Y-70544766D01*
X78095458Y-70666918D01*
X77973306Y-70815760D01*
X77973302Y-70815767D01*
X77882538Y-70985575D01*
X77826643Y-71169833D01*
X77807770Y-71361460D01*
X77227500Y-71361460D01*
X77227500Y-70498902D01*
X77220102Y-70461712D01*
X77214948Y-70453998D01*
X77191922Y-70419537D01*
X77149749Y-70391358D01*
X77112559Y-70383960D01*
X77112558Y-70383960D01*
X75387442Y-70383960D01*
X75387441Y-70383960D01*
X75350250Y-70391358D01*
X75308077Y-70419537D01*
X75279898Y-70461710D01*
X75272500Y-70498901D01*
X75272500Y-72224018D01*
X44416272Y-72224018D01*
X44460771Y-72166026D01*
X44513923Y-72037705D01*
X44531110Y-71907158D01*
X44532052Y-71900001D01*
X44532052Y-71899998D01*
X44513923Y-71762296D01*
X44513921Y-71762291D01*
X44503587Y-71737343D01*
X44475903Y-71670505D01*
X44460772Y-71633976D01*
X44460771Y-71633975D01*
X44460771Y-71633974D01*
X44376218Y-71523782D01*
X44266026Y-71439229D01*
X44266025Y-71439228D01*
X44266023Y-71439227D01*
X44137708Y-71386078D01*
X44137703Y-71386076D01*
X44000001Y-71367948D01*
X43999999Y-71367948D01*
X43862296Y-71386076D01*
X43862291Y-71386078D01*
X43733976Y-71439227D01*
X43623782Y-71523782D01*
X43539227Y-71633976D01*
X43486078Y-71762291D01*
X43486076Y-71762296D01*
X43467948Y-71899998D01*
X43467948Y-71900001D01*
X34992500Y-71900001D01*
X34992500Y-70974018D01*
X55997500Y-70974018D01*
X56004898Y-71011209D01*
X56033077Y-71053382D01*
X56075250Y-71081561D01*
X56075252Y-71081562D01*
X56103205Y-71087122D01*
X56112441Y-71088960D01*
X56112442Y-71088960D01*
X58137559Y-71088960D01*
X58144957Y-71087488D01*
X58174748Y-71081562D01*
X58216922Y-71053382D01*
X58245102Y-71011208D01*
X58252500Y-70974018D01*
X58252500Y-69961460D01*
X70992670Y-69961460D01*
X71011949Y-70169524D01*
X71011950Y-70169526D01*
X71069132Y-70370500D01*
X71069138Y-70370515D01*
X71162274Y-70557555D01*
X71288199Y-70724308D01*
X71442618Y-70865078D01*
X71442620Y-70865080D01*
X71620273Y-70975078D01*
X71620274Y-70975078D01*
X71620277Y-70975080D01*
X71815123Y-71050564D01*
X72020522Y-71088960D01*
X72020524Y-71088960D01*
X72229476Y-71088960D01*
X72229478Y-71088960D01*
X72434877Y-71050564D01*
X72629723Y-70975080D01*
X72807381Y-70865079D01*
X72961802Y-70724306D01*
X73087726Y-70557555D01*
X73180866Y-70370505D01*
X73238050Y-70169525D01*
X73257330Y-69961460D01*
X73238050Y-69753395D01*
X73180866Y-69552415D01*
X73087726Y-69365365D01*
X72961802Y-69198614D01*
X72961800Y-69198611D01*
X72807381Y-69057841D01*
X72807379Y-69057839D01*
X72629726Y-68947841D01*
X72629720Y-68947839D01*
X72434877Y-68872356D01*
X72229478Y-68833960D01*
X72020522Y-68833960D01*
X71815123Y-68872356D01*
X71713539Y-68911710D01*
X71620279Y-68947839D01*
X71620273Y-68947841D01*
X71442620Y-69057839D01*
X71442618Y-69057841D01*
X71288199Y-69198611D01*
X71162274Y-69365364D01*
X71069138Y-69552404D01*
X71069132Y-69552419D01*
X71011950Y-69753393D01*
X71011949Y-69753395D01*
X70992670Y-69961459D01*
X70992670Y-69961460D01*
X58252500Y-69961460D01*
X58252500Y-68948902D01*
X58245102Y-68911712D01*
X58245101Y-68911710D01*
X58216922Y-68869537D01*
X58174749Y-68841358D01*
X58137559Y-68833960D01*
X58137558Y-68833960D01*
X56112442Y-68833960D01*
X56112441Y-68833960D01*
X56075250Y-68841358D01*
X56033077Y-68869537D01*
X56004898Y-68911710D01*
X55997500Y-68948901D01*
X55997500Y-70974018D01*
X34992500Y-70974018D01*
X34992500Y-70774018D01*
X36897500Y-70774018D01*
X36904898Y-70811209D01*
X36933077Y-70853382D01*
X36975250Y-70881561D01*
X36975252Y-70881562D01*
X37003205Y-70887122D01*
X37012441Y-70888960D01*
X37012442Y-70888960D01*
X39037559Y-70888960D01*
X39044957Y-70887488D01*
X39074748Y-70881562D01*
X39116922Y-70853382D01*
X39145102Y-70811208D01*
X39152500Y-70774018D01*
X39152500Y-69761460D01*
X51892670Y-69761460D01*
X51911949Y-69969524D01*
X51911950Y-69969526D01*
X51969132Y-70170500D01*
X51969138Y-70170515D01*
X52062274Y-70357555D01*
X52188199Y-70524308D01*
X52342618Y-70665078D01*
X52342620Y-70665080D01*
X52520273Y-70775078D01*
X52520274Y-70775078D01*
X52520277Y-70775080D01*
X52715123Y-70850564D01*
X52920522Y-70888960D01*
X52920524Y-70888960D01*
X53129476Y-70888960D01*
X53129478Y-70888960D01*
X53334877Y-70850564D01*
X53529723Y-70775080D01*
X53707381Y-70665079D01*
X53861802Y-70524306D01*
X53987726Y-70357555D01*
X54080866Y-70170505D01*
X54138050Y-69969525D01*
X54157330Y-69761460D01*
X54156582Y-69753393D01*
X54138050Y-69553395D01*
X54138049Y-69553393D01*
X54084550Y-69365365D01*
X54080866Y-69352415D01*
X53987726Y-69165365D01*
X53906528Y-69057841D01*
X53861800Y-68998611D01*
X53707381Y-68857841D01*
X53707379Y-68857839D01*
X53648625Y-68821460D01*
X75267770Y-68821460D01*
X75286643Y-69013086D01*
X75342538Y-69197344D01*
X75433302Y-69367152D01*
X75433306Y-69367159D01*
X75555458Y-69516001D01*
X75704300Y-69638153D01*
X75704307Y-69638157D01*
X75874115Y-69728921D01*
X75874117Y-69728922D01*
X76058376Y-69784817D01*
X76250000Y-69803690D01*
X76441624Y-69784817D01*
X76625883Y-69728922D01*
X76795698Y-69638154D01*
X76944541Y-69516001D01*
X77066694Y-69367158D01*
X77157462Y-69197343D01*
X77213357Y-69013084D01*
X77232230Y-68821460D01*
X77807770Y-68821460D01*
X77826643Y-69013086D01*
X77882538Y-69197344D01*
X77973302Y-69367152D01*
X77973306Y-69367159D01*
X78095458Y-69516001D01*
X78244300Y-69638153D01*
X78244307Y-69638157D01*
X78414115Y-69728921D01*
X78414117Y-69728922D01*
X78598376Y-69784817D01*
X78790000Y-69803690D01*
X78981624Y-69784817D01*
X79165883Y-69728922D01*
X79335698Y-69638154D01*
X79484541Y-69516001D01*
X79606694Y-69367158D01*
X79697462Y-69197343D01*
X79753357Y-69013084D01*
X79772230Y-68821460D01*
X79753357Y-68629836D01*
X79697462Y-68445577D01*
X79614606Y-68290564D01*
X79606697Y-68275767D01*
X79606693Y-68275760D01*
X79484541Y-68126918D01*
X79335699Y-68004766D01*
X79335692Y-68004762D01*
X79165884Y-67913998D01*
X78981626Y-67858103D01*
X78790000Y-67839230D01*
X78598373Y-67858103D01*
X78414115Y-67913998D01*
X78244307Y-68004762D01*
X78244300Y-68004766D01*
X78095458Y-68126918D01*
X77973306Y-68275760D01*
X77973302Y-68275767D01*
X77882538Y-68445575D01*
X77826643Y-68629833D01*
X77807770Y-68821460D01*
X77232230Y-68821460D01*
X77213357Y-68629836D01*
X77157462Y-68445577D01*
X77074606Y-68290564D01*
X77066697Y-68275767D01*
X77066693Y-68275760D01*
X76944541Y-68126918D01*
X76795699Y-68004766D01*
X76795692Y-68004762D01*
X76625884Y-67913998D01*
X76441626Y-67858103D01*
X76250000Y-67839230D01*
X76058373Y-67858103D01*
X75874115Y-67913998D01*
X75704307Y-68004762D01*
X75704300Y-68004766D01*
X75555458Y-68126918D01*
X75433306Y-68275760D01*
X75433302Y-68275767D01*
X75342538Y-68445575D01*
X75286643Y-68629833D01*
X75267770Y-68821460D01*
X53648625Y-68821460D01*
X53529726Y-68747841D01*
X53529720Y-68747839D01*
X53334877Y-68672356D01*
X53129478Y-68633960D01*
X52920522Y-68633960D01*
X52715123Y-68672356D01*
X52613539Y-68711710D01*
X52520279Y-68747839D01*
X52520273Y-68747841D01*
X52342620Y-68857839D01*
X52342618Y-68857841D01*
X52188199Y-68998611D01*
X52062274Y-69165364D01*
X51969138Y-69352404D01*
X51969132Y-69352419D01*
X51911950Y-69553393D01*
X51911949Y-69553395D01*
X51892670Y-69761459D01*
X51892670Y-69761460D01*
X39152500Y-69761460D01*
X39152500Y-68748902D01*
X39145102Y-68711712D01*
X39145101Y-68711710D01*
X39116922Y-68669537D01*
X39074749Y-68641358D01*
X39037559Y-68633960D01*
X39037558Y-68633960D01*
X37012442Y-68633960D01*
X37012441Y-68633960D01*
X36975250Y-68641358D01*
X36933077Y-68669537D01*
X36904898Y-68711710D01*
X36897500Y-68748901D01*
X36897500Y-70774018D01*
X34992500Y-70774018D01*
X34992500Y-70248902D01*
X34985102Y-70211712D01*
X34985101Y-70211710D01*
X34956922Y-70169537D01*
X34914749Y-70141358D01*
X34877559Y-70133960D01*
X34877558Y-70133960D01*
X32852442Y-70133960D01*
X32852441Y-70133960D01*
X32815250Y-70141358D01*
X32773077Y-70169537D01*
X32744898Y-70211710D01*
X32737500Y-70248901D01*
X32737500Y-72274018D01*
X29291438Y-72274018D01*
X29467381Y-72165079D01*
X29621802Y-72024306D01*
X29747726Y-71857555D01*
X29840866Y-71670505D01*
X29898050Y-71469525D01*
X29917330Y-71261460D01*
X29898050Y-71053395D01*
X29840866Y-70852415D01*
X29839944Y-70850564D01*
X29777075Y-70724306D01*
X29747726Y-70665365D01*
X29641204Y-70524306D01*
X29621800Y-70498611D01*
X29467381Y-70357841D01*
X29467379Y-70357839D01*
X29289726Y-70247841D01*
X29289720Y-70247839D01*
X29094877Y-70172356D01*
X28889478Y-70133960D01*
X28680522Y-70133960D01*
X28475123Y-70172356D01*
X28373539Y-70211710D01*
X28280279Y-70247839D01*
X28280273Y-70247841D01*
X28102620Y-70357839D01*
X28102618Y-70357841D01*
X27948199Y-70498611D01*
X27822274Y-70665364D01*
X27729138Y-70852404D01*
X27729132Y-70852419D01*
X27671950Y-71053393D01*
X27671949Y-71053395D01*
X27652670Y-71261459D01*
X27652670Y-71261460D01*
X25625000Y-71261460D01*
X25625000Y-67200001D01*
X46367948Y-67200001D01*
X46386076Y-67337703D01*
X46386078Y-67337708D01*
X46439227Y-67466023D01*
X46439228Y-67466025D01*
X46439229Y-67466026D01*
X46523782Y-67576218D01*
X46633974Y-67660771D01*
X46762295Y-67713923D01*
X46831147Y-67722987D01*
X46899999Y-67732052D01*
X46900000Y-67732052D01*
X46900001Y-67732052D01*
X46945901Y-67726009D01*
X47037705Y-67713923D01*
X47166026Y-67660771D01*
X47276218Y-67576218D01*
X47360771Y-67466026D01*
X47413923Y-67337705D01*
X47431860Y-67201460D01*
X59392670Y-67201460D01*
X59411949Y-67409524D01*
X59411950Y-67409526D01*
X59469132Y-67610500D01*
X59469138Y-67610515D01*
X59562274Y-67797555D01*
X59688199Y-67964308D01*
X59842618Y-68105078D01*
X59842620Y-68105080D01*
X60020273Y-68215078D01*
X60020274Y-68215078D01*
X60020277Y-68215080D01*
X60215123Y-68290564D01*
X60420522Y-68328960D01*
X60420524Y-68328960D01*
X60629476Y-68328960D01*
X60629478Y-68328960D01*
X60834877Y-68290564D01*
X61029723Y-68215080D01*
X61207381Y-68105079D01*
X61361802Y-67964306D01*
X61487726Y-67797555D01*
X61580866Y-67610505D01*
X61638050Y-67409525D01*
X61657330Y-67201460D01*
X61638050Y-66993395D01*
X61580866Y-66792415D01*
X61554382Y-66739229D01*
X61518889Y-66667948D01*
X61487726Y-66605365D01*
X61387834Y-66473086D01*
X61361800Y-66438611D01*
X61207381Y-66297841D01*
X61207379Y-66297839D01*
X61029726Y-66187841D01*
X61029720Y-66187839D01*
X60834877Y-66112356D01*
X60629478Y-66073960D01*
X60420522Y-66073960D01*
X60215123Y-66112356D01*
X60135617Y-66143157D01*
X60020279Y-66187839D01*
X60020273Y-66187841D01*
X59842620Y-66297839D01*
X59842618Y-66297841D01*
X59688199Y-66438611D01*
X59562274Y-66605364D01*
X59469138Y-66792404D01*
X59469132Y-66792419D01*
X59411950Y-66993393D01*
X59411949Y-66993395D01*
X59392670Y-67201459D01*
X59392670Y-67201460D01*
X47431860Y-67201460D01*
X47432052Y-67200000D01*
X47430593Y-67188921D01*
X47413923Y-67062296D01*
X47413921Y-67062291D01*
X47360772Y-66933976D01*
X47360771Y-66933975D01*
X47360771Y-66933974D01*
X47276218Y-66823782D01*
X47166026Y-66739229D01*
X47166025Y-66739228D01*
X47166023Y-66739227D01*
X47037708Y-66686078D01*
X47037703Y-66686076D01*
X46900001Y-66667948D01*
X46899999Y-66667948D01*
X46762296Y-66686076D01*
X46762291Y-66686078D01*
X46633976Y-66739227D01*
X46523782Y-66823782D01*
X46439227Y-66933976D01*
X46386078Y-67062291D01*
X46386076Y-67062296D01*
X46367948Y-67199998D01*
X46367948Y-67200001D01*
X25625000Y-67200001D01*
X25625000Y-66154018D01*
X26597500Y-66154018D01*
X26604898Y-66191209D01*
X26633077Y-66233382D01*
X26675250Y-66261561D01*
X26675252Y-66261562D01*
X26703205Y-66267122D01*
X26712441Y-66268960D01*
X26712442Y-66268960D01*
X28737559Y-66268960D01*
X28744957Y-66267488D01*
X28774748Y-66261562D01*
X28816922Y-66233382D01*
X28845102Y-66191208D01*
X28852500Y-66154018D01*
X28852500Y-65326460D01*
X38067770Y-65326460D01*
X38086643Y-65518086D01*
X38142538Y-65702344D01*
X38233302Y-65872152D01*
X38233306Y-65872159D01*
X38355458Y-66021001D01*
X38504300Y-66143153D01*
X38504307Y-66143157D01*
X38673107Y-66233382D01*
X38674117Y-66233922D01*
X38858376Y-66289817D01*
X39050000Y-66308690D01*
X39241624Y-66289817D01*
X39425883Y-66233922D01*
X39595698Y-66143154D01*
X39744541Y-66021001D01*
X39866694Y-65872158D01*
X39890486Y-65827646D01*
X48186430Y-65827646D01*
X48204558Y-65965348D01*
X48204560Y-65965353D01*
X48257709Y-66093668D01*
X48257710Y-66093670D01*
X48257711Y-66093671D01*
X48342264Y-66203863D01*
X48452456Y-66288416D01*
X48580777Y-66341568D01*
X48649629Y-66350632D01*
X48718481Y-66359697D01*
X48718482Y-66359697D01*
X48718483Y-66359697D01*
X48764383Y-66353654D01*
X48856187Y-66341568D01*
X48984508Y-66288416D01*
X49094700Y-66203863D01*
X49179253Y-66093671D01*
X49232405Y-65965350D01*
X49249266Y-65837275D01*
X49277531Y-65773381D01*
X49335855Y-65734909D01*
X49388388Y-65730523D01*
X49400000Y-65732052D01*
X49537705Y-65713923D01*
X49666026Y-65660771D01*
X49776218Y-65576218D01*
X49852765Y-65476460D01*
X64319364Y-65476460D01*
X64376567Y-65689946D01*
X64376570Y-65689952D01*
X64476399Y-65904038D01*
X64611894Y-66097542D01*
X64778917Y-66264565D01*
X64972421Y-66400060D01*
X65186507Y-66499889D01*
X65186516Y-66499893D01*
X65400000Y-66557094D01*
X65400000Y-65661961D01*
X65507685Y-65711140D01*
X65614237Y-65726460D01*
X65685763Y-65726460D01*
X65792315Y-65711140D01*
X65900000Y-65661961D01*
X65900000Y-66557093D01*
X66113483Y-66499893D01*
X66113492Y-66499889D01*
X66327578Y-66400060D01*
X66496954Y-66281460D01*
X75267770Y-66281460D01*
X75286643Y-66473086D01*
X75342538Y-66657344D01*
X75433302Y-66827152D01*
X75433306Y-66827159D01*
X75555458Y-66976001D01*
X75704300Y-67098153D01*
X75704307Y-67098157D01*
X75874115Y-67188921D01*
X75874117Y-67188922D01*
X76058376Y-67244817D01*
X76250000Y-67263690D01*
X76441624Y-67244817D01*
X76625883Y-67188922D01*
X76795698Y-67098154D01*
X76944541Y-66976001D01*
X77066694Y-66827158D01*
X77157462Y-66657343D01*
X77213357Y-66473084D01*
X77232230Y-66281460D01*
X77807770Y-66281460D01*
X77826643Y-66473086D01*
X77882538Y-66657344D01*
X77973302Y-66827152D01*
X77973306Y-66827159D01*
X78095458Y-66976001D01*
X78244300Y-67098153D01*
X78244307Y-67098157D01*
X78414115Y-67188921D01*
X78414117Y-67188922D01*
X78598376Y-67244817D01*
X78790000Y-67263690D01*
X78981624Y-67244817D01*
X79165883Y-67188922D01*
X79335698Y-67098154D01*
X79484541Y-66976001D01*
X79606694Y-66827158D01*
X79697462Y-66657343D01*
X79753357Y-66473084D01*
X79772230Y-66281460D01*
X79753357Y-66089836D01*
X79697462Y-65905577D01*
X79679596Y-65872152D01*
X79606697Y-65735767D01*
X79606693Y-65735760D01*
X79484541Y-65586918D01*
X79335699Y-65464766D01*
X79335692Y-65464762D01*
X79165884Y-65373998D01*
X78981626Y-65318103D01*
X78790000Y-65299230D01*
X78598373Y-65318103D01*
X78414115Y-65373998D01*
X78244307Y-65464762D01*
X78244300Y-65464766D01*
X78095458Y-65586918D01*
X77973306Y-65735760D01*
X77973302Y-65735767D01*
X77882538Y-65905575D01*
X77826643Y-66089833D01*
X77807770Y-66281460D01*
X77232230Y-66281460D01*
X77213357Y-66089836D01*
X77157462Y-65905577D01*
X77139596Y-65872152D01*
X77066697Y-65735767D01*
X77066693Y-65735760D01*
X76944541Y-65586918D01*
X76795699Y-65464766D01*
X76795692Y-65464762D01*
X76625884Y-65373998D01*
X76441626Y-65318103D01*
X76250000Y-65299230D01*
X76058373Y-65318103D01*
X75874115Y-65373998D01*
X75704307Y-65464762D01*
X75704300Y-65464766D01*
X75555458Y-65586918D01*
X75433306Y-65735760D01*
X75433302Y-65735767D01*
X75342538Y-65905575D01*
X75286643Y-66089833D01*
X75267770Y-66281460D01*
X66496954Y-66281460D01*
X66521082Y-66264565D01*
X66688105Y-66097542D01*
X66823600Y-65904038D01*
X66923429Y-65689952D01*
X66923432Y-65689946D01*
X66980636Y-65476460D01*
X66083686Y-65476460D01*
X66109493Y-65436304D01*
X66150000Y-65298349D01*
X66150000Y-65154571D01*
X66109493Y-65016616D01*
X66083686Y-64976460D01*
X66980636Y-64976460D01*
X66980635Y-64976459D01*
X66923432Y-64762973D01*
X66923429Y-64762967D01*
X66823600Y-64548882D01*
X66823599Y-64548880D01*
X66688113Y-64355386D01*
X66688108Y-64355380D01*
X66521082Y-64188354D01*
X66327578Y-64052859D01*
X66113492Y-63953030D01*
X66113483Y-63953026D01*
X65944452Y-63907735D01*
X65884791Y-63871370D01*
X65854262Y-63808523D01*
X65862281Y-63741460D01*
X75267770Y-63741460D01*
X75286643Y-63933086D01*
X75342538Y-64117344D01*
X75433302Y-64287152D01*
X75433306Y-64287159D01*
X75555458Y-64436001D01*
X75704300Y-64558153D01*
X75704307Y-64558157D01*
X75853128Y-64637703D01*
X75874117Y-64648922D01*
X76058376Y-64704817D01*
X76250000Y-64723690D01*
X76441624Y-64704817D01*
X76625883Y-64648922D01*
X76795698Y-64558154D01*
X76944541Y-64436001D01*
X77066694Y-64287158D01*
X77157462Y-64117343D01*
X77213357Y-63933084D01*
X77232230Y-63741460D01*
X77807770Y-63741460D01*
X77826643Y-63933086D01*
X77882538Y-64117344D01*
X77973302Y-64287152D01*
X77973306Y-64287159D01*
X78095458Y-64436001D01*
X78244300Y-64558153D01*
X78244307Y-64558157D01*
X78393128Y-64637703D01*
X78414117Y-64648922D01*
X78598376Y-64704817D01*
X78790000Y-64723690D01*
X78981624Y-64704817D01*
X79165883Y-64648922D01*
X79335698Y-64558154D01*
X79484541Y-64436001D01*
X79606694Y-64287158D01*
X79697462Y-64117343D01*
X79753357Y-63933084D01*
X79772230Y-63741460D01*
X79753357Y-63549836D01*
X79697462Y-63365577D01*
X79654969Y-63286078D01*
X79606697Y-63195767D01*
X79606693Y-63195760D01*
X79484541Y-63046918D01*
X79335699Y-62924766D01*
X79335692Y-62924762D01*
X79165884Y-62833998D01*
X78981626Y-62778103D01*
X78790000Y-62759230D01*
X78598373Y-62778103D01*
X78414115Y-62833998D01*
X78244307Y-62924762D01*
X78244300Y-62924766D01*
X78095458Y-63046918D01*
X77973306Y-63195760D01*
X77973302Y-63195767D01*
X77882538Y-63365575D01*
X77826643Y-63549833D01*
X77807770Y-63741460D01*
X77232230Y-63741460D01*
X77213357Y-63549836D01*
X77157462Y-63365577D01*
X77114969Y-63286078D01*
X77066697Y-63195767D01*
X77066693Y-63195760D01*
X76944541Y-63046918D01*
X76795699Y-62924766D01*
X76795692Y-62924762D01*
X76625884Y-62833998D01*
X76441626Y-62778103D01*
X76250000Y-62759230D01*
X76058373Y-62778103D01*
X75874115Y-62833998D01*
X75704307Y-62924762D01*
X75704300Y-62924766D01*
X75555458Y-63046918D01*
X75433306Y-63195760D01*
X75433302Y-63195767D01*
X75342538Y-63365575D01*
X75286643Y-63549833D01*
X75267770Y-63741460D01*
X65862281Y-63741460D01*
X65862557Y-63739148D01*
X65907042Y-63685270D01*
X65973594Y-63663995D01*
X65976545Y-63663960D01*
X66512559Y-63663960D01*
X66520948Y-63662291D01*
X66549748Y-63656562D01*
X66591922Y-63628382D01*
X66620102Y-63586208D01*
X66627500Y-63549018D01*
X66627500Y-61823902D01*
X66620102Y-61786712D01*
X66620101Y-61786710D01*
X66591922Y-61744537D01*
X66549749Y-61716358D01*
X66512559Y-61708960D01*
X66512558Y-61708960D01*
X64787442Y-61708960D01*
X64787441Y-61708960D01*
X64750250Y-61716358D01*
X64708077Y-61744537D01*
X64679898Y-61786710D01*
X64672500Y-61823901D01*
X64672500Y-63549018D01*
X64679898Y-63586209D01*
X64708077Y-63628382D01*
X64750250Y-63656561D01*
X64750252Y-63656562D01*
X64778205Y-63662122D01*
X64787441Y-63663960D01*
X65323455Y-63663960D01*
X65390494Y-63683645D01*
X65436249Y-63736449D01*
X65446193Y-63805607D01*
X65417168Y-63869163D01*
X65358390Y-63906937D01*
X65355548Y-63907735D01*
X65186516Y-63953026D01*
X65186507Y-63953030D01*
X64972422Y-64052859D01*
X64972420Y-64052860D01*
X64778926Y-64188346D01*
X64778920Y-64188351D01*
X64611891Y-64355380D01*
X64611886Y-64355386D01*
X64476400Y-64548880D01*
X64476399Y-64548882D01*
X64376570Y-64762967D01*
X64376567Y-64762973D01*
X64319364Y-64976459D01*
X64319364Y-64976460D01*
X65216314Y-64976460D01*
X65190507Y-65016616D01*
X65150000Y-65154571D01*
X65150000Y-65298349D01*
X65190507Y-65436304D01*
X65216314Y-65476460D01*
X64319364Y-65476460D01*
X49852765Y-65476460D01*
X49860771Y-65466026D01*
X49913923Y-65337705D01*
X49932052Y-65200000D01*
X49927743Y-65167273D01*
X49938508Y-65098241D01*
X49984887Y-65045984D01*
X50052156Y-65027098D01*
X50066850Y-65028148D01*
X50096500Y-65032052D01*
X50234205Y-65013923D01*
X50362526Y-64960771D01*
X50472718Y-64876218D01*
X50557271Y-64766026D01*
X50610423Y-64637705D01*
X50628552Y-64500000D01*
X50624897Y-64472237D01*
X50635662Y-64403202D01*
X50682042Y-64350946D01*
X50740576Y-64334136D01*
X50740442Y-64333113D01*
X50747272Y-64332213D01*
X50747836Y-64332052D01*
X50748501Y-64332052D01*
X50794401Y-64326009D01*
X50886205Y-64313923D01*
X51014526Y-64260771D01*
X51124718Y-64176218D01*
X51209271Y-64066026D01*
X51262423Y-63937705D01*
X51280552Y-63800000D01*
X51276897Y-63772237D01*
X51287662Y-63703202D01*
X51334042Y-63650946D01*
X51392094Y-63634274D01*
X51391942Y-63633113D01*
X51399696Y-63632092D01*
X51399836Y-63632052D01*
X51400001Y-63632052D01*
X51445901Y-63626009D01*
X51537705Y-63613923D01*
X51666026Y-63560771D01*
X51776218Y-63476218D01*
X51860771Y-63366026D01*
X51913923Y-63237705D01*
X51926009Y-63145901D01*
X51932052Y-63100001D01*
X51931942Y-63099163D01*
X51928149Y-63070355D01*
X51938914Y-63001322D01*
X51974292Y-62961461D01*
X56092948Y-62961461D01*
X56111076Y-63099163D01*
X56111078Y-63099168D01*
X56164227Y-63227483D01*
X56164228Y-63227485D01*
X56164229Y-63227486D01*
X56248782Y-63337678D01*
X56358974Y-63422231D01*
X56487295Y-63475383D01*
X56493638Y-63476218D01*
X56624999Y-63493512D01*
X56625000Y-63493512D01*
X56625001Y-63493512D01*
X56670901Y-63487469D01*
X56762705Y-63475383D01*
X56891026Y-63422231D01*
X57001218Y-63337678D01*
X57085771Y-63227486D01*
X57124486Y-63134018D01*
X59397500Y-63134018D01*
X59404898Y-63171209D01*
X59433077Y-63213382D01*
X59475250Y-63241561D01*
X59475252Y-63241562D01*
X59503205Y-63247122D01*
X59512441Y-63248960D01*
X59512442Y-63248960D01*
X61537559Y-63248960D01*
X61544957Y-63247488D01*
X61574748Y-63241562D01*
X61616922Y-63213382D01*
X61645102Y-63171208D01*
X61652500Y-63134018D01*
X61652500Y-61108902D01*
X61645102Y-61071712D01*
X61645101Y-61071710D01*
X61616922Y-61029537D01*
X61574749Y-61001358D01*
X61537559Y-60993960D01*
X61537558Y-60993960D01*
X59512442Y-60993960D01*
X59512441Y-60993960D01*
X59475250Y-61001358D01*
X59433077Y-61029537D01*
X59404898Y-61071710D01*
X59397500Y-61108901D01*
X59397500Y-63134018D01*
X57124486Y-63134018D01*
X57138923Y-63099165D01*
X57157052Y-62961460D01*
X57155420Y-62949066D01*
X57143796Y-62860771D01*
X57138923Y-62823755D01*
X57085771Y-62695434D01*
X57001218Y-62585242D01*
X56891026Y-62500689D01*
X56891025Y-62500688D01*
X56891023Y-62500687D01*
X56762708Y-62447538D01*
X56762703Y-62447536D01*
X56625001Y-62429408D01*
X56624999Y-62429408D01*
X56487296Y-62447536D01*
X56487291Y-62447538D01*
X56358976Y-62500687D01*
X56248782Y-62585242D01*
X56164227Y-62695436D01*
X56111078Y-62823751D01*
X56111076Y-62823756D01*
X56092948Y-62961458D01*
X56092948Y-62961461D01*
X51974292Y-62961461D01*
X51985293Y-62949066D01*
X52052562Y-62930180D01*
X52067265Y-62931231D01*
X52073500Y-62932052D01*
X52211205Y-62913923D01*
X52339526Y-62860771D01*
X52449718Y-62776218D01*
X52534271Y-62666026D01*
X52587423Y-62537705D01*
X52602713Y-62421562D01*
X52605552Y-62400001D01*
X52605552Y-62399998D01*
X52594232Y-62314018D01*
X53697500Y-62314018D01*
X53704898Y-62351209D01*
X53733077Y-62393382D01*
X53775250Y-62421561D01*
X53775252Y-62421562D01*
X53803205Y-62427122D01*
X53812441Y-62428960D01*
X53812442Y-62428960D01*
X55837559Y-62428960D01*
X55844957Y-62427488D01*
X55874748Y-62421562D01*
X55916922Y-62393382D01*
X55945102Y-62351208D01*
X55952500Y-62314018D01*
X55952500Y-60288902D01*
X55945102Y-60251712D01*
X55945101Y-60251710D01*
X55916922Y-60209537D01*
X55874749Y-60181358D01*
X55837559Y-60173960D01*
X55837558Y-60173960D01*
X53812442Y-60173960D01*
X53812441Y-60173960D01*
X53775250Y-60181358D01*
X53733077Y-60209537D01*
X53704898Y-60251710D01*
X53697500Y-60288901D01*
X53697500Y-62314018D01*
X52594232Y-62314018D01*
X52587423Y-62262296D01*
X52587421Y-62262291D01*
X52534272Y-62133976D01*
X52534271Y-62133975D01*
X52534271Y-62133974D01*
X52449718Y-62023782D01*
X52339526Y-61939229D01*
X52339525Y-61939228D01*
X52339523Y-61939227D01*
X52211208Y-61886078D01*
X52211203Y-61886076D01*
X52073501Y-61867948D01*
X52073499Y-61867948D01*
X51935796Y-61886076D01*
X51935791Y-61886078D01*
X51807476Y-61939227D01*
X51697282Y-62023782D01*
X51612727Y-62133976D01*
X51559578Y-62262291D01*
X51559576Y-62262296D01*
X51541448Y-62399998D01*
X51541448Y-62400002D01*
X51545350Y-62429644D01*
X51534584Y-62498679D01*
X51488203Y-62550935D01*
X51420934Y-62569819D01*
X51406230Y-62568768D01*
X51400000Y-62567948D01*
X51399999Y-62567948D01*
X51262296Y-62586076D01*
X51262291Y-62586078D01*
X51133976Y-62639227D01*
X51023782Y-62723782D01*
X50939227Y-62833976D01*
X50886078Y-62962291D01*
X50886076Y-62962296D01*
X50867948Y-63099998D01*
X50867948Y-63099999D01*
X50871603Y-63127762D01*
X50860838Y-63196798D01*
X50814458Y-63249054D01*
X50756405Y-63265725D01*
X50756558Y-63266887D01*
X50748803Y-63267907D01*
X50748664Y-63267948D01*
X50748499Y-63267948D01*
X50610796Y-63286076D01*
X50610791Y-63286078D01*
X50482476Y-63339227D01*
X50372282Y-63423782D01*
X50287727Y-63533976D01*
X50234578Y-63662291D01*
X50234576Y-63662296D01*
X50216448Y-63799998D01*
X50216448Y-63799999D01*
X50220103Y-63827762D01*
X50209338Y-63896798D01*
X50162958Y-63949054D01*
X50104423Y-63965863D01*
X50104558Y-63966887D01*
X50097727Y-63967786D01*
X50097164Y-63967948D01*
X50096499Y-63967948D01*
X49958796Y-63986076D01*
X49958791Y-63986078D01*
X49830476Y-64039227D01*
X49720282Y-64123782D01*
X49635727Y-64233976D01*
X49582578Y-64362291D01*
X49582576Y-64362296D01*
X49564448Y-64499998D01*
X49564448Y-64500001D01*
X49568756Y-64532725D01*
X49557990Y-64601761D01*
X49511610Y-64654016D01*
X49444341Y-64672901D01*
X49429632Y-64671849D01*
X49400001Y-64667948D01*
X49399999Y-64667948D01*
X49262296Y-64686076D01*
X49262291Y-64686078D01*
X49133976Y-64739227D01*
X49023782Y-64823782D01*
X48939227Y-64933976D01*
X48886078Y-65062291D01*
X48886076Y-65062296D01*
X48869216Y-65190367D01*
X48840950Y-65254264D01*
X48782625Y-65292735D01*
X48730094Y-65297121D01*
X48718486Y-65295593D01*
X48718481Y-65295593D01*
X48580778Y-65313721D01*
X48580773Y-65313723D01*
X48452458Y-65366872D01*
X48342264Y-65451427D01*
X48257709Y-65561621D01*
X48204560Y-65689936D01*
X48204558Y-65689941D01*
X48186430Y-65827643D01*
X48186430Y-65827646D01*
X39890486Y-65827646D01*
X39957462Y-65702343D01*
X40013357Y-65518084D01*
X40032230Y-65326460D01*
X40013357Y-65134836D01*
X39957462Y-64950577D01*
X39866694Y-64780762D01*
X39866693Y-64780760D01*
X39744541Y-64631918D01*
X39595699Y-64509766D01*
X39595692Y-64509762D01*
X39425884Y-64418998D01*
X39241626Y-64363103D01*
X39050000Y-64344230D01*
X38858373Y-64363103D01*
X38674115Y-64418998D01*
X38504307Y-64509762D01*
X38504300Y-64509766D01*
X38355458Y-64631918D01*
X38233306Y-64780760D01*
X38233302Y-64780767D01*
X38142538Y-64950575D01*
X38086643Y-65134833D01*
X38067770Y-65326460D01*
X28852500Y-65326460D01*
X28852500Y-64128902D01*
X28845102Y-64091712D01*
X28845101Y-64091710D01*
X28816922Y-64049537D01*
X28774749Y-64021358D01*
X28737559Y-64013960D01*
X28737558Y-64013960D01*
X26712442Y-64013960D01*
X26712441Y-64013960D01*
X26675250Y-64021358D01*
X26633077Y-64049537D01*
X26604898Y-64091710D01*
X26597500Y-64128901D01*
X26597500Y-66154018D01*
X25625000Y-66154018D01*
X25625000Y-63649018D01*
X38072500Y-63649018D01*
X38079898Y-63686209D01*
X38108077Y-63728382D01*
X38150250Y-63756561D01*
X38150252Y-63756562D01*
X38178205Y-63762122D01*
X38187441Y-63763960D01*
X38187442Y-63763960D01*
X39912559Y-63763960D01*
X39919957Y-63762488D01*
X39949748Y-63756562D01*
X39991922Y-63728382D01*
X40020102Y-63686208D01*
X40027500Y-63649018D01*
X40027500Y-61923902D01*
X40020102Y-61886712D01*
X40020101Y-61886710D01*
X39991922Y-61844537D01*
X39949749Y-61816358D01*
X39912559Y-61808960D01*
X39912558Y-61808960D01*
X38187442Y-61808960D01*
X38187441Y-61808960D01*
X38150250Y-61816358D01*
X38108077Y-61844537D01*
X38079898Y-61886710D01*
X38072500Y-61923901D01*
X38072500Y-63649018D01*
X25625000Y-63649018D01*
X25625000Y-60061460D01*
X26592670Y-60061460D01*
X26611949Y-60269524D01*
X26611950Y-60269526D01*
X26669132Y-60470500D01*
X26669138Y-60470515D01*
X26762274Y-60657555D01*
X26888199Y-60824308D01*
X27042618Y-60965078D01*
X27042620Y-60965080D01*
X27220273Y-61075078D01*
X27220274Y-61075078D01*
X27220277Y-61075080D01*
X27415123Y-61150564D01*
X27620522Y-61188960D01*
X27620524Y-61188960D01*
X27829476Y-61188960D01*
X27829478Y-61188960D01*
X28034877Y-61150564D01*
X28229723Y-61075080D01*
X28407381Y-60965079D01*
X28561802Y-60824306D01*
X28687726Y-60657555D01*
X28780866Y-60470505D01*
X28838050Y-60269525D01*
X28857330Y-60061460D01*
X28838050Y-59853395D01*
X28780866Y-59652415D01*
X28687726Y-59465365D01*
X28561802Y-59298614D01*
X28561800Y-59298611D01*
X28407381Y-59157841D01*
X28407379Y-59157839D01*
X28229726Y-59047841D01*
X28229720Y-59047839D01*
X28034877Y-58972356D01*
X27829478Y-58933960D01*
X27620522Y-58933960D01*
X27415123Y-58972356D01*
X27291904Y-59020091D01*
X27220279Y-59047839D01*
X27220273Y-59047841D01*
X27042620Y-59157839D01*
X27042618Y-59157841D01*
X26888199Y-59298611D01*
X26762274Y-59465364D01*
X26669138Y-59652404D01*
X26669132Y-59652419D01*
X26611950Y-59853393D01*
X26611949Y-59853395D01*
X26592670Y-60061459D01*
X26592670Y-60061460D01*
X25625000Y-60061460D01*
X25625000Y-57849840D01*
X29663816Y-57849840D01*
X29664751Y-57869468D01*
X29673630Y-58055859D01*
X29721249Y-58252149D01*
X29722257Y-58256303D01*
X29807934Y-58443909D01*
X29807935Y-58443911D01*
X29807936Y-58443913D01*
X29807938Y-58443916D01*
X29927577Y-58611927D01*
X30076851Y-58754259D01*
X30250364Y-58865769D01*
X30441845Y-58942426D01*
X30543108Y-58961943D01*
X30644371Y-58981460D01*
X30644372Y-58981460D01*
X30893945Y-58981460D01*
X30893951Y-58981460D01*
X31047821Y-58966767D01*
X31245721Y-58908658D01*
X31429048Y-58814147D01*
X31591176Y-58686648D01*
X31726244Y-58530771D01*
X31829372Y-58352149D01*
X31896831Y-58157238D01*
X31926184Y-57953082D01*
X31916502Y-57749838D01*
X57663816Y-57749838D01*
X57673630Y-57955859D01*
X57722256Y-58156300D01*
X57722257Y-58156303D01*
X57807934Y-58343909D01*
X57807935Y-58343911D01*
X57807936Y-58343913D01*
X57807938Y-58343916D01*
X57927577Y-58511927D01*
X58076851Y-58654259D01*
X58250364Y-58765769D01*
X58441845Y-58842426D01*
X58543108Y-58861943D01*
X58644371Y-58881460D01*
X58644372Y-58881460D01*
X58893945Y-58881460D01*
X58893951Y-58881460D01*
X59047821Y-58866767D01*
X59245721Y-58808658D01*
X59429048Y-58714147D01*
X59591176Y-58586648D01*
X59726244Y-58430771D01*
X59829372Y-58252149D01*
X59896831Y-58057238D01*
X59926184Y-57853082D01*
X59916370Y-57647061D01*
X59867744Y-57446620D01*
X59805609Y-57310564D01*
X59782065Y-57259010D01*
X59782064Y-57259008D01*
X59782063Y-57259007D01*
X59782062Y-57259004D01*
X59662423Y-57090993D01*
X59618050Y-57048684D01*
X59513148Y-56948660D01*
X59339636Y-56837151D01*
X59148153Y-56760493D01*
X58945629Y-56721460D01*
X58945628Y-56721460D01*
X58696049Y-56721460D01*
X58542179Y-56736153D01*
X58542176Y-56736154D01*
X58344281Y-56794261D01*
X58160947Y-56888775D01*
X57998826Y-57016269D01*
X57998823Y-57016272D01*
X57863753Y-57172151D01*
X57760629Y-57350767D01*
X57693170Y-57545676D01*
X57693169Y-57545681D01*
X57693169Y-57545682D01*
X57663816Y-57749838D01*
X31916502Y-57749838D01*
X31916370Y-57747061D01*
X31867744Y-57546620D01*
X31782062Y-57359004D01*
X31662423Y-57190993D01*
X31584054Y-57116269D01*
X31513148Y-57048660D01*
X31339636Y-56937151D01*
X31148153Y-56860493D01*
X30945629Y-56821460D01*
X30945628Y-56821460D01*
X30696049Y-56821460D01*
X30542179Y-56836153D01*
X30497855Y-56849167D01*
X30344281Y-56894261D01*
X30160947Y-56988775D01*
X29998826Y-57116269D01*
X29998823Y-57116272D01*
X29863753Y-57272151D01*
X29760629Y-57450767D01*
X29693170Y-57645676D01*
X29693169Y-57645681D01*
X29693169Y-57645682D01*
X29678194Y-57749840D01*
X29663816Y-57849840D01*
X25625000Y-57849840D01*
X25625000Y-55309840D01*
X29663816Y-55309840D01*
X29664197Y-55317839D01*
X29673630Y-55515859D01*
X29721249Y-55712149D01*
X29722257Y-55716303D01*
X29807934Y-55903909D01*
X29807935Y-55903911D01*
X29807936Y-55903913D01*
X29807938Y-55903916D01*
X29927577Y-56071927D01*
X30076851Y-56214259D01*
X30250364Y-56325769D01*
X30441845Y-56402426D01*
X30543108Y-56421943D01*
X30644371Y-56441460D01*
X30644372Y-56441460D01*
X30893945Y-56441460D01*
X30893951Y-56441460D01*
X31047821Y-56426767D01*
X31245721Y-56368658D01*
X31429048Y-56274147D01*
X31591176Y-56146648D01*
X31726244Y-55990771D01*
X31829372Y-55812149D01*
X31896831Y-55617238D01*
X31926184Y-55413082D01*
X31923725Y-55361461D01*
X45449390Y-55361461D01*
X45469804Y-55646893D01*
X45530628Y-55926497D01*
X45530630Y-55926503D01*
X45530631Y-55926506D01*
X45622997Y-56174147D01*
X45630635Y-56194626D01*
X45767770Y-56445769D01*
X45767775Y-56445777D01*
X45939254Y-56674847D01*
X45939270Y-56674865D01*
X46141594Y-56877189D01*
X46141612Y-56877205D01*
X46370682Y-57048684D01*
X46370690Y-57048689D01*
X46621833Y-57185824D01*
X46621832Y-57185824D01*
X46621836Y-57185825D01*
X46621839Y-57185827D01*
X46889954Y-57285829D01*
X46889960Y-57285830D01*
X46889962Y-57285831D01*
X47169566Y-57346655D01*
X47169568Y-57346655D01*
X47169572Y-57346656D01*
X47383552Y-57361960D01*
X47526448Y-57361960D01*
X47740428Y-57346656D01*
X47906346Y-57310563D01*
X48020037Y-57285831D01*
X48020037Y-57285830D01*
X48020046Y-57285829D01*
X48288161Y-57185827D01*
X48539315Y-57048686D01*
X48768395Y-56877199D01*
X48970739Y-56674855D01*
X49142226Y-56445775D01*
X49264712Y-56221460D01*
X53692670Y-56221460D01*
X53711949Y-56429524D01*
X53711950Y-56429526D01*
X53769132Y-56630500D01*
X53769138Y-56630515D01*
X53862274Y-56817555D01*
X53988199Y-56984308D01*
X54142618Y-57125078D01*
X54142620Y-57125080D01*
X54320273Y-57235078D01*
X54320274Y-57235078D01*
X54320277Y-57235080D01*
X54515123Y-57310564D01*
X54720522Y-57348960D01*
X54720524Y-57348960D01*
X54929476Y-57348960D01*
X54929478Y-57348960D01*
X55134877Y-57310564D01*
X55329723Y-57235080D01*
X55507381Y-57125079D01*
X55661802Y-56984306D01*
X55787726Y-56817555D01*
X55880866Y-56630505D01*
X55938050Y-56429525D01*
X55957330Y-56221460D01*
X55954843Y-56194626D01*
X55938050Y-56013395D01*
X55938049Y-56013393D01*
X55931612Y-55990771D01*
X55880866Y-55812415D01*
X55880735Y-55812152D01*
X55830939Y-55712149D01*
X55787726Y-55625365D01*
X55661802Y-55458614D01*
X55661800Y-55458611D01*
X55507381Y-55317841D01*
X55507379Y-55317839D01*
X55332951Y-55209838D01*
X57663816Y-55209838D01*
X57673630Y-55415859D01*
X57722256Y-55616300D01*
X57722257Y-55616303D01*
X57807934Y-55803909D01*
X57807935Y-55803911D01*
X57807936Y-55803913D01*
X57807938Y-55803916D01*
X57927577Y-55971927D01*
X57927579Y-55971929D01*
X57927580Y-55971930D01*
X58005941Y-56046647D01*
X58076851Y-56114259D01*
X58250364Y-56225769D01*
X58441845Y-56302426D01*
X58543108Y-56321943D01*
X58644371Y-56341460D01*
X58644372Y-56341460D01*
X58893945Y-56341460D01*
X58893951Y-56341460D01*
X59047821Y-56326767D01*
X59245721Y-56268658D01*
X59429048Y-56174147D01*
X59591176Y-56046648D01*
X59726244Y-55890771D01*
X59829372Y-55712149D01*
X59896831Y-55517238D01*
X59926184Y-55313082D01*
X59923725Y-55261461D01*
X73449390Y-55261461D01*
X73469804Y-55546893D01*
X73530628Y-55826497D01*
X73530630Y-55826503D01*
X73530631Y-55826506D01*
X73600337Y-56013395D01*
X73630635Y-56094626D01*
X73767770Y-56345769D01*
X73767775Y-56345777D01*
X73939254Y-56574847D01*
X73939270Y-56574865D01*
X74141594Y-56777189D01*
X74141612Y-56777205D01*
X74370682Y-56948684D01*
X74370690Y-56948689D01*
X74621833Y-57085824D01*
X74621832Y-57085824D01*
X74621836Y-57085825D01*
X74621839Y-57085827D01*
X74889954Y-57185829D01*
X74889960Y-57185830D01*
X74889962Y-57185831D01*
X75169566Y-57246655D01*
X75169568Y-57246655D01*
X75169572Y-57246656D01*
X75383552Y-57261960D01*
X75526448Y-57261960D01*
X75740428Y-57246656D01*
X75793643Y-57235080D01*
X76020037Y-57185831D01*
X76020037Y-57185830D01*
X76020046Y-57185829D01*
X76288161Y-57085827D01*
X76539315Y-56948686D01*
X76768395Y-56777199D01*
X76970739Y-56574855D01*
X77142226Y-56345775D01*
X77279367Y-56094621D01*
X77379369Y-55826506D01*
X77440196Y-55546888D01*
X77460610Y-55261460D01*
X77440196Y-54976032D01*
X77425999Y-54910771D01*
X77379371Y-54696422D01*
X77379370Y-54696420D01*
X77379369Y-54696414D01*
X77279367Y-54428299D01*
X77268643Y-54408660D01*
X77142229Y-54177150D01*
X77142224Y-54177142D01*
X76970745Y-53948072D01*
X76970729Y-53948054D01*
X76768405Y-53745730D01*
X76768387Y-53745714D01*
X76539317Y-53574235D01*
X76539309Y-53574230D01*
X76288166Y-53437095D01*
X76288167Y-53437095D01*
X76180915Y-53397092D01*
X76020046Y-53337091D01*
X76020043Y-53337090D01*
X76020037Y-53337088D01*
X75740433Y-53276264D01*
X75526448Y-53260960D01*
X75383552Y-53260960D01*
X75169566Y-53276264D01*
X74889962Y-53337088D01*
X74621833Y-53437095D01*
X74370690Y-53574230D01*
X74370682Y-53574235D01*
X74141612Y-53745714D01*
X74141594Y-53745730D01*
X73939270Y-53948054D01*
X73939254Y-53948072D01*
X73767775Y-54177142D01*
X73767770Y-54177150D01*
X73630635Y-54428293D01*
X73530628Y-54696422D01*
X73469804Y-54976026D01*
X73449390Y-55261458D01*
X73449390Y-55261461D01*
X59923725Y-55261461D01*
X59916370Y-55107061D01*
X59867744Y-54906620D01*
X59782062Y-54719004D01*
X59662423Y-54550993D01*
X59584054Y-54476269D01*
X59513148Y-54408660D01*
X59339636Y-54297151D01*
X59148153Y-54220493D01*
X58945629Y-54181460D01*
X58945628Y-54181460D01*
X58696049Y-54181460D01*
X58542179Y-54196153D01*
X58542176Y-54196154D01*
X58344281Y-54254261D01*
X58160947Y-54348775D01*
X57998826Y-54476269D01*
X57998823Y-54476272D01*
X57863753Y-54632151D01*
X57760629Y-54810767D01*
X57693170Y-55005676D01*
X57693169Y-55005681D01*
X57693169Y-55005682D01*
X57663816Y-55209838D01*
X55332951Y-55209838D01*
X55329726Y-55207841D01*
X55329720Y-55207839D01*
X55327704Y-55207058D01*
X55134877Y-55132356D01*
X54929478Y-55093960D01*
X54720522Y-55093960D01*
X54515123Y-55132356D01*
X54391904Y-55180091D01*
X54320279Y-55207839D01*
X54320273Y-55207841D01*
X54142620Y-55317839D01*
X54142618Y-55317841D01*
X53988199Y-55458611D01*
X53862274Y-55625364D01*
X53769138Y-55812404D01*
X53769132Y-55812419D01*
X53711950Y-56013393D01*
X53711949Y-56013395D01*
X53692670Y-56221459D01*
X53692670Y-56221460D01*
X49264712Y-56221460D01*
X49279367Y-56194621D01*
X49379369Y-55926506D01*
X49440196Y-55646888D01*
X49460610Y-55361460D01*
X49440196Y-55076032D01*
X49425096Y-55006620D01*
X49379371Y-54796422D01*
X49379370Y-54796420D01*
X49379369Y-54796414D01*
X49279367Y-54528299D01*
X49268643Y-54508660D01*
X49142229Y-54277150D01*
X49142224Y-54277142D01*
X48970745Y-54048072D01*
X48970729Y-54048054D01*
X48768405Y-53845730D01*
X48768387Y-53845714D01*
X48555725Y-53686518D01*
X57667500Y-53686518D01*
X57674898Y-53723709D01*
X57703077Y-53765882D01*
X57745250Y-53794061D01*
X57745252Y-53794062D01*
X57773205Y-53799622D01*
X57782441Y-53801460D01*
X57782442Y-53801460D01*
X59807559Y-53801460D01*
X59814957Y-53799988D01*
X59844748Y-53794062D01*
X59886922Y-53765882D01*
X59915102Y-53723708D01*
X59922500Y-53686518D01*
X59922500Y-51756402D01*
X59915102Y-51719212D01*
X59915101Y-51719210D01*
X59886922Y-51677037D01*
X59844749Y-51648858D01*
X59807559Y-51641460D01*
X59807558Y-51641460D01*
X57782442Y-51641460D01*
X57782441Y-51641460D01*
X57745250Y-51648858D01*
X57703077Y-51677037D01*
X57674898Y-51719210D01*
X57667500Y-51756401D01*
X57667500Y-53686518D01*
X48555725Y-53686518D01*
X48539317Y-53674235D01*
X48539309Y-53674230D01*
X48288166Y-53537095D01*
X48288167Y-53537095D01*
X48180915Y-53497092D01*
X48020046Y-53437091D01*
X48020043Y-53437090D01*
X48020037Y-53437088D01*
X47740433Y-53376264D01*
X47526448Y-53360960D01*
X47383552Y-53360960D01*
X47169566Y-53376264D01*
X46889962Y-53437088D01*
X46621833Y-53537095D01*
X46370690Y-53674230D01*
X46370682Y-53674235D01*
X46141612Y-53845714D01*
X46141594Y-53845730D01*
X45939270Y-54048054D01*
X45939254Y-54048072D01*
X45767775Y-54277142D01*
X45767770Y-54277150D01*
X45630635Y-54528293D01*
X45530628Y-54796422D01*
X45469804Y-55076026D01*
X45449390Y-55361458D01*
X45449390Y-55361461D01*
X31923725Y-55361461D01*
X31916370Y-55207061D01*
X31867744Y-55006620D01*
X31782062Y-54819004D01*
X31662423Y-54650993D01*
X31584054Y-54576269D01*
X31513148Y-54508660D01*
X31339636Y-54397151D01*
X31148153Y-54320493D01*
X30945629Y-54281460D01*
X30945628Y-54281460D01*
X30696049Y-54281460D01*
X30542179Y-54296153D01*
X30497855Y-54309167D01*
X30344281Y-54354261D01*
X30160947Y-54448775D01*
X29998826Y-54576269D01*
X29998823Y-54576272D01*
X29863753Y-54732151D01*
X29760629Y-54910767D01*
X29693170Y-55105676D01*
X29693169Y-55105681D01*
X29693169Y-55105682D01*
X29678194Y-55209840D01*
X29663816Y-55309840D01*
X25625000Y-55309840D01*
X25625000Y-53786518D01*
X29667500Y-53786518D01*
X29674898Y-53823709D01*
X29703077Y-53865882D01*
X29745250Y-53894061D01*
X29745252Y-53894062D01*
X29773205Y-53899622D01*
X29782441Y-53901460D01*
X29782442Y-53901460D01*
X31807559Y-53901460D01*
X31814957Y-53899988D01*
X31844748Y-53894062D01*
X31886922Y-53865882D01*
X31915102Y-53823708D01*
X31922500Y-53786518D01*
X31922500Y-52000001D01*
X48267948Y-52000001D01*
X48286076Y-52137703D01*
X48286078Y-52137708D01*
X48339227Y-52266023D01*
X48339228Y-52266025D01*
X48339229Y-52266026D01*
X48423782Y-52376218D01*
X48533974Y-52460771D01*
X48662295Y-52513923D01*
X48731147Y-52522987D01*
X48799999Y-52532052D01*
X48800000Y-52532052D01*
X48800001Y-52532052D01*
X48845901Y-52526009D01*
X48937705Y-52513923D01*
X49066026Y-52460771D01*
X49176218Y-52376218D01*
X49260771Y-52266026D01*
X49313923Y-52137705D01*
X49332052Y-52000001D01*
X52867948Y-52000001D01*
X52886076Y-52137703D01*
X52886078Y-52137708D01*
X52939227Y-52266023D01*
X52939228Y-52266025D01*
X52939229Y-52266026D01*
X53023782Y-52376218D01*
X53133974Y-52460771D01*
X53262295Y-52513923D01*
X53331147Y-52522987D01*
X53399999Y-52532052D01*
X53400000Y-52532052D01*
X53400001Y-52532052D01*
X53445901Y-52526009D01*
X53537705Y-52513923D01*
X53666026Y-52460771D01*
X53776218Y-52376218D01*
X53860771Y-52266026D01*
X53913923Y-52137705D01*
X53932052Y-52000000D01*
X53913923Y-51862295D01*
X53860771Y-51733974D01*
X53776218Y-51623782D01*
X53666026Y-51539229D01*
X53666025Y-51539228D01*
X53666023Y-51539227D01*
X53537708Y-51486078D01*
X53537703Y-51486076D01*
X53400001Y-51467948D01*
X53399999Y-51467948D01*
X53262296Y-51486076D01*
X53262291Y-51486078D01*
X53133976Y-51539227D01*
X53023782Y-51623782D01*
X52939227Y-51733976D01*
X52886078Y-51862291D01*
X52886076Y-51862296D01*
X52867948Y-51999998D01*
X52867948Y-52000001D01*
X49332052Y-52000001D01*
X49332052Y-52000000D01*
X49313923Y-51862295D01*
X49260771Y-51733974D01*
X49176218Y-51623782D01*
X49066026Y-51539229D01*
X49066025Y-51539228D01*
X49066023Y-51539227D01*
X48937708Y-51486078D01*
X48937703Y-51486076D01*
X48800001Y-51467948D01*
X48799999Y-51467948D01*
X48662296Y-51486076D01*
X48662291Y-51486078D01*
X48533976Y-51539227D01*
X48423782Y-51623782D01*
X48339227Y-51733976D01*
X48286078Y-51862291D01*
X48286076Y-51862296D01*
X48267948Y-51999998D01*
X48267948Y-52000001D01*
X31922500Y-52000001D01*
X31922500Y-51856402D01*
X31915102Y-51819212D01*
X31915101Y-51819210D01*
X31886922Y-51777037D01*
X31844749Y-51748858D01*
X31807559Y-51741460D01*
X31807558Y-51741460D01*
X29782442Y-51741460D01*
X29782441Y-51741460D01*
X29745250Y-51748858D01*
X29703077Y-51777037D01*
X29674898Y-51819210D01*
X29667500Y-51856401D01*
X29667500Y-53786518D01*
X25625000Y-53786518D01*
X25625000Y-49700001D01*
X56067948Y-49700001D01*
X56086076Y-49837703D01*
X56086078Y-49837708D01*
X56139227Y-49966023D01*
X56139228Y-49966025D01*
X56139229Y-49966026D01*
X56223782Y-50076218D01*
X56333974Y-50160771D01*
X56462295Y-50213923D01*
X56531147Y-50222987D01*
X56599999Y-50232052D01*
X56600000Y-50232052D01*
X56600001Y-50232052D01*
X56645901Y-50226009D01*
X56737705Y-50213923D01*
X56866026Y-50160771D01*
X56976218Y-50076218D01*
X57060771Y-49966026D01*
X57113923Y-49837705D01*
X57132052Y-49700000D01*
X57113923Y-49562295D01*
X57060771Y-49433974D01*
X56976218Y-49323782D01*
X56976215Y-49323780D01*
X56971270Y-49317335D01*
X56972483Y-49316403D01*
X56943382Y-49263108D01*
X56948366Y-49193416D01*
X56971964Y-49156697D01*
X56971270Y-49156165D01*
X56976215Y-49149720D01*
X56976218Y-49149718D01*
X57060771Y-49039526D01*
X57113923Y-48911205D01*
X57132052Y-48773500D01*
X57113923Y-48635795D01*
X57076787Y-48546140D01*
X57060772Y-48507476D01*
X57060771Y-48507475D01*
X57060771Y-48507474D01*
X56976218Y-48397282D01*
X56866026Y-48312729D01*
X56866025Y-48312728D01*
X56866023Y-48312727D01*
X56737708Y-48259578D01*
X56737703Y-48259576D01*
X56600001Y-48241448D01*
X56599999Y-48241448D01*
X56462296Y-48259576D01*
X56462291Y-48259578D01*
X56333976Y-48312727D01*
X56223782Y-48397282D01*
X56139227Y-48507476D01*
X56086078Y-48635791D01*
X56086076Y-48635796D01*
X56067948Y-48773498D01*
X56067948Y-48773501D01*
X56086076Y-48911203D01*
X56086078Y-48911208D01*
X56139227Y-49039523D01*
X56139228Y-49039525D01*
X56139229Y-49039526D01*
X56223782Y-49149718D01*
X56223784Y-49149719D01*
X56228730Y-49156165D01*
X56227516Y-49157096D01*
X56256618Y-49210392D01*
X56251634Y-49280084D01*
X56228035Y-49316802D01*
X56228730Y-49317335D01*
X56223784Y-49323780D01*
X56223782Y-49323782D01*
X56166528Y-49398395D01*
X56139227Y-49433976D01*
X56086078Y-49562291D01*
X56086076Y-49562296D01*
X56067948Y-49699998D01*
X56067948Y-49700001D01*
X25625000Y-49700001D01*
X25625000Y-49109304D01*
X30600000Y-49109304D01*
X30606401Y-49168832D01*
X30606403Y-49168839D01*
X30656645Y-49303546D01*
X30656649Y-49303553D01*
X30742809Y-49418647D01*
X30742812Y-49418650D01*
X30857906Y-49504810D01*
X30857913Y-49504814D01*
X30992620Y-49555056D01*
X30992627Y-49555058D01*
X31052155Y-49561459D01*
X31052172Y-49561460D01*
X31850000Y-49561460D01*
X31850000Y-48496961D01*
X31957685Y-48546140D01*
X32064237Y-48561460D01*
X32135763Y-48561460D01*
X32242315Y-48546140D01*
X32350000Y-48496961D01*
X32350000Y-49561460D01*
X33147828Y-49561460D01*
X33147844Y-49561459D01*
X33207372Y-49555058D01*
X33207379Y-49555056D01*
X33342086Y-49504814D01*
X33342093Y-49504810D01*
X33457187Y-49418650D01*
X33457190Y-49418647D01*
X33543350Y-49303553D01*
X33543354Y-49303546D01*
X33593596Y-49168839D01*
X33593598Y-49168832D01*
X33599999Y-49109304D01*
X33600000Y-49109287D01*
X33600000Y-48311460D01*
X32533686Y-48311460D01*
X32559493Y-48271304D01*
X32600000Y-48133349D01*
X32600000Y-48061460D01*
X36047670Y-48061460D01*
X36066949Y-48269524D01*
X36066950Y-48269526D01*
X36124132Y-48470500D01*
X36124138Y-48470515D01*
X36217274Y-48657555D01*
X36343199Y-48824308D01*
X36497618Y-48965078D01*
X36497620Y-48965080D01*
X36675273Y-49075078D01*
X36675274Y-49075078D01*
X36675277Y-49075080D01*
X36870123Y-49150564D01*
X37075522Y-49188960D01*
X37075524Y-49188960D01*
X37284476Y-49188960D01*
X37284478Y-49188960D01*
X37489877Y-49150564D01*
X37684723Y-49075080D01*
X37862381Y-48965079D01*
X38016802Y-48824306D01*
X38142726Y-48657555D01*
X38235866Y-48470505D01*
X38293050Y-48269525D01*
X38312330Y-48061460D01*
X38306635Y-48000001D01*
X42867948Y-48000001D01*
X42886076Y-48137699D01*
X42886078Y-48137708D01*
X42939227Y-48266023D01*
X42939228Y-48266025D01*
X42939229Y-48266026D01*
X43023782Y-48376218D01*
X43133974Y-48460771D01*
X43262295Y-48513923D01*
X43331147Y-48522987D01*
X43399999Y-48532052D01*
X43400000Y-48532052D01*
X43400001Y-48532052D01*
X43445901Y-48526009D01*
X43537705Y-48513923D01*
X43666026Y-48460771D01*
X43776218Y-48376218D01*
X43860771Y-48266026D01*
X43913923Y-48137705D01*
X43914497Y-48133349D01*
X43932052Y-48000001D01*
X43932052Y-47999998D01*
X43913923Y-47862296D01*
X43913921Y-47862291D01*
X43910236Y-47853395D01*
X43860771Y-47733974D01*
X43776218Y-47623782D01*
X43666026Y-47539229D01*
X43666025Y-47539228D01*
X43666023Y-47539227D01*
X43537708Y-47486078D01*
X43537703Y-47486076D01*
X43400001Y-47467948D01*
X43399999Y-47467948D01*
X43262296Y-47486076D01*
X43262291Y-47486078D01*
X43133976Y-47539227D01*
X43023782Y-47623782D01*
X42939227Y-47733976D01*
X42886078Y-47862291D01*
X42886076Y-47862296D01*
X42867948Y-47999998D01*
X42867948Y-48000001D01*
X38306635Y-48000001D01*
X38293050Y-47853395D01*
X38235866Y-47652415D01*
X38227945Y-47636508D01*
X38166104Y-47512315D01*
X38142726Y-47465365D01*
X38051506Y-47344570D01*
X38016800Y-47298611D01*
X37862381Y-47157841D01*
X37862379Y-47157839D01*
X37684726Y-47047841D01*
X37684720Y-47047839D01*
X37489877Y-46972356D01*
X37284478Y-46933960D01*
X37075522Y-46933960D01*
X36870123Y-46972356D01*
X36763622Y-47013615D01*
X36675279Y-47047839D01*
X36675273Y-47047841D01*
X36497620Y-47157839D01*
X36497618Y-47157841D01*
X36343199Y-47298611D01*
X36217274Y-47465364D01*
X36124138Y-47652404D01*
X36124132Y-47652419D01*
X36066950Y-47853393D01*
X36066949Y-47853395D01*
X36047670Y-48061459D01*
X36047670Y-48061460D01*
X32600000Y-48061460D01*
X32600000Y-47989571D01*
X32559493Y-47851616D01*
X32533686Y-47811460D01*
X33600000Y-47811460D01*
X33600000Y-47013632D01*
X33599999Y-47013615D01*
X33593598Y-46954087D01*
X33593596Y-46954080D01*
X33543354Y-46819373D01*
X33543350Y-46819366D01*
X33457190Y-46704272D01*
X33457187Y-46704269D01*
X33342093Y-46618109D01*
X33342086Y-46618105D01*
X33293546Y-46600001D01*
X43367948Y-46600001D01*
X43386076Y-46737703D01*
X43386078Y-46737708D01*
X43439227Y-46866023D01*
X43439228Y-46866025D01*
X43439229Y-46866026D01*
X43523782Y-46976218D01*
X43633974Y-47060771D01*
X43762295Y-47113923D01*
X43831147Y-47122987D01*
X43899999Y-47132052D01*
X43900000Y-47132052D01*
X43900001Y-47132052D01*
X43945901Y-47126009D01*
X44037705Y-47113923D01*
X44166026Y-47060771D01*
X44203073Y-47032344D01*
X57259344Y-47032344D01*
X57259372Y-47151459D01*
X57289611Y-47283823D01*
X57289613Y-47283828D01*
X57289614Y-47283831D01*
X57348545Y-47406160D01*
X57433213Y-47512315D01*
X57539372Y-47596975D01*
X57539373Y-47596976D01*
X57661706Y-47655899D01*
X57794082Y-47686132D01*
X57794076Y-47686132D01*
X57837218Y-47686139D01*
X57837243Y-47686144D01*
X57861875Y-47686144D01*
X57861974Y-47686144D01*
X57862474Y-47686144D01*
X74610607Y-47686144D01*
X74610658Y-47686158D01*
X74661974Y-47686151D01*
X74661974Y-47686153D01*
X74729867Y-47686145D01*
X74862245Y-47655918D01*
X74984580Y-47596996D01*
X75090739Y-47512333D01*
X75175401Y-47406172D01*
X75234321Y-47283836D01*
X75264546Y-47151458D01*
X75264553Y-47083565D01*
X75264553Y-47083065D01*
X75264553Y-43400001D01*
X75867948Y-43400001D01*
X75886076Y-43537703D01*
X75886078Y-43537708D01*
X75939227Y-43666023D01*
X75939228Y-43666025D01*
X75939229Y-43666026D01*
X76023782Y-43776218D01*
X76133974Y-43860771D01*
X76262295Y-43913923D01*
X76331147Y-43922987D01*
X76399999Y-43932052D01*
X76400000Y-43932052D01*
X76400001Y-43932052D01*
X76445901Y-43926009D01*
X76537705Y-43913923D01*
X76666026Y-43860771D01*
X76776218Y-43776218D01*
X76860771Y-43666026D01*
X76913923Y-43537705D01*
X76932052Y-43400000D01*
X76913923Y-43262295D01*
X76860771Y-43133974D01*
X76776218Y-43023782D01*
X76666026Y-42939229D01*
X76666025Y-42939228D01*
X76666023Y-42939227D01*
X76537708Y-42886078D01*
X76537703Y-42886076D01*
X76400001Y-42867948D01*
X76399999Y-42867948D01*
X76262296Y-42886076D01*
X76262291Y-42886078D01*
X76133976Y-42939227D01*
X76023782Y-43023782D01*
X75939227Y-43133976D01*
X75886078Y-43262291D01*
X75886076Y-43262296D01*
X75867948Y-43399998D01*
X75867948Y-43400001D01*
X75264553Y-43400001D01*
X75264553Y-42335427D01*
X75266579Y-42328527D01*
X75266579Y-42230473D01*
X75266543Y-42230138D01*
X75266544Y-42213646D01*
X75236337Y-42081263D01*
X75177427Y-41958922D01*
X75167451Y-41946412D01*
X75092772Y-41852761D01*
X75092770Y-41852758D01*
X75092767Y-41852756D01*
X75092765Y-41852753D01*
X74986615Y-41768097D01*
X74986614Y-41768096D01*
X74986611Y-41768094D01*
X74903078Y-41727864D01*
X74864275Y-41709176D01*
X74731894Y-41678960D01*
X74731893Y-41678960D01*
X74664099Y-41678960D01*
X57861875Y-41678960D01*
X57860191Y-41678960D01*
X57839440Y-41680992D01*
X57794079Y-41680987D01*
X57794074Y-41680988D01*
X57661687Y-41711193D01*
X57539341Y-41770103D01*
X57539340Y-41770104D01*
X57433171Y-41854766D01*
X57433170Y-41854767D01*
X57348510Y-41960929D01*
X57348508Y-41960931D01*
X57289595Y-42083282D01*
X57259389Y-42215670D01*
X57259388Y-42215673D01*
X57259395Y-42283564D01*
X57259395Y-47032171D01*
X57259344Y-47032344D01*
X44203073Y-47032344D01*
X44276218Y-46976218D01*
X44360771Y-46866026D01*
X44413923Y-46737705D01*
X44429668Y-46618109D01*
X44432052Y-46600001D01*
X44432052Y-46599998D01*
X44413923Y-46462296D01*
X44413921Y-46462291D01*
X44360772Y-46333976D01*
X44360771Y-46333975D01*
X44360771Y-46333974D01*
X44276218Y-46223782D01*
X44166026Y-46139229D01*
X44166025Y-46139228D01*
X44166023Y-46139227D01*
X44037708Y-46086078D01*
X44037703Y-46086076D01*
X43900001Y-46067948D01*
X43899999Y-46067948D01*
X43762296Y-46086076D01*
X43762291Y-46086078D01*
X43633976Y-46139227D01*
X43523782Y-46223782D01*
X43439227Y-46333976D01*
X43386078Y-46462291D01*
X43386076Y-46462296D01*
X43367948Y-46599998D01*
X43367948Y-46600001D01*
X33293546Y-46600001D01*
X33207379Y-46567863D01*
X33207372Y-46567861D01*
X33147844Y-46561460D01*
X32350000Y-46561460D01*
X32350000Y-47625958D01*
X32242315Y-47576780D01*
X32135763Y-47561460D01*
X32064237Y-47561460D01*
X31957685Y-47576780D01*
X31850000Y-47625958D01*
X31850000Y-46561460D01*
X31052155Y-46561460D01*
X30992627Y-46567861D01*
X30992620Y-46567863D01*
X30857913Y-46618105D01*
X30857906Y-46618109D01*
X30742812Y-46704269D01*
X30742809Y-46704272D01*
X30656649Y-46819366D01*
X30656645Y-46819373D01*
X30606403Y-46954080D01*
X30606401Y-46954087D01*
X30600000Y-47013615D01*
X30600000Y-47811460D01*
X31666314Y-47811460D01*
X31640507Y-47851616D01*
X31600000Y-47989571D01*
X31600000Y-48133349D01*
X31640507Y-48271304D01*
X31666314Y-48311460D01*
X30600000Y-48311460D01*
X30600000Y-49109304D01*
X25625000Y-49109304D01*
X25625000Y-40461461D01*
X41416448Y-40461461D01*
X41434576Y-40599163D01*
X41434578Y-40599168D01*
X41487727Y-40727483D01*
X41487728Y-40727485D01*
X41487729Y-40727486D01*
X41572282Y-40837678D01*
X41682474Y-40922231D01*
X41810795Y-40975383D01*
X41948500Y-40993512D01*
X41971176Y-40990526D01*
X42040208Y-41001290D01*
X42092465Y-41047669D01*
X42111352Y-41114937D01*
X42110300Y-41129649D01*
X42092948Y-41261457D01*
X42092948Y-41261461D01*
X42111076Y-41399163D01*
X42111078Y-41399168D01*
X42164227Y-41527483D01*
X42164228Y-41527485D01*
X42164229Y-41527486D01*
X42248782Y-41637678D01*
X42358974Y-41722231D01*
X42487295Y-41775383D01*
X42556147Y-41784447D01*
X42624999Y-41793512D01*
X42625000Y-41793512D01*
X42625001Y-41793512D01*
X42670901Y-41787469D01*
X42762705Y-41775383D01*
X42772176Y-41771460D01*
X54394364Y-41771460D01*
X54451567Y-41984946D01*
X54451570Y-41984952D01*
X54551399Y-42199038D01*
X54686894Y-42392542D01*
X54853917Y-42559565D01*
X55047421Y-42695060D01*
X55261507Y-42794889D01*
X55261516Y-42794893D01*
X55430548Y-42840185D01*
X55490209Y-42876550D01*
X55520738Y-42939397D01*
X55512443Y-43008772D01*
X55467958Y-43062650D01*
X55401406Y-43083925D01*
X55398455Y-43083960D01*
X54862441Y-43083960D01*
X54825250Y-43091358D01*
X54783077Y-43119537D01*
X54754898Y-43161710D01*
X54747500Y-43198901D01*
X54747500Y-44924018D01*
X54754898Y-44961209D01*
X54783077Y-45003382D01*
X54825250Y-45031561D01*
X54825252Y-45031562D01*
X54853205Y-45037122D01*
X54862441Y-45038960D01*
X54862442Y-45038960D01*
X56587559Y-45038960D01*
X56594957Y-45037488D01*
X56624748Y-45031562D01*
X56666922Y-45003382D01*
X56695102Y-44961208D01*
X56702500Y-44924018D01*
X56702500Y-43198902D01*
X56695102Y-43161712D01*
X56695101Y-43161710D01*
X56666922Y-43119537D01*
X56624749Y-43091358D01*
X56587559Y-43083960D01*
X56587558Y-43083960D01*
X56051545Y-43083960D01*
X55984506Y-43064275D01*
X55938751Y-43011471D01*
X55928807Y-42942313D01*
X55957832Y-42878757D01*
X56016610Y-42840983D01*
X56019452Y-42840185D01*
X56188483Y-42794893D01*
X56188492Y-42794889D01*
X56402578Y-42695060D01*
X56596082Y-42559565D01*
X56763105Y-42392542D01*
X56898600Y-42199038D01*
X56998429Y-41984952D01*
X56998432Y-41984946D01*
X57055636Y-41771460D01*
X56158686Y-41771460D01*
X56184493Y-41731304D01*
X56225000Y-41593349D01*
X56225000Y-41449571D01*
X56184493Y-41311616D01*
X56158686Y-41271460D01*
X57055636Y-41271460D01*
X57055635Y-41271459D01*
X56998432Y-41057973D01*
X56998429Y-41057967D01*
X56898600Y-40843882D01*
X56898599Y-40843880D01*
X56763113Y-40650386D01*
X56763108Y-40650380D01*
X56596082Y-40483354D01*
X56402578Y-40347859D01*
X56188492Y-40248030D01*
X56188486Y-40248027D01*
X55975000Y-40190824D01*
X55975000Y-41085958D01*
X55867315Y-41036780D01*
X55760763Y-41021460D01*
X55689237Y-41021460D01*
X55582685Y-41036780D01*
X55475000Y-41085958D01*
X55475000Y-40190824D01*
X55474999Y-40190824D01*
X55261513Y-40248027D01*
X55261507Y-40248030D01*
X55047422Y-40347859D01*
X55047420Y-40347860D01*
X54853926Y-40483346D01*
X54853920Y-40483351D01*
X54686891Y-40650380D01*
X54686886Y-40650386D01*
X54551400Y-40843880D01*
X54551399Y-40843882D01*
X54451570Y-41057967D01*
X54451567Y-41057973D01*
X54394364Y-41271459D01*
X54394364Y-41271460D01*
X55291314Y-41271460D01*
X55265507Y-41311616D01*
X55225000Y-41449571D01*
X55225000Y-41593349D01*
X55265507Y-41731304D01*
X55291314Y-41771460D01*
X54394364Y-41771460D01*
X42772176Y-41771460D01*
X42891026Y-41722231D01*
X43001218Y-41637678D01*
X43085771Y-41527486D01*
X43138923Y-41399165D01*
X43151009Y-41307361D01*
X43157052Y-41261461D01*
X43157052Y-41261458D01*
X43138923Y-41123756D01*
X43138921Y-41123751D01*
X43085772Y-40995436D01*
X43085771Y-40995435D01*
X43085771Y-40995434D01*
X43001218Y-40885242D01*
X42891026Y-40800689D01*
X42891025Y-40800688D01*
X42891023Y-40800687D01*
X42762708Y-40747538D01*
X42762703Y-40747536D01*
X42625001Y-40729408D01*
X42624997Y-40729408D01*
X42602322Y-40732393D01*
X42533287Y-40721627D01*
X42481031Y-40675246D01*
X42462147Y-40607977D01*
X42463199Y-40593269D01*
X42480552Y-40461461D01*
X42480552Y-40461458D01*
X42462423Y-40323756D01*
X42462421Y-40323751D01*
X42409272Y-40195436D01*
X42409271Y-40195435D01*
X42409271Y-40195434D01*
X42324718Y-40085242D01*
X42214526Y-40000689D01*
X42214525Y-40000688D01*
X42214523Y-40000687D01*
X42086208Y-39947538D01*
X42086203Y-39947536D01*
X41948501Y-39929408D01*
X41948499Y-39929408D01*
X41810796Y-39947536D01*
X41810791Y-39947538D01*
X41682476Y-40000687D01*
X41572282Y-40085242D01*
X41487727Y-40195436D01*
X41434578Y-40323751D01*
X41434576Y-40323756D01*
X41416448Y-40461458D01*
X41416448Y-40461461D01*
X25625000Y-40461461D01*
X25625000Y-39300001D01*
X67467948Y-39300001D01*
X67486076Y-39437703D01*
X67486078Y-39437708D01*
X67539227Y-39566023D01*
X67539228Y-39566025D01*
X67539229Y-39566026D01*
X67623782Y-39676218D01*
X67733974Y-39760771D01*
X67862295Y-39813923D01*
X67931147Y-39822987D01*
X67999999Y-39832052D01*
X68000000Y-39832052D01*
X68000001Y-39832052D01*
X68045901Y-39826009D01*
X68137705Y-39813923D01*
X68266026Y-39760771D01*
X68376218Y-39676218D01*
X68460771Y-39566026D01*
X68513923Y-39437705D01*
X68532052Y-39300000D01*
X68522505Y-39227486D01*
X68513923Y-39162296D01*
X68513921Y-39162291D01*
X68460772Y-39033976D01*
X68460771Y-39033975D01*
X68460771Y-39033974D01*
X68405130Y-38961461D01*
X75592948Y-38961461D01*
X75611076Y-39099163D01*
X75611078Y-39099168D01*
X75664227Y-39227483D01*
X75664228Y-39227485D01*
X75664229Y-39227486D01*
X75748782Y-39337678D01*
X75858974Y-39422231D01*
X75987295Y-39475383D01*
X76056147Y-39484447D01*
X76124999Y-39493512D01*
X76125000Y-39493512D01*
X76125001Y-39493512D01*
X76170901Y-39487469D01*
X76262705Y-39475383D01*
X76391026Y-39422231D01*
X76501218Y-39337678D01*
X76585771Y-39227486D01*
X76638923Y-39099165D01*
X76657052Y-38961460D01*
X76638923Y-38823755D01*
X76585771Y-38695434D01*
X76501218Y-38585242D01*
X76391026Y-38500689D01*
X76391025Y-38500688D01*
X76391023Y-38500687D01*
X76262708Y-38447538D01*
X76262703Y-38447536D01*
X76125001Y-38429408D01*
X76124999Y-38429408D01*
X75987296Y-38447536D01*
X75987291Y-38447538D01*
X75858976Y-38500687D01*
X75748782Y-38585242D01*
X75664227Y-38695436D01*
X75611078Y-38823751D01*
X75611076Y-38823756D01*
X75592948Y-38961458D01*
X75592948Y-38961461D01*
X68405130Y-38961461D01*
X68376218Y-38923782D01*
X68266026Y-38839229D01*
X68266025Y-38839228D01*
X68266023Y-38839227D01*
X68137708Y-38786078D01*
X68137703Y-38786076D01*
X68000001Y-38767948D01*
X67999999Y-38767948D01*
X67862296Y-38786076D01*
X67862291Y-38786078D01*
X67733976Y-38839227D01*
X67623782Y-38923782D01*
X67539227Y-39033976D01*
X67486078Y-39162291D01*
X67486076Y-39162296D01*
X67467948Y-39299998D01*
X67467948Y-39300001D01*
X25625000Y-39300001D01*
X25625000Y-37900001D01*
X67467948Y-37900001D01*
X67486076Y-38037703D01*
X67486078Y-38037708D01*
X67539227Y-38166023D01*
X67539228Y-38166025D01*
X67539229Y-38166026D01*
X67623782Y-38276218D01*
X67733974Y-38360771D01*
X67862295Y-38413923D01*
X67931147Y-38422987D01*
X67999999Y-38432052D01*
X68000000Y-38432052D01*
X68000001Y-38432052D01*
X68045901Y-38426009D01*
X68137705Y-38413923D01*
X68266026Y-38360771D01*
X68376218Y-38276218D01*
X68460771Y-38166026D01*
X68513923Y-38037705D01*
X68532052Y-37900000D01*
X68513923Y-37762295D01*
X68460771Y-37633974D01*
X68376218Y-37523782D01*
X68266026Y-37439229D01*
X68266025Y-37439228D01*
X68266023Y-37439227D01*
X68137708Y-37386078D01*
X68137703Y-37386076D01*
X68000001Y-37367948D01*
X67999999Y-37367948D01*
X67862296Y-37386076D01*
X67862291Y-37386078D01*
X67733976Y-37439227D01*
X67623782Y-37523782D01*
X67539227Y-37633976D01*
X67486078Y-37762291D01*
X67486076Y-37762296D01*
X67467948Y-37899998D01*
X67467948Y-37900001D01*
X25625000Y-37900001D01*
X25625000Y-36161461D01*
X28092948Y-36161461D01*
X28111076Y-36299163D01*
X28111078Y-36299168D01*
X28164227Y-36427483D01*
X28164228Y-36427485D01*
X28164229Y-36427486D01*
X28248782Y-36537678D01*
X28358974Y-36622231D01*
X28358975Y-36622231D01*
X28358976Y-36622232D01*
X28387324Y-36633974D01*
X28487295Y-36675383D01*
X28554670Y-36684253D01*
X28624999Y-36693512D01*
X28625000Y-36693512D01*
X28625001Y-36693512D01*
X28695307Y-36684256D01*
X28762705Y-36675383D01*
X28891026Y-36622231D01*
X29001218Y-36537678D01*
X29085771Y-36427486D01*
X29089605Y-36418231D01*
X38786178Y-36418231D01*
X38804306Y-36555933D01*
X38804308Y-36555938D01*
X38857457Y-36684253D01*
X38857458Y-36684255D01*
X38857459Y-36684256D01*
X38942012Y-36794448D01*
X39052204Y-36879001D01*
X39180525Y-36932153D01*
X39232230Y-36938960D01*
X39318229Y-36950282D01*
X39318230Y-36950282D01*
X39318231Y-36950282D01*
X39368309Y-36943689D01*
X39455935Y-36932153D01*
X39584256Y-36879001D01*
X39694448Y-36794448D01*
X39779001Y-36684256D01*
X39832153Y-36555935D01*
X39844681Y-36460771D01*
X39850282Y-36418231D01*
X39850282Y-36418228D01*
X39847366Y-36396079D01*
X39858132Y-36327044D01*
X39904512Y-36274788D01*
X39971781Y-36255903D01*
X40038581Y-36276384D01*
X40068679Y-36304406D01*
X40084264Y-36324717D01*
X40112880Y-36362011D01*
X40123782Y-36376218D01*
X40233974Y-36460771D01*
X40233975Y-36460771D01*
X40233976Y-36460772D01*
X40237957Y-36462421D01*
X40362295Y-36513923D01*
X40414410Y-36520784D01*
X40499999Y-36532052D01*
X40500000Y-36532052D01*
X40500001Y-36532052D01*
X40545901Y-36526009D01*
X40637705Y-36513923D01*
X40766026Y-36460771D01*
X40876218Y-36376218D01*
X40960771Y-36266026D01*
X40996106Y-36180719D01*
X41039944Y-36126319D01*
X41106238Y-36104253D01*
X41173937Y-36121531D01*
X41221548Y-36172668D01*
X41225225Y-36180720D01*
X41239227Y-36214522D01*
X41239229Y-36214526D01*
X41323782Y-36324718D01*
X41433974Y-36409271D01*
X41562295Y-36462423D01*
X41571532Y-36463639D01*
X41699999Y-36480552D01*
X41700000Y-36480552D01*
X41828462Y-36463639D01*
X41897493Y-36474404D01*
X41949749Y-36520784D01*
X41968635Y-36588052D01*
X41967948Y-36597670D01*
X41967948Y-36600001D01*
X41986076Y-36737703D01*
X41986078Y-36737708D01*
X42039227Y-36866023D01*
X42039228Y-36866025D01*
X42039229Y-36866026D01*
X42123782Y-36976218D01*
X42233974Y-37060771D01*
X42362295Y-37113923D01*
X42431147Y-37122987D01*
X42499999Y-37132052D01*
X42500000Y-37132052D01*
X42500001Y-37132052D01*
X42545901Y-37126009D01*
X42637705Y-37113923D01*
X42766026Y-37060771D01*
X42876218Y-36976218D01*
X42934701Y-36900001D01*
X52467948Y-36900001D01*
X52486076Y-37037703D01*
X52486078Y-37037708D01*
X52539227Y-37166023D01*
X52539228Y-37166025D01*
X52539229Y-37166026D01*
X52623782Y-37276218D01*
X52733974Y-37360771D01*
X52733975Y-37360771D01*
X52733976Y-37360772D01*
X52751301Y-37367948D01*
X52862295Y-37413923D01*
X52931147Y-37422987D01*
X52999999Y-37432052D01*
X53000000Y-37432052D01*
X53000001Y-37432052D01*
X53045901Y-37426009D01*
X53137705Y-37413923D01*
X53264360Y-37361461D01*
X75592948Y-37361461D01*
X75611076Y-37499163D01*
X75611078Y-37499168D01*
X75664227Y-37627483D01*
X75664228Y-37627485D01*
X75664229Y-37627486D01*
X75748782Y-37737678D01*
X75858974Y-37822231D01*
X75987295Y-37875383D01*
X76056147Y-37884447D01*
X76124999Y-37893512D01*
X76125000Y-37893512D01*
X76125001Y-37893512D01*
X76170901Y-37887469D01*
X76262705Y-37875383D01*
X76391026Y-37822231D01*
X76501218Y-37737678D01*
X76585771Y-37627486D01*
X76638923Y-37499165D01*
X76657052Y-37361460D01*
X76656961Y-37360772D01*
X76638923Y-37223756D01*
X76638921Y-37223751D01*
X76585772Y-37095436D01*
X76585771Y-37095435D01*
X76585771Y-37095434D01*
X76501218Y-36985242D01*
X76391026Y-36900689D01*
X76391025Y-36900688D01*
X76391023Y-36900687D01*
X76262708Y-36847538D01*
X76262703Y-36847536D01*
X76125001Y-36829408D01*
X76124999Y-36829408D01*
X75987296Y-36847536D01*
X75987291Y-36847538D01*
X75858976Y-36900687D01*
X75748782Y-36985242D01*
X75664227Y-37095436D01*
X75611078Y-37223751D01*
X75611076Y-37223756D01*
X75592948Y-37361458D01*
X75592948Y-37361461D01*
X53264360Y-37361461D01*
X53266026Y-37360771D01*
X53376218Y-37276218D01*
X53460771Y-37166026D01*
X53513923Y-37037705D01*
X53532052Y-36900000D01*
X53529287Y-36879001D01*
X53522049Y-36824018D01*
X58347500Y-36824018D01*
X58354898Y-36861209D01*
X58383077Y-36903382D01*
X58425250Y-36931561D01*
X58425252Y-36931562D01*
X58453205Y-36937122D01*
X58462441Y-36938960D01*
X58462442Y-36938960D01*
X60187559Y-36938960D01*
X60194957Y-36937488D01*
X60224748Y-36931562D01*
X60266922Y-36903382D01*
X60295102Y-36861208D01*
X60302500Y-36824018D01*
X60302500Y-35961460D01*
X60882770Y-35961460D01*
X60901643Y-36153086D01*
X60957538Y-36337344D01*
X61048302Y-36507152D01*
X61048306Y-36507159D01*
X61170458Y-36656001D01*
X61319300Y-36778153D01*
X61319307Y-36778157D01*
X61449108Y-36847537D01*
X61489117Y-36868922D01*
X61673376Y-36924817D01*
X61865000Y-36943690D01*
X62056624Y-36924817D01*
X62240883Y-36868922D01*
X62410698Y-36778154D01*
X62559541Y-36656001D01*
X62681694Y-36507158D01*
X62772462Y-36337343D01*
X62828357Y-36153084D01*
X62847230Y-35961460D01*
X62828357Y-35769836D01*
X62772462Y-35585577D01*
X62765356Y-35572282D01*
X62681697Y-35415767D01*
X62681693Y-35415760D01*
X62559541Y-35266918D01*
X62410699Y-35144766D01*
X62410692Y-35144762D01*
X62240884Y-35053998D01*
X62056626Y-34998103D01*
X61865000Y-34979230D01*
X61673373Y-34998103D01*
X61489115Y-35053998D01*
X61319307Y-35144762D01*
X61319300Y-35144766D01*
X61170458Y-35266918D01*
X61048306Y-35415760D01*
X61048302Y-35415767D01*
X60957538Y-35585575D01*
X60901643Y-35769833D01*
X60882770Y-35961460D01*
X60302500Y-35961460D01*
X60302500Y-35098902D01*
X60295102Y-35061712D01*
X60279043Y-35037678D01*
X60266922Y-35019537D01*
X60224749Y-34991358D01*
X60187559Y-34983960D01*
X60187558Y-34983960D01*
X58462442Y-34983960D01*
X58462441Y-34983960D01*
X58425250Y-34991358D01*
X58383077Y-35019537D01*
X58354898Y-35061710D01*
X58347500Y-35098901D01*
X58347500Y-36824018D01*
X53522049Y-36824018D01*
X53513923Y-36762296D01*
X53513921Y-36762291D01*
X53503737Y-36737705D01*
X53460771Y-36633974D01*
X53376218Y-36523782D01*
X53266026Y-36439229D01*
X53266025Y-36439228D01*
X53266023Y-36439227D01*
X53137708Y-36386078D01*
X53137703Y-36386076D01*
X53000001Y-36367948D01*
X52999999Y-36367948D01*
X52862296Y-36386076D01*
X52862291Y-36386078D01*
X52733976Y-36439227D01*
X52623782Y-36523782D01*
X52539227Y-36633976D01*
X52486078Y-36762291D01*
X52486076Y-36762296D01*
X52467948Y-36899998D01*
X52467948Y-36900001D01*
X42934701Y-36900001D01*
X42960771Y-36866026D01*
X43013923Y-36737705D01*
X43032052Y-36600000D01*
X43031745Y-36597670D01*
X43018777Y-36499163D01*
X43013923Y-36462295D01*
X42972157Y-36361461D01*
X44792948Y-36361461D01*
X44811076Y-36499163D01*
X44811078Y-36499168D01*
X44864227Y-36627483D01*
X44864228Y-36627485D01*
X44864229Y-36627486D01*
X44948782Y-36737678D01*
X45058974Y-36822231D01*
X45187295Y-36875383D01*
X45256147Y-36884447D01*
X45324999Y-36893512D01*
X45325000Y-36893512D01*
X45325001Y-36893512D01*
X45370901Y-36887469D01*
X45462705Y-36875383D01*
X45591026Y-36822231D01*
X45701218Y-36737678D01*
X45785771Y-36627486D01*
X45838923Y-36499165D01*
X45856198Y-36367948D01*
X45857052Y-36361461D01*
X45857052Y-36361458D01*
X45843155Y-36255903D01*
X45838923Y-36223755D01*
X45785771Y-36095434D01*
X45701218Y-35985242D01*
X45591026Y-35900689D01*
X45591025Y-35900688D01*
X45591023Y-35900687D01*
X45462708Y-35847538D01*
X45462703Y-35847536D01*
X45325001Y-35829408D01*
X45324999Y-35829408D01*
X45187296Y-35847536D01*
X45187291Y-35847538D01*
X45058976Y-35900687D01*
X44948782Y-35985242D01*
X44864227Y-36095436D01*
X44811078Y-36223751D01*
X44811076Y-36223756D01*
X44792948Y-36361458D01*
X44792948Y-36361461D01*
X42972157Y-36361461D01*
X42962167Y-36337344D01*
X42960772Y-36333976D01*
X42960771Y-36333975D01*
X42960771Y-36333974D01*
X42876218Y-36223782D01*
X42766026Y-36139229D01*
X42766025Y-36139228D01*
X42766023Y-36139227D01*
X42637708Y-36086078D01*
X42637703Y-36086076D01*
X42500001Y-36067948D01*
X42499999Y-36067948D01*
X42453316Y-36074094D01*
X42371539Y-36084859D01*
X42302505Y-36074094D01*
X42250249Y-36027714D01*
X42231364Y-35960445D01*
X42232052Y-35950824D01*
X42232052Y-35948498D01*
X42219966Y-35856696D01*
X42213923Y-35810795D01*
X42160771Y-35682474D01*
X42076218Y-35572282D01*
X41966026Y-35487729D01*
X41966025Y-35487728D01*
X41966023Y-35487727D01*
X41837708Y-35434578D01*
X41837703Y-35434576D01*
X41700001Y-35416448D01*
X41699999Y-35416448D01*
X41562296Y-35434576D01*
X41562291Y-35434578D01*
X41433976Y-35487727D01*
X41323782Y-35572282D01*
X41239228Y-35682475D01*
X41203895Y-35767778D01*
X41160054Y-35822181D01*
X41093760Y-35844246D01*
X41026061Y-35826967D01*
X40978450Y-35775830D01*
X40974773Y-35767778D01*
X40974659Y-35767504D01*
X40960771Y-35733974D01*
X40876218Y-35623782D01*
X40766026Y-35539229D01*
X40766025Y-35539228D01*
X40766023Y-35539227D01*
X40637708Y-35486078D01*
X40637703Y-35486076D01*
X40500001Y-35467948D01*
X40499999Y-35467948D01*
X40362296Y-35486076D01*
X40362291Y-35486078D01*
X40233976Y-35539227D01*
X40123782Y-35623782D01*
X40039227Y-35733976D01*
X39986078Y-35862291D01*
X39986076Y-35862296D01*
X39967948Y-35999998D01*
X39967948Y-35999999D01*
X39970864Y-36022154D01*
X39960096Y-36091189D01*
X39913714Y-36143443D01*
X39846445Y-36162326D01*
X39779645Y-36141843D01*
X39749550Y-36113823D01*
X39694448Y-36042012D01*
X39584256Y-35957459D01*
X39584255Y-35957458D01*
X39584253Y-35957457D01*
X39455938Y-35904308D01*
X39455933Y-35904306D01*
X39318231Y-35886178D01*
X39318229Y-35886178D01*
X39180526Y-35904306D01*
X39180521Y-35904308D01*
X39052203Y-35957458D01*
X38959615Y-36028504D01*
X38951614Y-36031596D01*
X38946785Y-36037238D01*
X38942018Y-36042005D01*
X38942013Y-36042010D01*
X38942012Y-36042012D01*
X38894253Y-36104253D01*
X38857457Y-36152206D01*
X38804308Y-36280521D01*
X38804306Y-36280526D01*
X38786178Y-36418228D01*
X38786178Y-36418231D01*
X29089605Y-36418231D01*
X29138923Y-36299165D01*
X29154516Y-36180720D01*
X29157052Y-36161461D01*
X29157052Y-36161458D01*
X29141327Y-36042013D01*
X29138923Y-36023755D01*
X29085771Y-35895434D01*
X29001218Y-35785242D01*
X28891026Y-35700689D01*
X28891025Y-35700688D01*
X28891023Y-35700687D01*
X28762708Y-35647538D01*
X28762703Y-35647536D01*
X28625001Y-35629408D01*
X28624999Y-35629408D01*
X28487296Y-35647536D01*
X28487291Y-35647538D01*
X28358976Y-35700687D01*
X28248782Y-35785242D01*
X28164227Y-35895436D01*
X28111078Y-36023751D01*
X28111076Y-36023756D01*
X28092948Y-36161458D01*
X28092948Y-36161461D01*
X25625000Y-36161461D01*
X25625000Y-34661461D01*
X30392948Y-34661461D01*
X30411076Y-34799163D01*
X30411078Y-34799168D01*
X30464227Y-34927483D01*
X30464228Y-34927485D01*
X30464229Y-34927486D01*
X30548782Y-35037678D01*
X30658974Y-35122231D01*
X30787295Y-35175383D01*
X30856147Y-35184447D01*
X30924999Y-35193512D01*
X30925000Y-35193512D01*
X30925001Y-35193512D01*
X30970901Y-35187469D01*
X31062705Y-35175383D01*
X31191026Y-35122231D01*
X31301218Y-35037678D01*
X31385771Y-34927486D01*
X31438923Y-34799165D01*
X31457052Y-34661460D01*
X31438923Y-34523755D01*
X31385771Y-34395434D01*
X31312543Y-34300001D01*
X37867948Y-34300001D01*
X37886076Y-34437703D01*
X37886078Y-34437708D01*
X37939227Y-34566023D01*
X37939228Y-34566025D01*
X37939229Y-34566026D01*
X38023782Y-34676218D01*
X38133974Y-34760771D01*
X38159506Y-34771346D01*
X38213908Y-34815185D01*
X38235974Y-34881479D01*
X38218696Y-34949179D01*
X38167559Y-34996790D01*
X38159515Y-35000464D01*
X38158977Y-35000686D01*
X38048782Y-35085242D01*
X37964227Y-35195436D01*
X37911078Y-35323751D01*
X37911076Y-35323756D01*
X37892948Y-35461458D01*
X37892948Y-35461461D01*
X37911076Y-35599163D01*
X37911078Y-35599168D01*
X37964227Y-35727483D01*
X37964228Y-35727485D01*
X37964229Y-35727486D01*
X38048782Y-35837678D01*
X38158974Y-35922231D01*
X38287295Y-35975383D01*
X38356147Y-35984447D01*
X38424999Y-35993512D01*
X38425000Y-35993512D01*
X38425001Y-35993512D01*
X38470901Y-35987469D01*
X38562705Y-35975383D01*
X38691026Y-35922231D01*
X38783614Y-35851185D01*
X38791615Y-35848092D01*
X38796452Y-35842443D01*
X38801215Y-35837680D01*
X38801214Y-35837680D01*
X38801218Y-35837678D01*
X38885771Y-35727486D01*
X38938923Y-35599165D01*
X38957052Y-35461460D01*
X38951036Y-35415767D01*
X38938923Y-35323756D01*
X38938921Y-35323751D01*
X38885772Y-35195436D01*
X38885771Y-35195435D01*
X38885771Y-35195434D01*
X38801218Y-35085242D01*
X38691026Y-35000689D01*
X38665492Y-34990112D01*
X38611090Y-34946272D01*
X38589025Y-34879978D01*
X38606304Y-34812279D01*
X38657441Y-34764668D01*
X38665477Y-34760998D01*
X38666026Y-34760771D01*
X38776218Y-34676218D01*
X38860771Y-34566026D01*
X38904083Y-34461460D01*
X52910419Y-34461460D01*
X52928277Y-34608537D01*
X52928278Y-34608539D01*
X52980817Y-34747072D01*
X53025826Y-34812279D01*
X53064980Y-34869003D01*
X53064982Y-34869005D01*
X53064984Y-34869007D01*
X53175876Y-34967249D01*
X53175878Y-34967250D01*
X53307067Y-35036103D01*
X53378993Y-35053831D01*
X53450919Y-35071560D01*
X53450920Y-35071560D01*
X53599081Y-35071560D01*
X53670331Y-35053998D01*
X53742933Y-35036103D01*
X53874122Y-34967250D01*
X53985020Y-34869003D01*
X54069184Y-34747070D01*
X54121722Y-34608539D01*
X54139581Y-34461460D01*
X54121722Y-34314381D01*
X54069184Y-34175850D01*
X53985020Y-34053917D01*
X53985017Y-34053914D01*
X53985015Y-34053912D01*
X53874123Y-33955670D01*
X53742931Y-33886816D01*
X53599081Y-33851360D01*
X53599080Y-33851360D01*
X53450920Y-33851360D01*
X53450919Y-33851360D01*
X53307068Y-33886816D01*
X53175876Y-33955670D01*
X53064984Y-34053912D01*
X53064978Y-34053919D01*
X52980817Y-34175847D01*
X52928278Y-34314380D01*
X52928277Y-34314382D01*
X52910419Y-34461460D01*
X38904083Y-34461460D01*
X38913923Y-34437705D01*
X38932052Y-34300000D01*
X38913923Y-34162295D01*
X38878488Y-34076747D01*
X38860772Y-34033976D01*
X38860771Y-34033975D01*
X38860771Y-34033974D01*
X38776218Y-33923782D01*
X38666026Y-33839229D01*
X38666025Y-33839228D01*
X38666023Y-33839227D01*
X38537708Y-33786078D01*
X38537703Y-33786076D01*
X38400001Y-33767948D01*
X38399999Y-33767948D01*
X38262296Y-33786076D01*
X38262291Y-33786078D01*
X38133976Y-33839227D01*
X38023782Y-33923782D01*
X37939227Y-34033976D01*
X37886078Y-34162291D01*
X37886076Y-34162296D01*
X37867948Y-34299998D01*
X37867948Y-34300001D01*
X31312543Y-34300001D01*
X31301218Y-34285242D01*
X31191026Y-34200689D01*
X31191025Y-34200688D01*
X31191023Y-34200687D01*
X31062708Y-34147538D01*
X31062703Y-34147536D01*
X30925001Y-34129408D01*
X30924999Y-34129408D01*
X30787296Y-34147536D01*
X30787291Y-34147538D01*
X30658976Y-34200687D01*
X30548782Y-34285242D01*
X30464227Y-34395436D01*
X30411078Y-34523751D01*
X30411076Y-34523756D01*
X30392948Y-34661458D01*
X30392948Y-34661461D01*
X25625000Y-34661461D01*
X25625000Y-33461461D01*
X34644448Y-33461461D01*
X34662576Y-33599163D01*
X34662578Y-33599168D01*
X34715727Y-33727483D01*
X34715728Y-33727485D01*
X34715729Y-33727486D01*
X34800282Y-33837678D01*
X34910474Y-33922231D01*
X35038795Y-33975383D01*
X35107647Y-33984447D01*
X35176499Y-33993512D01*
X35176500Y-33993512D01*
X35176501Y-33993512D01*
X35224764Y-33987158D01*
X35314205Y-33975383D01*
X35442526Y-33922231D01*
X35552718Y-33837678D01*
X35637271Y-33727486D01*
X35690423Y-33599165D01*
X35708552Y-33461460D01*
X35705919Y-33441460D01*
X64677770Y-33441460D01*
X64696643Y-33633086D01*
X64752538Y-33817344D01*
X64843302Y-33987152D01*
X64843306Y-33987159D01*
X64965458Y-34136001D01*
X65114300Y-34258153D01*
X65114307Y-34258157D01*
X65192590Y-34300000D01*
X65284117Y-34348922D01*
X65468376Y-34404817D01*
X65660000Y-34423690D01*
X65851624Y-34404817D01*
X66035883Y-34348922D01*
X66205698Y-34258154D01*
X66354541Y-34136001D01*
X66476694Y-33987158D01*
X66567462Y-33817343D01*
X66623357Y-33633084D01*
X66642230Y-33441460D01*
X67217770Y-33441460D01*
X67236643Y-33633086D01*
X67292538Y-33817344D01*
X67383302Y-33987152D01*
X67383306Y-33987159D01*
X67505458Y-34136001D01*
X67654300Y-34258153D01*
X67654307Y-34258157D01*
X67732590Y-34300000D01*
X67824117Y-34348922D01*
X68008376Y-34404817D01*
X68200000Y-34423690D01*
X68391624Y-34404817D01*
X68575883Y-34348922D01*
X68745698Y-34258154D01*
X68894541Y-34136001D01*
X69016694Y-33987158D01*
X69107462Y-33817343D01*
X69163357Y-33633084D01*
X69182230Y-33441460D01*
X69163357Y-33249836D01*
X69107462Y-33065577D01*
X69044369Y-32947538D01*
X69016697Y-32895767D01*
X69016693Y-32895760D01*
X68894541Y-32746918D01*
X68745699Y-32624766D01*
X68745692Y-32624762D01*
X68575884Y-32533998D01*
X68391626Y-32478103D01*
X68200000Y-32459230D01*
X68008373Y-32478103D01*
X67824115Y-32533998D01*
X67654307Y-32624762D01*
X67654300Y-32624766D01*
X67505458Y-32746918D01*
X67383306Y-32895760D01*
X67383302Y-32895767D01*
X67292538Y-33065575D01*
X67236643Y-33249833D01*
X67217770Y-33441460D01*
X66642230Y-33441460D01*
X66623357Y-33249836D01*
X66567462Y-33065577D01*
X66504369Y-32947538D01*
X66476697Y-32895767D01*
X66476693Y-32895760D01*
X66354541Y-32746918D01*
X66205699Y-32624766D01*
X66205692Y-32624762D01*
X66035884Y-32533998D01*
X65851626Y-32478103D01*
X65660000Y-32459230D01*
X65468373Y-32478103D01*
X65284115Y-32533998D01*
X65114307Y-32624762D01*
X65114300Y-32624766D01*
X64965458Y-32746918D01*
X64843306Y-32895760D01*
X64843302Y-32895767D01*
X64752538Y-33065575D01*
X64696643Y-33249833D01*
X64677770Y-33441460D01*
X35705919Y-33441460D01*
X35690423Y-33323755D01*
X35637271Y-33195434D01*
X35552718Y-33085242D01*
X35442526Y-33000689D01*
X35442525Y-33000688D01*
X35442523Y-33000687D01*
X35314208Y-32947538D01*
X35314203Y-32947536D01*
X35176501Y-32929408D01*
X35176499Y-32929408D01*
X35038796Y-32947536D01*
X35038791Y-32947538D01*
X34910476Y-33000687D01*
X34800282Y-33085242D01*
X34715727Y-33195436D01*
X34662578Y-33323751D01*
X34662576Y-33323756D01*
X34644448Y-33461458D01*
X34644448Y-33461461D01*
X25625000Y-33461461D01*
X25625000Y-31859961D01*
X49416448Y-31859961D01*
X49434576Y-31997663D01*
X49434578Y-31997668D01*
X49487727Y-32125983D01*
X49487728Y-32125985D01*
X49487729Y-32125986D01*
X49572282Y-32236178D01*
X49682474Y-32320731D01*
X49810795Y-32373883D01*
X49879647Y-32382947D01*
X49948499Y-32392012D01*
X49948500Y-32392012D01*
X49948501Y-32392012D01*
X49994401Y-32385969D01*
X50086205Y-32373883D01*
X50214526Y-32320731D01*
X50324718Y-32236178D01*
X50409271Y-32125986D01*
X50462423Y-31997665D01*
X50480552Y-31859960D01*
X50462423Y-31722255D01*
X50455253Y-31704946D01*
X50447785Y-31635481D01*
X50479059Y-31573001D01*
X50522361Y-31542935D01*
X50636238Y-31495767D01*
X50746430Y-31411214D01*
X50830983Y-31301022D01*
X50884135Y-31172701D01*
X50902264Y-31034996D01*
X50884684Y-30901460D01*
X64677770Y-30901460D01*
X64696643Y-31093086D01*
X64752538Y-31277344D01*
X64843302Y-31447152D01*
X64843306Y-31447159D01*
X64965458Y-31596001D01*
X65114300Y-31718153D01*
X65114307Y-31718157D01*
X65121974Y-31722255D01*
X65284117Y-31808922D01*
X65468376Y-31864817D01*
X65660000Y-31883690D01*
X65851624Y-31864817D01*
X66035883Y-31808922D01*
X66205698Y-31718154D01*
X66354541Y-31596001D01*
X66476694Y-31447158D01*
X66567462Y-31277343D01*
X66623357Y-31093084D01*
X66642230Y-30901460D01*
X67217770Y-30901460D01*
X67236643Y-31093086D01*
X67292538Y-31277344D01*
X67383302Y-31447152D01*
X67383306Y-31447159D01*
X67505458Y-31596001D01*
X67654300Y-31718153D01*
X67654307Y-31718157D01*
X67661974Y-31722255D01*
X67824117Y-31808922D01*
X68008376Y-31864817D01*
X68200000Y-31883690D01*
X68391624Y-31864817D01*
X68575883Y-31808922D01*
X68745698Y-31718154D01*
X68894541Y-31596001D01*
X69016694Y-31447158D01*
X69107462Y-31277343D01*
X69163357Y-31093084D01*
X69182230Y-30901460D01*
X69163357Y-30709836D01*
X69107462Y-30525577D01*
X69101232Y-30513921D01*
X69016697Y-30355767D01*
X69016693Y-30355760D01*
X68894541Y-30206918D01*
X68745699Y-30084766D01*
X68745692Y-30084762D01*
X68575884Y-29993998D01*
X68391626Y-29938103D01*
X68200000Y-29919230D01*
X68008373Y-29938103D01*
X67824115Y-29993998D01*
X67654307Y-30084762D01*
X67654300Y-30084766D01*
X67505458Y-30206918D01*
X67383306Y-30355760D01*
X67383302Y-30355767D01*
X67292538Y-30525575D01*
X67236643Y-30709833D01*
X67217770Y-30901460D01*
X66642230Y-30901460D01*
X66623357Y-30709836D01*
X66567462Y-30525577D01*
X66561232Y-30513921D01*
X66476697Y-30355767D01*
X66476693Y-30355760D01*
X66354541Y-30206918D01*
X66205699Y-30084766D01*
X66205692Y-30084762D01*
X66035884Y-29993998D01*
X65851626Y-29938103D01*
X65660000Y-29919230D01*
X65468373Y-29938103D01*
X65284115Y-29993998D01*
X65114307Y-30084762D01*
X65114300Y-30084766D01*
X64965458Y-30206918D01*
X64843306Y-30355760D01*
X64843302Y-30355767D01*
X64752538Y-30525575D01*
X64696643Y-30709833D01*
X64677770Y-30901460D01*
X50884684Y-30901460D01*
X50884135Y-30897291D01*
X50830983Y-30768970D01*
X50830983Y-30768969D01*
X50802261Y-30731538D01*
X50777067Y-30666369D01*
X50791106Y-30597924D01*
X50839920Y-30547934D01*
X50892096Y-30534285D01*
X50891942Y-30533113D01*
X50974591Y-30522232D01*
X51037705Y-30513923D01*
X51166026Y-30460771D01*
X51276218Y-30376218D01*
X51360771Y-30266026D01*
X51413923Y-30137705D01*
X51426009Y-30045901D01*
X51432052Y-30000001D01*
X51432052Y-29999998D01*
X51414552Y-29867071D01*
X51413923Y-29862295D01*
X51360771Y-29733974D01*
X51276218Y-29623782D01*
X51221061Y-29581459D01*
X52910419Y-29581459D01*
X52928277Y-29728536D01*
X52928278Y-29728538D01*
X52979005Y-29862295D01*
X52980817Y-29867071D01*
X53027457Y-29934640D01*
X53064980Y-29989002D01*
X53064982Y-29989004D01*
X53064984Y-29989006D01*
X53175876Y-30087248D01*
X53175878Y-30087249D01*
X53307067Y-30156102D01*
X53378993Y-30173830D01*
X53450919Y-30191559D01*
X53450920Y-30191559D01*
X53599081Y-30191559D01*
X53647031Y-30179740D01*
X53742933Y-30156102D01*
X53874122Y-30087249D01*
X53985020Y-29989002D01*
X54069184Y-29867069D01*
X54121722Y-29728538D01*
X54139581Y-29581459D01*
X54121722Y-29434380D01*
X54069184Y-29295849D01*
X53985020Y-29173916D01*
X53985017Y-29173913D01*
X53985015Y-29173911D01*
X53874123Y-29075669D01*
X53742931Y-29006815D01*
X53599081Y-28971359D01*
X53599080Y-28971359D01*
X53450920Y-28971359D01*
X53450919Y-28971359D01*
X53307068Y-29006815D01*
X53175876Y-29075669D01*
X53064984Y-29173911D01*
X53064978Y-29173918D01*
X52980817Y-29295846D01*
X52928278Y-29434379D01*
X52928277Y-29434381D01*
X52910419Y-29581459D01*
X51221061Y-29581459D01*
X51166026Y-29539229D01*
X51166025Y-29539228D01*
X51166023Y-29539227D01*
X51037708Y-29486078D01*
X51037703Y-29486076D01*
X50900001Y-29467948D01*
X50899999Y-29467948D01*
X50762296Y-29486076D01*
X50762291Y-29486078D01*
X50633976Y-29539227D01*
X50523782Y-29623782D01*
X50439227Y-29733976D01*
X50386078Y-29862291D01*
X50386076Y-29862296D01*
X50367948Y-29999998D01*
X50367948Y-30000001D01*
X50386076Y-30137703D01*
X50386078Y-30137708D01*
X50439228Y-30266026D01*
X50467951Y-30303458D01*
X50493145Y-30368627D01*
X50479106Y-30437072D01*
X50430292Y-30487062D01*
X50378115Y-30500710D01*
X50378270Y-30501883D01*
X50232508Y-30521072D01*
X50232503Y-30521074D01*
X50104188Y-30574223D01*
X49993994Y-30658778D01*
X49909439Y-30768972D01*
X49856290Y-30897287D01*
X49856288Y-30897292D01*
X49838160Y-31034994D01*
X49838160Y-31034997D01*
X49856288Y-31172698D01*
X49856288Y-31172700D01*
X49856289Y-31172701D01*
X49863458Y-31190009D01*
X49870926Y-31259477D01*
X49839650Y-31321956D01*
X49796349Y-31352020D01*
X49682475Y-31399188D01*
X49572282Y-31483742D01*
X49487727Y-31593936D01*
X49434578Y-31722251D01*
X49434576Y-31722256D01*
X49416448Y-31859958D01*
X49416448Y-31859961D01*
X25625000Y-31859961D01*
X25625000Y-31200001D01*
X28167948Y-31200001D01*
X28186076Y-31337703D01*
X28186078Y-31337708D01*
X28239227Y-31466023D01*
X28239228Y-31466025D01*
X28239229Y-31466026D01*
X28323782Y-31576218D01*
X28433974Y-31660771D01*
X28562295Y-31713923D01*
X28594456Y-31718157D01*
X28699999Y-31732052D01*
X28700000Y-31732052D01*
X28700001Y-31732052D01*
X28774401Y-31722257D01*
X28837705Y-31713923D01*
X28966026Y-31660771D01*
X29076218Y-31576218D01*
X29160771Y-31466026D01*
X29213923Y-31337705D01*
X29232052Y-31200000D01*
X29230736Y-31190007D01*
X29218887Y-31100001D01*
X46067948Y-31100001D01*
X46086076Y-31237703D01*
X46086078Y-31237708D01*
X46139227Y-31366023D01*
X46139228Y-31366025D01*
X46139229Y-31366026D01*
X46223782Y-31476218D01*
X46333974Y-31560771D01*
X46462295Y-31613923D01*
X46531147Y-31622987D01*
X46599999Y-31632052D01*
X46600000Y-31632052D01*
X46600001Y-31632052D01*
X46645901Y-31626009D01*
X46737705Y-31613923D01*
X46866026Y-31560771D01*
X46976218Y-31476218D01*
X47060771Y-31366026D01*
X47113923Y-31237705D01*
X47132052Y-31100000D01*
X47113923Y-30962295D01*
X47060771Y-30833974D01*
X46976218Y-30723782D01*
X46866026Y-30639229D01*
X46866025Y-30639228D01*
X46866023Y-30639227D01*
X46737708Y-30586078D01*
X46737703Y-30586076D01*
X46600001Y-30567948D01*
X46599999Y-30567948D01*
X46462296Y-30586076D01*
X46462291Y-30586078D01*
X46333976Y-30639227D01*
X46223782Y-30723782D01*
X46139227Y-30833976D01*
X46086078Y-30962291D01*
X46086076Y-30962296D01*
X46067948Y-31099998D01*
X46067948Y-31100001D01*
X29218887Y-31100001D01*
X29213923Y-31062296D01*
X29213921Y-31062291D01*
X29202614Y-31034994D01*
X29160771Y-30933974D01*
X29076218Y-30823782D01*
X28966026Y-30739229D01*
X28966025Y-30739228D01*
X28966023Y-30739227D01*
X28837708Y-30686078D01*
X28837703Y-30686076D01*
X28700001Y-30667948D01*
X28699999Y-30667948D01*
X28562296Y-30686076D01*
X28562291Y-30686078D01*
X28433976Y-30739227D01*
X28323782Y-30823782D01*
X28239227Y-30933976D01*
X28186078Y-31062291D01*
X28186076Y-31062296D01*
X28167948Y-31199998D01*
X28167948Y-31200001D01*
X25625000Y-31200001D01*
X25625000Y-30161461D01*
X31892948Y-30161461D01*
X31911076Y-30299163D01*
X31911078Y-30299168D01*
X31964227Y-30427483D01*
X31964228Y-30427485D01*
X31964229Y-30427486D01*
X32048782Y-30537678D01*
X32158974Y-30622231D01*
X32287295Y-30675383D01*
X32356147Y-30684447D01*
X32424999Y-30693512D01*
X32425000Y-30693512D01*
X32425001Y-30693512D01*
X32481475Y-30686077D01*
X32562705Y-30675383D01*
X32691026Y-30622231D01*
X32801218Y-30537678D01*
X32885771Y-30427486D01*
X32918915Y-30347467D01*
X32962755Y-30293064D01*
X33029049Y-30270999D01*
X33096749Y-30288278D01*
X33130696Y-30322633D01*
X33132778Y-30321037D01*
X33137725Y-30327484D01*
X33137726Y-30327486D01*
X33222279Y-30437678D01*
X33332471Y-30522231D01*
X33332472Y-30522231D01*
X33332473Y-30522232D01*
X33361572Y-30534285D01*
X33460792Y-30575383D01*
X33529644Y-30584447D01*
X33598496Y-30593512D01*
X33598497Y-30593512D01*
X33598498Y-30593512D01*
X33654972Y-30586077D01*
X33736202Y-30575383D01*
X33864523Y-30522231D01*
X33974715Y-30437678D01*
X33974717Y-30437675D01*
X33981162Y-30432730D01*
X33982093Y-30433944D01*
X34035378Y-30404842D01*
X34105070Y-30409820D01*
X34141802Y-30433424D01*
X34142335Y-30432730D01*
X34148780Y-30437675D01*
X34148782Y-30437678D01*
X34258974Y-30522231D01*
X34258975Y-30522231D01*
X34258976Y-30522232D01*
X34288075Y-30534285D01*
X34387295Y-30575383D01*
X34456147Y-30584447D01*
X34524999Y-30593512D01*
X34525000Y-30593512D01*
X34525001Y-30593512D01*
X34581475Y-30586077D01*
X34662705Y-30575383D01*
X34791026Y-30522231D01*
X34901218Y-30437678D01*
X34985771Y-30327486D01*
X35038923Y-30199165D01*
X35057052Y-30061460D01*
X35048960Y-29999998D01*
X35038923Y-29923756D01*
X35038921Y-29923751D01*
X35037048Y-29919230D01*
X34985771Y-29795434D01*
X34901218Y-29685242D01*
X34791026Y-29600689D01*
X34791025Y-29600688D01*
X34791023Y-29600687D01*
X34662708Y-29547538D01*
X34662703Y-29547536D01*
X34525001Y-29529408D01*
X34524999Y-29529408D01*
X34387296Y-29547536D01*
X34387291Y-29547538D01*
X34258976Y-29600687D01*
X34223395Y-29627988D01*
X34148782Y-29685242D01*
X34148780Y-29685244D01*
X34142335Y-29690190D01*
X34141405Y-29688978D01*
X34088094Y-29718082D01*
X34018403Y-29713091D01*
X33981694Y-29689496D01*
X33981162Y-29690190D01*
X33974716Y-29685244D01*
X33974715Y-29685242D01*
X33864523Y-29600689D01*
X33864522Y-29600688D01*
X33864520Y-29600687D01*
X33736205Y-29547538D01*
X33736200Y-29547536D01*
X33598498Y-29529408D01*
X33598496Y-29529408D01*
X33460793Y-29547536D01*
X33460788Y-29547538D01*
X33332473Y-29600687D01*
X33222279Y-29685242D01*
X33137725Y-29795435D01*
X33104581Y-29875452D01*
X33060739Y-29929856D01*
X32994445Y-29951920D01*
X32926746Y-29934640D01*
X32892803Y-29900283D01*
X32890719Y-29901883D01*
X32885771Y-29895435D01*
X32885771Y-29895434D01*
X32801218Y-29785242D01*
X32691026Y-29700689D01*
X32691025Y-29700688D01*
X32691023Y-29700687D01*
X32562708Y-29647538D01*
X32562703Y-29647536D01*
X32425001Y-29629408D01*
X32424999Y-29629408D01*
X32287296Y-29647536D01*
X32287291Y-29647538D01*
X32158976Y-29700687D01*
X32048782Y-29785242D01*
X31964227Y-29895436D01*
X31911078Y-30023751D01*
X31911076Y-30023756D01*
X31892948Y-30161458D01*
X31892948Y-30161461D01*
X25625000Y-30161461D01*
X25625000Y-28061461D01*
X39492948Y-28061461D01*
X39511076Y-28199163D01*
X39511078Y-28199168D01*
X39564227Y-28327483D01*
X39564228Y-28327485D01*
X39564229Y-28327486D01*
X39648782Y-28437678D01*
X39758974Y-28522231D01*
X39887295Y-28575383D01*
X39956147Y-28584447D01*
X40024999Y-28593512D01*
X40025000Y-28593512D01*
X40025001Y-28593512D01*
X40070901Y-28587469D01*
X40162705Y-28575383D01*
X40291026Y-28522231D01*
X40401218Y-28437678D01*
X40485771Y-28327486D01*
X40538923Y-28199165D01*
X40543887Y-28161461D01*
X45392948Y-28161461D01*
X45411076Y-28299163D01*
X45411078Y-28299168D01*
X45464227Y-28427483D01*
X45464228Y-28427485D01*
X45464229Y-28427486D01*
X45548782Y-28537678D01*
X45658974Y-28622231D01*
X45787295Y-28675383D01*
X45856147Y-28684447D01*
X45924999Y-28693512D01*
X45925000Y-28693512D01*
X45925001Y-28693512D01*
X45970901Y-28687469D01*
X46062705Y-28675383D01*
X46191026Y-28622231D01*
X46301218Y-28537678D01*
X46330128Y-28500001D01*
X50646586Y-28500001D01*
X50664714Y-28637703D01*
X50664716Y-28637708D01*
X50717865Y-28766023D01*
X50717866Y-28766025D01*
X50717867Y-28766026D01*
X50802420Y-28876218D01*
X50912612Y-28960771D01*
X51040933Y-29013923D01*
X51109785Y-29022987D01*
X51178637Y-29032052D01*
X51178638Y-29032052D01*
X51178639Y-29032052D01*
X51224539Y-29026009D01*
X51316343Y-29013923D01*
X51444664Y-28960771D01*
X51554856Y-28876218D01*
X51639409Y-28766026D01*
X51692561Y-28637705D01*
X51710690Y-28500000D01*
X51701143Y-28427486D01*
X51692561Y-28362296D01*
X51692559Y-28362291D01*
X51692215Y-28361460D01*
X64677770Y-28361460D01*
X64696643Y-28553086D01*
X64752538Y-28737344D01*
X64843302Y-28907152D01*
X64843306Y-28907159D01*
X64965458Y-29056001D01*
X65114300Y-29178153D01*
X65114307Y-29178157D01*
X65284115Y-29268921D01*
X65284117Y-29268922D01*
X65468376Y-29324817D01*
X65660000Y-29343690D01*
X65851624Y-29324817D01*
X66035883Y-29268922D01*
X66205698Y-29178154D01*
X66354541Y-29056001D01*
X66476694Y-28907158D01*
X66567462Y-28737343D01*
X66623357Y-28553084D01*
X66642230Y-28361460D01*
X67217770Y-28361460D01*
X67236643Y-28553086D01*
X67292538Y-28737344D01*
X67383302Y-28907152D01*
X67383306Y-28907159D01*
X67505458Y-29056001D01*
X67654300Y-29178153D01*
X67654307Y-29178157D01*
X67824115Y-29268921D01*
X67824117Y-29268922D01*
X68008376Y-29324817D01*
X68200000Y-29343690D01*
X68391624Y-29324817D01*
X68575883Y-29268922D01*
X68745698Y-29178154D01*
X68894541Y-29056001D01*
X69016694Y-28907158D01*
X69107462Y-28737343D01*
X69163357Y-28553084D01*
X69182230Y-28361460D01*
X69163357Y-28169836D01*
X69107462Y-27985577D01*
X69096077Y-27964277D01*
X69016697Y-27815767D01*
X69016693Y-27815760D01*
X68894541Y-27666918D01*
X68745699Y-27544766D01*
X68745692Y-27544762D01*
X68575884Y-27453998D01*
X68391626Y-27398103D01*
X68200000Y-27379230D01*
X68008373Y-27398103D01*
X67824115Y-27453998D01*
X67654307Y-27544762D01*
X67654300Y-27544766D01*
X67505458Y-27666918D01*
X67383306Y-27815760D01*
X67383302Y-27815767D01*
X67292538Y-27985575D01*
X67236643Y-28169833D01*
X67217770Y-28361460D01*
X66642230Y-28361460D01*
X66623357Y-28169836D01*
X66567462Y-27985577D01*
X66556077Y-27964277D01*
X66476697Y-27815767D01*
X66476693Y-27815760D01*
X66354541Y-27666918D01*
X66205699Y-27544766D01*
X66205692Y-27544762D01*
X66035884Y-27453998D01*
X65851626Y-27398103D01*
X65660000Y-27379230D01*
X65468373Y-27398103D01*
X65284115Y-27453998D01*
X65114307Y-27544762D01*
X65114300Y-27544766D01*
X64965458Y-27666918D01*
X64843306Y-27815760D01*
X64843302Y-27815767D01*
X64752538Y-27985575D01*
X64696643Y-28169833D01*
X64677770Y-28361460D01*
X51692215Y-28361460D01*
X51639410Y-28233976D01*
X51639409Y-28233975D01*
X51639409Y-28233974D01*
X51554856Y-28123782D01*
X51554853Y-28123779D01*
X51554851Y-28123777D01*
X51552583Y-28121509D01*
X51551280Y-28119123D01*
X51549908Y-28117335D01*
X51550186Y-28117120D01*
X51519098Y-28060186D01*
X51524082Y-27990494D01*
X51565954Y-27934561D01*
X51608182Y-27914050D01*
X51612981Y-27912763D01*
X51612995Y-27912762D01*
X51741316Y-27859610D01*
X51851508Y-27775057D01*
X51936061Y-27664865D01*
X51989213Y-27536544D01*
X52007342Y-27398839D01*
X52004760Y-27379230D01*
X51989213Y-27261135D01*
X51989211Y-27261130D01*
X51936061Y-27132812D01*
X51931997Y-27125773D01*
X51934513Y-27124320D01*
X51914367Y-27072199D01*
X51928410Y-27003755D01*
X51962452Y-26963513D01*
X51966024Y-26960771D01*
X51966026Y-26960771D01*
X52076218Y-26876218D01*
X52160771Y-26766026D01*
X52213923Y-26637705D01*
X52227312Y-26536001D01*
X52232052Y-26500001D01*
X52232052Y-26499998D01*
X52213923Y-26362296D01*
X52213921Y-26362291D01*
X52160772Y-26233976D01*
X52160771Y-26233975D01*
X52160771Y-26233974D01*
X52076218Y-26123782D01*
X51966026Y-26039229D01*
X51966025Y-26039228D01*
X51966023Y-26039227D01*
X51837708Y-25986078D01*
X51837703Y-25986076D01*
X51700001Y-25967948D01*
X51699999Y-25967948D01*
X51562296Y-25986076D01*
X51562291Y-25986078D01*
X51433976Y-26039227D01*
X51323782Y-26123782D01*
X51239227Y-26233976D01*
X51186078Y-26362291D01*
X51186076Y-26362296D01*
X51167948Y-26499998D01*
X51167948Y-26500001D01*
X51186076Y-26637703D01*
X51186078Y-26637708D01*
X51239228Y-26766026D01*
X51243293Y-26773066D01*
X51240777Y-26774518D01*
X51260922Y-26826649D01*
X51246875Y-26895092D01*
X51212838Y-26935324D01*
X51099074Y-27022619D01*
X51014517Y-27132815D01*
X50961368Y-27261130D01*
X50961366Y-27261135D01*
X50943238Y-27398837D01*
X50943238Y-27398840D01*
X50961366Y-27536542D01*
X50961368Y-27536547D01*
X51014517Y-27664862D01*
X51014518Y-27664864D01*
X51014519Y-27664865D01*
X51099072Y-27775057D01*
X51099074Y-27775058D01*
X51099076Y-27775061D01*
X51101344Y-27777329D01*
X51102645Y-27779713D01*
X51104020Y-27781504D01*
X51103740Y-27781718D01*
X51134829Y-27838652D01*
X51129845Y-27908344D01*
X51087973Y-27964277D01*
X51045757Y-27984785D01*
X51040928Y-27986078D01*
X50912614Y-28039227D01*
X50802420Y-28123782D01*
X50717865Y-28233976D01*
X50664716Y-28362291D01*
X50664714Y-28362296D01*
X50646586Y-28499998D01*
X50646586Y-28500001D01*
X46330128Y-28500001D01*
X46385771Y-28427486D01*
X46438923Y-28299165D01*
X46457052Y-28161460D01*
X46451792Y-28121509D01*
X46438923Y-28023756D01*
X46438921Y-28023751D01*
X46414286Y-27964277D01*
X46393482Y-27914050D01*
X46385772Y-27895436D01*
X46385771Y-27895435D01*
X46385771Y-27895434D01*
X46301218Y-27785242D01*
X46191026Y-27700689D01*
X46191025Y-27700688D01*
X46191023Y-27700687D01*
X46062708Y-27647538D01*
X46062703Y-27647536D01*
X45925001Y-27629408D01*
X45924999Y-27629408D01*
X45787296Y-27647536D01*
X45787291Y-27647538D01*
X45658976Y-27700687D01*
X45548782Y-27785242D01*
X45464227Y-27895436D01*
X45411078Y-28023751D01*
X45411076Y-28023756D01*
X45392948Y-28161458D01*
X45392948Y-28161461D01*
X40543887Y-28161461D01*
X40557052Y-28061460D01*
X40556884Y-28060186D01*
X40538923Y-27923756D01*
X40538921Y-27923751D01*
X40534369Y-27912762D01*
X40485771Y-27795434D01*
X40401218Y-27685242D01*
X40291026Y-27600689D01*
X40291025Y-27600688D01*
X40291023Y-27600687D01*
X40162708Y-27547538D01*
X40162703Y-27547536D01*
X40025001Y-27529408D01*
X40024999Y-27529408D01*
X39887296Y-27547536D01*
X39887291Y-27547538D01*
X39758976Y-27600687D01*
X39648782Y-27685242D01*
X39564227Y-27795436D01*
X39511078Y-27923751D01*
X39511076Y-27923756D01*
X39492948Y-28061458D01*
X39492948Y-28061461D01*
X25625000Y-28061461D01*
X25625000Y-25500001D01*
X55567948Y-25500001D01*
X55586076Y-25637703D01*
X55586078Y-25637708D01*
X55639227Y-25766023D01*
X55639228Y-25766025D01*
X55639229Y-25766026D01*
X55723782Y-25876218D01*
X55833974Y-25960771D01*
X55962295Y-26013923D01*
X56031147Y-26022987D01*
X56099999Y-26032052D01*
X56100000Y-26032052D01*
X56100001Y-26032052D01*
X56145901Y-26026009D01*
X56237705Y-26013923D01*
X56366026Y-25960771D01*
X56476218Y-25876218D01*
X56560771Y-25766026D01*
X56613923Y-25637705D01*
X56632052Y-25500000D01*
X56613923Y-25362295D01*
X56560771Y-25233974D01*
X56476218Y-25123782D01*
X56366026Y-25039229D01*
X56366025Y-25039228D01*
X56366023Y-25039227D01*
X56237708Y-24986078D01*
X56237703Y-24986076D01*
X56100001Y-24967948D01*
X56099999Y-24967948D01*
X55962296Y-24986076D01*
X55962291Y-24986078D01*
X55833976Y-25039227D01*
X55723782Y-25123782D01*
X55639227Y-25233976D01*
X55586078Y-25362291D01*
X55586076Y-25362296D01*
X55567948Y-25499998D01*
X55567948Y-25500001D01*
X25625000Y-25500001D01*
X25625000Y-24300001D01*
X51767948Y-24300001D01*
X51786076Y-24437703D01*
X51786078Y-24437708D01*
X51839227Y-24566023D01*
X51839228Y-24566025D01*
X51839229Y-24566026D01*
X51923782Y-24676218D01*
X52033974Y-24760771D01*
X52162295Y-24813923D01*
X52231147Y-24822987D01*
X52299999Y-24832052D01*
X52300000Y-24832052D01*
X52300001Y-24832052D01*
X52345901Y-24826009D01*
X52437705Y-24813923D01*
X52471316Y-24800001D01*
X53867948Y-24800001D01*
X53886076Y-24937703D01*
X53886078Y-24937708D01*
X53939227Y-25066023D01*
X53939228Y-25066025D01*
X53939229Y-25066026D01*
X54023782Y-25176218D01*
X54133974Y-25260771D01*
X54262295Y-25313923D01*
X54331147Y-25322987D01*
X54399999Y-25332052D01*
X54400000Y-25332052D01*
X54400001Y-25332052D01*
X54445901Y-25326009D01*
X54537705Y-25313923D01*
X54666026Y-25260771D01*
X54776218Y-25176218D01*
X54860771Y-25066026D01*
X54913923Y-24937705D01*
X54932052Y-24800000D01*
X54926887Y-24760771D01*
X54913923Y-24662296D01*
X54913921Y-24662291D01*
X54909304Y-24651145D01*
X54860771Y-24533974D01*
X54776218Y-24423782D01*
X54666026Y-24339229D01*
X54666025Y-24339228D01*
X54666023Y-24339227D01*
X54537708Y-24286078D01*
X54537703Y-24286076D01*
X54400001Y-24267948D01*
X54399999Y-24267948D01*
X54262296Y-24286076D01*
X54262291Y-24286078D01*
X54133976Y-24339227D01*
X54023782Y-24423782D01*
X53939227Y-24533976D01*
X53886078Y-24662291D01*
X53886076Y-24662296D01*
X53867948Y-24799998D01*
X53867948Y-24800001D01*
X52471316Y-24800001D01*
X52566026Y-24760771D01*
X52676218Y-24676218D01*
X52760771Y-24566026D01*
X52813923Y-24437705D01*
X52832052Y-24300000D01*
X52816162Y-24179304D01*
X64310000Y-24179304D01*
X64316401Y-24238832D01*
X64316403Y-24238839D01*
X64366645Y-24373546D01*
X64366649Y-24373553D01*
X64452809Y-24488647D01*
X64452812Y-24488650D01*
X64567906Y-24574810D01*
X64567913Y-24574814D01*
X64702620Y-24625056D01*
X64702627Y-24625058D01*
X64762155Y-24631459D01*
X64762172Y-24631460D01*
X65379578Y-24631460D01*
X65446617Y-24651145D01*
X65492372Y-24703949D01*
X65502316Y-24773107D01*
X65473291Y-24836663D01*
X65415574Y-24874120D01*
X65284115Y-24913998D01*
X65114307Y-25004762D01*
X65114300Y-25004766D01*
X64965458Y-25126918D01*
X64843306Y-25275760D01*
X64843302Y-25275767D01*
X64752538Y-25445575D01*
X64696643Y-25629833D01*
X64677770Y-25821460D01*
X64696643Y-26013086D01*
X64752538Y-26197344D01*
X64843302Y-26367152D01*
X64843306Y-26367159D01*
X64965458Y-26516001D01*
X65114300Y-26638153D01*
X65114307Y-26638157D01*
X65284115Y-26728921D01*
X65284117Y-26728922D01*
X65468376Y-26784817D01*
X65660000Y-26803690D01*
X65851624Y-26784817D01*
X66035883Y-26728922D01*
X66205698Y-26638154D01*
X66354541Y-26516001D01*
X66476694Y-26367158D01*
X66567462Y-26197343D01*
X66623357Y-26013084D01*
X66642230Y-25821460D01*
X67217770Y-25821460D01*
X67236643Y-26013086D01*
X67292538Y-26197344D01*
X67383302Y-26367152D01*
X67383306Y-26367159D01*
X67505458Y-26516001D01*
X67654300Y-26638153D01*
X67654307Y-26638157D01*
X67824115Y-26728921D01*
X67824117Y-26728922D01*
X68008376Y-26784817D01*
X68200000Y-26803690D01*
X68391624Y-26784817D01*
X68575883Y-26728922D01*
X68745698Y-26638154D01*
X68894541Y-26516001D01*
X69016694Y-26367158D01*
X69107462Y-26197343D01*
X69163357Y-26013084D01*
X69180260Y-25841460D01*
X75942770Y-25841460D01*
X75961643Y-26033086D01*
X76017538Y-26217344D01*
X76108302Y-26387152D01*
X76108306Y-26387159D01*
X76230458Y-26536001D01*
X76379300Y-26658153D01*
X76379307Y-26658157D01*
X76549115Y-26748921D01*
X76549117Y-26748922D01*
X76733376Y-26804817D01*
X76925000Y-26823690D01*
X77116624Y-26804817D01*
X77300883Y-26748922D01*
X77470698Y-26658154D01*
X77619541Y-26536001D01*
X77741694Y-26387158D01*
X77832462Y-26217343D01*
X77888357Y-26033084D01*
X77907230Y-25841460D01*
X77888357Y-25649836D01*
X77832462Y-25465577D01*
X77777257Y-25362295D01*
X77741697Y-25295767D01*
X77741693Y-25295760D01*
X77619541Y-25146918D01*
X77470699Y-25024766D01*
X77470692Y-25024762D01*
X77300884Y-24933998D01*
X77116626Y-24878103D01*
X76925000Y-24859230D01*
X76733373Y-24878103D01*
X76549115Y-24933998D01*
X76379307Y-25024762D01*
X76379300Y-25024766D01*
X76230458Y-25146918D01*
X76108306Y-25295760D01*
X76108302Y-25295767D01*
X76017538Y-25465575D01*
X75961643Y-25649833D01*
X75942770Y-25841460D01*
X69180260Y-25841460D01*
X69182230Y-25821460D01*
X69163357Y-25629836D01*
X69107462Y-25445577D01*
X69107461Y-25445575D01*
X69016697Y-25275767D01*
X69016693Y-25275760D01*
X68894541Y-25126918D01*
X68745699Y-25004766D01*
X68745692Y-25004762D01*
X68575884Y-24913998D01*
X68391626Y-24858103D01*
X68200000Y-24839230D01*
X68008373Y-24858103D01*
X67824115Y-24913998D01*
X67654307Y-25004762D01*
X67654300Y-25004766D01*
X67505458Y-25126918D01*
X67383306Y-25275760D01*
X67383302Y-25275767D01*
X67292538Y-25445575D01*
X67236643Y-25629833D01*
X67217770Y-25821460D01*
X66642230Y-25821460D01*
X66623357Y-25629836D01*
X66567462Y-25445577D01*
X66567461Y-25445575D01*
X66476697Y-25275767D01*
X66476693Y-25275760D01*
X66354541Y-25126918D01*
X66205699Y-25004766D01*
X66205692Y-25004762D01*
X66035884Y-24913998D01*
X65904426Y-24874120D01*
X65845988Y-24835823D01*
X65817531Y-24772010D01*
X65828092Y-24702943D01*
X65874317Y-24650550D01*
X65940422Y-24631460D01*
X66557828Y-24631460D01*
X66557844Y-24631459D01*
X66617372Y-24625058D01*
X66617379Y-24625056D01*
X66752086Y-24574814D01*
X66752093Y-24574810D01*
X66867187Y-24488650D01*
X66867190Y-24488647D01*
X66953350Y-24373553D01*
X66953354Y-24373546D01*
X67003596Y-24238839D01*
X67003598Y-24238832D01*
X67009999Y-24179304D01*
X67010000Y-24179287D01*
X67010000Y-23561881D01*
X67029685Y-23494842D01*
X67082489Y-23449087D01*
X67151647Y-23439143D01*
X67215203Y-23468168D01*
X67252660Y-23525885D01*
X67292538Y-23657344D01*
X67383302Y-23827152D01*
X67383306Y-23827159D01*
X67505458Y-23976001D01*
X67654300Y-24098153D01*
X67654307Y-24098157D01*
X67774294Y-24162291D01*
X67824117Y-24188922D01*
X68008376Y-24244817D01*
X68200000Y-24263690D01*
X68391624Y-24244817D01*
X68575883Y-24188922D01*
X68745698Y-24098154D01*
X68894541Y-23976001D01*
X69016694Y-23827158D01*
X69107462Y-23657343D01*
X69163357Y-23473084D01*
X69180260Y-23301460D01*
X75942770Y-23301460D01*
X75961643Y-23493086D01*
X76017538Y-23677344D01*
X76108302Y-23847152D01*
X76108306Y-23847159D01*
X76230458Y-23996001D01*
X76379300Y-24118153D01*
X76379307Y-24118157D01*
X76549115Y-24208921D01*
X76549117Y-24208922D01*
X76733376Y-24264817D01*
X76925000Y-24283690D01*
X77116624Y-24264817D01*
X77300883Y-24208922D01*
X77470698Y-24118154D01*
X77619541Y-23996001D01*
X77741694Y-23847158D01*
X77832462Y-23677343D01*
X77888357Y-23493084D01*
X77907230Y-23301460D01*
X77888357Y-23109836D01*
X77832462Y-22925577D01*
X77755430Y-22781460D01*
X77741697Y-22755767D01*
X77741693Y-22755760D01*
X77619541Y-22606918D01*
X77470699Y-22484766D01*
X77470692Y-22484762D01*
X77300884Y-22393998D01*
X77116626Y-22338103D01*
X76925000Y-22319230D01*
X76733373Y-22338103D01*
X76549115Y-22393998D01*
X76379307Y-22484762D01*
X76379300Y-22484766D01*
X76230458Y-22606918D01*
X76108306Y-22755760D01*
X76108302Y-22755767D01*
X76017538Y-22925575D01*
X75961643Y-23109833D01*
X75942770Y-23301460D01*
X69180260Y-23301460D01*
X69182230Y-23281460D01*
X69163357Y-23089836D01*
X69107462Y-22905577D01*
X69027387Y-22755767D01*
X69016697Y-22735767D01*
X69016693Y-22735760D01*
X68894541Y-22586918D01*
X68745699Y-22464766D01*
X68745692Y-22464762D01*
X68575884Y-22373998D01*
X68391626Y-22318103D01*
X68200000Y-22299230D01*
X68008373Y-22318103D01*
X67824115Y-22373998D01*
X67654307Y-22464762D01*
X67654300Y-22464766D01*
X67505458Y-22586918D01*
X67383306Y-22735760D01*
X67383302Y-22735767D01*
X67292538Y-22905575D01*
X67252660Y-23037034D01*
X67214363Y-23095472D01*
X67150550Y-23123929D01*
X67081483Y-23113368D01*
X67029090Y-23067143D01*
X67010000Y-23001038D01*
X67010000Y-22383632D01*
X67009999Y-22383615D01*
X67003598Y-22324087D01*
X67003596Y-22324080D01*
X66953354Y-22189373D01*
X66953350Y-22189366D01*
X66867190Y-22074272D01*
X66867187Y-22074269D01*
X66752093Y-21988109D01*
X66752086Y-21988105D01*
X66617379Y-21937863D01*
X66617372Y-21937861D01*
X66557844Y-21931460D01*
X65910000Y-21931460D01*
X65910000Y-22845958D01*
X65802315Y-22796780D01*
X65695763Y-22781460D01*
X65624237Y-22781460D01*
X65517685Y-22796780D01*
X65410000Y-22845958D01*
X65410000Y-21931460D01*
X64762155Y-21931460D01*
X64702627Y-21937861D01*
X64702620Y-21937863D01*
X64567913Y-21988105D01*
X64567906Y-21988109D01*
X64452812Y-22074269D01*
X64452809Y-22074272D01*
X64366649Y-22189366D01*
X64366645Y-22189373D01*
X64316403Y-22324080D01*
X64316401Y-22324087D01*
X64310000Y-22383615D01*
X64310000Y-23031460D01*
X65226314Y-23031460D01*
X65200507Y-23071616D01*
X65160000Y-23209571D01*
X65160000Y-23353349D01*
X65200507Y-23491304D01*
X65226314Y-23531460D01*
X64310000Y-23531460D01*
X64310000Y-24179304D01*
X52816162Y-24179304D01*
X52813923Y-24162295D01*
X52760771Y-24033974D01*
X52676218Y-23923782D01*
X52566026Y-23839229D01*
X52566025Y-23839228D01*
X52566023Y-23839227D01*
X52437708Y-23786078D01*
X52437703Y-23786076D01*
X52300001Y-23767948D01*
X52299999Y-23767948D01*
X52162296Y-23786076D01*
X52162291Y-23786078D01*
X52033976Y-23839227D01*
X51923782Y-23923782D01*
X51839227Y-24033976D01*
X51786078Y-24162291D01*
X51786076Y-24162296D01*
X51767948Y-24299998D01*
X51767948Y-24300001D01*
X25625000Y-24300001D01*
X25625000Y-22900001D01*
X27667948Y-22900001D01*
X27686076Y-23037703D01*
X27686078Y-23037708D01*
X27739227Y-23166023D01*
X27739228Y-23166025D01*
X27739229Y-23166026D01*
X27823782Y-23276218D01*
X27933974Y-23360771D01*
X28062295Y-23413923D01*
X28131147Y-23422987D01*
X28199999Y-23432052D01*
X28200000Y-23432052D01*
X28200001Y-23432052D01*
X28245901Y-23426009D01*
X28337705Y-23413923D01*
X28466026Y-23360771D01*
X28576218Y-23276218D01*
X28660771Y-23166026D01*
X28713923Y-23037705D01*
X28732052Y-22900001D01*
X34767948Y-22900001D01*
X34786076Y-23037703D01*
X34786078Y-23037708D01*
X34839227Y-23166023D01*
X34839228Y-23166025D01*
X34839229Y-23166026D01*
X34923782Y-23276218D01*
X35033974Y-23360771D01*
X35162295Y-23413923D01*
X35231147Y-23422987D01*
X35299999Y-23432052D01*
X35300000Y-23432052D01*
X35300001Y-23432052D01*
X35345901Y-23426009D01*
X35437705Y-23413923D01*
X35566026Y-23360771D01*
X35676218Y-23276218D01*
X35760771Y-23166026D01*
X35813923Y-23037705D01*
X35832052Y-22900001D01*
X41267948Y-22900001D01*
X41286076Y-23037703D01*
X41286078Y-23037708D01*
X41339227Y-23166023D01*
X41339228Y-23166025D01*
X41339229Y-23166026D01*
X41423782Y-23276218D01*
X41533974Y-23360771D01*
X41662295Y-23413923D01*
X41731147Y-23422987D01*
X41799999Y-23432052D01*
X41800000Y-23432052D01*
X41800001Y-23432052D01*
X41845901Y-23426009D01*
X41937705Y-23413923D01*
X42066026Y-23360771D01*
X42176218Y-23276218D01*
X42260771Y-23166026D01*
X42313923Y-23037705D01*
X42332052Y-22900000D01*
X42313923Y-22762295D01*
X42260771Y-22633974D01*
X42176218Y-22523782D01*
X42066026Y-22439229D01*
X42066025Y-22439228D01*
X42066023Y-22439227D01*
X41937708Y-22386078D01*
X41937703Y-22386076D01*
X41800001Y-22367948D01*
X41799999Y-22367948D01*
X41662296Y-22386076D01*
X41662291Y-22386078D01*
X41533976Y-22439227D01*
X41423782Y-22523782D01*
X41339227Y-22633976D01*
X41286078Y-22762291D01*
X41286076Y-22762296D01*
X41267948Y-22899998D01*
X41267948Y-22900001D01*
X35832052Y-22900001D01*
X35832052Y-22900000D01*
X35813923Y-22762295D01*
X35760771Y-22633974D01*
X35676218Y-22523782D01*
X35566026Y-22439229D01*
X35566025Y-22439228D01*
X35566023Y-22439227D01*
X35437708Y-22386078D01*
X35437703Y-22386076D01*
X35300001Y-22367948D01*
X35299999Y-22367948D01*
X35162296Y-22386076D01*
X35162291Y-22386078D01*
X35033976Y-22439227D01*
X34923782Y-22523782D01*
X34839227Y-22633976D01*
X34786078Y-22762291D01*
X34786076Y-22762296D01*
X34767948Y-22899998D01*
X34767948Y-22900001D01*
X28732052Y-22900001D01*
X28732052Y-22900000D01*
X28713923Y-22762295D01*
X28660771Y-22633974D01*
X28576218Y-22523782D01*
X28466026Y-22439229D01*
X28466025Y-22439228D01*
X28466023Y-22439227D01*
X28337708Y-22386078D01*
X28337703Y-22386076D01*
X28200001Y-22367948D01*
X28199999Y-22367948D01*
X28062296Y-22386076D01*
X28062291Y-22386078D01*
X27933976Y-22439227D01*
X27823782Y-22523782D01*
X27739227Y-22633976D01*
X27686078Y-22762291D01*
X27686076Y-22762296D01*
X27667948Y-22899998D01*
X27667948Y-22900001D01*
X25625000Y-22900001D01*
X25625000Y-21485460D01*
X25644685Y-21418421D01*
X25697489Y-21372666D01*
X25749000Y-21361460D01*
X75823500Y-21361460D01*
X75890539Y-21381145D01*
G37*
G04 #@! TD.AperFunction*
M02*
