G04 #@! TF.GenerationSoftware,KiCad,Pcbnew,7.0.8-7.0.8~ubuntu22.04.1*
G04 #@! TF.CreationDate,2024-01-26T15:30:58+01:00*
G04 #@! TF.ProjectId,hand,68616e64-2e6b-4696-9361-645f70636258,rev?*
G04 #@! TF.SameCoordinates,Original*
G04 #@! TF.FileFunction,Paste,Top*
G04 #@! TF.FilePolarity,Positive*
%FSLAX46Y46*%
G04 Gerber Fmt 4.6, Leading zero omitted, Abs format (unit mm)*
G04 Created by KiCad (PCBNEW 7.0.8-7.0.8~ubuntu22.04.1) date 2024-01-26 15:30:58*
%MOMM*%
%LPD*%
G01*
G04 APERTURE LIST*
G04 Aperture macros list*
%AMRoundRect*
0 Rectangle with rounded corners*
0 $1 Rounding radius*
0 $2 $3 $4 $5 $6 $7 $8 $9 X,Y pos of 4 corners*
0 Add a 4 corners polygon primitive as box body*
4,1,4,$2,$3,$4,$5,$6,$7,$8,$9,$2,$3,0*
0 Add four circle primitives for the rounded corners*
1,1,$1+$1,$2,$3*
1,1,$1+$1,$4,$5*
1,1,$1+$1,$6,$7*
1,1,$1+$1,$8,$9*
0 Add four rect primitives between the rounded corners*
20,1,$1+$1,$2,$3,$4,$5,0*
20,1,$1+$1,$4,$5,$6,$7,0*
20,1,$1+$1,$6,$7,$8,$9,0*
20,1,$1+$1,$8,$9,$2,$3,0*%
G04 Aperture macros list end*
%ADD10RoundRect,0.225000X-0.225000X-0.250000X0.225000X-0.250000X0.225000X0.250000X-0.225000X0.250000X0*%
%ADD11RoundRect,0.225000X0.225000X0.250000X-0.225000X0.250000X-0.225000X-0.250000X0.225000X-0.250000X0*%
%ADD12R,1.454899X0.532600*%
%ADD13RoundRect,0.250000X-0.450000X0.262500X-0.450000X-0.262500X0.450000X-0.262500X0.450000X0.262500X0*%
%ADD14RoundRect,0.250000X-1.500000X-0.550000X1.500000X-0.550000X1.500000X0.550000X-1.500000X0.550000X0*%
%ADD15RoundRect,0.140000X0.140000X0.170000X-0.140000X0.170000X-0.140000X-0.170000X0.140000X-0.170000X0*%
%ADD16RoundRect,0.250000X-0.262500X-0.450000X0.262500X-0.450000X0.262500X0.450000X-0.262500X0.450000X0*%
%ADD17RoundRect,0.135000X0.185000X-0.135000X0.185000X0.135000X-0.185000X0.135000X-0.185000X-0.135000X0*%
%ADD18RoundRect,0.135000X-0.135000X-0.185000X0.135000X-0.185000X0.135000X0.185000X-0.135000X0.185000X0*%
%ADD19RoundRect,0.225000X0.250000X-0.225000X0.250000X0.225000X-0.250000X0.225000X-0.250000X-0.225000X0*%
%ADD20RoundRect,0.135000X-0.185000X0.135000X-0.185000X-0.135000X0.185000X-0.135000X0.185000X0.135000X0*%
%ADD21RoundRect,0.218750X-0.218750X-0.256250X0.218750X-0.256250X0.218750X0.256250X-0.218750X0.256250X0*%
%ADD22RoundRect,0.250000X1.500000X0.550000X-1.500000X0.550000X-1.500000X-0.550000X1.500000X-0.550000X0*%
%ADD23RoundRect,0.135000X0.135000X0.185000X-0.135000X0.185000X-0.135000X-0.185000X0.135000X-0.185000X0*%
%ADD24R,1.460500X0.558800*%
%ADD25RoundRect,0.225000X-0.250000X0.225000X-0.250000X-0.225000X0.250000X-0.225000X0.250000X0.225000X0*%
%ADD26R,0.351536X0.576580*%
%ADD27R,0.576580X0.351536*%
%ADD28RoundRect,0.135000X-0.226274X-0.035355X-0.035355X-0.226274X0.226274X0.035355X0.035355X0.226274X0*%
%ADD29RoundRect,0.218750X0.218750X0.256250X-0.218750X0.256250X-0.218750X-0.256250X0.218750X-0.256250X0*%
%ADD30RoundRect,0.250000X0.450000X-0.262500X0.450000X0.262500X-0.450000X0.262500X-0.450000X-0.262500X0*%
%ADD31RoundRect,0.140000X-0.170000X0.140000X-0.170000X-0.140000X0.170000X-0.140000X0.170000X0.140000X0*%
%ADD32RoundRect,0.075000X0.700000X0.075000X-0.700000X0.075000X-0.700000X-0.075000X0.700000X-0.075000X0*%
%ADD33RoundRect,0.075000X0.075000X0.700000X-0.075000X0.700000X-0.075000X-0.700000X0.075000X-0.700000X0*%
%ADD34RoundRect,0.200000X0.275000X-0.200000X0.275000X0.200000X-0.275000X0.200000X-0.275000X-0.200000X0*%
G04 APERTURE END LIST*
G36*
X59925000Y-91361460D02*
G01*
X58766100Y-91361460D01*
X58766100Y-89859660D01*
X59925000Y-89859660D01*
X59925000Y-91361460D01*
G37*
G36*
X59925000Y-93063260D02*
G01*
X58766100Y-93063260D01*
X58766100Y-91561460D01*
X59925000Y-91561460D01*
X59925000Y-93063260D01*
G37*
G36*
X61283900Y-91361460D02*
G01*
X60125000Y-91361460D01*
X60125000Y-89859660D01*
X61283900Y-89859660D01*
X61283900Y-91361460D01*
G37*
G36*
X61283900Y-93063260D02*
G01*
X60125000Y-93063260D01*
X60125000Y-91561460D01*
X61283900Y-91561460D01*
X61283900Y-93063260D01*
G37*
G36*
X60000850Y-82556460D02*
G01*
X58841950Y-82556460D01*
X58841950Y-81054660D01*
X60000850Y-81054660D01*
X60000850Y-82556460D01*
G37*
G36*
X60000850Y-84258260D02*
G01*
X58841950Y-84258260D01*
X58841950Y-82756460D01*
X60000850Y-82756460D01*
X60000850Y-84258260D01*
G37*
G36*
X61359750Y-82556460D02*
G01*
X60200850Y-82556460D01*
X60200850Y-81054660D01*
X61359750Y-81054660D01*
X61359750Y-82556460D01*
G37*
G36*
X61359750Y-84258260D02*
G01*
X60200850Y-84258260D01*
X60200850Y-82756460D01*
X61359750Y-82756460D01*
X61359750Y-84258260D01*
G37*
D10*
X59225000Y-38000000D03*
X60775000Y-38000000D03*
D11*
X35613127Y-39328127D03*
X34063127Y-39328127D03*
D10*
X74650000Y-40461460D03*
X76200000Y-40461460D03*
D12*
X66525000Y-36451460D03*
X66525000Y-37721460D03*
X66525000Y-38991460D03*
X66525000Y-40261460D03*
X71967696Y-40261460D03*
X71967696Y-38991460D03*
X71967696Y-37721460D03*
X71967696Y-36451460D03*
D13*
X58025000Y-61648960D03*
X58025000Y-63473960D03*
D14*
X44125000Y-84861460D03*
X49525000Y-84861460D03*
D15*
X29505000Y-37161460D03*
X28545000Y-37161460D03*
D16*
X56812500Y-87461460D03*
X58637500Y-87461460D03*
D17*
X49700000Y-29510000D03*
X49700000Y-28490000D03*
D18*
X31015000Y-32161460D03*
X32035000Y-32161460D03*
D19*
X64800000Y-94875000D03*
X64800000Y-93325000D03*
D20*
X56425000Y-26580000D03*
X56425000Y-27600000D03*
D11*
X35613127Y-41428127D03*
X34063127Y-41428127D03*
D16*
X57040047Y-78800000D03*
X58865047Y-78800000D03*
D21*
X30537500Y-69561460D03*
X32112500Y-69561460D03*
D22*
X40025000Y-77661460D03*
X34625000Y-77661460D03*
D19*
X64800000Y-86075000D03*
X64800000Y-84525000D03*
D16*
X30412500Y-67661460D03*
X32237500Y-67661460D03*
D22*
X40025000Y-91961460D03*
X34625000Y-91961460D03*
D23*
X50610000Y-34900000D03*
X49590000Y-34900000D03*
D18*
X31915000Y-37161460D03*
X32935000Y-37161460D03*
D24*
X57300850Y-89556460D03*
X57300850Y-90826460D03*
X57300850Y-92096460D03*
X57300850Y-93366460D03*
X62749150Y-93366460D03*
X62749150Y-92096460D03*
X62749150Y-90826460D03*
X62749150Y-89556460D03*
D25*
X63025000Y-63286460D03*
X63025000Y-64836460D03*
D24*
X57376700Y-80751460D03*
X57376700Y-82021460D03*
X57376700Y-83291460D03*
X57376700Y-84561460D03*
X62825000Y-84561460D03*
X62825000Y-83291460D03*
X62825000Y-82021460D03*
X62825000Y-80751460D03*
D23*
X42435000Y-42361460D03*
X41415000Y-42361460D03*
D26*
X31700000Y-33440860D03*
X31199999Y-33440860D03*
X30699999Y-33440860D03*
X30199998Y-33440860D03*
D27*
X29993699Y-34151161D03*
X29993699Y-34651160D03*
X29993699Y-35151159D03*
D26*
X30199998Y-35861460D03*
X30699999Y-35861460D03*
X31199999Y-35861460D03*
X31700000Y-35861460D03*
D27*
X31906299Y-35151159D03*
X31906299Y-34651160D03*
X31906299Y-34151161D03*
D28*
X33064376Y-30800836D03*
X33785624Y-31522084D03*
D22*
X40025000Y-84861460D03*
X34625000Y-84861460D03*
D29*
X68212500Y-68861460D03*
X66637500Y-68861460D03*
D19*
X56525000Y-34436460D03*
X56525000Y-32886460D03*
D21*
X34212500Y-45761460D03*
X35787500Y-45761460D03*
D13*
X30725000Y-62748960D03*
X30725000Y-64573960D03*
D30*
X56625000Y-37773960D03*
X56625000Y-35948960D03*
D18*
X30390000Y-29700000D03*
X31410000Y-29700000D03*
D19*
X64746347Y-39256459D03*
X64746347Y-37706459D03*
D16*
X63212500Y-68861460D03*
X65037500Y-68861460D03*
D31*
X28625000Y-34181460D03*
X28625000Y-35141460D03*
D32*
X48000000Y-36011460D03*
X48000000Y-35511460D03*
X48000000Y-35011460D03*
X48000000Y-34511460D03*
X48000000Y-34011460D03*
X48000000Y-33511460D03*
X48000000Y-33011460D03*
X48000000Y-32511460D03*
X48000000Y-32011460D03*
X48000000Y-31511460D03*
X48000000Y-31011460D03*
X48000000Y-30511460D03*
X48000000Y-30011460D03*
X48000000Y-29511460D03*
X48000000Y-29011460D03*
X48000000Y-28511460D03*
D33*
X46075000Y-26586460D03*
X45575000Y-26586460D03*
X45075000Y-26586460D03*
X44575000Y-26586460D03*
X44075000Y-26586460D03*
X43575000Y-26586460D03*
X43075000Y-26586460D03*
X42575000Y-26586460D03*
X42075000Y-26586460D03*
X41575000Y-26586460D03*
X41075000Y-26586460D03*
X40575000Y-26586460D03*
X40075000Y-26586460D03*
X39575000Y-26586460D03*
X39075000Y-26586460D03*
X38575000Y-26586460D03*
D32*
X36650000Y-28511460D03*
X36650000Y-29011460D03*
X36650000Y-29511460D03*
X36650000Y-30011460D03*
X36650000Y-30511460D03*
X36650000Y-31011460D03*
X36650000Y-31511460D03*
X36650000Y-32011460D03*
X36650000Y-32511460D03*
X36650000Y-33011460D03*
X36650000Y-33511460D03*
X36650000Y-34011460D03*
X36650000Y-34511460D03*
X36650000Y-35011460D03*
X36650000Y-35511460D03*
X36650000Y-36011460D03*
D33*
X38575000Y-37936460D03*
X39075000Y-37936460D03*
X39575000Y-37936460D03*
X40075000Y-37936460D03*
X40575000Y-37936460D03*
X41075000Y-37936460D03*
X41575000Y-37936460D03*
X42075000Y-37936460D03*
X42575000Y-37936460D03*
X43075000Y-37936460D03*
X43575000Y-37936460D03*
X44075000Y-37936460D03*
X44575000Y-37936460D03*
X45075000Y-37936460D03*
X45575000Y-37936460D03*
X46075000Y-37936460D03*
D18*
X38515000Y-24861460D03*
X39535000Y-24861460D03*
X34015000Y-34561460D03*
X35035000Y-34561460D03*
D25*
X36725000Y-63286460D03*
X36725000Y-64836460D03*
D16*
X54012500Y-46861460D03*
X55837500Y-46861460D03*
D34*
X74446347Y-38981460D03*
X74446347Y-37331460D03*
D14*
X44125000Y-91961460D03*
X49525000Y-91961460D03*
D25*
X56525000Y-29425000D03*
X56525000Y-30975000D03*
D14*
X44125000Y-77661460D03*
X49525000Y-77661460D03*
M02*
