G04 #@! TF.GenerationSoftware,KiCad,Pcbnew,7.0.8-7.0.8~ubuntu22.04.1*
G04 #@! TF.CreationDate,2023-11-03T15:42:22+01:00*
G04 #@! TF.ProjectId,hand,68616e64-2e6b-4696-9361-645f70636258,rev?*
G04 #@! TF.SameCoordinates,Original*
G04 #@! TF.FileFunction,Copper,L2,Inr*
G04 #@! TF.FilePolarity,Positive*
%FSLAX46Y46*%
G04 Gerber Fmt 4.6, Leading zero omitted, Abs format (unit mm)*
G04 Created by KiCad (PCBNEW 7.0.8-7.0.8~ubuntu22.04.1) date 2023-11-03 15:42:22*
%MOMM*%
%LPD*%
G01*
G04 APERTURE LIST*
G04 #@! TA.AperFunction,ComponentPad*
%ADD10R,2.000000X2.000000*%
G04 #@! TD*
G04 #@! TA.AperFunction,ComponentPad*
%ADD11O,2.000000X2.000000*%
G04 #@! TD*
G04 #@! TA.AperFunction,ComponentPad*
%ADD12R,2.000000X1.905000*%
G04 #@! TD*
G04 #@! TA.AperFunction,ComponentPad*
%ADD13O,2.000000X1.905000*%
G04 #@! TD*
G04 #@! TA.AperFunction,ComponentPad*
%ADD14R,1.700000X1.700000*%
G04 #@! TD*
G04 #@! TA.AperFunction,ComponentPad*
%ADD15O,1.700000X1.700000*%
G04 #@! TD*
G04 #@! TA.AperFunction,ComponentPad*
%ADD16C,0.965200*%
G04 #@! TD*
G04 #@! TA.AperFunction,ComponentPad*
%ADD17R,1.000000X1.000000*%
G04 #@! TD*
G04 #@! TA.AperFunction,ComponentPad*
%ADD18O,1.000000X1.000000*%
G04 #@! TD*
G04 #@! TA.AperFunction,ComponentPad*
%ADD19C,1.800000*%
G04 #@! TD*
G04 #@! TA.AperFunction,ComponentPad*
%ADD20C,1.524000*%
G04 #@! TD*
G04 #@! TA.AperFunction,ViaPad*
%ADD21C,0.600000*%
G04 #@! TD*
G04 #@! TA.AperFunction,ViaPad*
%ADD22C,0.800000*%
G04 #@! TD*
G04 #@! TA.AperFunction,ViaPad*
%ADD23C,1.100000*%
G04 #@! TD*
G04 APERTURE END LIST*
D10*
X152000000Y-48800000D03*
D11*
X157080000Y-48800000D03*
D12*
X178695000Y-53460000D03*
D13*
X178695000Y-56000000D03*
X178695000Y-58540000D03*
D14*
X151710000Y-104650000D03*
D15*
X154250000Y-104650000D03*
X156790000Y-104650000D03*
X159330000Y-104650000D03*
X161870000Y-104650000D03*
D12*
X150695000Y-53560000D03*
D13*
X150695000Y-56100000D03*
X150695000Y-58640000D03*
D10*
X176785000Y-63500000D03*
D11*
X181865000Y-63500000D03*
D14*
X165515000Y-82540000D03*
D15*
X162975000Y-82540000D03*
X165515000Y-80000000D03*
X162975000Y-80000000D03*
D14*
X165465000Y-76200000D03*
D15*
X162925000Y-76200000D03*
X165465000Y-73660000D03*
X162925000Y-73660000D03*
X165465000Y-71120000D03*
X162925000Y-71120000D03*
X165465000Y-68580000D03*
X162925000Y-68580000D03*
D14*
X165525000Y-94320000D03*
D15*
X162985000Y-94320000D03*
X165525000Y-91780000D03*
X162985000Y-91780000D03*
X165525000Y-89240000D03*
X162985000Y-89240000D03*
X165525000Y-86700000D03*
X162985000Y-86700000D03*
D16*
X173425000Y-35200000D03*
X173425000Y-30319999D03*
D17*
X169300000Y-49200000D03*
D18*
X170570000Y-49200000D03*
D14*
X185560000Y-24020000D03*
D15*
X188100000Y-24020000D03*
X185560000Y-26560000D03*
X188100000Y-26560000D03*
X185560000Y-29100000D03*
X188100000Y-29100000D03*
X185560000Y-31640000D03*
X188100000Y-31640000D03*
X185560000Y-34180000D03*
X188100000Y-34180000D03*
D10*
X181765000Y-69400000D03*
D11*
X176685000Y-69400000D03*
D17*
X177292000Y-49530000D03*
D18*
X178562000Y-49530000D03*
D14*
X180430000Y-104550000D03*
D15*
X182970000Y-104550000D03*
X185510000Y-104550000D03*
X188050000Y-104550000D03*
X190590000Y-104550000D03*
D17*
X164975000Y-49125000D03*
D18*
X166245000Y-49125000D03*
D17*
X181770000Y-28600000D03*
D18*
X180500000Y-28600000D03*
D10*
X153725000Y-74980000D03*
D11*
X153725000Y-69900000D03*
D19*
X157025000Y-84200000D03*
X159565000Y-79120000D03*
X157025000Y-71500000D03*
D14*
X203500000Y-29280000D03*
D15*
X203500000Y-26740000D03*
X203500000Y-24200000D03*
D20*
X229560000Y-31492500D03*
X232100000Y-31492500D03*
X228925000Y-23287500D03*
X230825000Y-23287500D03*
X232725000Y-23287500D03*
D14*
X196900000Y-24060000D03*
D15*
X196900000Y-26600000D03*
X196900000Y-29140000D03*
D10*
X149500000Y-73100000D03*
D11*
X149500000Y-88100000D03*
D10*
X153725000Y-83840000D03*
D11*
X153725000Y-78760000D03*
D19*
X190025000Y-66600000D03*
X184945000Y-64060000D03*
X177325000Y-66600000D03*
D10*
X177700000Y-72700000D03*
D11*
X192700000Y-72700000D03*
D21*
X165600000Y-37082619D03*
X149000000Y-38400000D03*
X170900000Y-80000000D03*
X170900000Y-90700000D03*
X157900000Y-37200000D03*
X169400000Y-37000000D03*
X172800000Y-55400000D03*
X164550000Y-28675000D03*
X158100000Y-28800000D03*
X152900500Y-36500000D03*
X161900000Y-31000000D03*
X150649997Y-32889701D03*
X166625000Y-30200000D03*
X148749998Y-34889700D03*
D22*
X152600000Y-46600000D03*
D21*
X171100000Y-23200000D03*
X162000000Y-35100000D03*
X179525000Y-31800000D03*
X182600000Y-108000000D03*
X183025000Y-73600000D03*
X168400000Y-105700000D03*
X147100000Y-23500000D03*
X154500000Y-87400000D03*
X159500000Y-92400000D03*
X176100000Y-23200000D03*
X155525000Y-62300000D03*
X147100000Y-28500000D03*
X181100000Y-23200000D03*
X190754000Y-39370000D03*
D22*
X177500000Y-91424150D03*
D21*
X147600000Y-108000000D03*
X192600000Y-108000000D03*
X152100000Y-23500000D03*
X155400000Y-37900000D03*
X162000000Y-23500000D03*
X173400000Y-100700000D03*
D22*
X196225000Y-89600000D03*
D21*
X185754000Y-39370000D03*
X166625000Y-31700000D03*
X168400000Y-100700000D03*
X157600000Y-108000000D03*
X191700000Y-49530000D03*
D22*
X177000000Y-82100000D03*
D21*
X153500000Y-30400000D03*
X171800000Y-35800000D03*
D22*
X196225000Y-82300000D03*
X162800000Y-50900000D03*
D21*
X165475000Y-28650000D03*
X152100000Y-28500000D03*
D22*
X181325000Y-89400000D03*
D21*
X170900000Y-62600000D03*
D22*
X181325000Y-82300000D03*
D21*
X172600000Y-108000000D03*
X180954000Y-39370000D03*
X162600000Y-108000000D03*
X173400000Y-105700000D03*
X159500000Y-87400000D03*
X159500000Y-28900000D03*
X177600000Y-108000000D03*
X174425000Y-71400000D03*
X164600000Y-33700000D03*
X148100000Y-41000000D03*
X150000000Y-41000000D03*
X148749998Y-35889700D03*
X196700000Y-49530000D03*
X149300000Y-68100000D03*
X167600000Y-108000000D03*
X166100000Y-23200000D03*
X151649997Y-32889700D03*
X187600000Y-108000000D03*
X160000000Y-30800000D03*
X154500000Y-92400000D03*
X152600000Y-108000000D03*
X158282548Y-36034903D03*
X174400000Y-48900000D03*
X164700000Y-37100000D03*
D22*
X172600000Y-96000000D03*
D23*
X188800000Y-82300000D03*
D22*
X172700000Y-86400000D03*
D23*
X188800000Y-89500000D03*
D22*
X174600000Y-61900000D03*
X173100000Y-61800000D03*
X162500000Y-64200000D03*
D21*
X173000000Y-48900000D03*
X160000000Y-44200500D03*
X160100497Y-42000000D03*
X159000000Y-44200000D03*
X159000000Y-41400000D03*
X166600000Y-25100000D03*
X167300000Y-45200000D03*
X170024500Y-29250000D03*
X168400000Y-45200000D03*
D22*
X165100000Y-24800000D03*
X180300000Y-87900000D03*
X183700000Y-88000000D03*
X181102000Y-49784000D03*
D21*
X160900000Y-42000000D03*
X164147523Y-52747523D03*
X159000000Y-40500000D03*
X164997523Y-51897523D03*
D22*
X176100000Y-38900000D03*
D21*
X171325500Y-30200000D03*
X153700000Y-35300000D03*
X154225250Y-33725250D03*
D23*
X176600000Y-87000000D03*
D21*
X175700000Y-55400000D03*
X172800000Y-36900000D03*
X191600000Y-27800000D03*
D23*
X175100000Y-87000000D03*
D22*
X184000000Y-27700000D03*
G04 #@! TA.AperFunction,Conductor*
G36*
X165005507Y-75990156D02*
G01*
X164965000Y-76128111D01*
X164965000Y-76271889D01*
X165005507Y-76409844D01*
X165031314Y-76450000D01*
X163358686Y-76450000D01*
X163384493Y-76409844D01*
X163425000Y-76271889D01*
X163425000Y-76128111D01*
X163384493Y-75990156D01*
X163358686Y-75950000D01*
X165031314Y-75950000D01*
X165005507Y-75990156D01*
G37*
G04 #@! TD.AperFunction*
G04 #@! TA.AperFunction,Conductor*
G36*
X198540677Y-22319685D02*
G01*
X198561319Y-22336319D01*
X198588681Y-22363681D01*
X198622166Y-22425004D01*
X198625000Y-22451362D01*
X198625000Y-102576000D01*
X198605315Y-102643039D01*
X198552511Y-102688794D01*
X198501000Y-102700000D01*
X196025000Y-102700000D01*
X196025000Y-109548638D01*
X196005315Y-109615677D01*
X195988681Y-109636319D01*
X195961319Y-109663681D01*
X195899996Y-109697166D01*
X195873638Y-109700000D01*
X145876362Y-109700000D01*
X145809323Y-109680315D01*
X145788681Y-109663681D01*
X145761319Y-109636319D01*
X145727834Y-109574996D01*
X145725000Y-109548638D01*
X145725000Y-98269722D01*
X146419174Y-98269722D01*
X146419176Y-98337516D01*
X146419176Y-98384929D01*
X146419705Y-98389836D01*
X146423036Y-104214128D01*
X146423036Y-105088624D01*
X146423037Y-105156415D01*
X146449494Y-105289402D01*
X146449495Y-105289407D01*
X146501382Y-105414668D01*
X146576713Y-105527408D01*
X146576716Y-105527412D01*
X146672587Y-105623283D01*
X146672591Y-105623286D01*
X146785329Y-105698616D01*
X146785330Y-105698616D01*
X146785331Y-105698617D01*
X146845732Y-105723637D01*
X146910597Y-105750506D01*
X147043581Y-105776962D01*
X147086610Y-105776962D01*
X147086616Y-105776964D01*
X147111277Y-105776964D01*
X148840079Y-105776964D01*
X148840085Y-105776962D01*
X148856419Y-105776962D01*
X148989403Y-105750506D01*
X149114671Y-105698616D01*
X149227409Y-105623286D01*
X149302851Y-105547844D01*
X150360000Y-105547844D01*
X150366401Y-105607372D01*
X150366403Y-105607379D01*
X150416645Y-105742086D01*
X150416649Y-105742093D01*
X150502809Y-105857187D01*
X150502812Y-105857190D01*
X150617906Y-105943350D01*
X150617913Y-105943354D01*
X150752620Y-105993596D01*
X150752627Y-105993598D01*
X150812155Y-105999999D01*
X150812172Y-106000000D01*
X151460000Y-106000000D01*
X151460000Y-105085501D01*
X151567685Y-105134680D01*
X151674237Y-105150000D01*
X151745763Y-105150000D01*
X151852315Y-105134680D01*
X151960000Y-105085501D01*
X151960000Y-106000000D01*
X152607828Y-106000000D01*
X152607844Y-105999999D01*
X152667372Y-105993598D01*
X152667379Y-105993596D01*
X152802086Y-105943354D01*
X152802093Y-105943350D01*
X152917187Y-105857190D01*
X152917190Y-105857187D01*
X153003350Y-105742093D01*
X153003354Y-105742086D01*
X153053596Y-105607379D01*
X153053598Y-105607372D01*
X153059999Y-105547844D01*
X153060000Y-105547827D01*
X153060000Y-105353268D01*
X153079685Y-105286229D01*
X153132489Y-105240474D01*
X153201647Y-105230530D01*
X153265203Y-105259555D01*
X153282950Y-105278537D01*
X153299750Y-105300783D01*
X153394349Y-105426052D01*
X153396128Y-105428407D01*
X153553698Y-105572052D01*
X153734981Y-105684298D01*
X153933802Y-105761321D01*
X154143390Y-105800500D01*
X154143392Y-105800500D01*
X154356608Y-105800500D01*
X154356610Y-105800500D01*
X154566198Y-105761321D01*
X154765019Y-105684298D01*
X154946302Y-105572052D01*
X155103872Y-105428407D01*
X155232366Y-105258255D01*
X155260301Y-105202153D01*
X155327403Y-105067394D01*
X155327403Y-105067393D01*
X155327405Y-105067389D01*
X155385756Y-104862310D01*
X155396529Y-104746047D01*
X155422315Y-104681111D01*
X155464622Y-104650804D01*
X155573130Y-104650804D01*
X155609503Y-104671668D01*
X155641693Y-104733681D01*
X155643470Y-104746047D01*
X155654244Y-104862310D01*
X155684143Y-104967394D01*
X155712596Y-105067392D01*
X155712596Y-105067394D01*
X155807632Y-105258253D01*
X155934352Y-105426055D01*
X155936128Y-105428407D01*
X156093698Y-105572052D01*
X156274981Y-105684298D01*
X156473802Y-105761321D01*
X156683390Y-105800500D01*
X156683392Y-105800500D01*
X156896608Y-105800500D01*
X156896610Y-105800500D01*
X157106198Y-105761321D01*
X157305019Y-105684298D01*
X157486302Y-105572052D01*
X157643872Y-105428407D01*
X157772366Y-105258255D01*
X157800301Y-105202153D01*
X157867403Y-105067394D01*
X157867403Y-105067393D01*
X157867405Y-105067389D01*
X157925756Y-104862310D01*
X157936529Y-104746047D01*
X157962315Y-104681111D01*
X158004622Y-104650804D01*
X158113130Y-104650804D01*
X158149503Y-104671668D01*
X158181693Y-104733681D01*
X158183470Y-104746047D01*
X158194244Y-104862310D01*
X158224143Y-104967394D01*
X158252596Y-105067392D01*
X158252596Y-105067394D01*
X158347632Y-105258253D01*
X158474352Y-105426055D01*
X158476128Y-105428407D01*
X158633698Y-105572052D01*
X158814981Y-105684298D01*
X159013802Y-105761321D01*
X159223390Y-105800500D01*
X159223392Y-105800500D01*
X159436608Y-105800500D01*
X159436610Y-105800500D01*
X159646198Y-105761321D01*
X159845019Y-105684298D01*
X160026302Y-105572052D01*
X160183872Y-105428407D01*
X160312366Y-105258255D01*
X160340301Y-105202153D01*
X160407403Y-105067394D01*
X160407403Y-105067393D01*
X160407405Y-105067389D01*
X160465756Y-104862310D01*
X160476529Y-104746047D01*
X160502315Y-104681111D01*
X160544622Y-104650804D01*
X160653130Y-104650804D01*
X160689503Y-104671668D01*
X160721693Y-104733681D01*
X160723470Y-104746047D01*
X160734244Y-104862310D01*
X160764143Y-104967394D01*
X160792596Y-105067392D01*
X160792596Y-105067394D01*
X160887632Y-105258253D01*
X161014352Y-105426055D01*
X161016128Y-105428407D01*
X161173698Y-105572052D01*
X161354981Y-105684298D01*
X161553802Y-105761321D01*
X161763390Y-105800500D01*
X161763392Y-105800500D01*
X161976608Y-105800500D01*
X161976610Y-105800500D01*
X162186198Y-105761321D01*
X162385019Y-105684298D01*
X162566302Y-105572052D01*
X162723872Y-105428407D01*
X162852366Y-105258255D01*
X162895777Y-105171072D01*
X162943277Y-105119837D01*
X163010940Y-105102415D01*
X163077281Y-105124340D01*
X163121237Y-105178650D01*
X163128393Y-105202153D01*
X163148011Y-105300778D01*
X163148013Y-105300784D01*
X163199900Y-105426052D01*
X163275222Y-105538779D01*
X163275234Y-105538796D01*
X163371114Y-105634673D01*
X163371117Y-105634675D01*
X163371118Y-105634676D01*
X163371119Y-105634677D01*
X163483856Y-105710003D01*
X163483858Y-105710004D01*
X163609046Y-105761857D01*
X163609128Y-105761891D01*
X163742116Y-105788342D01*
X163809912Y-105788340D01*
X163810412Y-105788340D01*
X165486660Y-105788340D01*
X165487160Y-105788340D01*
X165487259Y-105788340D01*
X165499226Y-105788340D01*
X165499622Y-105788300D01*
X165554954Y-105788303D01*
X165687938Y-105761858D01*
X165813208Y-105709976D01*
X165925948Y-105634652D01*
X166021826Y-105538779D01*
X166097157Y-105426043D01*
X166103792Y-105410024D01*
X166149044Y-105300783D01*
X166149044Y-105300779D01*
X166149046Y-105300777D01*
X166157246Y-105259555D01*
X166175499Y-105167797D01*
X166175499Y-105167796D01*
X166175500Y-105100000D01*
X166175500Y-98399200D01*
X166175591Y-98398886D01*
X166175583Y-98279953D01*
X166173547Y-98269722D01*
X175369174Y-98269722D01*
X175369176Y-98337516D01*
X175369176Y-105088723D01*
X175370518Y-105095504D01*
X175371115Y-105099063D01*
X175372453Y-105108758D01*
X175373036Y-105117242D01*
X175373037Y-105156415D01*
X175399494Y-105289402D01*
X175399495Y-105289407D01*
X175451382Y-105414668D01*
X175526713Y-105527408D01*
X175526716Y-105527412D01*
X175622587Y-105623283D01*
X175622591Y-105623286D01*
X175735329Y-105698616D01*
X175735330Y-105698616D01*
X175735331Y-105698617D01*
X175795732Y-105723637D01*
X175860597Y-105750506D01*
X175993581Y-105776962D01*
X176036610Y-105776962D01*
X176036616Y-105776964D01*
X176061277Y-105776964D01*
X177790079Y-105776964D01*
X177790085Y-105776962D01*
X177806419Y-105776962D01*
X177939403Y-105750506D01*
X178064671Y-105698616D01*
X178177409Y-105623286D01*
X178273286Y-105527409D01*
X178326450Y-105447844D01*
X179080000Y-105447844D01*
X179086401Y-105507372D01*
X179086403Y-105507379D01*
X179136645Y-105642086D01*
X179136649Y-105642093D01*
X179222809Y-105757187D01*
X179222812Y-105757190D01*
X179337906Y-105843350D01*
X179337913Y-105843354D01*
X179472620Y-105893596D01*
X179472627Y-105893598D01*
X179532155Y-105899999D01*
X179532172Y-105900000D01*
X180180000Y-105900000D01*
X180180000Y-104985501D01*
X180287685Y-105034680D01*
X180394237Y-105050000D01*
X180465763Y-105050000D01*
X180572315Y-105034680D01*
X180680000Y-104985501D01*
X180680000Y-105900000D01*
X181327828Y-105900000D01*
X181327844Y-105899999D01*
X181387372Y-105893598D01*
X181387379Y-105893596D01*
X181522086Y-105843354D01*
X181522093Y-105843350D01*
X181637187Y-105757190D01*
X181637190Y-105757187D01*
X181723350Y-105642093D01*
X181723354Y-105642086D01*
X181773596Y-105507379D01*
X181773598Y-105507372D01*
X181779999Y-105447844D01*
X181780000Y-105447827D01*
X181780000Y-105253268D01*
X181799685Y-105186229D01*
X181852489Y-105140474D01*
X181921647Y-105130530D01*
X181985203Y-105159555D01*
X182002950Y-105178537D01*
X182059385Y-105253268D01*
X182086672Y-105289402D01*
X182116128Y-105328407D01*
X182273698Y-105472052D01*
X182454981Y-105584298D01*
X182653802Y-105661321D01*
X182863390Y-105700500D01*
X182863392Y-105700500D01*
X183076608Y-105700500D01*
X183076610Y-105700500D01*
X183286198Y-105661321D01*
X183485019Y-105584298D01*
X183666302Y-105472052D01*
X183823872Y-105328407D01*
X183952366Y-105158255D01*
X183966171Y-105130530D01*
X184047403Y-104967394D01*
X184047403Y-104967393D01*
X184047405Y-104967389D01*
X184105756Y-104762310D01*
X184116529Y-104646047D01*
X184142315Y-104581111D01*
X184184622Y-104550804D01*
X184293130Y-104550804D01*
X184329503Y-104571668D01*
X184361693Y-104633681D01*
X184363470Y-104646047D01*
X184363837Y-104650000D01*
X184374244Y-104762310D01*
X184432596Y-104967392D01*
X184432596Y-104967394D01*
X184527632Y-105158253D01*
X184635263Y-105300778D01*
X184656128Y-105328407D01*
X184813698Y-105472052D01*
X184994981Y-105584298D01*
X185193802Y-105661321D01*
X185403390Y-105700500D01*
X185403392Y-105700500D01*
X185616608Y-105700500D01*
X185616610Y-105700500D01*
X185826198Y-105661321D01*
X186025019Y-105584298D01*
X186206302Y-105472052D01*
X186363872Y-105328407D01*
X186492366Y-105158255D01*
X186506171Y-105130530D01*
X186587403Y-104967394D01*
X186587403Y-104967393D01*
X186587405Y-104967389D01*
X186645756Y-104762310D01*
X186656529Y-104646047D01*
X186682315Y-104581111D01*
X186724622Y-104550804D01*
X186833130Y-104550804D01*
X186869503Y-104571668D01*
X186901693Y-104633681D01*
X186903470Y-104646047D01*
X186903837Y-104650000D01*
X186914244Y-104762310D01*
X186972596Y-104967392D01*
X186972596Y-104967394D01*
X187067632Y-105158253D01*
X187175263Y-105300778D01*
X187196128Y-105328407D01*
X187353698Y-105472052D01*
X187534981Y-105584298D01*
X187733802Y-105661321D01*
X187943390Y-105700500D01*
X187943392Y-105700500D01*
X188156608Y-105700500D01*
X188156610Y-105700500D01*
X188366198Y-105661321D01*
X188565019Y-105584298D01*
X188746302Y-105472052D01*
X188903872Y-105328407D01*
X189032366Y-105158255D01*
X189046171Y-105130530D01*
X189127403Y-104967394D01*
X189127403Y-104967393D01*
X189127405Y-104967389D01*
X189185756Y-104762310D01*
X189196529Y-104646047D01*
X189222315Y-104581111D01*
X189264622Y-104550804D01*
X189373130Y-104550804D01*
X189409503Y-104571668D01*
X189441693Y-104633681D01*
X189443470Y-104646047D01*
X189443837Y-104650000D01*
X189454244Y-104762310D01*
X189512596Y-104967392D01*
X189512596Y-104967394D01*
X189607632Y-105158253D01*
X189715263Y-105300778D01*
X189736128Y-105328407D01*
X189893698Y-105472052D01*
X190074981Y-105584298D01*
X190273802Y-105661321D01*
X190483390Y-105700500D01*
X190483392Y-105700500D01*
X190696608Y-105700500D01*
X190696610Y-105700500D01*
X190906198Y-105661321D01*
X191105019Y-105584298D01*
X191286302Y-105472052D01*
X191443872Y-105328407D01*
X191572366Y-105158255D01*
X191586171Y-105130530D01*
X191667403Y-104967394D01*
X191667403Y-104967393D01*
X191667405Y-104967389D01*
X191725756Y-104762310D01*
X191745429Y-104550000D01*
X191725756Y-104337690D01*
X191667405Y-104132611D01*
X191667403Y-104132606D01*
X191667403Y-104132605D01*
X191572367Y-103941746D01*
X191443872Y-103771593D01*
X191312874Y-103652172D01*
X191286302Y-103627948D01*
X191105019Y-103515702D01*
X191105017Y-103515701D01*
X190955829Y-103457906D01*
X190906198Y-103438679D01*
X190696610Y-103399500D01*
X190483390Y-103399500D01*
X190273802Y-103438679D01*
X190273799Y-103438679D01*
X190273799Y-103438680D01*
X190074982Y-103515701D01*
X190074980Y-103515702D01*
X189893699Y-103627947D01*
X189736127Y-103771593D01*
X189607632Y-103941746D01*
X189512596Y-104132605D01*
X189512596Y-104132607D01*
X189454244Y-104337689D01*
X189443471Y-104453951D01*
X189417685Y-104518888D01*
X189373130Y-104550804D01*
X189264622Y-104550804D01*
X189266869Y-104549194D01*
X189230497Y-104528331D01*
X189198307Y-104466318D01*
X189196529Y-104453951D01*
X189195022Y-104437689D01*
X189185756Y-104337690D01*
X189127405Y-104132611D01*
X189127403Y-104132606D01*
X189127403Y-104132605D01*
X189032367Y-103941746D01*
X188903872Y-103771593D01*
X188772874Y-103652172D01*
X188746302Y-103627948D01*
X188565019Y-103515702D01*
X188565017Y-103515701D01*
X188415829Y-103457906D01*
X188366198Y-103438679D01*
X188156610Y-103399500D01*
X187943390Y-103399500D01*
X187733802Y-103438679D01*
X187733799Y-103438679D01*
X187733799Y-103438680D01*
X187534982Y-103515701D01*
X187534980Y-103515702D01*
X187353699Y-103627947D01*
X187196127Y-103771593D01*
X187067632Y-103941746D01*
X186972596Y-104132605D01*
X186972596Y-104132607D01*
X186914244Y-104337689D01*
X186903471Y-104453951D01*
X186877685Y-104518888D01*
X186833130Y-104550804D01*
X186724622Y-104550804D01*
X186726869Y-104549194D01*
X186690497Y-104528331D01*
X186658307Y-104466318D01*
X186656529Y-104453951D01*
X186655022Y-104437689D01*
X186645756Y-104337690D01*
X186587405Y-104132611D01*
X186587403Y-104132606D01*
X186587403Y-104132605D01*
X186492367Y-103941746D01*
X186363872Y-103771593D01*
X186232874Y-103652172D01*
X186206302Y-103627948D01*
X186025019Y-103515702D01*
X186025017Y-103515701D01*
X185875829Y-103457906D01*
X185826198Y-103438679D01*
X185616610Y-103399500D01*
X185403390Y-103399500D01*
X185193802Y-103438679D01*
X185193799Y-103438679D01*
X185193799Y-103438680D01*
X184994982Y-103515701D01*
X184994980Y-103515702D01*
X184813699Y-103627947D01*
X184656127Y-103771593D01*
X184527632Y-103941746D01*
X184432596Y-104132605D01*
X184432596Y-104132607D01*
X184374244Y-104337689D01*
X184363471Y-104453951D01*
X184337685Y-104518888D01*
X184293130Y-104550804D01*
X184184622Y-104550804D01*
X184186869Y-104549194D01*
X184150497Y-104528331D01*
X184118307Y-104466318D01*
X184116529Y-104453951D01*
X184115022Y-104437689D01*
X184105756Y-104337690D01*
X184047405Y-104132611D01*
X184047403Y-104132606D01*
X184047403Y-104132605D01*
X183952367Y-103941746D01*
X183823872Y-103771593D01*
X183692874Y-103652172D01*
X183666302Y-103627948D01*
X183485019Y-103515702D01*
X183485017Y-103515701D01*
X183335829Y-103457906D01*
X183286198Y-103438679D01*
X183076610Y-103399500D01*
X182863390Y-103399500D01*
X182653802Y-103438679D01*
X182653799Y-103438679D01*
X182653799Y-103438680D01*
X182454982Y-103515701D01*
X182454980Y-103515702D01*
X182273699Y-103627947D01*
X182116127Y-103771593D01*
X182002954Y-103921458D01*
X181946845Y-103963094D01*
X181877133Y-103967785D01*
X181815951Y-103934043D01*
X181782724Y-103872579D01*
X181780000Y-103846731D01*
X181780000Y-103652172D01*
X181779999Y-103652155D01*
X181773598Y-103592627D01*
X181773596Y-103592620D01*
X181723354Y-103457913D01*
X181723350Y-103457906D01*
X181637190Y-103342812D01*
X181637187Y-103342809D01*
X181522093Y-103256649D01*
X181522086Y-103256645D01*
X181387379Y-103206403D01*
X181387372Y-103206401D01*
X181327844Y-103200000D01*
X180680000Y-103200000D01*
X180680000Y-104114498D01*
X180572315Y-104065320D01*
X180465763Y-104050000D01*
X180394237Y-104050000D01*
X180287685Y-104065320D01*
X180180000Y-104114498D01*
X180180000Y-103200000D01*
X179532155Y-103200000D01*
X179472627Y-103206401D01*
X179472620Y-103206403D01*
X179337913Y-103256645D01*
X179337906Y-103256649D01*
X179222812Y-103342809D01*
X179222809Y-103342812D01*
X179136649Y-103457906D01*
X179136645Y-103457913D01*
X179086403Y-103592620D01*
X179086401Y-103592627D01*
X179080000Y-103652155D01*
X179080000Y-104300000D01*
X179996314Y-104300000D01*
X179970507Y-104340156D01*
X179930000Y-104478111D01*
X179930000Y-104621889D01*
X179970507Y-104759844D01*
X179996314Y-104800000D01*
X179080000Y-104800000D01*
X179080000Y-105447844D01*
X178326450Y-105447844D01*
X178348616Y-105414671D01*
X178400506Y-105289403D01*
X178426962Y-105156419D01*
X178426964Y-105088624D01*
X178426964Y-105088124D01*
X178426964Y-98336277D01*
X178426964Y-98311616D01*
X178426962Y-98311610D01*
X178426962Y-98269722D01*
X192144174Y-98269722D01*
X192144176Y-98337516D01*
X192144176Y-105088727D01*
X192145677Y-105096313D01*
X192148036Y-105120377D01*
X192148037Y-105156415D01*
X192174494Y-105289402D01*
X192174495Y-105289407D01*
X192226382Y-105414668D01*
X192301713Y-105527408D01*
X192301716Y-105527412D01*
X192397587Y-105623283D01*
X192397591Y-105623286D01*
X192510329Y-105698616D01*
X192510330Y-105698616D01*
X192510331Y-105698617D01*
X192570732Y-105723637D01*
X192635597Y-105750506D01*
X192768581Y-105776962D01*
X192811610Y-105776962D01*
X192811616Y-105776964D01*
X192836277Y-105776964D01*
X194565079Y-105776964D01*
X194565085Y-105776962D01*
X194581419Y-105776962D01*
X194714403Y-105750506D01*
X194839671Y-105698616D01*
X194952409Y-105623286D01*
X195048286Y-105527409D01*
X195123616Y-105414671D01*
X195175506Y-105289403D01*
X195201962Y-105156419D01*
X195201964Y-105088624D01*
X195201964Y-105088124D01*
X195201964Y-98336277D01*
X195201964Y-98311616D01*
X195201962Y-98311610D01*
X195201962Y-98268581D01*
X195175506Y-98135597D01*
X195154425Y-98084706D01*
X195123617Y-98010331D01*
X195086322Y-97954516D01*
X195048286Y-97897591D01*
X195048283Y-97897587D01*
X194952412Y-97801716D01*
X194952408Y-97801713D01*
X194839668Y-97726382D01*
X194714407Y-97674495D01*
X194714403Y-97674494D01*
X194581419Y-97648038D01*
X194581418Y-97648037D01*
X194581417Y-97648037D01*
X194513723Y-97648036D01*
X192832417Y-97648036D01*
X192826133Y-97648036D01*
X192814504Y-97649175D01*
X192764722Y-97649174D01*
X192764721Y-97649174D01*
X192764720Y-97649174D01*
X192631733Y-97675625D01*
X192631731Y-97675626D01*
X192631727Y-97675627D01*
X192506462Y-97727511D01*
X192393715Y-97802845D01*
X192297845Y-97898715D01*
X192222511Y-98011462D01*
X192170627Y-98136727D01*
X192170625Y-98136733D01*
X192144174Y-98269720D01*
X192144174Y-98269722D01*
X178426962Y-98269722D01*
X178426962Y-98268581D01*
X178400506Y-98135597D01*
X178379425Y-98084706D01*
X178348617Y-98010331D01*
X178311322Y-97954516D01*
X178273286Y-97897591D01*
X178273283Y-97897587D01*
X178177412Y-97801716D01*
X178177408Y-97801713D01*
X178064668Y-97726382D01*
X177939407Y-97674495D01*
X177939403Y-97674494D01*
X177806419Y-97648038D01*
X177806418Y-97648037D01*
X177806417Y-97648037D01*
X177738723Y-97648036D01*
X176057417Y-97648036D01*
X176051131Y-97648036D01*
X176039510Y-97649174D01*
X175989722Y-97649174D01*
X175989721Y-97649174D01*
X175989720Y-97649174D01*
X175856733Y-97675625D01*
X175856731Y-97675626D01*
X175856727Y-97675627D01*
X175731462Y-97727511D01*
X175618715Y-97802845D01*
X175522845Y-97898715D01*
X175447511Y-98011462D01*
X175395627Y-98136727D01*
X175395625Y-98136733D01*
X175369174Y-98269720D01*
X175369174Y-98269722D01*
X166173547Y-98269722D01*
X166149350Y-98148114D01*
X166149120Y-98146960D01*
X166097220Y-98021686D01*
X166021878Y-97908944D01*
X165925988Y-97813066D01*
X165908999Y-97801716D01*
X165853864Y-97764881D01*
X165813236Y-97737738D01*
X165785820Y-97726384D01*
X165687958Y-97685855D01*
X165687952Y-97685853D01*
X165554961Y-97659408D01*
X165554960Y-97659408D01*
X165521060Y-97659410D01*
X165487159Y-97659412D01*
X163799475Y-97659412D01*
X163788247Y-97660512D01*
X163738256Y-97660515D01*
X163605266Y-97686977D01*
X163605262Y-97686978D01*
X163479999Y-97738872D01*
X163479996Y-97738873D01*
X163368970Y-97813066D01*
X163367260Y-97814209D01*
X163367257Y-97814211D01*
X163367257Y-97814212D01*
X163271383Y-97910090D01*
X163271379Y-97910095D01*
X163196057Y-98022827D01*
X163196052Y-98022837D01*
X163144165Y-98148105D01*
X163144162Y-98148114D01*
X163117712Y-98281090D01*
X163117712Y-104047416D01*
X163098027Y-104114455D01*
X163045223Y-104160210D01*
X162976065Y-104170154D01*
X162912509Y-104141129D01*
X162882712Y-104102688D01*
X162856476Y-104050000D01*
X162852366Y-104041745D01*
X162723872Y-103871593D01*
X162566302Y-103727948D01*
X162385019Y-103615702D01*
X162385017Y-103615701D01*
X162235829Y-103557906D01*
X162186198Y-103538679D01*
X161976610Y-103499500D01*
X161763390Y-103499500D01*
X161553802Y-103538679D01*
X161553799Y-103538679D01*
X161553799Y-103538680D01*
X161354982Y-103615701D01*
X161354980Y-103615702D01*
X161173699Y-103727947D01*
X161016127Y-103871593D01*
X160887632Y-104041746D01*
X160792596Y-104232605D01*
X160792596Y-104232607D01*
X160734244Y-104437689D01*
X160723471Y-104553951D01*
X160697685Y-104618888D01*
X160653130Y-104650804D01*
X160544622Y-104650804D01*
X160546869Y-104649194D01*
X160510497Y-104628331D01*
X160478307Y-104566318D01*
X160476529Y-104553951D01*
X160469501Y-104478111D01*
X160465756Y-104437690D01*
X160407405Y-104232611D01*
X160407403Y-104232606D01*
X160407403Y-104232605D01*
X160312367Y-104041746D01*
X160183872Y-103871593D01*
X160156600Y-103846731D01*
X160026302Y-103727948D01*
X159845019Y-103615702D01*
X159845017Y-103615701D01*
X159695829Y-103557906D01*
X159646198Y-103538679D01*
X159436610Y-103499500D01*
X159223390Y-103499500D01*
X159013802Y-103538679D01*
X159013799Y-103538679D01*
X159013799Y-103538680D01*
X158814982Y-103615701D01*
X158814980Y-103615702D01*
X158633699Y-103727947D01*
X158476127Y-103871593D01*
X158347632Y-104041746D01*
X158252596Y-104232605D01*
X158252596Y-104232607D01*
X158194244Y-104437689D01*
X158183471Y-104553951D01*
X158157685Y-104618888D01*
X158113130Y-104650804D01*
X158004622Y-104650804D01*
X158006869Y-104649194D01*
X157970497Y-104628331D01*
X157938307Y-104566318D01*
X157936529Y-104553951D01*
X157929501Y-104478111D01*
X157925756Y-104437690D01*
X157867405Y-104232611D01*
X157867403Y-104232606D01*
X157867403Y-104232605D01*
X157772367Y-104041746D01*
X157643872Y-103871593D01*
X157616600Y-103846731D01*
X157486302Y-103727948D01*
X157305019Y-103615702D01*
X157305017Y-103615701D01*
X157155829Y-103557906D01*
X157106198Y-103538679D01*
X156896610Y-103499500D01*
X156683390Y-103499500D01*
X156473802Y-103538679D01*
X156473799Y-103538679D01*
X156473799Y-103538680D01*
X156274982Y-103615701D01*
X156274980Y-103615702D01*
X156093699Y-103727947D01*
X155936127Y-103871593D01*
X155807632Y-104041746D01*
X155712596Y-104232605D01*
X155712596Y-104232607D01*
X155654244Y-104437689D01*
X155643471Y-104553951D01*
X155617685Y-104618888D01*
X155573130Y-104650804D01*
X155464622Y-104650804D01*
X155466869Y-104649194D01*
X155430497Y-104628331D01*
X155398307Y-104566318D01*
X155396529Y-104553951D01*
X155389501Y-104478111D01*
X155385756Y-104437690D01*
X155327405Y-104232611D01*
X155327403Y-104232606D01*
X155327403Y-104232605D01*
X155232367Y-104041746D01*
X155103872Y-103871593D01*
X155076600Y-103846731D01*
X154946302Y-103727948D01*
X154765019Y-103615702D01*
X154765017Y-103615701D01*
X154615829Y-103557906D01*
X154566198Y-103538679D01*
X154356610Y-103499500D01*
X154143390Y-103499500D01*
X153933802Y-103538679D01*
X153933799Y-103538679D01*
X153933799Y-103538680D01*
X153734982Y-103615701D01*
X153734980Y-103615702D01*
X153553699Y-103727947D01*
X153396127Y-103871593D01*
X153282954Y-104021458D01*
X153226845Y-104063094D01*
X153157133Y-104067785D01*
X153095951Y-104034043D01*
X153062724Y-103972579D01*
X153060000Y-103946731D01*
X153060000Y-103752172D01*
X153059999Y-103752155D01*
X153053598Y-103692627D01*
X153053596Y-103692620D01*
X153003354Y-103557913D01*
X153003350Y-103557906D01*
X152917190Y-103442812D01*
X152917187Y-103442809D01*
X152802093Y-103356649D01*
X152802086Y-103356645D01*
X152667379Y-103306403D01*
X152667372Y-103306401D01*
X152607844Y-103300000D01*
X151960000Y-103300000D01*
X151960000Y-104214498D01*
X151852315Y-104165320D01*
X151745763Y-104150000D01*
X151674237Y-104150000D01*
X151567685Y-104165320D01*
X151460000Y-104214498D01*
X151460000Y-103300000D01*
X150812155Y-103300000D01*
X150752627Y-103306401D01*
X150752620Y-103306403D01*
X150617913Y-103356645D01*
X150617906Y-103356649D01*
X150502812Y-103442809D01*
X150502809Y-103442812D01*
X150416649Y-103557906D01*
X150416645Y-103557913D01*
X150366403Y-103692620D01*
X150366401Y-103692627D01*
X150360000Y-103752155D01*
X150360000Y-104400000D01*
X151276314Y-104400000D01*
X151250507Y-104440156D01*
X151210000Y-104578111D01*
X151210000Y-104721889D01*
X151250507Y-104859844D01*
X151276314Y-104900000D01*
X150360000Y-104900000D01*
X150360000Y-105547844D01*
X149302851Y-105547844D01*
X149323286Y-105527409D01*
X149398616Y-105414671D01*
X149450506Y-105289403D01*
X149476962Y-105156419D01*
X149476964Y-105088624D01*
X149476964Y-105088124D01*
X149476964Y-98336277D01*
X149476964Y-98311616D01*
X149476962Y-98311610D01*
X149476962Y-98268581D01*
X149450506Y-98135597D01*
X149429425Y-98084706D01*
X149398617Y-98010331D01*
X149361322Y-97954516D01*
X149323286Y-97897591D01*
X149323283Y-97897587D01*
X149227412Y-97801716D01*
X149227408Y-97801713D01*
X149114668Y-97726382D01*
X148989407Y-97674495D01*
X148989403Y-97674494D01*
X148856419Y-97648038D01*
X148856418Y-97648037D01*
X148856417Y-97648037D01*
X148788624Y-97648036D01*
X148788124Y-97648036D01*
X148741293Y-97648036D01*
X148736310Y-97648571D01*
X147844844Y-97649176D01*
X147107516Y-97649176D01*
X147039722Y-97649174D01*
X147039721Y-97649174D01*
X147039720Y-97649174D01*
X146906733Y-97675625D01*
X146906731Y-97675626D01*
X146906727Y-97675627D01*
X146781462Y-97727511D01*
X146668715Y-97802845D01*
X146572845Y-97898715D01*
X146497511Y-98011462D01*
X146445627Y-98136727D01*
X146445625Y-98136733D01*
X146419174Y-98269720D01*
X146419174Y-98269722D01*
X145725000Y-98269722D01*
X145725000Y-96000000D01*
X171894355Y-96000000D01*
X171914859Y-96168869D01*
X171914860Y-96168874D01*
X171975182Y-96327931D01*
X172037475Y-96418177D01*
X172071817Y-96467929D01*
X172177505Y-96561560D01*
X172199150Y-96580736D01*
X172349773Y-96659789D01*
X172349775Y-96659790D01*
X172514944Y-96700500D01*
X172685056Y-96700500D01*
X172850225Y-96659790D01*
X172929692Y-96618081D01*
X173000849Y-96580736D01*
X173000850Y-96580734D01*
X173000852Y-96580734D01*
X173128183Y-96467929D01*
X173224818Y-96327930D01*
X173285140Y-96168872D01*
X173305645Y-96000000D01*
X173285140Y-95831128D01*
X173224818Y-95672070D01*
X173128183Y-95532071D01*
X173033316Y-95448026D01*
X173000849Y-95419263D01*
X172850226Y-95340210D01*
X172685056Y-95299500D01*
X172514944Y-95299500D01*
X172349773Y-95340210D01*
X172199150Y-95419263D01*
X172071816Y-95532072D01*
X171975182Y-95672068D01*
X171914860Y-95831125D01*
X171914859Y-95831130D01*
X171894355Y-96000000D01*
X145725000Y-96000000D01*
X145725000Y-94320000D01*
X161829571Y-94320000D01*
X161849244Y-94532310D01*
X161907596Y-94737392D01*
X161907596Y-94737394D01*
X162002632Y-94928253D01*
X162002634Y-94928255D01*
X162131128Y-95098407D01*
X162288698Y-95242052D01*
X162469981Y-95354298D01*
X162668802Y-95431321D01*
X162878390Y-95470500D01*
X162878392Y-95470500D01*
X163091608Y-95470500D01*
X163091610Y-95470500D01*
X163301198Y-95431321D01*
X163500019Y-95354298D01*
X163681302Y-95242052D01*
X163838872Y-95098407D01*
X163967366Y-94928255D01*
X164062405Y-94737389D01*
X164120756Y-94532310D01*
X164127029Y-94464605D01*
X164152814Y-94399669D01*
X164209614Y-94358981D01*
X164279395Y-94355461D01*
X164340002Y-94390225D01*
X164372193Y-94452238D01*
X164374500Y-94476047D01*
X164374500Y-95214856D01*
X164374502Y-95214882D01*
X164377413Y-95239987D01*
X164377415Y-95239991D01*
X164422793Y-95342764D01*
X164422794Y-95342765D01*
X164502235Y-95422206D01*
X164605009Y-95467585D01*
X164630135Y-95470500D01*
X166419864Y-95470499D01*
X166419879Y-95470497D01*
X166419882Y-95470497D01*
X166444987Y-95467586D01*
X166444988Y-95467585D01*
X166444991Y-95467585D01*
X166547765Y-95422206D01*
X166627206Y-95342765D01*
X166672585Y-95239991D01*
X166675500Y-95214865D01*
X166675499Y-93425136D01*
X166675497Y-93425117D01*
X166672586Y-93400012D01*
X166672585Y-93400010D01*
X166672585Y-93400009D01*
X166627206Y-93297235D01*
X166547765Y-93217794D01*
X166527124Y-93208680D01*
X166444992Y-93172415D01*
X166419868Y-93169500D01*
X165691243Y-93169500D01*
X165624204Y-93149815D01*
X165578449Y-93097011D01*
X165568505Y-93027853D01*
X165597530Y-92964297D01*
X165656308Y-92926523D01*
X165668441Y-92923614D01*
X165841198Y-92891321D01*
X166040019Y-92814298D01*
X166221302Y-92702052D01*
X166378872Y-92558407D01*
X166507366Y-92388255D01*
X166602405Y-92197389D01*
X166660756Y-91992310D01*
X166680429Y-91780000D01*
X166660756Y-91567690D01*
X166602405Y-91362611D01*
X166602403Y-91362606D01*
X166602403Y-91362605D01*
X166507367Y-91171746D01*
X166378872Y-91001593D01*
X166221302Y-90857948D01*
X166040019Y-90745702D01*
X166040017Y-90745701D01*
X165922050Y-90700001D01*
X170294318Y-90700001D01*
X170314955Y-90856760D01*
X170314956Y-90856762D01*
X170375464Y-91002841D01*
X170471718Y-91128282D01*
X170597159Y-91224536D01*
X170743238Y-91285044D01*
X170821619Y-91295363D01*
X170899999Y-91305682D01*
X170900000Y-91305682D01*
X170900001Y-91305682D01*
X170952254Y-91298802D01*
X171056762Y-91285044D01*
X171202841Y-91224536D01*
X171328282Y-91128282D01*
X171424536Y-91002841D01*
X171485044Y-90856762D01*
X171505682Y-90700000D01*
X171485044Y-90543238D01*
X171424536Y-90397159D01*
X171328282Y-90271718D01*
X171202841Y-90175464D01*
X171056762Y-90114956D01*
X171056760Y-90114955D01*
X170900001Y-90094318D01*
X170899999Y-90094318D01*
X170743239Y-90114955D01*
X170743237Y-90114956D01*
X170597160Y-90175463D01*
X170471718Y-90271718D01*
X170375463Y-90397160D01*
X170314956Y-90543237D01*
X170314955Y-90543239D01*
X170294318Y-90699998D01*
X170294318Y-90700001D01*
X165922050Y-90700001D01*
X165841198Y-90668679D01*
X165644385Y-90631888D01*
X165582106Y-90600221D01*
X165546833Y-90539908D01*
X165549767Y-90470100D01*
X165589976Y-90412960D01*
X165644384Y-90388111D01*
X165841198Y-90351321D01*
X166040019Y-90274298D01*
X166221302Y-90162052D01*
X166378872Y-90018407D01*
X166507366Y-89848255D01*
X166507578Y-89847829D01*
X166602403Y-89657394D01*
X166602403Y-89657393D01*
X166602405Y-89657389D01*
X166647187Y-89500000D01*
X187944815Y-89500000D01*
X187963503Y-89677805D01*
X187963504Y-89677807D01*
X188018747Y-89847829D01*
X188018750Y-89847835D01*
X188108141Y-90002665D01*
X188149812Y-90048946D01*
X188227764Y-90135521D01*
X188227767Y-90135523D01*
X188227770Y-90135526D01*
X188372407Y-90240612D01*
X188535733Y-90313329D01*
X188710609Y-90350500D01*
X188710610Y-90350500D01*
X188889389Y-90350500D01*
X188889391Y-90350500D01*
X189064267Y-90313329D01*
X189227593Y-90240612D01*
X189372230Y-90135526D01*
X189390752Y-90114956D01*
X189409334Y-90094318D01*
X189491859Y-90002665D01*
X189581250Y-89847835D01*
X189636497Y-89677803D01*
X189655185Y-89500000D01*
X189636497Y-89322197D01*
X189599185Y-89207364D01*
X189581252Y-89152170D01*
X189581249Y-89152164D01*
X189491859Y-88997335D01*
X189445003Y-88945296D01*
X189372235Y-88864478D01*
X189372232Y-88864476D01*
X189372231Y-88864475D01*
X189372230Y-88864474D01*
X189227593Y-88759388D01*
X189064267Y-88686671D01*
X189064265Y-88686670D01*
X188936594Y-88659533D01*
X188889391Y-88649500D01*
X188710609Y-88649500D01*
X188679954Y-88656015D01*
X188535733Y-88686670D01*
X188535728Y-88686672D01*
X188372408Y-88759387D01*
X188227768Y-88864475D01*
X188108140Y-88997336D01*
X188018750Y-89152164D01*
X188018747Y-89152170D01*
X187963504Y-89322192D01*
X187963503Y-89322194D01*
X187944815Y-89500000D01*
X166647187Y-89500000D01*
X166660756Y-89452310D01*
X166680429Y-89240000D01*
X166660756Y-89027690D01*
X166602405Y-88822611D01*
X166602403Y-88822606D01*
X166602403Y-88822605D01*
X166507367Y-88631746D01*
X166378872Y-88461593D01*
X166276128Y-88367929D01*
X166221302Y-88317948D01*
X166040019Y-88205702D01*
X166040017Y-88205701D01*
X165940608Y-88167190D01*
X165841198Y-88128679D01*
X165644385Y-88091888D01*
X165582106Y-88060221D01*
X165546833Y-87999908D01*
X165549767Y-87930100D01*
X165570948Y-87900000D01*
X179594355Y-87900000D01*
X179614859Y-88068869D01*
X179614860Y-88068874D01*
X179675182Y-88227931D01*
X179737317Y-88317947D01*
X179771817Y-88367929D01*
X179842782Y-88430798D01*
X179899150Y-88480736D01*
X179983397Y-88524952D01*
X180049775Y-88559790D01*
X180214944Y-88600500D01*
X180385056Y-88600500D01*
X180550225Y-88559790D01*
X180629692Y-88518081D01*
X180700849Y-88480736D01*
X180700850Y-88480734D01*
X180700852Y-88480734D01*
X180828183Y-88367929D01*
X180924818Y-88227930D01*
X180985140Y-88068872D01*
X180993503Y-88000000D01*
X182994355Y-88000000D01*
X183014859Y-88168869D01*
X183014860Y-88168874D01*
X183075182Y-88327931D01*
X183137475Y-88418177D01*
X183171817Y-88467929D01*
X183236183Y-88524952D01*
X183299150Y-88580736D01*
X183430169Y-88649500D01*
X183449775Y-88659790D01*
X183614944Y-88700500D01*
X183785056Y-88700500D01*
X183950225Y-88659790D01*
X184029692Y-88618081D01*
X184100849Y-88580736D01*
X184100850Y-88580734D01*
X184100852Y-88580734D01*
X184228183Y-88467929D01*
X184324818Y-88327930D01*
X184385140Y-88168872D01*
X184405645Y-88000000D01*
X184385140Y-87831128D01*
X184324818Y-87672070D01*
X184228183Y-87532071D01*
X184100852Y-87419266D01*
X184100849Y-87419263D01*
X183950226Y-87340210D01*
X183785056Y-87299500D01*
X183614944Y-87299500D01*
X183449773Y-87340210D01*
X183299150Y-87419263D01*
X183171816Y-87532072D01*
X183075182Y-87672068D01*
X183014860Y-87831125D01*
X183014859Y-87831130D01*
X182994355Y-88000000D01*
X180993503Y-88000000D01*
X181005645Y-87900000D01*
X180985140Y-87731128D01*
X180924818Y-87572070D01*
X180897208Y-87532071D01*
X180876909Y-87502663D01*
X180828183Y-87432071D01*
X180700852Y-87319266D01*
X180700849Y-87319263D01*
X180550226Y-87240210D01*
X180385056Y-87199500D01*
X180214944Y-87199500D01*
X180049773Y-87240210D01*
X179899150Y-87319263D01*
X179771816Y-87432072D01*
X179675182Y-87572068D01*
X179614860Y-87731125D01*
X179614859Y-87731130D01*
X179594355Y-87900000D01*
X165570948Y-87900000D01*
X165589976Y-87872960D01*
X165644384Y-87848111D01*
X165841198Y-87811321D01*
X166040019Y-87734298D01*
X166221302Y-87622052D01*
X166378872Y-87478407D01*
X166507366Y-87308255D01*
X166602405Y-87117389D01*
X166660756Y-86912310D01*
X166680429Y-86700000D01*
X166660756Y-86487690D01*
X166635806Y-86400000D01*
X171994355Y-86400000D01*
X172014859Y-86568869D01*
X172014860Y-86568874D01*
X172075182Y-86727931D01*
X172113664Y-86783681D01*
X172171817Y-86867929D01*
X172277505Y-86961560D01*
X172299150Y-86980736D01*
X172449773Y-87059789D01*
X172449775Y-87059790D01*
X172614944Y-87100500D01*
X172785056Y-87100500D01*
X172950225Y-87059790D01*
X173064144Y-87000000D01*
X174244815Y-87000000D01*
X174263503Y-87177805D01*
X174263504Y-87177807D01*
X174318747Y-87347829D01*
X174318750Y-87347835D01*
X174408141Y-87502665D01*
X174449812Y-87548946D01*
X174527764Y-87635521D01*
X174527767Y-87635523D01*
X174527770Y-87635526D01*
X174672407Y-87740612D01*
X174835733Y-87813329D01*
X175010609Y-87850500D01*
X175010610Y-87850500D01*
X175189389Y-87850500D01*
X175189391Y-87850500D01*
X175364267Y-87813329D01*
X175527593Y-87740612D01*
X175672230Y-87635526D01*
X175757852Y-87540432D01*
X175817336Y-87503787D01*
X175887193Y-87505116D01*
X175942147Y-87540432D01*
X176027770Y-87635526D01*
X176172407Y-87740612D01*
X176335733Y-87813329D01*
X176510609Y-87850500D01*
X176510610Y-87850500D01*
X176689389Y-87850500D01*
X176689391Y-87850500D01*
X176864267Y-87813329D01*
X177027593Y-87740612D01*
X177172230Y-87635526D01*
X177291859Y-87502665D01*
X177381250Y-87347835D01*
X177436497Y-87177803D01*
X177455185Y-87000000D01*
X177436497Y-86822197D01*
X177381250Y-86652165D01*
X177291859Y-86497335D01*
X177245003Y-86445296D01*
X177172235Y-86364478D01*
X177172232Y-86364476D01*
X177172231Y-86364475D01*
X177172230Y-86364474D01*
X177027593Y-86259388D01*
X176864267Y-86186671D01*
X176864265Y-86186670D01*
X176736594Y-86159533D01*
X176689391Y-86149500D01*
X176510609Y-86149500D01*
X176479954Y-86156015D01*
X176335733Y-86186670D01*
X176335728Y-86186672D01*
X176172408Y-86259387D01*
X176027771Y-86364473D01*
X176027770Y-86364474D01*
X175942148Y-86459565D01*
X175882663Y-86496213D01*
X175812806Y-86494882D01*
X175757850Y-86459564D01*
X175672235Y-86364478D01*
X175672232Y-86364476D01*
X175672231Y-86364475D01*
X175672230Y-86364474D01*
X175527593Y-86259388D01*
X175364267Y-86186671D01*
X175364265Y-86186670D01*
X175236594Y-86159533D01*
X175189391Y-86149500D01*
X175010609Y-86149500D01*
X174979954Y-86156015D01*
X174835733Y-86186670D01*
X174835728Y-86186672D01*
X174672408Y-86259387D01*
X174527768Y-86364475D01*
X174408140Y-86497336D01*
X174318750Y-86652164D01*
X174318747Y-86652170D01*
X174263504Y-86822192D01*
X174263503Y-86822194D01*
X174244815Y-87000000D01*
X173064144Y-87000000D01*
X173078194Y-86992626D01*
X173100849Y-86980736D01*
X173100850Y-86980734D01*
X173100852Y-86980734D01*
X173228183Y-86867929D01*
X173324818Y-86727930D01*
X173385140Y-86568872D01*
X173405645Y-86400000D01*
X173385140Y-86231128D01*
X173324818Y-86072070D01*
X173228183Y-85932071D01*
X173100852Y-85819266D01*
X173100849Y-85819263D01*
X172950226Y-85740210D01*
X172785056Y-85699500D01*
X172614944Y-85699500D01*
X172449773Y-85740210D01*
X172299150Y-85819263D01*
X172171816Y-85932072D01*
X172075182Y-86072068D01*
X172014860Y-86231125D01*
X172014859Y-86231130D01*
X171994355Y-86400000D01*
X166635806Y-86400000D01*
X166602405Y-86282611D01*
X166602403Y-86282606D01*
X166602403Y-86282605D01*
X166507367Y-86091746D01*
X166378872Y-85921593D01*
X166266625Y-85819266D01*
X166221302Y-85777948D01*
X166040019Y-85665702D01*
X166040017Y-85665701D01*
X165870421Y-85600000D01*
X165841198Y-85588679D01*
X165631610Y-85549500D01*
X165418390Y-85549500D01*
X165208802Y-85588679D01*
X165208799Y-85588679D01*
X165208799Y-85588680D01*
X165009982Y-85665701D01*
X165009980Y-85665702D01*
X164828699Y-85777947D01*
X164671127Y-85921593D01*
X164542632Y-86091746D01*
X164447596Y-86282605D01*
X164447596Y-86282607D01*
X164389244Y-86487689D01*
X164378471Y-86603951D01*
X164352685Y-86668888D01*
X164308130Y-86700804D01*
X164344503Y-86721668D01*
X164376693Y-86783681D01*
X164378471Y-86796048D01*
X164389244Y-86912310D01*
X164447596Y-87117392D01*
X164447596Y-87117394D01*
X164542632Y-87308253D01*
X164613398Y-87401961D01*
X164671128Y-87478407D01*
X164828698Y-87622052D01*
X165009981Y-87734298D01*
X165208802Y-87811321D01*
X165405613Y-87848111D01*
X165467893Y-87879779D01*
X165503166Y-87940092D01*
X165500232Y-88009900D01*
X165460023Y-88067040D01*
X165405613Y-88091888D01*
X165208802Y-88128679D01*
X165208799Y-88128679D01*
X165208799Y-88128680D01*
X165009982Y-88205701D01*
X165009980Y-88205702D01*
X164828699Y-88317947D01*
X164671127Y-88461593D01*
X164542632Y-88631746D01*
X164447596Y-88822605D01*
X164447596Y-88822607D01*
X164389244Y-89027689D01*
X164378471Y-89143951D01*
X164352685Y-89208888D01*
X164308130Y-89240804D01*
X164344503Y-89261668D01*
X164376693Y-89323681D01*
X164378471Y-89336048D01*
X164389244Y-89452310D01*
X164447596Y-89657392D01*
X164447596Y-89657394D01*
X164542632Y-89848253D01*
X164659240Y-90002665D01*
X164671128Y-90018407D01*
X164828698Y-90162052D01*
X165009981Y-90274298D01*
X165208802Y-90351321D01*
X165405613Y-90388111D01*
X165467893Y-90419779D01*
X165503166Y-90480092D01*
X165500232Y-90549900D01*
X165460023Y-90607040D01*
X165405613Y-90631888D01*
X165208802Y-90668679D01*
X165208799Y-90668679D01*
X165208799Y-90668680D01*
X165009982Y-90745701D01*
X165009980Y-90745702D01*
X164828699Y-90857947D01*
X164671127Y-91001593D01*
X164542632Y-91171746D01*
X164447596Y-91362605D01*
X164447596Y-91362607D01*
X164389244Y-91567689D01*
X164378471Y-91683951D01*
X164352685Y-91748888D01*
X164308130Y-91780804D01*
X164344503Y-91801668D01*
X164376693Y-91863681D01*
X164378471Y-91876048D01*
X164389244Y-91992310D01*
X164447596Y-92197392D01*
X164447596Y-92197394D01*
X164542632Y-92388253D01*
X164542634Y-92388255D01*
X164671128Y-92558407D01*
X164828698Y-92702052D01*
X165009981Y-92814298D01*
X165208802Y-92891321D01*
X165381544Y-92923612D01*
X165443823Y-92955279D01*
X165479096Y-93015591D01*
X165476162Y-93085400D01*
X165435953Y-93142540D01*
X165371235Y-93168871D01*
X165358757Y-93169500D01*
X164630143Y-93169500D01*
X164630117Y-93169502D01*
X164605012Y-93172413D01*
X164605008Y-93172415D01*
X164502235Y-93217793D01*
X164422794Y-93297234D01*
X164377415Y-93400006D01*
X164377415Y-93400008D01*
X164374500Y-93425131D01*
X164374500Y-94163951D01*
X164354815Y-94230990D01*
X164302011Y-94276745D01*
X164232853Y-94286689D01*
X164169297Y-94257664D01*
X164131523Y-94198886D01*
X164127029Y-94175391D01*
X164120756Y-94107689D01*
X164106273Y-94056789D01*
X164062405Y-93902611D01*
X164062403Y-93902606D01*
X164062403Y-93902605D01*
X163967367Y-93711746D01*
X163838872Y-93541593D01*
X163711133Y-93425143D01*
X163681302Y-93397948D01*
X163500019Y-93285702D01*
X163500017Y-93285701D01*
X163400608Y-93247190D01*
X163301198Y-93208679D01*
X163104385Y-93171888D01*
X163042106Y-93140221D01*
X163006833Y-93079908D01*
X163009767Y-93010100D01*
X163049976Y-92952960D01*
X163104384Y-92928111D01*
X163301198Y-92891321D01*
X163500019Y-92814298D01*
X163681302Y-92702052D01*
X163838872Y-92558407D01*
X163967366Y-92388255D01*
X164062405Y-92197389D01*
X164120756Y-91992310D01*
X164131529Y-91876047D01*
X164157315Y-91811111D01*
X164201869Y-91779194D01*
X164165497Y-91758331D01*
X164133307Y-91696318D01*
X164131529Y-91683951D01*
X164130849Y-91676613D01*
X164120756Y-91567690D01*
X164062405Y-91362611D01*
X164062403Y-91362606D01*
X164062403Y-91362605D01*
X163967367Y-91171746D01*
X163838872Y-91001593D01*
X163681302Y-90857948D01*
X163500019Y-90745702D01*
X163500017Y-90745701D01*
X163382050Y-90700001D01*
X163301198Y-90668679D01*
X163104385Y-90631888D01*
X163042106Y-90600221D01*
X163006833Y-90539908D01*
X163009767Y-90470100D01*
X163049976Y-90412960D01*
X163104384Y-90388111D01*
X163301198Y-90351321D01*
X163500019Y-90274298D01*
X163681302Y-90162052D01*
X163838872Y-90018407D01*
X163967366Y-89848255D01*
X163967578Y-89847829D01*
X164062403Y-89657394D01*
X164062403Y-89657393D01*
X164062405Y-89657389D01*
X164120756Y-89452310D01*
X164131529Y-89336047D01*
X164157315Y-89271111D01*
X164201869Y-89239194D01*
X164165497Y-89218331D01*
X164133307Y-89156318D01*
X164131529Y-89143951D01*
X164130849Y-89136613D01*
X164120756Y-89027690D01*
X164062405Y-88822611D01*
X164062403Y-88822606D01*
X164062403Y-88822605D01*
X163967367Y-88631746D01*
X163838872Y-88461593D01*
X163736128Y-88367929D01*
X163681302Y-88317948D01*
X163500019Y-88205702D01*
X163500017Y-88205701D01*
X163400608Y-88167190D01*
X163301198Y-88128679D01*
X163104385Y-88091888D01*
X163042106Y-88060221D01*
X163006833Y-87999908D01*
X163009767Y-87930100D01*
X163049976Y-87872960D01*
X163104384Y-87848111D01*
X163301198Y-87811321D01*
X163500019Y-87734298D01*
X163681302Y-87622052D01*
X163838872Y-87478407D01*
X163967366Y-87308255D01*
X164062405Y-87117389D01*
X164120756Y-86912310D01*
X164131529Y-86796047D01*
X164157315Y-86731111D01*
X164201869Y-86699194D01*
X164165497Y-86678331D01*
X164133307Y-86616318D01*
X164131529Y-86603951D01*
X164130849Y-86596613D01*
X164120756Y-86487690D01*
X164062405Y-86282611D01*
X164062403Y-86282606D01*
X164062403Y-86282605D01*
X163967367Y-86091746D01*
X163838872Y-85921593D01*
X163726625Y-85819266D01*
X163681302Y-85777948D01*
X163500019Y-85665702D01*
X163500017Y-85665701D01*
X163330421Y-85600000D01*
X163301198Y-85588679D01*
X163091610Y-85549500D01*
X162878390Y-85549500D01*
X162668802Y-85588679D01*
X162668799Y-85588679D01*
X162668799Y-85588680D01*
X162469982Y-85665701D01*
X162469980Y-85665702D01*
X162288699Y-85777947D01*
X162131127Y-85921593D01*
X162002632Y-86091746D01*
X161907596Y-86282605D01*
X161907596Y-86282607D01*
X161849244Y-86487689D01*
X161829571Y-86699999D01*
X161829571Y-86700000D01*
X161849244Y-86912310D01*
X161907596Y-87117392D01*
X161907596Y-87117394D01*
X162002632Y-87308253D01*
X162073398Y-87401961D01*
X162131128Y-87478407D01*
X162288698Y-87622052D01*
X162469981Y-87734298D01*
X162668802Y-87811321D01*
X162865613Y-87848111D01*
X162927893Y-87879779D01*
X162963166Y-87940092D01*
X162960232Y-88009900D01*
X162920023Y-88067040D01*
X162865613Y-88091888D01*
X162668802Y-88128679D01*
X162668799Y-88128679D01*
X162668799Y-88128680D01*
X162469982Y-88205701D01*
X162469980Y-88205702D01*
X162288699Y-88317947D01*
X162131127Y-88461593D01*
X162002632Y-88631746D01*
X161907596Y-88822605D01*
X161907596Y-88822607D01*
X161849244Y-89027689D01*
X161829571Y-89239999D01*
X161829571Y-89240000D01*
X161849244Y-89452310D01*
X161907596Y-89657392D01*
X161907596Y-89657394D01*
X162002632Y-89848253D01*
X162119240Y-90002665D01*
X162131128Y-90018407D01*
X162288698Y-90162052D01*
X162469981Y-90274298D01*
X162668802Y-90351321D01*
X162865613Y-90388111D01*
X162927893Y-90419779D01*
X162963166Y-90480092D01*
X162960232Y-90549900D01*
X162920023Y-90607040D01*
X162865613Y-90631888D01*
X162668802Y-90668679D01*
X162668799Y-90668679D01*
X162668799Y-90668680D01*
X162469982Y-90745701D01*
X162469980Y-90745702D01*
X162288699Y-90857947D01*
X162131127Y-91001593D01*
X162002632Y-91171746D01*
X161907596Y-91362605D01*
X161907596Y-91362607D01*
X161849244Y-91567689D01*
X161829571Y-91779999D01*
X161829571Y-91780000D01*
X161849244Y-91992310D01*
X161907596Y-92197392D01*
X161907596Y-92197394D01*
X162002632Y-92388253D01*
X162002634Y-92388255D01*
X162131128Y-92558407D01*
X162288698Y-92702052D01*
X162469981Y-92814298D01*
X162668802Y-92891321D01*
X162865613Y-92928111D01*
X162927893Y-92959779D01*
X162963166Y-93020092D01*
X162960232Y-93089900D01*
X162920023Y-93147040D01*
X162865613Y-93171888D01*
X162668802Y-93208679D01*
X162668799Y-93208679D01*
X162668799Y-93208680D01*
X162469982Y-93285701D01*
X162469980Y-93285702D01*
X162288699Y-93397947D01*
X162131127Y-93541593D01*
X162002632Y-93711746D01*
X161907596Y-93902605D01*
X161907596Y-93902607D01*
X161849244Y-94107689D01*
X161829571Y-94319999D01*
X161829571Y-94320000D01*
X145725000Y-94320000D01*
X145725000Y-88350000D01*
X148015960Y-88350000D01*
X148076411Y-88588716D01*
X148176267Y-88816367D01*
X148312232Y-89024478D01*
X148480592Y-89207364D01*
X148480602Y-89207373D01*
X148676762Y-89360051D01*
X148676771Y-89360057D01*
X148895385Y-89478364D01*
X148895396Y-89478369D01*
X149130507Y-89559083D01*
X149249999Y-89579023D01*
X149250000Y-89579022D01*
X149250000Y-88535501D01*
X149357685Y-88584680D01*
X149464237Y-88600000D01*
X149535763Y-88600000D01*
X149642315Y-88584680D01*
X149750000Y-88535501D01*
X149750000Y-89579023D01*
X149869492Y-89559083D01*
X150104603Y-89478369D01*
X150104614Y-89478364D01*
X150323228Y-89360057D01*
X150323237Y-89360051D01*
X150519397Y-89207373D01*
X150519407Y-89207364D01*
X150687767Y-89024478D01*
X150823732Y-88816367D01*
X150923588Y-88588716D01*
X150984040Y-88350000D01*
X149933686Y-88350000D01*
X149959493Y-88309844D01*
X150000000Y-88171889D01*
X150000000Y-88028111D01*
X149959493Y-87890156D01*
X149933686Y-87850000D01*
X150984040Y-87850000D01*
X150923588Y-87611283D01*
X150823732Y-87383632D01*
X150687767Y-87175521D01*
X150519407Y-86992635D01*
X150519397Y-86992626D01*
X150323237Y-86839948D01*
X150323228Y-86839942D01*
X150104614Y-86721635D01*
X150104603Y-86721630D01*
X149869492Y-86640916D01*
X149750000Y-86620976D01*
X149750000Y-87664498D01*
X149642315Y-87615320D01*
X149535763Y-87600000D01*
X149464237Y-87600000D01*
X149357685Y-87615320D01*
X149250000Y-87664498D01*
X149250000Y-86620976D01*
X149249999Y-86620976D01*
X149130507Y-86640916D01*
X148895396Y-86721630D01*
X148895385Y-86721635D01*
X148676771Y-86839942D01*
X148676762Y-86839948D01*
X148480602Y-86992626D01*
X148480592Y-86992635D01*
X148312232Y-87175521D01*
X148176267Y-87383632D01*
X148076411Y-87611283D01*
X148015960Y-87850000D01*
X149066314Y-87850000D01*
X149040507Y-87890156D01*
X149000000Y-88028111D01*
X149000000Y-88171889D01*
X149040507Y-88309844D01*
X149066314Y-88350000D01*
X148015960Y-88350000D01*
X145725000Y-88350000D01*
X145725000Y-84884856D01*
X152424500Y-84884856D01*
X152424502Y-84884882D01*
X152427413Y-84909987D01*
X152427415Y-84909991D01*
X152472793Y-85012764D01*
X152472794Y-85012765D01*
X152552235Y-85092206D01*
X152655009Y-85137585D01*
X152680135Y-85140500D01*
X154769864Y-85140499D01*
X154769879Y-85140497D01*
X154769882Y-85140497D01*
X154794987Y-85137586D01*
X154794988Y-85137585D01*
X154794991Y-85137585D01*
X154897765Y-85092206D01*
X154977206Y-85012765D01*
X155022585Y-84909991D01*
X155025500Y-84884865D01*
X155025500Y-84200005D01*
X155620202Y-84200005D01*
X155639361Y-84431218D01*
X155696317Y-84656135D01*
X155789516Y-84868609D01*
X155873811Y-84997633D01*
X156541922Y-84329523D01*
X156565507Y-84409844D01*
X156643239Y-84530798D01*
X156751900Y-84624952D01*
X156882685Y-84684680D01*
X156892466Y-84686086D01*
X156226199Y-85352351D01*
X156256650Y-85376050D01*
X156460697Y-85486476D01*
X156460706Y-85486479D01*
X156680139Y-85561811D01*
X156908993Y-85600000D01*
X157141007Y-85600000D01*
X157369860Y-85561811D01*
X157589293Y-85486479D01*
X157589302Y-85486476D01*
X157793350Y-85376050D01*
X157823798Y-85352351D01*
X157157533Y-84686086D01*
X157167315Y-84684680D01*
X157298100Y-84624952D01*
X157406761Y-84530798D01*
X157484493Y-84409844D01*
X157508076Y-84329524D01*
X158176186Y-84997634D01*
X158260484Y-84868606D01*
X158353682Y-84656135D01*
X158410638Y-84431218D01*
X158429798Y-84200005D01*
X158429798Y-84199994D01*
X158410638Y-83968781D01*
X158353682Y-83743864D01*
X158260483Y-83531390D01*
X158176186Y-83402364D01*
X157508076Y-84070475D01*
X157484493Y-83990156D01*
X157406761Y-83869202D01*
X157298100Y-83775048D01*
X157167315Y-83715320D01*
X157157534Y-83713913D01*
X157823799Y-83047648D01*
X157823799Y-83047647D01*
X157793349Y-83023949D01*
X157589302Y-82913523D01*
X157589293Y-82913520D01*
X157369860Y-82838188D01*
X157141007Y-82800000D01*
X156908993Y-82800000D01*
X156680139Y-82838188D01*
X156460706Y-82913520D01*
X156460698Y-82913523D01*
X156256644Y-83023952D01*
X156226200Y-83047646D01*
X156226200Y-83047647D01*
X156892466Y-83713913D01*
X156882685Y-83715320D01*
X156751900Y-83775048D01*
X156643239Y-83869202D01*
X156565507Y-83990156D01*
X156541923Y-84070476D01*
X155873812Y-83402365D01*
X155789516Y-83531391D01*
X155789514Y-83531395D01*
X155696317Y-83743864D01*
X155639361Y-83968781D01*
X155620202Y-84199994D01*
X155620202Y-84200005D01*
X155025500Y-84200005D01*
X155025499Y-82795136D01*
X155025497Y-82795117D01*
X155022586Y-82770012D01*
X155022585Y-82770010D01*
X155022585Y-82770009D01*
X154977206Y-82667235D01*
X154897765Y-82587794D01*
X154897763Y-82587793D01*
X154794992Y-82542415D01*
X154774175Y-82540000D01*
X161819571Y-82540000D01*
X161839244Y-82752310D01*
X161891373Y-82935523D01*
X161897596Y-82957392D01*
X161897596Y-82957394D01*
X161992632Y-83148253D01*
X161992634Y-83148255D01*
X162121128Y-83318407D01*
X162278698Y-83462052D01*
X162459981Y-83574298D01*
X162658802Y-83651321D01*
X162868390Y-83690500D01*
X162868392Y-83690500D01*
X163081608Y-83690500D01*
X163081610Y-83690500D01*
X163291198Y-83651321D01*
X163490019Y-83574298D01*
X163671302Y-83462052D01*
X163828872Y-83318407D01*
X163957366Y-83148255D01*
X164007462Y-83047648D01*
X164052403Y-82957394D01*
X164052403Y-82957393D01*
X164052405Y-82957389D01*
X164110756Y-82752310D01*
X164117029Y-82684605D01*
X164142814Y-82619669D01*
X164199614Y-82578981D01*
X164269395Y-82575461D01*
X164330002Y-82610225D01*
X164362193Y-82672238D01*
X164364500Y-82696047D01*
X164364500Y-83434856D01*
X164364502Y-83434882D01*
X164367413Y-83459987D01*
X164367415Y-83459991D01*
X164412793Y-83562764D01*
X164412794Y-83562765D01*
X164492235Y-83642206D01*
X164595009Y-83687585D01*
X164620135Y-83690500D01*
X166409864Y-83690499D01*
X166409879Y-83690497D01*
X166409882Y-83690497D01*
X166434987Y-83687586D01*
X166434988Y-83687585D01*
X166434991Y-83687585D01*
X166537765Y-83642206D01*
X166617206Y-83562765D01*
X166662585Y-83459991D01*
X166665500Y-83434865D01*
X166665499Y-82300000D01*
X187944815Y-82300000D01*
X187963503Y-82477805D01*
X187963504Y-82477807D01*
X188018747Y-82647829D01*
X188018750Y-82647835D01*
X188108141Y-82802665D01*
X188140126Y-82838188D01*
X188227764Y-82935521D01*
X188227767Y-82935523D01*
X188227770Y-82935526D01*
X188372407Y-83040612D01*
X188535733Y-83113329D01*
X188710609Y-83150500D01*
X188710610Y-83150500D01*
X188889389Y-83150500D01*
X188889391Y-83150500D01*
X189064267Y-83113329D01*
X189227593Y-83040612D01*
X189372230Y-82935526D01*
X189491859Y-82802665D01*
X189581250Y-82647835D01*
X189636497Y-82477803D01*
X189655185Y-82300000D01*
X189636497Y-82122197D01*
X189581250Y-81952165D01*
X189491859Y-81797335D01*
X189445003Y-81745296D01*
X189372235Y-81664478D01*
X189372232Y-81664476D01*
X189372231Y-81664475D01*
X189372230Y-81664474D01*
X189227593Y-81559388D01*
X189064267Y-81486671D01*
X189064265Y-81486670D01*
X188936594Y-81459533D01*
X188889391Y-81449500D01*
X188710609Y-81449500D01*
X188679954Y-81456015D01*
X188535733Y-81486670D01*
X188535728Y-81486672D01*
X188372408Y-81559387D01*
X188227768Y-81664475D01*
X188108140Y-81797336D01*
X188018750Y-81952164D01*
X188018747Y-81952170D01*
X187963504Y-82122192D01*
X187963503Y-82122194D01*
X187944815Y-82300000D01*
X166665499Y-82300000D01*
X166665499Y-81645136D01*
X166665497Y-81645117D01*
X166662586Y-81620012D01*
X166662585Y-81620010D01*
X166662585Y-81620009D01*
X166617206Y-81517235D01*
X166537765Y-81437794D01*
X166517124Y-81428680D01*
X166434992Y-81392415D01*
X166409868Y-81389500D01*
X165681243Y-81389500D01*
X165614204Y-81369815D01*
X165568449Y-81317011D01*
X165558505Y-81247853D01*
X165587530Y-81184297D01*
X165646308Y-81146523D01*
X165658441Y-81143614D01*
X165831198Y-81111321D01*
X166030019Y-81034298D01*
X166211302Y-80922052D01*
X166368872Y-80778407D01*
X166497366Y-80608255D01*
X166539053Y-80524536D01*
X166592403Y-80417394D01*
X166592403Y-80417393D01*
X166592405Y-80417389D01*
X166650756Y-80212310D01*
X166670429Y-80000001D01*
X170294318Y-80000001D01*
X170314955Y-80156760D01*
X170314956Y-80156762D01*
X170362834Y-80272351D01*
X170375464Y-80302841D01*
X170471718Y-80428282D01*
X170597159Y-80524536D01*
X170743238Y-80585044D01*
X170821619Y-80595363D01*
X170899999Y-80605682D01*
X170900000Y-80605682D01*
X170900001Y-80605682D01*
X170952254Y-80598802D01*
X171056762Y-80585044D01*
X171202841Y-80524536D01*
X171328282Y-80428282D01*
X171424536Y-80302841D01*
X171485044Y-80156762D01*
X171505682Y-80000000D01*
X171503936Y-79986741D01*
X171485044Y-79843239D01*
X171485044Y-79843238D01*
X171424536Y-79697159D01*
X171328282Y-79571718D01*
X171202841Y-79475464D01*
X171198227Y-79473553D01*
X171056762Y-79414956D01*
X171056760Y-79414955D01*
X170900001Y-79394318D01*
X170899999Y-79394318D01*
X170743239Y-79414955D01*
X170743237Y-79414956D01*
X170597160Y-79475463D01*
X170471718Y-79571718D01*
X170375463Y-79697160D01*
X170314956Y-79843237D01*
X170314955Y-79843239D01*
X170294318Y-79999998D01*
X170294318Y-80000001D01*
X166670429Y-80000001D01*
X166670429Y-80000000D01*
X166650756Y-79787690D01*
X166592405Y-79582611D01*
X166592403Y-79582606D01*
X166592403Y-79582605D01*
X166497367Y-79391746D01*
X166368872Y-79221593D01*
X166211302Y-79077948D01*
X166030019Y-78965702D01*
X166030017Y-78965701D01*
X165831461Y-78888781D01*
X165831198Y-78888679D01*
X165621610Y-78849500D01*
X165408390Y-78849500D01*
X165198802Y-78888679D01*
X165198799Y-78888679D01*
X165198799Y-78888680D01*
X164999982Y-78965701D01*
X164999980Y-78965702D01*
X164818699Y-79077947D01*
X164661127Y-79221593D01*
X164532632Y-79391746D01*
X164437596Y-79582605D01*
X164437596Y-79582607D01*
X164379244Y-79787689D01*
X164368471Y-79903951D01*
X164342685Y-79968888D01*
X164298130Y-80000804D01*
X164334503Y-80021668D01*
X164366693Y-80083681D01*
X164368470Y-80096047D01*
X164379244Y-80212310D01*
X164403070Y-80296050D01*
X164437596Y-80417392D01*
X164437596Y-80417394D01*
X164532632Y-80608253D01*
X164532634Y-80608255D01*
X164661128Y-80778407D01*
X164818698Y-80922052D01*
X164999981Y-81034298D01*
X165198802Y-81111321D01*
X165371544Y-81143612D01*
X165433823Y-81175279D01*
X165469096Y-81235591D01*
X165466162Y-81305400D01*
X165425953Y-81362540D01*
X165361235Y-81388871D01*
X165348757Y-81389500D01*
X164620143Y-81389500D01*
X164620117Y-81389502D01*
X164595012Y-81392413D01*
X164595008Y-81392415D01*
X164492235Y-81437793D01*
X164412794Y-81517234D01*
X164367415Y-81620006D01*
X164367415Y-81620008D01*
X164364500Y-81645131D01*
X164364500Y-82383951D01*
X164344815Y-82450990D01*
X164292011Y-82496745D01*
X164222853Y-82506689D01*
X164159297Y-82477664D01*
X164121523Y-82418886D01*
X164117029Y-82395391D01*
X164110756Y-82327689D01*
X164096273Y-82276789D01*
X164052405Y-82122611D01*
X164052403Y-82122606D01*
X164052403Y-82122605D01*
X163957367Y-81931746D01*
X163828872Y-81761593D01*
X163671302Y-81617948D01*
X163490019Y-81505702D01*
X163490017Y-81505701D01*
X163390608Y-81467190D01*
X163291198Y-81428679D01*
X163094385Y-81391888D01*
X163032106Y-81360221D01*
X162996833Y-81299908D01*
X162999767Y-81230100D01*
X163039976Y-81172960D01*
X163094384Y-81148111D01*
X163291198Y-81111321D01*
X163490019Y-81034298D01*
X163671302Y-80922052D01*
X163828872Y-80778407D01*
X163957366Y-80608255D01*
X163999053Y-80524536D01*
X164052403Y-80417394D01*
X164052403Y-80417393D01*
X164052405Y-80417389D01*
X164110756Y-80212310D01*
X164121529Y-80096047D01*
X164147315Y-80031111D01*
X164191869Y-79999194D01*
X164155497Y-79978331D01*
X164123307Y-79916318D01*
X164121529Y-79903951D01*
X164115903Y-79843237D01*
X164110756Y-79787690D01*
X164052405Y-79582611D01*
X164052403Y-79582606D01*
X164052403Y-79582605D01*
X163957367Y-79391746D01*
X163828872Y-79221593D01*
X163671302Y-79077948D01*
X163490019Y-78965702D01*
X163490017Y-78965701D01*
X163291461Y-78888781D01*
X163291198Y-78888679D01*
X163081610Y-78849500D01*
X162868390Y-78849500D01*
X162658802Y-78888679D01*
X162658799Y-78888679D01*
X162658799Y-78888680D01*
X162459982Y-78965701D01*
X162459980Y-78965702D01*
X162278699Y-79077947D01*
X162121127Y-79221593D01*
X161992632Y-79391746D01*
X161897596Y-79582605D01*
X161897596Y-79582607D01*
X161897595Y-79582611D01*
X161839244Y-79787690D01*
X161819571Y-80000000D01*
X161839244Y-80212310D01*
X161863070Y-80296050D01*
X161897596Y-80417392D01*
X161897596Y-80417394D01*
X161992632Y-80608253D01*
X161992634Y-80608255D01*
X162121128Y-80778407D01*
X162278698Y-80922052D01*
X162459981Y-81034298D01*
X162658802Y-81111321D01*
X162855613Y-81148111D01*
X162917893Y-81179779D01*
X162953166Y-81240092D01*
X162950232Y-81309900D01*
X162910023Y-81367040D01*
X162855613Y-81391888D01*
X162658802Y-81428679D01*
X162658799Y-81428679D01*
X162658799Y-81428680D01*
X162459982Y-81505701D01*
X162459980Y-81505702D01*
X162278699Y-81617947D01*
X162121127Y-81761593D01*
X161992632Y-81931746D01*
X161897596Y-82122605D01*
X161897596Y-82122607D01*
X161847123Y-82300000D01*
X161839244Y-82327690D01*
X161819571Y-82540000D01*
X154774175Y-82540000D01*
X154769865Y-82539500D01*
X152680143Y-82539500D01*
X152680117Y-82539502D01*
X152655012Y-82542413D01*
X152655008Y-82542415D01*
X152552235Y-82587793D01*
X152472794Y-82667234D01*
X152427415Y-82770006D01*
X152427415Y-82770008D01*
X152424500Y-82795131D01*
X152424500Y-84884856D01*
X145725000Y-84884856D01*
X145725000Y-78760001D01*
X152419532Y-78760001D01*
X152439364Y-78986686D01*
X152439366Y-78986697D01*
X152498258Y-79206488D01*
X152498261Y-79206497D01*
X152594431Y-79412732D01*
X152594432Y-79412734D01*
X152724954Y-79599141D01*
X152885858Y-79760045D01*
X152885861Y-79760047D01*
X153072266Y-79890568D01*
X153278504Y-79986739D01*
X153278509Y-79986740D01*
X153278511Y-79986741D01*
X153327991Y-79999999D01*
X153498308Y-80045635D01*
X153660230Y-80059801D01*
X153724998Y-80065468D01*
X153725000Y-80065468D01*
X153725002Y-80065468D01*
X153781673Y-80060509D01*
X153951692Y-80045635D01*
X154171496Y-79986739D01*
X154377734Y-79890568D01*
X154564139Y-79760047D01*
X154725047Y-79599139D01*
X154855568Y-79412734D01*
X154951739Y-79206496D01*
X154974914Y-79120005D01*
X158160202Y-79120005D01*
X158179361Y-79351218D01*
X158236317Y-79576135D01*
X158329516Y-79788609D01*
X158413811Y-79917633D01*
X159081922Y-79249522D01*
X159105507Y-79329844D01*
X159183239Y-79450798D01*
X159291900Y-79544952D01*
X159422685Y-79604680D01*
X159432466Y-79606086D01*
X158766199Y-80272351D01*
X158796650Y-80296050D01*
X159000697Y-80406476D01*
X159000706Y-80406479D01*
X159220139Y-80481811D01*
X159448993Y-80520000D01*
X159681007Y-80520000D01*
X159909860Y-80481811D01*
X160129293Y-80406479D01*
X160129302Y-80406476D01*
X160333350Y-80296050D01*
X160363798Y-80272351D01*
X159697533Y-79606086D01*
X159707315Y-79604680D01*
X159838100Y-79544952D01*
X159946761Y-79450798D01*
X160024493Y-79329844D01*
X160048076Y-79249524D01*
X160716186Y-79917634D01*
X160800484Y-79788606D01*
X160893682Y-79576135D01*
X160950638Y-79351218D01*
X160969798Y-79120005D01*
X160969798Y-79119994D01*
X160950638Y-78888781D01*
X160893682Y-78663864D01*
X160800483Y-78451390D01*
X160716186Y-78322364D01*
X160048076Y-78990475D01*
X160024493Y-78910156D01*
X159946761Y-78789202D01*
X159838100Y-78695048D01*
X159707315Y-78635320D01*
X159697534Y-78633913D01*
X160363799Y-77967648D01*
X160363799Y-77967647D01*
X160333349Y-77943949D01*
X160129302Y-77833523D01*
X160129293Y-77833520D01*
X159909860Y-77758188D01*
X159681007Y-77720000D01*
X159448993Y-77720000D01*
X159220139Y-77758188D01*
X159000706Y-77833520D01*
X159000698Y-77833523D01*
X158796644Y-77943952D01*
X158766200Y-77967646D01*
X158766200Y-77967647D01*
X159432466Y-78633913D01*
X159422685Y-78635320D01*
X159291900Y-78695048D01*
X159183239Y-78789202D01*
X159105507Y-78910156D01*
X159081923Y-78990476D01*
X158413812Y-78322365D01*
X158329516Y-78451391D01*
X158329514Y-78451395D01*
X158236317Y-78663864D01*
X158179361Y-78888781D01*
X158160202Y-79119994D01*
X158160202Y-79120005D01*
X154974914Y-79120005D01*
X155010635Y-78986692D01*
X155030468Y-78760000D01*
X155010635Y-78533308D01*
X154951739Y-78313504D01*
X154855568Y-78107266D01*
X154725047Y-77920861D01*
X154725045Y-77920858D01*
X154564141Y-77759954D01*
X154377734Y-77629432D01*
X154377732Y-77629431D01*
X154171497Y-77533261D01*
X154171488Y-77533258D01*
X153951697Y-77474366D01*
X153951693Y-77474365D01*
X153951692Y-77474365D01*
X153951691Y-77474364D01*
X153951686Y-77474364D01*
X153725002Y-77454532D01*
X153724998Y-77454532D01*
X153498313Y-77474364D01*
X153498302Y-77474366D01*
X153278511Y-77533258D01*
X153278502Y-77533261D01*
X153072267Y-77629431D01*
X153072265Y-77629432D01*
X152885858Y-77759954D01*
X152724954Y-77920858D01*
X152594432Y-78107265D01*
X152594431Y-78107267D01*
X152498261Y-78313502D01*
X152498258Y-78313511D01*
X152439366Y-78533302D01*
X152439364Y-78533313D01*
X152419532Y-78759998D01*
X152419532Y-78760001D01*
X145725000Y-78760001D01*
X145725000Y-76450000D01*
X161594364Y-76450000D01*
X161651567Y-76663486D01*
X161651570Y-76663492D01*
X161751399Y-76877578D01*
X161886894Y-77071082D01*
X162053917Y-77238105D01*
X162247421Y-77373600D01*
X162461507Y-77473429D01*
X162461516Y-77473433D01*
X162675000Y-77530634D01*
X162675000Y-76635501D01*
X162782685Y-76684680D01*
X162889237Y-76700000D01*
X162960763Y-76700000D01*
X163067315Y-76684680D01*
X163175000Y-76635501D01*
X163175000Y-77530633D01*
X163388483Y-77473433D01*
X163388492Y-77473429D01*
X163602578Y-77373600D01*
X163796078Y-77238108D01*
X163918521Y-77115665D01*
X163979844Y-77082180D01*
X164049536Y-77087164D01*
X164105470Y-77129035D01*
X164122385Y-77160013D01*
X164171645Y-77292086D01*
X164171649Y-77292093D01*
X164257809Y-77407187D01*
X164257812Y-77407190D01*
X164372906Y-77493350D01*
X164372913Y-77493354D01*
X164507620Y-77543596D01*
X164507627Y-77543598D01*
X164567155Y-77549999D01*
X164567172Y-77550000D01*
X165215000Y-77550000D01*
X165215000Y-76635501D01*
X165322685Y-76684680D01*
X165429237Y-76700000D01*
X165500763Y-76700000D01*
X165607315Y-76684680D01*
X165715000Y-76635501D01*
X165715000Y-77550000D01*
X166362828Y-77550000D01*
X166362844Y-77549999D01*
X166422372Y-77543598D01*
X166422379Y-77543596D01*
X166557086Y-77493354D01*
X166557093Y-77493350D01*
X166672187Y-77407190D01*
X166672190Y-77407187D01*
X166758350Y-77292093D01*
X166758354Y-77292086D01*
X166808596Y-77157379D01*
X166808598Y-77157372D01*
X166814999Y-77097844D01*
X166815000Y-77097827D01*
X166815000Y-76450000D01*
X165898686Y-76450000D01*
X165924493Y-76409844D01*
X165965000Y-76271889D01*
X165965000Y-76128111D01*
X165924493Y-75990156D01*
X165898686Y-75950000D01*
X166815000Y-75950000D01*
X166815000Y-75302172D01*
X166814999Y-75302155D01*
X166808598Y-75242627D01*
X166808596Y-75242620D01*
X166758354Y-75107913D01*
X166758350Y-75107906D01*
X166672190Y-74992812D01*
X166672187Y-74992809D01*
X166557093Y-74906649D01*
X166557086Y-74906645D01*
X166422379Y-74856403D01*
X166422372Y-74856401D01*
X166362844Y-74850000D01*
X166164366Y-74850000D01*
X166097327Y-74830315D01*
X166051572Y-74777511D01*
X166041628Y-74708353D01*
X166070653Y-74644797D01*
X166099089Y-74620573D01*
X166119449Y-74607966D01*
X166161302Y-74582052D01*
X166318872Y-74438407D01*
X166447366Y-74268255D01*
X166491798Y-74179023D01*
X166542403Y-74077394D01*
X166542403Y-74077393D01*
X166542405Y-74077389D01*
X166600756Y-73872310D01*
X166612566Y-73744856D01*
X176399500Y-73744856D01*
X176399502Y-73744882D01*
X176402413Y-73769987D01*
X176402415Y-73769991D01*
X176447793Y-73872764D01*
X176447794Y-73872765D01*
X176527235Y-73952206D01*
X176630009Y-73997585D01*
X176655135Y-74000500D01*
X178744864Y-74000499D01*
X178744879Y-74000497D01*
X178744882Y-74000497D01*
X178769987Y-73997586D01*
X178769988Y-73997585D01*
X178769991Y-73997585D01*
X178872765Y-73952206D01*
X178952206Y-73872765D01*
X178997585Y-73769991D01*
X179000500Y-73744865D01*
X179000500Y-72950000D01*
X191215960Y-72950000D01*
X191276411Y-73188716D01*
X191376267Y-73416367D01*
X191512232Y-73624478D01*
X191680592Y-73807364D01*
X191680602Y-73807373D01*
X191876762Y-73960051D01*
X191876771Y-73960057D01*
X192095385Y-74078364D01*
X192095396Y-74078369D01*
X192330507Y-74159083D01*
X192449999Y-74179023D01*
X192450000Y-74179022D01*
X192450000Y-73135501D01*
X192557685Y-73184680D01*
X192664237Y-73200000D01*
X192735763Y-73200000D01*
X192842315Y-73184680D01*
X192950000Y-73135501D01*
X192950000Y-74179023D01*
X193069492Y-74159083D01*
X193304603Y-74078369D01*
X193304614Y-74078364D01*
X193523228Y-73960057D01*
X193523237Y-73960051D01*
X193719397Y-73807373D01*
X193719407Y-73807364D01*
X193887767Y-73624478D01*
X194023732Y-73416367D01*
X194123588Y-73188716D01*
X194184040Y-72950000D01*
X193133686Y-72950000D01*
X193159493Y-72909844D01*
X193200000Y-72771889D01*
X193200000Y-72628111D01*
X193159493Y-72490156D01*
X193133686Y-72450000D01*
X194184040Y-72450000D01*
X194123588Y-72211283D01*
X194023732Y-71983632D01*
X193887767Y-71775521D01*
X193719407Y-71592635D01*
X193719397Y-71592626D01*
X193523237Y-71439948D01*
X193523228Y-71439942D01*
X193304614Y-71321635D01*
X193304603Y-71321630D01*
X193069492Y-71240916D01*
X192950000Y-71220976D01*
X192950000Y-72264498D01*
X192842315Y-72215320D01*
X192735763Y-72200000D01*
X192664237Y-72200000D01*
X192557685Y-72215320D01*
X192450000Y-72264498D01*
X192450000Y-71220976D01*
X192449999Y-71220976D01*
X192330507Y-71240916D01*
X192095396Y-71321630D01*
X192095385Y-71321635D01*
X191876771Y-71439942D01*
X191876762Y-71439948D01*
X191680602Y-71592626D01*
X191680592Y-71592635D01*
X191512232Y-71775521D01*
X191376267Y-71983632D01*
X191276411Y-72211283D01*
X191215960Y-72450000D01*
X192266314Y-72450000D01*
X192240507Y-72490156D01*
X192200000Y-72628111D01*
X192200000Y-72771889D01*
X192240507Y-72909844D01*
X192266314Y-72950000D01*
X191215960Y-72950000D01*
X179000500Y-72950000D01*
X179000499Y-71655136D01*
X179000497Y-71655117D01*
X178997586Y-71630012D01*
X178997585Y-71630010D01*
X178997585Y-71630009D01*
X178952206Y-71527235D01*
X178872765Y-71447794D01*
X178872763Y-71447793D01*
X178769992Y-71402415D01*
X178744865Y-71399500D01*
X176655143Y-71399500D01*
X176655117Y-71399502D01*
X176630012Y-71402413D01*
X176630008Y-71402415D01*
X176527235Y-71447793D01*
X176447794Y-71527234D01*
X176402415Y-71630006D01*
X176402415Y-71630008D01*
X176399500Y-71655131D01*
X176399500Y-73744856D01*
X166612566Y-73744856D01*
X166620429Y-73660000D01*
X166600756Y-73447690D01*
X166542405Y-73242611D01*
X166542403Y-73242606D01*
X166542403Y-73242605D01*
X166447367Y-73051746D01*
X166318872Y-72881593D01*
X166198533Y-72771889D01*
X166161302Y-72737948D01*
X165980019Y-72625702D01*
X165980017Y-72625701D01*
X165860099Y-72579245D01*
X165781198Y-72548679D01*
X165584385Y-72511888D01*
X165522106Y-72480221D01*
X165486833Y-72419908D01*
X165489767Y-72350100D01*
X165529976Y-72292960D01*
X165584384Y-72268111D01*
X165781198Y-72231321D01*
X165980019Y-72154298D01*
X166161302Y-72042052D01*
X166318872Y-71898407D01*
X166447366Y-71728255D01*
X166542405Y-71537389D01*
X166600756Y-71332310D01*
X166620429Y-71120000D01*
X166600756Y-70907690D01*
X166542405Y-70702611D01*
X166542403Y-70702606D01*
X166542403Y-70702605D01*
X166447367Y-70511746D01*
X166318872Y-70341593D01*
X166206488Y-70239141D01*
X166161302Y-70197948D01*
X165980019Y-70085702D01*
X165980017Y-70085701D01*
X165880608Y-70047190D01*
X165781198Y-70008679D01*
X165584385Y-69971888D01*
X165522106Y-69940221D01*
X165486833Y-69879908D01*
X165489767Y-69810100D01*
X165529976Y-69752960D01*
X165584384Y-69728111D01*
X165781198Y-69691321D01*
X165980019Y-69614298D01*
X166161302Y-69502052D01*
X166273246Y-69400001D01*
X175379532Y-69400001D01*
X175399364Y-69626686D01*
X175399366Y-69626697D01*
X175458258Y-69846488D01*
X175458261Y-69846497D01*
X175554431Y-70052732D01*
X175554432Y-70052734D01*
X175684954Y-70239141D01*
X175845858Y-70400045D01*
X175875434Y-70420754D01*
X176032266Y-70530568D01*
X176238504Y-70626739D01*
X176458308Y-70685635D01*
X176620230Y-70699801D01*
X176684998Y-70705468D01*
X176685000Y-70705468D01*
X176685002Y-70705468D01*
X176741819Y-70700497D01*
X176911692Y-70685635D01*
X177131496Y-70626739D01*
X177337734Y-70530568D01*
X177460145Y-70444856D01*
X180464500Y-70444856D01*
X180464502Y-70444882D01*
X180467413Y-70469987D01*
X180467415Y-70469991D01*
X180512793Y-70572764D01*
X180512794Y-70572765D01*
X180592235Y-70652206D01*
X180695009Y-70697585D01*
X180720135Y-70700500D01*
X182809864Y-70700499D01*
X182809879Y-70700497D01*
X182809882Y-70700497D01*
X182834987Y-70697586D01*
X182834988Y-70697585D01*
X182834991Y-70697585D01*
X182937765Y-70652206D01*
X183017206Y-70572765D01*
X183062585Y-70469991D01*
X183065500Y-70444865D01*
X183065499Y-68355136D01*
X183065497Y-68355117D01*
X183062586Y-68330012D01*
X183062585Y-68330010D01*
X183062585Y-68330009D01*
X183017206Y-68227235D01*
X182937765Y-68147794D01*
X182862058Y-68114366D01*
X182834992Y-68102415D01*
X182809865Y-68099500D01*
X180720143Y-68099500D01*
X180720117Y-68099502D01*
X180695012Y-68102413D01*
X180695008Y-68102415D01*
X180592235Y-68147793D01*
X180512794Y-68227234D01*
X180467415Y-68330006D01*
X180467415Y-68330008D01*
X180464500Y-68355131D01*
X180464500Y-70444856D01*
X177460145Y-70444856D01*
X177524139Y-70400047D01*
X177685047Y-70239139D01*
X177815568Y-70052734D01*
X177911739Y-69846496D01*
X177970635Y-69626692D01*
X177990468Y-69400000D01*
X177970635Y-69173308D01*
X177911739Y-68953504D01*
X177815568Y-68747266D01*
X177713620Y-68601668D01*
X177685045Y-68560858D01*
X177524141Y-68399954D01*
X177337734Y-68269432D01*
X177337732Y-68269431D01*
X177131497Y-68173261D01*
X177131488Y-68173258D01*
X176911697Y-68114366D01*
X176911693Y-68114365D01*
X176911692Y-68114365D01*
X176911691Y-68114364D01*
X176911686Y-68114364D01*
X176685002Y-68094532D01*
X176684998Y-68094532D01*
X176458313Y-68114364D01*
X176458302Y-68114366D01*
X176238511Y-68173258D01*
X176238502Y-68173261D01*
X176032267Y-68269431D01*
X176032265Y-68269432D01*
X175845858Y-68399954D01*
X175684954Y-68560858D01*
X175554432Y-68747265D01*
X175554431Y-68747267D01*
X175458261Y-68953502D01*
X175458258Y-68953511D01*
X175399366Y-69173302D01*
X175399364Y-69173313D01*
X175379532Y-69399998D01*
X175379532Y-69400001D01*
X166273246Y-69400001D01*
X166318872Y-69358407D01*
X166447366Y-69188255D01*
X166542405Y-68997389D01*
X166600756Y-68792310D01*
X166620429Y-68580000D01*
X166600756Y-68367690D01*
X166542405Y-68162611D01*
X166542403Y-68162606D01*
X166542403Y-68162605D01*
X166447367Y-67971746D01*
X166318872Y-67801593D01*
X166264856Y-67752351D01*
X166161302Y-67657948D01*
X165980019Y-67545702D01*
X165980017Y-67545701D01*
X165880608Y-67507190D01*
X165781198Y-67468679D01*
X165571610Y-67429500D01*
X165358390Y-67429500D01*
X165148802Y-67468679D01*
X165148799Y-67468679D01*
X165148799Y-67468680D01*
X164949982Y-67545701D01*
X164949980Y-67545702D01*
X164768699Y-67657947D01*
X164611127Y-67801593D01*
X164482632Y-67971746D01*
X164387596Y-68162605D01*
X164387596Y-68162607D01*
X164329244Y-68367689D01*
X164318471Y-68483951D01*
X164292685Y-68548888D01*
X164248130Y-68580804D01*
X164284503Y-68601668D01*
X164316693Y-68663681D01*
X164318470Y-68676047D01*
X164329244Y-68792310D01*
X164375110Y-68953511D01*
X164387596Y-68997392D01*
X164387596Y-68997394D01*
X164482632Y-69188253D01*
X164527197Y-69247266D01*
X164611128Y-69358407D01*
X164768698Y-69502052D01*
X164949981Y-69614298D01*
X165148802Y-69691321D01*
X165345613Y-69728111D01*
X165407893Y-69759779D01*
X165443166Y-69820092D01*
X165440232Y-69889900D01*
X165400023Y-69947040D01*
X165345613Y-69971888D01*
X165148802Y-70008679D01*
X165148799Y-70008679D01*
X165148799Y-70008680D01*
X164949982Y-70085701D01*
X164949980Y-70085702D01*
X164768699Y-70197947D01*
X164611127Y-70341593D01*
X164482632Y-70511746D01*
X164387596Y-70702605D01*
X164387596Y-70702607D01*
X164329244Y-70907689D01*
X164318471Y-71023951D01*
X164292685Y-71088888D01*
X164248130Y-71120804D01*
X164284503Y-71141668D01*
X164316693Y-71203681D01*
X164318470Y-71216047D01*
X164329244Y-71332310D01*
X164376956Y-71499999D01*
X164387596Y-71537392D01*
X164387596Y-71537394D01*
X164482632Y-71728253D01*
X164572906Y-71847794D01*
X164611128Y-71898407D01*
X164768698Y-72042052D01*
X164949981Y-72154298D01*
X165148802Y-72231321D01*
X165345613Y-72268111D01*
X165407893Y-72299779D01*
X165443166Y-72360092D01*
X165440232Y-72429900D01*
X165400023Y-72487040D01*
X165345613Y-72511888D01*
X165148802Y-72548679D01*
X165148799Y-72548679D01*
X165148799Y-72548680D01*
X164949982Y-72625701D01*
X164949980Y-72625702D01*
X164768699Y-72737947D01*
X164611127Y-72881593D01*
X164482632Y-73051746D01*
X164387596Y-73242605D01*
X164387596Y-73242607D01*
X164329244Y-73447689D01*
X164318471Y-73563951D01*
X164292685Y-73628888D01*
X164248130Y-73660804D01*
X164284503Y-73681668D01*
X164316693Y-73743681D01*
X164318470Y-73756047D01*
X164329244Y-73872310D01*
X164364888Y-73997585D01*
X164387596Y-74077392D01*
X164387596Y-74077394D01*
X164482632Y-74268253D01*
X164611127Y-74438406D01*
X164611128Y-74438407D01*
X164768698Y-74582052D01*
X164768700Y-74582053D01*
X164768701Y-74582054D01*
X164830911Y-74620573D01*
X164877547Y-74672601D01*
X164888651Y-74741582D01*
X164860698Y-74805617D01*
X164802563Y-74844373D01*
X164765634Y-74850000D01*
X164567155Y-74850000D01*
X164507627Y-74856401D01*
X164507620Y-74856403D01*
X164372913Y-74906645D01*
X164372906Y-74906649D01*
X164257812Y-74992809D01*
X164257809Y-74992812D01*
X164171649Y-75107906D01*
X164171646Y-75107911D01*
X164122385Y-75239987D01*
X164080513Y-75295920D01*
X164015049Y-75320337D01*
X163946776Y-75305485D01*
X163918522Y-75284334D01*
X163796082Y-75161894D01*
X163602578Y-75026399D01*
X163403426Y-74933533D01*
X163350987Y-74887360D01*
X163331835Y-74820167D01*
X163352051Y-74753286D01*
X163405216Y-74707951D01*
X163411005Y-74705537D01*
X163440019Y-74694298D01*
X163621302Y-74582052D01*
X163778872Y-74438407D01*
X163907366Y-74268255D01*
X163951798Y-74179023D01*
X164002403Y-74077394D01*
X164002403Y-74077393D01*
X164002405Y-74077389D01*
X164060756Y-73872310D01*
X164071529Y-73756047D01*
X164097315Y-73691111D01*
X164141869Y-73659194D01*
X164105497Y-73638331D01*
X164073307Y-73576318D01*
X164071529Y-73563951D01*
X164070849Y-73556613D01*
X164060756Y-73447690D01*
X164002405Y-73242611D01*
X164002403Y-73242606D01*
X164002403Y-73242605D01*
X163907367Y-73051746D01*
X163778872Y-72881593D01*
X163658533Y-72771889D01*
X163621302Y-72737948D01*
X163440019Y-72625702D01*
X163440017Y-72625701D01*
X163320099Y-72579245D01*
X163241198Y-72548679D01*
X163044385Y-72511888D01*
X162982106Y-72480221D01*
X162946833Y-72419908D01*
X162949767Y-72350100D01*
X162989976Y-72292960D01*
X163044384Y-72268111D01*
X163241198Y-72231321D01*
X163440019Y-72154298D01*
X163621302Y-72042052D01*
X163778872Y-71898407D01*
X163907366Y-71728255D01*
X164002405Y-71537389D01*
X164060756Y-71332310D01*
X164071529Y-71216047D01*
X164097315Y-71151111D01*
X164141869Y-71119194D01*
X164105497Y-71098331D01*
X164073307Y-71036318D01*
X164071529Y-71023951D01*
X164070849Y-71016613D01*
X164060756Y-70907690D01*
X164002405Y-70702611D01*
X164002403Y-70702606D01*
X164002403Y-70702605D01*
X163907367Y-70511746D01*
X163778872Y-70341593D01*
X163666488Y-70239141D01*
X163621302Y-70197948D01*
X163440019Y-70085702D01*
X163440017Y-70085701D01*
X163340608Y-70047190D01*
X163241198Y-70008679D01*
X163044385Y-69971888D01*
X162982106Y-69940221D01*
X162946833Y-69879908D01*
X162949767Y-69810100D01*
X162989976Y-69752960D01*
X163044384Y-69728111D01*
X163241198Y-69691321D01*
X163440019Y-69614298D01*
X163621302Y-69502052D01*
X163778872Y-69358407D01*
X163907366Y-69188255D01*
X164002405Y-68997389D01*
X164060756Y-68792310D01*
X164071529Y-68676047D01*
X164097315Y-68611111D01*
X164141869Y-68579194D01*
X164105497Y-68558331D01*
X164073307Y-68496318D01*
X164071529Y-68483951D01*
X164070849Y-68476613D01*
X164060756Y-68367690D01*
X164002405Y-68162611D01*
X164002403Y-68162606D01*
X164002403Y-68162605D01*
X163907367Y-67971746D01*
X163778872Y-67801593D01*
X163724856Y-67752351D01*
X163621302Y-67657948D01*
X163440019Y-67545702D01*
X163440017Y-67545701D01*
X163340608Y-67507190D01*
X163241198Y-67468679D01*
X163031610Y-67429500D01*
X162818390Y-67429500D01*
X162608802Y-67468679D01*
X162608799Y-67468679D01*
X162608799Y-67468680D01*
X162409982Y-67545701D01*
X162409980Y-67545702D01*
X162228699Y-67657947D01*
X162071127Y-67801593D01*
X161942632Y-67971746D01*
X161847596Y-68162605D01*
X161847596Y-68162607D01*
X161799966Y-68330008D01*
X161789244Y-68367690D01*
X161769571Y-68580000D01*
X161789244Y-68792310D01*
X161835110Y-68953511D01*
X161847596Y-68997392D01*
X161847596Y-68997394D01*
X161942632Y-69188253D01*
X161987197Y-69247266D01*
X162071128Y-69358407D01*
X162228698Y-69502052D01*
X162409981Y-69614298D01*
X162608802Y-69691321D01*
X162805613Y-69728111D01*
X162867893Y-69759779D01*
X162903166Y-69820092D01*
X162900232Y-69889900D01*
X162860023Y-69947040D01*
X162805613Y-69971888D01*
X162608802Y-70008679D01*
X162608799Y-70008679D01*
X162608799Y-70008680D01*
X162409982Y-70085701D01*
X162409980Y-70085702D01*
X162228699Y-70197947D01*
X162071127Y-70341593D01*
X161942632Y-70511746D01*
X161847596Y-70702605D01*
X161847596Y-70702607D01*
X161791419Y-70900047D01*
X161789244Y-70907690D01*
X161769571Y-71120000D01*
X161789244Y-71332310D01*
X161836956Y-71499999D01*
X161847596Y-71537392D01*
X161847596Y-71537394D01*
X161942632Y-71728253D01*
X162032906Y-71847794D01*
X162071128Y-71898407D01*
X162228698Y-72042052D01*
X162409981Y-72154298D01*
X162608802Y-72231321D01*
X162805613Y-72268111D01*
X162867893Y-72299779D01*
X162903166Y-72360092D01*
X162900232Y-72429900D01*
X162860023Y-72487040D01*
X162805613Y-72511888D01*
X162608802Y-72548679D01*
X162608799Y-72548679D01*
X162608799Y-72548680D01*
X162409982Y-72625701D01*
X162409980Y-72625702D01*
X162228699Y-72737947D01*
X162071127Y-72881593D01*
X161942632Y-73051746D01*
X161847596Y-73242605D01*
X161847596Y-73242607D01*
X161789244Y-73447689D01*
X161772863Y-73624478D01*
X161769571Y-73660000D01*
X161789244Y-73872310D01*
X161824888Y-73997585D01*
X161847596Y-74077392D01*
X161847596Y-74077394D01*
X161942632Y-74268253D01*
X162071127Y-74438406D01*
X162071128Y-74438407D01*
X162228698Y-74582052D01*
X162409981Y-74694298D01*
X162438961Y-74705525D01*
X162494362Y-74748095D01*
X162517954Y-74813861D01*
X162502244Y-74881942D01*
X162452222Y-74930722D01*
X162446573Y-74933533D01*
X162247422Y-75026399D01*
X162247420Y-75026400D01*
X162053926Y-75161886D01*
X162053920Y-75161891D01*
X161886891Y-75328920D01*
X161886886Y-75328926D01*
X161751400Y-75522420D01*
X161751399Y-75522422D01*
X161651570Y-75736507D01*
X161651567Y-75736513D01*
X161594364Y-75949999D01*
X161594364Y-75950000D01*
X162491314Y-75950000D01*
X162465507Y-75990156D01*
X162425000Y-76128111D01*
X162425000Y-76271889D01*
X162465507Y-76409844D01*
X162491314Y-76450000D01*
X161594364Y-76450000D01*
X145725000Y-76450000D01*
X145725000Y-76024856D01*
X152424500Y-76024856D01*
X152424502Y-76024882D01*
X152427413Y-76049987D01*
X152427415Y-76049991D01*
X152472793Y-76152764D01*
X152472794Y-76152765D01*
X152552235Y-76232206D01*
X152655009Y-76277585D01*
X152680135Y-76280500D01*
X154769864Y-76280499D01*
X154769879Y-76280497D01*
X154769882Y-76280497D01*
X154794987Y-76277586D01*
X154794988Y-76277585D01*
X154794991Y-76277585D01*
X154897765Y-76232206D01*
X154977206Y-76152765D01*
X155022585Y-76049991D01*
X155025500Y-76024865D01*
X155025499Y-73935136D01*
X155025497Y-73935117D01*
X155022586Y-73910012D01*
X155022585Y-73910010D01*
X155022585Y-73910009D01*
X154977206Y-73807235D01*
X154897765Y-73727794D01*
X154814686Y-73691111D01*
X154794992Y-73682415D01*
X154769865Y-73679500D01*
X152680143Y-73679500D01*
X152680117Y-73679502D01*
X152655012Y-73682413D01*
X152655008Y-73682415D01*
X152552235Y-73727793D01*
X152472794Y-73807234D01*
X152427415Y-73910006D01*
X152427415Y-73910008D01*
X152424500Y-73935131D01*
X152424500Y-76024856D01*
X145725000Y-76024856D01*
X145725000Y-74144856D01*
X148199500Y-74144856D01*
X148199502Y-74144882D01*
X148202413Y-74169987D01*
X148202415Y-74169991D01*
X148247793Y-74272764D01*
X148247794Y-74272765D01*
X148327235Y-74352206D01*
X148430009Y-74397585D01*
X148455135Y-74400500D01*
X150544864Y-74400499D01*
X150544879Y-74400497D01*
X150544882Y-74400497D01*
X150569987Y-74397586D01*
X150569988Y-74397585D01*
X150569991Y-74397585D01*
X150672765Y-74352206D01*
X150752206Y-74272765D01*
X150797585Y-74169991D01*
X150800500Y-74144865D01*
X150800499Y-72055136D01*
X150798982Y-72042052D01*
X150797586Y-72030012D01*
X150797585Y-72030010D01*
X150797585Y-72030009D01*
X150752206Y-71927235D01*
X150672765Y-71847794D01*
X150672763Y-71847793D01*
X150569992Y-71802415D01*
X150544865Y-71799500D01*
X148455143Y-71799500D01*
X148455117Y-71799502D01*
X148430012Y-71802413D01*
X148430008Y-71802415D01*
X148327235Y-71847793D01*
X148247794Y-71927234D01*
X148202415Y-72030006D01*
X148202415Y-72030008D01*
X148199500Y-72055131D01*
X148199500Y-74144856D01*
X145725000Y-74144856D01*
X145725000Y-71500000D01*
X155819357Y-71500000D01*
X155839884Y-71721535D01*
X155839885Y-71721537D01*
X155900769Y-71935523D01*
X155900775Y-71935538D01*
X155999938Y-72134683D01*
X155999943Y-72134691D01*
X156134020Y-72312238D01*
X156298437Y-72462123D01*
X156298439Y-72462125D01*
X156487595Y-72579245D01*
X156487596Y-72579245D01*
X156487599Y-72579247D01*
X156695060Y-72659618D01*
X156913757Y-72700500D01*
X156913759Y-72700500D01*
X157136241Y-72700500D01*
X157136243Y-72700500D01*
X157354940Y-72659618D01*
X157562401Y-72579247D01*
X157751562Y-72462124D01*
X157915981Y-72312236D01*
X158050058Y-72134689D01*
X158149229Y-71935528D01*
X158210115Y-71721536D01*
X158230643Y-71500000D01*
X158225805Y-71447794D01*
X158210115Y-71278464D01*
X158210114Y-71278462D01*
X158199431Y-71240916D01*
X158149229Y-71064472D01*
X158132347Y-71030568D01*
X158050061Y-70865316D01*
X158050056Y-70865308D01*
X157915979Y-70687761D01*
X157751562Y-70537876D01*
X157751560Y-70537874D01*
X157562404Y-70420754D01*
X157562398Y-70420752D01*
X157354940Y-70340382D01*
X157136243Y-70299500D01*
X156913757Y-70299500D01*
X156695060Y-70340382D01*
X156563864Y-70391207D01*
X156487601Y-70420752D01*
X156487595Y-70420754D01*
X156298439Y-70537874D01*
X156298437Y-70537876D01*
X156134020Y-70687761D01*
X155999943Y-70865308D01*
X155999938Y-70865316D01*
X155900775Y-71064461D01*
X155900769Y-71064476D01*
X155839885Y-71278462D01*
X155839884Y-71278464D01*
X155819357Y-71499999D01*
X155819357Y-71500000D01*
X145725000Y-71500000D01*
X145725000Y-69900001D01*
X152419532Y-69900001D01*
X152439364Y-70126686D01*
X152439366Y-70126697D01*
X152498258Y-70346488D01*
X152498261Y-70346497D01*
X152594431Y-70552732D01*
X152594432Y-70552734D01*
X152724954Y-70739141D01*
X152885858Y-70900045D01*
X152885861Y-70900047D01*
X153072266Y-71030568D01*
X153278504Y-71126739D01*
X153498308Y-71185635D01*
X153660230Y-71199801D01*
X153724998Y-71205468D01*
X153725000Y-71205468D01*
X153725002Y-71205468D01*
X153781673Y-71200509D01*
X153951692Y-71185635D01*
X154171496Y-71126739D01*
X154377734Y-71030568D01*
X154564139Y-70900047D01*
X154725047Y-70739139D01*
X154855568Y-70552734D01*
X154951739Y-70346496D01*
X155010635Y-70126692D01*
X155030468Y-69900000D01*
X155029584Y-69889900D01*
X155018200Y-69759779D01*
X155010635Y-69673308D01*
X154951739Y-69453504D01*
X154855568Y-69247266D01*
X154725047Y-69060861D01*
X154725045Y-69060858D01*
X154564141Y-68899954D01*
X154377734Y-68769432D01*
X154377732Y-68769431D01*
X154171497Y-68673261D01*
X154171488Y-68673258D01*
X153951697Y-68614366D01*
X153951693Y-68614365D01*
X153951692Y-68614365D01*
X153951691Y-68614364D01*
X153951686Y-68614364D01*
X153725002Y-68594532D01*
X153724998Y-68594532D01*
X153498313Y-68614364D01*
X153498302Y-68614366D01*
X153278511Y-68673258D01*
X153278502Y-68673261D01*
X153072267Y-68769431D01*
X153072265Y-68769432D01*
X152885858Y-68899954D01*
X152724954Y-69060858D01*
X152594432Y-69247265D01*
X152594431Y-69247267D01*
X152498261Y-69453502D01*
X152498258Y-69453511D01*
X152439366Y-69673302D01*
X152439364Y-69673313D01*
X152419532Y-69899998D01*
X152419532Y-69900001D01*
X145725000Y-69900001D01*
X145725000Y-66600000D01*
X176119357Y-66600000D01*
X176139884Y-66821535D01*
X176139885Y-66821537D01*
X176200769Y-67035523D01*
X176200775Y-67035538D01*
X176299938Y-67234683D01*
X176299943Y-67234691D01*
X176434020Y-67412238D01*
X176598437Y-67562123D01*
X176598439Y-67562125D01*
X176787595Y-67679245D01*
X176787596Y-67679245D01*
X176787599Y-67679247D01*
X176995060Y-67759618D01*
X177213757Y-67800500D01*
X177213759Y-67800500D01*
X177436241Y-67800500D01*
X177436243Y-67800500D01*
X177654940Y-67759618D01*
X177862401Y-67679247D01*
X178051562Y-67562124D01*
X178215981Y-67412236D01*
X178350058Y-67234689D01*
X178449229Y-67035528D01*
X178510115Y-66821536D01*
X178530643Y-66600005D01*
X188620202Y-66600005D01*
X188639361Y-66831218D01*
X188696317Y-67056135D01*
X188789516Y-67268609D01*
X188873811Y-67397633D01*
X189541922Y-66729523D01*
X189565507Y-66809844D01*
X189643239Y-66930798D01*
X189751900Y-67024952D01*
X189882685Y-67084680D01*
X189892466Y-67086086D01*
X189226199Y-67752351D01*
X189256650Y-67776050D01*
X189460697Y-67886476D01*
X189460706Y-67886479D01*
X189680139Y-67961811D01*
X189908993Y-68000000D01*
X190141007Y-68000000D01*
X190369860Y-67961811D01*
X190589293Y-67886479D01*
X190589302Y-67886476D01*
X190793350Y-67776050D01*
X190823798Y-67752351D01*
X190157533Y-67086086D01*
X190167315Y-67084680D01*
X190298100Y-67024952D01*
X190406761Y-66930798D01*
X190484493Y-66809844D01*
X190508076Y-66729524D01*
X191176186Y-67397634D01*
X191260484Y-67268606D01*
X191353682Y-67056135D01*
X191410638Y-66831218D01*
X191429798Y-66600005D01*
X191429798Y-66599994D01*
X191410638Y-66368781D01*
X191353682Y-66143864D01*
X191260483Y-65931390D01*
X191176186Y-65802364D01*
X190508076Y-66470475D01*
X190484493Y-66390156D01*
X190406761Y-66269202D01*
X190298100Y-66175048D01*
X190167315Y-66115320D01*
X190157534Y-66113913D01*
X190823799Y-65447648D01*
X190823799Y-65447647D01*
X190793349Y-65423949D01*
X190589302Y-65313523D01*
X190589293Y-65313520D01*
X190369860Y-65238188D01*
X190141007Y-65200000D01*
X189908993Y-65200000D01*
X189680139Y-65238188D01*
X189460706Y-65313520D01*
X189460698Y-65313523D01*
X189256644Y-65423952D01*
X189226200Y-65447646D01*
X189226200Y-65447647D01*
X189892466Y-66113913D01*
X189882685Y-66115320D01*
X189751900Y-66175048D01*
X189643239Y-66269202D01*
X189565507Y-66390156D01*
X189541923Y-66470476D01*
X188873812Y-65802365D01*
X188789516Y-65931391D01*
X188789514Y-65931395D01*
X188696317Y-66143864D01*
X188639361Y-66368781D01*
X188620202Y-66599994D01*
X188620202Y-66600005D01*
X178530643Y-66600005D01*
X178530643Y-66600000D01*
X178530642Y-66599994D01*
X178510115Y-66378464D01*
X178510114Y-66378462D01*
X178449230Y-66164476D01*
X178449229Y-66164472D01*
X178449224Y-66164461D01*
X178350061Y-65965316D01*
X178350056Y-65965308D01*
X178215979Y-65787761D01*
X178051562Y-65637876D01*
X178051560Y-65637874D01*
X177862404Y-65520754D01*
X177862398Y-65520752D01*
X177654940Y-65440382D01*
X177436243Y-65399500D01*
X177213757Y-65399500D01*
X176995060Y-65440382D01*
X176863864Y-65491207D01*
X176787601Y-65520752D01*
X176787595Y-65520754D01*
X176598439Y-65637874D01*
X176598437Y-65637876D01*
X176434020Y-65787761D01*
X176299943Y-65965308D01*
X176299938Y-65965316D01*
X176200775Y-66164461D01*
X176200769Y-66164476D01*
X176139885Y-66378462D01*
X176139884Y-66378464D01*
X176119357Y-66599999D01*
X176119357Y-66600000D01*
X145725000Y-66600000D01*
X145725000Y-64200000D01*
X161794355Y-64200000D01*
X161814859Y-64368869D01*
X161814860Y-64368874D01*
X161875182Y-64527931D01*
X161904216Y-64569993D01*
X161971817Y-64667929D01*
X162077505Y-64761560D01*
X162099150Y-64780736D01*
X162245665Y-64857633D01*
X162249775Y-64859790D01*
X162414944Y-64900500D01*
X162585056Y-64900500D01*
X162750225Y-64859790D01*
X162853726Y-64805468D01*
X162900849Y-64780736D01*
X162900850Y-64780734D01*
X162900852Y-64780734D01*
X163028183Y-64667929D01*
X163113135Y-64544856D01*
X175484500Y-64544856D01*
X175484502Y-64544882D01*
X175487413Y-64569987D01*
X175487415Y-64569991D01*
X175532793Y-64672764D01*
X175532794Y-64672765D01*
X175612235Y-64752206D01*
X175715009Y-64797585D01*
X175740135Y-64800500D01*
X177829864Y-64800499D01*
X177829879Y-64800497D01*
X177829882Y-64800497D01*
X177854987Y-64797586D01*
X177854988Y-64797585D01*
X177854991Y-64797585D01*
X177957765Y-64752206D01*
X178037206Y-64672765D01*
X178082585Y-64569991D01*
X178085500Y-64544865D01*
X178085500Y-63500001D01*
X180559532Y-63500001D01*
X180579364Y-63726686D01*
X180579366Y-63726697D01*
X180638258Y-63946488D01*
X180638261Y-63946497D01*
X180734431Y-64152732D01*
X180734432Y-64152734D01*
X180864954Y-64339141D01*
X181025858Y-64500045D01*
X181025861Y-64500047D01*
X181212266Y-64630568D01*
X181418504Y-64726739D01*
X181418509Y-64726740D01*
X181418511Y-64726741D01*
X181425483Y-64728609D01*
X181638308Y-64785635D01*
X181800230Y-64799801D01*
X181864998Y-64805468D01*
X181865000Y-64805468D01*
X181865002Y-64805468D01*
X181921819Y-64800497D01*
X182091692Y-64785635D01*
X182311496Y-64726739D01*
X182517734Y-64630568D01*
X182704139Y-64500047D01*
X182865047Y-64339139D01*
X182995568Y-64152734D01*
X183038809Y-64060005D01*
X183540202Y-64060005D01*
X183559361Y-64291218D01*
X183616317Y-64516135D01*
X183709516Y-64728609D01*
X183793811Y-64857633D01*
X184461922Y-64189523D01*
X184485507Y-64269844D01*
X184563239Y-64390798D01*
X184671900Y-64484952D01*
X184802685Y-64544680D01*
X184812466Y-64546086D01*
X184146199Y-65212351D01*
X184176650Y-65236050D01*
X184380697Y-65346476D01*
X184380706Y-65346479D01*
X184600139Y-65421811D01*
X184828993Y-65460000D01*
X185061007Y-65460000D01*
X185289860Y-65421811D01*
X185509293Y-65346479D01*
X185509302Y-65346476D01*
X185713350Y-65236050D01*
X185743798Y-65212351D01*
X185077533Y-64546086D01*
X185087315Y-64544680D01*
X185218100Y-64484952D01*
X185326761Y-64390798D01*
X185404493Y-64269844D01*
X185428076Y-64189524D01*
X186096186Y-64857634D01*
X186180484Y-64728606D01*
X186273682Y-64516135D01*
X186330638Y-64291218D01*
X186349798Y-64060005D01*
X186349798Y-64059994D01*
X186330638Y-63828781D01*
X186273682Y-63603864D01*
X186180483Y-63391390D01*
X186096186Y-63262364D01*
X185428076Y-63930475D01*
X185404493Y-63850156D01*
X185326761Y-63729202D01*
X185218100Y-63635048D01*
X185087315Y-63575320D01*
X185077534Y-63573913D01*
X185743799Y-62907648D01*
X185743799Y-62907647D01*
X185713349Y-62883949D01*
X185509302Y-62773523D01*
X185509293Y-62773520D01*
X185289860Y-62698188D01*
X185061007Y-62660000D01*
X184828993Y-62660000D01*
X184600139Y-62698188D01*
X184380706Y-62773520D01*
X184380698Y-62773523D01*
X184176644Y-62883952D01*
X184146200Y-62907646D01*
X184146200Y-62907647D01*
X184812466Y-63573913D01*
X184802685Y-63575320D01*
X184671900Y-63635048D01*
X184563239Y-63729202D01*
X184485507Y-63850156D01*
X184461923Y-63930475D01*
X183793812Y-63262365D01*
X183709516Y-63391391D01*
X183709514Y-63391395D01*
X183616317Y-63603864D01*
X183559361Y-63828781D01*
X183540202Y-64059994D01*
X183540202Y-64060005D01*
X183038809Y-64060005D01*
X183091739Y-63946496D01*
X183150635Y-63726692D01*
X183170468Y-63500000D01*
X183150635Y-63273308D01*
X183091739Y-63053504D01*
X182995568Y-62847266D01*
X182865047Y-62660861D01*
X182865045Y-62660858D01*
X182704141Y-62499954D01*
X182517734Y-62369432D01*
X182517732Y-62369431D01*
X182311497Y-62273261D01*
X182311488Y-62273258D01*
X182091697Y-62214366D01*
X182091693Y-62214365D01*
X182091692Y-62214365D01*
X182091691Y-62214364D01*
X182091686Y-62214364D01*
X181865002Y-62194532D01*
X181864998Y-62194532D01*
X181638313Y-62214364D01*
X181638302Y-62214366D01*
X181418511Y-62273258D01*
X181418502Y-62273261D01*
X181212267Y-62369431D01*
X181212265Y-62369432D01*
X181025858Y-62499954D01*
X180864954Y-62660858D01*
X180734432Y-62847265D01*
X180734431Y-62847267D01*
X180638261Y-63053502D01*
X180638258Y-63053511D01*
X180579366Y-63273302D01*
X180579364Y-63273313D01*
X180559532Y-63499998D01*
X180559532Y-63500001D01*
X178085500Y-63500001D01*
X178085499Y-62455136D01*
X178085497Y-62455117D01*
X178082586Y-62430012D01*
X178082585Y-62430010D01*
X178082585Y-62430009D01*
X178037206Y-62327235D01*
X177957765Y-62247794D01*
X177957763Y-62247793D01*
X177854992Y-62202415D01*
X177829865Y-62199500D01*
X175740143Y-62199500D01*
X175740117Y-62199502D01*
X175715012Y-62202413D01*
X175715008Y-62202415D01*
X175612235Y-62247793D01*
X175532794Y-62327234D01*
X175487415Y-62430006D01*
X175487415Y-62430008D01*
X175484500Y-62455131D01*
X175484500Y-64544856D01*
X163113135Y-64544856D01*
X163124818Y-64527930D01*
X163185140Y-64368872D01*
X163205645Y-64200000D01*
X163185140Y-64031128D01*
X163124818Y-63872070D01*
X163028183Y-63732071D01*
X162900852Y-63619266D01*
X162900849Y-63619263D01*
X162750226Y-63540210D01*
X162585056Y-63499500D01*
X162414944Y-63499500D01*
X162249773Y-63540210D01*
X162099150Y-63619263D01*
X161982638Y-63722484D01*
X161975056Y-63729202D01*
X161971816Y-63732072D01*
X161875182Y-63872068D01*
X161814860Y-64031125D01*
X161814859Y-64031130D01*
X161794355Y-64200000D01*
X145725000Y-64200000D01*
X145725000Y-61800000D01*
X172394355Y-61800000D01*
X172414859Y-61968869D01*
X172414860Y-61968874D01*
X172475182Y-62127931D01*
X172524584Y-62199501D01*
X172571817Y-62267929D01*
X172638759Y-62327234D01*
X172699150Y-62380736D01*
X172840921Y-62455143D01*
X172849775Y-62459790D01*
X173014944Y-62500500D01*
X173185056Y-62500500D01*
X173350225Y-62459790D01*
X173429692Y-62418081D01*
X173500849Y-62380736D01*
X173500850Y-62380734D01*
X173500852Y-62380734D01*
X173628183Y-62267929D01*
X173724818Y-62127930D01*
X173724818Y-62127928D01*
X173727713Y-62123735D01*
X173781996Y-62079745D01*
X173851444Y-62072085D01*
X173914009Y-62103188D01*
X173945705Y-62150204D01*
X173975182Y-62227931D01*
X174006470Y-62273258D01*
X174071817Y-62367929D01*
X174170232Y-62455117D01*
X174199150Y-62480736D01*
X174349773Y-62559789D01*
X174349775Y-62559790D01*
X174514944Y-62600500D01*
X174685056Y-62600500D01*
X174850225Y-62559790D01*
X174929692Y-62518081D01*
X175000849Y-62480736D01*
X175000850Y-62480734D01*
X175000852Y-62480734D01*
X175128183Y-62367929D01*
X175224818Y-62227930D01*
X175285140Y-62068872D01*
X175305645Y-61900000D01*
X175285140Y-61731128D01*
X175224818Y-61572070D01*
X175128183Y-61432071D01*
X175000852Y-61319266D01*
X175000849Y-61319263D01*
X174850226Y-61240210D01*
X174685056Y-61199500D01*
X174514944Y-61199500D01*
X174349773Y-61240210D01*
X174199150Y-61319263D01*
X174071815Y-61432072D01*
X173972285Y-61576265D01*
X173918002Y-61620255D01*
X173848554Y-61627914D01*
X173785989Y-61596810D01*
X173754294Y-61549794D01*
X173724818Y-61472071D01*
X173724817Y-61472068D01*
X173690476Y-61422318D01*
X173628183Y-61332071D01*
X173500852Y-61219266D01*
X173500849Y-61219263D01*
X173350226Y-61140210D01*
X173185056Y-61099500D01*
X173014944Y-61099500D01*
X172849773Y-61140210D01*
X172699150Y-61219263D01*
X172571816Y-61332072D01*
X172475182Y-61472068D01*
X172414860Y-61631125D01*
X172414859Y-61631130D01*
X172394355Y-61800000D01*
X145725000Y-61800000D01*
X145725000Y-58696443D01*
X149390702Y-58696443D01*
X149407432Y-58819950D01*
X149420978Y-58919950D01*
X149490673Y-59134450D01*
X149592887Y-59324393D01*
X149597553Y-59333064D01*
X149738177Y-59509402D01*
X149738181Y-59509405D01*
X149738184Y-59509409D01*
X149908021Y-59657790D01*
X149908021Y-59657791D01*
X149908025Y-59657793D01*
X149908028Y-59657796D01*
X150101646Y-59773477D01*
X150312808Y-59852728D01*
X150534725Y-59893000D01*
X150534728Y-59893000D01*
X150798770Y-59893000D01*
X150798776Y-59893000D01*
X150956686Y-59878787D01*
X150967137Y-59877847D01*
X151184540Y-59817848D01*
X151184545Y-59817845D01*
X151184552Y-59817844D01*
X151387761Y-59719984D01*
X151390707Y-59717844D01*
X151525397Y-59619986D01*
X151570230Y-59587413D01*
X151598553Y-59557790D01*
X151726093Y-59424393D01*
X151726092Y-59424393D01*
X151726095Y-59424391D01*
X151850346Y-59236158D01*
X151938991Y-59028763D01*
X151989179Y-58808874D01*
X151998719Y-58596443D01*
X177390702Y-58596443D01*
X177419478Y-58808877D01*
X177420978Y-58819950D01*
X177490673Y-59034450D01*
X177545405Y-59136158D01*
X177597553Y-59233064D01*
X177738177Y-59409402D01*
X177738181Y-59409405D01*
X177738184Y-59409409D01*
X177908021Y-59557790D01*
X177908021Y-59557791D01*
X177908025Y-59557793D01*
X177908028Y-59557796D01*
X178101646Y-59673477D01*
X178312808Y-59752728D01*
X178534725Y-59793000D01*
X178534728Y-59793000D01*
X178798770Y-59793000D01*
X178798776Y-59793000D01*
X178956686Y-59778787D01*
X178967137Y-59777847D01*
X179184540Y-59717848D01*
X179184545Y-59717845D01*
X179184552Y-59717844D01*
X179387761Y-59619984D01*
X179432592Y-59587413D01*
X179539955Y-59509409D01*
X179570230Y-59487413D01*
X179726095Y-59324391D01*
X179850346Y-59136158D01*
X179938991Y-58928763D01*
X179989179Y-58708874D01*
X179999298Y-58483557D01*
X179969023Y-58260054D01*
X179899326Y-58045549D01*
X179792447Y-57846936D01*
X179651823Y-57670598D01*
X179651817Y-57670593D01*
X179651815Y-57670590D01*
X179481978Y-57522209D01*
X179481978Y-57522208D01*
X179481973Y-57522205D01*
X179481972Y-57522204D01*
X179288354Y-57406523D01*
X179234752Y-57386405D01*
X179178906Y-57344422D01*
X179154623Y-57278908D01*
X179169614Y-57210665D01*
X179219120Y-57161361D01*
X179224505Y-57158603D01*
X179387761Y-57079984D01*
X179404394Y-57067900D01*
X179518749Y-56984816D01*
X179570230Y-56947413D01*
X179726095Y-56784391D01*
X179850346Y-56596158D01*
X179938991Y-56388763D01*
X179989179Y-56168874D01*
X179996763Y-55999999D01*
X193299709Y-55999999D01*
X193306943Y-56105762D01*
X193310752Y-56214849D01*
X193310754Y-56214869D01*
X193316147Y-56245458D01*
X193316944Y-56251991D01*
X193318851Y-56279862D01*
X193318852Y-56279867D01*
X193339633Y-56379867D01*
X193341052Y-56386696D01*
X193360052Y-56494450D01*
X193360550Y-56497271D01*
X193360549Y-56497271D01*
X193369157Y-56523765D01*
X193370896Y-56530313D01*
X193375922Y-56554503D01*
X193375926Y-56554516D01*
X193413508Y-56660260D01*
X193437853Y-56735187D01*
X193449167Y-56770006D01*
X193459969Y-56792153D01*
X193462662Y-56798565D01*
X193469864Y-56818830D01*
X193469865Y-56818833D01*
X193469866Y-56818834D01*
X193522939Y-56921261D01*
X193574876Y-57027749D01*
X193574883Y-57027759D01*
X193586852Y-57045505D01*
X193590504Y-57051656D01*
X193598919Y-57067896D01*
X193667236Y-57164679D01*
X193735234Y-57265491D01*
X193735235Y-57265492D01*
X193735238Y-57265496D01*
X193747428Y-57279035D01*
X193751996Y-57284756D01*
X193760688Y-57297069D01*
X193824589Y-57365491D01*
X193843658Y-57385909D01*
X193910384Y-57460016D01*
X193927125Y-57478608D01*
X193935826Y-57485909D01*
X193938600Y-57488237D01*
X193944063Y-57493417D01*
X193952155Y-57502081D01*
X193976896Y-57522209D01*
X194048877Y-57580770D01*
X194146795Y-57662934D01*
X194146798Y-57662936D01*
X194146803Y-57662940D01*
X194156784Y-57669177D01*
X194163053Y-57673659D01*
X194165740Y-57675846D01*
X194169747Y-57679106D01*
X194169748Y-57679106D01*
X194169754Y-57679111D01*
X194278938Y-57745507D01*
X194389998Y-57814905D01*
X194390001Y-57814906D01*
X194390004Y-57814908D01*
X194397808Y-57818383D01*
X194404810Y-57822052D01*
X194409429Y-57824860D01*
X194409436Y-57824864D01*
X194529442Y-57876989D01*
X194651962Y-57931540D01*
X194651970Y-57931543D01*
X194651975Y-57931545D01*
X194657102Y-57933015D01*
X194664708Y-57935744D01*
X194666725Y-57936620D01*
X194795727Y-57972765D01*
X194927636Y-58010589D01*
X194928595Y-58010723D01*
X194932569Y-58011415D01*
X194936830Y-58012300D01*
X194936839Y-58012303D01*
X195072739Y-58030982D01*
X195211613Y-58050500D01*
X195211615Y-58050500D01*
X195495257Y-58050500D01*
X195495258Y-58050500D01*
X195564337Y-58041004D01*
X195568387Y-58040585D01*
X195641071Y-58035503D01*
X195706045Y-58021692D01*
X195710468Y-58020920D01*
X195713907Y-58020447D01*
X195773161Y-58012303D01*
X195843376Y-57992629D01*
X195847178Y-57991693D01*
X195921575Y-57975880D01*
X195980981Y-57954257D01*
X195985428Y-57952827D01*
X196043275Y-57936620D01*
X196113125Y-57906279D01*
X196116537Y-57904918D01*
X196191050Y-57877799D01*
X196244035Y-57849625D01*
X196248407Y-57847517D01*
X196300568Y-57824862D01*
X196368382Y-57783622D01*
X196371409Y-57781900D01*
X196444253Y-57743169D01*
X196490193Y-57709790D01*
X196494404Y-57706987D01*
X196540246Y-57679111D01*
X196604266Y-57627025D01*
X196606952Y-57624960D01*
X196676254Y-57574610D01*
X196714799Y-57537385D01*
X196718719Y-57533911D01*
X196757845Y-57502081D01*
X196816389Y-57439394D01*
X196818603Y-57437144D01*
X196822305Y-57433569D01*
X196882539Y-57375403D01*
X196913557Y-57335699D01*
X196917080Y-57331579D01*
X196949312Y-57297069D01*
X197000601Y-57224408D01*
X197002385Y-57222007D01*
X197023035Y-57195576D01*
X197059093Y-57149425D01*
X197082673Y-57108580D01*
X197085696Y-57103857D01*
X197111081Y-57067896D01*
X197153489Y-56986049D01*
X197154815Y-56983626D01*
X197202477Y-56901075D01*
X197218938Y-56860329D01*
X197221361Y-56855062D01*
X197240136Y-56818830D01*
X197272511Y-56727733D01*
X197309903Y-56635187D01*
X197319752Y-56595684D01*
X197321492Y-56589915D01*
X197334075Y-56554511D01*
X197354378Y-56456804D01*
X197379279Y-56356935D01*
X197383198Y-56319639D01*
X197384153Y-56313519D01*
X197391148Y-56279862D01*
X197398170Y-56177197D01*
X197409255Y-56071736D01*
X197408720Y-56056438D01*
X197408058Y-56037480D01*
X197408165Y-56031078D01*
X197408890Y-56020468D01*
X197410291Y-56000000D01*
X197403056Y-55894237D01*
X197399247Y-55785141D01*
X197393851Y-55754544D01*
X197393054Y-55748005D01*
X197392716Y-55743065D01*
X197391148Y-55720138D01*
X197368947Y-55613303D01*
X197349450Y-55502728D01*
X197340840Y-55476233D01*
X197339105Y-55469699D01*
X197334075Y-55445489D01*
X197296491Y-55339739D01*
X197260833Y-55229994D01*
X197250033Y-55207852D01*
X197247335Y-55201428D01*
X197240137Y-55181173D01*
X197240136Y-55181170D01*
X197187060Y-55078738D01*
X197135121Y-54972247D01*
X197123147Y-54954495D01*
X197119495Y-54948343D01*
X197111080Y-54932103D01*
X197104913Y-54923367D01*
X197042763Y-54835320D01*
X196974762Y-54734504D01*
X196962579Y-54720973D01*
X196957999Y-54715237D01*
X196949319Y-54702941D01*
X196949317Y-54702938D01*
X196949312Y-54702931D01*
X196866341Y-54614090D01*
X196837889Y-54582491D01*
X196782879Y-54521396D01*
X196782874Y-54521391D01*
X196780297Y-54519229D01*
X196771384Y-54511749D01*
X196765940Y-54506587D01*
X196757845Y-54497919D01*
X196757839Y-54497914D01*
X196757837Y-54497912D01*
X196661122Y-54419229D01*
X196563197Y-54337060D01*
X196563189Y-54337055D01*
X196553217Y-54330822D01*
X196546946Y-54326339D01*
X196540251Y-54320893D01*
X196540250Y-54320892D01*
X196540246Y-54320889D01*
X196431061Y-54254492D01*
X196320005Y-54185096D01*
X196317433Y-54183951D01*
X196312181Y-54181612D01*
X196305191Y-54177949D01*
X196300568Y-54175138D01*
X196300566Y-54175137D01*
X196180557Y-54123010D01*
X196058029Y-54068456D01*
X196058023Y-54068454D01*
X196052894Y-54066983D01*
X196045284Y-54064252D01*
X196043275Y-54063380D01*
X196043273Y-54063379D01*
X196043274Y-54063379D01*
X195914272Y-54027234D01*
X195782364Y-53989411D01*
X195782359Y-53989410D01*
X195781418Y-53989278D01*
X195777447Y-53988587D01*
X195773161Y-53987696D01*
X195637260Y-53969017D01*
X195498388Y-53949500D01*
X195498385Y-53949500D01*
X195495258Y-53949500D01*
X195214742Y-53949500D01*
X195214737Y-53949500D01*
X195145696Y-53958989D01*
X195141579Y-53959415D01*
X195068929Y-53964496D01*
X195003974Y-53978302D01*
X194999527Y-53979079D01*
X194940299Y-53987221D01*
X194936847Y-53987696D01*
X194936832Y-53987698D01*
X194866641Y-54007364D01*
X194862806Y-54008308D01*
X194788425Y-54024120D01*
X194729038Y-54045734D01*
X194724562Y-54047173D01*
X194682879Y-54058853D01*
X194666725Y-54063380D01*
X194666722Y-54063380D01*
X194666719Y-54063382D01*
X194596914Y-54093702D01*
X194593420Y-54095095D01*
X194518954Y-54122198D01*
X194465977Y-54150366D01*
X194461571Y-54152490D01*
X194409430Y-54175138D01*
X194409429Y-54175139D01*
X194341656Y-54216352D01*
X194338550Y-54218120D01*
X194265745Y-54256832D01*
X194265738Y-54256836D01*
X194219813Y-54290202D01*
X194215585Y-54293017D01*
X194169760Y-54320884D01*
X194169741Y-54320897D01*
X194105724Y-54372979D01*
X194103040Y-54375043D01*
X194033750Y-54425386D01*
X194033738Y-54425396D01*
X193995212Y-54462600D01*
X193991272Y-54466094D01*
X193952151Y-54497922D01*
X193952146Y-54497927D01*
X193893629Y-54560583D01*
X193891387Y-54562862D01*
X193827461Y-54624596D01*
X193796454Y-54664282D01*
X193792909Y-54668429D01*
X193760694Y-54702923D01*
X193760681Y-54702938D01*
X193709399Y-54775587D01*
X193707605Y-54778003D01*
X193650912Y-54850568D01*
X193650906Y-54850576D01*
X193627336Y-54891398D01*
X193624296Y-54896151D01*
X193598916Y-54932108D01*
X193556524Y-55013921D01*
X193555169Y-55016396D01*
X193507523Y-55098923D01*
X193507522Y-55098925D01*
X193491069Y-55139647D01*
X193488633Y-55144945D01*
X193469862Y-55181173D01*
X193437488Y-55272266D01*
X193400097Y-55364812D01*
X193400096Y-55364814D01*
X193390246Y-55404318D01*
X193388507Y-55410082D01*
X193375927Y-55445480D01*
X193375922Y-55445498D01*
X193355621Y-55543195D01*
X193330720Y-55643067D01*
X193330719Y-55643071D01*
X193326801Y-55680349D01*
X193325844Y-55686482D01*
X193318852Y-55720136D01*
X193318851Y-55720138D01*
X193311829Y-55822802D01*
X193300744Y-55928271D01*
X193300744Y-55928273D01*
X193301941Y-55962520D01*
X193301834Y-55968918D01*
X193299709Y-55999998D01*
X193299709Y-55999999D01*
X179996763Y-55999999D01*
X179999298Y-55943557D01*
X179969023Y-55720054D01*
X179899326Y-55505549D01*
X179792447Y-55306936D01*
X179651823Y-55130598D01*
X179651817Y-55130593D01*
X179651815Y-55130590D01*
X179481978Y-54982209D01*
X179481978Y-54982208D01*
X179481973Y-54982205D01*
X179481972Y-54982204D01*
X179417100Y-54943444D01*
X179369649Y-54892164D01*
X179357454Y-54823367D01*
X179384389Y-54758898D01*
X179441903Y-54719225D01*
X179480701Y-54712999D01*
X179739864Y-54712999D01*
X179739879Y-54712997D01*
X179739882Y-54712997D01*
X179764987Y-54710086D01*
X179764988Y-54710085D01*
X179764991Y-54710085D01*
X179867765Y-54664706D01*
X179947206Y-54585265D01*
X179992585Y-54482491D01*
X179995500Y-54457365D01*
X179995499Y-52462636D01*
X179993417Y-52444682D01*
X179992586Y-52437512D01*
X179992585Y-52437510D01*
X179992585Y-52437509D01*
X179947206Y-52334735D01*
X179867765Y-52255294D01*
X179867763Y-52255293D01*
X179764992Y-52209915D01*
X179739865Y-52207000D01*
X177650143Y-52207000D01*
X177650117Y-52207002D01*
X177625012Y-52209913D01*
X177625008Y-52209915D01*
X177522235Y-52255293D01*
X177442794Y-52334734D01*
X177397415Y-52437506D01*
X177397415Y-52437508D01*
X177394500Y-52462631D01*
X177394500Y-54457356D01*
X177394502Y-54457382D01*
X177397413Y-54482487D01*
X177397415Y-54482491D01*
X177442793Y-54585264D01*
X177442794Y-54585265D01*
X177522235Y-54664706D01*
X177625009Y-54710085D01*
X177650135Y-54713000D01*
X177905540Y-54712999D01*
X177972577Y-54732683D01*
X178018332Y-54785487D01*
X178028276Y-54854646D01*
X177999251Y-54918201D01*
X177978424Y-54937317D01*
X177819771Y-55052586D01*
X177819767Y-55052588D01*
X177663906Y-55215606D01*
X177539654Y-55403841D01*
X177508710Y-55476238D01*
X177453441Y-55605549D01*
X177451009Y-55611238D01*
X177451006Y-55611247D01*
X177400821Y-55831122D01*
X177400821Y-55831129D01*
X177391281Y-56043561D01*
X177390702Y-56056443D01*
X177420977Y-56279946D01*
X177420978Y-56279950D01*
X177490673Y-56494450D01*
X177576809Y-56654516D01*
X177597553Y-56693064D01*
X177738177Y-56869402D01*
X177738181Y-56869405D01*
X177738184Y-56869409D01*
X177908021Y-57017790D01*
X177908021Y-57017791D01*
X177908025Y-57017793D01*
X177908028Y-57017796D01*
X178101646Y-57133477D01*
X178155246Y-57153593D01*
X178211092Y-57195576D01*
X178235376Y-57261090D01*
X178220385Y-57329333D01*
X178170880Y-57378638D01*
X178165476Y-57381405D01*
X178002238Y-57460016D01*
X178002232Y-57460019D01*
X177819775Y-57592582D01*
X177819767Y-57592588D01*
X177663906Y-57755606D01*
X177539654Y-57943841D01*
X177502170Y-58031540D01*
X177453441Y-58145549D01*
X177451009Y-58151238D01*
X177451006Y-58151247D01*
X177400821Y-58371122D01*
X177400821Y-58371129D01*
X177391281Y-58583561D01*
X177390702Y-58596443D01*
X151998719Y-58596443D01*
X151999298Y-58583557D01*
X151969023Y-58360054D01*
X151899326Y-58145549D01*
X151792447Y-57946936D01*
X151651823Y-57770598D01*
X151651817Y-57770593D01*
X151651815Y-57770590D01*
X151481978Y-57622209D01*
X151481978Y-57622208D01*
X151481973Y-57622205D01*
X151481972Y-57622204D01*
X151288354Y-57506523D01*
X151234752Y-57486405D01*
X151178906Y-57444422D01*
X151154623Y-57378908D01*
X151169614Y-57310665D01*
X151219120Y-57261361D01*
X151224505Y-57258603D01*
X151387761Y-57179984D01*
X151390707Y-57177844D01*
X151518749Y-57084816D01*
X151570230Y-57047413D01*
X151598553Y-57017790D01*
X151726093Y-56884393D01*
X151726092Y-56884393D01*
X151726095Y-56884391D01*
X151850346Y-56696158D01*
X151938991Y-56488763D01*
X151989179Y-56268874D01*
X151996763Y-56099999D01*
X165299709Y-56099999D01*
X165306943Y-56205762D01*
X165310752Y-56314849D01*
X165310754Y-56314869D01*
X165316147Y-56345458D01*
X165316944Y-56351991D01*
X165318851Y-56379862D01*
X165318852Y-56379867D01*
X165341052Y-56486696D01*
X165360052Y-56594450D01*
X165360550Y-56597271D01*
X165360549Y-56597271D01*
X165369157Y-56623765D01*
X165370896Y-56630313D01*
X165375922Y-56654503D01*
X165375926Y-56654516D01*
X165413508Y-56760260D01*
X165448970Y-56869402D01*
X165449167Y-56870006D01*
X165459969Y-56892153D01*
X165462662Y-56898565D01*
X165469864Y-56918830D01*
X165469865Y-56918833D01*
X165469866Y-56918834D01*
X165522939Y-57021261D01*
X165574876Y-57127749D01*
X165574883Y-57127759D01*
X165586852Y-57145505D01*
X165590504Y-57151656D01*
X165598919Y-57167896D01*
X165667236Y-57264679D01*
X165735234Y-57365491D01*
X165735235Y-57365492D01*
X165735238Y-57365496D01*
X165747428Y-57379035D01*
X165751996Y-57384756D01*
X165760688Y-57397069D01*
X165833845Y-57475402D01*
X165843658Y-57485909D01*
X165910384Y-57560016D01*
X165927125Y-57578608D01*
X165937595Y-57587393D01*
X165938600Y-57588237D01*
X165944063Y-57593417D01*
X165952155Y-57602081D01*
X165976896Y-57622209D01*
X166048877Y-57680770D01*
X166146795Y-57762934D01*
X166146798Y-57762936D01*
X166146803Y-57762940D01*
X166156784Y-57769177D01*
X166163053Y-57773659D01*
X166165740Y-57775846D01*
X166169747Y-57779106D01*
X166169748Y-57779106D01*
X166169754Y-57779111D01*
X166278938Y-57845507D01*
X166389998Y-57914905D01*
X166390001Y-57914906D01*
X166390004Y-57914908D01*
X166397808Y-57918383D01*
X166404810Y-57922052D01*
X166409429Y-57924860D01*
X166409436Y-57924864D01*
X166529442Y-57976989D01*
X166651962Y-58031540D01*
X166651970Y-58031543D01*
X166651975Y-58031545D01*
X166657102Y-58033015D01*
X166664708Y-58035744D01*
X166666725Y-58036620D01*
X166795727Y-58072765D01*
X166927636Y-58110589D01*
X166928595Y-58110723D01*
X166932569Y-58111415D01*
X166936830Y-58112300D01*
X166936839Y-58112303D01*
X167072739Y-58130982D01*
X167211613Y-58150500D01*
X167211615Y-58150500D01*
X167495257Y-58150500D01*
X167495258Y-58150500D01*
X167564337Y-58141004D01*
X167568387Y-58140585D01*
X167641071Y-58135503D01*
X167706045Y-58121692D01*
X167710468Y-58120920D01*
X167713907Y-58120447D01*
X167773161Y-58112303D01*
X167843376Y-58092629D01*
X167847178Y-58091693D01*
X167921575Y-58075880D01*
X167980981Y-58054257D01*
X167985428Y-58052827D01*
X168043275Y-58036620D01*
X168113125Y-58006279D01*
X168116537Y-58004918D01*
X168191050Y-57977799D01*
X168244035Y-57949625D01*
X168248407Y-57947517D01*
X168300568Y-57924862D01*
X168368382Y-57883622D01*
X168371409Y-57881900D01*
X168444253Y-57843169D01*
X168490193Y-57809790D01*
X168494404Y-57806987D01*
X168540246Y-57779111D01*
X168604266Y-57727025D01*
X168606952Y-57724960D01*
X168676254Y-57674610D01*
X168714799Y-57637385D01*
X168718719Y-57633911D01*
X168757845Y-57602081D01*
X168816389Y-57539394D01*
X168818603Y-57537144D01*
X168820232Y-57535571D01*
X168882539Y-57475403D01*
X168913557Y-57435699D01*
X168917080Y-57431579D01*
X168949312Y-57397069D01*
X169000601Y-57324408D01*
X169002385Y-57322007D01*
X169023035Y-57295576D01*
X169059093Y-57249425D01*
X169082673Y-57208580D01*
X169085696Y-57203857D01*
X169111081Y-57167896D01*
X169153489Y-57086049D01*
X169154815Y-57083626D01*
X169202477Y-57001075D01*
X169218938Y-56960329D01*
X169221361Y-56955062D01*
X169240136Y-56918830D01*
X169272511Y-56827733D01*
X169309903Y-56735187D01*
X169319752Y-56695684D01*
X169321492Y-56689915D01*
X169334075Y-56654511D01*
X169354378Y-56556804D01*
X169379279Y-56456935D01*
X169383198Y-56419639D01*
X169384153Y-56413519D01*
X169391148Y-56379862D01*
X169398170Y-56277197D01*
X169409255Y-56171736D01*
X169408720Y-56156438D01*
X169408058Y-56137480D01*
X169408165Y-56131078D01*
X169408890Y-56120468D01*
X169410291Y-56100000D01*
X169403056Y-55994237D01*
X169399247Y-55885141D01*
X169393851Y-55854544D01*
X169393054Y-55848005D01*
X169392865Y-55845251D01*
X169391148Y-55820138D01*
X169368947Y-55713303D01*
X169349450Y-55602728D01*
X169340840Y-55576233D01*
X169339105Y-55569699D01*
X169334075Y-55545489D01*
X169296491Y-55439739D01*
X169283579Y-55400001D01*
X172194318Y-55400001D01*
X172214955Y-55556760D01*
X172214956Y-55556762D01*
X172275464Y-55702841D01*
X172371718Y-55828282D01*
X172497159Y-55924536D01*
X172643238Y-55985044D01*
X172713066Y-55994237D01*
X172799999Y-56005682D01*
X172800000Y-56005682D01*
X172800001Y-56005682D01*
X172852254Y-55998802D01*
X172956762Y-55985044D01*
X173102841Y-55924536D01*
X173228282Y-55828282D01*
X173324536Y-55702841D01*
X173385044Y-55556762D01*
X173405682Y-55400001D01*
X175094318Y-55400001D01*
X175114955Y-55556760D01*
X175114956Y-55556762D01*
X175175464Y-55702841D01*
X175271718Y-55828282D01*
X175397159Y-55924536D01*
X175543238Y-55985044D01*
X175613066Y-55994237D01*
X175699999Y-56005682D01*
X175700000Y-56005682D01*
X175700001Y-56005682D01*
X175752254Y-55998802D01*
X175856762Y-55985044D01*
X176002841Y-55924536D01*
X176128282Y-55828282D01*
X176224536Y-55702841D01*
X176285044Y-55556762D01*
X176305682Y-55400000D01*
X176301049Y-55364812D01*
X176285044Y-55243239D01*
X176285044Y-55243238D01*
X176224536Y-55097159D01*
X176128282Y-54971718D01*
X176002841Y-54875464D01*
X175970705Y-54862153D01*
X175856762Y-54814956D01*
X175856760Y-54814955D01*
X175700001Y-54794318D01*
X175699999Y-54794318D01*
X175543239Y-54814955D01*
X175543237Y-54814956D01*
X175397160Y-54875463D01*
X175271718Y-54971718D01*
X175175463Y-55097160D01*
X175114956Y-55243237D01*
X175114955Y-55243239D01*
X175094318Y-55399998D01*
X175094318Y-55400001D01*
X173405682Y-55400001D01*
X173405682Y-55400000D01*
X173401049Y-55364812D01*
X173385044Y-55243239D01*
X173385044Y-55243238D01*
X173324536Y-55097159D01*
X173228282Y-54971718D01*
X173102841Y-54875464D01*
X173070705Y-54862153D01*
X172956762Y-54814956D01*
X172956760Y-54814955D01*
X172800001Y-54794318D01*
X172799999Y-54794318D01*
X172643239Y-54814955D01*
X172643237Y-54814956D01*
X172497160Y-54875463D01*
X172371718Y-54971718D01*
X172275463Y-55097160D01*
X172214956Y-55243237D01*
X172214955Y-55243239D01*
X172194318Y-55399998D01*
X172194318Y-55400001D01*
X169283579Y-55400001D01*
X169260833Y-55329994D01*
X169250033Y-55307852D01*
X169247335Y-55301428D01*
X169240137Y-55281173D01*
X169240136Y-55281170D01*
X169187060Y-55178738D01*
X169135121Y-55072247D01*
X169123147Y-55054495D01*
X169119495Y-55048343D01*
X169111080Y-55032103D01*
X169075857Y-54982204D01*
X169042763Y-54935320D01*
X168974762Y-54834504D01*
X168962579Y-54820973D01*
X168957999Y-54815237D01*
X168949319Y-54802941D01*
X168949317Y-54802938D01*
X168949312Y-54802931D01*
X168866341Y-54714090D01*
X168840386Y-54685264D01*
X168782879Y-54621396D01*
X168782873Y-54621390D01*
X168779939Y-54618928D01*
X168771384Y-54611749D01*
X168765940Y-54606587D01*
X168757845Y-54597919D01*
X168757839Y-54597914D01*
X168757837Y-54597912D01*
X168661122Y-54519229D01*
X168649333Y-54509337D01*
X168563197Y-54437060D01*
X168563189Y-54437055D01*
X168553217Y-54430822D01*
X168546946Y-54426339D01*
X168540251Y-54420893D01*
X168540250Y-54420892D01*
X168540246Y-54420889D01*
X168431061Y-54354492D01*
X168320005Y-54285096D01*
X168317433Y-54283951D01*
X168312181Y-54281612D01*
X168305191Y-54277949D01*
X168300568Y-54275138D01*
X168300566Y-54275137D01*
X168180557Y-54223010D01*
X168058029Y-54168456D01*
X168058023Y-54168454D01*
X168052894Y-54166983D01*
X168045284Y-54164252D01*
X168043275Y-54163380D01*
X168043273Y-54163379D01*
X168043274Y-54163379D01*
X167914272Y-54127234D01*
X167782364Y-54089411D01*
X167782359Y-54089410D01*
X167781418Y-54089278D01*
X167777447Y-54088587D01*
X167773161Y-54087696D01*
X167637260Y-54069017D01*
X167498388Y-54049500D01*
X167498385Y-54049500D01*
X167495258Y-54049500D01*
X167214742Y-54049500D01*
X167214737Y-54049500D01*
X167145696Y-54058989D01*
X167141579Y-54059415D01*
X167068929Y-54064496D01*
X167003974Y-54078302D01*
X166999527Y-54079079D01*
X166940299Y-54087221D01*
X166936847Y-54087696D01*
X166936832Y-54087698D01*
X166866641Y-54107364D01*
X166862806Y-54108308D01*
X166788425Y-54124120D01*
X166729038Y-54145734D01*
X166724562Y-54147173D01*
X166682879Y-54158853D01*
X166666725Y-54163380D01*
X166666722Y-54163380D01*
X166666719Y-54163382D01*
X166596914Y-54193702D01*
X166593420Y-54195095D01*
X166518954Y-54222198D01*
X166465977Y-54250366D01*
X166461571Y-54252490D01*
X166409430Y-54275138D01*
X166409429Y-54275139D01*
X166341656Y-54316352D01*
X166338550Y-54318120D01*
X166265745Y-54356832D01*
X166265738Y-54356836D01*
X166219813Y-54390202D01*
X166215585Y-54393017D01*
X166169760Y-54420884D01*
X166169741Y-54420897D01*
X166105724Y-54472979D01*
X166103040Y-54475043D01*
X166033750Y-54525386D01*
X166033738Y-54525396D01*
X165995212Y-54562600D01*
X165991272Y-54566094D01*
X165952151Y-54597922D01*
X165952146Y-54597927D01*
X165893629Y-54660583D01*
X165891387Y-54662862D01*
X165827461Y-54724596D01*
X165796454Y-54764282D01*
X165792909Y-54768429D01*
X165760694Y-54802923D01*
X165760681Y-54802938D01*
X165709399Y-54875587D01*
X165707605Y-54878003D01*
X165650912Y-54950568D01*
X165650906Y-54950576D01*
X165627336Y-54991398D01*
X165624296Y-54996151D01*
X165598916Y-55032108D01*
X165556524Y-55113921D01*
X165555169Y-55116396D01*
X165507523Y-55198923D01*
X165507522Y-55198925D01*
X165491069Y-55239647D01*
X165488633Y-55244945D01*
X165469862Y-55281173D01*
X165437488Y-55372266D01*
X165400097Y-55464812D01*
X165400096Y-55464814D01*
X165390246Y-55504318D01*
X165388507Y-55510082D01*
X165375927Y-55545480D01*
X165375922Y-55545498D01*
X165355621Y-55643195D01*
X165330720Y-55743067D01*
X165330719Y-55743071D01*
X165326801Y-55780349D01*
X165325844Y-55786482D01*
X165318852Y-55820136D01*
X165318851Y-55820138D01*
X165311829Y-55922802D01*
X165300744Y-56028271D01*
X165300744Y-56028273D01*
X165301941Y-56062520D01*
X165301834Y-56068918D01*
X165299709Y-56099998D01*
X165299709Y-56099999D01*
X151996763Y-56099999D01*
X151999298Y-56043557D01*
X151969023Y-55820054D01*
X151899326Y-55605549D01*
X151792447Y-55406936D01*
X151651823Y-55230598D01*
X151651817Y-55230593D01*
X151651815Y-55230590D01*
X151481978Y-55082209D01*
X151481978Y-55082208D01*
X151481973Y-55082205D01*
X151481972Y-55082204D01*
X151417100Y-55043444D01*
X151369649Y-54992164D01*
X151357454Y-54923367D01*
X151384389Y-54858898D01*
X151441903Y-54819225D01*
X151480701Y-54812999D01*
X151739864Y-54812999D01*
X151739879Y-54812997D01*
X151739882Y-54812997D01*
X151764987Y-54810086D01*
X151764988Y-54810085D01*
X151764991Y-54810085D01*
X151867765Y-54764706D01*
X151947206Y-54685265D01*
X151992585Y-54582491D01*
X151995500Y-54557365D01*
X151995499Y-52747524D01*
X163541841Y-52747524D01*
X163562478Y-52904283D01*
X163562479Y-52904285D01*
X163622987Y-53050364D01*
X163719241Y-53175805D01*
X163844682Y-53272059D01*
X163990761Y-53332567D01*
X164069142Y-53342886D01*
X164147522Y-53353205D01*
X164147523Y-53353205D01*
X164147524Y-53353205D01*
X164199777Y-53346325D01*
X164304285Y-53332567D01*
X164450364Y-53272059D01*
X164575805Y-53175805D01*
X164672059Y-53050364D01*
X164732567Y-52904285D01*
X164753205Y-52747523D01*
X164737256Y-52626379D01*
X164748021Y-52557345D01*
X164794401Y-52505089D01*
X164861670Y-52486204D01*
X164876373Y-52487255D01*
X164997523Y-52503205D01*
X164997524Y-52503205D01*
X165049777Y-52496325D01*
X165154285Y-52482567D01*
X165300364Y-52422059D01*
X165425805Y-52325805D01*
X165522059Y-52200364D01*
X165582567Y-52054285D01*
X165603205Y-51897523D01*
X165582567Y-51740761D01*
X165522059Y-51594682D01*
X165425805Y-51469241D01*
X165300364Y-51372987D01*
X165154285Y-51312479D01*
X165154283Y-51312478D01*
X164997524Y-51291841D01*
X164997522Y-51291841D01*
X164840762Y-51312478D01*
X164840760Y-51312479D01*
X164694683Y-51372986D01*
X164569241Y-51469241D01*
X164472986Y-51594683D01*
X164412479Y-51740760D01*
X164412478Y-51740762D01*
X164391841Y-51897521D01*
X164391841Y-51897524D01*
X164407789Y-52018665D01*
X164397023Y-52087700D01*
X164350643Y-52139956D01*
X164283374Y-52158841D01*
X164268665Y-52157789D01*
X164147524Y-52141841D01*
X164147522Y-52141841D01*
X163990762Y-52162478D01*
X163990760Y-52162479D01*
X163844683Y-52222986D01*
X163719241Y-52319241D01*
X163622986Y-52444683D01*
X163562479Y-52590760D01*
X163562478Y-52590762D01*
X163541841Y-52747521D01*
X163541841Y-52747524D01*
X151995499Y-52747524D01*
X151995499Y-52562636D01*
X151995497Y-52562617D01*
X151992586Y-52537512D01*
X151992585Y-52537510D01*
X151992585Y-52537509D01*
X151947206Y-52434735D01*
X151867765Y-52355294D01*
X151850005Y-52347452D01*
X151764992Y-52309915D01*
X151739865Y-52307000D01*
X149650143Y-52307000D01*
X149650117Y-52307002D01*
X149625012Y-52309913D01*
X149625008Y-52309915D01*
X149522235Y-52355293D01*
X149442794Y-52434734D01*
X149397415Y-52537506D01*
X149397415Y-52537508D01*
X149394500Y-52562631D01*
X149394500Y-54557356D01*
X149394502Y-54557382D01*
X149397413Y-54582487D01*
X149397415Y-54582491D01*
X149442793Y-54685264D01*
X149442794Y-54685265D01*
X149522235Y-54764706D01*
X149625009Y-54810085D01*
X149650135Y-54813000D01*
X149905540Y-54812999D01*
X149972577Y-54832683D01*
X150018332Y-54885487D01*
X150028276Y-54954646D01*
X149999251Y-55018201D01*
X149978424Y-55037317D01*
X149819771Y-55152586D01*
X149819767Y-55152588D01*
X149663906Y-55315606D01*
X149539654Y-55503841D01*
X149508710Y-55576238D01*
X149454599Y-55702839D01*
X149451009Y-55711238D01*
X149451006Y-55711247D01*
X149400821Y-55931122D01*
X149400821Y-55931129D01*
X149391554Y-56137480D01*
X149390702Y-56156443D01*
X149420977Y-56379946D01*
X149420978Y-56379950D01*
X149490673Y-56594450D01*
X149592887Y-56784393D01*
X149597553Y-56793064D01*
X149738177Y-56969402D01*
X149738181Y-56969405D01*
X149738184Y-56969409D01*
X149908021Y-57117790D01*
X149908021Y-57117791D01*
X149908025Y-57117793D01*
X149908028Y-57117796D01*
X150101646Y-57233477D01*
X150155246Y-57253593D01*
X150211092Y-57295576D01*
X150235376Y-57361090D01*
X150220385Y-57429333D01*
X150170880Y-57478638D01*
X150165476Y-57481405D01*
X150002238Y-57560016D01*
X150002232Y-57560019D01*
X149819775Y-57692582D01*
X149819767Y-57692588D01*
X149663906Y-57855606D01*
X149539654Y-58043841D01*
X149451009Y-58251238D01*
X149451006Y-58251247D01*
X149400821Y-58471122D01*
X149400821Y-58471129D01*
X149395772Y-58583561D01*
X149390702Y-58696443D01*
X145725000Y-58696443D01*
X145725000Y-49844856D01*
X150699500Y-49844856D01*
X150699502Y-49844882D01*
X150702413Y-49869987D01*
X150702415Y-49869991D01*
X150747793Y-49972764D01*
X150747794Y-49972765D01*
X150827235Y-50052206D01*
X150930009Y-50097585D01*
X150955135Y-50100500D01*
X153044864Y-50100499D01*
X153044879Y-50100497D01*
X153044882Y-50100497D01*
X153069987Y-50097586D01*
X153069988Y-50097585D01*
X153069991Y-50097585D01*
X153172765Y-50052206D01*
X153252206Y-49972765D01*
X153297585Y-49869991D01*
X153300500Y-49844865D01*
X153300500Y-48800001D01*
X155774532Y-48800001D01*
X155794364Y-49026686D01*
X155794366Y-49026697D01*
X155853258Y-49246488D01*
X155853261Y-49246497D01*
X155949431Y-49452732D01*
X155949432Y-49452734D01*
X156079954Y-49639141D01*
X156240858Y-49800045D01*
X156303409Y-49843843D01*
X156427266Y-49930568D01*
X156633504Y-50026739D01*
X156853308Y-50085635D01*
X157015230Y-50099801D01*
X157079998Y-50105468D01*
X157080000Y-50105468D01*
X157080002Y-50105468D01*
X157142648Y-50099987D01*
X157306692Y-50085635D01*
X157346920Y-50074856D01*
X176491500Y-50074856D01*
X176491502Y-50074882D01*
X176494413Y-50099987D01*
X176494415Y-50099991D01*
X176539793Y-50202764D01*
X176539794Y-50202765D01*
X176619235Y-50282206D01*
X176722009Y-50327585D01*
X176747135Y-50330500D01*
X177836864Y-50330499D01*
X177836879Y-50330497D01*
X177836882Y-50330497D01*
X177861987Y-50327586D01*
X177861988Y-50327585D01*
X177861991Y-50327585D01*
X177964765Y-50282206D01*
X178006652Y-50240318D01*
X178067973Y-50206834D01*
X178137664Y-50211818D01*
X178160304Y-50223006D01*
X178212477Y-50255789D01*
X178212481Y-50255790D01*
X178382737Y-50315366D01*
X178382743Y-50315367D01*
X178382745Y-50315368D01*
X178382746Y-50315368D01*
X178382750Y-50315369D01*
X178561996Y-50335565D01*
X178562000Y-50335565D01*
X178562004Y-50335565D01*
X178741249Y-50315369D01*
X178741252Y-50315368D01*
X178741255Y-50315368D01*
X178911522Y-50255789D01*
X179064262Y-50159816D01*
X179191816Y-50032262D01*
X179287789Y-49879522D01*
X179321214Y-49784000D01*
X180396355Y-49784000D01*
X180416859Y-49952869D01*
X180416860Y-49952874D01*
X180477182Y-50111931D01*
X180539475Y-50202177D01*
X180573817Y-50251929D01*
X180662502Y-50330497D01*
X180701150Y-50364736D01*
X180851773Y-50443789D01*
X180851775Y-50443790D01*
X181016944Y-50484500D01*
X181187056Y-50484500D01*
X181352225Y-50443790D01*
X181431692Y-50402081D01*
X181502849Y-50364736D01*
X181502850Y-50364734D01*
X181502852Y-50364734D01*
X181630183Y-50251929D01*
X181726818Y-50111930D01*
X181787140Y-49952872D01*
X181807645Y-49784000D01*
X181787140Y-49615128D01*
X181726818Y-49456070D01*
X181724515Y-49452734D01*
X181654120Y-49350750D01*
X181630183Y-49316071D01*
X181502852Y-49203266D01*
X181502849Y-49203263D01*
X181352226Y-49124210D01*
X181187056Y-49083500D01*
X181016944Y-49083500D01*
X180851773Y-49124210D01*
X180701150Y-49203263D01*
X180573816Y-49316072D01*
X180477182Y-49456068D01*
X180416860Y-49615125D01*
X180416859Y-49615130D01*
X180396355Y-49784000D01*
X179321214Y-49784000D01*
X179347368Y-49709255D01*
X179348976Y-49694987D01*
X179367565Y-49530003D01*
X179367565Y-49529996D01*
X179347369Y-49350750D01*
X179347368Y-49350745D01*
X179339508Y-49328282D01*
X179287789Y-49180478D01*
X179191816Y-49027738D01*
X179064262Y-48900184D01*
X179061574Y-48898495D01*
X178911523Y-48804211D01*
X178741254Y-48744631D01*
X178741249Y-48744630D01*
X178562004Y-48724435D01*
X178561996Y-48724435D01*
X178382750Y-48744630D01*
X178382737Y-48744633D01*
X178212480Y-48804209D01*
X178160302Y-48836994D01*
X178093065Y-48855993D01*
X178026230Y-48835624D01*
X178006651Y-48819680D01*
X177964765Y-48777794D01*
X177861992Y-48732415D01*
X177836865Y-48729500D01*
X176747143Y-48729500D01*
X176747117Y-48729502D01*
X176722012Y-48732413D01*
X176722008Y-48732415D01*
X176619235Y-48777793D01*
X176539794Y-48857234D01*
X176494415Y-48960006D01*
X176494415Y-48960008D01*
X176491500Y-48985131D01*
X176491500Y-50074856D01*
X157346920Y-50074856D01*
X157526496Y-50026739D01*
X157732734Y-49930568D01*
X157919139Y-49800047D01*
X158049330Y-49669856D01*
X164174500Y-49669856D01*
X164174502Y-49669882D01*
X164177413Y-49694987D01*
X164177415Y-49694991D01*
X164222793Y-49797764D01*
X164222794Y-49797765D01*
X164302235Y-49877206D01*
X164405009Y-49922585D01*
X164430135Y-49925500D01*
X165519864Y-49925499D01*
X165519879Y-49925497D01*
X165519882Y-49925497D01*
X165544987Y-49922586D01*
X165544988Y-49922585D01*
X165544991Y-49922585D01*
X165647765Y-49877206D01*
X165689652Y-49835318D01*
X165750973Y-49801834D01*
X165820664Y-49806818D01*
X165843304Y-49818006D01*
X165895477Y-49850789D01*
X165895481Y-49850790D01*
X166065737Y-49910366D01*
X166065743Y-49910367D01*
X166065745Y-49910368D01*
X166065746Y-49910368D01*
X166065750Y-49910369D01*
X166244996Y-49930565D01*
X166245000Y-49930565D01*
X166245004Y-49930565D01*
X166424249Y-49910369D01*
X166424252Y-49910368D01*
X166424255Y-49910368D01*
X166594522Y-49850789D01*
X166747262Y-49754816D01*
X166757222Y-49744856D01*
X168499500Y-49744856D01*
X168499502Y-49744882D01*
X168502413Y-49769987D01*
X168502415Y-49769991D01*
X168547793Y-49872764D01*
X168547794Y-49872765D01*
X168627235Y-49952206D01*
X168730009Y-49997585D01*
X168755135Y-50000500D01*
X169844864Y-50000499D01*
X169844879Y-50000497D01*
X169844882Y-50000497D01*
X169869987Y-49997586D01*
X169869988Y-49997585D01*
X169869991Y-49997585D01*
X169972765Y-49952206D01*
X170014652Y-49910318D01*
X170075973Y-49876834D01*
X170145664Y-49881818D01*
X170168304Y-49893006D01*
X170220477Y-49925789D01*
X170220481Y-49925790D01*
X170390737Y-49985366D01*
X170390743Y-49985367D01*
X170390745Y-49985368D01*
X170390746Y-49985368D01*
X170390750Y-49985369D01*
X170569996Y-50005565D01*
X170570000Y-50005565D01*
X170570004Y-50005565D01*
X170749249Y-49985369D01*
X170749252Y-49985368D01*
X170749255Y-49985368D01*
X170919522Y-49925789D01*
X171072262Y-49829816D01*
X171199816Y-49702262D01*
X171295789Y-49549522D01*
X171355368Y-49379255D01*
X171358580Y-49350750D01*
X171375565Y-49200003D01*
X171375565Y-49199996D01*
X171355369Y-49020750D01*
X171355368Y-49020745D01*
X171313118Y-48900001D01*
X172394318Y-48900001D01*
X172414955Y-49056760D01*
X172414956Y-49056762D01*
X172474285Y-49199996D01*
X172475464Y-49202841D01*
X172571718Y-49328282D01*
X172697159Y-49424536D01*
X172843238Y-49485044D01*
X172921619Y-49495363D01*
X172999999Y-49505682D01*
X173000000Y-49505682D01*
X173000001Y-49505682D01*
X173052254Y-49498802D01*
X173156762Y-49485044D01*
X173302841Y-49424536D01*
X173428282Y-49328282D01*
X173524536Y-49202841D01*
X173585044Y-49056762D01*
X173605682Y-48900000D01*
X173599888Y-48855993D01*
X173585228Y-48744633D01*
X173585044Y-48743238D01*
X173524536Y-48597159D01*
X173428282Y-48471718D01*
X173302841Y-48375464D01*
X173275379Y-48364089D01*
X173156762Y-48314956D01*
X173156760Y-48314955D01*
X173000001Y-48294318D01*
X172999999Y-48294318D01*
X172843239Y-48314955D01*
X172843237Y-48314956D01*
X172697160Y-48375463D01*
X172571718Y-48471718D01*
X172475463Y-48597160D01*
X172414956Y-48743237D01*
X172414955Y-48743239D01*
X172394318Y-48899998D01*
X172394318Y-48900001D01*
X171313118Y-48900001D01*
X171295789Y-48850478D01*
X171287316Y-48836994D01*
X171228406Y-48743239D01*
X171199816Y-48697738D01*
X171072262Y-48570184D01*
X171048110Y-48555008D01*
X170919523Y-48474211D01*
X170749254Y-48414631D01*
X170749249Y-48414630D01*
X170570004Y-48394435D01*
X170569996Y-48394435D01*
X170390750Y-48414630D01*
X170390737Y-48414633D01*
X170220480Y-48474209D01*
X170168302Y-48506994D01*
X170101065Y-48525993D01*
X170034230Y-48505624D01*
X170014651Y-48489680D01*
X169972765Y-48447794D01*
X169869992Y-48402415D01*
X169844865Y-48399500D01*
X168755143Y-48399500D01*
X168755117Y-48399502D01*
X168730012Y-48402413D01*
X168730008Y-48402415D01*
X168627235Y-48447793D01*
X168547794Y-48527234D01*
X168502415Y-48630006D01*
X168502415Y-48630008D01*
X168499500Y-48655131D01*
X168499500Y-49744856D01*
X166757222Y-49744856D01*
X166874816Y-49627262D01*
X166970789Y-49474522D01*
X167030368Y-49304255D01*
X167041795Y-49202839D01*
X167050565Y-49125003D01*
X167050565Y-49124996D01*
X167030369Y-48945750D01*
X167030368Y-48945745D01*
X166970789Y-48775478D01*
X166943729Y-48732413D01*
X166895170Y-48655131D01*
X166874816Y-48622738D01*
X166747262Y-48495184D01*
X166744574Y-48493495D01*
X166594523Y-48399211D01*
X166424254Y-48339631D01*
X166424249Y-48339630D01*
X166245004Y-48319435D01*
X166244996Y-48319435D01*
X166065750Y-48339630D01*
X166065737Y-48339633D01*
X165895480Y-48399209D01*
X165843302Y-48431994D01*
X165776065Y-48450993D01*
X165709230Y-48430624D01*
X165689651Y-48414680D01*
X165647765Y-48372794D01*
X165544992Y-48327415D01*
X165519865Y-48324500D01*
X164430143Y-48324500D01*
X164430117Y-48324502D01*
X164405012Y-48327413D01*
X164405008Y-48327415D01*
X164302235Y-48372793D01*
X164222794Y-48452234D01*
X164177415Y-48555006D01*
X164177415Y-48555008D01*
X164174500Y-48580131D01*
X164174500Y-49669856D01*
X158049330Y-49669856D01*
X158080047Y-49639139D01*
X158210568Y-49452734D01*
X158306739Y-49246496D01*
X158365635Y-49026692D01*
X158385468Y-48800000D01*
X158383322Y-48775476D01*
X158372794Y-48655135D01*
X158365635Y-48573308D01*
X158311908Y-48372794D01*
X158306741Y-48353511D01*
X158306738Y-48353502D01*
X158293215Y-48324502D01*
X158210568Y-48147266D01*
X158080047Y-47960861D01*
X158080045Y-47960858D01*
X157919141Y-47799954D01*
X157732734Y-47669432D01*
X157732732Y-47669431D01*
X157526497Y-47573261D01*
X157526488Y-47573258D01*
X157306697Y-47514366D01*
X157306693Y-47514365D01*
X157306692Y-47514365D01*
X157306691Y-47514364D01*
X157306686Y-47514364D01*
X157080002Y-47494532D01*
X157079998Y-47494532D01*
X156853313Y-47514364D01*
X156853302Y-47514366D01*
X156633511Y-47573258D01*
X156633502Y-47573261D01*
X156427267Y-47669431D01*
X156427265Y-47669432D01*
X156240858Y-47799954D01*
X156079954Y-47960858D01*
X155949432Y-48147265D01*
X155949431Y-48147267D01*
X155853261Y-48353502D01*
X155853258Y-48353511D01*
X155794366Y-48573302D01*
X155794364Y-48573313D01*
X155774532Y-48799998D01*
X155774532Y-48800001D01*
X153300500Y-48800001D01*
X153300499Y-47755136D01*
X153300497Y-47755117D01*
X153297586Y-47730012D01*
X153297585Y-47730010D01*
X153297585Y-47730009D01*
X153252206Y-47627235D01*
X153172765Y-47547794D01*
X153097058Y-47514366D01*
X153069992Y-47502415D01*
X153044865Y-47499500D01*
X150955143Y-47499500D01*
X150955117Y-47499502D01*
X150930012Y-47502413D01*
X150930008Y-47502415D01*
X150827235Y-47547793D01*
X150747794Y-47627234D01*
X150702415Y-47730006D01*
X150702415Y-47730008D01*
X150699500Y-47755131D01*
X150699500Y-49844856D01*
X145725000Y-49844856D01*
X145725000Y-45200001D01*
X166694318Y-45200001D01*
X166714955Y-45356760D01*
X166714956Y-45356762D01*
X166775464Y-45502841D01*
X166871718Y-45628282D01*
X166997159Y-45724536D01*
X167143238Y-45785044D01*
X167221619Y-45795363D01*
X167299999Y-45805682D01*
X167300000Y-45805682D01*
X167300001Y-45805682D01*
X167352254Y-45798802D01*
X167456762Y-45785044D01*
X167602841Y-45724536D01*
X167728282Y-45628282D01*
X167751625Y-45597860D01*
X167808051Y-45556658D01*
X167877797Y-45552503D01*
X167938718Y-45586714D01*
X167948368Y-45597851D01*
X167971718Y-45628282D01*
X168097159Y-45724536D01*
X168243238Y-45785044D01*
X168321619Y-45795363D01*
X168399999Y-45805682D01*
X168400000Y-45805682D01*
X168400001Y-45805682D01*
X168452254Y-45798802D01*
X168556762Y-45785044D01*
X168702841Y-45724536D01*
X168828282Y-45628282D01*
X168924536Y-45502841D01*
X168985044Y-45356762D01*
X169005682Y-45200000D01*
X168985044Y-45043238D01*
X168924536Y-44897159D01*
X168828282Y-44771718D01*
X168702841Y-44675464D01*
X168590138Y-44628781D01*
X168556762Y-44614956D01*
X168556760Y-44614955D01*
X168400001Y-44594318D01*
X168399999Y-44594318D01*
X168243239Y-44614955D01*
X168243237Y-44614956D01*
X168097160Y-44675463D01*
X168032555Y-44725036D01*
X167971718Y-44771718D01*
X167948374Y-44802140D01*
X167891948Y-44843341D01*
X167822202Y-44847496D01*
X167761281Y-44813283D01*
X167751630Y-44802146D01*
X167728282Y-44771718D01*
X167602841Y-44675464D01*
X167490138Y-44628781D01*
X167456762Y-44614956D01*
X167456760Y-44614955D01*
X167300001Y-44594318D01*
X167299999Y-44594318D01*
X167143239Y-44614955D01*
X167143237Y-44614956D01*
X166997160Y-44675463D01*
X166871718Y-44771718D01*
X166775463Y-44897160D01*
X166714956Y-45043237D01*
X166714955Y-45043239D01*
X166694318Y-45199998D01*
X166694318Y-45200001D01*
X145725000Y-45200001D01*
X145725000Y-44200001D01*
X158394318Y-44200001D01*
X158414955Y-44356760D01*
X158414956Y-44356762D01*
X158475464Y-44502841D01*
X158571718Y-44628282D01*
X158697159Y-44724536D01*
X158843238Y-44785044D01*
X158921619Y-44795363D01*
X158999999Y-44805682D01*
X159000000Y-44805682D01*
X159000001Y-44805682D01*
X159052254Y-44798802D01*
X159156762Y-44785044D01*
X159302841Y-44724536D01*
X159424190Y-44631421D01*
X159489356Y-44606229D01*
X159557801Y-44620267D01*
X159575160Y-44631423D01*
X159697157Y-44725035D01*
X159697158Y-44725035D01*
X159697159Y-44725036D01*
X159843238Y-44785544D01*
X159921619Y-44795863D01*
X159999999Y-44806182D01*
X160000000Y-44806182D01*
X160000001Y-44806182D01*
X160052254Y-44799302D01*
X160156762Y-44785544D01*
X160302841Y-44725036D01*
X160428282Y-44628782D01*
X160524536Y-44503341D01*
X160585044Y-44357262D01*
X160605682Y-44200500D01*
X160605616Y-44200001D01*
X160585044Y-44043739D01*
X160585044Y-44043738D01*
X160524536Y-43897659D01*
X160428282Y-43772218D01*
X160302841Y-43675964D01*
X160301631Y-43675463D01*
X160156762Y-43615456D01*
X160156760Y-43615455D01*
X160000001Y-43594818D01*
X159999999Y-43594818D01*
X159843239Y-43615455D01*
X159843237Y-43615456D01*
X159697157Y-43675964D01*
X159575811Y-43769076D01*
X159510641Y-43794270D01*
X159442197Y-43780231D01*
X159424839Y-43769076D01*
X159302842Y-43675464D01*
X159156762Y-43614956D01*
X159156760Y-43614955D01*
X159000001Y-43594318D01*
X158999999Y-43594318D01*
X158843239Y-43614955D01*
X158843237Y-43614956D01*
X158697160Y-43675463D01*
X158571718Y-43771718D01*
X158475463Y-43897160D01*
X158414956Y-44043237D01*
X158414955Y-44043239D01*
X158394318Y-44199998D01*
X158394318Y-44200001D01*
X145725000Y-44200001D01*
X145725000Y-42954210D01*
X177159394Y-42954210D01*
X177159395Y-43022105D01*
X177159395Y-47834214D01*
X177159417Y-47834446D01*
X177159425Y-47889993D01*
X177189655Y-48022365D01*
X177189656Y-48022370D01*
X177248577Y-48144698D01*
X177250626Y-48147267D01*
X177333234Y-48250851D01*
X177333236Y-48250853D01*
X177385329Y-48292399D01*
X177439387Y-48335513D01*
X177561714Y-48394438D01*
X177694084Y-48424672D01*
X177715459Y-48424675D01*
X177737218Y-48424679D01*
X177737243Y-48424684D01*
X177761875Y-48424684D01*
X194574112Y-48424684D01*
X194574415Y-48424653D01*
X194629867Y-48424656D01*
X194762250Y-48394446D01*
X194884590Y-48335535D01*
X194990754Y-48250877D01*
X195075418Y-48144717D01*
X195134336Y-48022379D01*
X195164553Y-47889998D01*
X195164553Y-47822105D01*
X195164553Y-47821605D01*
X195164553Y-43073967D01*
X195166601Y-43066989D01*
X195166598Y-42952187D01*
X195166597Y-42952179D01*
X195136380Y-42819807D01*
X195136378Y-42819801D01*
X195136378Y-42819799D01*
X195077457Y-42697457D01*
X194992791Y-42591294D01*
X194909078Y-42524536D01*
X194886628Y-42506633D01*
X194886626Y-42506632D01*
X194886625Y-42506631D01*
X194768449Y-42449722D01*
X194764279Y-42447714D01*
X194764272Y-42447712D01*
X194631900Y-42417500D01*
X194631895Y-42417500D01*
X194564099Y-42417500D01*
X177761875Y-42417500D01*
X177760003Y-42417500D01*
X177739646Y-42419495D01*
X177694078Y-42419497D01*
X177578096Y-42445974D01*
X177561692Y-42449719D01*
X177561689Y-42449720D01*
X177561683Y-42449722D01*
X177439354Y-42508637D01*
X177439353Y-42508638D01*
X177333188Y-42593308D01*
X177333184Y-42593311D01*
X177248524Y-42699478D01*
X177189607Y-42821824D01*
X177159395Y-42954202D01*
X177159394Y-42954210D01*
X145725000Y-42954210D01*
X145725000Y-41400001D01*
X158394318Y-41400001D01*
X158414955Y-41556760D01*
X158414956Y-41556762D01*
X158475464Y-41702841D01*
X158571718Y-41828282D01*
X158697159Y-41924536D01*
X158843238Y-41985044D01*
X158921619Y-41995363D01*
X158999999Y-42005682D01*
X159000000Y-42005682D01*
X159000001Y-42005682D01*
X159052254Y-41998802D01*
X159156762Y-41985044D01*
X159302841Y-41924536D01*
X159302845Y-41924532D01*
X159309881Y-41920472D01*
X159311427Y-41923150D01*
X159362893Y-41903225D01*
X159431345Y-41917229D01*
X159481359Y-41966018D01*
X159496211Y-42010605D01*
X159515452Y-42156760D01*
X159515453Y-42156762D01*
X159575961Y-42302841D01*
X159672215Y-42428282D01*
X159797656Y-42524536D01*
X159943735Y-42585044D01*
X160022116Y-42595363D01*
X160100496Y-42605682D01*
X160100497Y-42605682D01*
X160100498Y-42605682D01*
X160152751Y-42598802D01*
X160257259Y-42585044D01*
X160403338Y-42524536D01*
X160424760Y-42508097D01*
X160489928Y-42482902D01*
X160558374Y-42496939D01*
X160575735Y-42508097D01*
X160597157Y-42524535D01*
X160597158Y-42524535D01*
X160597159Y-42524536D01*
X160743238Y-42585044D01*
X160821619Y-42595363D01*
X160899999Y-42605682D01*
X160900000Y-42605682D01*
X160900001Y-42605682D01*
X160952254Y-42598802D01*
X161056762Y-42585044D01*
X161202841Y-42524536D01*
X161328282Y-42428282D01*
X161424536Y-42302841D01*
X161485044Y-42156762D01*
X161505682Y-42000000D01*
X161485044Y-41843238D01*
X161424536Y-41697159D01*
X161328282Y-41571718D01*
X161202841Y-41475464D01*
X161056762Y-41414956D01*
X161056760Y-41414955D01*
X160900001Y-41394318D01*
X160899999Y-41394318D01*
X160743239Y-41414955D01*
X160743237Y-41414956D01*
X160597158Y-41475464D01*
X160575731Y-41491905D01*
X160510560Y-41517096D01*
X160442116Y-41503055D01*
X160424764Y-41491903D01*
X160403341Y-41475465D01*
X160257259Y-41414956D01*
X160257257Y-41414955D01*
X160100498Y-41394318D01*
X160100496Y-41394318D01*
X159943736Y-41414955D01*
X159943734Y-41414956D01*
X159797653Y-41475465D01*
X159790616Y-41479528D01*
X159789076Y-41476861D01*
X159737505Y-41496782D01*
X159669064Y-41482723D01*
X159619089Y-41433895D01*
X159604286Y-41389397D01*
X159585044Y-41243238D01*
X159524536Y-41097159D01*
X159524535Y-41097158D01*
X159524535Y-41097157D01*
X159469540Y-41025487D01*
X159444345Y-40960318D01*
X159458383Y-40891873D01*
X159469538Y-40874515D01*
X159524536Y-40802841D01*
X159585044Y-40656762D01*
X159605682Y-40500000D01*
X159585044Y-40343238D01*
X159524536Y-40197159D01*
X159428282Y-40071718D01*
X159302841Y-39975464D01*
X159156762Y-39914956D01*
X159156760Y-39914955D01*
X159000001Y-39894318D01*
X158999999Y-39894318D01*
X158843239Y-39914955D01*
X158843237Y-39914956D01*
X158697160Y-39975463D01*
X158571718Y-40071718D01*
X158475463Y-40197160D01*
X158414956Y-40343237D01*
X158414955Y-40343239D01*
X158394318Y-40499998D01*
X158394318Y-40500001D01*
X158414955Y-40656760D01*
X158414956Y-40656762D01*
X158475464Y-40802842D01*
X158530460Y-40874514D01*
X158555654Y-40939683D01*
X158541615Y-41008128D01*
X158530460Y-41025486D01*
X158475464Y-41097157D01*
X158414956Y-41243237D01*
X158414955Y-41243239D01*
X158394318Y-41399998D01*
X158394318Y-41400001D01*
X145725000Y-41400001D01*
X145725000Y-38400001D01*
X148394318Y-38400001D01*
X148414955Y-38556760D01*
X148414956Y-38556762D01*
X148475464Y-38702841D01*
X148571718Y-38828282D01*
X148697159Y-38924536D01*
X148843238Y-38985044D01*
X148921619Y-38995363D01*
X148999999Y-39005682D01*
X149000000Y-39005682D01*
X149000001Y-39005682D01*
X149052254Y-38998802D01*
X149156762Y-38985044D01*
X149302841Y-38924536D01*
X149334817Y-38900000D01*
X175394355Y-38900000D01*
X175414859Y-39068869D01*
X175414860Y-39068874D01*
X175475182Y-39227931D01*
X175537475Y-39318177D01*
X175571817Y-39367929D01*
X175677505Y-39461560D01*
X175699150Y-39480736D01*
X175849773Y-39559789D01*
X175849775Y-39559790D01*
X176014944Y-39600500D01*
X176185056Y-39600500D01*
X176350225Y-39559790D01*
X176429692Y-39518081D01*
X176500849Y-39480736D01*
X176500850Y-39480734D01*
X176500852Y-39480734D01*
X176628183Y-39367929D01*
X176724818Y-39227930D01*
X176785140Y-39068872D01*
X176805645Y-38900000D01*
X176785140Y-38731128D01*
X176724818Y-38572070D01*
X176628183Y-38432071D01*
X176500852Y-38319266D01*
X176500849Y-38319263D01*
X176350226Y-38240210D01*
X176185056Y-38199500D01*
X176014944Y-38199500D01*
X175849773Y-38240210D01*
X175699150Y-38319263D01*
X175571816Y-38432072D01*
X175475182Y-38572068D01*
X175414860Y-38731125D01*
X175414859Y-38731130D01*
X175394355Y-38900000D01*
X149334817Y-38900000D01*
X149428282Y-38828282D01*
X149524536Y-38702841D01*
X149585044Y-38556762D01*
X149605682Y-38400000D01*
X149585044Y-38243238D01*
X149524536Y-38097159D01*
X149428282Y-37971718D01*
X149302841Y-37875464D01*
X149156762Y-37814956D01*
X149156760Y-37814955D01*
X149000001Y-37794318D01*
X148999999Y-37794318D01*
X148843239Y-37814955D01*
X148843237Y-37814956D01*
X148697160Y-37875463D01*
X148571718Y-37971718D01*
X148475463Y-38097160D01*
X148414956Y-38243237D01*
X148414955Y-38243239D01*
X148394318Y-38399998D01*
X148394318Y-38400001D01*
X145725000Y-38400001D01*
X145725000Y-37200001D01*
X157294318Y-37200001D01*
X157314955Y-37356760D01*
X157314956Y-37356762D01*
X157375464Y-37502841D01*
X157471718Y-37628282D01*
X157597159Y-37724536D01*
X157743238Y-37785044D01*
X157813681Y-37794318D01*
X157899999Y-37805682D01*
X157900000Y-37805682D01*
X157900001Y-37805682D01*
X157952254Y-37798802D01*
X158056762Y-37785044D01*
X158202841Y-37724536D01*
X158328282Y-37628282D01*
X158424536Y-37502841D01*
X158485044Y-37356762D01*
X158505682Y-37200000D01*
X158499989Y-37156760D01*
X158490228Y-37082620D01*
X164994318Y-37082620D01*
X165014955Y-37239379D01*
X165014956Y-37239381D01*
X165075464Y-37385460D01*
X165171718Y-37510901D01*
X165297159Y-37607155D01*
X165443238Y-37667663D01*
X165521619Y-37677982D01*
X165599999Y-37688301D01*
X165600000Y-37688301D01*
X165600001Y-37688301D01*
X165652254Y-37681421D01*
X165756762Y-37667663D01*
X165902841Y-37607155D01*
X166028282Y-37510901D01*
X166124536Y-37385460D01*
X166185044Y-37239381D01*
X166205682Y-37082619D01*
X166200497Y-37043238D01*
X166194805Y-37000001D01*
X168794318Y-37000001D01*
X168814955Y-37156760D01*
X168814956Y-37156762D01*
X168875464Y-37302841D01*
X168971718Y-37428282D01*
X169097159Y-37524536D01*
X169243238Y-37585044D01*
X169321619Y-37595363D01*
X169399999Y-37605682D01*
X169400000Y-37605682D01*
X169400001Y-37605682D01*
X169452254Y-37598802D01*
X169556762Y-37585044D01*
X169702841Y-37524536D01*
X169828282Y-37428282D01*
X169924536Y-37302841D01*
X169985044Y-37156762D01*
X170005682Y-37000000D01*
X169992517Y-36900001D01*
X172194318Y-36900001D01*
X172214955Y-37056760D01*
X172214956Y-37056762D01*
X172274287Y-37200001D01*
X172275464Y-37202841D01*
X172371718Y-37328282D01*
X172497159Y-37424536D01*
X172643238Y-37485044D01*
X172721619Y-37495363D01*
X172799999Y-37505682D01*
X172800000Y-37505682D01*
X172800001Y-37505682D01*
X172852254Y-37498802D01*
X172956762Y-37485044D01*
X173102841Y-37424536D01*
X173228282Y-37328282D01*
X173324536Y-37202841D01*
X173385044Y-37056762D01*
X173405682Y-36900000D01*
X173385044Y-36743238D01*
X173324536Y-36597159D01*
X173228282Y-36471718D01*
X173102841Y-36375464D01*
X172956762Y-36314956D01*
X172956760Y-36314955D01*
X172800001Y-36294318D01*
X172799999Y-36294318D01*
X172643239Y-36314955D01*
X172643237Y-36314956D01*
X172497160Y-36375463D01*
X172371718Y-36471718D01*
X172275463Y-36597160D01*
X172214956Y-36743237D01*
X172214955Y-36743239D01*
X172194318Y-36899998D01*
X172194318Y-36900001D01*
X169992517Y-36900001D01*
X169985044Y-36843238D01*
X169924536Y-36697159D01*
X169828282Y-36571718D01*
X169702841Y-36475464D01*
X169693797Y-36471718D01*
X169556762Y-36414956D01*
X169556760Y-36414955D01*
X169400001Y-36394318D01*
X169399999Y-36394318D01*
X169243239Y-36414955D01*
X169243237Y-36414956D01*
X169097160Y-36475463D01*
X168971718Y-36571718D01*
X168875463Y-36697160D01*
X168814956Y-36843237D01*
X168814955Y-36843239D01*
X168794318Y-36999998D01*
X168794318Y-37000001D01*
X166194805Y-37000001D01*
X166185044Y-36925858D01*
X166185044Y-36925857D01*
X166124536Y-36779778D01*
X166028282Y-36654337D01*
X165902841Y-36558083D01*
X165756762Y-36497575D01*
X165756760Y-36497574D01*
X165600001Y-36476937D01*
X165599999Y-36476937D01*
X165443239Y-36497574D01*
X165443237Y-36497575D01*
X165297160Y-36558082D01*
X165171718Y-36654337D01*
X165075463Y-36779779D01*
X165014956Y-36925856D01*
X165014955Y-36925858D01*
X164994318Y-37082617D01*
X164994318Y-37082620D01*
X158490228Y-37082620D01*
X158485044Y-37043239D01*
X158485044Y-37043238D01*
X158424536Y-36897159D01*
X158328282Y-36771718D01*
X158202841Y-36675464D01*
X158157690Y-36656762D01*
X158056762Y-36614956D01*
X158056760Y-36614955D01*
X157900001Y-36594318D01*
X157899999Y-36594318D01*
X157743239Y-36614955D01*
X157743237Y-36614956D01*
X157597160Y-36675463D01*
X157471718Y-36771718D01*
X157375463Y-36897160D01*
X157314956Y-37043237D01*
X157314955Y-37043239D01*
X157294318Y-37199998D01*
X157294318Y-37200001D01*
X145725000Y-37200001D01*
X145725000Y-36500001D01*
X152294818Y-36500001D01*
X152315455Y-36656760D01*
X152315456Y-36656762D01*
X152351275Y-36743238D01*
X152375964Y-36802841D01*
X152472218Y-36928282D01*
X152597659Y-37024536D01*
X152743738Y-37085044D01*
X152822119Y-37095363D01*
X152900499Y-37105682D01*
X152900500Y-37105682D01*
X152900501Y-37105682D01*
X152952754Y-37098802D01*
X153057262Y-37085044D01*
X153203341Y-37024536D01*
X153328782Y-36928282D01*
X153425036Y-36802841D01*
X153485544Y-36656762D01*
X153506182Y-36500000D01*
X153485544Y-36343238D01*
X153425036Y-36197159D01*
X153328782Y-36071718D01*
X153328780Y-36071717D01*
X153328780Y-36071716D01*
X153314471Y-36060737D01*
X153295801Y-36046411D01*
X153254600Y-35989986D01*
X153253611Y-35973390D01*
X153184498Y-35967620D01*
X153181758Y-35966523D01*
X153057265Y-35914957D01*
X153057260Y-35914955D01*
X152900501Y-35894318D01*
X152900499Y-35894318D01*
X152743739Y-35914955D01*
X152743737Y-35914956D01*
X152597660Y-35975463D01*
X152472218Y-36071718D01*
X152375963Y-36197160D01*
X152315456Y-36343237D01*
X152315455Y-36343239D01*
X152294818Y-36499998D01*
X152294818Y-36500001D01*
X145725000Y-36500001D01*
X145725000Y-34889701D01*
X148144316Y-34889701D01*
X148164953Y-35046460D01*
X148164954Y-35046462D01*
X148205039Y-35143237D01*
X148225462Y-35192541D01*
X148321716Y-35317982D01*
X148447157Y-35414236D01*
X148593236Y-35474744D01*
X148671617Y-35485063D01*
X148749997Y-35495382D01*
X148749998Y-35495382D01*
X148749999Y-35495382D01*
X148802252Y-35488502D01*
X148906760Y-35474744D01*
X149052839Y-35414236D01*
X149178280Y-35317982D01*
X149192077Y-35300001D01*
X153094318Y-35300001D01*
X153114955Y-35456760D01*
X153114956Y-35456762D01*
X153175464Y-35602841D01*
X153271718Y-35728282D01*
X153304696Y-35753587D01*
X153345899Y-35810013D01*
X153346887Y-35826608D01*
X153416001Y-35832379D01*
X153418743Y-35833476D01*
X153543238Y-35885044D01*
X153613681Y-35894318D01*
X153699999Y-35905682D01*
X153700000Y-35905682D01*
X153700001Y-35905682D01*
X153752254Y-35898802D01*
X153856762Y-35885044D01*
X154002841Y-35824536D01*
X154128282Y-35728282D01*
X154224536Y-35602841D01*
X154285044Y-35456762D01*
X154305682Y-35300000D01*
X154304539Y-35291321D01*
X154292517Y-35200003D01*
X172636945Y-35200003D01*
X172656701Y-35375350D01*
X172656703Y-35375361D01*
X172714986Y-35541923D01*
X172714988Y-35541926D01*
X172753264Y-35602841D01*
X172808874Y-35691344D01*
X172933656Y-35816126D01*
X173083076Y-35910013D01*
X173249641Y-35968297D01*
X173249647Y-35968297D01*
X173249649Y-35968298D01*
X173424996Y-35988055D01*
X173425000Y-35988055D01*
X173425004Y-35988055D01*
X173600350Y-35968298D01*
X173600349Y-35968298D01*
X173600359Y-35968297D01*
X173766924Y-35910013D01*
X173916344Y-35816126D01*
X174041126Y-35691344D01*
X174135013Y-35541924D01*
X174193297Y-35375359D01*
X174213055Y-35200000D01*
X174212214Y-35192539D01*
X174193298Y-35024649D01*
X174193296Y-35024638D01*
X174135013Y-34858076D01*
X174135011Y-34858073D01*
X174083104Y-34775464D01*
X174041126Y-34708656D01*
X173916344Y-34583874D01*
X173766924Y-34489987D01*
X173766925Y-34489987D01*
X173766923Y-34489986D01*
X173600361Y-34431703D01*
X173600350Y-34431701D01*
X173425004Y-34411945D01*
X173424996Y-34411945D01*
X173249649Y-34431701D01*
X173249638Y-34431703D01*
X173083076Y-34489986D01*
X173083073Y-34489988D01*
X172933655Y-34583874D01*
X172808874Y-34708655D01*
X172714988Y-34858073D01*
X172714986Y-34858076D01*
X172656703Y-35024638D01*
X172656701Y-35024649D01*
X172636945Y-35199996D01*
X172636945Y-35200003D01*
X154292517Y-35200003D01*
X154285044Y-35143239D01*
X154285044Y-35143238D01*
X154224536Y-34997159D01*
X154128282Y-34871718D01*
X154002841Y-34775464D01*
X153856762Y-34714956D01*
X153856760Y-34714955D01*
X153700001Y-34694318D01*
X153699999Y-34694318D01*
X153543239Y-34714955D01*
X153543237Y-34714956D01*
X153397160Y-34775463D01*
X153271718Y-34871718D01*
X153175463Y-34997160D01*
X153114956Y-35143237D01*
X153114955Y-35143239D01*
X153094318Y-35299998D01*
X153094318Y-35300001D01*
X149192077Y-35300001D01*
X149274534Y-35192541D01*
X149335042Y-35046462D01*
X149355680Y-34889700D01*
X149335042Y-34732938D01*
X149274534Y-34586859D01*
X149178280Y-34461418D01*
X149052839Y-34365164D01*
X148906760Y-34304656D01*
X148906758Y-34304655D01*
X148749999Y-34284018D01*
X148749997Y-34284018D01*
X148593237Y-34304655D01*
X148593235Y-34304656D01*
X148447158Y-34365163D01*
X148321716Y-34461418D01*
X148225461Y-34586860D01*
X148164954Y-34732937D01*
X148164953Y-34732939D01*
X148144316Y-34889698D01*
X148144316Y-34889701D01*
X145725000Y-34889701D01*
X145725000Y-33725251D01*
X153619568Y-33725251D01*
X153640205Y-33882010D01*
X153640206Y-33882012D01*
X153700714Y-34028091D01*
X153796968Y-34153532D01*
X153922409Y-34249786D01*
X154068488Y-34310294D01*
X154146869Y-34320613D01*
X154225249Y-34330932D01*
X154225250Y-34330932D01*
X154225251Y-34330932D01*
X154277504Y-34324052D01*
X154382012Y-34310294D01*
X154528091Y-34249786D01*
X154653532Y-34153532D01*
X154749786Y-34028091D01*
X154810294Y-33882012D01*
X154830932Y-33725250D01*
X154810294Y-33568488D01*
X154749786Y-33422409D01*
X154653532Y-33296968D01*
X154528091Y-33200714D01*
X154508357Y-33192540D01*
X154382012Y-33140206D01*
X154382010Y-33140205D01*
X154225251Y-33119568D01*
X154225249Y-33119568D01*
X154068489Y-33140205D01*
X154068487Y-33140206D01*
X153922410Y-33200713D01*
X153796968Y-33296968D01*
X153700713Y-33422410D01*
X153640206Y-33568487D01*
X153640205Y-33568489D01*
X153619568Y-33725248D01*
X153619568Y-33725251D01*
X145725000Y-33725251D01*
X145725000Y-32889702D01*
X150044315Y-32889702D01*
X150064952Y-33046461D01*
X150064953Y-33046463D01*
X150125461Y-33192542D01*
X150221715Y-33317983D01*
X150347156Y-33414237D01*
X150493235Y-33474745D01*
X150571616Y-33485064D01*
X150649996Y-33495383D01*
X150649997Y-33495383D01*
X150649998Y-33495383D01*
X150702251Y-33488503D01*
X150806759Y-33474745D01*
X150952838Y-33414237D01*
X151078279Y-33317983D01*
X151174533Y-33192542D01*
X151235041Y-33046463D01*
X151255679Y-32889701D01*
X151253098Y-32870100D01*
X151235041Y-32732940D01*
X151235041Y-32732939D01*
X151174533Y-32586860D01*
X151078279Y-32461419D01*
X150952838Y-32365165D01*
X150806759Y-32304657D01*
X150806757Y-32304656D01*
X150649998Y-32284019D01*
X150649996Y-32284019D01*
X150493236Y-32304656D01*
X150493234Y-32304657D01*
X150347157Y-32365164D01*
X150221715Y-32461419D01*
X150125460Y-32586861D01*
X150064953Y-32732938D01*
X150064952Y-32732940D01*
X150044315Y-32889699D01*
X150044315Y-32889702D01*
X145725000Y-32889702D01*
X145725000Y-31000001D01*
X161294318Y-31000001D01*
X161314955Y-31156760D01*
X161314956Y-31156762D01*
X161375464Y-31302841D01*
X161471718Y-31428282D01*
X161597159Y-31524536D01*
X161743238Y-31585044D01*
X161821619Y-31595363D01*
X161899999Y-31605682D01*
X161900000Y-31605682D01*
X161900001Y-31605682D01*
X161952254Y-31598802D01*
X162056762Y-31585044D01*
X162202841Y-31524536D01*
X162328282Y-31428282D01*
X162424536Y-31302841D01*
X162485044Y-31156762D01*
X162505682Y-31000000D01*
X162485044Y-30843238D01*
X162424536Y-30697159D01*
X162328282Y-30571718D01*
X162202841Y-30475464D01*
X162191180Y-30470634D01*
X162056762Y-30414956D01*
X162056760Y-30414955D01*
X161900001Y-30394318D01*
X161899999Y-30394318D01*
X161743239Y-30414955D01*
X161743237Y-30414956D01*
X161597160Y-30475463D01*
X161471718Y-30571718D01*
X161375463Y-30697160D01*
X161314956Y-30843237D01*
X161314955Y-30843239D01*
X161294318Y-30999998D01*
X161294318Y-31000001D01*
X145725000Y-31000001D01*
X145725000Y-30200001D01*
X166019318Y-30200001D01*
X166039955Y-30356760D01*
X166039956Y-30356762D01*
X166095927Y-30491889D01*
X166100464Y-30502841D01*
X166196718Y-30628282D01*
X166322159Y-30724536D01*
X166468238Y-30785044D01*
X166546619Y-30795363D01*
X166624999Y-30805682D01*
X166625000Y-30805682D01*
X166625001Y-30805682D01*
X166677254Y-30798802D01*
X166781762Y-30785044D01*
X166927841Y-30724536D01*
X167053282Y-30628282D01*
X167149536Y-30502841D01*
X167210044Y-30356762D01*
X167230682Y-30200001D01*
X170719818Y-30200001D01*
X170740455Y-30356760D01*
X170740456Y-30356762D01*
X170796427Y-30491889D01*
X170800964Y-30502841D01*
X170897218Y-30628282D01*
X171022659Y-30724536D01*
X171168738Y-30785044D01*
X171247119Y-30795363D01*
X171325499Y-30805682D01*
X171325500Y-30805682D01*
X171325501Y-30805682D01*
X171377754Y-30798802D01*
X171482262Y-30785044D01*
X171628341Y-30724536D01*
X171753782Y-30628282D01*
X171850036Y-30502841D01*
X171910544Y-30356762D01*
X171915384Y-30320002D01*
X172636945Y-30320002D01*
X172656701Y-30495349D01*
X172656703Y-30495360D01*
X172714986Y-30661922D01*
X172714987Y-30661923D01*
X172808874Y-30811343D01*
X172933656Y-30936125D01*
X173083076Y-31030012D01*
X173249641Y-31088296D01*
X173249647Y-31088296D01*
X173249649Y-31088297D01*
X173424996Y-31108054D01*
X173425000Y-31108054D01*
X173425004Y-31108054D01*
X173600350Y-31088297D01*
X173600349Y-31088297D01*
X173600359Y-31088296D01*
X173766924Y-31030012D01*
X173916344Y-30936125D01*
X174041126Y-30811343D01*
X174135013Y-30661923D01*
X174193297Y-30495358D01*
X174195046Y-30479832D01*
X174213055Y-30320002D01*
X174213055Y-30319995D01*
X174193298Y-30144648D01*
X174193296Y-30144637D01*
X174135013Y-29978075D01*
X174135011Y-29978072D01*
X174130619Y-29971082D01*
X174041126Y-29828655D01*
X173916344Y-29703873D01*
X173875615Y-29678281D01*
X173766926Y-29609987D01*
X173766923Y-29609985D01*
X173600361Y-29551702D01*
X173600350Y-29551700D01*
X173425004Y-29531944D01*
X173424996Y-29531944D01*
X173249649Y-29551700D01*
X173249638Y-29551702D01*
X173083076Y-29609985D01*
X173083073Y-29609987D01*
X172933655Y-29703873D01*
X172808874Y-29828654D01*
X172714988Y-29978072D01*
X172714986Y-29978075D01*
X172656703Y-30144637D01*
X172656701Y-30144648D01*
X172636945Y-30319995D01*
X172636945Y-30320002D01*
X171915384Y-30320002D01*
X171931182Y-30200000D01*
X171928299Y-30178105D01*
X171910544Y-30043239D01*
X171910544Y-30043238D01*
X171850036Y-29897159D01*
X171753782Y-29771718D01*
X171628341Y-29675464D01*
X171542723Y-29640000D01*
X171482262Y-29614956D01*
X171482260Y-29614955D01*
X171325501Y-29594318D01*
X171325499Y-29594318D01*
X171168739Y-29614955D01*
X171168737Y-29614956D01*
X171022660Y-29675463D01*
X170897218Y-29771718D01*
X170800963Y-29897160D01*
X170740456Y-30043237D01*
X170740455Y-30043239D01*
X170719818Y-30199998D01*
X170719818Y-30200001D01*
X167230682Y-30200001D01*
X167230682Y-30200000D01*
X167227799Y-30178105D01*
X167210044Y-30043239D01*
X167210044Y-30043238D01*
X167149536Y-29897159D01*
X167053282Y-29771718D01*
X166927841Y-29675464D01*
X166842223Y-29640000D01*
X166781762Y-29614956D01*
X166781760Y-29614955D01*
X166625001Y-29594318D01*
X166624999Y-29594318D01*
X166468239Y-29614955D01*
X166468237Y-29614956D01*
X166322160Y-29675463D01*
X166196718Y-29771718D01*
X166100463Y-29897160D01*
X166039956Y-30043237D01*
X166039955Y-30043239D01*
X166019318Y-30199998D01*
X166019318Y-30200001D01*
X145725000Y-30200001D01*
X145725000Y-28800001D01*
X157494318Y-28800001D01*
X157514955Y-28956760D01*
X157514956Y-28956762D01*
X157575464Y-29102841D01*
X157671718Y-29228282D01*
X157797159Y-29324536D01*
X157943238Y-29385044D01*
X157980883Y-29390000D01*
X158099999Y-29405682D01*
X158100000Y-29405682D01*
X158100001Y-29405682D01*
X158168286Y-29396692D01*
X158256762Y-29385044D01*
X158402841Y-29324536D01*
X158528282Y-29228282D01*
X158624536Y-29102841D01*
X158685044Y-28956762D01*
X158699100Y-28849999D01*
X158705682Y-28800001D01*
X158705682Y-28799998D01*
X158691842Y-28694873D01*
X158689226Y-28675001D01*
X163944318Y-28675001D01*
X163964955Y-28831760D01*
X163964956Y-28831762D01*
X164003576Y-28925000D01*
X164025464Y-28977841D01*
X164121718Y-29103282D01*
X164247159Y-29199536D01*
X164393238Y-29260044D01*
X164471619Y-29270363D01*
X164549999Y-29280682D01*
X164550000Y-29280682D01*
X164550001Y-29280682D01*
X164602254Y-29273802D01*
X164706762Y-29260044D01*
X164731008Y-29250001D01*
X169418818Y-29250001D01*
X169439455Y-29406760D01*
X169439456Y-29406762D01*
X169485280Y-29517392D01*
X169499964Y-29552841D01*
X169596218Y-29678282D01*
X169721659Y-29774536D01*
X169867738Y-29835044D01*
X169946119Y-29845363D01*
X170024499Y-29855682D01*
X170024500Y-29855682D01*
X170024501Y-29855682D01*
X170076754Y-29848802D01*
X170181262Y-29835044D01*
X170327341Y-29774536D01*
X170452782Y-29678282D01*
X170549036Y-29552841D01*
X170609544Y-29406762D01*
X170630182Y-29250000D01*
X170627022Y-29226000D01*
X170609544Y-29093239D01*
X170609544Y-29093238D01*
X170549036Y-28947159D01*
X170452782Y-28821718D01*
X170327341Y-28725464D01*
X170223870Y-28682605D01*
X170181262Y-28664956D01*
X170181260Y-28664955D01*
X170024501Y-28644318D01*
X170024499Y-28644318D01*
X169867739Y-28664955D01*
X169867737Y-28664956D01*
X169721660Y-28725463D01*
X169596218Y-28821718D01*
X169499963Y-28947160D01*
X169439456Y-29093237D01*
X169439455Y-29093239D01*
X169418818Y-29249998D01*
X169418818Y-29250001D01*
X164731008Y-29250001D01*
X164852841Y-29199536D01*
X164978282Y-29103282D01*
X165074536Y-28977841D01*
X165135044Y-28831762D01*
X165155682Y-28675000D01*
X165151500Y-28643238D01*
X165145808Y-28600003D01*
X179694435Y-28600003D01*
X179714630Y-28779249D01*
X179714631Y-28779254D01*
X179774211Y-28949523D01*
X179848725Y-29068111D01*
X179870184Y-29102262D01*
X179997738Y-29229816D01*
X180045844Y-29260043D01*
X180148483Y-29324536D01*
X180150478Y-29325789D01*
X180264040Y-29365526D01*
X180320745Y-29385368D01*
X180320750Y-29385369D01*
X180499996Y-29405565D01*
X180500000Y-29405565D01*
X180500004Y-29405565D01*
X180679249Y-29385369D01*
X180679250Y-29385368D01*
X180679255Y-29385368D01*
X180735960Y-29365525D01*
X180805736Y-29361963D01*
X180866364Y-29396692D01*
X180876179Y-29408255D01*
X180912812Y-29457190D01*
X181027906Y-29543350D01*
X181027913Y-29543354D01*
X181162620Y-29593596D01*
X181162627Y-29593598D01*
X181222155Y-29599999D01*
X181222172Y-29600000D01*
X181520000Y-29600000D01*
X181520000Y-28807672D01*
X181557871Y-28852805D01*
X181657129Y-28910112D01*
X181741564Y-28925000D01*
X181798436Y-28925000D01*
X181882871Y-28910112D01*
X181982129Y-28852805D01*
X181984483Y-28850000D01*
X182020000Y-28850000D01*
X182020000Y-29600000D01*
X182317828Y-29600000D01*
X182317844Y-29599999D01*
X182377372Y-29593598D01*
X182377379Y-29593596D01*
X182512086Y-29543354D01*
X182512093Y-29543350D01*
X182627187Y-29457190D01*
X182627190Y-29457187D01*
X182713350Y-29342093D01*
X182713354Y-29342086D01*
X182763596Y-29207379D01*
X182763598Y-29207372D01*
X182769999Y-29147844D01*
X182770000Y-29147827D01*
X182770000Y-28850000D01*
X182020000Y-28850000D01*
X181984483Y-28850000D01*
X182055801Y-28765007D01*
X182095000Y-28657306D01*
X182095000Y-28542694D01*
X182055801Y-28434993D01*
X181982129Y-28347195D01*
X181882871Y-28289888D01*
X181798436Y-28275000D01*
X181741564Y-28275000D01*
X181657129Y-28289888D01*
X181557871Y-28347195D01*
X181520000Y-28392327D01*
X181520000Y-27600000D01*
X182020000Y-27600000D01*
X182020000Y-28350000D01*
X182770000Y-28350000D01*
X182770000Y-28052172D01*
X182769999Y-28052155D01*
X182763598Y-27992627D01*
X182763596Y-27992620D01*
X182713354Y-27857913D01*
X182713350Y-27857906D01*
X182627190Y-27742812D01*
X182627187Y-27742809D01*
X182570002Y-27700000D01*
X183294355Y-27700000D01*
X183314859Y-27868869D01*
X183314860Y-27868874D01*
X183375182Y-28027931D01*
X183423367Y-28097738D01*
X183471817Y-28167929D01*
X183524899Y-28214955D01*
X183599150Y-28280736D01*
X183725777Y-28347195D01*
X183749775Y-28359790D01*
X183914944Y-28400500D01*
X184085056Y-28400500D01*
X184185536Y-28375734D01*
X184255336Y-28378803D01*
X184312398Y-28419123D01*
X184338604Y-28483892D01*
X184327591Y-28548535D01*
X184286571Y-28636502D01*
X184286567Y-28636513D01*
X184229364Y-28849999D01*
X184229364Y-28850000D01*
X185126314Y-28850000D01*
X185100507Y-28890156D01*
X185060000Y-29028111D01*
X185060000Y-29171889D01*
X185100507Y-29309844D01*
X185126314Y-29350000D01*
X184229364Y-29350000D01*
X184286567Y-29563486D01*
X184286570Y-29563492D01*
X184386399Y-29777578D01*
X184521894Y-29971082D01*
X184688917Y-30138105D01*
X184882421Y-30273600D01*
X185081573Y-30366466D01*
X185134012Y-30412638D01*
X185153164Y-30479832D01*
X185132948Y-30546713D01*
X185079783Y-30592048D01*
X185073968Y-30594472D01*
X185066771Y-30597260D01*
X185044982Y-30605701D01*
X185044980Y-30605702D01*
X184863699Y-30717947D01*
X184706127Y-30861593D01*
X184577632Y-31031746D01*
X184482596Y-31222605D01*
X184482596Y-31222607D01*
X184424244Y-31427689D01*
X184404571Y-31639999D01*
X184404571Y-31640000D01*
X184424244Y-31852310D01*
X184482596Y-32057392D01*
X184482596Y-32057394D01*
X184577632Y-32248253D01*
X184577634Y-32248255D01*
X184706128Y-32418407D01*
X184863698Y-32562052D01*
X185044981Y-32674298D01*
X185243802Y-32751321D01*
X185440613Y-32788111D01*
X185502893Y-32819779D01*
X185538166Y-32880092D01*
X185535232Y-32949900D01*
X185495023Y-33007040D01*
X185440613Y-33031888D01*
X185243802Y-33068679D01*
X185243799Y-33068679D01*
X185243799Y-33068680D01*
X185044982Y-33145701D01*
X185044980Y-33145702D01*
X184863699Y-33257947D01*
X184706127Y-33401593D01*
X184577632Y-33571746D01*
X184482596Y-33762605D01*
X184482596Y-33762607D01*
X184424244Y-33967689D01*
X184404571Y-34179999D01*
X184404571Y-34180000D01*
X184424244Y-34392310D01*
X184482596Y-34597392D01*
X184482596Y-34597394D01*
X184577632Y-34788253D01*
X184640663Y-34871718D01*
X184706128Y-34958407D01*
X184863698Y-35102052D01*
X185044981Y-35214298D01*
X185243802Y-35291321D01*
X185453390Y-35330500D01*
X185453392Y-35330500D01*
X185666608Y-35330500D01*
X185666610Y-35330500D01*
X185876198Y-35291321D01*
X186075019Y-35214298D01*
X186256302Y-35102052D01*
X186413872Y-34958407D01*
X186542366Y-34788255D01*
X186637405Y-34597389D01*
X186695756Y-34392310D01*
X186706529Y-34276047D01*
X186732315Y-34211111D01*
X186776869Y-34179194D01*
X186740497Y-34158331D01*
X186708307Y-34096318D01*
X186706529Y-34083951D01*
X186705849Y-34076613D01*
X186695756Y-33967690D01*
X186637405Y-33762611D01*
X186637403Y-33762606D01*
X186637403Y-33762605D01*
X186542367Y-33571746D01*
X186413872Y-33401593D01*
X186256302Y-33257948D01*
X186075019Y-33145702D01*
X186075017Y-33145701D01*
X185975608Y-33107190D01*
X185876198Y-33068679D01*
X185679385Y-33031888D01*
X185617106Y-33000221D01*
X185581833Y-32939908D01*
X185584767Y-32870100D01*
X185624976Y-32812960D01*
X185679384Y-32788111D01*
X185876198Y-32751321D01*
X186075019Y-32674298D01*
X186256302Y-32562052D01*
X186413872Y-32418407D01*
X186542366Y-32248255D01*
X186637405Y-32057389D01*
X186695756Y-31852310D01*
X186706529Y-31736047D01*
X186732315Y-31671111D01*
X186776869Y-31639194D01*
X186740497Y-31618331D01*
X186708307Y-31556318D01*
X186706529Y-31543951D01*
X186704730Y-31524536D01*
X186695756Y-31427690D01*
X186637405Y-31222611D01*
X186637403Y-31222606D01*
X186637403Y-31222605D01*
X186542367Y-31031746D01*
X186413872Y-30861593D01*
X186393738Y-30843238D01*
X186256302Y-30717948D01*
X186075019Y-30605702D01*
X186075014Y-30605700D01*
X186068129Y-30603032D01*
X186046037Y-30594474D01*
X185990636Y-30551903D01*
X185967045Y-30486136D01*
X185982756Y-30418056D01*
X186032779Y-30369276D01*
X186038426Y-30366466D01*
X186237578Y-30273599D01*
X186431082Y-30138105D01*
X186598105Y-29971082D01*
X186733600Y-29777578D01*
X186827294Y-29576651D01*
X186873466Y-29524212D01*
X186940660Y-29505060D01*
X187007541Y-29525276D01*
X187050676Y-29573785D01*
X187117632Y-29708253D01*
X187246127Y-29878406D01*
X187246128Y-29878407D01*
X187403698Y-30022052D01*
X187584981Y-30134298D01*
X187783802Y-30211321D01*
X187980613Y-30248111D01*
X188042893Y-30279779D01*
X188078166Y-30340092D01*
X188075232Y-30409900D01*
X188035023Y-30467040D01*
X187980613Y-30491888D01*
X187783802Y-30528679D01*
X187783799Y-30528679D01*
X187783799Y-30528680D01*
X187584982Y-30605701D01*
X187584980Y-30605702D01*
X187403699Y-30717947D01*
X187246127Y-30861593D01*
X187117632Y-31031746D01*
X187022596Y-31222605D01*
X187022596Y-31222607D01*
X186964244Y-31427689D01*
X186953471Y-31543951D01*
X186927685Y-31608888D01*
X186883130Y-31640804D01*
X186919503Y-31661668D01*
X186951693Y-31723681D01*
X186953471Y-31736048D01*
X186964244Y-31852310D01*
X187022596Y-32057392D01*
X187022596Y-32057394D01*
X187117632Y-32248253D01*
X187117634Y-32248255D01*
X187246128Y-32418407D01*
X187403698Y-32562052D01*
X187584981Y-32674298D01*
X187783802Y-32751321D01*
X187980613Y-32788111D01*
X188042893Y-32819779D01*
X188078166Y-32880092D01*
X188075232Y-32949900D01*
X188035023Y-33007040D01*
X187980613Y-33031888D01*
X187783802Y-33068679D01*
X187783799Y-33068679D01*
X187783799Y-33068680D01*
X187584982Y-33145701D01*
X187584980Y-33145702D01*
X187403699Y-33257947D01*
X187246127Y-33401593D01*
X187117632Y-33571746D01*
X187022596Y-33762605D01*
X187022596Y-33762607D01*
X186964244Y-33967689D01*
X186953471Y-34083951D01*
X186927685Y-34148888D01*
X186883130Y-34180804D01*
X186919503Y-34201668D01*
X186951693Y-34263681D01*
X186953470Y-34276047D01*
X186956122Y-34304655D01*
X186964244Y-34392310D01*
X187022596Y-34597392D01*
X187022596Y-34597394D01*
X187117632Y-34788253D01*
X187180663Y-34871718D01*
X187246128Y-34958407D01*
X187403698Y-35102052D01*
X187584981Y-35214298D01*
X187783802Y-35291321D01*
X187993390Y-35330500D01*
X187993392Y-35330500D01*
X188206608Y-35330500D01*
X188206610Y-35330500D01*
X188416198Y-35291321D01*
X188615019Y-35214298D01*
X188796302Y-35102052D01*
X188953872Y-34958407D01*
X189082366Y-34788255D01*
X189177405Y-34597389D01*
X189235756Y-34392310D01*
X189255429Y-34180000D01*
X189235756Y-33967690D01*
X189177405Y-33762611D01*
X189177403Y-33762606D01*
X189177403Y-33762605D01*
X189082367Y-33571746D01*
X188953872Y-33401593D01*
X188796302Y-33257948D01*
X188615019Y-33145702D01*
X188615017Y-33145701D01*
X188515608Y-33107190D01*
X188416198Y-33068679D01*
X188219385Y-33031888D01*
X188157106Y-33000221D01*
X188121833Y-32939908D01*
X188124767Y-32870100D01*
X188164976Y-32812960D01*
X188219384Y-32788111D01*
X188416198Y-32751321D01*
X188615019Y-32674298D01*
X188796302Y-32562052D01*
X188953872Y-32418407D01*
X189082366Y-32248255D01*
X189177405Y-32057389D01*
X189235756Y-31852310D01*
X189255429Y-31640000D01*
X189235756Y-31427690D01*
X189177405Y-31222611D01*
X189177403Y-31222606D01*
X189177403Y-31222605D01*
X189082367Y-31031746D01*
X188953872Y-30861593D01*
X188933738Y-30843238D01*
X188796302Y-30717948D01*
X188615019Y-30605702D01*
X188615017Y-30605701D01*
X188515608Y-30567190D01*
X188416198Y-30528679D01*
X188219385Y-30491888D01*
X188157106Y-30460221D01*
X188121833Y-30399908D01*
X188124767Y-30330100D01*
X188164976Y-30272960D01*
X188219384Y-30248111D01*
X188416198Y-30211321D01*
X188615019Y-30134298D01*
X188796302Y-30022052D01*
X188953872Y-29878407D01*
X189082366Y-29708255D01*
X189128823Y-29614956D01*
X189177403Y-29517394D01*
X189177403Y-29517393D01*
X189177405Y-29517389D01*
X189213651Y-29390000D01*
X195569364Y-29390000D01*
X195626567Y-29603486D01*
X195626570Y-29603492D01*
X195726399Y-29817578D01*
X195861894Y-30011082D01*
X196028917Y-30178105D01*
X196222421Y-30313600D01*
X196436507Y-30413429D01*
X196436516Y-30413433D01*
X196650000Y-30470634D01*
X196650000Y-29575501D01*
X196757685Y-29624680D01*
X196864237Y-29640000D01*
X196935763Y-29640000D01*
X197042315Y-29624680D01*
X197150000Y-29575501D01*
X197150000Y-30470633D01*
X197363483Y-30413433D01*
X197363492Y-30413429D01*
X197577578Y-30313600D01*
X197771082Y-30178105D01*
X197938105Y-30011082D01*
X198073600Y-29817578D01*
X198173429Y-29603492D01*
X198173432Y-29603486D01*
X198230636Y-29390000D01*
X197333686Y-29390000D01*
X197359493Y-29349844D01*
X197400000Y-29211889D01*
X197400000Y-29068111D01*
X197359493Y-28930156D01*
X197333686Y-28890000D01*
X198230636Y-28890000D01*
X198230635Y-28889999D01*
X198173432Y-28676513D01*
X198173429Y-28676507D01*
X198073600Y-28462422D01*
X198073599Y-28462420D01*
X197938113Y-28268926D01*
X197938108Y-28268920D01*
X197771082Y-28101894D01*
X197577578Y-27966399D01*
X197378426Y-27873533D01*
X197325987Y-27827360D01*
X197306835Y-27760167D01*
X197327051Y-27693286D01*
X197380216Y-27647951D01*
X197386005Y-27645537D01*
X197415019Y-27634298D01*
X197596302Y-27522052D01*
X197753872Y-27378407D01*
X197882366Y-27208255D01*
X197889306Y-27194318D01*
X197977403Y-27017394D01*
X197977403Y-27017393D01*
X197977405Y-27017389D01*
X198035756Y-26812310D01*
X198055429Y-26600000D01*
X198035756Y-26387690D01*
X197977405Y-26182611D01*
X197977403Y-26182606D01*
X197977403Y-26182605D01*
X197882367Y-25991746D01*
X197753872Y-25821593D01*
X197709994Y-25781593D01*
X197596302Y-25677948D01*
X197415019Y-25565702D01*
X197415017Y-25565701D01*
X197311764Y-25525701D01*
X197216198Y-25488679D01*
X197043456Y-25456387D01*
X196981176Y-25424719D01*
X196945903Y-25364407D01*
X196948837Y-25294599D01*
X196989046Y-25237459D01*
X197053764Y-25211128D01*
X197066233Y-25210499D01*
X197794864Y-25210499D01*
X197794879Y-25210497D01*
X197794882Y-25210497D01*
X197819987Y-25207586D01*
X197819988Y-25207585D01*
X197819991Y-25207585D01*
X197922765Y-25162206D01*
X198002206Y-25082765D01*
X198047585Y-24979991D01*
X198050500Y-24954865D01*
X198050499Y-23165136D01*
X198050497Y-23165117D01*
X198047586Y-23140012D01*
X198047585Y-23140010D01*
X198047585Y-23140009D01*
X198002206Y-23037235D01*
X197922765Y-22957794D01*
X197922763Y-22957793D01*
X197819992Y-22912415D01*
X197794865Y-22909500D01*
X196005143Y-22909500D01*
X196005117Y-22909502D01*
X195980012Y-22912413D01*
X195980008Y-22912415D01*
X195877235Y-22957793D01*
X195797794Y-23037234D01*
X195752415Y-23140006D01*
X195752415Y-23140008D01*
X195749500Y-23165131D01*
X195749500Y-24954856D01*
X195749502Y-24954882D01*
X195752413Y-24979987D01*
X195752415Y-24979991D01*
X195797793Y-25082764D01*
X195797794Y-25082765D01*
X195877235Y-25162206D01*
X195980009Y-25207585D01*
X196005135Y-25210500D01*
X196733758Y-25210499D01*
X196800795Y-25230183D01*
X196846550Y-25282987D01*
X196856494Y-25352146D01*
X196827469Y-25415702D01*
X196768691Y-25453476D01*
X196756542Y-25456388D01*
X196700116Y-25466935D01*
X196583802Y-25488679D01*
X196583800Y-25488679D01*
X196583798Y-25488680D01*
X196384982Y-25565701D01*
X196384980Y-25565702D01*
X196203699Y-25677947D01*
X196046127Y-25821593D01*
X195917632Y-25991746D01*
X195822596Y-26182605D01*
X195822596Y-26182607D01*
X195764244Y-26387689D01*
X195744571Y-26599999D01*
X195744571Y-26600000D01*
X195764244Y-26812310D01*
X195822596Y-27017392D01*
X195822596Y-27017394D01*
X195917632Y-27208253D01*
X196041341Y-27372068D01*
X196046128Y-27378407D01*
X196203698Y-27522052D01*
X196384981Y-27634298D01*
X196413961Y-27645525D01*
X196469362Y-27688095D01*
X196492954Y-27753861D01*
X196477244Y-27821942D01*
X196427222Y-27870722D01*
X196421573Y-27873533D01*
X196222422Y-27966399D01*
X196222420Y-27966400D01*
X196028926Y-28101886D01*
X196028920Y-28101891D01*
X195861891Y-28268920D01*
X195861886Y-28268926D01*
X195726400Y-28462420D01*
X195726399Y-28462422D01*
X195626570Y-28676507D01*
X195626567Y-28676513D01*
X195569364Y-28889999D01*
X195569364Y-28890000D01*
X196466314Y-28890000D01*
X196440507Y-28930156D01*
X196400000Y-29068111D01*
X196400000Y-29211889D01*
X196440507Y-29349844D01*
X196466314Y-29390000D01*
X195569364Y-29390000D01*
X189213651Y-29390000D01*
X189235756Y-29312310D01*
X189255429Y-29100000D01*
X189235756Y-28887690D01*
X189177405Y-28682611D01*
X189177403Y-28682606D01*
X189177403Y-28682605D01*
X189082367Y-28491746D01*
X188953872Y-28321593D01*
X188796302Y-28177948D01*
X188615019Y-28065702D01*
X188615017Y-28065701D01*
X188426389Y-27992627D01*
X188416198Y-27988679D01*
X188219385Y-27951888D01*
X188157106Y-27920221D01*
X188121833Y-27859908D01*
X188124351Y-27800001D01*
X190994318Y-27800001D01*
X191014955Y-27956760D01*
X191014956Y-27956762D01*
X191075464Y-28102841D01*
X191171718Y-28228282D01*
X191297159Y-28324536D01*
X191443238Y-28385044D01*
X191521619Y-28395363D01*
X191599999Y-28405682D01*
X191600000Y-28405682D01*
X191600001Y-28405682D01*
X191652254Y-28398802D01*
X191756762Y-28385044D01*
X191902841Y-28324536D01*
X192028282Y-28228282D01*
X192124536Y-28102841D01*
X192185044Y-27956762D01*
X192205682Y-27800000D01*
X192204949Y-27794435D01*
X192191633Y-27693286D01*
X192185044Y-27643238D01*
X192124536Y-27497159D01*
X192028282Y-27371718D01*
X191902841Y-27275464D01*
X191756762Y-27214956D01*
X191756760Y-27214955D01*
X191600001Y-27194318D01*
X191599999Y-27194318D01*
X191443239Y-27214955D01*
X191443237Y-27214956D01*
X191297160Y-27275463D01*
X191171718Y-27371718D01*
X191075463Y-27497160D01*
X191014956Y-27643237D01*
X191014955Y-27643239D01*
X190994318Y-27799998D01*
X190994318Y-27800001D01*
X188124351Y-27800001D01*
X188124767Y-27790100D01*
X188164976Y-27732960D01*
X188219384Y-27708111D01*
X188416198Y-27671321D01*
X188615019Y-27594298D01*
X188796302Y-27482052D01*
X188953872Y-27338407D01*
X189082366Y-27168255D01*
X189082367Y-27168253D01*
X189177403Y-26977394D01*
X189177403Y-26977393D01*
X189177405Y-26977389D01*
X189235756Y-26772310D01*
X189255429Y-26560000D01*
X189235756Y-26347690D01*
X189177405Y-26142611D01*
X189177403Y-26142606D01*
X189177403Y-26142605D01*
X189082367Y-25951746D01*
X188953872Y-25781593D01*
X188870602Y-25705682D01*
X188796302Y-25637948D01*
X188615019Y-25525702D01*
X188615017Y-25525701D01*
X188436097Y-25456388D01*
X188416198Y-25448679D01*
X188219385Y-25411888D01*
X188157106Y-25380221D01*
X188121833Y-25319908D01*
X188124767Y-25250100D01*
X188164976Y-25192960D01*
X188219384Y-25168111D01*
X188416198Y-25131321D01*
X188615019Y-25054298D01*
X188796302Y-24942052D01*
X188953872Y-24798407D01*
X189082366Y-24628255D01*
X189177405Y-24437389D01*
X189235756Y-24232310D01*
X189255429Y-24020000D01*
X189235756Y-23807690D01*
X189177405Y-23602611D01*
X189177403Y-23602606D01*
X189177403Y-23602605D01*
X189082367Y-23411746D01*
X188953872Y-23241593D01*
X188796302Y-23097948D01*
X188615019Y-22985702D01*
X188615017Y-22985701D01*
X188515608Y-22947190D01*
X188416198Y-22908679D01*
X188206610Y-22869500D01*
X187993390Y-22869500D01*
X187783802Y-22908679D01*
X187783799Y-22908679D01*
X187783799Y-22908680D01*
X187584982Y-22985701D01*
X187584980Y-22985702D01*
X187403699Y-23097947D01*
X187246127Y-23241593D01*
X187117632Y-23411746D01*
X187022596Y-23602605D01*
X187022596Y-23602607D01*
X186964244Y-23807689D01*
X186957970Y-23875394D01*
X186932183Y-23940331D01*
X186875383Y-23981018D01*
X186805602Y-23984538D01*
X186744995Y-23949772D01*
X186712806Y-23887759D01*
X186710499Y-23863952D01*
X186710499Y-23125143D01*
X186710499Y-23125136D01*
X186710497Y-23125117D01*
X186707586Y-23100012D01*
X186707585Y-23100010D01*
X186707585Y-23100009D01*
X186662206Y-22997235D01*
X186582765Y-22917794D01*
X186570578Y-22912413D01*
X186479992Y-22872415D01*
X186454865Y-22869500D01*
X184665143Y-22869500D01*
X184665117Y-22869502D01*
X184640012Y-22872413D01*
X184640008Y-22872415D01*
X184537235Y-22917793D01*
X184457794Y-22997234D01*
X184412415Y-23100006D01*
X184412415Y-23100008D01*
X184409500Y-23125131D01*
X184409500Y-24914856D01*
X184409502Y-24914882D01*
X184412413Y-24939987D01*
X184412415Y-24939991D01*
X184457793Y-25042764D01*
X184457794Y-25042765D01*
X184537235Y-25122206D01*
X184640009Y-25167585D01*
X184665135Y-25170500D01*
X185393758Y-25170499D01*
X185460795Y-25190183D01*
X185506550Y-25242987D01*
X185516494Y-25312146D01*
X185487469Y-25375702D01*
X185428691Y-25413476D01*
X185416542Y-25416388D01*
X185371976Y-25424719D01*
X185243802Y-25448679D01*
X185243800Y-25448679D01*
X185243798Y-25448680D01*
X185044982Y-25525701D01*
X185044980Y-25525702D01*
X184863699Y-25637947D01*
X184706127Y-25781593D01*
X184577632Y-25951746D01*
X184482596Y-26142605D01*
X184482596Y-26142607D01*
X184424244Y-26347689D01*
X184404571Y-26559999D01*
X184404571Y-26560000D01*
X184424244Y-26772310D01*
X184465271Y-26916503D01*
X184464685Y-26986370D01*
X184426418Y-27044829D01*
X184362621Y-27073320D01*
X184293548Y-27062796D01*
X184288380Y-27060235D01*
X184250225Y-27040209D01*
X184085056Y-26999500D01*
X183914944Y-26999500D01*
X183749773Y-27040210D01*
X183599150Y-27119263D01*
X183471816Y-27232072D01*
X183375182Y-27372068D01*
X183314860Y-27531125D01*
X183314859Y-27531130D01*
X183294355Y-27700000D01*
X182570002Y-27700000D01*
X182512093Y-27656649D01*
X182512086Y-27656645D01*
X182377379Y-27606403D01*
X182377372Y-27606401D01*
X182317844Y-27600000D01*
X182020000Y-27600000D01*
X181520000Y-27600000D01*
X181222155Y-27600000D01*
X181162627Y-27606401D01*
X181162620Y-27606403D01*
X181027913Y-27656645D01*
X181027906Y-27656649D01*
X180912812Y-27742809D01*
X180876180Y-27791743D01*
X180820246Y-27833613D01*
X180750554Y-27838597D01*
X180735960Y-27834473D01*
X180679257Y-27814632D01*
X180679249Y-27814630D01*
X180500004Y-27794435D01*
X180499996Y-27794435D01*
X180320750Y-27814630D01*
X180320745Y-27814631D01*
X180150476Y-27874211D01*
X179997737Y-27970184D01*
X179870184Y-28097737D01*
X179774211Y-28250476D01*
X179714631Y-28420745D01*
X179714630Y-28420750D01*
X179694435Y-28599996D01*
X179694435Y-28600003D01*
X165145808Y-28600003D01*
X165135044Y-28518239D01*
X165135044Y-28518238D01*
X165074536Y-28372159D01*
X164978282Y-28246718D01*
X164852841Y-28150464D01*
X164706762Y-28089956D01*
X164706760Y-28089955D01*
X164550001Y-28069318D01*
X164549999Y-28069318D01*
X164393239Y-28089955D01*
X164393237Y-28089956D01*
X164247160Y-28150463D01*
X164121718Y-28246718D01*
X164025463Y-28372160D01*
X163964956Y-28518237D01*
X163964955Y-28518239D01*
X163944318Y-28674998D01*
X163944318Y-28675001D01*
X158689226Y-28675001D01*
X158685044Y-28643238D01*
X158624536Y-28497159D01*
X158528282Y-28371718D01*
X158402841Y-28275464D01*
X158387042Y-28268920D01*
X158256762Y-28214956D01*
X158256760Y-28214955D01*
X158100001Y-28194318D01*
X158099999Y-28194318D01*
X157943239Y-28214955D01*
X157943237Y-28214956D01*
X157797160Y-28275463D01*
X157671718Y-28371718D01*
X157575463Y-28497160D01*
X157514956Y-28643237D01*
X157514955Y-28643239D01*
X157494318Y-28799998D01*
X157494318Y-28800001D01*
X145725000Y-28800001D01*
X145725000Y-24800000D01*
X164394355Y-24800000D01*
X164414859Y-24968869D01*
X164414860Y-24968874D01*
X164475182Y-25127931D01*
X164530164Y-25207585D01*
X164571817Y-25267929D01*
X164635568Y-25324407D01*
X164699150Y-25380736D01*
X164828605Y-25448679D01*
X164849775Y-25459790D01*
X165014944Y-25500500D01*
X165185056Y-25500500D01*
X165350225Y-25459790D01*
X165458735Y-25402839D01*
X165500849Y-25380736D01*
X165500850Y-25380734D01*
X165500852Y-25380734D01*
X165628183Y-25267929D01*
X165724818Y-25127930D01*
X165754376Y-25049988D01*
X165796553Y-24994288D01*
X165862151Y-24970230D01*
X165930341Y-24985457D01*
X165979475Y-25035132D01*
X165994318Y-25093961D01*
X165994318Y-25100001D01*
X166014955Y-25256760D01*
X166014956Y-25256762D01*
X166067957Y-25384719D01*
X166075464Y-25402841D01*
X166171718Y-25528282D01*
X166297159Y-25624536D01*
X166443238Y-25685044D01*
X166521619Y-25695363D01*
X166599999Y-25705682D01*
X166600000Y-25705682D01*
X166600001Y-25705682D01*
X166652254Y-25698802D01*
X166756762Y-25685044D01*
X166902841Y-25624536D01*
X167028282Y-25528282D01*
X167124536Y-25402841D01*
X167185044Y-25256762D01*
X167205682Y-25100000D01*
X167185044Y-24943238D01*
X167124536Y-24797159D01*
X167028282Y-24671718D01*
X166902841Y-24575464D01*
X166756762Y-24514956D01*
X166756760Y-24514955D01*
X166600001Y-24494318D01*
X166599999Y-24494318D01*
X166443239Y-24514955D01*
X166443237Y-24514956D01*
X166297160Y-24575463D01*
X166171718Y-24671718D01*
X166075464Y-24797159D01*
X166041170Y-24879951D01*
X165997328Y-24934354D01*
X165931034Y-24956418D01*
X165863335Y-24939138D01*
X165815725Y-24888001D01*
X165803320Y-24819241D01*
X165803505Y-24817618D01*
X165805645Y-24800000D01*
X165785140Y-24631128D01*
X165784050Y-24628255D01*
X165724817Y-24472068D01*
X165690476Y-24422318D01*
X165628183Y-24332071D01*
X165500852Y-24219266D01*
X165500849Y-24219263D01*
X165350226Y-24140210D01*
X165185056Y-24099500D01*
X165014944Y-24099500D01*
X164849773Y-24140210D01*
X164699150Y-24219263D01*
X164571816Y-24332072D01*
X164475182Y-24472068D01*
X164414860Y-24631125D01*
X164414859Y-24631130D01*
X164394355Y-24800000D01*
X145725000Y-24800000D01*
X145725000Y-22424000D01*
X145744685Y-22356961D01*
X145797489Y-22311206D01*
X145849000Y-22300000D01*
X198473638Y-22300000D01*
X198540677Y-22319685D01*
G37*
G04 #@! TD.AperFunction*
M02*
