G04 #@! TF.GenerationSoftware,KiCad,Pcbnew,7.0.8-7.0.8~ubuntu22.04.1*
G04 #@! TF.CreationDate,2024-01-26T15:30:58+01:00*
G04 #@! TF.ProjectId,hand,68616e64-2e6b-4696-9361-645f70636258,rev?*
G04 #@! TF.SameCoordinates,Original*
G04 #@! TF.FileFunction,Profile,NP*
%FSLAX46Y46*%
G04 Gerber Fmt 4.6, Leading zero omitted, Abs format (unit mm)*
G04 Created by KiCad (PCBNEW 7.0.8-7.0.8~ubuntu22.04.1) date 2024-01-26 15:30:58*
%MOMM*%
%LPD*%
G01*
G04 APERTURE LIST*
G04 #@! TA.AperFunction,Profile*
%ADD10C,0.100000*%
G04 #@! TD*
G04 APERTURE END LIST*
D10*
X25525000Y-109261460D02*
X25525000Y-21261460D01*
X26523576Y-104350084D02*
G75*
G03*
X27211376Y-105037924I687824J-16D01*
G01*
X72525000Y-18261460D02*
X79025000Y-18261460D01*
X57259895Y-42283565D02*
X57259895Y-47083565D01*
X57861974Y-41681495D02*
G75*
G03*
X57259895Y-42283565I-74J-602005D01*
G01*
X77225000Y-102282712D02*
X79025000Y-102282712D01*
X45587160Y-105049300D02*
G75*
G03*
X46275000Y-104361460I-60J687900D01*
G01*
X76457801Y-109261460D02*
X25525000Y-109261460D01*
X75264053Y-47083565D02*
X75264053Y-42281539D01*
X55473576Y-104350084D02*
G75*
G03*
X56161376Y-105037924I687824J-16D01*
G01*
X26523536Y-104350084D02*
X26523536Y-97598976D01*
X77225000Y-102282701D02*
G75*
G03*
X76457801Y-103049911I-100J-767099D01*
G01*
X58526504Y-97597836D02*
G75*
G03*
X57838624Y-96909996I-687904J-64D01*
G01*
X75301504Y-97597836D02*
G75*
G03*
X74613624Y-96909996I-687904J-64D01*
G01*
X79025000Y-102282712D02*
X79025000Y-95061460D01*
X29576464Y-97597836D02*
X29576464Y-104350084D01*
X43218212Y-97610352D02*
X43218212Y-104361460D01*
X81025000Y-95061460D02*
X81025000Y-61261460D01*
X74613624Y-96909996D02*
X72932516Y-96909996D01*
X45587160Y-96921372D02*
X43906052Y-96921372D01*
X55469676Y-97598976D02*
X55469676Y-104350084D01*
X57259856Y-47083565D02*
G75*
G03*
X57861974Y-47685644I602244J165D01*
G01*
X72932516Y-96911176D02*
G75*
G03*
X72244676Y-97598976I-16J-687824D01*
G01*
X74613624Y-105037964D02*
G75*
G03*
X75301464Y-104350084I-24J687864D01*
G01*
X43906052Y-96922512D02*
G75*
G03*
X43218212Y-97610352I-52J-687788D01*
G01*
X72244676Y-97598976D02*
X72244676Y-104350084D01*
X79025000Y-61261460D02*
X79025000Y-21261460D01*
X28888624Y-105037964D02*
G75*
G03*
X29576464Y-104350084I-24J687864D01*
G01*
X29576504Y-97597836D02*
G75*
G03*
X28888624Y-96909996I-687904J-64D01*
G01*
X75301464Y-104350084D02*
X75301464Y-97597836D01*
X57838624Y-96909996D02*
X56157516Y-96909996D01*
X46275000Y-104361460D02*
X46275000Y-97609212D01*
X79025000Y-18261460D02*
X79025000Y-21261460D01*
X56161376Y-105037924D02*
X57838624Y-105037924D01*
X74661974Y-47685653D02*
G75*
G03*
X75264053Y-47083565I-74J602153D01*
G01*
X25525000Y-21261460D02*
X72525000Y-21261460D01*
X58526464Y-104350084D02*
X58526464Y-97597836D01*
X57861974Y-47685644D02*
X74661974Y-47685644D01*
X43222100Y-104361460D02*
G75*
G03*
X43909912Y-105049300I687800J-40D01*
G01*
X72525000Y-21261460D02*
X72525000Y-18261460D01*
X81025000Y-61261460D02*
X79025000Y-61261460D01*
X79025000Y-95061460D02*
X81025000Y-95061460D01*
X27207516Y-96911176D02*
G75*
G03*
X26519676Y-97598976I-16J-687824D01*
G01*
X43909912Y-105049300D02*
X45587160Y-105049300D01*
X27207516Y-96911136D02*
X28888624Y-96911136D01*
X57838624Y-105037964D02*
G75*
G03*
X58526464Y-104350084I-24J687864D01*
G01*
X76457801Y-103049911D02*
X76457801Y-109261460D01*
X46275028Y-97609212D02*
G75*
G03*
X45587160Y-96921372I-687728J112D01*
G01*
X75266040Y-42281539D02*
G75*
G03*
X74664000Y-41679460I-602040J39D01*
G01*
X28888624Y-105037924D02*
X27211376Y-105037924D01*
X56157516Y-96911176D02*
G75*
G03*
X55469676Y-97598976I-16J-687824D01*
G01*
X72936376Y-105037924D02*
X74613624Y-105037924D01*
X74664000Y-41679460D02*
X57861974Y-41679460D01*
X72248576Y-104350084D02*
G75*
G03*
X72936376Y-105037924I687824J-16D01*
G01*
M02*
