G04 #@! TF.GenerationSoftware,KiCad,Pcbnew,7.0.8-7.0.8~ubuntu22.04.1*
G04 #@! TF.CreationDate,2023-11-03T15:42:22+01:00*
G04 #@! TF.ProjectId,hand,68616e64-2e6b-4696-9361-645f70636258,rev?*
G04 #@! TF.SameCoordinates,Original*
G04 #@! TF.FileFunction,Paste,Top*
G04 #@! TF.FilePolarity,Positive*
%FSLAX46Y46*%
G04 Gerber Fmt 4.6, Leading zero omitted, Abs format (unit mm)*
G04 Created by KiCad (PCBNEW 7.0.8-7.0.8~ubuntu22.04.1) date 2023-11-03 15:42:22*
%MOMM*%
%LPD*%
G01*
G04 APERTURE LIST*
G04 Aperture macros list*
%AMRoundRect*
0 Rectangle with rounded corners*
0 $1 Rounding radius*
0 $2 $3 $4 $5 $6 $7 $8 $9 X,Y pos of 4 corners*
0 Add a 4 corners polygon primitive as box body*
4,1,4,$2,$3,$4,$5,$6,$7,$8,$9,$2,$3,0*
0 Add four circle primitives for the rounded corners*
1,1,$1+$1,$2,$3*
1,1,$1+$1,$4,$5*
1,1,$1+$1,$6,$7*
1,1,$1+$1,$8,$9*
0 Add four rect primitives between the rounded corners*
20,1,$1+$1,$2,$3,$4,$5,0*
20,1,$1+$1,$4,$5,$6,$7,0*
20,1,$1+$1,$6,$7,$8,$9,0*
20,1,$1+$1,$8,$9,$2,$3,0*%
G04 Aperture macros list end*
%ADD10RoundRect,0.225000X-0.250000X0.225000X-0.250000X-0.225000X0.250000X-0.225000X0.250000X0.225000X0*%
%ADD11R,0.532600X1.454899*%
%ADD12RoundRect,0.250000X-0.450000X0.262500X-0.450000X-0.262500X0.450000X-0.262500X0.450000X0.262500X0*%
%ADD13RoundRect,0.250000X-1.500000X-0.550000X1.500000X-0.550000X1.500000X0.550000X-1.500000X0.550000X0*%
%ADD14RoundRect,0.225000X0.225000X0.250000X-0.225000X0.250000X-0.225000X-0.250000X0.225000X-0.250000X0*%
%ADD15RoundRect,0.135000X0.135000X0.185000X-0.135000X0.185000X-0.135000X-0.185000X0.135000X-0.185000X0*%
%ADD16RoundRect,0.250000X0.450000X-0.262500X0.450000X0.262500X-0.450000X0.262500X-0.450000X-0.262500X0*%
%ADD17RoundRect,0.250000X0.262500X0.450000X-0.262500X0.450000X-0.262500X-0.450000X0.262500X-0.450000X0*%
%ADD18RoundRect,0.135000X-0.135000X-0.185000X0.135000X-0.185000X0.135000X0.185000X-0.135000X0.185000X0*%
%ADD19RoundRect,0.218750X-0.218750X-0.256250X0.218750X-0.256250X0.218750X0.256250X-0.218750X0.256250X0*%
%ADD20RoundRect,0.250000X1.500000X0.550000X-1.500000X0.550000X-1.500000X-0.550000X1.500000X-0.550000X0*%
%ADD21RoundRect,0.135000X-0.185000X0.135000X-0.185000X-0.135000X0.185000X-0.135000X0.185000X0.135000X0*%
%ADD22R,0.558800X1.460500*%
%ADD23R,0.351536X0.576580*%
%ADD24R,0.576580X0.351536*%
%ADD25RoundRect,0.250000X-0.262500X-0.450000X0.262500X-0.450000X0.262500X0.450000X-0.262500X0.450000X0*%
%ADD26RoundRect,0.218750X0.256250X-0.218750X0.256250X0.218750X-0.256250X0.218750X-0.256250X-0.218750X0*%
%ADD27RoundRect,0.225000X-0.225000X-0.250000X0.225000X-0.250000X0.225000X0.250000X-0.225000X0.250000X0*%
%ADD28RoundRect,0.135000X0.185000X-0.135000X0.185000X0.135000X-0.185000X0.135000X-0.185000X-0.135000X0*%
%ADD29RoundRect,0.075000X0.700000X0.075000X-0.700000X0.075000X-0.700000X-0.075000X0.700000X-0.075000X0*%
%ADD30RoundRect,0.075000X0.075000X0.700000X-0.075000X0.700000X-0.075000X-0.700000X0.075000X-0.700000X0*%
%ADD31RoundRect,0.200000X-0.200000X-0.275000X0.200000X-0.275000X0.200000X0.275000X-0.200000X0.275000X0*%
G04 APERTURE END LIST*
G36*
X176101800Y-91700000D02*
G01*
X174600000Y-91700000D01*
X174600000Y-90541100D01*
X176101800Y-90541100D01*
X176101800Y-91700000D01*
G37*
G36*
X174400000Y-91700000D02*
G01*
X172898200Y-91700000D01*
X172898200Y-90541100D01*
X174400000Y-90541100D01*
X174400000Y-91700000D01*
G37*
G36*
X176101800Y-93058900D02*
G01*
X174600000Y-93058900D01*
X174600000Y-91900000D01*
X176101800Y-91900000D01*
X176101800Y-93058900D01*
G37*
G36*
X174400000Y-93058900D02*
G01*
X172898200Y-93058900D01*
X172898200Y-91900000D01*
X174400000Y-91900000D01*
X174400000Y-93058900D01*
G37*
G36*
X176221800Y-81824150D02*
G01*
X174720000Y-81824150D01*
X174720000Y-80665250D01*
X176221800Y-80665250D01*
X176221800Y-81824150D01*
G37*
G36*
X174520000Y-81824150D02*
G01*
X173018200Y-81824150D01*
X173018200Y-80665250D01*
X174520000Y-80665250D01*
X174520000Y-81824150D01*
G37*
G36*
X176221800Y-83183050D02*
G01*
X174720000Y-83183050D01*
X174720000Y-82024150D01*
X176221800Y-82024150D01*
X176221800Y-83183050D01*
G37*
G36*
X174520000Y-83183050D02*
G01*
X173018200Y-83183050D01*
X173018200Y-82024150D01*
X174520000Y-82024150D01*
X174520000Y-83183050D01*
G37*
D10*
X171725000Y-59750000D03*
X171725000Y-61300000D03*
D11*
X175930000Y-51778652D03*
X174660000Y-51778652D03*
X173390000Y-51778652D03*
X172120000Y-51778652D03*
X172120000Y-57221348D03*
X173390000Y-57221348D03*
X174660000Y-57221348D03*
X175930000Y-57221348D03*
D12*
X180025000Y-71787500D03*
X180025000Y-73612500D03*
D13*
X190825000Y-85900000D03*
X196225000Y-85900000D03*
D14*
X149175000Y-39900000D03*
X147625000Y-39900000D03*
D15*
X231210000Y-28600000D03*
X230190000Y-28600000D03*
D16*
X178200000Y-87812500D03*
X178200000Y-85987500D03*
X155500000Y-41012500D03*
X155500000Y-39187500D03*
D17*
X178412500Y-26700000D03*
X176587500Y-26700000D03*
D18*
X153890000Y-32700000D03*
X154910000Y-32700000D03*
D12*
X178325000Y-78887500D03*
X178325000Y-80712500D03*
D19*
X148812500Y-65900000D03*
X150387500Y-65900000D03*
D20*
X186725000Y-78700000D03*
X181325000Y-78700000D03*
D21*
X162000000Y-24390000D03*
X162000000Y-25410000D03*
D12*
X174425000Y-64700000D03*
X174425000Y-66525000D03*
D20*
X186725000Y-93000000D03*
X181325000Y-93000000D03*
D18*
X230190000Y-26400000D03*
X231210000Y-26400000D03*
D16*
X153500000Y-41012500D03*
X153500000Y-39187500D03*
D22*
X176405000Y-89075850D03*
X175135000Y-89075850D03*
X173865000Y-89075850D03*
X172595000Y-89075850D03*
X172595000Y-94524150D03*
X173865000Y-94524150D03*
X175135000Y-94524150D03*
X176405000Y-94524150D03*
D10*
X181825000Y-71925000D03*
X181825000Y-73475000D03*
D22*
X176525000Y-79200000D03*
X175255000Y-79200000D03*
X173985000Y-79200000D03*
X172715000Y-79200000D03*
X172715000Y-84648300D03*
X173985000Y-84648300D03*
X175255000Y-84648300D03*
X176525000Y-84648300D03*
D23*
X151600000Y-34179400D03*
X151099999Y-34179400D03*
X150599999Y-34179400D03*
X150099998Y-34179400D03*
D24*
X149893699Y-34889701D03*
X149893699Y-35389700D03*
X149893699Y-35889699D03*
D23*
X150099998Y-36600000D03*
X150599999Y-36600000D03*
X151099999Y-36600000D03*
X151600000Y-36600000D03*
D24*
X151806299Y-35889699D03*
X151806299Y-35389700D03*
X151806299Y-34889701D03*
D25*
X152412500Y-65500000D03*
X154237500Y-65500000D03*
D20*
X186725000Y-85900000D03*
X181325000Y-85900000D03*
D26*
X174425000Y-69987500D03*
X174425000Y-68412500D03*
D25*
X176700000Y-33700000D03*
X178525000Y-33700000D03*
D21*
X169625000Y-31190000D03*
X169625000Y-32210000D03*
D27*
X176650000Y-31800000D03*
X178200000Y-31800000D03*
D19*
X154112500Y-46500000D03*
X155687500Y-46500000D03*
D15*
X170810000Y-35600000D03*
X169790000Y-35600000D03*
D18*
X153990000Y-29300000D03*
X155010000Y-29300000D03*
D28*
X155000000Y-37010000D03*
X155000000Y-35990000D03*
D27*
X173125000Y-50000000D03*
X174675000Y-50000000D03*
D14*
X178075000Y-28400000D03*
X176525000Y-28400000D03*
D10*
X147600000Y-34625000D03*
X147600000Y-36175000D03*
D29*
X167900000Y-36750000D03*
X167900000Y-36250000D03*
X167900000Y-35750000D03*
X167900000Y-35250000D03*
X167900000Y-34750000D03*
X167900000Y-34250000D03*
X167900000Y-33750000D03*
X167900000Y-33250000D03*
X167900000Y-32750000D03*
X167900000Y-32250000D03*
X167900000Y-31750000D03*
X167900000Y-31250000D03*
X167900000Y-30750000D03*
X167900000Y-30250000D03*
X167900000Y-29750000D03*
X167900000Y-29250000D03*
D30*
X165975000Y-27325000D03*
X165475000Y-27325000D03*
X164975000Y-27325000D03*
X164475000Y-27325000D03*
X163975000Y-27325000D03*
X163475000Y-27325000D03*
X162975000Y-27325000D03*
X162475000Y-27325000D03*
X161975000Y-27325000D03*
X161475000Y-27325000D03*
X160975000Y-27325000D03*
X160475000Y-27325000D03*
X159975000Y-27325000D03*
X159475000Y-27325000D03*
X158975000Y-27325000D03*
X158475000Y-27325000D03*
D29*
X156550000Y-29250000D03*
X156550000Y-29750000D03*
X156550000Y-30250000D03*
X156550000Y-30750000D03*
X156550000Y-31250000D03*
X156550000Y-31750000D03*
X156550000Y-32250000D03*
X156550000Y-32750000D03*
X156550000Y-33250000D03*
X156550000Y-33750000D03*
X156550000Y-34250000D03*
X156550000Y-34750000D03*
X156550000Y-35250000D03*
X156550000Y-35750000D03*
X156550000Y-36250000D03*
X156550000Y-36750000D03*
D30*
X158475000Y-38675000D03*
X158975000Y-38675000D03*
X159475000Y-38675000D03*
X159975000Y-38675000D03*
X160475000Y-38675000D03*
X160975000Y-38675000D03*
X161475000Y-38675000D03*
X161975000Y-38675000D03*
X162475000Y-38675000D03*
X162975000Y-38675000D03*
X163475000Y-38675000D03*
X163975000Y-38675000D03*
X164475000Y-38675000D03*
X164975000Y-38675000D03*
X165475000Y-38675000D03*
X165975000Y-38675000D03*
D27*
X152450000Y-62200000D03*
X154000000Y-62200000D03*
D16*
X162800000Y-49512500D03*
X162800000Y-47687500D03*
D31*
X173400000Y-59700000D03*
X175050000Y-59700000D03*
D13*
X190825000Y-93000000D03*
X196225000Y-93000000D03*
D16*
X151500000Y-40712500D03*
X151500000Y-38887500D03*
D27*
X176450000Y-30000000D03*
X178000000Y-30000000D03*
D17*
X150312500Y-63300000D03*
X148487500Y-63300000D03*
D13*
X190825000Y-78700000D03*
X196225000Y-78700000D03*
M02*
