G04 #@! TF.GenerationSoftware,KiCad,Pcbnew,7.0.8-7.0.8~ubuntu22.04.1*
G04 #@! TF.CreationDate,2023-11-03T15:42:22+01:00*
G04 #@! TF.ProjectId,hand,68616e64-2e6b-4696-9361-645f70636258,rev?*
G04 #@! TF.SameCoordinates,Original*
G04 #@! TF.FileFunction,Profile,NP*
%FSLAX46Y46*%
G04 Gerber Fmt 4.6, Leading zero omitted, Abs format (unit mm)*
G04 Created by KiCad (PCBNEW 7.0.8-7.0.8~ubuntu22.04.1) date 2023-11-03 15:42:22*
%MOMM*%
%LPD*%
G01*
G04 APERTURE LIST*
G04 #@! TA.AperFunction,Profile*
%ADD10C,0.100000*%
G04 #@! TD*
G04 APERTURE END LIST*
D10*
X145425000Y-110000000D02*
X145425000Y-22000000D01*
X146423536Y-105088624D02*
G75*
G03*
X147111376Y-105776464I687864J24D01*
G01*
X177159895Y-43022105D02*
X177159895Y-47822105D01*
X201200000Y-22200000D02*
X253800000Y-22200000D01*
X253800000Y-59600000D01*
X201200000Y-59600000D01*
X201200000Y-22200000D01*
X177761974Y-42419995D02*
G75*
G03*
X177159895Y-43022105I26J-602105D01*
G01*
X197125000Y-103021252D02*
X198925000Y-103021252D01*
X165487160Y-105787800D02*
G75*
G03*
X166175000Y-105100000I40J687800D01*
G01*
X196357801Y-110000000D02*
X145425000Y-110000000D01*
X195164053Y-47822105D02*
X195164053Y-43020079D01*
X175373536Y-105088624D02*
G75*
G03*
X176061376Y-105776464I687864J24D01*
G01*
X146423536Y-105088624D02*
X146423536Y-98337516D01*
X197125000Y-103021201D02*
G75*
G03*
X196357801Y-103788451I0J-767199D01*
G01*
X198925000Y-22000000D02*
X198925000Y-103021252D01*
X178426464Y-98336376D02*
G75*
G03*
X177738624Y-97648536I-687864J-24D01*
G01*
X195201464Y-98336376D02*
G75*
G03*
X194513624Y-97648536I-687864J-24D01*
G01*
X149476464Y-98336376D02*
X149476464Y-105088624D01*
X163118212Y-98348892D02*
X163118212Y-105100000D01*
X194513624Y-97648536D02*
X192832516Y-97648536D01*
X165487160Y-97659912D02*
X163806052Y-97659912D01*
X175369676Y-98337516D02*
X175369676Y-105088624D01*
X177159916Y-47822105D02*
G75*
G03*
X177761974Y-48424184I602184J105D01*
G01*
X192832516Y-97649676D02*
G75*
G03*
X192144676Y-98337516I-16J-687824D01*
G01*
X194513624Y-105776464D02*
G75*
G03*
X195201464Y-105088624I-24J687864D01*
G01*
X163806052Y-97661012D02*
G75*
G03*
X163118212Y-98348892I48J-687888D01*
G01*
X192144676Y-98337516D02*
X192144676Y-105088624D01*
X148788624Y-105776464D02*
G75*
G03*
X149476464Y-105088624I-24J687864D01*
G01*
X149476464Y-98336376D02*
G75*
G03*
X148788624Y-97648536I-687864J-24D01*
G01*
X195201464Y-105088624D02*
X195201464Y-98336376D01*
X145425000Y-22000000D02*
X198925000Y-22000000D01*
X177738624Y-97648536D02*
X176057516Y-97648536D01*
X166175000Y-105100000D02*
X166175000Y-98347752D01*
X176061376Y-105776464D02*
X177738624Y-105776464D01*
X194561974Y-48424153D02*
G75*
G03*
X195164053Y-47822105I26J602053D01*
G01*
X178426464Y-105088624D02*
X178426464Y-98336376D01*
X177761974Y-48424184D02*
X194561974Y-48424184D01*
X163122060Y-105100000D02*
G75*
G03*
X163809912Y-105787840I687840J0D01*
G01*
X147107516Y-97649676D02*
G75*
G03*
X146419676Y-98337516I-16J-687824D01*
G01*
X163809912Y-105787840D02*
X165487160Y-105787840D01*
X147107516Y-97649676D02*
X148788624Y-97649676D01*
X177738624Y-105776464D02*
G75*
G03*
X178426464Y-105088624I-24J687864D01*
G01*
X196357801Y-103788451D02*
X196357801Y-110000000D01*
X166175088Y-98347752D02*
G75*
G03*
X165487160Y-97659912I-687888J-48D01*
G01*
X195166100Y-43020079D02*
G75*
G03*
X194564000Y-42418000I-602100J-21D01*
G01*
X148788624Y-105776464D02*
X147111376Y-105776464D01*
X176057516Y-97649676D02*
G75*
G03*
X175369676Y-98337516I-16J-687824D01*
G01*
X192836376Y-105776464D02*
X194513624Y-105776464D01*
X194564000Y-42418000D02*
X177761974Y-42418000D01*
X192148536Y-105088624D02*
G75*
G03*
X192836376Y-105776464I687864J24D01*
G01*
M02*
