M48
; DRILL file {KiCad 7.0.8-7.0.8~ubuntu22.04.1} date fr. 03. nov. 2023 kl. 15.42 +0100
; FORMAT={-:-/ absolute / metric / decimal}
; #@! TF.CreationDate,2023-11-03T15:42:36+01:00
; #@! TF.GenerationSoftware,Kicad,Pcbnew,7.0.8-7.0.8~ubuntu22.04.1
; #@! TF.FileFunction,Plated,1,4,PTH
FMAT,2
METRIC
; #@! TA.AperFunction,Plated,PTH,ViaDrill
T1C0.300
; #@! TA.AperFunction,Plated,PTH,ViaDrill
T2C0.400
; #@! TA.AperFunction,Plated,PTH,ComponentDrill
T3C0.457
; #@! TA.AperFunction,Plated,PTH,ComponentDrill
T4C0.650
; #@! TA.AperFunction,Plated,PTH,ComponentDrill
T5C0.762
; #@! TA.AperFunction,Plated,PTH,ViaDrill
T6C0.800
; #@! TA.AperFunction,Plated,PTH,ComponentDrill
T7C1.000
; #@! TA.AperFunction,Plated,PTH,ComponentDrill
T8C1.100
%
G90
G05
T1
X147.1Y-23.5
X147.1Y-28.5
X147.6Y-108.0
X148.1Y-41.0
X148.75Y-34.89
X148.75Y-35.89
X149.0Y-38.4
X149.3Y-68.1
X150.0Y-41.0
X150.65Y-32.89
X151.65Y-32.89
X152.1Y-23.5
X152.1Y-28.5
X152.6Y-108.0
X152.9Y-36.5
X153.5Y-30.4
X153.7Y-35.3
X154.225Y-33.725
X154.5Y-87.4
X154.5Y-92.4
X155.4Y-37.9
X155.525Y-62.3
X157.6Y-108.0
X157.9Y-37.2
X158.1Y-28.8
X158.283Y-36.035
X159.0Y-40.5
X159.0Y-41.4
X159.0Y-44.2
X159.5Y-28.9
X159.5Y-87.4
X159.5Y-92.4
X160.0Y-30.8
X160.0Y-44.2
X160.1Y-42.0
X160.9Y-42.0
X161.9Y-31.0
X162.0Y-23.5
X162.0Y-35.1
X162.6Y-108.0
X164.148Y-52.748
X164.55Y-28.675
X164.6Y-33.7
X164.7Y-37.1
X164.998Y-51.898
X165.475Y-28.65
X165.6Y-37.083
X166.1Y-23.2
X166.6Y-25.1
X166.625Y-30.2
X166.625Y-31.7
X167.3Y-45.2
X167.6Y-108.0
X168.4Y-45.2
X168.4Y-100.7
X168.4Y-105.7
X169.4Y-37.0
X170.024Y-29.25
X170.9Y-62.6
X170.9Y-80.0
X170.9Y-90.7
X171.1Y-23.2
X171.326Y-30.2
X171.8Y-35.8
X172.6Y-108.0
X172.8Y-36.9
X172.8Y-55.4
X173.0Y-48.9
X173.4Y-100.7
X173.4Y-105.7
X174.4Y-48.9
X174.425Y-71.4
X175.7Y-55.4
X176.1Y-23.2
X177.6Y-108.0
X179.525Y-31.8
X180.954Y-39.37
X181.1Y-23.2
X182.6Y-108.0
X183.025Y-73.6
X185.754Y-39.37
X187.6Y-108.0
X190.754Y-39.37
X191.6Y-27.8
X191.7Y-49.53
X192.6Y-108.0
X196.7Y-49.53
T2
X152.6Y-46.6
X162.5Y-64.2
X162.8Y-50.9
X165.1Y-24.8
X172.6Y-96.0
X172.7Y-86.4
X173.1Y-61.8
X174.6Y-61.9
X176.1Y-38.9
X177.0Y-82.1
X177.5Y-91.424
X180.3Y-87.9
X181.102Y-49.784
X181.325Y-82.3
X181.325Y-89.4
X183.7Y-88.0
X184.0Y-27.7
X196.225Y-82.3
X196.225Y-89.6
T3
X173.425Y-30.32
X173.425Y-35.2
T4
X164.975Y-49.125
X166.245Y-49.125
X169.3Y-49.2
X170.57Y-49.2
X177.292Y-49.53
X178.562Y-49.53
X180.5Y-28.6
X181.77Y-28.6
T5
X228.925Y-23.287
X229.56Y-31.492
X230.825Y-23.287
X232.1Y-31.492
X232.725Y-23.287
T6
X175.1Y-87.0
X176.6Y-87.0
X188.8Y-82.3
X188.8Y-89.5
T7
X149.5Y-73.1
X149.5Y-88.1
X151.71Y-104.65
X152.0Y-48.8
X153.725Y-69.9
X153.725Y-74.98
X153.725Y-78.76
X153.725Y-83.84
X154.25Y-104.65
X156.79Y-104.65
X157.025Y-71.5
X157.025Y-84.2
X157.08Y-48.8
X159.33Y-104.65
X159.565Y-79.12
X161.87Y-104.65
X162.925Y-68.58
X162.925Y-71.12
X162.925Y-73.66
X162.925Y-76.2
X162.975Y-80.0
X162.975Y-82.54
X162.985Y-86.7
X162.985Y-89.24
X162.985Y-91.78
X162.985Y-94.32
X165.465Y-68.58
X165.465Y-71.12
X165.465Y-73.66
X165.465Y-76.2
X165.515Y-80.0
X165.515Y-82.54
X165.525Y-86.7
X165.525Y-89.24
X165.525Y-91.78
X165.525Y-94.32
X176.685Y-69.4
X176.785Y-63.5
X177.325Y-66.6
X177.7Y-72.7
X180.43Y-104.55
X181.765Y-69.4
X181.865Y-63.5
X182.97Y-104.55
X184.945Y-64.06
X185.51Y-104.55
X185.56Y-24.02
X185.56Y-26.56
X185.56Y-29.1
X185.56Y-31.64
X185.56Y-34.18
X188.05Y-104.55
X188.1Y-24.02
X188.1Y-26.56
X188.1Y-29.1
X188.1Y-31.64
X188.1Y-34.18
X190.025Y-66.6
X190.59Y-104.55
X192.7Y-72.7
X196.9Y-24.06
X196.9Y-26.6
X196.9Y-29.14
X203.5Y-24.2
X203.5Y-26.74
X203.5Y-29.28
T8
X150.695Y-53.56
X150.695Y-56.1
X150.695Y-58.64
X178.695Y-53.46
X178.695Y-56.0
X178.695Y-58.54
T0
M30
