M48
; DRILL file {KiCad 7.0.8-7.0.8~ubuntu22.04.1} date Fri 26 Jan 2024 15:47:41 CET
; FORMAT={-:-/ absolute / metric / decimal}
; #@! TF.CreationDate,2024-01-26T15:47:41+01:00
; #@! TF.GenerationSoftware,Kicad,Pcbnew,7.0.8-7.0.8~ubuntu22.04.1
; #@! TF.FileFunction,Plated,1,2,PTH
FMAT,2
METRIC
; #@! TA.AperFunction,Plated,PTH,ViaDrill
T1C0.400
; #@! TA.AperFunction,Plated,PTH,ComponentDrill
T2C1.000
; #@! TA.AperFunction,Plated,PTH,ComponentDrill
T3C3.200
%
G90
G05
T1
X85.506Y-65.446
X89.706Y-62.246
X90.706Y-72.746
X97.806Y-58.446
X98.806Y-59.146
X101.006Y-68.646
X102.406Y-56.746
X102.506Y-54.846
X102.606Y-58.046
X102.606Y-66.846
T2
X86.9Y-56.3
X86.9Y-58.84
X86.9Y-61.38
X87.04Y-42.5
X89.58Y-42.5
X92.12Y-42.5
X94.66Y-42.5
X95.606Y-63.381
X95.606Y-65.921
X97.2Y-42.5
X99.74Y-42.5
X100.0Y-71.1
X102.54Y-71.1
X105.08Y-71.1
X110.9Y-65.8
X110.9Y-68.34
X110.9Y-70.88
X115.0Y-54.3
X115.0Y-56.84
X115.0Y-59.38
T3
X84.406Y-72.246
X117.606Y-39.046
X117.606Y-72.246
T0
M30
