G04 #@! TF.GenerationSoftware,KiCad,Pcbnew,7.0.8-7.0.8~ubuntu22.04.1*
G04 #@! TF.CreationDate,2024-01-26T15:47:29+01:00*
G04 #@! TF.ProjectId,imu,696d752e-6b69-4636-9164-5f7063625858,rev?*
G04 #@! TF.SameCoordinates,Original*
G04 #@! TF.FileFunction,Soldermask,Top*
G04 #@! TF.FilePolarity,Negative*
%FSLAX46Y46*%
G04 Gerber Fmt 4.6, Leading zero omitted, Abs format (unit mm)*
G04 Created by KiCad (PCBNEW 7.0.8-7.0.8~ubuntu22.04.1) date 2024-01-26 15:47:29*
%MOMM*%
%LPD*%
G01*
G04 APERTURE LIST*
G04 Aperture macros list*
%AMRoundRect*
0 Rectangle with rounded corners*
0 $1 Rounding radius*
0 $2 $3 $4 $5 $6 $7 $8 $9 X,Y pos of 4 corners*
0 Add a 4 corners polygon primitive as box body*
4,1,4,$2,$3,$4,$5,$6,$7,$8,$9,$2,$3,0*
0 Add four circle primitives for the rounded corners*
1,1,$1+$1,$2,$3*
1,1,$1+$1,$4,$5*
1,1,$1+$1,$6,$7*
1,1,$1+$1,$8,$9*
0 Add four rect primitives between the rounded corners*
20,1,$1+$1,$2,$3,$4,$5,0*
20,1,$1+$1,$4,$5,$6,$7,0*
20,1,$1+$1,$6,$7,$8,$9,0*
20,1,$1+$1,$8,$9,$2,$3,0*%
G04 Aperture macros list end*
%ADD10RoundRect,0.250000X-0.262500X-0.450000X0.262500X-0.450000X0.262500X0.450000X-0.262500X0.450000X0*%
%ADD11R,1.700000X1.700000*%
%ADD12O,1.700000X1.700000*%
%ADD13RoundRect,0.225000X0.225000X0.250000X-0.225000X0.250000X-0.225000X-0.250000X0.225000X-0.250000X0*%
%ADD14C,3.600000*%
%ADD15C,5.600000*%
%ADD16RoundRect,0.218750X-0.256250X0.218750X-0.256250X-0.218750X0.256250X-0.218750X0.256250X0.218750X0*%
%ADD17RoundRect,0.250000X-0.450000X0.262500X-0.450000X-0.262500X0.450000X-0.262500X0.450000X0.262500X0*%
%ADD18RoundRect,0.150000X0.512500X0.150000X-0.512500X0.150000X-0.512500X-0.150000X0.512500X-0.150000X0*%
%ADD19R,0.576580X0.351536*%
%ADD20R,0.351536X0.576580*%
%ADD21RoundRect,0.225000X-0.225000X-0.250000X0.225000X-0.250000X0.225000X0.250000X-0.225000X0.250000X0*%
%ADD22RoundRect,0.250000X0.262500X0.450000X-0.262500X0.450000X-0.262500X-0.450000X0.262500X-0.450000X0*%
G04 APERTURE END LIST*
D10*
X110687500Y-46900000D03*
X112512500Y-46900000D03*
D11*
X95605888Y-65920584D03*
D12*
X95605888Y-63380584D03*
D11*
X115000000Y-54300000D03*
D12*
X115000000Y-56840000D03*
X115000000Y-59380000D03*
D11*
X86900000Y-56300000D03*
D12*
X86900000Y-58840000D03*
X86900000Y-61380000D03*
D10*
X98647804Y-55968630D03*
X100472804Y-55968630D03*
D13*
X102575000Y-65200000D03*
X101025000Y-65200000D03*
D14*
X117605888Y-72245584D03*
D15*
X117605888Y-72245584D03*
D16*
X96905888Y-53558084D03*
X96905888Y-55133084D03*
D17*
X94905888Y-50433084D03*
X94905888Y-52258084D03*
D11*
X100000000Y-71100000D03*
D12*
X102540000Y-71100000D03*
X105080000Y-71100000D03*
D14*
X117605888Y-39045584D03*
D15*
X117605888Y-39045584D03*
D14*
X84405888Y-72245584D03*
D15*
X84405888Y-72245584D03*
D18*
X91768388Y-59245584D03*
X94043388Y-60195584D03*
X94043388Y-58295584D03*
D19*
X100189700Y-59749999D03*
X100189700Y-60250000D03*
X100189700Y-60750000D03*
X100189700Y-61250001D03*
D20*
X100900001Y-61456300D03*
X101400000Y-61456300D03*
X101899999Y-61456300D03*
D19*
X102610300Y-61250001D03*
X102610300Y-60750000D03*
X102610300Y-60250000D03*
X102610300Y-59749999D03*
D20*
X101899999Y-59543700D03*
X101400000Y-59543700D03*
X100900001Y-59543700D03*
D21*
X102225000Y-63300000D03*
X103775000Y-63300000D03*
D11*
X110900000Y-70879999D03*
D12*
X110900000Y-68339999D03*
X110900000Y-65799999D03*
D11*
X87040000Y-42500000D03*
D12*
X89580000Y-42500000D03*
X92120000Y-42500000D03*
X94660000Y-42500000D03*
X97200000Y-42500000D03*
X99740000Y-42500000D03*
D22*
X91612500Y-56300000D03*
X89787500Y-56300000D03*
D10*
X98747804Y-52468628D03*
X100572804Y-52468628D03*
M02*
