G04 #@! TF.GenerationSoftware,KiCad,Pcbnew,7.0.8-7.0.8~ubuntu22.04.1*
G04 #@! TF.CreationDate,2024-01-26T15:47:29+01:00*
G04 #@! TF.ProjectId,imu,696d752e-6b69-4636-9164-5f7063625858,rev?*
G04 #@! TF.SameCoordinates,Original*
G04 #@! TF.FileFunction,Legend,Top*
G04 #@! TF.FilePolarity,Positive*
%FSLAX46Y46*%
G04 Gerber Fmt 4.6, Leading zero omitted, Abs format (unit mm)*
G04 Created by KiCad (PCBNEW 7.0.8-7.0.8~ubuntu22.04.1) date 2024-01-26 15:47:29*
%MOMM*%
%LPD*%
G01*
G04 APERTURE LIST*
G04 Aperture macros list*
%AMRoundRect*
0 Rectangle with rounded corners*
0 $1 Rounding radius*
0 $2 $3 $4 $5 $6 $7 $8 $9 X,Y pos of 4 corners*
0 Add a 4 corners polygon primitive as box body*
4,1,4,$2,$3,$4,$5,$6,$7,$8,$9,$2,$3,0*
0 Add four circle primitives for the rounded corners*
1,1,$1+$1,$2,$3*
1,1,$1+$1,$4,$5*
1,1,$1+$1,$6,$7*
1,1,$1+$1,$8,$9*
0 Add four rect primitives between the rounded corners*
20,1,$1+$1,$2,$3,$4,$5,0*
20,1,$1+$1,$4,$5,$6,$7,0*
20,1,$1+$1,$6,$7,$8,$9,0*
20,1,$1+$1,$8,$9,$2,$3,0*%
G04 Aperture macros list end*
%ADD10C,0.300000*%
%ADD11C,0.187500*%
%ADD12C,0.150000*%
%ADD13C,0.120000*%
%ADD14C,0.152400*%
%ADD15RoundRect,0.250000X-0.262500X-0.450000X0.262500X-0.450000X0.262500X0.450000X-0.262500X0.450000X0*%
%ADD16R,1.700000X1.700000*%
%ADD17O,1.700000X1.700000*%
%ADD18RoundRect,0.225000X0.225000X0.250000X-0.225000X0.250000X-0.225000X-0.250000X0.225000X-0.250000X0*%
%ADD19C,3.600000*%
%ADD20C,5.600000*%
%ADD21RoundRect,0.218750X-0.256250X0.218750X-0.256250X-0.218750X0.256250X-0.218750X0.256250X0.218750X0*%
%ADD22RoundRect,0.250000X-0.450000X0.262500X-0.450000X-0.262500X0.450000X-0.262500X0.450000X0.262500X0*%
%ADD23RoundRect,0.150000X0.512500X0.150000X-0.512500X0.150000X-0.512500X-0.150000X0.512500X-0.150000X0*%
%ADD24R,0.576580X0.351536*%
%ADD25R,0.351536X0.576580*%
%ADD26RoundRect,0.225000X-0.225000X-0.250000X0.225000X-0.250000X0.225000X0.250000X-0.225000X0.250000X0*%
%ADD27RoundRect,0.250000X0.262500X0.450000X-0.262500X0.450000X-0.262500X-0.450000X0.262500X-0.450000X0*%
G04 APERTURE END LIST*
D10*
G36*
X86381498Y-47879558D02*
G01*
X86398401Y-47879970D01*
X86414213Y-47881206D01*
X86428935Y-47883267D01*
X86448973Y-47887904D01*
X86466558Y-47894395D01*
X86481688Y-47902742D01*
X86494365Y-47912943D01*
X86504589Y-47924998D01*
X86512359Y-47938909D01*
X86517675Y-47954674D01*
X86520538Y-47972294D01*
X86521083Y-47985071D01*
X86519856Y-48003927D01*
X86516176Y-48020928D01*
X86510042Y-48036075D01*
X86501454Y-48049368D01*
X86490412Y-48060805D01*
X86476917Y-48070388D01*
X86460969Y-48078116D01*
X86442566Y-48083989D01*
X86421711Y-48088008D01*
X86406443Y-48089656D01*
X86390086Y-48090480D01*
X86381498Y-48090584D01*
X85894234Y-48090584D01*
X85877375Y-48090171D01*
X85861604Y-48088935D01*
X85846921Y-48086874D01*
X85826936Y-48082237D01*
X85809397Y-48075746D01*
X85794306Y-48067400D01*
X85781662Y-48057199D01*
X85771466Y-48045143D01*
X85763716Y-48031232D01*
X85758414Y-48015467D01*
X85755559Y-47997848D01*
X85755015Y-47985071D01*
X85755576Y-47970387D01*
X85757855Y-47953756D01*
X85761887Y-47939039D01*
X85769040Y-47923905D01*
X85778717Y-47911527D01*
X85790919Y-47901906D01*
X85805490Y-47894311D01*
X85819326Y-47889182D01*
X85834699Y-47885145D01*
X85851612Y-47882198D01*
X85866249Y-47880627D01*
X85881871Y-47879754D01*
X85894234Y-47879558D01*
X86031254Y-47879558D01*
X86031254Y-47071358D01*
X85805573Y-47071358D01*
X85805573Y-47267729D01*
X85805161Y-47284588D01*
X85803925Y-47300359D01*
X85801864Y-47315042D01*
X85797227Y-47335027D01*
X85790736Y-47352566D01*
X85782389Y-47367657D01*
X85772189Y-47380300D01*
X85760133Y-47390497D01*
X85746222Y-47398247D01*
X85730457Y-47403549D01*
X85712838Y-47406404D01*
X85700061Y-47406948D01*
X85681204Y-47405724D01*
X85664203Y-47402053D01*
X85649056Y-47395935D01*
X85635764Y-47387370D01*
X85624326Y-47376358D01*
X85614743Y-47362898D01*
X85607015Y-47346991D01*
X85601142Y-47328637D01*
X85597124Y-47307836D01*
X85595475Y-47292609D01*
X85594651Y-47276295D01*
X85594548Y-47267729D01*
X85594548Y-46860332D01*
X86683382Y-46860332D01*
X86683382Y-47267729D01*
X86683033Y-47284090D01*
X86681986Y-47299466D01*
X86679694Y-47317301D01*
X86676311Y-47333598D01*
X86671837Y-47348356D01*
X86665028Y-47364035D01*
X86661034Y-47371044D01*
X86651413Y-47383246D01*
X86639035Y-47392923D01*
X86623901Y-47400076D01*
X86609184Y-47404108D01*
X86592553Y-47406387D01*
X86577869Y-47406948D01*
X86559013Y-47405724D01*
X86542011Y-47402053D01*
X86526865Y-47395935D01*
X86513572Y-47387370D01*
X86502135Y-47376358D01*
X86492552Y-47362898D01*
X86484824Y-47346991D01*
X86478951Y-47328637D01*
X86474932Y-47307836D01*
X86473284Y-47292609D01*
X86472459Y-47276295D01*
X86472356Y-47267729D01*
X86472356Y-47071358D01*
X86242280Y-47071358D01*
X86242280Y-47879558D01*
X86381498Y-47879558D01*
G37*
G36*
X87640326Y-47879558D02*
G01*
X87657229Y-47879970D01*
X87673041Y-47881206D01*
X87687763Y-47883267D01*
X87707801Y-47887904D01*
X87725385Y-47894395D01*
X87740516Y-47902742D01*
X87753193Y-47912943D01*
X87763417Y-47924998D01*
X87771186Y-47938909D01*
X87776503Y-47954674D01*
X87779365Y-47972294D01*
X87779911Y-47985071D01*
X87778684Y-48003927D01*
X87775003Y-48020928D01*
X87768869Y-48036075D01*
X87760281Y-48049368D01*
X87749240Y-48060805D01*
X87735745Y-48070388D01*
X87719796Y-48078116D01*
X87701394Y-48083989D01*
X87680538Y-48088008D01*
X87665271Y-48089656D01*
X87648913Y-48090480D01*
X87640326Y-48090584D01*
X87153061Y-48090584D01*
X87136203Y-48090171D01*
X87120432Y-48088935D01*
X87105749Y-48086874D01*
X87085763Y-48082237D01*
X87068225Y-48075746D01*
X87053134Y-48067400D01*
X87040490Y-48057199D01*
X87030293Y-48045143D01*
X87022544Y-48031232D01*
X87017242Y-48015467D01*
X87014387Y-47997848D01*
X87013843Y-47985071D01*
X87014404Y-47970387D01*
X87016683Y-47953756D01*
X87020715Y-47939039D01*
X87027868Y-47923905D01*
X87037545Y-47911527D01*
X87049747Y-47901906D01*
X87064318Y-47894311D01*
X87078153Y-47889182D01*
X87093527Y-47885145D01*
X87110439Y-47882198D01*
X87125077Y-47880627D01*
X87140699Y-47879754D01*
X87153061Y-47879558D01*
X87290081Y-47879558D01*
X87290081Y-47071358D01*
X87064401Y-47071358D01*
X87064401Y-47267729D01*
X87063989Y-47284588D01*
X87062752Y-47300359D01*
X87060692Y-47315042D01*
X87056055Y-47335027D01*
X87049563Y-47352566D01*
X87041217Y-47367657D01*
X87031016Y-47380300D01*
X87018960Y-47390497D01*
X87005050Y-47398247D01*
X86989285Y-47403549D01*
X86971665Y-47406404D01*
X86958888Y-47406948D01*
X86940032Y-47405724D01*
X86923030Y-47402053D01*
X86907883Y-47395935D01*
X86894591Y-47387370D01*
X86883154Y-47376358D01*
X86873571Y-47362898D01*
X86865843Y-47346991D01*
X86859970Y-47328637D01*
X86855951Y-47307836D01*
X86854303Y-47292609D01*
X86853478Y-47276295D01*
X86853375Y-47267729D01*
X86853375Y-46860332D01*
X87942210Y-46860332D01*
X87942210Y-47267729D01*
X87941861Y-47284090D01*
X87940813Y-47299466D01*
X87938522Y-47317301D01*
X87935139Y-47333598D01*
X87930665Y-47348356D01*
X87923856Y-47364035D01*
X87919862Y-47371044D01*
X87910240Y-47383246D01*
X87897863Y-47392923D01*
X87882729Y-47400076D01*
X87868011Y-47404108D01*
X87851380Y-47406387D01*
X87836697Y-47406948D01*
X87817841Y-47405724D01*
X87800839Y-47402053D01*
X87785692Y-47395935D01*
X87772400Y-47387370D01*
X87760963Y-47376358D01*
X87751380Y-47362898D01*
X87743652Y-47346991D01*
X87737779Y-47328637D01*
X87733760Y-47307836D01*
X87732111Y-47292609D01*
X87731287Y-47276295D01*
X87731184Y-47267729D01*
X87731184Y-47071358D01*
X87501107Y-47071358D01*
X87501107Y-47879558D01*
X87640326Y-47879558D01*
G37*
G36*
X88506777Y-46860332D02*
G01*
X88523636Y-46860744D01*
X88539407Y-46861981D01*
X88554090Y-46864042D01*
X88574075Y-46868679D01*
X88591613Y-46875170D01*
X88606705Y-46883516D01*
X88619348Y-46893717D01*
X88629545Y-46905773D01*
X88637295Y-46919683D01*
X88642597Y-46935448D01*
X88645452Y-46953068D01*
X88645996Y-46965845D01*
X88644772Y-46984701D01*
X88641101Y-47001703D01*
X88634983Y-47016850D01*
X88626418Y-47030142D01*
X88615406Y-47041580D01*
X88601946Y-47051162D01*
X88586039Y-47058890D01*
X88567685Y-47064764D01*
X88546884Y-47068782D01*
X88531657Y-47070431D01*
X88515342Y-47071255D01*
X88506777Y-47071358D01*
X88432772Y-47071358D01*
X88432772Y-47385699D01*
X88808661Y-47062932D01*
X88793291Y-47055919D01*
X88779970Y-47047522D01*
X88768699Y-47037738D01*
X88757492Y-47023562D01*
X88749486Y-47007220D01*
X88745388Y-46992588D01*
X88743338Y-46976571D01*
X88743082Y-46968043D01*
X88744306Y-46948794D01*
X88747977Y-46931438D01*
X88754095Y-46915976D01*
X88762660Y-46902407D01*
X88773672Y-46890731D01*
X88787132Y-46880949D01*
X88803039Y-46873060D01*
X88821393Y-46867064D01*
X88842194Y-46862962D01*
X88857421Y-46861279D01*
X88873735Y-46860437D01*
X88882301Y-46860332D01*
X89093326Y-46860332D01*
X89110185Y-46860744D01*
X89125956Y-46861981D01*
X89140639Y-46864042D01*
X89160624Y-46868679D01*
X89178163Y-46875170D01*
X89193254Y-46883516D01*
X89205898Y-46893717D01*
X89216094Y-46905773D01*
X89223844Y-46919683D01*
X89229146Y-46935448D01*
X89232001Y-46953068D01*
X89232545Y-46965845D01*
X89231395Y-46984701D01*
X89227947Y-47001703D01*
X89222199Y-47016850D01*
X89214152Y-47030142D01*
X89203806Y-47041580D01*
X89191161Y-47051162D01*
X89176217Y-47058890D01*
X89158974Y-47064764D01*
X89139432Y-47068782D01*
X89117591Y-47070946D01*
X89101753Y-47071358D01*
X88730626Y-47394125D01*
X88755975Y-47408644D01*
X88768496Y-47416694D01*
X88780915Y-47425272D01*
X88793232Y-47434377D01*
X88805446Y-47444009D01*
X88817558Y-47454169D01*
X88829567Y-47464856D01*
X88841474Y-47476071D01*
X88853279Y-47487813D01*
X88864982Y-47500082D01*
X88876582Y-47512879D01*
X88888080Y-47526203D01*
X88899475Y-47540054D01*
X88910769Y-47554433D01*
X88921960Y-47569339D01*
X88933048Y-47584772D01*
X88944034Y-47600733D01*
X88954918Y-47617221D01*
X88965700Y-47634237D01*
X88976379Y-47651780D01*
X88986956Y-47669850D01*
X88997431Y-47688448D01*
X89007803Y-47707573D01*
X89018073Y-47727225D01*
X89028241Y-47747405D01*
X89038306Y-47768112D01*
X89048269Y-47789346D01*
X89058130Y-47811108D01*
X89067888Y-47833397D01*
X89077545Y-47856214D01*
X89087098Y-47879558D01*
X89154509Y-47879558D01*
X89171412Y-47879970D01*
X89187224Y-47881206D01*
X89201946Y-47883267D01*
X89221984Y-47887904D01*
X89239569Y-47894395D01*
X89254700Y-47902742D01*
X89267377Y-47912943D01*
X89277600Y-47924998D01*
X89285370Y-47938909D01*
X89290686Y-47954674D01*
X89293549Y-47972294D01*
X89294094Y-47985071D01*
X89292867Y-48003927D01*
X89289187Y-48020928D01*
X89283053Y-48036075D01*
X89274465Y-48049368D01*
X89263424Y-48060805D01*
X89249929Y-48070388D01*
X89233980Y-48078116D01*
X89215578Y-48083989D01*
X89194722Y-48088008D01*
X89179455Y-48089656D01*
X89163097Y-48090480D01*
X89154509Y-48090584D01*
X88922601Y-48090584D01*
X88917954Y-48076557D01*
X88908531Y-48048974D01*
X88898937Y-48022017D01*
X88889171Y-47995688D01*
X88879234Y-47969985D01*
X88869124Y-47944909D01*
X88858843Y-47920460D01*
X88848390Y-47896638D01*
X88837766Y-47873442D01*
X88826970Y-47850874D01*
X88816002Y-47828932D01*
X88804862Y-47807617D01*
X88793550Y-47786929D01*
X88782067Y-47766867D01*
X88770412Y-47747433D01*
X88758585Y-47728625D01*
X88752608Y-47719456D01*
X88740605Y-47701684D01*
X88728594Y-47684818D01*
X88716574Y-47668860D01*
X88704545Y-47653809D01*
X88692508Y-47639665D01*
X88680463Y-47626429D01*
X88668408Y-47614100D01*
X88656345Y-47602678D01*
X88644274Y-47592164D01*
X88632194Y-47582556D01*
X88620105Y-47573857D01*
X88601956Y-47562508D01*
X88583788Y-47553202D01*
X88565601Y-47545936D01*
X88559534Y-47543968D01*
X88432772Y-47651679D01*
X88432772Y-47879558D01*
X88506777Y-47879558D01*
X88523636Y-47879970D01*
X88539407Y-47881206D01*
X88554090Y-47883267D01*
X88574075Y-47887904D01*
X88591613Y-47894395D01*
X88606705Y-47902742D01*
X88619348Y-47912943D01*
X88629545Y-47924998D01*
X88637295Y-47938909D01*
X88642597Y-47954674D01*
X88645452Y-47972294D01*
X88645996Y-47985071D01*
X88644772Y-48003927D01*
X88641101Y-48020928D01*
X88634983Y-48036075D01*
X88626418Y-48049368D01*
X88615406Y-48060805D01*
X88601946Y-48070388D01*
X88586039Y-48078116D01*
X88567685Y-48083989D01*
X88546884Y-48088008D01*
X88531657Y-48089656D01*
X88515342Y-48090480D01*
X88506777Y-48090584D01*
X88190239Y-48090584D01*
X88173380Y-48090171D01*
X88157609Y-48088935D01*
X88142926Y-48086874D01*
X88122941Y-48082237D01*
X88105402Y-48075746D01*
X88090311Y-48067400D01*
X88077667Y-48057199D01*
X88067471Y-48045143D01*
X88059721Y-48031232D01*
X88054419Y-48015467D01*
X88051564Y-47997848D01*
X88051020Y-47985071D01*
X88052244Y-47966214D01*
X88055914Y-47949213D01*
X88062032Y-47934066D01*
X88070598Y-47920774D01*
X88081610Y-47909336D01*
X88095070Y-47899754D01*
X88110976Y-47892026D01*
X88129330Y-47886152D01*
X88150132Y-47882134D01*
X88165359Y-47880485D01*
X88181673Y-47879661D01*
X88190239Y-47879558D01*
X88221746Y-47879558D01*
X88221746Y-47071358D01*
X88190239Y-47071358D01*
X88173380Y-47070946D01*
X88157609Y-47069709D01*
X88142926Y-47067649D01*
X88122941Y-47063012D01*
X88105402Y-47056520D01*
X88090311Y-47048174D01*
X88077667Y-47037973D01*
X88067471Y-47025917D01*
X88059721Y-47012007D01*
X88054419Y-46996242D01*
X88051564Y-46978622D01*
X88051020Y-46965845D01*
X88051581Y-46951162D01*
X88053860Y-46934531D01*
X88057892Y-46919814D01*
X88065045Y-46904680D01*
X88074722Y-46892302D01*
X88086924Y-46882680D01*
X88101495Y-46875086D01*
X88115331Y-46869957D01*
X88130704Y-46865919D01*
X88147616Y-46862973D01*
X88162254Y-46861402D01*
X88177876Y-46860529D01*
X88190239Y-46860332D01*
X88506777Y-46860332D01*
G37*
G36*
X90225758Y-47588298D02*
G01*
X90241330Y-47588710D01*
X90262804Y-47590874D01*
X90282018Y-47594893D01*
X90298972Y-47600766D01*
X90313664Y-47608494D01*
X90326097Y-47618077D01*
X90336269Y-47629514D01*
X90344180Y-47642806D01*
X90349831Y-47657953D01*
X90353222Y-47674955D01*
X90354352Y-47693811D01*
X90353222Y-47711983D01*
X90349831Y-47728441D01*
X90344180Y-47743186D01*
X90336269Y-47756219D01*
X90326097Y-47767538D01*
X90313664Y-47777145D01*
X90298972Y-47785038D01*
X90282018Y-47791218D01*
X90262804Y-47795685D01*
X90241330Y-47798439D01*
X90225758Y-47799324D01*
X90225758Y-47879558D01*
X90241330Y-47879970D01*
X90262804Y-47882134D01*
X90282018Y-47886152D01*
X90298972Y-47892026D01*
X90313664Y-47899754D01*
X90326097Y-47909336D01*
X90336269Y-47920774D01*
X90344180Y-47934066D01*
X90349831Y-47949213D01*
X90353222Y-47966214D01*
X90354352Y-47985071D01*
X90353109Y-48003927D01*
X90349381Y-48020928D01*
X90343166Y-48036075D01*
X90334466Y-48049368D01*
X90323279Y-48060805D01*
X90309607Y-48070388D01*
X90293449Y-48078116D01*
X90274805Y-48083989D01*
X90253676Y-48088008D01*
X90238208Y-48089656D01*
X90221636Y-48090480D01*
X90212936Y-48090584D01*
X89934499Y-48090584D01*
X89917640Y-48090171D01*
X89901869Y-48088935D01*
X89887186Y-48086874D01*
X89867201Y-48082237D01*
X89849663Y-48075746D01*
X89834572Y-48067400D01*
X89821928Y-48057199D01*
X89811731Y-48045143D01*
X89803982Y-48031232D01*
X89798679Y-48015467D01*
X89795824Y-47997848D01*
X89795280Y-47985071D01*
X89796504Y-47966214D01*
X89800175Y-47949213D01*
X89806293Y-47934066D01*
X89814858Y-47920774D01*
X89825870Y-47909336D01*
X89839330Y-47899754D01*
X89855237Y-47892026D01*
X89873591Y-47886152D01*
X89894392Y-47882134D01*
X89909619Y-47880485D01*
X89925934Y-47879661D01*
X89934499Y-47879558D01*
X90014733Y-47879558D01*
X90014733Y-47799324D01*
X89440640Y-47799324D01*
X89440640Y-47624202D01*
X89462213Y-47588298D01*
X89698194Y-47588298D01*
X90014733Y-47588298D01*
X90014733Y-47077586D01*
X89698194Y-47588298D01*
X89462213Y-47588298D01*
X89949153Y-46777900D01*
X90225758Y-46777900D01*
X90225758Y-47588298D01*
G37*
G36*
X91222540Y-46744427D02*
G01*
X91239013Y-46745122D01*
X91255203Y-46746281D01*
X91271110Y-46747904D01*
X91286734Y-46749991D01*
X91302074Y-46752541D01*
X91317130Y-46755555D01*
X91331904Y-46759033D01*
X91346394Y-46762974D01*
X91360600Y-46767379D01*
X91374524Y-46772247D01*
X91394877Y-46780420D01*
X91414593Y-46789635D01*
X91433672Y-46799894D01*
X91439890Y-46803546D01*
X91458068Y-46814960D01*
X91475370Y-46827082D01*
X91491796Y-46839912D01*
X91507346Y-46853451D01*
X91522021Y-46867699D01*
X91535820Y-46882655D01*
X91548743Y-46898319D01*
X91560790Y-46914692D01*
X91571961Y-46931773D01*
X91582256Y-46949562D01*
X91588633Y-46961815D01*
X91597731Y-46980395D01*
X91606339Y-46999038D01*
X91614458Y-47017747D01*
X91622087Y-47036519D01*
X91629227Y-47055356D01*
X91635877Y-47074258D01*
X91642038Y-47093223D01*
X91647710Y-47112254D01*
X91652892Y-47131348D01*
X91657584Y-47150507D01*
X91660441Y-47163316D01*
X91664435Y-47182565D01*
X91668036Y-47201981D01*
X91671244Y-47221565D01*
X91674059Y-47241317D01*
X91676482Y-47261236D01*
X91678512Y-47281322D01*
X91680148Y-47301576D01*
X91681392Y-47321997D01*
X91682243Y-47342586D01*
X91682702Y-47363342D01*
X91682789Y-47377272D01*
X91682631Y-47394603D01*
X91682155Y-47411789D01*
X91681363Y-47428832D01*
X91680253Y-47445731D01*
X91678827Y-47462486D01*
X91677083Y-47479097D01*
X91675023Y-47495565D01*
X91672645Y-47511888D01*
X91669951Y-47528068D01*
X91666940Y-47544104D01*
X91663611Y-47559996D01*
X91659966Y-47575744D01*
X91656003Y-47591349D01*
X91651724Y-47606809D01*
X91647128Y-47622126D01*
X91642214Y-47637299D01*
X91636984Y-47652328D01*
X91631437Y-47667214D01*
X91625572Y-47681955D01*
X91619391Y-47696553D01*
X91612893Y-47711007D01*
X91606077Y-47725317D01*
X91598945Y-47739483D01*
X91591496Y-47753505D01*
X91583729Y-47767384D01*
X91575646Y-47781119D01*
X91567246Y-47794710D01*
X91558529Y-47808157D01*
X91549494Y-47821460D01*
X91540143Y-47834619D01*
X91530475Y-47847635D01*
X91520490Y-47860507D01*
X91507083Y-47876600D01*
X91493515Y-47892183D01*
X91479786Y-47907255D01*
X91465896Y-47921816D01*
X91451845Y-47935865D01*
X91437633Y-47949404D01*
X91423260Y-47962433D01*
X91408726Y-47974950D01*
X91394031Y-47986956D01*
X91379175Y-47998451D01*
X91364158Y-48009436D01*
X91348980Y-48019910D01*
X91333641Y-48029872D01*
X91318141Y-48039324D01*
X91302480Y-48048265D01*
X91286658Y-48056695D01*
X91270675Y-48064614D01*
X91254531Y-48072022D01*
X91238226Y-48078919D01*
X91221760Y-48085306D01*
X91205133Y-48091181D01*
X91188345Y-48096546D01*
X91171396Y-48101399D01*
X91154286Y-48105742D01*
X91137015Y-48109574D01*
X91119583Y-48112895D01*
X91101990Y-48115704D01*
X91084236Y-48118004D01*
X91066321Y-48119792D01*
X91048245Y-48121069D01*
X91030008Y-48121835D01*
X91011610Y-48122091D01*
X90991048Y-48121759D01*
X90971265Y-48120764D01*
X90952262Y-48119106D01*
X90934038Y-48116784D01*
X90916593Y-48113799D01*
X90899927Y-48110151D01*
X90884041Y-48105839D01*
X90868934Y-48100865D01*
X90854606Y-48095226D01*
X90841057Y-48088925D01*
X90832458Y-48084355D01*
X90816658Y-48074469D01*
X90802965Y-48063862D01*
X90791379Y-48052533D01*
X90781899Y-48040483D01*
X90774526Y-48027712D01*
X90768272Y-48010734D01*
X90765310Y-47992628D01*
X90765047Y-47985071D01*
X90766154Y-47968898D01*
X90769477Y-47953626D01*
X90775016Y-47939256D01*
X90782769Y-47925788D01*
X90792739Y-47913222D01*
X90796554Y-47909233D01*
X90808820Y-47898401D01*
X90821988Y-47889810D01*
X90836057Y-47883460D01*
X90851028Y-47879352D01*
X90866900Y-47877484D01*
X90872391Y-47877359D01*
X90888493Y-47879657D01*
X90904053Y-47883355D01*
X90918547Y-47887271D01*
X90932475Y-47891281D01*
X90946661Y-47895186D01*
X90961842Y-47898999D01*
X90977014Y-47902242D01*
X90992502Y-47904506D01*
X90999153Y-47904837D01*
X91019854Y-47904347D01*
X91040283Y-47902879D01*
X91060441Y-47900432D01*
X91080326Y-47897006D01*
X91099939Y-47892601D01*
X91119281Y-47887217D01*
X91138350Y-47880854D01*
X91157148Y-47873513D01*
X91175674Y-47865192D01*
X91193928Y-47855893D01*
X91211909Y-47845615D01*
X91229619Y-47834357D01*
X91247057Y-47822121D01*
X91264224Y-47808907D01*
X91281118Y-47794713D01*
X91297740Y-47779540D01*
X91313852Y-47763565D01*
X91329213Y-47747054D01*
X91343825Y-47730008D01*
X91357687Y-47712427D01*
X91370798Y-47694310D01*
X91383160Y-47675659D01*
X91394772Y-47656472D01*
X91405635Y-47636750D01*
X91415747Y-47616492D01*
X91425109Y-47595700D01*
X91433722Y-47574372D01*
X91441584Y-47552509D01*
X91448697Y-47530111D01*
X91455059Y-47507177D01*
X91460672Y-47483708D01*
X91465535Y-47459704D01*
X91448100Y-47477583D01*
X91430599Y-47494308D01*
X91413032Y-47509880D01*
X91395399Y-47524299D01*
X91377701Y-47537564D01*
X91359936Y-47549675D01*
X91342106Y-47560633D01*
X91324210Y-47570438D01*
X91306248Y-47579089D01*
X91288221Y-47586586D01*
X91270127Y-47592931D01*
X91251968Y-47598121D01*
X91233742Y-47602158D01*
X91215451Y-47605042D01*
X91197095Y-47606772D01*
X91178672Y-47607349D01*
X91157979Y-47606855D01*
X91137668Y-47605374D01*
X91117737Y-47602905D01*
X91098186Y-47599449D01*
X91079016Y-47595006D01*
X91060227Y-47589575D01*
X91041819Y-47583156D01*
X91023791Y-47575750D01*
X91006144Y-47567357D01*
X90988878Y-47557976D01*
X90971992Y-47547607D01*
X90955487Y-47536251D01*
X90939363Y-47523908D01*
X90923619Y-47510577D01*
X90908256Y-47496259D01*
X90893274Y-47480953D01*
X90878989Y-47464902D01*
X90865625Y-47448439D01*
X90853183Y-47431563D01*
X90841663Y-47414275D01*
X90831064Y-47396575D01*
X90821387Y-47378463D01*
X90812631Y-47359939D01*
X90804797Y-47341002D01*
X90797885Y-47321654D01*
X90791894Y-47301893D01*
X90786825Y-47281720D01*
X90782678Y-47261135D01*
X90779452Y-47240138D01*
X90777148Y-47218728D01*
X90775766Y-47196907D01*
X90775351Y-47176871D01*
X90986331Y-47176871D01*
X90986849Y-47193675D01*
X90988404Y-47210016D01*
X90990996Y-47225892D01*
X90994625Y-47241305D01*
X90999291Y-47256255D01*
X91004994Y-47270740D01*
X91011733Y-47284762D01*
X91019509Y-47298321D01*
X91028323Y-47311415D01*
X91038173Y-47324046D01*
X91045315Y-47332209D01*
X91056682Y-47343667D01*
X91068525Y-47353998D01*
X91080845Y-47363202D01*
X91093641Y-47371279D01*
X91106914Y-47378229D01*
X91120663Y-47384051D01*
X91134889Y-47388747D01*
X91149592Y-47392316D01*
X91164771Y-47394758D01*
X91180426Y-47396073D01*
X91191128Y-47396323D01*
X91208050Y-47395533D01*
X91225109Y-47393163D01*
X91242305Y-47389213D01*
X91259638Y-47383684D01*
X91277109Y-47376574D01*
X91294718Y-47367884D01*
X91308014Y-47360330D01*
X91321388Y-47351887D01*
X91330347Y-47345765D01*
X91343550Y-47335978D01*
X91356231Y-47325715D01*
X91368391Y-47314975D01*
X91380029Y-47303759D01*
X91391146Y-47292066D01*
X91401740Y-47279897D01*
X91411814Y-47267251D01*
X91421365Y-47254128D01*
X91430395Y-47240529D01*
X91438904Y-47226453D01*
X91444286Y-47216805D01*
X91441259Y-47199969D01*
X91437949Y-47183717D01*
X91434355Y-47168050D01*
X91430479Y-47152966D01*
X91426318Y-47138466D01*
X91419547Y-47117811D01*
X91412138Y-47098469D01*
X91404091Y-47080441D01*
X91395406Y-47063727D01*
X91386084Y-47048327D01*
X91376125Y-47034241D01*
X91365528Y-47021468D01*
X91361854Y-47017503D01*
X91350405Y-47006372D01*
X91338176Y-46996336D01*
X91325169Y-46987396D01*
X91311382Y-46979550D01*
X91296815Y-46972798D01*
X91281470Y-46967142D01*
X91265345Y-46962580D01*
X91248441Y-46959113D01*
X91230758Y-46956741D01*
X91212296Y-46955464D01*
X91199555Y-46955221D01*
X91181309Y-46955742D01*
X91163804Y-46957307D01*
X91147040Y-46959915D01*
X91131016Y-46963567D01*
X91115733Y-46968262D01*
X91101190Y-46974000D01*
X91087388Y-46980781D01*
X91074327Y-46988606D01*
X91062006Y-46997473D01*
X91050426Y-47007385D01*
X91043117Y-47014572D01*
X91032969Y-47026021D01*
X91023819Y-47038249D01*
X91015667Y-47051257D01*
X91008513Y-47065044D01*
X91002357Y-47079610D01*
X90997200Y-47094956D01*
X90993041Y-47111080D01*
X90989880Y-47127984D01*
X90987717Y-47145667D01*
X90986552Y-47164130D01*
X90986331Y-47176871D01*
X90775351Y-47176871D01*
X90775305Y-47174673D01*
X90775750Y-47150961D01*
X90777085Y-47127818D01*
X90779310Y-47105245D01*
X90782426Y-47083242D01*
X90786432Y-47061808D01*
X90791328Y-47040944D01*
X90797113Y-47020650D01*
X90803790Y-47000925D01*
X90811356Y-46981769D01*
X90819812Y-46963183D01*
X90829159Y-46945167D01*
X90839396Y-46927720D01*
X90850523Y-46910843D01*
X90862540Y-46894536D01*
X90875447Y-46878798D01*
X90889244Y-46863630D01*
X90903833Y-46849167D01*
X90919114Y-46835637D01*
X90935088Y-46823040D01*
X90951755Y-46811377D01*
X90969114Y-46800646D01*
X90987166Y-46790849D01*
X91005911Y-46781985D01*
X91025348Y-46774053D01*
X91045478Y-46767055D01*
X91066301Y-46760990D01*
X91087816Y-46755858D01*
X91110024Y-46751659D01*
X91132925Y-46748394D01*
X91156518Y-46746061D01*
X91180804Y-46744661D01*
X91205783Y-46744195D01*
X91222540Y-46744427D01*
G37*
G36*
X92460666Y-46744863D02*
G01*
X92487394Y-46746868D01*
X92513285Y-46750210D01*
X92538341Y-46754888D01*
X92562561Y-46760903D01*
X92585946Y-46768255D01*
X92608494Y-46776943D01*
X92630207Y-46786968D01*
X92651084Y-46798329D01*
X92671125Y-46811028D01*
X92690331Y-46825063D01*
X92708701Y-46840434D01*
X92726235Y-46857142D01*
X92742933Y-46875187D01*
X92758795Y-46894569D01*
X92773822Y-46915287D01*
X92788019Y-46936925D01*
X92801299Y-46959159D01*
X92813664Y-46981988D01*
X92825113Y-47005413D01*
X92835646Y-47029432D01*
X92845263Y-47054047D01*
X92853964Y-47079258D01*
X92861749Y-47105064D01*
X92868619Y-47131465D01*
X92874572Y-47158461D01*
X92879610Y-47186053D01*
X92883731Y-47214240D01*
X92886937Y-47243023D01*
X92888196Y-47257637D01*
X92889227Y-47272400D01*
X92890028Y-47287313D01*
X92890601Y-47302374D01*
X92890944Y-47317584D01*
X92891058Y-47332942D01*
X92891058Y-47533343D01*
X92890872Y-47553017D01*
X92890314Y-47572470D01*
X92889384Y-47591703D01*
X92888082Y-47610715D01*
X92886407Y-47629507D01*
X92884361Y-47648078D01*
X92881942Y-47666430D01*
X92879152Y-47684560D01*
X92875989Y-47702471D01*
X92872454Y-47720161D01*
X92868547Y-47737630D01*
X92864268Y-47754879D01*
X92859617Y-47771908D01*
X92854594Y-47788717D01*
X92849198Y-47805305D01*
X92843431Y-47821672D01*
X92837292Y-47837711D01*
X92830689Y-47853403D01*
X92823622Y-47868749D01*
X92816091Y-47883748D01*
X92808097Y-47898401D01*
X92799639Y-47912708D01*
X92790718Y-47926668D01*
X92781332Y-47940283D01*
X92771483Y-47953550D01*
X92761171Y-47966472D01*
X92750395Y-47979047D01*
X92739155Y-47991276D01*
X92727451Y-48003158D01*
X92715284Y-48014695D01*
X92702653Y-48025884D01*
X92689558Y-48036728D01*
X92676063Y-48047065D01*
X92662230Y-48056735D01*
X92648059Y-48065738D01*
X92633550Y-48074074D01*
X92618704Y-48081744D01*
X92603520Y-48088746D01*
X92587998Y-48095081D01*
X92572138Y-48100750D01*
X92555941Y-48105752D01*
X92539406Y-48110087D01*
X92522533Y-48113755D01*
X92505323Y-48116756D01*
X92487774Y-48119090D01*
X92469888Y-48120757D01*
X92451665Y-48121757D01*
X92433103Y-48122091D01*
X92405539Y-48121424D01*
X92378807Y-48119423D01*
X92352908Y-48116089D01*
X92327842Y-48111420D01*
X92303609Y-48105418D01*
X92280209Y-48098083D01*
X92257642Y-48089413D01*
X92235908Y-48079409D01*
X92215006Y-48068072D01*
X92194938Y-48055401D01*
X92175702Y-48041396D01*
X92157300Y-48026058D01*
X92139730Y-48009385D01*
X92122993Y-47991379D01*
X92107089Y-47972039D01*
X92092018Y-47951365D01*
X92077866Y-47929682D01*
X92064627Y-47907407D01*
X92052300Y-47884539D01*
X92040887Y-47861079D01*
X92030387Y-47837027D01*
X92020800Y-47812381D01*
X92012126Y-47787144D01*
X92004365Y-47761314D01*
X91997517Y-47734891D01*
X91991583Y-47707876D01*
X91986561Y-47680268D01*
X91982452Y-47652068D01*
X91979257Y-47623276D01*
X91978001Y-47608657D01*
X91976974Y-47593891D01*
X91976175Y-47578976D01*
X91975604Y-47563913D01*
X91975262Y-47548702D01*
X91975259Y-47548364D01*
X92186174Y-47548364D01*
X92186437Y-47568672D01*
X92187227Y-47588470D01*
X92188544Y-47607758D01*
X92190387Y-47626537D01*
X92192757Y-47644807D01*
X92195653Y-47662567D01*
X92199077Y-47679818D01*
X92203026Y-47696559D01*
X92207503Y-47712790D01*
X92212506Y-47728513D01*
X92218036Y-47743725D01*
X92224092Y-47758428D01*
X92230675Y-47772622D01*
X92237785Y-47786307D01*
X92245422Y-47799481D01*
X92253585Y-47812147D01*
X92262229Y-47824125D01*
X92275838Y-47840644D01*
X92290221Y-47855423D01*
X92305377Y-47868464D01*
X92321305Y-47879767D01*
X92338006Y-47889330D01*
X92355480Y-47897155D01*
X92373726Y-47903240D01*
X92392746Y-47907587D01*
X92412538Y-47910196D01*
X92433103Y-47911065D01*
X92453665Y-47910196D01*
X92473448Y-47907587D01*
X92492451Y-47903240D01*
X92510675Y-47897155D01*
X92528120Y-47889330D01*
X92544786Y-47879767D01*
X92560672Y-47868464D01*
X92575779Y-47855423D01*
X92590107Y-47840644D01*
X92603656Y-47824125D01*
X92612255Y-47812147D01*
X92620463Y-47799481D01*
X92628141Y-47786307D01*
X92635289Y-47772622D01*
X92641908Y-47758428D01*
X92647997Y-47743725D01*
X92653557Y-47728513D01*
X92658587Y-47712790D01*
X92663088Y-47696559D01*
X92667060Y-47679818D01*
X92670501Y-47662567D01*
X92673414Y-47644807D01*
X92675797Y-47626537D01*
X92677650Y-47607758D01*
X92678974Y-47588470D01*
X92679768Y-47568672D01*
X92680033Y-47548364D01*
X92680033Y-47318288D01*
X92679768Y-47297980D01*
X92678974Y-47278182D01*
X92677650Y-47258894D01*
X92675797Y-47240115D01*
X92673414Y-47221845D01*
X92670501Y-47204085D01*
X92667060Y-47186834D01*
X92663088Y-47170093D01*
X92658587Y-47153862D01*
X92653557Y-47138139D01*
X92647997Y-47122927D01*
X92641908Y-47108224D01*
X92635289Y-47094030D01*
X92628141Y-47080345D01*
X92620463Y-47067171D01*
X92612255Y-47054505D01*
X92603656Y-47042483D01*
X92590107Y-47025903D01*
X92575779Y-47011068D01*
X92560672Y-46997979D01*
X92544786Y-46986635D01*
X92528120Y-46977036D01*
X92510675Y-46969183D01*
X92492451Y-46963074D01*
X92473448Y-46958711D01*
X92453665Y-46956093D01*
X92433103Y-46955221D01*
X92412538Y-46956093D01*
X92392746Y-46958711D01*
X92373726Y-46963074D01*
X92355480Y-46969183D01*
X92338006Y-46977036D01*
X92321305Y-46986635D01*
X92305377Y-46997979D01*
X92290221Y-47011068D01*
X92275838Y-47025903D01*
X92262229Y-47042483D01*
X92253585Y-47054505D01*
X92245422Y-47067171D01*
X92237785Y-47080345D01*
X92230675Y-47094030D01*
X92224092Y-47108224D01*
X92218036Y-47122927D01*
X92212506Y-47138139D01*
X92207503Y-47153862D01*
X92203026Y-47170093D01*
X92199077Y-47186834D01*
X92195653Y-47204085D01*
X92192757Y-47221845D01*
X92190387Y-47240115D01*
X92188544Y-47258894D01*
X92187227Y-47278182D01*
X92186437Y-47297980D01*
X92186174Y-47318288D01*
X92186174Y-47548364D01*
X91975259Y-47548364D01*
X91975148Y-47533343D01*
X91975148Y-47332942D01*
X91975332Y-47313270D01*
X91975886Y-47293821D01*
X91976809Y-47274596D01*
X91978102Y-47255594D01*
X91979763Y-47236815D01*
X91981794Y-47218259D01*
X91984194Y-47199926D01*
X91986963Y-47181817D01*
X91990101Y-47163931D01*
X91993609Y-47146268D01*
X91997486Y-47128829D01*
X92001732Y-47111612D01*
X92006347Y-47094619D01*
X92011332Y-47077850D01*
X92016686Y-47061303D01*
X92022409Y-47044980D01*
X92028593Y-47028941D01*
X92035237Y-47013249D01*
X92042343Y-46997903D01*
X92049909Y-46982904D01*
X92057936Y-46968251D01*
X92066424Y-46953944D01*
X92075373Y-46939984D01*
X92084782Y-46926369D01*
X92094653Y-46913102D01*
X92104984Y-46900180D01*
X92115776Y-46887605D01*
X92127029Y-46875376D01*
X92138742Y-46863494D01*
X92150917Y-46851957D01*
X92163552Y-46840768D01*
X92176648Y-46829924D01*
X92190144Y-46819543D01*
X92203977Y-46809831D01*
X92218147Y-46800789D01*
X92232656Y-46792418D01*
X92247502Y-46784715D01*
X92262687Y-46777683D01*
X92278208Y-46771320D01*
X92294068Y-46765627D01*
X92310265Y-46760604D01*
X92326800Y-46756250D01*
X92343673Y-46752567D01*
X92360884Y-46749553D01*
X92378432Y-46747209D01*
X92396318Y-46745534D01*
X92414542Y-46744530D01*
X92433103Y-46744195D01*
X92460666Y-46744863D01*
G37*
G36*
X93719494Y-46744863D02*
G01*
X93746221Y-46746868D01*
X93772113Y-46750210D01*
X93797169Y-46754888D01*
X93821389Y-46760903D01*
X93844773Y-46768255D01*
X93867322Y-46776943D01*
X93889035Y-46786968D01*
X93909912Y-46798329D01*
X93929953Y-46811028D01*
X93949159Y-46825063D01*
X93967528Y-46840434D01*
X93985062Y-46857142D01*
X94001760Y-46875187D01*
X94017623Y-46894569D01*
X94032650Y-46915287D01*
X94046846Y-46936925D01*
X94060127Y-46959159D01*
X94072492Y-46981988D01*
X94083941Y-47005413D01*
X94094474Y-47029432D01*
X94104091Y-47054047D01*
X94112792Y-47079258D01*
X94120577Y-47105064D01*
X94127446Y-47131465D01*
X94133400Y-47158461D01*
X94138437Y-47186053D01*
X94142559Y-47214240D01*
X94145765Y-47243023D01*
X94147024Y-47257637D01*
X94148054Y-47272400D01*
X94148856Y-47287313D01*
X94149428Y-47302374D01*
X94149772Y-47317584D01*
X94149886Y-47332942D01*
X94149886Y-47533343D01*
X94149700Y-47553017D01*
X94149142Y-47572470D01*
X94148212Y-47591703D01*
X94146909Y-47610715D01*
X94145235Y-47629507D01*
X94143189Y-47648078D01*
X94140770Y-47666430D01*
X94137979Y-47684560D01*
X94134817Y-47702471D01*
X94131282Y-47720161D01*
X94127375Y-47737630D01*
X94123096Y-47754879D01*
X94118445Y-47771908D01*
X94113421Y-47788717D01*
X94108026Y-47805305D01*
X94102259Y-47821672D01*
X94096119Y-47837711D01*
X94089516Y-47853403D01*
X94082449Y-47868749D01*
X94074919Y-47883748D01*
X94066925Y-47898401D01*
X94058467Y-47912708D01*
X94049545Y-47926668D01*
X94040160Y-47940283D01*
X94030311Y-47953550D01*
X94019999Y-47966472D01*
X94009222Y-47979047D01*
X93997982Y-47991276D01*
X93986279Y-48003158D01*
X93974111Y-48014695D01*
X93961480Y-48025884D01*
X93948386Y-48036728D01*
X93934890Y-48047065D01*
X93921057Y-48056735D01*
X93906886Y-48065738D01*
X93892378Y-48074074D01*
X93877531Y-48081744D01*
X93862347Y-48088746D01*
X93846826Y-48095081D01*
X93830966Y-48100750D01*
X93814769Y-48105752D01*
X93798234Y-48110087D01*
X93781361Y-48113755D01*
X93764150Y-48116756D01*
X93746602Y-48119090D01*
X93728716Y-48120757D01*
X93710492Y-48121757D01*
X93691931Y-48122091D01*
X93664366Y-48121424D01*
X93637634Y-48119423D01*
X93611736Y-48116089D01*
X93586670Y-48111420D01*
X93562437Y-48105418D01*
X93539037Y-48098083D01*
X93516469Y-48089413D01*
X93494735Y-48079409D01*
X93473834Y-48068072D01*
X93453765Y-48055401D01*
X93434530Y-48041396D01*
X93416127Y-48026058D01*
X93398557Y-48009385D01*
X93381821Y-47991379D01*
X93365917Y-47972039D01*
X93350846Y-47951365D01*
X93336693Y-47929682D01*
X93323454Y-47907407D01*
X93311128Y-47884539D01*
X93299715Y-47861079D01*
X93289215Y-47837027D01*
X93279628Y-47812381D01*
X93270954Y-47787144D01*
X93263193Y-47761314D01*
X93256345Y-47734891D01*
X93250410Y-47707876D01*
X93245389Y-47680268D01*
X93241280Y-47652068D01*
X93238084Y-47623276D01*
X93236829Y-47608657D01*
X93235802Y-47593891D01*
X93235003Y-47578976D01*
X93234432Y-47563913D01*
X93234090Y-47548702D01*
X93234087Y-47548364D01*
X93445001Y-47548364D01*
X93445265Y-47568672D01*
X93446055Y-47588470D01*
X93447371Y-47607758D01*
X93449214Y-47626537D01*
X93451584Y-47644807D01*
X93454481Y-47662567D01*
X93457904Y-47679818D01*
X93461854Y-47696559D01*
X93466331Y-47712790D01*
X93471334Y-47728513D01*
X93476863Y-47743725D01*
X93482920Y-47758428D01*
X93489503Y-47772622D01*
X93496613Y-47786307D01*
X93504249Y-47799481D01*
X93512412Y-47812147D01*
X93521056Y-47824125D01*
X93534666Y-47840644D01*
X93549049Y-47855423D01*
X93564204Y-47868464D01*
X93580132Y-47879767D01*
X93596833Y-47889330D01*
X93614307Y-47897155D01*
X93632554Y-47903240D01*
X93651573Y-47907587D01*
X93671366Y-47910196D01*
X93691931Y-47911065D01*
X93712493Y-47910196D01*
X93732275Y-47907587D01*
X93751279Y-47903240D01*
X93769503Y-47897155D01*
X93786948Y-47889330D01*
X93803613Y-47879767D01*
X93819500Y-47868464D01*
X93834607Y-47855423D01*
X93848935Y-47840644D01*
X93862483Y-47824125D01*
X93871083Y-47812147D01*
X93879290Y-47799481D01*
X93886968Y-47786307D01*
X93894117Y-47772622D01*
X93900736Y-47758428D01*
X93906825Y-47743725D01*
X93912385Y-47728513D01*
X93917415Y-47712790D01*
X93921916Y-47696559D01*
X93925887Y-47679818D01*
X93929329Y-47662567D01*
X93932241Y-47644807D01*
X93934624Y-47626537D01*
X93936477Y-47607758D01*
X93937801Y-47588470D01*
X93938596Y-47568672D01*
X93938860Y-47548364D01*
X93938860Y-47318288D01*
X93938596Y-47297980D01*
X93937801Y-47278182D01*
X93936477Y-47258894D01*
X93934624Y-47240115D01*
X93932241Y-47221845D01*
X93929329Y-47204085D01*
X93925887Y-47186834D01*
X93921916Y-47170093D01*
X93917415Y-47153862D01*
X93912385Y-47138139D01*
X93906825Y-47122927D01*
X93900736Y-47108224D01*
X93894117Y-47094030D01*
X93886968Y-47080345D01*
X93879290Y-47067171D01*
X93871083Y-47054505D01*
X93862483Y-47042483D01*
X93848935Y-47025903D01*
X93834607Y-47011068D01*
X93819500Y-46997979D01*
X93803613Y-46986635D01*
X93786948Y-46977036D01*
X93769503Y-46969183D01*
X93751279Y-46963074D01*
X93732275Y-46958711D01*
X93712493Y-46956093D01*
X93691931Y-46955221D01*
X93671366Y-46956093D01*
X93651573Y-46958711D01*
X93632554Y-46963074D01*
X93614307Y-46969183D01*
X93596833Y-46977036D01*
X93580132Y-46986635D01*
X93564204Y-46997979D01*
X93549049Y-47011068D01*
X93534666Y-47025903D01*
X93521056Y-47042483D01*
X93512412Y-47054505D01*
X93504249Y-47067171D01*
X93496613Y-47080345D01*
X93489503Y-47094030D01*
X93482920Y-47108224D01*
X93476863Y-47122927D01*
X93471334Y-47138139D01*
X93466331Y-47153862D01*
X93461854Y-47170093D01*
X93457904Y-47186834D01*
X93454481Y-47204085D01*
X93451584Y-47221845D01*
X93449214Y-47240115D01*
X93447371Y-47258894D01*
X93446055Y-47278182D01*
X93445265Y-47297980D01*
X93445001Y-47318288D01*
X93445001Y-47548364D01*
X93234087Y-47548364D01*
X93233975Y-47533343D01*
X93233975Y-47332942D01*
X93234160Y-47313270D01*
X93234714Y-47293821D01*
X93235637Y-47274596D01*
X93236929Y-47255594D01*
X93238591Y-47236815D01*
X93240622Y-47218259D01*
X93243021Y-47199926D01*
X93245791Y-47181817D01*
X93248929Y-47163931D01*
X93252437Y-47146268D01*
X93256314Y-47128829D01*
X93260560Y-47111612D01*
X93265175Y-47094619D01*
X93270160Y-47077850D01*
X93275513Y-47061303D01*
X93281236Y-47044980D01*
X93287420Y-47028941D01*
X93294065Y-47013249D01*
X93301170Y-46997903D01*
X93308737Y-46982904D01*
X93316764Y-46968251D01*
X93325252Y-46953944D01*
X93334200Y-46939984D01*
X93343610Y-46926369D01*
X93353480Y-46913102D01*
X93363811Y-46900180D01*
X93374603Y-46887605D01*
X93385856Y-46875376D01*
X93397570Y-46863494D01*
X93409744Y-46851957D01*
X93422380Y-46840768D01*
X93435476Y-46829924D01*
X93448971Y-46819543D01*
X93462804Y-46809831D01*
X93476975Y-46800789D01*
X93491484Y-46792418D01*
X93506330Y-46784715D01*
X93521514Y-46777683D01*
X93537036Y-46771320D01*
X93552896Y-46765627D01*
X93569093Y-46760604D01*
X93585628Y-46756250D01*
X93602501Y-46752567D01*
X93619711Y-46749553D01*
X93637259Y-46747209D01*
X93655146Y-46745534D01*
X93673369Y-46744530D01*
X93691931Y-46744195D01*
X93719494Y-46744863D01*
G37*
G36*
X96528323Y-47879558D02*
G01*
X96544683Y-47879907D01*
X96560059Y-47880954D01*
X96577894Y-47883246D01*
X96594191Y-47886629D01*
X96608950Y-47891103D01*
X96624629Y-47897912D01*
X96631638Y-47901906D01*
X96643839Y-47911527D01*
X96653516Y-47923905D01*
X96660669Y-47939039D01*
X96664701Y-47953756D01*
X96666980Y-47970387D01*
X96667541Y-47985071D01*
X96666318Y-48003927D01*
X96662647Y-48020928D01*
X96656529Y-48036075D01*
X96647964Y-48049368D01*
X96636951Y-48060805D01*
X96623492Y-48070388D01*
X96607585Y-48078116D01*
X96589231Y-48083989D01*
X96568430Y-48088008D01*
X96553203Y-48089656D01*
X96536888Y-48090480D01*
X96528323Y-48090584D01*
X95890849Y-48090584D01*
X95873991Y-48090171D01*
X95858220Y-48088935D01*
X95843537Y-48086874D01*
X95823551Y-48082237D01*
X95806013Y-48075746D01*
X95790922Y-48067400D01*
X95778278Y-48057199D01*
X95768081Y-48045143D01*
X95760332Y-48031232D01*
X95755030Y-48015467D01*
X95752175Y-47997848D01*
X95751631Y-47985071D01*
X95752192Y-47970387D01*
X95754471Y-47953756D01*
X95758503Y-47939039D01*
X95765656Y-47923905D01*
X95775333Y-47911527D01*
X95787534Y-47901906D01*
X95802106Y-47894311D01*
X95815941Y-47889182D01*
X95831315Y-47885145D01*
X95848227Y-47882198D01*
X95862864Y-47880627D01*
X95878486Y-47879754D01*
X95890849Y-47879558D01*
X96104073Y-47879558D01*
X96104073Y-47071358D01*
X95890849Y-47071358D01*
X95873991Y-47070946D01*
X95858220Y-47069709D01*
X95843537Y-47067649D01*
X95823551Y-47063012D01*
X95806013Y-47056520D01*
X95790922Y-47048174D01*
X95778278Y-47037973D01*
X95768081Y-47025917D01*
X95760332Y-47012007D01*
X95755030Y-46996242D01*
X95752175Y-46978622D01*
X95751631Y-46965845D01*
X95752192Y-46951162D01*
X95754471Y-46934531D01*
X95758503Y-46919814D01*
X95765656Y-46904680D01*
X95775333Y-46892302D01*
X95787534Y-46882680D01*
X95802106Y-46875086D01*
X95815941Y-46869957D01*
X95831315Y-46865919D01*
X95848227Y-46862973D01*
X95862864Y-46861402D01*
X95878486Y-46860529D01*
X95890849Y-46860332D01*
X96528323Y-46860332D01*
X96544683Y-46860681D01*
X96560059Y-46861729D01*
X96577894Y-46864021D01*
X96594191Y-46867403D01*
X96608950Y-46871877D01*
X96624629Y-46878687D01*
X96631638Y-46882680D01*
X96643839Y-46892302D01*
X96653516Y-46904680D01*
X96660669Y-46919814D01*
X96664701Y-46934531D01*
X96666980Y-46951162D01*
X96667541Y-46965845D01*
X96666318Y-46984701D01*
X96662647Y-47001703D01*
X96656529Y-47016850D01*
X96647964Y-47030142D01*
X96636951Y-47041580D01*
X96623492Y-47051162D01*
X96607585Y-47058890D01*
X96589231Y-47064764D01*
X96568430Y-47068782D01*
X96553203Y-47070431D01*
X96536888Y-47071255D01*
X96528323Y-47071358D01*
X96315099Y-47071358D01*
X96315099Y-47879558D01*
X96528323Y-47879558D01*
G37*
G36*
X97597008Y-47985071D02*
G01*
X97597569Y-47970387D01*
X97599848Y-47953756D01*
X97603880Y-47939039D01*
X97611032Y-47923905D01*
X97620710Y-47911527D01*
X97632911Y-47901906D01*
X97647496Y-47894311D01*
X97661361Y-47889182D01*
X97676783Y-47885145D01*
X97693762Y-47882198D01*
X97708465Y-47880627D01*
X97724164Y-47879754D01*
X97736592Y-47879558D01*
X97810232Y-47879558D01*
X97810232Y-47269561D01*
X97576125Y-47801522D01*
X97384150Y-47801522D01*
X97135022Y-47271759D01*
X97135022Y-47879558D01*
X97209028Y-47879558D01*
X97225886Y-47879907D01*
X97241657Y-47880954D01*
X97256340Y-47882700D01*
X97273165Y-47885865D01*
X97288290Y-47890121D01*
X97304197Y-47896668D01*
X97313442Y-47901906D01*
X97325270Y-47911527D01*
X97334651Y-47923905D01*
X97341584Y-47939039D01*
X97345493Y-47953756D01*
X97347702Y-47970387D01*
X97348246Y-47985071D01*
X97347023Y-48003927D01*
X97343352Y-48020928D01*
X97337234Y-48036075D01*
X97328669Y-48049368D01*
X97317656Y-48060805D01*
X97304197Y-48070388D01*
X97288290Y-48078116D01*
X97269936Y-48083989D01*
X97249135Y-48088008D01*
X97233908Y-48089656D01*
X97217593Y-48090480D01*
X97209028Y-48090584D01*
X96936453Y-48090584D01*
X96919372Y-48090171D01*
X96903394Y-48088935D01*
X96888518Y-48086874D01*
X96868269Y-48082237D01*
X96850500Y-48075746D01*
X96835211Y-48067400D01*
X96822400Y-48057199D01*
X96812070Y-48045143D01*
X96804218Y-48031232D01*
X96798846Y-48015467D01*
X96795953Y-47997848D01*
X96795403Y-47985071D01*
X96796533Y-47966214D01*
X96799923Y-47949213D01*
X96805574Y-47934066D01*
X96813486Y-47920774D01*
X96823658Y-47909336D01*
X96836090Y-47899754D01*
X96850783Y-47892026D01*
X96867737Y-47886152D01*
X96886950Y-47882134D01*
X96908424Y-47879970D01*
X96923996Y-47879558D01*
X96923996Y-47073556D01*
X96904354Y-47070804D01*
X96886644Y-47066532D01*
X96870866Y-47060741D01*
X96857020Y-47053429D01*
X96845106Y-47044598D01*
X96832226Y-47030458D01*
X96822781Y-47013617D01*
X96817951Y-46999213D01*
X96815053Y-46983289D01*
X96814087Y-46965845D01*
X96815130Y-46950419D01*
X96818260Y-46935740D01*
X96823477Y-46921808D01*
X96830780Y-46908624D01*
X96840169Y-46896186D01*
X96843763Y-46892206D01*
X96856372Y-46881374D01*
X96869143Y-46874059D01*
X96883971Y-46868301D01*
X96900856Y-46864099D01*
X96915846Y-46861857D01*
X96932152Y-46860612D01*
X96945245Y-46860332D01*
X97183382Y-46860332D01*
X97474642Y-47489013D01*
X97759673Y-46860332D01*
X97991582Y-46860332D01*
X98008485Y-46860744D01*
X98024297Y-46861981D01*
X98039019Y-46864042D01*
X98059057Y-46868679D01*
X98076641Y-46875170D01*
X98091772Y-46883516D01*
X98104449Y-46893717D01*
X98114673Y-46905773D01*
X98122443Y-46919683D01*
X98127759Y-46935448D01*
X98130621Y-46953068D01*
X98131167Y-46965845D01*
X98130201Y-46982896D01*
X98127303Y-46998466D01*
X98122473Y-47012554D01*
X98113027Y-47029035D01*
X98100147Y-47042883D01*
X98088233Y-47051540D01*
X98074387Y-47058716D01*
X98058609Y-47064411D01*
X98040899Y-47068625D01*
X98021257Y-47071358D01*
X98021257Y-47879558D01*
X98036829Y-47879970D01*
X98058303Y-47882134D01*
X98077517Y-47886152D01*
X98094470Y-47892026D01*
X98109163Y-47899754D01*
X98121596Y-47909336D01*
X98131768Y-47920774D01*
X98139679Y-47934066D01*
X98145330Y-47949213D01*
X98148721Y-47966214D01*
X98149851Y-47985071D01*
X98148628Y-48003927D01*
X98144957Y-48020928D01*
X98138839Y-48036075D01*
X98130274Y-48049368D01*
X98119261Y-48060805D01*
X98105802Y-48070388D01*
X98089895Y-48078116D01*
X98071541Y-48083989D01*
X98050740Y-48088008D01*
X98035513Y-48089656D01*
X98019198Y-48090480D01*
X98010633Y-48090584D01*
X97736592Y-48090584D01*
X97719689Y-48090171D01*
X97703877Y-48088935D01*
X97689155Y-48086874D01*
X97669117Y-48082237D01*
X97651533Y-48075746D01*
X97636402Y-48067400D01*
X97623725Y-48057199D01*
X97613501Y-48045143D01*
X97605732Y-48031232D01*
X97600415Y-48015467D01*
X97597553Y-47997848D01*
X97597008Y-47985071D01*
G37*
G36*
X99210476Y-47657907D02*
G01*
X99209915Y-47683211D01*
X99208232Y-47707922D01*
X99205427Y-47732040D01*
X99201500Y-47755566D01*
X99196451Y-47778500D01*
X99190280Y-47800841D01*
X99182987Y-47822589D01*
X99174572Y-47843746D01*
X99165035Y-47864309D01*
X99154376Y-47884280D01*
X99142595Y-47903659D01*
X99129692Y-47922445D01*
X99115668Y-47940639D01*
X99100521Y-47958240D01*
X99084252Y-47975249D01*
X99066861Y-47991665D01*
X99048747Y-48007237D01*
X99030219Y-48021804D01*
X99011275Y-48035367D01*
X98991917Y-48047925D01*
X98972143Y-48059478D01*
X98951954Y-48070027D01*
X98931351Y-48079571D01*
X98910332Y-48088111D01*
X98888898Y-48095645D01*
X98867049Y-48102175D01*
X98844786Y-48107701D01*
X98822107Y-48112222D01*
X98799013Y-48115738D01*
X98775504Y-48118250D01*
X98751580Y-48119757D01*
X98727241Y-48120259D01*
X98702901Y-48119748D01*
X98678973Y-48118215D01*
X98655457Y-48115661D01*
X98632353Y-48112085D01*
X98609661Y-48107486D01*
X98587382Y-48101866D01*
X98565514Y-48095225D01*
X98544059Y-48087561D01*
X98523016Y-48078876D01*
X98502385Y-48069168D01*
X98482167Y-48058439D01*
X98462360Y-48046688D01*
X98442966Y-48033916D01*
X98423983Y-48020121D01*
X98405413Y-48005305D01*
X98387255Y-47989467D01*
X98369909Y-47972802D01*
X98353681Y-47955595D01*
X98338573Y-47937848D01*
X98324584Y-47919560D01*
X98311714Y-47900731D01*
X98299963Y-47881361D01*
X98289332Y-47861450D01*
X98279819Y-47840998D01*
X98271425Y-47820005D01*
X98264151Y-47798471D01*
X98257996Y-47776396D01*
X98252960Y-47753780D01*
X98249043Y-47730623D01*
X98246245Y-47706926D01*
X98244566Y-47682687D01*
X98244007Y-47657907D01*
X98244007Y-47071358D01*
X98228435Y-47070431D01*
X98213868Y-47068748D01*
X98193900Y-47064806D01*
X98176194Y-47059165D01*
X98160747Y-47051823D01*
X98147561Y-47042782D01*
X98136636Y-47032040D01*
X98127971Y-47019598D01*
X98121566Y-47005455D01*
X98117422Y-46989613D01*
X98115539Y-46972071D01*
X98115413Y-46965845D01*
X98115968Y-46951162D01*
X98118224Y-46934531D01*
X98122215Y-46919814D01*
X98129295Y-46904680D01*
X98138873Y-46892302D01*
X98150950Y-46882680D01*
X98165535Y-46875086D01*
X98179400Y-46869957D01*
X98194822Y-46865919D01*
X98211801Y-46862973D01*
X98226504Y-46861402D01*
X98242203Y-46860529D01*
X98254631Y-46860332D01*
X98529038Y-46860332D01*
X98545399Y-46860664D01*
X98560775Y-46861660D01*
X98578610Y-46863839D01*
X98594907Y-46867056D01*
X98609665Y-46871310D01*
X98625344Y-46877784D01*
X98632353Y-46881581D01*
X98644555Y-46890907D01*
X98654232Y-46903220D01*
X98661384Y-46918521D01*
X98665417Y-46933555D01*
X98667696Y-46950664D01*
X98668257Y-46965845D01*
X98667033Y-46984701D01*
X98663362Y-47001703D01*
X98657244Y-47016850D01*
X98648679Y-47030142D01*
X98637667Y-47041580D01*
X98624207Y-47051162D01*
X98608300Y-47058890D01*
X98589946Y-47064764D01*
X98569145Y-47068782D01*
X98553918Y-47070431D01*
X98537603Y-47071255D01*
X98529038Y-47071358D01*
X98455033Y-47071358D01*
X98455033Y-47676958D01*
X98455738Y-47694904D01*
X98457853Y-47712335D01*
X98461379Y-47729251D01*
X98466316Y-47745652D01*
X98472662Y-47761537D01*
X98480419Y-47776907D01*
X98489586Y-47791762D01*
X98500164Y-47806102D01*
X98512152Y-47819926D01*
X98525551Y-47833235D01*
X98535266Y-47841822D01*
X98550587Y-47853869D01*
X98566462Y-47864731D01*
X98582890Y-47874409D01*
X98599872Y-47882901D01*
X98617409Y-47890208D01*
X98635499Y-47896330D01*
X98654142Y-47901268D01*
X98673340Y-47905020D01*
X98693091Y-47907587D01*
X98713397Y-47908970D01*
X98727241Y-47909233D01*
X98747916Y-47908641D01*
X98768037Y-47906863D01*
X98787603Y-47903901D01*
X98806616Y-47899754D01*
X98825076Y-47894421D01*
X98842981Y-47887904D01*
X98860332Y-47880202D01*
X98877130Y-47871314D01*
X98893374Y-47861242D01*
X98909064Y-47849985D01*
X98919216Y-47841822D01*
X98933555Y-47828856D01*
X98946483Y-47815375D01*
X98958001Y-47801379D01*
X98968109Y-47786868D01*
X98976806Y-47771841D01*
X98984093Y-47756299D01*
X98989969Y-47740242D01*
X98994435Y-47723670D01*
X98997491Y-47706582D01*
X98999137Y-47688980D01*
X98999450Y-47676958D01*
X98999450Y-47071358D01*
X98925444Y-47071358D01*
X98908586Y-47070946D01*
X98892815Y-47069709D01*
X98878132Y-47067649D01*
X98858146Y-47063012D01*
X98840608Y-47056520D01*
X98825517Y-47048174D01*
X98812873Y-47037973D01*
X98802677Y-47025917D01*
X98794927Y-47012007D01*
X98789625Y-46996242D01*
X98786770Y-46978622D01*
X98786226Y-46965845D01*
X98786787Y-46951162D01*
X98789066Y-46934531D01*
X98793098Y-46919814D01*
X98800251Y-46904680D01*
X98809928Y-46892302D01*
X98822130Y-46882680D01*
X98836701Y-46875086D01*
X98850536Y-46869957D01*
X98865910Y-46865919D01*
X98882822Y-46862973D01*
X98897460Y-46861402D01*
X98913082Y-46860529D01*
X98925444Y-46860332D01*
X99199851Y-46860332D01*
X99216710Y-46860681D01*
X99232481Y-46861729D01*
X99247164Y-46863475D01*
X99263988Y-46866640D01*
X99279113Y-46870895D01*
X99295020Y-46877443D01*
X99304265Y-46882680D01*
X99316093Y-46892302D01*
X99325474Y-46904680D01*
X99332408Y-46919814D01*
X99336317Y-46934531D01*
X99338526Y-46951162D01*
X99339070Y-46965845D01*
X99337939Y-46984701D01*
X99334549Y-47001703D01*
X99328898Y-47016850D01*
X99320986Y-47030142D01*
X99310814Y-47041580D01*
X99298382Y-47051162D01*
X99283689Y-47058890D01*
X99266736Y-47064764D01*
X99247522Y-47068782D01*
X99226048Y-47070946D01*
X99210476Y-47071358D01*
X99210476Y-47657907D01*
G37*
G36*
X101373490Y-47985071D02*
G01*
X101374051Y-47970387D01*
X101376330Y-47953756D01*
X101380363Y-47939039D01*
X101387515Y-47923905D01*
X101397192Y-47911527D01*
X101409394Y-47901906D01*
X101423979Y-47894311D01*
X101437844Y-47889182D01*
X101453266Y-47885145D01*
X101470245Y-47882198D01*
X101484948Y-47880627D01*
X101500647Y-47879754D01*
X101513075Y-47879558D01*
X101586714Y-47879558D01*
X101586714Y-47269561D01*
X101352608Y-47801522D01*
X101160633Y-47801522D01*
X100911505Y-47271759D01*
X100911505Y-47879558D01*
X100985511Y-47879558D01*
X101002369Y-47879907D01*
X101018140Y-47880954D01*
X101032823Y-47882700D01*
X101049648Y-47885865D01*
X101064773Y-47890121D01*
X101080680Y-47896668D01*
X101089924Y-47901906D01*
X101101753Y-47911527D01*
X101111134Y-47923905D01*
X101118067Y-47939039D01*
X101121976Y-47953756D01*
X101124185Y-47970387D01*
X101124729Y-47985071D01*
X101123505Y-48003927D01*
X101119835Y-48020928D01*
X101113717Y-48036075D01*
X101105152Y-48049368D01*
X101094139Y-48060805D01*
X101080680Y-48070388D01*
X101064773Y-48078116D01*
X101046419Y-48083989D01*
X101025618Y-48088008D01*
X101010391Y-48089656D01*
X100994076Y-48090480D01*
X100985511Y-48090584D01*
X100712936Y-48090584D01*
X100695855Y-48090171D01*
X100679877Y-48088935D01*
X100665001Y-48086874D01*
X100644752Y-48082237D01*
X100626983Y-48075746D01*
X100611694Y-48067400D01*
X100598883Y-48057199D01*
X100588552Y-48045143D01*
X100580701Y-48031232D01*
X100575329Y-48015467D01*
X100572436Y-47997848D01*
X100571885Y-47985071D01*
X100573016Y-47966214D01*
X100576406Y-47949213D01*
X100582057Y-47934066D01*
X100589969Y-47920774D01*
X100600141Y-47909336D01*
X100612573Y-47899754D01*
X100627266Y-47892026D01*
X100644219Y-47886152D01*
X100663433Y-47882134D01*
X100684907Y-47879970D01*
X100700479Y-47879558D01*
X100700479Y-47073556D01*
X100680837Y-47070804D01*
X100663127Y-47066532D01*
X100647349Y-47060741D01*
X100633503Y-47053429D01*
X100621589Y-47044598D01*
X100608709Y-47030458D01*
X100599264Y-47013617D01*
X100594434Y-46999213D01*
X100591536Y-46983289D01*
X100590570Y-46965845D01*
X100591613Y-46950419D01*
X100594743Y-46935740D01*
X100599959Y-46921808D01*
X100607262Y-46908624D01*
X100616652Y-46896186D01*
X100620245Y-46892206D01*
X100632855Y-46881374D01*
X100645626Y-46874059D01*
X100660454Y-46868301D01*
X100677339Y-46864099D01*
X100692329Y-46861857D01*
X100708635Y-46860612D01*
X100721728Y-46860332D01*
X100959865Y-46860332D01*
X101251125Y-47489013D01*
X101536156Y-46860332D01*
X101768065Y-46860332D01*
X101784968Y-46860744D01*
X101800780Y-46861981D01*
X101815502Y-46864042D01*
X101835540Y-46868679D01*
X101853124Y-46875170D01*
X101868255Y-46883516D01*
X101880932Y-46893717D01*
X101891156Y-46905773D01*
X101898925Y-46919683D01*
X101904242Y-46935448D01*
X101907104Y-46953068D01*
X101907650Y-46965845D01*
X101906684Y-46982896D01*
X101903786Y-46998466D01*
X101898956Y-47012554D01*
X101889510Y-47029035D01*
X101876630Y-47042883D01*
X101864716Y-47051540D01*
X101850870Y-47058716D01*
X101835092Y-47064411D01*
X101817382Y-47068625D01*
X101797740Y-47071358D01*
X101797740Y-47879558D01*
X101813312Y-47879970D01*
X101834786Y-47882134D01*
X101854000Y-47886152D01*
X101870953Y-47892026D01*
X101885646Y-47899754D01*
X101898079Y-47909336D01*
X101908251Y-47920774D01*
X101916162Y-47934066D01*
X101921813Y-47949213D01*
X101925204Y-47966214D01*
X101926334Y-47985071D01*
X101925111Y-48003927D01*
X101921440Y-48020928D01*
X101915322Y-48036075D01*
X101906757Y-48049368D01*
X101895744Y-48060805D01*
X101882285Y-48070388D01*
X101866378Y-48078116D01*
X101848024Y-48083989D01*
X101827223Y-48088008D01*
X101811996Y-48089656D01*
X101795681Y-48090480D01*
X101787116Y-48090584D01*
X101513075Y-48090584D01*
X101496172Y-48090171D01*
X101480360Y-48088935D01*
X101465638Y-48086874D01*
X101445600Y-48082237D01*
X101428016Y-48075746D01*
X101412885Y-48067400D01*
X101400208Y-48057199D01*
X101389984Y-48045143D01*
X101382214Y-48031232D01*
X101376898Y-48015467D01*
X101374036Y-47997848D01*
X101373490Y-47985071D01*
G37*
G36*
X102353881Y-46860332D02*
G01*
X102370740Y-46860744D01*
X102386511Y-46861981D01*
X102401194Y-46864042D01*
X102421179Y-46868679D01*
X102438717Y-46875170D01*
X102453809Y-46883516D01*
X102466452Y-46893717D01*
X102476649Y-46905773D01*
X102484398Y-46919683D01*
X102489701Y-46935448D01*
X102492556Y-46953068D01*
X102493100Y-46965845D01*
X102491876Y-46984701D01*
X102488205Y-47001703D01*
X102482087Y-47016850D01*
X102473522Y-47030142D01*
X102462510Y-47041580D01*
X102449050Y-47051162D01*
X102433143Y-47058890D01*
X102414789Y-47064764D01*
X102393988Y-47068782D01*
X102378761Y-47070431D01*
X102362446Y-47071255D01*
X102353881Y-47071358D01*
X102279876Y-47071358D01*
X102279876Y-47385699D01*
X102655765Y-47062932D01*
X102640395Y-47055919D01*
X102627074Y-47047522D01*
X102615803Y-47037738D01*
X102604596Y-47023562D01*
X102596590Y-47007220D01*
X102592492Y-46992588D01*
X102590442Y-46976571D01*
X102590186Y-46968043D01*
X102591410Y-46948794D01*
X102595081Y-46931438D01*
X102601199Y-46915976D01*
X102609764Y-46902407D01*
X102620776Y-46890731D01*
X102634236Y-46880949D01*
X102650143Y-46873060D01*
X102668497Y-46867064D01*
X102689298Y-46862962D01*
X102704525Y-46861279D01*
X102720839Y-46860437D01*
X102729405Y-46860332D01*
X102940430Y-46860332D01*
X102957289Y-46860744D01*
X102973060Y-46861981D01*
X102987743Y-46864042D01*
X103007728Y-46868679D01*
X103025267Y-46875170D01*
X103040358Y-46883516D01*
X103053002Y-46893717D01*
X103063198Y-46905773D01*
X103070948Y-46919683D01*
X103076250Y-46935448D01*
X103079105Y-46953068D01*
X103079649Y-46965845D01*
X103078499Y-46984701D01*
X103075051Y-47001703D01*
X103069303Y-47016850D01*
X103061256Y-47030142D01*
X103050910Y-47041580D01*
X103038265Y-47051162D01*
X103023321Y-47058890D01*
X103006078Y-47064764D01*
X102986536Y-47068782D01*
X102964695Y-47070946D01*
X102948857Y-47071358D01*
X102577730Y-47394125D01*
X102603079Y-47408644D01*
X102615600Y-47416694D01*
X102628019Y-47425272D01*
X102640336Y-47434377D01*
X102652550Y-47444009D01*
X102664662Y-47454169D01*
X102676671Y-47464856D01*
X102688578Y-47476071D01*
X102700383Y-47487813D01*
X102712086Y-47500082D01*
X102723686Y-47512879D01*
X102735184Y-47526203D01*
X102746579Y-47540054D01*
X102757873Y-47554433D01*
X102769064Y-47569339D01*
X102780152Y-47584772D01*
X102791138Y-47600733D01*
X102802022Y-47617221D01*
X102812804Y-47634237D01*
X102823483Y-47651780D01*
X102834060Y-47669850D01*
X102844535Y-47688448D01*
X102854907Y-47707573D01*
X102865177Y-47727225D01*
X102875345Y-47747405D01*
X102885410Y-47768112D01*
X102895373Y-47789346D01*
X102905234Y-47811108D01*
X102914992Y-47833397D01*
X102924648Y-47856214D01*
X102934202Y-47879558D01*
X103001613Y-47879558D01*
X103018516Y-47879970D01*
X103034328Y-47881206D01*
X103049050Y-47883267D01*
X103069088Y-47887904D01*
X103086673Y-47894395D01*
X103101804Y-47902742D01*
X103114481Y-47912943D01*
X103124704Y-47924998D01*
X103132474Y-47938909D01*
X103137790Y-47954674D01*
X103140653Y-47972294D01*
X103141198Y-47985071D01*
X103139971Y-48003927D01*
X103136291Y-48020928D01*
X103130157Y-48036075D01*
X103121569Y-48049368D01*
X103110528Y-48060805D01*
X103097033Y-48070388D01*
X103081084Y-48078116D01*
X103062682Y-48083989D01*
X103041826Y-48088008D01*
X103026559Y-48089656D01*
X103010201Y-48090480D01*
X103001613Y-48090584D01*
X102769705Y-48090584D01*
X102765058Y-48076557D01*
X102755635Y-48048974D01*
X102746041Y-48022017D01*
X102736275Y-47995688D01*
X102726338Y-47969985D01*
X102716228Y-47944909D01*
X102705947Y-47920460D01*
X102695494Y-47896638D01*
X102684870Y-47873442D01*
X102674074Y-47850874D01*
X102663106Y-47828932D01*
X102651966Y-47807617D01*
X102640654Y-47786929D01*
X102629171Y-47766867D01*
X102617516Y-47747433D01*
X102605689Y-47728625D01*
X102599712Y-47719456D01*
X102587709Y-47701684D01*
X102575698Y-47684818D01*
X102563678Y-47668860D01*
X102551649Y-47653809D01*
X102539612Y-47639665D01*
X102527567Y-47626429D01*
X102515512Y-47614100D01*
X102503449Y-47602678D01*
X102491378Y-47592164D01*
X102479298Y-47582556D01*
X102467209Y-47573857D01*
X102449060Y-47562508D01*
X102430892Y-47553202D01*
X102412705Y-47545936D01*
X102406638Y-47543968D01*
X102279876Y-47651679D01*
X102279876Y-47879558D01*
X102353881Y-47879558D01*
X102370740Y-47879970D01*
X102386511Y-47881206D01*
X102401194Y-47883267D01*
X102421179Y-47887904D01*
X102438717Y-47894395D01*
X102453809Y-47902742D01*
X102466452Y-47912943D01*
X102476649Y-47924998D01*
X102484398Y-47938909D01*
X102489701Y-47954674D01*
X102492556Y-47972294D01*
X102493100Y-47985071D01*
X102491876Y-48003927D01*
X102488205Y-48020928D01*
X102482087Y-48036075D01*
X102473522Y-48049368D01*
X102462510Y-48060805D01*
X102449050Y-48070388D01*
X102433143Y-48078116D01*
X102414789Y-48083989D01*
X102393988Y-48088008D01*
X102378761Y-48089656D01*
X102362446Y-48090480D01*
X102353881Y-48090584D01*
X102037342Y-48090584D01*
X102020484Y-48090171D01*
X102004713Y-48088935D01*
X101990030Y-48086874D01*
X101970045Y-48082237D01*
X101952506Y-48075746D01*
X101937415Y-48067400D01*
X101924771Y-48057199D01*
X101914575Y-48045143D01*
X101906825Y-48031232D01*
X101901523Y-48015467D01*
X101898668Y-47997848D01*
X101898124Y-47985071D01*
X101899348Y-47966214D01*
X101903018Y-47949213D01*
X101909136Y-47934066D01*
X101917702Y-47920774D01*
X101928714Y-47909336D01*
X101942174Y-47899754D01*
X101958080Y-47892026D01*
X101976434Y-47886152D01*
X101997236Y-47882134D01*
X102012463Y-47880485D01*
X102028777Y-47879661D01*
X102037342Y-47879558D01*
X102068850Y-47879558D01*
X102068850Y-47071358D01*
X102037342Y-47071358D01*
X102020484Y-47070946D01*
X102004713Y-47069709D01*
X101990030Y-47067649D01*
X101970045Y-47063012D01*
X101952506Y-47056520D01*
X101937415Y-47048174D01*
X101924771Y-47037973D01*
X101914575Y-47025917D01*
X101906825Y-47012007D01*
X101901523Y-46996242D01*
X101898668Y-46978622D01*
X101898124Y-46965845D01*
X101898685Y-46951162D01*
X101900964Y-46934531D01*
X101904996Y-46919814D01*
X101912149Y-46904680D01*
X101921826Y-46892302D01*
X101934028Y-46882680D01*
X101948599Y-46875086D01*
X101962435Y-46869957D01*
X101977808Y-46865919D01*
X101994720Y-46862973D01*
X102009358Y-46861402D01*
X102024980Y-46860529D01*
X102037342Y-46860332D01*
X102353881Y-46860332D01*
G37*
G36*
X103304597Y-47985071D02*
G01*
X103305157Y-47970387D01*
X103307437Y-47953756D01*
X103311469Y-47939039D01*
X103318621Y-47923905D01*
X103328299Y-47911527D01*
X103340500Y-47901906D01*
X103355072Y-47894311D01*
X103368907Y-47889182D01*
X103384281Y-47885145D01*
X103401193Y-47882198D01*
X103415830Y-47880627D01*
X103431452Y-47879754D01*
X103443815Y-47879558D01*
X103657039Y-47879558D01*
X103657039Y-46976470D01*
X103484115Y-47098835D01*
X103471364Y-47108173D01*
X103457015Y-47115579D01*
X103441070Y-47121053D01*
X103426562Y-47124139D01*
X103410945Y-47125883D01*
X103397653Y-47126313D01*
X103382401Y-47125208D01*
X103368061Y-47121895D01*
X103352788Y-47115403D01*
X103340401Y-47107357D01*
X103335371Y-47103232D01*
X103325093Y-47092272D01*
X103316438Y-47078030D01*
X103311569Y-47064065D01*
X103309225Y-47048698D01*
X103308993Y-47041683D01*
X103309909Y-47025563D01*
X103312657Y-47010908D01*
X103317937Y-46996173D01*
X103323647Y-46985995D01*
X103333571Y-46973193D01*
X103345215Y-46961423D01*
X103357582Y-46950824D01*
X103369801Y-46941516D01*
X103374206Y-46938368D01*
X103659237Y-46744195D01*
X103868065Y-46744195D01*
X103868065Y-47879558D01*
X104081289Y-47879558D01*
X104098147Y-47879970D01*
X104113918Y-47881206D01*
X104128601Y-47883267D01*
X104148587Y-47887904D01*
X104166125Y-47894395D01*
X104181216Y-47902742D01*
X104193860Y-47912943D01*
X104204057Y-47924998D01*
X104211806Y-47938909D01*
X104217108Y-47954674D01*
X104219963Y-47972294D01*
X104220507Y-47985071D01*
X104219284Y-48003927D01*
X104215613Y-48020928D01*
X104209495Y-48036075D01*
X104200930Y-48049368D01*
X104189917Y-48060805D01*
X104176458Y-48070388D01*
X104160551Y-48078116D01*
X104142197Y-48083989D01*
X104121396Y-48088008D01*
X104106169Y-48089656D01*
X104089854Y-48090480D01*
X104081289Y-48090584D01*
X103443815Y-48090584D01*
X103426956Y-48090171D01*
X103411186Y-48088935D01*
X103396502Y-48086874D01*
X103376517Y-48082237D01*
X103358979Y-48075746D01*
X103343888Y-48067400D01*
X103331244Y-48057199D01*
X103321047Y-48045143D01*
X103313298Y-48031232D01*
X103307995Y-48015467D01*
X103305140Y-47997848D01*
X103304597Y-47985071D01*
G37*
G36*
X105040430Y-48122091D02*
G01*
X105002329Y-48122091D01*
X104984958Y-48121089D01*
X104968340Y-48118084D01*
X104952472Y-48113075D01*
X104937356Y-48106062D01*
X104922991Y-48097046D01*
X104909378Y-48086027D01*
X104904143Y-48081058D01*
X104892322Y-48067851D01*
X104882505Y-48053874D01*
X104874691Y-48039128D01*
X104868880Y-48023613D01*
X104865074Y-48007329D01*
X104863270Y-47990276D01*
X104863110Y-47983239D01*
X104864112Y-47965772D01*
X104867117Y-47949092D01*
X104872126Y-47933200D01*
X104879139Y-47918095D01*
X104888155Y-47903776D01*
X104899174Y-47890245D01*
X104904143Y-47885053D01*
X104917456Y-47873127D01*
X104931520Y-47863222D01*
X104946336Y-47855338D01*
X104961903Y-47849476D01*
X104978221Y-47845635D01*
X104995290Y-47843816D01*
X105002329Y-47843654D01*
X105040430Y-47843654D01*
X105058398Y-47844638D01*
X105075435Y-47847590D01*
X105091543Y-47852509D01*
X105106719Y-47859396D01*
X105120966Y-47868251D01*
X105134283Y-47879074D01*
X105139349Y-47883954D01*
X105150959Y-47896907D01*
X105160601Y-47910809D01*
X105168275Y-47925658D01*
X105173982Y-47941456D01*
X105177720Y-47958202D01*
X105179491Y-47975896D01*
X105179649Y-47983239D01*
X105178665Y-48001206D01*
X105175713Y-48018244D01*
X105170794Y-48034351D01*
X105163907Y-48049528D01*
X105155052Y-48063775D01*
X105144229Y-48077091D01*
X105139349Y-48082157D01*
X105126404Y-48093661D01*
X105112530Y-48103216D01*
X105097725Y-48110820D01*
X105081990Y-48116475D01*
X105065325Y-48120180D01*
X105047729Y-48121935D01*
X105040430Y-48122091D01*
G37*
G36*
X105822252Y-47985071D02*
G01*
X105822813Y-47970387D01*
X105825092Y-47953756D01*
X105829124Y-47939039D01*
X105836277Y-47923905D01*
X105845954Y-47911527D01*
X105858155Y-47901906D01*
X105872727Y-47894311D01*
X105886562Y-47889182D01*
X105901936Y-47885145D01*
X105918848Y-47882198D01*
X105933486Y-47880627D01*
X105949108Y-47879754D01*
X105961470Y-47879558D01*
X106174694Y-47879558D01*
X106174694Y-46976470D01*
X106001770Y-47098835D01*
X105989019Y-47108173D01*
X105974671Y-47115579D01*
X105958725Y-47121053D01*
X105944217Y-47124139D01*
X105928600Y-47125883D01*
X105915308Y-47126313D01*
X105900056Y-47125208D01*
X105885716Y-47121895D01*
X105870443Y-47115403D01*
X105858056Y-47107357D01*
X105853026Y-47103232D01*
X105842748Y-47092272D01*
X105834093Y-47078030D01*
X105829224Y-47064065D01*
X105826880Y-47048698D01*
X105826648Y-47041683D01*
X105827564Y-47025563D01*
X105830312Y-47010908D01*
X105835593Y-46996173D01*
X105841303Y-46985995D01*
X105851227Y-46973193D01*
X105862870Y-46961423D01*
X105875237Y-46950824D01*
X105887456Y-46941516D01*
X105891861Y-46938368D01*
X106176892Y-46744195D01*
X106385720Y-46744195D01*
X106385720Y-47879558D01*
X106598944Y-47879558D01*
X106615803Y-47879970D01*
X106631573Y-47881206D01*
X106646257Y-47883267D01*
X106666242Y-47887904D01*
X106683780Y-47894395D01*
X106698871Y-47902742D01*
X106711515Y-47912943D01*
X106721712Y-47924998D01*
X106729461Y-47938909D01*
X106734764Y-47954674D01*
X106737619Y-47972294D01*
X106738162Y-47985071D01*
X106736939Y-48003927D01*
X106733268Y-48020928D01*
X106727150Y-48036075D01*
X106718585Y-48049368D01*
X106707572Y-48060805D01*
X106694113Y-48070388D01*
X106678206Y-48078116D01*
X106659852Y-48083989D01*
X106639051Y-48088008D01*
X106623824Y-48089656D01*
X106607509Y-48090480D01*
X106598944Y-48090584D01*
X105961470Y-48090584D01*
X105944612Y-48090171D01*
X105928841Y-48088935D01*
X105914158Y-48086874D01*
X105894172Y-48082237D01*
X105876634Y-48075746D01*
X105861543Y-48067400D01*
X105848899Y-48057199D01*
X105838702Y-48045143D01*
X105830953Y-48031232D01*
X105825651Y-48015467D01*
X105822796Y-47997848D01*
X105822252Y-47985071D01*
G37*
D11*
X87072100Y-38752262D02*
X87357814Y-38752262D01*
X87357814Y-38752262D02*
X87500671Y-38823691D01*
X87500671Y-38823691D02*
X87643528Y-38966548D01*
X87643528Y-38966548D02*
X87714957Y-39252262D01*
X87714957Y-39252262D02*
X87714957Y-39752262D01*
X87714957Y-39752262D02*
X87643528Y-40037976D01*
X87643528Y-40037976D02*
X87500671Y-40180834D01*
X87500671Y-40180834D02*
X87357814Y-40252262D01*
X87357814Y-40252262D02*
X87072100Y-40252262D01*
X87072100Y-40252262D02*
X86929243Y-40180834D01*
X86929243Y-40180834D02*
X86786385Y-40037976D01*
X86786385Y-40037976D02*
X86714957Y-39752262D01*
X86714957Y-39752262D02*
X86714957Y-39252262D01*
X86714957Y-39252262D02*
X86786385Y-38966548D01*
X86786385Y-38966548D02*
X86929243Y-38823691D01*
X86929243Y-38823691D02*
X87072100Y-38752262D01*
X89500671Y-40252262D02*
X89500671Y-38752262D01*
X91357814Y-39680834D02*
X92500672Y-39680834D01*
X91929243Y-40252262D02*
X91929243Y-39109405D01*
X95214957Y-40109405D02*
X95143529Y-40180834D01*
X95143529Y-40180834D02*
X94929243Y-40252262D01*
X94929243Y-40252262D02*
X94786386Y-40252262D01*
X94786386Y-40252262D02*
X94572100Y-40180834D01*
X94572100Y-40180834D02*
X94429243Y-40037976D01*
X94429243Y-40037976D02*
X94357814Y-39895119D01*
X94357814Y-39895119D02*
X94286386Y-39609405D01*
X94286386Y-39609405D02*
X94286386Y-39395119D01*
X94286386Y-39395119D02*
X94357814Y-39109405D01*
X94357814Y-39109405D02*
X94429243Y-38966548D01*
X94429243Y-38966548D02*
X94572100Y-38823691D01*
X94572100Y-38823691D02*
X94786386Y-38752262D01*
X94786386Y-38752262D02*
X94929243Y-38752262D01*
X94929243Y-38752262D02*
X95143529Y-38823691D01*
X95143529Y-38823691D02*
X95214957Y-38895119D01*
X97000671Y-40252262D02*
X97000671Y-38752262D01*
X97000671Y-38752262D02*
X97357814Y-38752262D01*
X97357814Y-38752262D02*
X97572100Y-38823691D01*
X97572100Y-38823691D02*
X97714957Y-38966548D01*
X97714957Y-38966548D02*
X97786386Y-39109405D01*
X97786386Y-39109405D02*
X97857814Y-39395119D01*
X97857814Y-39395119D02*
X97857814Y-39609405D01*
X97857814Y-39609405D02*
X97786386Y-39895119D01*
X97786386Y-39895119D02*
X97714957Y-40037976D01*
X97714957Y-40037976D02*
X97572100Y-40180834D01*
X97572100Y-40180834D02*
X97357814Y-40252262D01*
X97357814Y-40252262D02*
X97000671Y-40252262D01*
X100429243Y-38823691D02*
X100286386Y-38752262D01*
X100286386Y-38752262D02*
X100072100Y-38752262D01*
X100072100Y-38752262D02*
X99857814Y-38823691D01*
X99857814Y-38823691D02*
X99714957Y-38966548D01*
X99714957Y-38966548D02*
X99643528Y-39109405D01*
X99643528Y-39109405D02*
X99572100Y-39395119D01*
X99572100Y-39395119D02*
X99572100Y-39609405D01*
X99572100Y-39609405D02*
X99643528Y-39895119D01*
X99643528Y-39895119D02*
X99714957Y-40037976D01*
X99714957Y-40037976D02*
X99857814Y-40180834D01*
X99857814Y-40180834D02*
X100072100Y-40252262D01*
X100072100Y-40252262D02*
X100214957Y-40252262D01*
X100214957Y-40252262D02*
X100429243Y-40180834D01*
X100429243Y-40180834D02*
X100500671Y-40109405D01*
X100500671Y-40109405D02*
X100500671Y-39609405D01*
X100500671Y-39609405D02*
X100214957Y-39609405D01*
X84612566Y-61765086D02*
X83112566Y-61765086D01*
X83112566Y-56193657D02*
X83112566Y-55907943D01*
X83112566Y-55907943D02*
X83183995Y-55765086D01*
X83183995Y-55765086D02*
X83326852Y-55622229D01*
X83326852Y-55622229D02*
X83612566Y-55550800D01*
X83612566Y-55550800D02*
X84112566Y-55550800D01*
X84112566Y-55550800D02*
X84398280Y-55622229D01*
X84398280Y-55622229D02*
X84541138Y-55765086D01*
X84541138Y-55765086D02*
X84612566Y-55907943D01*
X84612566Y-55907943D02*
X84612566Y-56193657D01*
X84612566Y-56193657D02*
X84541138Y-56336515D01*
X84541138Y-56336515D02*
X84398280Y-56479372D01*
X84398280Y-56479372D02*
X84112566Y-56550800D01*
X84112566Y-56550800D02*
X83612566Y-56550800D01*
X83612566Y-56550800D02*
X83326852Y-56479372D01*
X83326852Y-56479372D02*
X83183995Y-56336515D01*
X83183995Y-56336515D02*
X83112566Y-56193657D01*
X99872100Y-69352262D02*
X99014957Y-69352262D01*
X99443528Y-69352262D02*
X99443528Y-67852262D01*
X99443528Y-67852262D02*
X99300671Y-68066548D01*
X99300671Y-68066548D02*
X99157814Y-68209405D01*
X99157814Y-68209405D02*
X99014957Y-68280834D01*
X105014956Y-67995119D02*
X105086384Y-67923691D01*
X105086384Y-67923691D02*
X105229242Y-67852262D01*
X105229242Y-67852262D02*
X105586384Y-67852262D01*
X105586384Y-67852262D02*
X105729242Y-67923691D01*
X105729242Y-67923691D02*
X105800670Y-67995119D01*
X105800670Y-67995119D02*
X105872099Y-68137976D01*
X105872099Y-68137976D02*
X105872099Y-68280834D01*
X105872099Y-68280834D02*
X105800670Y-68495119D01*
X105800670Y-68495119D02*
X104943527Y-69352262D01*
X104943527Y-69352262D02*
X105872099Y-69352262D01*
X112912566Y-59765086D02*
X111412566Y-59765086D01*
X111412566Y-54193657D02*
X111412566Y-53907943D01*
X111412566Y-53907943D02*
X111483995Y-53765086D01*
X111483995Y-53765086D02*
X111626852Y-53622229D01*
X111626852Y-53622229D02*
X111912566Y-53550800D01*
X111912566Y-53550800D02*
X112412566Y-53550800D01*
X112412566Y-53550800D02*
X112698280Y-53622229D01*
X112698280Y-53622229D02*
X112841138Y-53765086D01*
X112841138Y-53765086D02*
X112912566Y-53907943D01*
X112912566Y-53907943D02*
X112912566Y-54193657D01*
X112912566Y-54193657D02*
X112841138Y-54336515D01*
X112841138Y-54336515D02*
X112698280Y-54479372D01*
X112698280Y-54479372D02*
X112412566Y-54550800D01*
X112412566Y-54550800D02*
X111912566Y-54550800D01*
X111912566Y-54550800D02*
X111626852Y-54479372D01*
X111626852Y-54479372D02*
X111483995Y-54336515D01*
X111483995Y-54336515D02*
X111412566Y-54193657D01*
X108341138Y-71665086D02*
X108341138Y-70522229D01*
X108912566Y-71093657D02*
X107769709Y-71093657D01*
X107483995Y-67879371D02*
X107412566Y-68022229D01*
X107412566Y-68022229D02*
X107412566Y-68236514D01*
X107412566Y-68236514D02*
X107483995Y-68450800D01*
X107483995Y-68450800D02*
X107626852Y-68593657D01*
X107626852Y-68593657D02*
X107769709Y-68665086D01*
X107769709Y-68665086D02*
X108055423Y-68736514D01*
X108055423Y-68736514D02*
X108269709Y-68736514D01*
X108269709Y-68736514D02*
X108555423Y-68665086D01*
X108555423Y-68665086D02*
X108698280Y-68593657D01*
X108698280Y-68593657D02*
X108841138Y-68450800D01*
X108841138Y-68450800D02*
X108912566Y-68236514D01*
X108912566Y-68236514D02*
X108912566Y-68093657D01*
X108912566Y-68093657D02*
X108841138Y-67879371D01*
X108841138Y-67879371D02*
X108769709Y-67807943D01*
X108769709Y-67807943D02*
X108269709Y-67807943D01*
X108269709Y-67807943D02*
X108269709Y-68093657D01*
X107412566Y-65736514D02*
X107412566Y-65450800D01*
X107412566Y-65450800D02*
X107483995Y-65307943D01*
X107483995Y-65307943D02*
X107626852Y-65165086D01*
X107626852Y-65165086D02*
X107912566Y-65093657D01*
X107912566Y-65093657D02*
X108412566Y-65093657D01*
X108412566Y-65093657D02*
X108698280Y-65165086D01*
X108698280Y-65165086D02*
X108841138Y-65307943D01*
X108841138Y-65307943D02*
X108912566Y-65450800D01*
X108912566Y-65450800D02*
X108912566Y-65736514D01*
X108912566Y-65736514D02*
X108841138Y-65879372D01*
X108841138Y-65879372D02*
X108698280Y-66022229D01*
X108698280Y-66022229D02*
X108412566Y-66093657D01*
X108412566Y-66093657D02*
X107912566Y-66093657D01*
X107912566Y-66093657D02*
X107626852Y-66022229D01*
X107626852Y-66022229D02*
X107483995Y-65879372D01*
X107483995Y-65879372D02*
X107412566Y-65736514D01*
D12*
X111433333Y-45704819D02*
X111100000Y-45228628D01*
X110861905Y-45704819D02*
X110861905Y-44704819D01*
X110861905Y-44704819D02*
X111242857Y-44704819D01*
X111242857Y-44704819D02*
X111338095Y-44752438D01*
X111338095Y-44752438D02*
X111385714Y-44800057D01*
X111385714Y-44800057D02*
X111433333Y-44895295D01*
X111433333Y-44895295D02*
X111433333Y-45038152D01*
X111433333Y-45038152D02*
X111385714Y-45133390D01*
X111385714Y-45133390D02*
X111338095Y-45181009D01*
X111338095Y-45181009D02*
X111242857Y-45228628D01*
X111242857Y-45228628D02*
X110861905Y-45228628D01*
X112385714Y-45704819D02*
X111814286Y-45704819D01*
X112100000Y-45704819D02*
X112100000Y-44704819D01*
X112100000Y-44704819D02*
X112004762Y-44847676D01*
X112004762Y-44847676D02*
X111909524Y-44942914D01*
X111909524Y-44942914D02*
X111814286Y-44990533D01*
X92360707Y-68321774D02*
X93360707Y-67988441D01*
X93360707Y-67988441D02*
X92360707Y-67655108D01*
X93360707Y-66845584D02*
X93360707Y-67321774D01*
X93360707Y-67321774D02*
X92360707Y-67321774D01*
X92360707Y-66655107D02*
X92360707Y-66083679D01*
X93360707Y-66369393D02*
X92360707Y-66369393D01*
X93455945Y-65988441D02*
X93455945Y-65226536D01*
X93360707Y-64988440D02*
X92360707Y-64988440D01*
X92360707Y-64988440D02*
X92360707Y-64750345D01*
X92360707Y-64750345D02*
X92408326Y-64607488D01*
X92408326Y-64607488D02*
X92503564Y-64512250D01*
X92503564Y-64512250D02*
X92598802Y-64464631D01*
X92598802Y-64464631D02*
X92789278Y-64417012D01*
X92789278Y-64417012D02*
X92932135Y-64417012D01*
X92932135Y-64417012D02*
X93122611Y-64464631D01*
X93122611Y-64464631D02*
X93217849Y-64512250D01*
X93217849Y-64512250D02*
X93313088Y-64607488D01*
X93313088Y-64607488D02*
X93360707Y-64750345D01*
X93360707Y-64750345D02*
X93360707Y-64988440D01*
X92836897Y-63655107D02*
X92884516Y-63512250D01*
X92884516Y-63512250D02*
X92932135Y-63464631D01*
X92932135Y-63464631D02*
X93027373Y-63417012D01*
X93027373Y-63417012D02*
X93170230Y-63417012D01*
X93170230Y-63417012D02*
X93265468Y-63464631D01*
X93265468Y-63464631D02*
X93313088Y-63512250D01*
X93313088Y-63512250D02*
X93360707Y-63607488D01*
X93360707Y-63607488D02*
X93360707Y-63988440D01*
X93360707Y-63988440D02*
X92360707Y-63988440D01*
X92360707Y-63988440D02*
X92360707Y-63655107D01*
X92360707Y-63655107D02*
X92408326Y-63559869D01*
X92408326Y-63559869D02*
X92455945Y-63512250D01*
X92455945Y-63512250D02*
X92551183Y-63464631D01*
X92551183Y-63464631D02*
X92646421Y-63464631D01*
X92646421Y-63464631D02*
X92741659Y-63512250D01*
X92741659Y-63512250D02*
X92789278Y-63559869D01*
X92789278Y-63559869D02*
X92836897Y-63655107D01*
X92836897Y-63655107D02*
X92836897Y-63988440D01*
X92408326Y-62464631D02*
X92360707Y-62559869D01*
X92360707Y-62559869D02*
X92360707Y-62702726D01*
X92360707Y-62702726D02*
X92408326Y-62845583D01*
X92408326Y-62845583D02*
X92503564Y-62940821D01*
X92503564Y-62940821D02*
X92598802Y-62988440D01*
X92598802Y-62988440D02*
X92789278Y-63036059D01*
X92789278Y-63036059D02*
X92932135Y-63036059D01*
X92932135Y-63036059D02*
X93122611Y-62988440D01*
X93122611Y-62988440D02*
X93217849Y-62940821D01*
X93217849Y-62940821D02*
X93313088Y-62845583D01*
X93313088Y-62845583D02*
X93360707Y-62702726D01*
X93360707Y-62702726D02*
X93360707Y-62607488D01*
X93360707Y-62607488D02*
X93313088Y-62464631D01*
X93313088Y-62464631D02*
X93265468Y-62417012D01*
X93265468Y-62417012D02*
X92932135Y-62417012D01*
X92932135Y-62417012D02*
X92932135Y-62607488D01*
X93360707Y-61464631D02*
X93360707Y-62036059D01*
X93360707Y-61750345D02*
X92360707Y-61750345D01*
X92360707Y-61750345D02*
X92503564Y-61845583D01*
X92503564Y-61845583D02*
X92598802Y-61940821D01*
X92598802Y-61940821D02*
X92646421Y-62036059D01*
X112190476Y-51424819D02*
X112380952Y-51424819D01*
X112380952Y-51424819D02*
X112476190Y-51472438D01*
X112476190Y-51472438D02*
X112571428Y-51567676D01*
X112571428Y-51567676D02*
X112619047Y-51758152D01*
X112619047Y-51758152D02*
X112619047Y-52091485D01*
X112619047Y-52091485D02*
X112571428Y-52281961D01*
X112571428Y-52281961D02*
X112476190Y-52377200D01*
X112476190Y-52377200D02*
X112380952Y-52424819D01*
X112380952Y-52424819D02*
X112190476Y-52424819D01*
X112190476Y-52424819D02*
X112095238Y-52377200D01*
X112095238Y-52377200D02*
X112000000Y-52281961D01*
X112000000Y-52281961D02*
X111952381Y-52091485D01*
X111952381Y-52091485D02*
X111952381Y-51758152D01*
X111952381Y-51758152D02*
X112000000Y-51567676D01*
X112000000Y-51567676D02*
X112095238Y-51472438D01*
X112095238Y-51472438D02*
X112190476Y-51424819D01*
X113047619Y-52424819D02*
X113047619Y-51424819D01*
X113047619Y-51424819D02*
X113428571Y-51424819D01*
X113428571Y-51424819D02*
X113523809Y-51472438D01*
X113523809Y-51472438D02*
X113571428Y-51520057D01*
X113571428Y-51520057D02*
X113619047Y-51615295D01*
X113619047Y-51615295D02*
X113619047Y-51758152D01*
X113619047Y-51758152D02*
X113571428Y-51853390D01*
X113571428Y-51853390D02*
X113523809Y-51901009D01*
X113523809Y-51901009D02*
X113428571Y-51948628D01*
X113428571Y-51948628D02*
X113047619Y-51948628D01*
X113904762Y-51424819D02*
X114476190Y-51424819D01*
X114190476Y-52424819D02*
X114190476Y-51424819D01*
X114571429Y-52520057D02*
X115333333Y-52520057D01*
X115571429Y-51901009D02*
X115904762Y-51901009D01*
X116047619Y-52424819D02*
X115571429Y-52424819D01*
X115571429Y-52424819D02*
X115571429Y-51424819D01*
X115571429Y-51424819D02*
X116047619Y-51424819D01*
X116476191Y-52424819D02*
X116476191Y-51424819D01*
X116476191Y-51424819D02*
X117047619Y-52424819D01*
X117047619Y-52424819D02*
X117047619Y-51424819D01*
X118047619Y-52424819D02*
X117476191Y-52424819D01*
X117761905Y-52424819D02*
X117761905Y-51424819D01*
X117761905Y-51424819D02*
X117666667Y-51567676D01*
X117666667Y-51567676D02*
X117571429Y-51662914D01*
X117571429Y-51662914D02*
X117476191Y-51710533D01*
X84161905Y-54424819D02*
X84161905Y-53424819D01*
X84638095Y-54424819D02*
X84638095Y-53424819D01*
X84638095Y-53424819D02*
X85209523Y-54424819D01*
X85209523Y-54424819D02*
X85209523Y-53424819D01*
X85542857Y-53424819D02*
X86114285Y-53424819D01*
X85828571Y-54424819D02*
X85828571Y-53424819D01*
X86209524Y-54520057D02*
X86971428Y-54520057D01*
X87209524Y-53901009D02*
X87542857Y-53901009D01*
X87685714Y-54424819D02*
X87209524Y-54424819D01*
X87209524Y-54424819D02*
X87209524Y-53424819D01*
X87209524Y-53424819D02*
X87685714Y-53424819D01*
X88114286Y-54424819D02*
X88114286Y-53424819D01*
X88114286Y-53424819D02*
X88685714Y-54424819D01*
X88685714Y-54424819D02*
X88685714Y-53424819D01*
X89685714Y-54424819D02*
X89114286Y-54424819D01*
X89400000Y-54424819D02*
X89400000Y-53424819D01*
X89400000Y-53424819D02*
X89304762Y-53567676D01*
X89304762Y-53567676D02*
X89209524Y-53662914D01*
X89209524Y-53662914D02*
X89114286Y-53710533D01*
X99393637Y-54773449D02*
X99060304Y-54297258D01*
X98822209Y-54773449D02*
X98822209Y-53773449D01*
X98822209Y-53773449D02*
X99203161Y-53773449D01*
X99203161Y-53773449D02*
X99298399Y-53821068D01*
X99298399Y-53821068D02*
X99346018Y-53868687D01*
X99346018Y-53868687D02*
X99393637Y-53963925D01*
X99393637Y-53963925D02*
X99393637Y-54106782D01*
X99393637Y-54106782D02*
X99346018Y-54202020D01*
X99346018Y-54202020D02*
X99298399Y-54249639D01*
X99298399Y-54249639D02*
X99203161Y-54297258D01*
X99203161Y-54297258D02*
X98822209Y-54297258D01*
X100250780Y-54106782D02*
X100250780Y-54773449D01*
X100012685Y-53725830D02*
X99774590Y-54440115D01*
X99774590Y-54440115D02*
X100393637Y-54440115D01*
X101633333Y-66989580D02*
X101585714Y-67037200D01*
X101585714Y-67037200D02*
X101442857Y-67084819D01*
X101442857Y-67084819D02*
X101347619Y-67084819D01*
X101347619Y-67084819D02*
X101204762Y-67037200D01*
X101204762Y-67037200D02*
X101109524Y-66941961D01*
X101109524Y-66941961D02*
X101061905Y-66846723D01*
X101061905Y-66846723D02*
X101014286Y-66656247D01*
X101014286Y-66656247D02*
X101014286Y-66513390D01*
X101014286Y-66513390D02*
X101061905Y-66322914D01*
X101061905Y-66322914D02*
X101109524Y-66227676D01*
X101109524Y-66227676D02*
X101204762Y-66132438D01*
X101204762Y-66132438D02*
X101347619Y-66084819D01*
X101347619Y-66084819D02*
X101442857Y-66084819D01*
X101442857Y-66084819D02*
X101585714Y-66132438D01*
X101585714Y-66132438D02*
X101633333Y-66180057D01*
X102585714Y-67084819D02*
X102014286Y-67084819D01*
X102300000Y-67084819D02*
X102300000Y-66084819D01*
X102300000Y-66084819D02*
X102204762Y-66227676D01*
X102204762Y-66227676D02*
X102109524Y-66322914D01*
X102109524Y-66322914D02*
X102014286Y-66370533D01*
X116843983Y-76500403D02*
X116843983Y-75500403D01*
X116843983Y-75976593D02*
X117415411Y-75976593D01*
X117415411Y-76500403D02*
X117415411Y-75500403D01*
X117843983Y-75595641D02*
X117891602Y-75548022D01*
X117891602Y-75548022D02*
X117986840Y-75500403D01*
X117986840Y-75500403D02*
X118224935Y-75500403D01*
X118224935Y-75500403D02*
X118320173Y-75548022D01*
X118320173Y-75548022D02*
X118367792Y-75595641D01*
X118367792Y-75595641D02*
X118415411Y-75690879D01*
X118415411Y-75690879D02*
X118415411Y-75786117D01*
X118415411Y-75786117D02*
X118367792Y-75928974D01*
X118367792Y-75928974D02*
X117796364Y-76500403D01*
X117796364Y-76500403D02*
X118415411Y-76500403D01*
X95860707Y-55083678D02*
X94860707Y-55083678D01*
X94860707Y-55083678D02*
X94860707Y-54845583D01*
X94860707Y-54845583D02*
X94908326Y-54702726D01*
X94908326Y-54702726D02*
X95003564Y-54607488D01*
X95003564Y-54607488D02*
X95098802Y-54559869D01*
X95098802Y-54559869D02*
X95289278Y-54512250D01*
X95289278Y-54512250D02*
X95432135Y-54512250D01*
X95432135Y-54512250D02*
X95622611Y-54559869D01*
X95622611Y-54559869D02*
X95717849Y-54607488D01*
X95717849Y-54607488D02*
X95813088Y-54702726D01*
X95813088Y-54702726D02*
X95860707Y-54845583D01*
X95860707Y-54845583D02*
X95860707Y-55083678D01*
X95860707Y-53559869D02*
X95860707Y-54131297D01*
X95860707Y-53845583D02*
X94860707Y-53845583D01*
X94860707Y-53845583D02*
X95003564Y-53940821D01*
X95003564Y-53940821D02*
X95098802Y-54036059D01*
X95098802Y-54036059D02*
X95146421Y-54131297D01*
X97010707Y-51512250D02*
X96534516Y-51845583D01*
X97010707Y-52083678D02*
X96010707Y-52083678D01*
X96010707Y-52083678D02*
X96010707Y-51702726D01*
X96010707Y-51702726D02*
X96058326Y-51607488D01*
X96058326Y-51607488D02*
X96105945Y-51559869D01*
X96105945Y-51559869D02*
X96201183Y-51512250D01*
X96201183Y-51512250D02*
X96344040Y-51512250D01*
X96344040Y-51512250D02*
X96439278Y-51559869D01*
X96439278Y-51559869D02*
X96486897Y-51607488D01*
X96486897Y-51607488D02*
X96534516Y-51702726D01*
X96534516Y-51702726D02*
X96534516Y-52083678D01*
X96010707Y-50607488D02*
X96010707Y-51083678D01*
X96010707Y-51083678D02*
X96486897Y-51131297D01*
X96486897Y-51131297D02*
X96439278Y-51083678D01*
X96439278Y-51083678D02*
X96391659Y-50988440D01*
X96391659Y-50988440D02*
X96391659Y-50750345D01*
X96391659Y-50750345D02*
X96439278Y-50655107D01*
X96439278Y-50655107D02*
X96486897Y-50607488D01*
X96486897Y-50607488D02*
X96582135Y-50559869D01*
X96582135Y-50559869D02*
X96820230Y-50559869D01*
X96820230Y-50559869D02*
X96915468Y-50607488D01*
X96915468Y-50607488D02*
X96963088Y-50655107D01*
X96963088Y-50655107D02*
X97010707Y-50750345D01*
X97010707Y-50750345D02*
X97010707Y-50988440D01*
X97010707Y-50988440D02*
X96963088Y-51083678D01*
X96963088Y-51083678D02*
X96915468Y-51131297D01*
X99310650Y-73900403D02*
X99310650Y-72900403D01*
X99786840Y-73900403D02*
X99786840Y-72900403D01*
X99786840Y-72900403D02*
X100358268Y-73900403D01*
X100358268Y-73900403D02*
X100358268Y-72900403D01*
X100691602Y-72900403D02*
X101263030Y-72900403D01*
X100977316Y-73900403D02*
X100977316Y-72900403D01*
X101358269Y-73995641D02*
X102120173Y-73995641D01*
X102310650Y-73852784D02*
X102453507Y-73900403D01*
X102453507Y-73900403D02*
X102691602Y-73900403D01*
X102691602Y-73900403D02*
X102786840Y-73852784D01*
X102786840Y-73852784D02*
X102834459Y-73805164D01*
X102834459Y-73805164D02*
X102882078Y-73709926D01*
X102882078Y-73709926D02*
X102882078Y-73614688D01*
X102882078Y-73614688D02*
X102834459Y-73519450D01*
X102834459Y-73519450D02*
X102786840Y-73471831D01*
X102786840Y-73471831D02*
X102691602Y-73424212D01*
X102691602Y-73424212D02*
X102501126Y-73376593D01*
X102501126Y-73376593D02*
X102405888Y-73328974D01*
X102405888Y-73328974D02*
X102358269Y-73281355D01*
X102358269Y-73281355D02*
X102310650Y-73186117D01*
X102310650Y-73186117D02*
X102310650Y-73090879D01*
X102310650Y-73090879D02*
X102358269Y-72995641D01*
X102358269Y-72995641D02*
X102405888Y-72948022D01*
X102405888Y-72948022D02*
X102501126Y-72900403D01*
X102501126Y-72900403D02*
X102739221Y-72900403D01*
X102739221Y-72900403D02*
X102882078Y-72948022D01*
X103310650Y-73376593D02*
X103643983Y-73376593D01*
X103786840Y-73900403D02*
X103310650Y-73900403D01*
X103310650Y-73900403D02*
X103310650Y-72900403D01*
X103310650Y-72900403D02*
X103786840Y-72900403D01*
X104691602Y-73900403D02*
X104215412Y-73900403D01*
X104215412Y-73900403D02*
X104215412Y-72900403D01*
X105548745Y-73900403D02*
X104977317Y-73900403D01*
X105263031Y-73900403D02*
X105263031Y-72900403D01*
X105263031Y-72900403D02*
X105167793Y-73043260D01*
X105167793Y-73043260D02*
X105072555Y-73138498D01*
X105072555Y-73138498D02*
X104977317Y-73186117D01*
X116843983Y-43300403D02*
X116843983Y-42300403D01*
X116843983Y-42776593D02*
X117415411Y-42776593D01*
X117415411Y-43300403D02*
X117415411Y-42300403D01*
X117796364Y-42300403D02*
X118415411Y-42300403D01*
X118415411Y-42300403D02*
X118082078Y-42681355D01*
X118082078Y-42681355D02*
X118224935Y-42681355D01*
X118224935Y-42681355D02*
X118320173Y-42728974D01*
X118320173Y-42728974D02*
X118367792Y-42776593D01*
X118367792Y-42776593D02*
X118415411Y-42871831D01*
X118415411Y-42871831D02*
X118415411Y-43109926D01*
X118415411Y-43109926D02*
X118367792Y-43205164D01*
X118367792Y-43205164D02*
X118320173Y-43252784D01*
X118320173Y-43252784D02*
X118224935Y-43300403D01*
X118224935Y-43300403D02*
X117939221Y-43300403D01*
X117939221Y-43300403D02*
X117843983Y-43252784D01*
X117843983Y-43252784D02*
X117796364Y-43205164D01*
X83643983Y-76500403D02*
X83643983Y-75500403D01*
X83643983Y-75976593D02*
X84215411Y-75976593D01*
X84215411Y-76500403D02*
X84215411Y-75500403D01*
X85215411Y-76500403D02*
X84643983Y-76500403D01*
X84929697Y-76500403D02*
X84929697Y-75500403D01*
X84929697Y-75500403D02*
X84834459Y-75643260D01*
X84834459Y-75643260D02*
X84739221Y-75738498D01*
X84739221Y-75738498D02*
X84643983Y-75786117D01*
X91143983Y-59700403D02*
X91143983Y-60509926D01*
X91143983Y-60509926D02*
X91191602Y-60605164D01*
X91191602Y-60605164D02*
X91239221Y-60652784D01*
X91239221Y-60652784D02*
X91334459Y-60700403D01*
X91334459Y-60700403D02*
X91524935Y-60700403D01*
X91524935Y-60700403D02*
X91620173Y-60652784D01*
X91620173Y-60652784D02*
X91667792Y-60605164D01*
X91667792Y-60605164D02*
X91715411Y-60509926D01*
X91715411Y-60509926D02*
X91715411Y-59700403D01*
X92143983Y-59795641D02*
X92191602Y-59748022D01*
X92191602Y-59748022D02*
X92286840Y-59700403D01*
X92286840Y-59700403D02*
X92524935Y-59700403D01*
X92524935Y-59700403D02*
X92620173Y-59748022D01*
X92620173Y-59748022D02*
X92667792Y-59795641D01*
X92667792Y-59795641D02*
X92715411Y-59890879D01*
X92715411Y-59890879D02*
X92715411Y-59986117D01*
X92715411Y-59986117D02*
X92667792Y-60128974D01*
X92667792Y-60128974D02*
X92096364Y-60700403D01*
X92096364Y-60700403D02*
X92715411Y-60700403D01*
X100638095Y-59954819D02*
X100638095Y-60764342D01*
X100638095Y-60764342D02*
X100685714Y-60859580D01*
X100685714Y-60859580D02*
X100733333Y-60907200D01*
X100733333Y-60907200D02*
X100828571Y-60954819D01*
X100828571Y-60954819D02*
X101019047Y-60954819D01*
X101019047Y-60954819D02*
X101114285Y-60907200D01*
X101114285Y-60907200D02*
X101161904Y-60859580D01*
X101161904Y-60859580D02*
X101209523Y-60764342D01*
X101209523Y-60764342D02*
X101209523Y-59954819D01*
X102209523Y-60954819D02*
X101638095Y-60954819D01*
X101923809Y-60954819D02*
X101923809Y-59954819D01*
X101923809Y-59954819D02*
X101828571Y-60097676D01*
X101828571Y-60097676D02*
X101733333Y-60192914D01*
X101733333Y-60192914D02*
X101638095Y-60240533D01*
X99317200Y-58954819D02*
X99317200Y-59192914D01*
X99079105Y-59097676D02*
X99317200Y-59192914D01*
X99317200Y-59192914D02*
X99555295Y-59097676D01*
X99174343Y-59383390D02*
X99317200Y-59192914D01*
X99317200Y-59192914D02*
X99460057Y-59383390D01*
X99317200Y-58954819D02*
X99317200Y-59192914D01*
X99079105Y-59097676D02*
X99317200Y-59192914D01*
X99317200Y-59192914D02*
X99555295Y-59097676D01*
X99174343Y-59383390D02*
X99317200Y-59192914D01*
X99317200Y-59192914D02*
X99460057Y-59383390D01*
X102833333Y-62229580D02*
X102785714Y-62277200D01*
X102785714Y-62277200D02*
X102642857Y-62324819D01*
X102642857Y-62324819D02*
X102547619Y-62324819D01*
X102547619Y-62324819D02*
X102404762Y-62277200D01*
X102404762Y-62277200D02*
X102309524Y-62181961D01*
X102309524Y-62181961D02*
X102261905Y-62086723D01*
X102261905Y-62086723D02*
X102214286Y-61896247D01*
X102214286Y-61896247D02*
X102214286Y-61753390D01*
X102214286Y-61753390D02*
X102261905Y-61562914D01*
X102261905Y-61562914D02*
X102309524Y-61467676D01*
X102309524Y-61467676D02*
X102404762Y-61372438D01*
X102404762Y-61372438D02*
X102547619Y-61324819D01*
X102547619Y-61324819D02*
X102642857Y-61324819D01*
X102642857Y-61324819D02*
X102785714Y-61372438D01*
X102785714Y-61372438D02*
X102833333Y-61420057D01*
X103214286Y-61420057D02*
X103261905Y-61372438D01*
X103261905Y-61372438D02*
X103357143Y-61324819D01*
X103357143Y-61324819D02*
X103595238Y-61324819D01*
X103595238Y-61324819D02*
X103690476Y-61372438D01*
X103690476Y-61372438D02*
X103738095Y-61420057D01*
X103738095Y-61420057D02*
X103785714Y-61515295D01*
X103785714Y-61515295D02*
X103785714Y-61610533D01*
X103785714Y-61610533D02*
X103738095Y-61753390D01*
X103738095Y-61753390D02*
X103166667Y-62324819D01*
X103166667Y-62324819D02*
X103785714Y-62324819D01*
X109447619Y-72664818D02*
X109638095Y-72664818D01*
X109638095Y-72664818D02*
X109733333Y-72712437D01*
X109733333Y-72712437D02*
X109828571Y-72807675D01*
X109828571Y-72807675D02*
X109876190Y-72998151D01*
X109876190Y-72998151D02*
X109876190Y-73331484D01*
X109876190Y-73331484D02*
X109828571Y-73521960D01*
X109828571Y-73521960D02*
X109733333Y-73617199D01*
X109733333Y-73617199D02*
X109638095Y-73664818D01*
X109638095Y-73664818D02*
X109447619Y-73664818D01*
X109447619Y-73664818D02*
X109352381Y-73617199D01*
X109352381Y-73617199D02*
X109257143Y-73521960D01*
X109257143Y-73521960D02*
X109209524Y-73331484D01*
X109209524Y-73331484D02*
X109209524Y-72998151D01*
X109209524Y-72998151D02*
X109257143Y-72807675D01*
X109257143Y-72807675D02*
X109352381Y-72712437D01*
X109352381Y-72712437D02*
X109447619Y-72664818D01*
X110304762Y-73664818D02*
X110304762Y-72664818D01*
X110304762Y-72664818D02*
X110685714Y-72664818D01*
X110685714Y-72664818D02*
X110780952Y-72712437D01*
X110780952Y-72712437D02*
X110828571Y-72760056D01*
X110828571Y-72760056D02*
X110876190Y-72855294D01*
X110876190Y-72855294D02*
X110876190Y-72998151D01*
X110876190Y-72998151D02*
X110828571Y-73093389D01*
X110828571Y-73093389D02*
X110780952Y-73141008D01*
X110780952Y-73141008D02*
X110685714Y-73188627D01*
X110685714Y-73188627D02*
X110304762Y-73188627D01*
X111161905Y-72664818D02*
X111733333Y-72664818D01*
X111447619Y-73664818D02*
X111447619Y-72664818D01*
X112590476Y-73664818D02*
X112019048Y-73664818D01*
X112304762Y-73664818D02*
X112304762Y-72664818D01*
X112304762Y-72664818D02*
X112209524Y-72807675D01*
X112209524Y-72807675D02*
X112114286Y-72902913D01*
X112114286Y-72902913D02*
X112019048Y-72950532D01*
X85164819Y-45904761D02*
X84164819Y-45904761D01*
X84260057Y-45476190D02*
X84212438Y-45428571D01*
X84212438Y-45428571D02*
X84164819Y-45333333D01*
X84164819Y-45333333D02*
X84164819Y-45095238D01*
X84164819Y-45095238D02*
X84212438Y-45000000D01*
X84212438Y-45000000D02*
X84260057Y-44952381D01*
X84260057Y-44952381D02*
X84355295Y-44904762D01*
X84355295Y-44904762D02*
X84450533Y-44904762D01*
X84450533Y-44904762D02*
X84593390Y-44952381D01*
X84593390Y-44952381D02*
X85164819Y-45523809D01*
X85164819Y-45523809D02*
X85164819Y-44904762D01*
X85069580Y-43904762D02*
X85117200Y-43952381D01*
X85117200Y-43952381D02*
X85164819Y-44095238D01*
X85164819Y-44095238D02*
X85164819Y-44190476D01*
X85164819Y-44190476D02*
X85117200Y-44333333D01*
X85117200Y-44333333D02*
X85021961Y-44428571D01*
X85021961Y-44428571D02*
X84926723Y-44476190D01*
X84926723Y-44476190D02*
X84736247Y-44523809D01*
X84736247Y-44523809D02*
X84593390Y-44523809D01*
X84593390Y-44523809D02*
X84402914Y-44476190D01*
X84402914Y-44476190D02*
X84307676Y-44428571D01*
X84307676Y-44428571D02*
X84212438Y-44333333D01*
X84212438Y-44333333D02*
X84164819Y-44190476D01*
X84164819Y-44190476D02*
X84164819Y-44095238D01*
X84164819Y-44095238D02*
X84212438Y-43952381D01*
X84212438Y-43952381D02*
X84260057Y-43904762D01*
X85260057Y-43714286D02*
X85260057Y-42952381D01*
X85164819Y-42714285D02*
X84164819Y-42714285D01*
X84164819Y-42714285D02*
X84164819Y-42333333D01*
X84164819Y-42333333D02*
X84212438Y-42238095D01*
X84212438Y-42238095D02*
X84260057Y-42190476D01*
X84260057Y-42190476D02*
X84355295Y-42142857D01*
X84355295Y-42142857D02*
X84498152Y-42142857D01*
X84498152Y-42142857D02*
X84593390Y-42190476D01*
X84593390Y-42190476D02*
X84641009Y-42238095D01*
X84641009Y-42238095D02*
X84688628Y-42333333D01*
X84688628Y-42333333D02*
X84688628Y-42714285D01*
X84164819Y-41809523D02*
X85164819Y-41571428D01*
X85164819Y-41571428D02*
X84450533Y-41380952D01*
X84450533Y-41380952D02*
X85164819Y-41190476D01*
X85164819Y-41190476D02*
X84164819Y-40952381D01*
X85164819Y-40000000D02*
X84688628Y-40333333D01*
X85164819Y-40571428D02*
X84164819Y-40571428D01*
X84164819Y-40571428D02*
X84164819Y-40190476D01*
X84164819Y-40190476D02*
X84212438Y-40095238D01*
X84212438Y-40095238D02*
X84260057Y-40047619D01*
X84260057Y-40047619D02*
X84355295Y-40000000D01*
X84355295Y-40000000D02*
X84498152Y-40000000D01*
X84498152Y-40000000D02*
X84593390Y-40047619D01*
X84593390Y-40047619D02*
X84641009Y-40095238D01*
X84641009Y-40095238D02*
X84688628Y-40190476D01*
X84688628Y-40190476D02*
X84688628Y-40571428D01*
X85164819Y-39047619D02*
X85164819Y-39619047D01*
X85164819Y-39333333D02*
X84164819Y-39333333D01*
X84164819Y-39333333D02*
X84307676Y-39428571D01*
X84307676Y-39428571D02*
X84402914Y-39523809D01*
X84402914Y-39523809D02*
X84450533Y-39619047D01*
X90533333Y-58404819D02*
X90200000Y-57928628D01*
X89961905Y-58404819D02*
X89961905Y-57404819D01*
X89961905Y-57404819D02*
X90342857Y-57404819D01*
X90342857Y-57404819D02*
X90438095Y-57452438D01*
X90438095Y-57452438D02*
X90485714Y-57500057D01*
X90485714Y-57500057D02*
X90533333Y-57595295D01*
X90533333Y-57595295D02*
X90533333Y-57738152D01*
X90533333Y-57738152D02*
X90485714Y-57833390D01*
X90485714Y-57833390D02*
X90438095Y-57881009D01*
X90438095Y-57881009D02*
X90342857Y-57928628D01*
X90342857Y-57928628D02*
X89961905Y-57928628D01*
X90914286Y-57500057D02*
X90961905Y-57452438D01*
X90961905Y-57452438D02*
X91057143Y-57404819D01*
X91057143Y-57404819D02*
X91295238Y-57404819D01*
X91295238Y-57404819D02*
X91390476Y-57452438D01*
X91390476Y-57452438D02*
X91438095Y-57500057D01*
X91438095Y-57500057D02*
X91485714Y-57595295D01*
X91485714Y-57595295D02*
X91485714Y-57690533D01*
X91485714Y-57690533D02*
X91438095Y-57833390D01*
X91438095Y-57833390D02*
X90866667Y-58404819D01*
X90866667Y-58404819D02*
X91485714Y-58404819D01*
X99493637Y-51273447D02*
X99160304Y-50797256D01*
X98922209Y-51273447D02*
X98922209Y-50273447D01*
X98922209Y-50273447D02*
X99303161Y-50273447D01*
X99303161Y-50273447D02*
X99398399Y-50321066D01*
X99398399Y-50321066D02*
X99446018Y-50368685D01*
X99446018Y-50368685D02*
X99493637Y-50463923D01*
X99493637Y-50463923D02*
X99493637Y-50606780D01*
X99493637Y-50606780D02*
X99446018Y-50702018D01*
X99446018Y-50702018D02*
X99398399Y-50749637D01*
X99398399Y-50749637D02*
X99303161Y-50797256D01*
X99303161Y-50797256D02*
X98922209Y-50797256D01*
X99826971Y-50273447D02*
X100446018Y-50273447D01*
X100446018Y-50273447D02*
X100112685Y-50654399D01*
X100112685Y-50654399D02*
X100255542Y-50654399D01*
X100255542Y-50654399D02*
X100350780Y-50702018D01*
X100350780Y-50702018D02*
X100398399Y-50749637D01*
X100398399Y-50749637D02*
X100446018Y-50844875D01*
X100446018Y-50844875D02*
X100446018Y-51082970D01*
X100446018Y-51082970D02*
X100398399Y-51178208D01*
X100398399Y-51178208D02*
X100350780Y-51225828D01*
X100350780Y-51225828D02*
X100255542Y-51273447D01*
X100255542Y-51273447D02*
X99969828Y-51273447D01*
X99969828Y-51273447D02*
X99874590Y-51225828D01*
X99874590Y-51225828D02*
X99826971Y-51178208D01*
D13*
X111372936Y-46165000D02*
X111827064Y-46165000D01*
X111372936Y-47635000D02*
X111827064Y-47635000D01*
X96935888Y-67250584D02*
X95605888Y-67250584D01*
X96935888Y-65920584D02*
X96935888Y-67250584D01*
X96935888Y-64650584D02*
X96935888Y-62050584D01*
X96935888Y-64650584D02*
X94275888Y-64650584D01*
X96935888Y-62050584D02*
X94275888Y-62050584D01*
X94275888Y-64650584D02*
X94275888Y-62050584D01*
X113670000Y-52970000D02*
X115000000Y-52970000D01*
X113670000Y-54300000D02*
X113670000Y-52970000D01*
X113670000Y-55570000D02*
X113670000Y-60710000D01*
X113670000Y-55570000D02*
X116330000Y-55570000D01*
X113670000Y-60710000D02*
X116330000Y-60710000D01*
X116330000Y-55570000D02*
X116330000Y-60710000D01*
X85570000Y-54970000D02*
X86900000Y-54970000D01*
X85570000Y-56300000D02*
X85570000Y-54970000D01*
X85570000Y-57570000D02*
X85570000Y-62710000D01*
X85570000Y-57570000D02*
X88230000Y-57570000D01*
X85570000Y-62710000D02*
X88230000Y-62710000D01*
X88230000Y-57570000D02*
X88230000Y-62710000D01*
X99333240Y-55233630D02*
X99787368Y-55233630D01*
X99333240Y-56703630D02*
X99787368Y-56703630D01*
X101940580Y-65710000D02*
X101659420Y-65710000D01*
X101940580Y-64690000D02*
X101659420Y-64690000D01*
X97640888Y-52860584D02*
X96170888Y-52860584D01*
X96170888Y-52860584D02*
X96170888Y-55145584D01*
X97640888Y-55145584D02*
X97640888Y-52860584D01*
X95640888Y-51118520D02*
X95640888Y-51572648D01*
X94170888Y-51118520D02*
X94170888Y-51572648D01*
X98670000Y-72430000D02*
X98670000Y-71100000D01*
X100000000Y-72430000D02*
X98670000Y-72430000D01*
X101270000Y-72430000D02*
X106410000Y-72430000D01*
X101270000Y-72430000D02*
X101270000Y-69770000D01*
X106410000Y-72430000D02*
X106410000Y-69770000D01*
X101270000Y-69770000D02*
X106410000Y-69770000D01*
X92905888Y-60805584D02*
X94705888Y-60805584D01*
X92905888Y-60805584D02*
X92105888Y-60805584D01*
X92905888Y-57685584D02*
X93705888Y-57685584D01*
X92905888Y-57685584D02*
X92105888Y-57685584D01*
D14*
X99723600Y-61922400D02*
X100442987Y-61922400D01*
X100442987Y-59077600D02*
X99723600Y-59077600D01*
X102357013Y-61922400D02*
X103076400Y-61922400D01*
X103076400Y-59077600D02*
X102357013Y-59077600D01*
G36*
X103355800Y-60440501D02*
G01*
X103101800Y-60440501D01*
X103101800Y-60059500D01*
X103355800Y-60059500D01*
X103355800Y-60440501D01*
G37*
D13*
X102859420Y-62790000D02*
X103140580Y-62790000D01*
X102859420Y-63810000D02*
X103140580Y-63810000D01*
X112230000Y-72209999D02*
X110900000Y-72209999D01*
X112230000Y-70879999D02*
X112230000Y-72209999D01*
X112230000Y-69609999D02*
X112230000Y-64469999D01*
X112230000Y-69609999D02*
X109570000Y-69609999D01*
X112230000Y-64469999D02*
X109570000Y-64469999D01*
X109570000Y-69609999D02*
X109570000Y-64469999D01*
X85710000Y-43830000D02*
X85710000Y-42500000D01*
X87040000Y-43830000D02*
X85710000Y-43830000D01*
X88310000Y-43830000D02*
X101070000Y-43830000D01*
X88310000Y-43830000D02*
X88310000Y-41170000D01*
X101070000Y-43830000D02*
X101070000Y-41170000D01*
X88310000Y-41170000D02*
X101070000Y-41170000D01*
X90927064Y-57035000D02*
X90472936Y-57035000D01*
X90927064Y-55565000D02*
X90472936Y-55565000D01*
X99433240Y-51733628D02*
X99887368Y-51733628D01*
X99433240Y-53203628D02*
X99887368Y-53203628D01*
%LPC*%
D15*
X110687500Y-46900000D03*
X112512500Y-46900000D03*
D16*
X95605888Y-65920584D03*
D17*
X95605888Y-63380584D03*
D16*
X115000000Y-54300000D03*
D17*
X115000000Y-56840000D03*
X115000000Y-59380000D03*
D16*
X86900000Y-56300000D03*
D17*
X86900000Y-58840000D03*
X86900000Y-61380000D03*
D15*
X98647804Y-55968630D03*
X100472804Y-55968630D03*
D18*
X102575000Y-65200000D03*
X101025000Y-65200000D03*
D19*
X117605888Y-72245584D03*
D20*
X117605888Y-72245584D03*
D21*
X96905888Y-53558084D03*
X96905888Y-55133084D03*
D22*
X94905888Y-50433084D03*
X94905888Y-52258084D03*
D16*
X100000000Y-71100000D03*
D17*
X102540000Y-71100000D03*
X105080000Y-71100000D03*
D19*
X117605888Y-39045584D03*
D20*
X117605888Y-39045584D03*
D19*
X84405888Y-72245584D03*
D20*
X84405888Y-72245584D03*
D23*
X91768388Y-59245584D03*
X94043388Y-60195584D03*
X94043388Y-58295584D03*
D24*
X100189700Y-59749999D03*
X100189700Y-60250000D03*
X100189700Y-60750000D03*
X100189700Y-61250001D03*
D25*
X100900001Y-61456300D03*
X101400000Y-61456300D03*
X101899999Y-61456300D03*
D24*
X102610300Y-61250001D03*
X102610300Y-60750000D03*
X102610300Y-60250000D03*
X102610300Y-59749999D03*
D25*
X101899999Y-59543700D03*
X101400000Y-59543700D03*
X100900001Y-59543700D03*
D26*
X102225000Y-63300000D03*
X103775000Y-63300000D03*
D16*
X110900000Y-70879999D03*
D17*
X110900000Y-68339999D03*
X110900000Y-65799999D03*
D16*
X87040000Y-42500000D03*
D17*
X89580000Y-42500000D03*
X92120000Y-42500000D03*
X94660000Y-42500000D03*
X97200000Y-42500000D03*
X99740000Y-42500000D03*
D27*
X91612500Y-56300000D03*
X89787500Y-56300000D03*
D15*
X98747804Y-52468628D03*
X100572804Y-52468628D03*
%LPD*%
M02*
