G04 #@! TF.GenerationSoftware,KiCad,Pcbnew,7.0.8-7.0.8~ubuntu22.04.1*
G04 #@! TF.CreationDate,2024-01-26T15:47:28+01:00*
G04 #@! TF.ProjectId,imu,696d752e-6b69-4636-9164-5f7063625858,rev?*
G04 #@! TF.SameCoordinates,Original*
G04 #@! TF.FileFunction,Copper,L1,Top*
G04 #@! TF.FilePolarity,Positive*
%FSLAX46Y46*%
G04 Gerber Fmt 4.6, Leading zero omitted, Abs format (unit mm)*
G04 Created by KiCad (PCBNEW 7.0.8-7.0.8~ubuntu22.04.1) date 2024-01-26 15:47:28*
%MOMM*%
%LPD*%
G01*
G04 APERTURE LIST*
G04 Aperture macros list*
%AMRoundRect*
0 Rectangle with rounded corners*
0 $1 Rounding radius*
0 $2 $3 $4 $5 $6 $7 $8 $9 X,Y pos of 4 corners*
0 Add a 4 corners polygon primitive as box body*
4,1,4,$2,$3,$4,$5,$6,$7,$8,$9,$2,$3,0*
0 Add four circle primitives for the rounded corners*
1,1,$1+$1,$2,$3*
1,1,$1+$1,$4,$5*
1,1,$1+$1,$6,$7*
1,1,$1+$1,$8,$9*
0 Add four rect primitives between the rounded corners*
20,1,$1+$1,$2,$3,$4,$5,0*
20,1,$1+$1,$4,$5,$6,$7,0*
20,1,$1+$1,$6,$7,$8,$9,0*
20,1,$1+$1,$8,$9,$2,$3,0*%
G04 Aperture macros list end*
G04 #@! TA.AperFunction,SMDPad,CuDef*
%ADD10RoundRect,0.250000X-0.262500X-0.450000X0.262500X-0.450000X0.262500X0.450000X-0.262500X0.450000X0*%
G04 #@! TD*
G04 #@! TA.AperFunction,ComponentPad*
%ADD11R,1.700000X1.700000*%
G04 #@! TD*
G04 #@! TA.AperFunction,ComponentPad*
%ADD12O,1.700000X1.700000*%
G04 #@! TD*
G04 #@! TA.AperFunction,SMDPad,CuDef*
%ADD13RoundRect,0.225000X0.225000X0.250000X-0.225000X0.250000X-0.225000X-0.250000X0.225000X-0.250000X0*%
G04 #@! TD*
G04 #@! TA.AperFunction,ComponentPad*
%ADD14C,3.600000*%
G04 #@! TD*
G04 #@! TA.AperFunction,ConnectorPad*
%ADD15C,5.600000*%
G04 #@! TD*
G04 #@! TA.AperFunction,SMDPad,CuDef*
%ADD16RoundRect,0.218750X-0.256250X0.218750X-0.256250X-0.218750X0.256250X-0.218750X0.256250X0.218750X0*%
G04 #@! TD*
G04 #@! TA.AperFunction,SMDPad,CuDef*
%ADD17RoundRect,0.250000X-0.450000X0.262500X-0.450000X-0.262500X0.450000X-0.262500X0.450000X0.262500X0*%
G04 #@! TD*
G04 #@! TA.AperFunction,SMDPad,CuDef*
%ADD18RoundRect,0.150000X0.512500X0.150000X-0.512500X0.150000X-0.512500X-0.150000X0.512500X-0.150000X0*%
G04 #@! TD*
G04 #@! TA.AperFunction,SMDPad,CuDef*
%ADD19R,0.576580X0.351536*%
G04 #@! TD*
G04 #@! TA.AperFunction,SMDPad,CuDef*
%ADD20R,0.351536X0.576580*%
G04 #@! TD*
G04 #@! TA.AperFunction,SMDPad,CuDef*
%ADD21RoundRect,0.225000X-0.225000X-0.250000X0.225000X-0.250000X0.225000X0.250000X-0.225000X0.250000X0*%
G04 #@! TD*
G04 #@! TA.AperFunction,SMDPad,CuDef*
%ADD22RoundRect,0.250000X0.262500X0.450000X-0.262500X0.450000X-0.262500X-0.450000X0.262500X-0.450000X0*%
G04 #@! TD*
G04 #@! TA.AperFunction,ViaPad*
%ADD23C,0.800000*%
G04 #@! TD*
G04 #@! TA.AperFunction,Conductor*
%ADD24C,0.150000*%
G04 #@! TD*
G04 #@! TA.AperFunction,Conductor*
%ADD25C,0.250000*%
G04 #@! TD*
G04 APERTURE END LIST*
D10*
X110687500Y-46900000D03*
X112512500Y-46900000D03*
D11*
X95605888Y-65920584D03*
D12*
X95605888Y-63380584D03*
D11*
X115000000Y-54300000D03*
D12*
X115000000Y-56840000D03*
X115000000Y-59380000D03*
D11*
X86900000Y-56300000D03*
D12*
X86900000Y-58840000D03*
X86900000Y-61380000D03*
D10*
X98647804Y-55968630D03*
X100472804Y-55968630D03*
D13*
X102575000Y-65200000D03*
X101025000Y-65200000D03*
D14*
X117605888Y-72245584D03*
D15*
X117605888Y-72245584D03*
D16*
X96905888Y-53558084D03*
X96905888Y-55133084D03*
D17*
X94905888Y-50433084D03*
X94905888Y-52258084D03*
D11*
X100000000Y-71100000D03*
D12*
X102540000Y-71100000D03*
X105080000Y-71100000D03*
D14*
X117605888Y-39045584D03*
D15*
X117605888Y-39045584D03*
D14*
X84405888Y-72245584D03*
D15*
X84405888Y-72245584D03*
D18*
X91768388Y-59245584D03*
X94043388Y-60195584D03*
X94043388Y-58295584D03*
D19*
X100189700Y-59749999D03*
X100189700Y-60250000D03*
X100189700Y-60750000D03*
X100189700Y-61250001D03*
D20*
X100900001Y-61456300D03*
X101400000Y-61456300D03*
X101899999Y-61456300D03*
D19*
X102610300Y-61250001D03*
X102610300Y-60750000D03*
X102610300Y-60250000D03*
X102610300Y-59749999D03*
D20*
X101899999Y-59543700D03*
X101400000Y-59543700D03*
X100900001Y-59543700D03*
D21*
X102225000Y-63300000D03*
X103775000Y-63300000D03*
D11*
X110900000Y-70879999D03*
D12*
X110900000Y-68339999D03*
X110900000Y-65799999D03*
D11*
X87040000Y-42500000D03*
D12*
X89580000Y-42500000D03*
X92120000Y-42500000D03*
X94660000Y-42500000D03*
X97200000Y-42500000D03*
X99740000Y-42500000D03*
D22*
X91612500Y-56300000D03*
X89787500Y-56300000D03*
D10*
X98747804Y-52468628D03*
X100572804Y-52468628D03*
D23*
X90705888Y-72745584D03*
X102605888Y-66845584D03*
X98805888Y-59145584D03*
X85505888Y-65445584D03*
X89705888Y-62245584D03*
X101005888Y-68645584D03*
X97805888Y-58445584D03*
X102605888Y-58045584D03*
X102405888Y-56745584D03*
X102505888Y-54845584D03*
D24*
X99410303Y-59749999D02*
X98805888Y-59145584D01*
X101899999Y-62974999D02*
X102225000Y-63300000D01*
X101899999Y-61456300D02*
X101899999Y-62974999D01*
X102575000Y-66814696D02*
X102605888Y-66845584D01*
X102225000Y-64850000D02*
X102575000Y-65200000D01*
X102225000Y-63300000D02*
X102225000Y-64850000D01*
X100189700Y-59749999D02*
X99410303Y-59749999D01*
X101400000Y-61456300D02*
X101899999Y-61456300D01*
X102575000Y-65200000D02*
X102575000Y-66814696D01*
X101025000Y-67245584D02*
X101025000Y-67364696D01*
X101025000Y-68626472D02*
X101005888Y-68645584D01*
X95055888Y-60195584D02*
X94043388Y-60195584D01*
X97805888Y-58445584D02*
X97805888Y-60200001D01*
X103775000Y-67076472D02*
X103775000Y-63300000D01*
X101405888Y-67745584D02*
X103105888Y-67745584D01*
X101899999Y-59543700D02*
X101899999Y-58751473D01*
X95405888Y-60200001D02*
X97805888Y-60200001D01*
X97741434Y-55968630D02*
X98647804Y-55968630D01*
X97805888Y-60200001D02*
X100139701Y-60200001D01*
X95605888Y-63380584D02*
X95605888Y-60400001D01*
X101025000Y-67364696D02*
X101405888Y-67745584D01*
X103105888Y-67745584D02*
X103775000Y-67076472D01*
X100900001Y-65075001D02*
X100900001Y-61456300D01*
X103350001Y-61250001D02*
X103775000Y-61675000D01*
X96905888Y-55133084D02*
X97741434Y-55968630D01*
X94047805Y-60200001D02*
X95405888Y-60200001D01*
X95605888Y-60400001D02*
X95405888Y-60200001D01*
X101899999Y-58751473D02*
X102605888Y-58045584D01*
X100189700Y-60250000D02*
X100189700Y-60750000D01*
X101025000Y-65200000D02*
X100900001Y-65075001D01*
X100139701Y-60200001D02*
X100189700Y-60250000D01*
X94043388Y-60195584D02*
X94047805Y-60200001D01*
X101025000Y-65200000D02*
X101025000Y-67245584D01*
X102610300Y-61250001D02*
X103350001Y-61250001D01*
X98747804Y-52468628D02*
X98747804Y-56503668D01*
X103775000Y-61675000D02*
X103775000Y-63300000D01*
X101025000Y-67245584D02*
X101025000Y-68626472D01*
X98747804Y-56503668D02*
X95055888Y-60195584D01*
D25*
X84640000Y-58840000D02*
X86900000Y-58840000D01*
X83500000Y-57700000D02*
X84640000Y-58840000D01*
X89580000Y-42500000D02*
X83500000Y-48580000D01*
X83500000Y-48580000D02*
X83500000Y-57700000D01*
X94043388Y-56043389D02*
X94043388Y-58295584D01*
X92500000Y-54500001D02*
X94043388Y-56043389D01*
X92120000Y-42500000D02*
X92120000Y-53120000D01*
X92120000Y-53120000D02*
X92500000Y-53500000D01*
X92500000Y-53500000D02*
X92500000Y-54500001D01*
X100572804Y-52468628D02*
X100572804Y-52912500D01*
X100572804Y-48412804D02*
X100572804Y-52468628D01*
D24*
X102405888Y-56745584D02*
X101400000Y-57751472D01*
D25*
X100572804Y-52912500D02*
X102505888Y-54845584D01*
D24*
X101400000Y-57751472D02*
X101400000Y-59543700D01*
D25*
X94660000Y-42500000D02*
X100572804Y-48412804D01*
D24*
X100905888Y-59537813D02*
X100900001Y-59543700D01*
D25*
X97200000Y-42500000D02*
X104905888Y-50205888D01*
D24*
X100472804Y-58212500D02*
X100905888Y-58645584D01*
D25*
X104905888Y-53545584D02*
X102482842Y-55968630D01*
D24*
X100472804Y-55968630D02*
X100472804Y-58212500D01*
D25*
X104905888Y-50205888D02*
X104905888Y-53545584D01*
X102482842Y-55968630D02*
X100472804Y-55968630D01*
D24*
X100905888Y-58645584D02*
X100905888Y-59537813D01*
X89787500Y-56300000D02*
X86900000Y-56300000D01*
D25*
X97105888Y-72645584D02*
X100994416Y-72645584D01*
X86900000Y-61380000D02*
X86900000Y-62439696D01*
X100994416Y-72645584D02*
X102540000Y-71100000D01*
X86900000Y-62439696D02*
X97105888Y-72645584D01*
D24*
X99960000Y-61479701D02*
X100189700Y-61250001D01*
X99960000Y-71060000D02*
X99960000Y-61479701D01*
X100000000Y-71100000D02*
X99960000Y-71060000D01*
X105040000Y-62040000D02*
X105040000Y-71060000D01*
X103750000Y-60750000D02*
X105040000Y-62040000D01*
X102610300Y-60750000D02*
X103750000Y-60750000D01*
X105040000Y-71060000D02*
X105080000Y-71100000D01*
D25*
X115000000Y-61699999D02*
X115000000Y-59380000D01*
X110900000Y-65799999D02*
X115000000Y-61699999D01*
X115000000Y-49387500D02*
X112512500Y-46900000D01*
X115000000Y-54300000D02*
X115000000Y-49387500D01*
D24*
X96205888Y-53558084D02*
X94905888Y-52258084D01*
X96905888Y-53558084D02*
X96205888Y-53558084D01*
G04 #@! TA.AperFunction,Conductor*
G36*
X93474855Y-43166546D02*
G01*
X93491575Y-43185842D01*
X93621281Y-43371082D01*
X93621505Y-43371401D01*
X93788599Y-43538495D01*
X93885384Y-43606265D01*
X93982165Y-43674032D01*
X93982167Y-43674033D01*
X93982170Y-43674035D01*
X94196337Y-43773903D01*
X94196343Y-43773904D01*
X94196344Y-43773905D01*
X94251285Y-43788626D01*
X94424592Y-43835063D01*
X94601034Y-43850500D01*
X94659999Y-43855659D01*
X94660000Y-43855659D01*
X94660001Y-43855659D01*
X94718966Y-43850500D01*
X94895408Y-43835063D01*
X94995873Y-43808143D01*
X95065722Y-43809806D01*
X95115647Y-43840237D01*
X99910985Y-48635575D01*
X99944470Y-48696898D01*
X99947304Y-48723256D01*
X99947304Y-51291539D01*
X99927619Y-51358578D01*
X99888402Y-51397077D01*
X99841648Y-51425915D01*
X99841647Y-51425916D01*
X99747985Y-51519579D01*
X99686662Y-51553064D01*
X99616970Y-51548080D01*
X99572623Y-51519579D01*
X99478961Y-51425917D01*
X99478960Y-51425916D01*
X99329638Y-51333814D01*
X99163101Y-51278629D01*
X99163099Y-51278628D01*
X99060314Y-51268128D01*
X98435302Y-51268128D01*
X98435284Y-51268129D01*
X98332507Y-51278628D01*
X98332504Y-51278629D01*
X98165972Y-51333813D01*
X98165967Y-51333815D01*
X98016646Y-51425917D01*
X97892593Y-51549970D01*
X97800491Y-51699291D01*
X97800490Y-51699294D01*
X97745305Y-51865831D01*
X97745305Y-51865832D01*
X97745304Y-51865832D01*
X97734804Y-51968611D01*
X97734804Y-52625319D01*
X97715119Y-52692358D01*
X97662315Y-52738113D01*
X97593157Y-52748057D01*
X97545707Y-52730857D01*
X97468183Y-52683039D01*
X97468177Y-52683036D01*
X97468175Y-52683035D01*
X97308573Y-52630148D01*
X97308571Y-52630147D01*
X97210069Y-52620084D01*
X97210062Y-52620084D01*
X96601714Y-52620084D01*
X96601706Y-52620084D01*
X96503204Y-52630147D01*
X96503203Y-52630148D01*
X96424107Y-52656357D01*
X96343603Y-52683034D01*
X96343596Y-52683037D01*
X96304038Y-52707437D01*
X96236646Y-52725876D01*
X96169982Y-52704952D01*
X96151262Y-52689578D01*
X96141184Y-52679500D01*
X96107699Y-52618177D01*
X96105507Y-52579214D01*
X96106388Y-52570593D01*
X96106387Y-51945576D01*
X96095887Y-51842787D01*
X96040702Y-51676250D01*
X95948600Y-51526928D01*
X95854583Y-51432911D01*
X95821098Y-51371588D01*
X95826082Y-51301896D01*
X95854583Y-51257548D01*
X95948205Y-51163926D01*
X96040244Y-51014708D01*
X96040246Y-51014703D01*
X96095393Y-50848281D01*
X96095394Y-50848274D01*
X96105887Y-50745570D01*
X96105888Y-50745557D01*
X96105888Y-50683084D01*
X93705889Y-50683084D01*
X93705889Y-50745570D01*
X93716382Y-50848281D01*
X93771529Y-51014703D01*
X93771531Y-51014708D01*
X93863572Y-51163929D01*
X93957192Y-51257549D01*
X93990677Y-51318872D01*
X93985693Y-51388564D01*
X93957193Y-51432911D01*
X93863175Y-51526929D01*
X93771075Y-51676247D01*
X93771074Y-51676250D01*
X93715889Y-51842787D01*
X93715889Y-51842788D01*
X93715888Y-51842788D01*
X93705388Y-51945567D01*
X93705388Y-52570585D01*
X93705389Y-52570603D01*
X93715888Y-52673380D01*
X93715889Y-52673383D01*
X93737339Y-52738113D01*
X93771074Y-52839918D01*
X93863176Y-52989240D01*
X93987232Y-53113296D01*
X94136554Y-53205398D01*
X94303091Y-53260583D01*
X94405879Y-53271084D01*
X95053645Y-53271083D01*
X95120684Y-53290767D01*
X95141326Y-53307402D01*
X95769408Y-53935484D01*
X95774749Y-53941574D01*
X95795437Y-53968535D01*
X95806159Y-53976762D01*
X95824374Y-53990740D01*
X95824379Y-53990744D01*
X95825620Y-53991696D01*
X95915656Y-54060783D01*
X95964658Y-54081080D01*
X96019060Y-54124918D01*
X96022743Y-54130543D01*
X96081604Y-54225971D01*
X96081607Y-54225975D01*
X96113535Y-54257903D01*
X96147020Y-54319226D01*
X96142036Y-54388918D01*
X96113535Y-54433265D01*
X96081607Y-54465192D01*
X96081604Y-54465196D01*
X95993343Y-54608288D01*
X95993338Y-54608299D01*
X95977269Y-54656792D01*
X95940452Y-54767899D01*
X95940452Y-54767900D01*
X95940451Y-54767900D01*
X95930388Y-54866402D01*
X95930388Y-55399765D01*
X95940451Y-55498267D01*
X95993338Y-55657868D01*
X95993343Y-55657879D01*
X96081604Y-55800971D01*
X96081607Y-55800975D01*
X96200496Y-55919864D01*
X96200500Y-55919867D01*
X96343592Y-56008128D01*
X96343595Y-56008129D01*
X96343601Y-56008133D01*
X96503203Y-56061020D01*
X96601714Y-56071084D01*
X96978646Y-56071084D01*
X97045685Y-56090769D01*
X97066327Y-56107403D01*
X97304954Y-56346030D01*
X97310295Y-56352120D01*
X97321691Y-56366972D01*
X97329611Y-56377294D01*
X97330983Y-56379081D01*
X97341705Y-56387308D01*
X97359920Y-56401286D01*
X97359925Y-56401290D01*
X97361166Y-56402242D01*
X97426384Y-56452285D01*
X97451201Y-56471328D01*
X97451203Y-56471328D01*
X97451205Y-56471330D01*
X97502620Y-56492626D01*
X97585329Y-56526886D01*
X97639732Y-56570725D01*
X97655581Y-56602440D01*
X97676217Y-56664713D01*
X97678619Y-56734541D01*
X97646192Y-56791398D01*
X94995813Y-59441777D01*
X94934490Y-59475262D01*
X94864798Y-59470278D01*
X94845011Y-59460828D01*
X94832084Y-59453183D01*
X94816286Y-59443840D01*
X94816285Y-59443839D01*
X94816284Y-59443839D01*
X94816281Y-59443838D01*
X94658461Y-59397986D01*
X94658455Y-59397985D01*
X94621584Y-59395084D01*
X94621582Y-59395084D01*
X93465194Y-59395084D01*
X93465192Y-59395084D01*
X93428320Y-59397985D01*
X93428314Y-59397986D01*
X93270494Y-59443838D01*
X93270491Y-59443839D01*
X93129025Y-59527501D01*
X93122857Y-59532286D01*
X93121552Y-59530603D01*
X93069842Y-59558830D01*
X93000151Y-59553835D01*
X92952446Y-59521831D01*
X92928184Y-59495584D01*
X92018388Y-59495584D01*
X92018388Y-60045584D01*
X92346532Y-60045584D01*
X92383377Y-60042684D01*
X92383383Y-60042683D01*
X92541081Y-59996867D01*
X92541084Y-59996866D01*
X92689159Y-59909296D01*
X92690178Y-59911019D01*
X92745414Y-59889328D01*
X92813933Y-59903002D01*
X92864181Y-59951550D01*
X92880388Y-60012841D01*
X92880388Y-60411280D01*
X92883289Y-60448151D01*
X92883290Y-60448157D01*
X92929142Y-60605977D01*
X92929143Y-60605980D01*
X93012805Y-60747446D01*
X93012811Y-60747454D01*
X93129017Y-60863660D01*
X93129021Y-60863663D01*
X93129023Y-60863665D01*
X93270490Y-60947328D01*
X93270497Y-60947330D01*
X93428314Y-60993181D01*
X93428317Y-60993181D01*
X93428319Y-60993182D01*
X93440610Y-60994149D01*
X93465192Y-60996084D01*
X93465194Y-60996084D01*
X94621584Y-60996084D01*
X94640019Y-60994633D01*
X94658457Y-60993182D01*
X94658459Y-60993181D01*
X94658461Y-60993181D01*
X94816280Y-60947330D01*
X94816280Y-60947329D01*
X94816286Y-60947328D01*
X94843269Y-60931370D01*
X94910990Y-60914188D01*
X94977253Y-60936348D01*
X95021016Y-60990813D01*
X95030388Y-61038103D01*
X95030388Y-62079834D01*
X95010703Y-62146873D01*
X94958796Y-62192215D01*
X94928057Y-62206549D01*
X94734485Y-62342089D01*
X94567393Y-62509181D01*
X94431853Y-62702753D01*
X94431852Y-62702755D01*
X94331986Y-62916919D01*
X94331982Y-62916928D01*
X94270826Y-63145170D01*
X94270824Y-63145180D01*
X94250229Y-63380583D01*
X94250229Y-63380584D01*
X94270824Y-63615987D01*
X94270826Y-63615997D01*
X94331982Y-63844239D01*
X94331984Y-63844243D01*
X94331985Y-63844247D01*
X94431853Y-64058414D01*
X94431855Y-64058418D01*
X94477054Y-64122968D01*
X94567389Y-64251980D01*
X94567394Y-64251986D01*
X94689706Y-64374298D01*
X94723191Y-64435621D01*
X94718207Y-64505313D01*
X94676335Y-64561246D01*
X94645359Y-64578161D01*
X94513800Y-64627230D01*
X94513794Y-64627233D01*
X94398700Y-64713393D01*
X94398697Y-64713396D01*
X94312537Y-64828490D01*
X94312533Y-64828497D01*
X94262291Y-64963204D01*
X94262289Y-64963211D01*
X94255888Y-65022739D01*
X94255888Y-65670584D01*
X95172202Y-65670584D01*
X95146395Y-65710740D01*
X95105888Y-65848695D01*
X95105888Y-65992473D01*
X95146395Y-66130428D01*
X95172202Y-66170584D01*
X94255888Y-66170584D01*
X94255888Y-66818428D01*
X94262289Y-66877956D01*
X94262291Y-66877963D01*
X94312533Y-67012670D01*
X94312537Y-67012677D01*
X94398697Y-67127771D01*
X94398700Y-67127774D01*
X94513794Y-67213934D01*
X94513801Y-67213938D01*
X94648508Y-67264180D01*
X94648515Y-67264182D01*
X94708043Y-67270583D01*
X94708060Y-67270584D01*
X95355888Y-67270584D01*
X95355888Y-66356085D01*
X95463573Y-66405264D01*
X95570125Y-66420584D01*
X95641651Y-66420584D01*
X95748203Y-66405264D01*
X95855888Y-66356085D01*
X95855888Y-67270584D01*
X96503716Y-67270584D01*
X96503732Y-67270583D01*
X96563260Y-67264182D01*
X96563267Y-67264180D01*
X96697974Y-67213938D01*
X96697981Y-67213934D01*
X96813075Y-67127774D01*
X96813078Y-67127771D01*
X96899238Y-67012677D01*
X96899242Y-67012670D01*
X96949484Y-66877963D01*
X96949486Y-66877956D01*
X96955887Y-66818428D01*
X96955888Y-66818411D01*
X96955888Y-66170584D01*
X96039574Y-66170584D01*
X96065381Y-66130428D01*
X96105888Y-65992473D01*
X96105888Y-65848695D01*
X96065381Y-65710740D01*
X96039574Y-65670584D01*
X96955888Y-65670584D01*
X96955888Y-65022756D01*
X96955887Y-65022739D01*
X96949486Y-64963211D01*
X96949484Y-64963204D01*
X96899242Y-64828497D01*
X96899238Y-64828490D01*
X96813078Y-64713396D01*
X96813075Y-64713393D01*
X96697981Y-64627233D01*
X96697976Y-64627230D01*
X96566416Y-64578161D01*
X96510483Y-64536289D01*
X96486066Y-64470825D01*
X96500918Y-64402552D01*
X96522063Y-64374304D01*
X96644383Y-64251985D01*
X96779923Y-64058414D01*
X96879791Y-63844247D01*
X96940951Y-63615992D01*
X96961547Y-63380584D01*
X96940951Y-63145176D01*
X96879791Y-62916921D01*
X96779923Y-62702755D01*
X96771053Y-62690086D01*
X96644382Y-62509181D01*
X96477290Y-62342090D01*
X96477283Y-62342085D01*
X96467370Y-62335144D01*
X96420096Y-62302042D01*
X96283719Y-62206549D01*
X96283715Y-62206547D01*
X96252981Y-62192215D01*
X96200543Y-62146042D01*
X96181388Y-62079834D01*
X96181388Y-60899501D01*
X96201073Y-60832462D01*
X96253877Y-60786707D01*
X96305388Y-60775501D01*
X97764102Y-60775501D01*
X97772199Y-60776031D01*
X97805888Y-60780467D01*
X97839576Y-60776031D01*
X97847674Y-60775501D01*
X99276911Y-60775501D01*
X99343950Y-60795186D01*
X99389705Y-60847990D01*
X99400911Y-60899501D01*
X99400911Y-60973651D01*
X99402319Y-60986745D01*
X99402319Y-61013246D01*
X99400910Y-61026350D01*
X99400910Y-61313268D01*
X99400379Y-61321370D01*
X99399313Y-61329464D01*
X99399313Y-61329465D01*
X99384641Y-61440908D01*
X99383957Y-61446107D01*
X99383955Y-61446120D01*
X99379535Y-61479701D01*
X99383969Y-61513379D01*
X99384500Y-61521481D01*
X99384500Y-69625500D01*
X99364815Y-69692539D01*
X99312011Y-69738294D01*
X99260501Y-69749500D01*
X99102130Y-69749500D01*
X99102123Y-69749501D01*
X99042516Y-69755908D01*
X98907671Y-69806202D01*
X98907664Y-69806206D01*
X98792455Y-69892452D01*
X98792452Y-69892455D01*
X98706206Y-70007664D01*
X98706202Y-70007671D01*
X98655908Y-70142517D01*
X98651510Y-70183430D01*
X98649500Y-70202127D01*
X98649500Y-71099999D01*
X98649501Y-71896084D01*
X98629816Y-71963123D01*
X98577013Y-72008878D01*
X98525501Y-72020084D01*
X97416341Y-72020084D01*
X97349302Y-72000399D01*
X97328660Y-71983765D01*
X87855076Y-62510181D01*
X87821591Y-62448858D01*
X87826575Y-62379166D01*
X87855072Y-62334823D01*
X87938495Y-62251401D01*
X88074035Y-62057830D01*
X88173903Y-61843663D01*
X88235063Y-61615408D01*
X88255659Y-61380000D01*
X88235063Y-61144592D01*
X88188626Y-60971285D01*
X88173905Y-60916344D01*
X88173904Y-60916343D01*
X88173903Y-60916337D01*
X88074035Y-60702171D01*
X88050929Y-60669171D01*
X87938494Y-60508597D01*
X87771402Y-60341506D01*
X87771396Y-60341501D01*
X87585842Y-60211575D01*
X87542217Y-60156998D01*
X87535023Y-60087500D01*
X87566546Y-60025145D01*
X87585842Y-60008425D01*
X87635520Y-59973640D01*
X87771401Y-59878495D01*
X87938495Y-59711401D01*
X88074035Y-59517830D01*
X88084408Y-59495585D01*
X90608592Y-59495585D01*
X90608787Y-59498070D01*
X90654606Y-59655782D01*
X90738202Y-59797136D01*
X90738209Y-59797145D01*
X90854326Y-59913262D01*
X90854335Y-59913269D01*
X90995691Y-59996866D01*
X90995694Y-59996867D01*
X91153392Y-60042683D01*
X91153398Y-60042684D01*
X91190244Y-60045584D01*
X91518388Y-60045584D01*
X91518388Y-59495584D01*
X90608593Y-59495584D01*
X90608592Y-59495585D01*
X88084408Y-59495585D01*
X88173903Y-59303663D01*
X88235063Y-59075408D01*
X88242047Y-58995582D01*
X90608592Y-58995582D01*
X90608593Y-58995584D01*
X91518388Y-58995584D01*
X91518388Y-58445584D01*
X91190244Y-58445584D01*
X91153398Y-58448483D01*
X91153392Y-58448484D01*
X90995694Y-58494300D01*
X90995691Y-58494301D01*
X90854335Y-58577898D01*
X90854326Y-58577905D01*
X90738209Y-58694022D01*
X90738202Y-58694031D01*
X90654606Y-58835385D01*
X90608787Y-58993097D01*
X90608592Y-58995582D01*
X88242047Y-58995582D01*
X88255659Y-58840000D01*
X88235063Y-58604592D01*
X88173903Y-58376337D01*
X88074035Y-58162171D01*
X88073651Y-58161623D01*
X87938496Y-57968600D01*
X87883264Y-57913368D01*
X87816567Y-57846671D01*
X87783084Y-57785351D01*
X87788068Y-57715659D01*
X87829939Y-57659725D01*
X87860915Y-57642810D01*
X87992331Y-57593796D01*
X88107546Y-57507546D01*
X88193796Y-57392331D01*
X88244091Y-57257483D01*
X88250500Y-57197873D01*
X88250500Y-56999500D01*
X88270185Y-56932461D01*
X88322989Y-56886706D01*
X88374500Y-56875500D01*
X88686415Y-56875500D01*
X88753454Y-56895185D01*
X88799209Y-56947989D01*
X88804118Y-56960489D01*
X88839672Y-57067784D01*
X88840185Y-57069331D01*
X88840187Y-57069336D01*
X88861224Y-57103442D01*
X88932288Y-57218656D01*
X89056344Y-57342712D01*
X89205666Y-57434814D01*
X89372203Y-57489999D01*
X89474991Y-57500500D01*
X90100008Y-57500499D01*
X90100016Y-57500498D01*
X90100019Y-57500498D01*
X90156302Y-57494748D01*
X90202797Y-57489999D01*
X90369334Y-57434814D01*
X90518656Y-57342712D01*
X90612675Y-57248692D01*
X90673994Y-57215210D01*
X90743686Y-57220194D01*
X90788034Y-57248695D01*
X90881654Y-57342315D01*
X91030875Y-57434356D01*
X91030880Y-57434358D01*
X91197302Y-57489505D01*
X91197309Y-57489506D01*
X91300019Y-57499999D01*
X91362499Y-57499998D01*
X91362500Y-57499998D01*
X91362500Y-56550000D01*
X91862500Y-56550000D01*
X91862500Y-57499999D01*
X91924972Y-57499999D01*
X91924986Y-57499998D01*
X92027697Y-57489505D01*
X92194119Y-57434358D01*
X92194124Y-57434356D01*
X92343345Y-57342315D01*
X92467315Y-57218345D01*
X92559356Y-57069124D01*
X92559358Y-57069119D01*
X92614505Y-56902697D01*
X92614506Y-56902690D01*
X92624999Y-56799986D01*
X92625000Y-56799973D01*
X92625000Y-56550000D01*
X91862500Y-56550000D01*
X91362500Y-56550000D01*
X91362500Y-55100000D01*
X91362499Y-55099999D01*
X91300028Y-55100000D01*
X91300011Y-55100001D01*
X91197302Y-55110494D01*
X91030880Y-55165641D01*
X91030875Y-55165643D01*
X90881657Y-55257682D01*
X90788034Y-55351305D01*
X90726710Y-55384789D01*
X90657019Y-55379805D01*
X90612672Y-55351304D01*
X90518657Y-55257289D01*
X90518656Y-55257288D01*
X90369334Y-55165186D01*
X90202797Y-55110001D01*
X90202795Y-55110000D01*
X90100010Y-55099500D01*
X89474998Y-55099500D01*
X89474980Y-55099501D01*
X89372203Y-55110000D01*
X89372200Y-55110001D01*
X89205668Y-55165185D01*
X89205663Y-55165187D01*
X89056342Y-55257289D01*
X88932289Y-55381342D01*
X88840187Y-55530663D01*
X88840186Y-55530666D01*
X88813301Y-55611801D01*
X88804121Y-55639504D01*
X88764348Y-55696949D01*
X88699833Y-55723772D01*
X88686415Y-55724500D01*
X88374499Y-55724500D01*
X88307460Y-55704815D01*
X88261705Y-55652011D01*
X88250499Y-55600500D01*
X88250499Y-55402129D01*
X88250498Y-55402123D01*
X88250497Y-55402116D01*
X88244091Y-55342517D01*
X88212375Y-55257483D01*
X88193797Y-55207671D01*
X88193793Y-55207664D01*
X88107547Y-55092455D01*
X88107544Y-55092452D01*
X87992335Y-55006206D01*
X87992328Y-55006202D01*
X87857482Y-54955908D01*
X87857483Y-54955908D01*
X87797883Y-54949501D01*
X87797881Y-54949500D01*
X87797873Y-54949500D01*
X87797864Y-54949500D01*
X86002129Y-54949500D01*
X86002123Y-54949501D01*
X85942516Y-54955908D01*
X85807671Y-55006202D01*
X85807664Y-55006206D01*
X85692455Y-55092452D01*
X85692452Y-55092455D01*
X85606206Y-55207664D01*
X85606202Y-55207671D01*
X85555908Y-55342517D01*
X85549754Y-55399765D01*
X85549501Y-55402123D01*
X85549500Y-55402135D01*
X85549500Y-57197870D01*
X85549501Y-57197876D01*
X85555908Y-57257483D01*
X85606202Y-57392328D01*
X85606206Y-57392335D01*
X85692452Y-57507544D01*
X85692455Y-57507547D01*
X85807664Y-57593793D01*
X85807671Y-57593797D01*
X85939081Y-57642810D01*
X85995015Y-57684681D01*
X86019432Y-57750145D01*
X86004580Y-57818418D01*
X85983430Y-57846673D01*
X85861503Y-57968600D01*
X85726348Y-58161623D01*
X85671771Y-58205248D01*
X85624773Y-58214500D01*
X84950453Y-58214500D01*
X84883414Y-58194815D01*
X84862772Y-58178181D01*
X84161819Y-57477228D01*
X84128334Y-57415905D01*
X84125500Y-57389547D01*
X84125500Y-48890452D01*
X84145185Y-48823413D01*
X84161819Y-48802771D01*
X86564609Y-46399981D01*
X89124354Y-43840235D01*
X89185675Y-43806752D01*
X89244123Y-43808142D01*
X89344592Y-43835063D01*
X89521034Y-43850500D01*
X89579999Y-43855659D01*
X89580000Y-43855659D01*
X89580001Y-43855659D01*
X89638966Y-43850500D01*
X89815408Y-43835063D01*
X90043663Y-43773903D01*
X90257830Y-43674035D01*
X90451401Y-43538495D01*
X90618495Y-43371401D01*
X90748425Y-43185842D01*
X90803002Y-43142217D01*
X90872500Y-43135023D01*
X90934855Y-43166546D01*
X90951575Y-43185842D01*
X91081281Y-43371082D01*
X91081505Y-43371401D01*
X91248599Y-43538495D01*
X91441624Y-43673653D01*
X91485248Y-43728228D01*
X91494500Y-43775226D01*
X91494500Y-53037255D01*
X91492775Y-53052872D01*
X91493061Y-53052899D01*
X91492326Y-53060665D01*
X91494500Y-53129814D01*
X91494500Y-53159343D01*
X91494501Y-53159360D01*
X91495368Y-53166231D01*
X91495826Y-53172050D01*
X91497290Y-53218624D01*
X91497291Y-53218627D01*
X91502880Y-53237867D01*
X91506824Y-53256911D01*
X91509336Y-53276792D01*
X91519383Y-53302169D01*
X91526490Y-53320119D01*
X91528382Y-53325647D01*
X91541381Y-53370388D01*
X91551580Y-53387634D01*
X91560136Y-53405100D01*
X91567514Y-53423732D01*
X91594898Y-53461423D01*
X91598106Y-53466307D01*
X91621827Y-53506416D01*
X91621833Y-53506424D01*
X91635990Y-53520580D01*
X91648627Y-53535375D01*
X91660406Y-53551587D01*
X91696308Y-53581288D01*
X91700619Y-53585210D01*
X91838182Y-53722772D01*
X91871666Y-53784093D01*
X91874500Y-53810452D01*
X91874500Y-54417256D01*
X91872775Y-54432873D01*
X91873061Y-54432900D01*
X91872326Y-54440666D01*
X91874500Y-54509815D01*
X91874500Y-54539344D01*
X91874501Y-54539361D01*
X91875368Y-54546232D01*
X91875826Y-54552051D01*
X91877290Y-54598625D01*
X91877291Y-54598628D01*
X91882880Y-54617868D01*
X91886824Y-54636912D01*
X91889336Y-54656792D01*
X91906490Y-54700120D01*
X91908382Y-54705648D01*
X91921381Y-54750389D01*
X91931580Y-54767635D01*
X91940138Y-54785104D01*
X91947514Y-54803733D01*
X91974898Y-54841424D01*
X91978106Y-54846308D01*
X92001827Y-54886417D01*
X92001834Y-54886426D01*
X92003727Y-54888319D01*
X92004736Y-54890167D01*
X92006613Y-54892587D01*
X92006222Y-54892889D01*
X92037212Y-54949642D01*
X92032228Y-55019334D01*
X91990356Y-55075267D01*
X91924892Y-55099684D01*
X91916046Y-55100000D01*
X91862500Y-55100000D01*
X91862500Y-56050000D01*
X92624999Y-56050000D01*
X92624999Y-55808952D01*
X92644684Y-55741913D01*
X92697488Y-55696158D01*
X92766646Y-55686214D01*
X92830202Y-55715239D01*
X92836680Y-55721271D01*
X93381569Y-56266160D01*
X93415054Y-56327483D01*
X93417888Y-56353841D01*
X93417888Y-57407914D01*
X93398203Y-57474953D01*
X93345399Y-57520708D01*
X93328484Y-57526990D01*
X93270493Y-57543838D01*
X93270491Y-57543839D01*
X93129025Y-57627501D01*
X93129017Y-57627507D01*
X93012811Y-57743713D01*
X93012805Y-57743721D01*
X92929143Y-57885187D01*
X92929142Y-57885190D01*
X92883290Y-58043010D01*
X92883289Y-58043016D01*
X92880388Y-58079888D01*
X92880388Y-58478326D01*
X92860703Y-58545365D01*
X92807899Y-58591120D01*
X92738741Y-58601064D01*
X92690030Y-58580398D01*
X92689159Y-58581872D01*
X92541084Y-58494301D01*
X92541081Y-58494300D01*
X92383383Y-58448484D01*
X92383377Y-58448483D01*
X92346532Y-58445584D01*
X92018388Y-58445584D01*
X92018388Y-58995584D01*
X92928182Y-58995584D01*
X92952445Y-58969336D01*
X93012406Y-58933469D01*
X93082240Y-58935713D01*
X93121900Y-58960114D01*
X93122857Y-58958882D01*
X93129020Y-58963662D01*
X93129023Y-58963665D01*
X93270490Y-59047328D01*
X93276813Y-59049165D01*
X93428314Y-59093181D01*
X93428317Y-59093181D01*
X93428319Y-59093182D01*
X93440610Y-59094149D01*
X93465192Y-59096084D01*
X93465194Y-59096084D01*
X94621584Y-59096084D01*
X94640019Y-59094633D01*
X94658457Y-59093182D01*
X94658459Y-59093181D01*
X94658461Y-59093181D01*
X94711863Y-59077666D01*
X94816286Y-59047328D01*
X94957753Y-58963665D01*
X95073969Y-58847449D01*
X95157632Y-58705982D01*
X95203486Y-58548153D01*
X95206388Y-58511278D01*
X95206388Y-58079890D01*
X95203486Y-58043015D01*
X95203023Y-58041423D01*
X95165820Y-57913368D01*
X95157632Y-57885186D01*
X95073969Y-57743719D01*
X95073967Y-57743717D01*
X95073964Y-57743713D01*
X94957758Y-57627507D01*
X94957750Y-57627501D01*
X94816284Y-57543839D01*
X94816282Y-57543838D01*
X94758292Y-57526990D01*
X94699406Y-57489383D01*
X94670201Y-57425910D01*
X94668888Y-57407914D01*
X94668888Y-56126126D01*
X94670612Y-56110512D01*
X94670326Y-56110485D01*
X94671060Y-56102722D01*
X94668888Y-56033592D01*
X94668888Y-56004040D01*
X94668888Y-56004039D01*
X94668017Y-55997148D01*
X94667560Y-55991334D01*
X94666097Y-55944761D01*
X94660510Y-55925533D01*
X94656562Y-55906473D01*
X94654052Y-55886597D01*
X94636895Y-55843264D01*
X94635007Y-55837748D01*
X94622007Y-55793001D01*
X94611806Y-55775752D01*
X94603248Y-55758283D01*
X94595874Y-55739657D01*
X94595871Y-55739653D01*
X94595871Y-55739652D01*
X94568486Y-55701960D01*
X94565278Y-55697076D01*
X94541560Y-55656971D01*
X94541551Y-55656960D01*
X94527393Y-55642802D01*
X94514758Y-55628009D01*
X94502981Y-55611801D01*
X94467081Y-55582102D01*
X94462769Y-55578179D01*
X93161819Y-54277229D01*
X93128334Y-54215906D01*
X93125500Y-54189548D01*
X93125500Y-53582738D01*
X93127224Y-53567124D01*
X93126938Y-53567097D01*
X93127672Y-53559334D01*
X93125500Y-53490203D01*
X93125500Y-53460651D01*
X93125500Y-53460650D01*
X93124629Y-53453759D01*
X93124172Y-53447945D01*
X93122709Y-53401372D01*
X93117122Y-53382144D01*
X93113174Y-53363084D01*
X93110664Y-53343208D01*
X93093507Y-53299875D01*
X93091619Y-53294359D01*
X93078619Y-53249612D01*
X93068418Y-53232363D01*
X93059860Y-53214894D01*
X93052486Y-53196268D01*
X93052483Y-53196264D01*
X93052483Y-53196263D01*
X93025098Y-53158571D01*
X93021890Y-53153687D01*
X92998172Y-53113582D01*
X92998163Y-53113571D01*
X92984005Y-53099413D01*
X92971370Y-53084620D01*
X92959593Y-53068412D01*
X92923693Y-53038713D01*
X92919381Y-53034790D01*
X92781819Y-52897228D01*
X92748334Y-52835905D01*
X92745500Y-52809547D01*
X92745500Y-50183084D01*
X93705888Y-50183084D01*
X94655888Y-50183084D01*
X94655888Y-49420584D01*
X95155888Y-49420584D01*
X95155888Y-50183084D01*
X96105887Y-50183084D01*
X96105887Y-50120612D01*
X96105886Y-50120597D01*
X96095393Y-50017886D01*
X96040246Y-49851464D01*
X96040244Y-49851459D01*
X95948203Y-49702238D01*
X95824233Y-49578268D01*
X95675012Y-49486227D01*
X95675007Y-49486225D01*
X95508585Y-49431078D01*
X95508578Y-49431077D01*
X95405874Y-49420584D01*
X95155888Y-49420584D01*
X94655888Y-49420584D01*
X94405917Y-49420584D01*
X94405900Y-49420585D01*
X94303190Y-49431078D01*
X94136768Y-49486225D01*
X94136763Y-49486227D01*
X93987542Y-49578268D01*
X93863572Y-49702238D01*
X93771531Y-49851459D01*
X93771529Y-49851464D01*
X93716382Y-50017886D01*
X93716381Y-50017893D01*
X93705888Y-50120597D01*
X93705888Y-50183084D01*
X92745500Y-50183084D01*
X92745500Y-43775226D01*
X92765185Y-43708187D01*
X92798374Y-43673654D01*
X92991401Y-43538495D01*
X93158495Y-43371401D01*
X93288425Y-43185842D01*
X93343002Y-43142217D01*
X93412500Y-43135023D01*
X93474855Y-43166546D01*
G37*
G04 #@! TD.AperFunction*
G04 #@! TA.AperFunction,Conductor*
G36*
X102768039Y-64969685D02*
G01*
X102813794Y-65022489D01*
X102825000Y-65074000D01*
X102825000Y-66174999D01*
X102848308Y-66174999D01*
X102848322Y-66174998D01*
X102947607Y-66164855D01*
X103036496Y-66135401D01*
X103106324Y-66132999D01*
X103166366Y-66168731D01*
X103197559Y-66231251D01*
X103199500Y-66253107D01*
X103199500Y-66786730D01*
X103179815Y-66853769D01*
X103163181Y-66874411D01*
X102903827Y-67133765D01*
X102842504Y-67167250D01*
X102816146Y-67170084D01*
X101724500Y-67170084D01*
X101657461Y-67150399D01*
X101611706Y-67097595D01*
X101600500Y-67046084D01*
X101600500Y-66155424D01*
X101620185Y-66088385D01*
X101659402Y-66049886D01*
X101703044Y-66022968D01*
X101712668Y-66013343D01*
X101773987Y-65979856D01*
X101843679Y-65984835D01*
X101888034Y-66013339D01*
X101897267Y-66022572D01*
X101897271Y-66022575D01*
X102041507Y-66111542D01*
X102041518Y-66111547D01*
X102202393Y-66164855D01*
X102301683Y-66174999D01*
X102325000Y-66174998D01*
X102325000Y-65074000D01*
X102344685Y-65006961D01*
X102397489Y-64961206D01*
X102449000Y-64950000D01*
X102701000Y-64950000D01*
X102768039Y-64969685D01*
G37*
G04 #@! TD.AperFunction*
G04 #@! TA.AperFunction,Conductor*
G36*
X99603638Y-56889178D02*
G01*
X99647985Y-56917679D01*
X99741648Y-57011342D01*
X99838401Y-57071019D01*
X99885125Y-57122965D01*
X99897304Y-57176557D01*
X99897304Y-58170719D01*
X99896773Y-58178821D01*
X99892339Y-58212498D01*
X99896825Y-58246583D01*
X99896827Y-58246598D01*
X99912117Y-58362735D01*
X99925451Y-58394926D01*
X99970106Y-58502734D01*
X100040484Y-58594452D01*
X100040493Y-58594463D01*
X100062350Y-58622948D01*
X100062351Y-58622949D01*
X100062353Y-58622951D01*
X100076544Y-58633840D01*
X100089310Y-58643636D01*
X100095413Y-58648989D01*
X100281120Y-58834696D01*
X100314605Y-58896019D01*
X100309621Y-58965711D01*
X100292708Y-58996684D01*
X100280440Y-59013072D01*
X100280435Y-59013081D01*
X100254114Y-59083653D01*
X100212243Y-59139587D01*
X100146778Y-59164004D01*
X100078505Y-59149152D01*
X100029100Y-59099747D01*
X100025553Y-59085852D01*
X100013932Y-59074231D01*
X99853565Y-59074231D01*
X99794037Y-59080632D01*
X99794030Y-59080634D01*
X99659323Y-59130876D01*
X99659316Y-59130880D01*
X99544222Y-59217040D01*
X99544219Y-59217043D01*
X99458059Y-59332137D01*
X99458055Y-59332144D01*
X99407813Y-59466851D01*
X99407811Y-59466858D01*
X99402769Y-59513757D01*
X99376031Y-59578308D01*
X99318638Y-59618156D01*
X99279480Y-59624501D01*
X98505388Y-59624501D01*
X98438349Y-59604816D01*
X98392594Y-59552012D01*
X98381388Y-59500501D01*
X98381388Y-59199801D01*
X98401073Y-59132762D01*
X98413238Y-59116829D01*
X98443110Y-59083653D01*
X98538421Y-58977800D01*
X98633067Y-58813868D01*
X98691562Y-58633840D01*
X98711348Y-58445584D01*
X98691562Y-58257328D01*
X98633067Y-58077300D01*
X98538421Y-57913368D01*
X98437699Y-57801505D01*
X98434065Y-57797469D01*
X98403835Y-57734478D01*
X98412460Y-57665142D01*
X98438531Y-57626819D01*
X98859903Y-57205448D01*
X98921226Y-57171963D01*
X98947584Y-57169129D01*
X98960306Y-57169129D01*
X98960312Y-57169129D01*
X99063101Y-57158629D01*
X99229638Y-57103444D01*
X99378960Y-57011342D01*
X99472623Y-56917679D01*
X99533946Y-56884194D01*
X99603638Y-56889178D01*
G37*
G04 #@! TD.AperFunction*
G04 #@! TA.AperFunction,Conductor*
G36*
X115028755Y-36765269D02*
G01*
X115074510Y-36818073D01*
X115084454Y-36887231D01*
X115056224Y-36949860D01*
X114974921Y-37045576D01*
X114774106Y-37341756D01*
X114606494Y-37657906D01*
X114606485Y-37657924D01*
X114474037Y-37990344D01*
X114474035Y-37990351D01*
X114378309Y-38335126D01*
X114378303Y-38335152D01*
X114320415Y-38688252D01*
X114320414Y-38688269D01*
X114301041Y-39045581D01*
X114301041Y-39045586D01*
X114320414Y-39402898D01*
X114320415Y-39402915D01*
X114378303Y-39756015D01*
X114378309Y-39756041D01*
X114474035Y-40100816D01*
X114474037Y-40100823D01*
X114606485Y-40433243D01*
X114606494Y-40433261D01*
X114774106Y-40749411D01*
X114974921Y-41045591D01*
X115102329Y-41195587D01*
X115102330Y-41195588D01*
X116308154Y-39989764D01*
X116471018Y-40180454D01*
X116661706Y-40343316D01*
X115453143Y-41551879D01*
X115453144Y-41551880D01*
X115466373Y-41564412D01*
X115466374Y-41564413D01*
X115751255Y-41780972D01*
X115751258Y-41780974D01*
X116057878Y-41965460D01*
X116382627Y-42115706D01*
X116382632Y-42115707D01*
X116721743Y-42229967D01*
X117071227Y-42306895D01*
X117426963Y-42345583D01*
X117426973Y-42345584D01*
X117784803Y-42345584D01*
X117784812Y-42345583D01*
X118140548Y-42306895D01*
X118490032Y-42229967D01*
X118829143Y-42115707D01*
X118829148Y-42115706D01*
X119153897Y-41965460D01*
X119460517Y-41780974D01*
X119460520Y-41780972D01*
X119706847Y-41593721D01*
X119772129Y-41568822D01*
X119840510Y-41583169D01*
X119890278Y-41632208D01*
X119905888Y-41692437D01*
X119905888Y-69598730D01*
X119886203Y-69665769D01*
X119833399Y-69711524D01*
X119764241Y-69721468D01*
X119706847Y-69697446D01*
X119460520Y-69510195D01*
X119460517Y-69510193D01*
X119153897Y-69325707D01*
X118829148Y-69175461D01*
X118829143Y-69175460D01*
X118490032Y-69061200D01*
X118140548Y-68984272D01*
X117784812Y-68945584D01*
X117426963Y-68945584D01*
X117071227Y-68984272D01*
X116721743Y-69061200D01*
X116382632Y-69175460D01*
X116382627Y-69175461D01*
X116057878Y-69325707D01*
X115751258Y-69510193D01*
X115751255Y-69510195D01*
X115466379Y-69726750D01*
X115453144Y-69739287D01*
X115453143Y-69739287D01*
X116661706Y-70947850D01*
X116471018Y-71110714D01*
X116308154Y-71301402D01*
X115102330Y-70095578D01*
X115102329Y-70095579D01*
X114974928Y-70245567D01*
X114974921Y-70245577D01*
X114774106Y-70541756D01*
X114606494Y-70857906D01*
X114606485Y-70857924D01*
X114474037Y-71190344D01*
X114474035Y-71190351D01*
X114378309Y-71535126D01*
X114378303Y-71535152D01*
X114320415Y-71888252D01*
X114320414Y-71888269D01*
X114301041Y-72245581D01*
X114301041Y-72245586D01*
X114320414Y-72602898D01*
X114320415Y-72602915D01*
X114378303Y-72956015D01*
X114378309Y-72956041D01*
X114474035Y-73300816D01*
X114474037Y-73300823D01*
X114606485Y-73633243D01*
X114606494Y-73633261D01*
X114774106Y-73949411D01*
X114974921Y-74245591D01*
X115056224Y-74341308D01*
X115084622Y-74405146D01*
X115073998Y-74474203D01*
X115027725Y-74526554D01*
X114961716Y-74545584D01*
X87050060Y-74545584D01*
X86983021Y-74525899D01*
X86937266Y-74473095D01*
X86927322Y-74403937D01*
X86955552Y-74341308D01*
X87036854Y-74245591D01*
X87237669Y-73949411D01*
X87405281Y-73633261D01*
X87405290Y-73633243D01*
X87537738Y-73300823D01*
X87537740Y-73300816D01*
X87633466Y-72956041D01*
X87633472Y-72956015D01*
X87691360Y-72602915D01*
X87691361Y-72602898D01*
X87710735Y-72245586D01*
X87710735Y-72245581D01*
X87691361Y-71888269D01*
X87691360Y-71888252D01*
X87633472Y-71535152D01*
X87633466Y-71535126D01*
X87537740Y-71190351D01*
X87537738Y-71190344D01*
X87405290Y-70857924D01*
X87405281Y-70857906D01*
X87237669Y-70541756D01*
X87036854Y-70245576D01*
X86909445Y-70095579D01*
X86909444Y-70095578D01*
X85703620Y-71301402D01*
X85540758Y-71110714D01*
X85350068Y-70947850D01*
X86558631Y-69739287D01*
X86558630Y-69739286D01*
X86545402Y-69726755D01*
X86545401Y-69726754D01*
X86260520Y-69510195D01*
X86260517Y-69510193D01*
X85953897Y-69325707D01*
X85629148Y-69175461D01*
X85629143Y-69175460D01*
X85290032Y-69061200D01*
X84940548Y-68984272D01*
X84584812Y-68945584D01*
X84226963Y-68945584D01*
X83871227Y-68984272D01*
X83521743Y-69061200D01*
X83182632Y-69175460D01*
X83182627Y-69175461D01*
X82857878Y-69325707D01*
X82551258Y-69510193D01*
X82551255Y-69510195D01*
X82304929Y-69697446D01*
X82239647Y-69722345D01*
X82171266Y-69707998D01*
X82121497Y-69658959D01*
X82105888Y-69598730D01*
X82105888Y-48560195D01*
X82869840Y-48560195D01*
X82874225Y-48606583D01*
X82874500Y-48612421D01*
X82874500Y-57617255D01*
X82872775Y-57632872D01*
X82873061Y-57632899D01*
X82872327Y-57640665D01*
X82874500Y-57709802D01*
X82874500Y-57739343D01*
X82874501Y-57739360D01*
X82875368Y-57746231D01*
X82875826Y-57752050D01*
X82877290Y-57798624D01*
X82877291Y-57798627D01*
X82882880Y-57817867D01*
X82886824Y-57836911D01*
X82889336Y-57856792D01*
X82897928Y-57878493D01*
X82906490Y-57900119D01*
X82908382Y-57905647D01*
X82921381Y-57950388D01*
X82931580Y-57967634D01*
X82940138Y-57985103D01*
X82947514Y-58003732D01*
X82974898Y-58041423D01*
X82978106Y-58046307D01*
X83001827Y-58086416D01*
X83001833Y-58086424D01*
X83015990Y-58100580D01*
X83028628Y-58115376D01*
X83040405Y-58131586D01*
X83040406Y-58131587D01*
X83076309Y-58161288D01*
X83080620Y-58165210D01*
X83875523Y-58960114D01*
X84139197Y-59223788D01*
X84149022Y-59236051D01*
X84149243Y-59235869D01*
X84154214Y-59241878D01*
X84180217Y-59266295D01*
X84204635Y-59289226D01*
X84225529Y-59310120D01*
X84231011Y-59314373D01*
X84235443Y-59318157D01*
X84269418Y-59350062D01*
X84286976Y-59359714D01*
X84303235Y-59370395D01*
X84319064Y-59382673D01*
X84361838Y-59401182D01*
X84367056Y-59403738D01*
X84407908Y-59426197D01*
X84427316Y-59431180D01*
X84445717Y-59437480D01*
X84464104Y-59445437D01*
X84507488Y-59452308D01*
X84510119Y-59452725D01*
X84515839Y-59453909D01*
X84560981Y-59465500D01*
X84581016Y-59465500D01*
X84600414Y-59467026D01*
X84620194Y-59470159D01*
X84620195Y-59470160D01*
X84620195Y-59470159D01*
X84620196Y-59470160D01*
X84666584Y-59465775D01*
X84672422Y-59465500D01*
X85624773Y-59465500D01*
X85691812Y-59485185D01*
X85726348Y-59518377D01*
X85861501Y-59711396D01*
X85861506Y-59711402D01*
X86028597Y-59878493D01*
X86028603Y-59878498D01*
X86214158Y-60008425D01*
X86257783Y-60063002D01*
X86264977Y-60132500D01*
X86233454Y-60194855D01*
X86214158Y-60211575D01*
X86028597Y-60341505D01*
X85861505Y-60508597D01*
X85725965Y-60702169D01*
X85725964Y-60702171D01*
X85626098Y-60916335D01*
X85626094Y-60916344D01*
X85564938Y-61144586D01*
X85564936Y-61144596D01*
X85544341Y-61379999D01*
X85544341Y-61380000D01*
X85564936Y-61615403D01*
X85564938Y-61615413D01*
X85626094Y-61843655D01*
X85626096Y-61843659D01*
X85626097Y-61843663D01*
X85716140Y-62036760D01*
X85725965Y-62057830D01*
X85725967Y-62057834D01*
X85800572Y-62164380D01*
X85861505Y-62251401D01*
X86028599Y-62418495D01*
X86112200Y-62477033D01*
X86222168Y-62554034D01*
X86222172Y-62554036D01*
X86239204Y-62561978D01*
X86291644Y-62608149D01*
X86302096Y-62628719D01*
X86306490Y-62639818D01*
X86308382Y-62645344D01*
X86321381Y-62690084D01*
X86331580Y-62707330D01*
X86340138Y-62724799D01*
X86347514Y-62743428D01*
X86374898Y-62781119D01*
X86378106Y-62786003D01*
X86401827Y-62826112D01*
X86401833Y-62826120D01*
X86415990Y-62840276D01*
X86428628Y-62855072D01*
X86440405Y-62871282D01*
X86440406Y-62871283D01*
X86476309Y-62900984D01*
X86480620Y-62904906D01*
X94117469Y-70541756D01*
X96605085Y-73029372D01*
X96614910Y-73041635D01*
X96615131Y-73041453D01*
X96620102Y-73047462D01*
X96640931Y-73067021D01*
X96670523Y-73094810D01*
X96691417Y-73115704D01*
X96696899Y-73119957D01*
X96701331Y-73123741D01*
X96735306Y-73155646D01*
X96752864Y-73165298D01*
X96769123Y-73175979D01*
X96784952Y-73188257D01*
X96827726Y-73206766D01*
X96832944Y-73209322D01*
X96873796Y-73231781D01*
X96893204Y-73236764D01*
X96911605Y-73243064D01*
X96929992Y-73251021D01*
X96973376Y-73257892D01*
X96976007Y-73258309D01*
X96981727Y-73259493D01*
X97026869Y-73271084D01*
X97046904Y-73271084D01*
X97066302Y-73272610D01*
X97086082Y-73275743D01*
X97086083Y-73275744D01*
X97086083Y-73275743D01*
X97086084Y-73275744D01*
X97132472Y-73271359D01*
X97138310Y-73271084D01*
X100911673Y-73271084D01*
X100927293Y-73272808D01*
X100927320Y-73272523D01*
X100935076Y-73273255D01*
X100935083Y-73273257D01*
X101004230Y-73271084D01*
X101033766Y-73271084D01*
X101040644Y-73270214D01*
X101046457Y-73269756D01*
X101093043Y-73268293D01*
X101112285Y-73262701D01*
X101131328Y-73258758D01*
X101151208Y-73256248D01*
X101194538Y-73239091D01*
X101200062Y-73237201D01*
X101203812Y-73236111D01*
X101244806Y-73224202D01*
X101262045Y-73214006D01*
X101279519Y-73205446D01*
X101298143Y-73198072D01*
X101298143Y-73198071D01*
X101298148Y-73198070D01*
X101335865Y-73170666D01*
X101340721Y-73167476D01*
X101380836Y-73143754D01*
X101395005Y-73129583D01*
X101409795Y-73116952D01*
X101426003Y-73105178D01*
X101455715Y-73069260D01*
X101459628Y-73064960D01*
X102084353Y-72440235D01*
X102145674Y-72406752D01*
X102204125Y-72408143D01*
X102238780Y-72417428D01*
X102304592Y-72435063D01*
X102492918Y-72451539D01*
X102539999Y-72455659D01*
X102540000Y-72455659D01*
X102540001Y-72455659D01*
X102579234Y-72452226D01*
X102775408Y-72435063D01*
X103003663Y-72373903D01*
X103217830Y-72274035D01*
X103411401Y-72138495D01*
X103578495Y-71971401D01*
X103708425Y-71785842D01*
X103763002Y-71742217D01*
X103832500Y-71735023D01*
X103894855Y-71766546D01*
X103911575Y-71785842D01*
X104041500Y-71971395D01*
X104041505Y-71971401D01*
X104208599Y-72138495D01*
X104305384Y-72206265D01*
X104402165Y-72274032D01*
X104402167Y-72274033D01*
X104402170Y-72274035D01*
X104616337Y-72373903D01*
X104844592Y-72435063D01*
X105032918Y-72451539D01*
X105079999Y-72455659D01*
X105080000Y-72455659D01*
X105080001Y-72455659D01*
X105119234Y-72452226D01*
X105315408Y-72435063D01*
X105543663Y-72373903D01*
X105757830Y-72274035D01*
X105951401Y-72138495D01*
X106118495Y-71971401D01*
X106254035Y-71777830D01*
X106353903Y-71563663D01*
X106415063Y-71335408D01*
X106435659Y-71100000D01*
X106415063Y-70864592D01*
X106353903Y-70636337D01*
X106254035Y-70422171D01*
X106248425Y-70414158D01*
X106118494Y-70228597D01*
X105951402Y-70061506D01*
X105951395Y-70061501D01*
X105757831Y-69925965D01*
X105757829Y-69925964D01*
X105687095Y-69892980D01*
X105634656Y-69846807D01*
X105615500Y-69780598D01*
X105615500Y-65799999D01*
X109544341Y-65799999D01*
X109564936Y-66035402D01*
X109564938Y-66035412D01*
X109626094Y-66263654D01*
X109626096Y-66263658D01*
X109626097Y-66263662D01*
X109664276Y-66345536D01*
X109725965Y-66477829D01*
X109725967Y-66477833D01*
X109861501Y-66671394D01*
X109861506Y-66671401D01*
X110028597Y-66838492D01*
X110028603Y-66838497D01*
X110214594Y-66968729D01*
X110258219Y-67023306D01*
X110265413Y-67092804D01*
X110233890Y-67155159D01*
X110214595Y-67171879D01*
X110028922Y-67301889D01*
X110028920Y-67301890D01*
X109861891Y-67468919D01*
X109861886Y-67468925D01*
X109726400Y-67662419D01*
X109726399Y-67662421D01*
X109626570Y-67876506D01*
X109626567Y-67876512D01*
X109569364Y-68089998D01*
X109569364Y-68089999D01*
X110466314Y-68089999D01*
X110440507Y-68130155D01*
X110400000Y-68268110D01*
X110400000Y-68411888D01*
X110440507Y-68549843D01*
X110466314Y-68589999D01*
X109569364Y-68589999D01*
X109626567Y-68803485D01*
X109626570Y-68803491D01*
X109726399Y-69017577D01*
X109861894Y-69211081D01*
X109983946Y-69333133D01*
X110017431Y-69394456D01*
X110012447Y-69464148D01*
X109970575Y-69520081D01*
X109939598Y-69536996D01*
X109807671Y-69586201D01*
X109807664Y-69586205D01*
X109692455Y-69672451D01*
X109692452Y-69672454D01*
X109606206Y-69787663D01*
X109606202Y-69787670D01*
X109555908Y-69922516D01*
X109549501Y-69982115D01*
X109549501Y-69982122D01*
X109549500Y-69982134D01*
X109549500Y-71777869D01*
X109549501Y-71777875D01*
X109555908Y-71837482D01*
X109606202Y-71972327D01*
X109606206Y-71972334D01*
X109692452Y-72087543D01*
X109692455Y-72087546D01*
X109807664Y-72173792D01*
X109807671Y-72173796D01*
X109942517Y-72224090D01*
X109942516Y-72224090D01*
X109949444Y-72224834D01*
X110002127Y-72230499D01*
X111797872Y-72230498D01*
X111857483Y-72224090D01*
X111992331Y-72173795D01*
X112107546Y-72087545D01*
X112193796Y-71972330D01*
X112244091Y-71837482D01*
X112250500Y-71777872D01*
X112250499Y-69982127D01*
X112244440Y-69925766D01*
X112244091Y-69922515D01*
X112193797Y-69787670D01*
X112193793Y-69787663D01*
X112107547Y-69672454D01*
X112107544Y-69672451D01*
X111992335Y-69586205D01*
X111992328Y-69586201D01*
X111860401Y-69536996D01*
X111804467Y-69495125D01*
X111780050Y-69429661D01*
X111794902Y-69361388D01*
X111816053Y-69333132D01*
X111938108Y-69211077D01*
X112073600Y-69017577D01*
X112173429Y-68803491D01*
X112173432Y-68803485D01*
X112230636Y-68589999D01*
X111333686Y-68589999D01*
X111359493Y-68549843D01*
X111400000Y-68411888D01*
X111400000Y-68268110D01*
X111359493Y-68130155D01*
X111333686Y-68089999D01*
X112230636Y-68089999D01*
X112230635Y-68089998D01*
X112173432Y-67876512D01*
X112173429Y-67876506D01*
X112073600Y-67662421D01*
X112073599Y-67662419D01*
X111938113Y-67468925D01*
X111938108Y-67468919D01*
X111771078Y-67301889D01*
X111585405Y-67171878D01*
X111541780Y-67117301D01*
X111534588Y-67047803D01*
X111566110Y-66985448D01*
X111585406Y-66968729D01*
X111720106Y-66874411D01*
X111771401Y-66838494D01*
X111938495Y-66671400D01*
X112074035Y-66477829D01*
X112173903Y-66263662D01*
X112235063Y-66035407D01*
X112255659Y-65799999D01*
X112235063Y-65564591D01*
X112208143Y-65464124D01*
X112209806Y-65394275D01*
X112240235Y-65344352D01*
X115383786Y-62200801D01*
X115396048Y-62190979D01*
X115395865Y-62190758D01*
X115401867Y-62185791D01*
X115401877Y-62185785D01*
X115449241Y-62135347D01*
X115470120Y-62114469D01*
X115474382Y-62108973D01*
X115478150Y-62104562D01*
X115510062Y-62070581D01*
X115519714Y-62053022D01*
X115530389Y-62036771D01*
X115542674Y-62020935D01*
X115561186Y-61978151D01*
X115563742Y-61972934D01*
X115586197Y-61932091D01*
X115591180Y-61912679D01*
X115597477Y-61894290D01*
X115605438Y-61875894D01*
X115612729Y-61829852D01*
X115613908Y-61824161D01*
X115625500Y-61779018D01*
X115625500Y-61758982D01*
X115627027Y-61739581D01*
X115630160Y-61719803D01*
X115625775Y-61673414D01*
X115625500Y-61667576D01*
X115625500Y-60655226D01*
X115645185Y-60588187D01*
X115678374Y-60553654D01*
X115871401Y-60418495D01*
X116038495Y-60251401D01*
X116174035Y-60057830D01*
X116273903Y-59843663D01*
X116335063Y-59615408D01*
X116355659Y-59380000D01*
X116335063Y-59144592D01*
X116279095Y-58935713D01*
X116273905Y-58916344D01*
X116273904Y-58916343D01*
X116273903Y-58916337D01*
X116174035Y-58702171D01*
X116168336Y-58694031D01*
X116038494Y-58508597D01*
X115871402Y-58341506D01*
X115871396Y-58341501D01*
X115685842Y-58211575D01*
X115642217Y-58156998D01*
X115635023Y-58087500D01*
X115666546Y-58025145D01*
X115685842Y-58008425D01*
X115768727Y-57950388D01*
X115871401Y-57878495D01*
X116038495Y-57711401D01*
X116174035Y-57517830D01*
X116273903Y-57303663D01*
X116335063Y-57075408D01*
X116355659Y-56840000D01*
X116335063Y-56604592D01*
X116274161Y-56377300D01*
X116273905Y-56376344D01*
X116273904Y-56376343D01*
X116273903Y-56376337D01*
X116174035Y-56162171D01*
X116166821Y-56151869D01*
X116038496Y-55968600D01*
X115986051Y-55916155D01*
X115916567Y-55846671D01*
X115883084Y-55785351D01*
X115888068Y-55715659D01*
X115929939Y-55659725D01*
X115960915Y-55642810D01*
X116092331Y-55593796D01*
X116207546Y-55507546D01*
X116293796Y-55392331D01*
X116344091Y-55257483D01*
X116350500Y-55197873D01*
X116350499Y-53402128D01*
X116344091Y-53342517D01*
X116336741Y-53322811D01*
X116293797Y-53207671D01*
X116293793Y-53207664D01*
X116207547Y-53092455D01*
X116207544Y-53092452D01*
X116092335Y-53006206D01*
X116092328Y-53006202D01*
X115957482Y-52955908D01*
X115957483Y-52955908D01*
X115897883Y-52949501D01*
X115897881Y-52949500D01*
X115897873Y-52949500D01*
X115897865Y-52949500D01*
X115749500Y-52949500D01*
X115682461Y-52929815D01*
X115636706Y-52877011D01*
X115625500Y-52825500D01*
X115625500Y-49470237D01*
X115627224Y-49454623D01*
X115626938Y-49454596D01*
X115627672Y-49446833D01*
X115625500Y-49377703D01*
X115625500Y-49348151D01*
X115625500Y-49348150D01*
X115624629Y-49341259D01*
X115624172Y-49335445D01*
X115622709Y-49288872D01*
X115617122Y-49269644D01*
X115613174Y-49250584D01*
X115610664Y-49230708D01*
X115593507Y-49187375D01*
X115591619Y-49181859D01*
X115578619Y-49137112D01*
X115568418Y-49119863D01*
X115559860Y-49102394D01*
X115552486Y-49083768D01*
X115552483Y-49083764D01*
X115552483Y-49083763D01*
X115525098Y-49046071D01*
X115521890Y-49041187D01*
X115498172Y-49001082D01*
X115498163Y-49001071D01*
X115484005Y-48986913D01*
X115471370Y-48972120D01*
X115459593Y-48955912D01*
X115423693Y-48926213D01*
X115419381Y-48922290D01*
X113561818Y-47064727D01*
X113528333Y-47003404D01*
X113525499Y-46977046D01*
X113525499Y-46399998D01*
X113525498Y-46399981D01*
X113514999Y-46297203D01*
X113514998Y-46297200D01*
X113459814Y-46130666D01*
X113367712Y-45981344D01*
X113243656Y-45857288D01*
X113094334Y-45765186D01*
X112927797Y-45710001D01*
X112927795Y-45710000D01*
X112825010Y-45699500D01*
X112199998Y-45699500D01*
X112199980Y-45699501D01*
X112097203Y-45710000D01*
X112097200Y-45710001D01*
X111930668Y-45765185D01*
X111930663Y-45765187D01*
X111781345Y-45857287D01*
X111687327Y-45951305D01*
X111626003Y-45984789D01*
X111556312Y-45979805D01*
X111511965Y-45951304D01*
X111418345Y-45857684D01*
X111269124Y-45765643D01*
X111269119Y-45765641D01*
X111102697Y-45710494D01*
X111102690Y-45710493D01*
X110999986Y-45700000D01*
X110937500Y-45700000D01*
X110937500Y-48099999D01*
X110999972Y-48099999D01*
X110999986Y-48099998D01*
X111102697Y-48089505D01*
X111269119Y-48034358D01*
X111269124Y-48034356D01*
X111418342Y-47942317D01*
X111511964Y-47848695D01*
X111573287Y-47815210D01*
X111642979Y-47820194D01*
X111687327Y-47848695D01*
X111781344Y-47942712D01*
X111930666Y-48034814D01*
X112097203Y-48089999D01*
X112199991Y-48100500D01*
X112777047Y-48100499D01*
X112844086Y-48120183D01*
X112864728Y-48136818D01*
X114338181Y-49610271D01*
X114371666Y-49671594D01*
X114374500Y-49697952D01*
X114374500Y-52825500D01*
X114354815Y-52892539D01*
X114302011Y-52938294D01*
X114250501Y-52949500D01*
X114102130Y-52949500D01*
X114102123Y-52949501D01*
X114042516Y-52955908D01*
X113907671Y-53006202D01*
X113907664Y-53006206D01*
X113792455Y-53092452D01*
X113792452Y-53092455D01*
X113706206Y-53207664D01*
X113706202Y-53207671D01*
X113655908Y-53342517D01*
X113651058Y-53387634D01*
X113649501Y-53402123D01*
X113649500Y-53402135D01*
X113649500Y-55197870D01*
X113649501Y-55197876D01*
X113655908Y-55257483D01*
X113706202Y-55392328D01*
X113706206Y-55392335D01*
X113792452Y-55507544D01*
X113792455Y-55507547D01*
X113907664Y-55593793D01*
X113907671Y-55593797D01*
X114039081Y-55642810D01*
X114095015Y-55684681D01*
X114119432Y-55750145D01*
X114104580Y-55818418D01*
X114083430Y-55846673D01*
X113961503Y-55968600D01*
X113825965Y-56162169D01*
X113825964Y-56162171D01*
X113726098Y-56376335D01*
X113726094Y-56376344D01*
X113664938Y-56604586D01*
X113664936Y-56604596D01*
X113644341Y-56839999D01*
X113644341Y-56840000D01*
X113664936Y-57075403D01*
X113664938Y-57075413D01*
X113726094Y-57303655D01*
X113726096Y-57303659D01*
X113726097Y-57303663D01*
X113821170Y-57507547D01*
X113825965Y-57517830D01*
X113825967Y-57517834D01*
X113902759Y-57627503D01*
X113960385Y-57709802D01*
X113961501Y-57711395D01*
X113961506Y-57711402D01*
X114128597Y-57878493D01*
X114128603Y-57878498D01*
X114314158Y-58008425D01*
X114357783Y-58063002D01*
X114364977Y-58132500D01*
X114333454Y-58194855D01*
X114314158Y-58211575D01*
X114128597Y-58341505D01*
X113961505Y-58508597D01*
X113825965Y-58702169D01*
X113825964Y-58702171D01*
X113726098Y-58916335D01*
X113726094Y-58916344D01*
X113664938Y-59144586D01*
X113664936Y-59144596D01*
X113644341Y-59379999D01*
X113644341Y-59380000D01*
X113664936Y-59615403D01*
X113664938Y-59615413D01*
X113726094Y-59843655D01*
X113726096Y-59843659D01*
X113726097Y-59843663D01*
X113798999Y-60000002D01*
X113825965Y-60057830D01*
X113825967Y-60057834D01*
X113895403Y-60156998D01*
X113961505Y-60251401D01*
X114128599Y-60418495D01*
X114321624Y-60553653D01*
X114365248Y-60608228D01*
X114374500Y-60655226D01*
X114374500Y-61389545D01*
X114354815Y-61456584D01*
X114338181Y-61477226D01*
X111355646Y-64459760D01*
X111294323Y-64493245D01*
X111235873Y-64491854D01*
X111135408Y-64464936D01*
X110900001Y-64444340D01*
X110899999Y-64444340D01*
X110664596Y-64464935D01*
X110664586Y-64464937D01*
X110436344Y-64526093D01*
X110436335Y-64526097D01*
X110222171Y-64625963D01*
X110222169Y-64625964D01*
X110028597Y-64761504D01*
X109861505Y-64928596D01*
X109725965Y-65122168D01*
X109725964Y-65122170D01*
X109626098Y-65336334D01*
X109626094Y-65336343D01*
X109564938Y-65564585D01*
X109564936Y-65564595D01*
X109544341Y-65799998D01*
X109544341Y-65799999D01*
X105615500Y-65799999D01*
X105615500Y-62081780D01*
X105616031Y-62073678D01*
X105616439Y-62070583D01*
X105620465Y-62040000D01*
X105620038Y-62036760D01*
X105619797Y-62034929D01*
X105615766Y-62004313D01*
X105615765Y-62004294D01*
X105612511Y-61979579D01*
X105600687Y-61889764D01*
X105571692Y-61819765D01*
X105542699Y-61749768D01*
X105519706Y-61719803D01*
X105472660Y-61658491D01*
X105472656Y-61658486D01*
X105450449Y-61629547D01*
X105432022Y-61615408D01*
X105423490Y-61608861D01*
X105417400Y-61603520D01*
X104186489Y-60372609D01*
X104181136Y-60366506D01*
X104163632Y-60343695D01*
X104160451Y-60339549D01*
X104160449Y-60339547D01*
X104160448Y-60339546D01*
X104131963Y-60317689D01*
X104131952Y-60317680D01*
X104040232Y-60247301D01*
X103913615Y-60194855D01*
X103900236Y-60189313D01*
X103846906Y-60182291D01*
X103784098Y-60174023D01*
X103784083Y-60174021D01*
X103757196Y-60170482D01*
X103750000Y-60169535D01*
X103749999Y-60169535D01*
X103749998Y-60169535D01*
X103730965Y-60172040D01*
X103716317Y-60173969D01*
X103708219Y-60174500D01*
X103523089Y-60174500D01*
X103456050Y-60154815D01*
X103410295Y-60102011D01*
X103399089Y-60050500D01*
X103399089Y-60026368D01*
X103399089Y-60026360D01*
X103397680Y-60013255D01*
X103397680Y-59986751D01*
X103399090Y-59973640D01*
X103399089Y-59526359D01*
X103393596Y-59475262D01*
X103392681Y-59466747D01*
X103342387Y-59331902D01*
X103342383Y-59331895D01*
X103256137Y-59216686D01*
X103256134Y-59216683D01*
X103140925Y-59130437D01*
X103140918Y-59130433D01*
X103012933Y-59082698D01*
X102956999Y-59040827D01*
X102932582Y-58975362D01*
X102947434Y-58907089D01*
X102996839Y-58857684D01*
X103005809Y-58853247D01*
X103058618Y-58829735D01*
X103211759Y-58718472D01*
X103338421Y-58577800D01*
X103433067Y-58413868D01*
X103491562Y-58233840D01*
X103511348Y-58045584D01*
X103491562Y-57857328D01*
X103433067Y-57677300D01*
X103338421Y-57513368D01*
X103211759Y-57372696D01*
X103211758Y-57372695D01*
X103206930Y-57368348D01*
X103207740Y-57367447D01*
X103169158Y-57317418D01*
X103163176Y-57247805D01*
X103177320Y-57210424D01*
X103180193Y-57205448D01*
X103233067Y-57113868D01*
X103291562Y-56933840D01*
X103311348Y-56745584D01*
X103291562Y-56557328D01*
X103233067Y-56377300D01*
X103233064Y-56377294D01*
X103180238Y-56285796D01*
X103163765Y-56217896D01*
X103186618Y-56151869D01*
X103199938Y-56136122D01*
X105289674Y-54046386D01*
X105301936Y-54036564D01*
X105301753Y-54036343D01*
X105307755Y-54031376D01*
X105307765Y-54031370D01*
X105355129Y-53980932D01*
X105376008Y-53960054D01*
X105380261Y-53954570D01*
X105384038Y-53950147D01*
X105415950Y-53916166D01*
X105425602Y-53898607D01*
X105436277Y-53882356D01*
X105448562Y-53866520D01*
X105467074Y-53823736D01*
X105469630Y-53818519D01*
X105492085Y-53777676D01*
X105497068Y-53758264D01*
X105503365Y-53739875D01*
X105511326Y-53721479D01*
X105518617Y-53675437D01*
X105519796Y-53669746D01*
X105531388Y-53624603D01*
X105531388Y-53604567D01*
X105532915Y-53585166D01*
X105533251Y-53583046D01*
X105536048Y-53565388D01*
X105531663Y-53518999D01*
X105531388Y-53513161D01*
X105531388Y-50288625D01*
X105533112Y-50273011D01*
X105532826Y-50272984D01*
X105533560Y-50265221D01*
X105531388Y-50196091D01*
X105531388Y-50166539D01*
X105531388Y-50166538D01*
X105530517Y-50159647D01*
X105530060Y-50153833D01*
X105529016Y-50120612D01*
X105528597Y-50107261D01*
X105523009Y-50088027D01*
X105519062Y-50068969D01*
X105516552Y-50049096D01*
X105510947Y-50034940D01*
X105499395Y-50005763D01*
X105497502Y-50000234D01*
X105484506Y-49955502D01*
X105484505Y-49955498D01*
X105474308Y-49938256D01*
X105465751Y-49920790D01*
X105458374Y-49902156D01*
X105430971Y-49864438D01*
X105427788Y-49859593D01*
X105404058Y-49819467D01*
X105404053Y-49819461D01*
X105389893Y-49805301D01*
X105377258Y-49790508D01*
X105365481Y-49774300D01*
X105329581Y-49744601D01*
X105325269Y-49740678D01*
X102734591Y-47150000D01*
X109675001Y-47150000D01*
X109675001Y-47399986D01*
X109685494Y-47502697D01*
X109740641Y-47669119D01*
X109740643Y-47669124D01*
X109832684Y-47818345D01*
X109956654Y-47942315D01*
X110105875Y-48034356D01*
X110105880Y-48034358D01*
X110272302Y-48089505D01*
X110272309Y-48089506D01*
X110375019Y-48099999D01*
X110437499Y-48099998D01*
X110437500Y-48099998D01*
X110437500Y-47150000D01*
X109675001Y-47150000D01*
X102734591Y-47150000D01*
X102234591Y-46650000D01*
X109675000Y-46650000D01*
X110437500Y-46650000D01*
X110437500Y-45700000D01*
X110437499Y-45699999D01*
X110375028Y-45700000D01*
X110375011Y-45700001D01*
X110272302Y-45710494D01*
X110105880Y-45765641D01*
X110105875Y-45765643D01*
X109956654Y-45857684D01*
X109832684Y-45981654D01*
X109740643Y-46130875D01*
X109740641Y-46130880D01*
X109685494Y-46297302D01*
X109685493Y-46297309D01*
X109675000Y-46400013D01*
X109675000Y-46650000D01*
X102234591Y-46650000D01*
X99526319Y-43941728D01*
X99492834Y-43880405D01*
X99490000Y-43854047D01*
X99490000Y-42935501D01*
X99597685Y-42984680D01*
X99704237Y-43000000D01*
X99775763Y-43000000D01*
X99882315Y-42984680D01*
X99990000Y-42935501D01*
X99990000Y-43830633D01*
X100203483Y-43773433D01*
X100203492Y-43773429D01*
X100417578Y-43673600D01*
X100611082Y-43538105D01*
X100778105Y-43371082D01*
X100913600Y-43177578D01*
X101013429Y-42963492D01*
X101013432Y-42963486D01*
X101070636Y-42750000D01*
X100173686Y-42750000D01*
X100199493Y-42709844D01*
X100240000Y-42571889D01*
X100240000Y-42428111D01*
X100199493Y-42290156D01*
X100173686Y-42250000D01*
X101070636Y-42250000D01*
X101070635Y-42249999D01*
X101013432Y-42036513D01*
X101013429Y-42036507D01*
X100913600Y-41822422D01*
X100913599Y-41822420D01*
X100778113Y-41628926D01*
X100778108Y-41628920D01*
X100611082Y-41461894D01*
X100417578Y-41326399D01*
X100203492Y-41226570D01*
X100203486Y-41226567D01*
X99990000Y-41169364D01*
X99990000Y-42064498D01*
X99882315Y-42015320D01*
X99775763Y-42000000D01*
X99704237Y-42000000D01*
X99597685Y-42015320D01*
X99490000Y-42064498D01*
X99490000Y-41169364D01*
X99489999Y-41169364D01*
X99276513Y-41226567D01*
X99276507Y-41226570D01*
X99062422Y-41326399D01*
X99062420Y-41326400D01*
X98868926Y-41461886D01*
X98868920Y-41461891D01*
X98701891Y-41628920D01*
X98701890Y-41628922D01*
X98571880Y-41814595D01*
X98517303Y-41858219D01*
X98447804Y-41865412D01*
X98385450Y-41833890D01*
X98368730Y-41814594D01*
X98238494Y-41628597D01*
X98071402Y-41461506D01*
X98071395Y-41461501D01*
X97877834Y-41325967D01*
X97877830Y-41325965D01*
X97877828Y-41325964D01*
X97663663Y-41226097D01*
X97663659Y-41226096D01*
X97663655Y-41226094D01*
X97435413Y-41164938D01*
X97435403Y-41164936D01*
X97200001Y-41144341D01*
X97199999Y-41144341D01*
X96964596Y-41164936D01*
X96964586Y-41164938D01*
X96736344Y-41226094D01*
X96736335Y-41226098D01*
X96522171Y-41325964D01*
X96522169Y-41325965D01*
X96328597Y-41461505D01*
X96161505Y-41628597D01*
X96031575Y-41814158D01*
X95976998Y-41857783D01*
X95907500Y-41864977D01*
X95845145Y-41833454D01*
X95828425Y-41814158D01*
X95698494Y-41628597D01*
X95531402Y-41461506D01*
X95531395Y-41461501D01*
X95337834Y-41325967D01*
X95337830Y-41325965D01*
X95337828Y-41325964D01*
X95123663Y-41226097D01*
X95123659Y-41226096D01*
X95123655Y-41226094D01*
X94895413Y-41164938D01*
X94895403Y-41164936D01*
X94660001Y-41144341D01*
X94659999Y-41144341D01*
X94424596Y-41164936D01*
X94424586Y-41164938D01*
X94196344Y-41226094D01*
X94196335Y-41226098D01*
X93982171Y-41325964D01*
X93982169Y-41325965D01*
X93788597Y-41461505D01*
X93621505Y-41628597D01*
X93491575Y-41814158D01*
X93436998Y-41857783D01*
X93367500Y-41864977D01*
X93305145Y-41833454D01*
X93288425Y-41814158D01*
X93158494Y-41628597D01*
X92991402Y-41461506D01*
X92991395Y-41461501D01*
X92797834Y-41325967D01*
X92797830Y-41325965D01*
X92797828Y-41325964D01*
X92583663Y-41226097D01*
X92583659Y-41226096D01*
X92583655Y-41226094D01*
X92355413Y-41164938D01*
X92355403Y-41164936D01*
X92120001Y-41144341D01*
X92119999Y-41144341D01*
X91884596Y-41164936D01*
X91884586Y-41164938D01*
X91656344Y-41226094D01*
X91656335Y-41226098D01*
X91442171Y-41325964D01*
X91442169Y-41325965D01*
X91248597Y-41461505D01*
X91081505Y-41628597D01*
X90951575Y-41814158D01*
X90896998Y-41857783D01*
X90827500Y-41864977D01*
X90765145Y-41833454D01*
X90748425Y-41814158D01*
X90618494Y-41628597D01*
X90451402Y-41461506D01*
X90451395Y-41461501D01*
X90257834Y-41325967D01*
X90257830Y-41325965D01*
X90257828Y-41325964D01*
X90043663Y-41226097D01*
X90043659Y-41226096D01*
X90043655Y-41226094D01*
X89815413Y-41164938D01*
X89815403Y-41164936D01*
X89580001Y-41144341D01*
X89579999Y-41144341D01*
X89344596Y-41164936D01*
X89344586Y-41164938D01*
X89116344Y-41226094D01*
X89116335Y-41226098D01*
X88902171Y-41325964D01*
X88902169Y-41325965D01*
X88708600Y-41461503D01*
X88586673Y-41583430D01*
X88525350Y-41616914D01*
X88455658Y-41611930D01*
X88399725Y-41570058D01*
X88382810Y-41539081D01*
X88333797Y-41407671D01*
X88333793Y-41407664D01*
X88247547Y-41292455D01*
X88247544Y-41292452D01*
X88132335Y-41206206D01*
X88132328Y-41206202D01*
X87997482Y-41155908D01*
X87997483Y-41155908D01*
X87937883Y-41149501D01*
X87937881Y-41149500D01*
X87937873Y-41149500D01*
X87937864Y-41149500D01*
X86142129Y-41149500D01*
X86142123Y-41149501D01*
X86082516Y-41155908D01*
X85947671Y-41206202D01*
X85947664Y-41206206D01*
X85832455Y-41292452D01*
X85832452Y-41292455D01*
X85746206Y-41407664D01*
X85746202Y-41407671D01*
X85695908Y-41542517D01*
X85689501Y-41602116D01*
X85689500Y-41602135D01*
X85689500Y-43397870D01*
X85689501Y-43397876D01*
X85695908Y-43457483D01*
X85746202Y-43592328D01*
X85746206Y-43592335D01*
X85832452Y-43707544D01*
X85832455Y-43707547D01*
X85947664Y-43793793D01*
X85947671Y-43793797D01*
X86082517Y-43844091D01*
X86082516Y-43844091D01*
X86089444Y-43844835D01*
X86142127Y-43850500D01*
X87045546Y-43850499D01*
X87112585Y-43870183D01*
X87158340Y-43922987D01*
X87168284Y-43992146D01*
X87139259Y-44055702D01*
X87133227Y-44062180D01*
X83116208Y-48079199D01*
X83103951Y-48089020D01*
X83104134Y-48089241D01*
X83098123Y-48094213D01*
X83050772Y-48144636D01*
X83029889Y-48165519D01*
X83029877Y-48165532D01*
X83025621Y-48171017D01*
X83021837Y-48175447D01*
X82989937Y-48209418D01*
X82989936Y-48209420D01*
X82980284Y-48226976D01*
X82969610Y-48243226D01*
X82957329Y-48259061D01*
X82957324Y-48259068D01*
X82938815Y-48301838D01*
X82936245Y-48307084D01*
X82913803Y-48347906D01*
X82908822Y-48367307D01*
X82902521Y-48385710D01*
X82894562Y-48404102D01*
X82894561Y-48404105D01*
X82887271Y-48450127D01*
X82886087Y-48455846D01*
X82874501Y-48500972D01*
X82874500Y-48500982D01*
X82874500Y-48521016D01*
X82872973Y-48540415D01*
X82869840Y-48560194D01*
X82869840Y-48560195D01*
X82105888Y-48560195D01*
X82105888Y-36869584D01*
X82125573Y-36802545D01*
X82178377Y-36756790D01*
X82229888Y-36745584D01*
X114961716Y-36745584D01*
X115028755Y-36765269D01*
G37*
G04 #@! TD.AperFunction*
M02*
