%TF.GenerationSoftware,KiCad,Pcbnew,7.0.8-7.0.8~ubuntu22.04.1*%
%TF.CreationDate,2024-01-26T15:47:42+01:00*%
%TF.ProjectId,imu,696d752e-6b69-4636-9164-5f7063625858,rev?*%
%TF.SameCoordinates,Original*%
%TF.FileFunction,Drillmap*%
%TF.FilePolarity,Positive*%
%FSLAX45Y45*%
G04 Gerber Fmt 4.5, Leading zero omitted, Abs format (unit mm)*
G04 Created by KiCad (PCBNEW 7.0.8-7.0.8~ubuntu22.04.1) date 2024-01-26 15:47:42*
%MOMM*%
%LPD*%
G01*
G04 APERTURE LIST*
%ADD10C,0.100000*%
%ADD11C,0.200000*%
%ADD12C,0.040000*%
%ADD13C,0.320000*%
G04 APERTURE END LIST*
D10*
X12000589Y-3664558D02*
X12000589Y-7464558D01*
X8200589Y-7464558D01*
X8200589Y-3664558D01*
X12000589Y-3664558D01*
D11*
D12*
X8530589Y-6524558D02*
X8570589Y-6564558D01*
X8570589Y-6524558D02*
X8530589Y-6564558D01*
X8950589Y-6204558D02*
X8990589Y-6244558D01*
X8990589Y-6204558D02*
X8950589Y-6244558D01*
X9050589Y-7254558D02*
X9090589Y-7294558D01*
X9090589Y-7254558D02*
X9050589Y-7294558D01*
X9760589Y-5824558D02*
X9800589Y-5864558D01*
X9800589Y-5824558D02*
X9760589Y-5864558D01*
X9860589Y-5894558D02*
X9900589Y-5934558D01*
X9900589Y-5894558D02*
X9860589Y-5934558D01*
X10080589Y-6844558D02*
X10120589Y-6884558D01*
X10120589Y-6844558D02*
X10080589Y-6884558D01*
X10220589Y-5654558D02*
X10260589Y-5694558D01*
X10260589Y-5654558D02*
X10220589Y-5694558D01*
X10230589Y-5464558D02*
X10270589Y-5504558D01*
X10270589Y-5464558D02*
X10230589Y-5504558D01*
X10240589Y-5784558D02*
X10280589Y-5824558D01*
X10280589Y-5784558D02*
X10240589Y-5824558D01*
X10240589Y-6664558D02*
X10280589Y-6704558D01*
X10280589Y-6664558D02*
X10240589Y-6704558D01*
D10*
X8740000Y-5630000D02*
G75*
G03*
X8740000Y-5630000I-50000J0D01*
G01*
X8740000Y-5884000D02*
G75*
G03*
X8740000Y-5884000I-50000J0D01*
G01*
X8740000Y-6138000D02*
G75*
G03*
X8740000Y-6138000I-50000J0D01*
G01*
X8754000Y-4250000D02*
G75*
G03*
X8754000Y-4250000I-50000J0D01*
G01*
X9008000Y-4250000D02*
G75*
G03*
X9008000Y-4250000I-50000J0D01*
G01*
X9262000Y-4250000D02*
G75*
G03*
X9262000Y-4250000I-50000J0D01*
G01*
X9516000Y-4250000D02*
G75*
G03*
X9516000Y-4250000I-50000J0D01*
G01*
X9610589Y-6338058D02*
G75*
G03*
X9610589Y-6338058I-50000J0D01*
G01*
X9610589Y-6592058D02*
G75*
G03*
X9610589Y-6592058I-50000J0D01*
G01*
X9770000Y-4250000D02*
G75*
G03*
X9770000Y-4250000I-50000J0D01*
G01*
X10024000Y-4250000D02*
G75*
G03*
X10024000Y-4250000I-50000J0D01*
G01*
X10050000Y-7110000D02*
G75*
G03*
X10050000Y-7110000I-50000J0D01*
G01*
X10304000Y-7110000D02*
G75*
G03*
X10304000Y-7110000I-50000J0D01*
G01*
X10558000Y-7110000D02*
G75*
G03*
X10558000Y-7110000I-50000J0D01*
G01*
X11140000Y-6580000D02*
G75*
G03*
X11140000Y-6580000I-50000J0D01*
G01*
X11140000Y-6834000D02*
G75*
G03*
X11140000Y-6834000I-50000J0D01*
G01*
X11140000Y-7088000D02*
G75*
G03*
X11140000Y-7088000I-50000J0D01*
G01*
X11550000Y-5430000D02*
G75*
G03*
X11550000Y-5430000I-50000J0D01*
G01*
X11550000Y-5684000D02*
G75*
G03*
X11550000Y-5684000I-50000J0D01*
G01*
X11550000Y-5938000D02*
G75*
G03*
X11550000Y-5938000I-50000J0D01*
G01*
D13*
X8440589Y-7064558D02*
X8440589Y-7384558D01*
X8280589Y-7224558D02*
X8600589Y-7224558D01*
X11760589Y-3744558D02*
X11760589Y-4064558D01*
X11600589Y-3904558D02*
X11920589Y-3904558D01*
X11760589Y-7064558D02*
X11760589Y-7384558D01*
X11600589Y-7224558D02*
X11920589Y-7224558D01*
D11*
X8456366Y-7781042D02*
X8456366Y-7581042D01*
X8456366Y-7581042D02*
X8503985Y-7581042D01*
X8503985Y-7581042D02*
X8532556Y-7590566D01*
X8532556Y-7590566D02*
X8551604Y-7609614D01*
X8551604Y-7609614D02*
X8561128Y-7628661D01*
X8561128Y-7628661D02*
X8570651Y-7666756D01*
X8570651Y-7666756D02*
X8570651Y-7695328D01*
X8570651Y-7695328D02*
X8561128Y-7733423D01*
X8561128Y-7733423D02*
X8551604Y-7752471D01*
X8551604Y-7752471D02*
X8532556Y-7771518D01*
X8532556Y-7771518D02*
X8503985Y-7781042D01*
X8503985Y-7781042D02*
X8456366Y-7781042D01*
X8656366Y-7781042D02*
X8656366Y-7647709D01*
X8656366Y-7685804D02*
X8665889Y-7666756D01*
X8665889Y-7666756D02*
X8675413Y-7657233D01*
X8675413Y-7657233D02*
X8694461Y-7647709D01*
X8694461Y-7647709D02*
X8713509Y-7647709D01*
X8780175Y-7781042D02*
X8780175Y-7647709D01*
X8780175Y-7581042D02*
X8770651Y-7590566D01*
X8770651Y-7590566D02*
X8780175Y-7600090D01*
X8780175Y-7600090D02*
X8789699Y-7590566D01*
X8789699Y-7590566D02*
X8780175Y-7581042D01*
X8780175Y-7581042D02*
X8780175Y-7600090D01*
X8903985Y-7781042D02*
X8884937Y-7771518D01*
X8884937Y-7771518D02*
X8875413Y-7752471D01*
X8875413Y-7752471D02*
X8875413Y-7581042D01*
X9008747Y-7781042D02*
X8989699Y-7771518D01*
X8989699Y-7771518D02*
X8980175Y-7752471D01*
X8980175Y-7752471D02*
X8980175Y-7581042D01*
X9237318Y-7781042D02*
X9237318Y-7581042D01*
X9237318Y-7581042D02*
X9303985Y-7723899D01*
X9303985Y-7723899D02*
X9370651Y-7581042D01*
X9370651Y-7581042D02*
X9370651Y-7781042D01*
X9551604Y-7781042D02*
X9551604Y-7676280D01*
X9551604Y-7676280D02*
X9542080Y-7657233D01*
X9542080Y-7657233D02*
X9523032Y-7647709D01*
X9523032Y-7647709D02*
X9484937Y-7647709D01*
X9484937Y-7647709D02*
X9465889Y-7657233D01*
X9551604Y-7771518D02*
X9532556Y-7781042D01*
X9532556Y-7781042D02*
X9484937Y-7781042D01*
X9484937Y-7781042D02*
X9465889Y-7771518D01*
X9465889Y-7771518D02*
X9456366Y-7752471D01*
X9456366Y-7752471D02*
X9456366Y-7733423D01*
X9456366Y-7733423D02*
X9465889Y-7714375D01*
X9465889Y-7714375D02*
X9484937Y-7704852D01*
X9484937Y-7704852D02*
X9532556Y-7704852D01*
X9532556Y-7704852D02*
X9551604Y-7695328D01*
X9646842Y-7647709D02*
X9646842Y-7847709D01*
X9646842Y-7657233D02*
X9665889Y-7647709D01*
X9665889Y-7647709D02*
X9703985Y-7647709D01*
X9703985Y-7647709D02*
X9723032Y-7657233D01*
X9723032Y-7657233D02*
X9732556Y-7666756D01*
X9732556Y-7666756D02*
X9742080Y-7685804D01*
X9742080Y-7685804D02*
X9742080Y-7742947D01*
X9742080Y-7742947D02*
X9732556Y-7761994D01*
X9732556Y-7761994D02*
X9723032Y-7771518D01*
X9723032Y-7771518D02*
X9703985Y-7781042D01*
X9703985Y-7781042D02*
X9665889Y-7781042D01*
X9665889Y-7781042D02*
X9646842Y-7771518D01*
X9827794Y-7761994D02*
X9837318Y-7771518D01*
X9837318Y-7771518D02*
X9827794Y-7781042D01*
X9827794Y-7781042D02*
X9818270Y-7771518D01*
X9818270Y-7771518D02*
X9827794Y-7761994D01*
X9827794Y-7761994D02*
X9827794Y-7781042D01*
X9827794Y-7657233D02*
X9837318Y-7666756D01*
X9837318Y-7666756D02*
X9827794Y-7676280D01*
X9827794Y-7676280D02*
X9818270Y-7666756D01*
X9818270Y-7666756D02*
X9827794Y-7657233D01*
X9827794Y-7657233D02*
X9827794Y-7676280D01*
D12*
X8155589Y-8089558D02*
X8195589Y-8129558D01*
X8195589Y-8089558D02*
X8155589Y-8129558D01*
D11*
X8494461Y-8001042D02*
X8513509Y-8001042D01*
X8513509Y-8001042D02*
X8532556Y-8010566D01*
X8532556Y-8010566D02*
X8542080Y-8020090D01*
X8542080Y-8020090D02*
X8551604Y-8039137D01*
X8551604Y-8039137D02*
X8561128Y-8077233D01*
X8561128Y-8077233D02*
X8561128Y-8124852D01*
X8561128Y-8124852D02*
X8551604Y-8162947D01*
X8551604Y-8162947D02*
X8542080Y-8181994D01*
X8542080Y-8181994D02*
X8532556Y-8191518D01*
X8532556Y-8191518D02*
X8513509Y-8201042D01*
X8513509Y-8201042D02*
X8494461Y-8201042D01*
X8494461Y-8201042D02*
X8475413Y-8191518D01*
X8475413Y-8191518D02*
X8465889Y-8181994D01*
X8465889Y-8181994D02*
X8456366Y-8162947D01*
X8456366Y-8162947D02*
X8446842Y-8124852D01*
X8446842Y-8124852D02*
X8446842Y-8077233D01*
X8446842Y-8077233D02*
X8456366Y-8039137D01*
X8456366Y-8039137D02*
X8465889Y-8020090D01*
X8465889Y-8020090D02*
X8475413Y-8010566D01*
X8475413Y-8010566D02*
X8494461Y-8001042D01*
X8646842Y-8181994D02*
X8656366Y-8191518D01*
X8656366Y-8191518D02*
X8646842Y-8201042D01*
X8646842Y-8201042D02*
X8637318Y-8191518D01*
X8637318Y-8191518D02*
X8646842Y-8181994D01*
X8646842Y-8181994D02*
X8646842Y-8201042D01*
X8827794Y-8067709D02*
X8827794Y-8201042D01*
X8780175Y-7991518D02*
X8732556Y-8134375D01*
X8732556Y-8134375D02*
X8856366Y-8134375D01*
X8970651Y-8001042D02*
X8989699Y-8001042D01*
X8989699Y-8001042D02*
X9008747Y-8010566D01*
X9008747Y-8010566D02*
X9018270Y-8020090D01*
X9018270Y-8020090D02*
X9027794Y-8039137D01*
X9027794Y-8039137D02*
X9037318Y-8077233D01*
X9037318Y-8077233D02*
X9037318Y-8124852D01*
X9037318Y-8124852D02*
X9027794Y-8162947D01*
X9027794Y-8162947D02*
X9018270Y-8181994D01*
X9018270Y-8181994D02*
X9008747Y-8191518D01*
X9008747Y-8191518D02*
X8989699Y-8201042D01*
X8989699Y-8201042D02*
X8970651Y-8201042D01*
X8970651Y-8201042D02*
X8951604Y-8191518D01*
X8951604Y-8191518D02*
X8942080Y-8181994D01*
X8942080Y-8181994D02*
X8932556Y-8162947D01*
X8932556Y-8162947D02*
X8923032Y-8124852D01*
X8923032Y-8124852D02*
X8923032Y-8077233D01*
X8923032Y-8077233D02*
X8932556Y-8039137D01*
X8932556Y-8039137D02*
X8942080Y-8020090D01*
X8942080Y-8020090D02*
X8951604Y-8010566D01*
X8951604Y-8010566D02*
X8970651Y-8001042D01*
X9161128Y-8001042D02*
X9180175Y-8001042D01*
X9180175Y-8001042D02*
X9199223Y-8010566D01*
X9199223Y-8010566D02*
X9208747Y-8020090D01*
X9208747Y-8020090D02*
X9218270Y-8039137D01*
X9218270Y-8039137D02*
X9227794Y-8077233D01*
X9227794Y-8077233D02*
X9227794Y-8124852D01*
X9227794Y-8124852D02*
X9218270Y-8162947D01*
X9218270Y-8162947D02*
X9208747Y-8181994D01*
X9208747Y-8181994D02*
X9199223Y-8191518D01*
X9199223Y-8191518D02*
X9180175Y-8201042D01*
X9180175Y-8201042D02*
X9161128Y-8201042D01*
X9161128Y-8201042D02*
X9142080Y-8191518D01*
X9142080Y-8191518D02*
X9132556Y-8181994D01*
X9132556Y-8181994D02*
X9123032Y-8162947D01*
X9123032Y-8162947D02*
X9113509Y-8124852D01*
X9113509Y-8124852D02*
X9113509Y-8077233D01*
X9113509Y-8077233D02*
X9123032Y-8039137D01*
X9123032Y-8039137D02*
X9132556Y-8020090D01*
X9132556Y-8020090D02*
X9142080Y-8010566D01*
X9142080Y-8010566D02*
X9161128Y-8001042D01*
X9313509Y-8201042D02*
X9313509Y-8067709D01*
X9313509Y-8086756D02*
X9323032Y-8077233D01*
X9323032Y-8077233D02*
X9342080Y-8067709D01*
X9342080Y-8067709D02*
X9370651Y-8067709D01*
X9370651Y-8067709D02*
X9389699Y-8077233D01*
X9389699Y-8077233D02*
X9399223Y-8096280D01*
X9399223Y-8096280D02*
X9399223Y-8201042D01*
X9399223Y-8096280D02*
X9408747Y-8077233D01*
X9408747Y-8077233D02*
X9427794Y-8067709D01*
X9427794Y-8067709D02*
X9456366Y-8067709D01*
X9456366Y-8067709D02*
X9475413Y-8077233D01*
X9475413Y-8077233D02*
X9484937Y-8096280D01*
X9484937Y-8096280D02*
X9484937Y-8201042D01*
X9580175Y-8201042D02*
X9580175Y-8067709D01*
X9580175Y-8086756D02*
X9589699Y-8077233D01*
X9589699Y-8077233D02*
X9608747Y-8067709D01*
X9608747Y-8067709D02*
X9637318Y-8067709D01*
X9637318Y-8067709D02*
X9656366Y-8077233D01*
X9656366Y-8077233D02*
X9665890Y-8096280D01*
X9665890Y-8096280D02*
X9665890Y-8201042D01*
X9665890Y-8096280D02*
X9675413Y-8077233D01*
X9675413Y-8077233D02*
X9694461Y-8067709D01*
X9694461Y-8067709D02*
X9723032Y-8067709D01*
X9723032Y-8067709D02*
X9742080Y-8077233D01*
X9742080Y-8077233D02*
X9751604Y-8096280D01*
X9751604Y-8096280D02*
X9751604Y-8201042D01*
X10142080Y-7991518D02*
X9970652Y-8248661D01*
X10399223Y-8001042D02*
X10418271Y-8001042D01*
X10418271Y-8001042D02*
X10437318Y-8010566D01*
X10437318Y-8010566D02*
X10446842Y-8020090D01*
X10446842Y-8020090D02*
X10456366Y-8039137D01*
X10456366Y-8039137D02*
X10465890Y-8077233D01*
X10465890Y-8077233D02*
X10465890Y-8124852D01*
X10465890Y-8124852D02*
X10456366Y-8162947D01*
X10456366Y-8162947D02*
X10446842Y-8181994D01*
X10446842Y-8181994D02*
X10437318Y-8191518D01*
X10437318Y-8191518D02*
X10418271Y-8201042D01*
X10418271Y-8201042D02*
X10399223Y-8201042D01*
X10399223Y-8201042D02*
X10380175Y-8191518D01*
X10380175Y-8191518D02*
X10370652Y-8181994D01*
X10370652Y-8181994D02*
X10361128Y-8162947D01*
X10361128Y-8162947D02*
X10351604Y-8124852D01*
X10351604Y-8124852D02*
X10351604Y-8077233D01*
X10351604Y-8077233D02*
X10361128Y-8039137D01*
X10361128Y-8039137D02*
X10370652Y-8020090D01*
X10370652Y-8020090D02*
X10380175Y-8010566D01*
X10380175Y-8010566D02*
X10399223Y-8001042D01*
X10551604Y-8181994D02*
X10561128Y-8191518D01*
X10561128Y-8191518D02*
X10551604Y-8201042D01*
X10551604Y-8201042D02*
X10542080Y-8191518D01*
X10542080Y-8191518D02*
X10551604Y-8181994D01*
X10551604Y-8181994D02*
X10551604Y-8201042D01*
X10684937Y-8001042D02*
X10703985Y-8001042D01*
X10703985Y-8001042D02*
X10723033Y-8010566D01*
X10723033Y-8010566D02*
X10732556Y-8020090D01*
X10732556Y-8020090D02*
X10742080Y-8039137D01*
X10742080Y-8039137D02*
X10751604Y-8077233D01*
X10751604Y-8077233D02*
X10751604Y-8124852D01*
X10751604Y-8124852D02*
X10742080Y-8162947D01*
X10742080Y-8162947D02*
X10732556Y-8181994D01*
X10732556Y-8181994D02*
X10723033Y-8191518D01*
X10723033Y-8191518D02*
X10703985Y-8201042D01*
X10703985Y-8201042D02*
X10684937Y-8201042D01*
X10684937Y-8201042D02*
X10665890Y-8191518D01*
X10665890Y-8191518D02*
X10656366Y-8181994D01*
X10656366Y-8181994D02*
X10646842Y-8162947D01*
X10646842Y-8162947D02*
X10637318Y-8124852D01*
X10637318Y-8124852D02*
X10637318Y-8077233D01*
X10637318Y-8077233D02*
X10646842Y-8039137D01*
X10646842Y-8039137D02*
X10656366Y-8020090D01*
X10656366Y-8020090D02*
X10665890Y-8010566D01*
X10665890Y-8010566D02*
X10684937Y-8001042D01*
X10942080Y-8201042D02*
X10827794Y-8201042D01*
X10884937Y-8201042D02*
X10884937Y-8001042D01*
X10884937Y-8001042D02*
X10865890Y-8029614D01*
X10865890Y-8029614D02*
X10846842Y-8048661D01*
X10846842Y-8048661D02*
X10827794Y-8058185D01*
X11123033Y-8001042D02*
X11027794Y-8001042D01*
X11027794Y-8001042D02*
X11018271Y-8096280D01*
X11018271Y-8096280D02*
X11027794Y-8086756D01*
X11027794Y-8086756D02*
X11046842Y-8077233D01*
X11046842Y-8077233D02*
X11094461Y-8077233D01*
X11094461Y-8077233D02*
X11113509Y-8086756D01*
X11113509Y-8086756D02*
X11123033Y-8096280D01*
X11123033Y-8096280D02*
X11132556Y-8115328D01*
X11132556Y-8115328D02*
X11132556Y-8162947D01*
X11132556Y-8162947D02*
X11123033Y-8181994D01*
X11123033Y-8181994D02*
X11113509Y-8191518D01*
X11113509Y-8191518D02*
X11094461Y-8201042D01*
X11094461Y-8201042D02*
X11046842Y-8201042D01*
X11046842Y-8201042D02*
X11027794Y-8191518D01*
X11027794Y-8191518D02*
X11018271Y-8181994D01*
X11199223Y-8001042D02*
X11332556Y-8001042D01*
X11332556Y-8001042D02*
X11246842Y-8201042D01*
X11399223Y-8001042D02*
X11399223Y-8039137D01*
X11475413Y-8001042D02*
X11475413Y-8039137D01*
X11770652Y-8277233D02*
X11761128Y-8267709D01*
X11761128Y-8267709D02*
X11742080Y-8239137D01*
X11742080Y-8239137D02*
X11732556Y-8220090D01*
X11732556Y-8220090D02*
X11723033Y-8191518D01*
X11723033Y-8191518D02*
X11713509Y-8143899D01*
X11713509Y-8143899D02*
X11713509Y-8105804D01*
X11713509Y-8105804D02*
X11723033Y-8058185D01*
X11723033Y-8058185D02*
X11732556Y-8029614D01*
X11732556Y-8029614D02*
X11742080Y-8010566D01*
X11742080Y-8010566D02*
X11761128Y-7981994D01*
X11761128Y-7981994D02*
X11770652Y-7972471D01*
X11951604Y-8201042D02*
X11837318Y-8201042D01*
X11894461Y-8201042D02*
X11894461Y-8001042D01*
X11894461Y-8001042D02*
X11875413Y-8029614D01*
X11875413Y-8029614D02*
X11856366Y-8048661D01*
X11856366Y-8048661D02*
X11837318Y-8058185D01*
X12075413Y-8001042D02*
X12094461Y-8001042D01*
X12094461Y-8001042D02*
X12113509Y-8010566D01*
X12113509Y-8010566D02*
X12123033Y-8020090D01*
X12123033Y-8020090D02*
X12132556Y-8039137D01*
X12132556Y-8039137D02*
X12142080Y-8077233D01*
X12142080Y-8077233D02*
X12142080Y-8124852D01*
X12142080Y-8124852D02*
X12132556Y-8162947D01*
X12132556Y-8162947D02*
X12123033Y-8181994D01*
X12123033Y-8181994D02*
X12113509Y-8191518D01*
X12113509Y-8191518D02*
X12094461Y-8201042D01*
X12094461Y-8201042D02*
X12075413Y-8201042D01*
X12075413Y-8201042D02*
X12056366Y-8191518D01*
X12056366Y-8191518D02*
X12046842Y-8181994D01*
X12046842Y-8181994D02*
X12037318Y-8162947D01*
X12037318Y-8162947D02*
X12027794Y-8124852D01*
X12027794Y-8124852D02*
X12027794Y-8077233D01*
X12027794Y-8077233D02*
X12037318Y-8039137D01*
X12037318Y-8039137D02*
X12046842Y-8020090D01*
X12046842Y-8020090D02*
X12056366Y-8010566D01*
X12056366Y-8010566D02*
X12075413Y-8001042D01*
X12380175Y-8201042D02*
X12380175Y-8001042D01*
X12465890Y-8201042D02*
X12465890Y-8096280D01*
X12465890Y-8096280D02*
X12456366Y-8077233D01*
X12456366Y-8077233D02*
X12437318Y-8067709D01*
X12437318Y-8067709D02*
X12408747Y-8067709D01*
X12408747Y-8067709D02*
X12389699Y-8077233D01*
X12389699Y-8077233D02*
X12380175Y-8086756D01*
X12589699Y-8201042D02*
X12570652Y-8191518D01*
X12570652Y-8191518D02*
X12561128Y-8181994D01*
X12561128Y-8181994D02*
X12551604Y-8162947D01*
X12551604Y-8162947D02*
X12551604Y-8105804D01*
X12551604Y-8105804D02*
X12561128Y-8086756D01*
X12561128Y-8086756D02*
X12570652Y-8077233D01*
X12570652Y-8077233D02*
X12589699Y-8067709D01*
X12589699Y-8067709D02*
X12618271Y-8067709D01*
X12618271Y-8067709D02*
X12637318Y-8077233D01*
X12637318Y-8077233D02*
X12646842Y-8086756D01*
X12646842Y-8086756D02*
X12656366Y-8105804D01*
X12656366Y-8105804D02*
X12656366Y-8162947D01*
X12656366Y-8162947D02*
X12646842Y-8181994D01*
X12646842Y-8181994D02*
X12637318Y-8191518D01*
X12637318Y-8191518D02*
X12618271Y-8201042D01*
X12618271Y-8201042D02*
X12589699Y-8201042D01*
X12770652Y-8201042D02*
X12751604Y-8191518D01*
X12751604Y-8191518D02*
X12742080Y-8172471D01*
X12742080Y-8172471D02*
X12742080Y-8001042D01*
X12923033Y-8191518D02*
X12903985Y-8201042D01*
X12903985Y-8201042D02*
X12865890Y-8201042D01*
X12865890Y-8201042D02*
X12846842Y-8191518D01*
X12846842Y-8191518D02*
X12837318Y-8172471D01*
X12837318Y-8172471D02*
X12837318Y-8096280D01*
X12837318Y-8096280D02*
X12846842Y-8077233D01*
X12846842Y-8077233D02*
X12865890Y-8067709D01*
X12865890Y-8067709D02*
X12903985Y-8067709D01*
X12903985Y-8067709D02*
X12923033Y-8077233D01*
X12923033Y-8077233D02*
X12932556Y-8096280D01*
X12932556Y-8096280D02*
X12932556Y-8115328D01*
X12932556Y-8115328D02*
X12837318Y-8134375D01*
X13008747Y-8191518D02*
X13027795Y-8201042D01*
X13027795Y-8201042D02*
X13065890Y-8201042D01*
X13065890Y-8201042D02*
X13084937Y-8191518D01*
X13084937Y-8191518D02*
X13094461Y-8172471D01*
X13094461Y-8172471D02*
X13094461Y-8162947D01*
X13094461Y-8162947D02*
X13084937Y-8143899D01*
X13084937Y-8143899D02*
X13065890Y-8134375D01*
X13065890Y-8134375D02*
X13037318Y-8134375D01*
X13037318Y-8134375D02*
X13018271Y-8124852D01*
X13018271Y-8124852D02*
X13008747Y-8105804D01*
X13008747Y-8105804D02*
X13008747Y-8096280D01*
X13008747Y-8096280D02*
X13018271Y-8077233D01*
X13018271Y-8077233D02*
X13037318Y-8067709D01*
X13037318Y-8067709D02*
X13065890Y-8067709D01*
X13065890Y-8067709D02*
X13084937Y-8077233D01*
X13161128Y-8277233D02*
X13170652Y-8267709D01*
X13170652Y-8267709D02*
X13189699Y-8239137D01*
X13189699Y-8239137D02*
X13199223Y-8220090D01*
X13199223Y-8220090D02*
X13208747Y-8191518D01*
X13208747Y-8191518D02*
X13218271Y-8143899D01*
X13218271Y-8143899D02*
X13218271Y-8105804D01*
X13218271Y-8105804D02*
X13208747Y-8058185D01*
X13208747Y-8058185D02*
X13199223Y-8029614D01*
X13199223Y-8029614D02*
X13189699Y-8010566D01*
X13189699Y-8010566D02*
X13170652Y-7981994D01*
X13170652Y-7981994D02*
X13161128Y-7972471D01*
D10*
X8195589Y-8373558D02*
G75*
G03*
X8195589Y-8373558I-50000J0D01*
G01*
D11*
X8561128Y-8465042D02*
X8446842Y-8465042D01*
X8503985Y-8465042D02*
X8503985Y-8265042D01*
X8503985Y-8265042D02*
X8484937Y-8293614D01*
X8484937Y-8293614D02*
X8465889Y-8312661D01*
X8465889Y-8312661D02*
X8446842Y-8322185D01*
X8646842Y-8445995D02*
X8656366Y-8455518D01*
X8656366Y-8455518D02*
X8646842Y-8465042D01*
X8646842Y-8465042D02*
X8637318Y-8455518D01*
X8637318Y-8455518D02*
X8646842Y-8445995D01*
X8646842Y-8445995D02*
X8646842Y-8465042D01*
X8780175Y-8265042D02*
X8799223Y-8265042D01*
X8799223Y-8265042D02*
X8818270Y-8274566D01*
X8818270Y-8274566D02*
X8827794Y-8284090D01*
X8827794Y-8284090D02*
X8837318Y-8303137D01*
X8837318Y-8303137D02*
X8846842Y-8341233D01*
X8846842Y-8341233D02*
X8846842Y-8388852D01*
X8846842Y-8388852D02*
X8837318Y-8426947D01*
X8837318Y-8426947D02*
X8827794Y-8445995D01*
X8827794Y-8445995D02*
X8818270Y-8455518D01*
X8818270Y-8455518D02*
X8799223Y-8465042D01*
X8799223Y-8465042D02*
X8780175Y-8465042D01*
X8780175Y-8465042D02*
X8761128Y-8455518D01*
X8761128Y-8455518D02*
X8751604Y-8445995D01*
X8751604Y-8445995D02*
X8742080Y-8426947D01*
X8742080Y-8426947D02*
X8732556Y-8388852D01*
X8732556Y-8388852D02*
X8732556Y-8341233D01*
X8732556Y-8341233D02*
X8742080Y-8303137D01*
X8742080Y-8303137D02*
X8751604Y-8284090D01*
X8751604Y-8284090D02*
X8761128Y-8274566D01*
X8761128Y-8274566D02*
X8780175Y-8265042D01*
X8970651Y-8265042D02*
X8989699Y-8265042D01*
X8989699Y-8265042D02*
X9008747Y-8274566D01*
X9008747Y-8274566D02*
X9018270Y-8284090D01*
X9018270Y-8284090D02*
X9027794Y-8303137D01*
X9027794Y-8303137D02*
X9037318Y-8341233D01*
X9037318Y-8341233D02*
X9037318Y-8388852D01*
X9037318Y-8388852D02*
X9027794Y-8426947D01*
X9027794Y-8426947D02*
X9018270Y-8445995D01*
X9018270Y-8445995D02*
X9008747Y-8455518D01*
X9008747Y-8455518D02*
X8989699Y-8465042D01*
X8989699Y-8465042D02*
X8970651Y-8465042D01*
X8970651Y-8465042D02*
X8951604Y-8455518D01*
X8951604Y-8455518D02*
X8942080Y-8445995D01*
X8942080Y-8445995D02*
X8932556Y-8426947D01*
X8932556Y-8426947D02*
X8923032Y-8388852D01*
X8923032Y-8388852D02*
X8923032Y-8341233D01*
X8923032Y-8341233D02*
X8932556Y-8303137D01*
X8932556Y-8303137D02*
X8942080Y-8284090D01*
X8942080Y-8284090D02*
X8951604Y-8274566D01*
X8951604Y-8274566D02*
X8970651Y-8265042D01*
X9161128Y-8265042D02*
X9180175Y-8265042D01*
X9180175Y-8265042D02*
X9199223Y-8274566D01*
X9199223Y-8274566D02*
X9208747Y-8284090D01*
X9208747Y-8284090D02*
X9218270Y-8303137D01*
X9218270Y-8303137D02*
X9227794Y-8341233D01*
X9227794Y-8341233D02*
X9227794Y-8388852D01*
X9227794Y-8388852D02*
X9218270Y-8426947D01*
X9218270Y-8426947D02*
X9208747Y-8445995D01*
X9208747Y-8445995D02*
X9199223Y-8455518D01*
X9199223Y-8455518D02*
X9180175Y-8465042D01*
X9180175Y-8465042D02*
X9161128Y-8465042D01*
X9161128Y-8465042D02*
X9142080Y-8455518D01*
X9142080Y-8455518D02*
X9132556Y-8445995D01*
X9132556Y-8445995D02*
X9123032Y-8426947D01*
X9123032Y-8426947D02*
X9113509Y-8388852D01*
X9113509Y-8388852D02*
X9113509Y-8341233D01*
X9113509Y-8341233D02*
X9123032Y-8303137D01*
X9123032Y-8303137D02*
X9132556Y-8284090D01*
X9132556Y-8284090D02*
X9142080Y-8274566D01*
X9142080Y-8274566D02*
X9161128Y-8265042D01*
X9313509Y-8465042D02*
X9313509Y-8331709D01*
X9313509Y-8350756D02*
X9323032Y-8341233D01*
X9323032Y-8341233D02*
X9342080Y-8331709D01*
X9342080Y-8331709D02*
X9370651Y-8331709D01*
X9370651Y-8331709D02*
X9389699Y-8341233D01*
X9389699Y-8341233D02*
X9399223Y-8360280D01*
X9399223Y-8360280D02*
X9399223Y-8465042D01*
X9399223Y-8360280D02*
X9408747Y-8341233D01*
X9408747Y-8341233D02*
X9427794Y-8331709D01*
X9427794Y-8331709D02*
X9456366Y-8331709D01*
X9456366Y-8331709D02*
X9475413Y-8341233D01*
X9475413Y-8341233D02*
X9484937Y-8360280D01*
X9484937Y-8360280D02*
X9484937Y-8465042D01*
X9580175Y-8465042D02*
X9580175Y-8331709D01*
X9580175Y-8350756D02*
X9589699Y-8341233D01*
X9589699Y-8341233D02*
X9608747Y-8331709D01*
X9608747Y-8331709D02*
X9637318Y-8331709D01*
X9637318Y-8331709D02*
X9656366Y-8341233D01*
X9656366Y-8341233D02*
X9665890Y-8360280D01*
X9665890Y-8360280D02*
X9665890Y-8465042D01*
X9665890Y-8360280D02*
X9675413Y-8341233D01*
X9675413Y-8341233D02*
X9694461Y-8331709D01*
X9694461Y-8331709D02*
X9723032Y-8331709D01*
X9723032Y-8331709D02*
X9742080Y-8341233D01*
X9742080Y-8341233D02*
X9751604Y-8360280D01*
X9751604Y-8360280D02*
X9751604Y-8465042D01*
X10142080Y-8255518D02*
X9970652Y-8512661D01*
X10399223Y-8265042D02*
X10418271Y-8265042D01*
X10418271Y-8265042D02*
X10437318Y-8274566D01*
X10437318Y-8274566D02*
X10446842Y-8284090D01*
X10446842Y-8284090D02*
X10456366Y-8303137D01*
X10456366Y-8303137D02*
X10465890Y-8341233D01*
X10465890Y-8341233D02*
X10465890Y-8388852D01*
X10465890Y-8388852D02*
X10456366Y-8426947D01*
X10456366Y-8426947D02*
X10446842Y-8445995D01*
X10446842Y-8445995D02*
X10437318Y-8455518D01*
X10437318Y-8455518D02*
X10418271Y-8465042D01*
X10418271Y-8465042D02*
X10399223Y-8465042D01*
X10399223Y-8465042D02*
X10380175Y-8455518D01*
X10380175Y-8455518D02*
X10370652Y-8445995D01*
X10370652Y-8445995D02*
X10361128Y-8426947D01*
X10361128Y-8426947D02*
X10351604Y-8388852D01*
X10351604Y-8388852D02*
X10351604Y-8341233D01*
X10351604Y-8341233D02*
X10361128Y-8303137D01*
X10361128Y-8303137D02*
X10370652Y-8284090D01*
X10370652Y-8284090D02*
X10380175Y-8274566D01*
X10380175Y-8274566D02*
X10399223Y-8265042D01*
X10551604Y-8445995D02*
X10561128Y-8455518D01*
X10561128Y-8455518D02*
X10551604Y-8465042D01*
X10551604Y-8465042D02*
X10542080Y-8455518D01*
X10542080Y-8455518D02*
X10551604Y-8445995D01*
X10551604Y-8445995D02*
X10551604Y-8465042D01*
X10684937Y-8265042D02*
X10703985Y-8265042D01*
X10703985Y-8265042D02*
X10723033Y-8274566D01*
X10723033Y-8274566D02*
X10732556Y-8284090D01*
X10732556Y-8284090D02*
X10742080Y-8303137D01*
X10742080Y-8303137D02*
X10751604Y-8341233D01*
X10751604Y-8341233D02*
X10751604Y-8388852D01*
X10751604Y-8388852D02*
X10742080Y-8426947D01*
X10742080Y-8426947D02*
X10732556Y-8445995D01*
X10732556Y-8445995D02*
X10723033Y-8455518D01*
X10723033Y-8455518D02*
X10703985Y-8465042D01*
X10703985Y-8465042D02*
X10684937Y-8465042D01*
X10684937Y-8465042D02*
X10665890Y-8455518D01*
X10665890Y-8455518D02*
X10656366Y-8445995D01*
X10656366Y-8445995D02*
X10646842Y-8426947D01*
X10646842Y-8426947D02*
X10637318Y-8388852D01*
X10637318Y-8388852D02*
X10637318Y-8341233D01*
X10637318Y-8341233D02*
X10646842Y-8303137D01*
X10646842Y-8303137D02*
X10656366Y-8284090D01*
X10656366Y-8284090D02*
X10665890Y-8274566D01*
X10665890Y-8274566D02*
X10684937Y-8265042D01*
X10818271Y-8265042D02*
X10942080Y-8265042D01*
X10942080Y-8265042D02*
X10875413Y-8341233D01*
X10875413Y-8341233D02*
X10903985Y-8341233D01*
X10903985Y-8341233D02*
X10923033Y-8350756D01*
X10923033Y-8350756D02*
X10932556Y-8360280D01*
X10932556Y-8360280D02*
X10942080Y-8379328D01*
X10942080Y-8379328D02*
X10942080Y-8426947D01*
X10942080Y-8426947D02*
X10932556Y-8445995D01*
X10932556Y-8445995D02*
X10923033Y-8455518D01*
X10923033Y-8455518D02*
X10903985Y-8465042D01*
X10903985Y-8465042D02*
X10846842Y-8465042D01*
X10846842Y-8465042D02*
X10827794Y-8455518D01*
X10827794Y-8455518D02*
X10818271Y-8445995D01*
X11037318Y-8465042D02*
X11075413Y-8465042D01*
X11075413Y-8465042D02*
X11094461Y-8455518D01*
X11094461Y-8455518D02*
X11103985Y-8445995D01*
X11103985Y-8445995D02*
X11123033Y-8417423D01*
X11123033Y-8417423D02*
X11132556Y-8379328D01*
X11132556Y-8379328D02*
X11132556Y-8303137D01*
X11132556Y-8303137D02*
X11123033Y-8284090D01*
X11123033Y-8284090D02*
X11113509Y-8274566D01*
X11113509Y-8274566D02*
X11094461Y-8265042D01*
X11094461Y-8265042D02*
X11056366Y-8265042D01*
X11056366Y-8265042D02*
X11037318Y-8274566D01*
X11037318Y-8274566D02*
X11027794Y-8284090D01*
X11027794Y-8284090D02*
X11018271Y-8303137D01*
X11018271Y-8303137D02*
X11018271Y-8350756D01*
X11018271Y-8350756D02*
X11027794Y-8369804D01*
X11027794Y-8369804D02*
X11037318Y-8379328D01*
X11037318Y-8379328D02*
X11056366Y-8388852D01*
X11056366Y-8388852D02*
X11094461Y-8388852D01*
X11094461Y-8388852D02*
X11113509Y-8379328D01*
X11113509Y-8379328D02*
X11123033Y-8369804D01*
X11123033Y-8369804D02*
X11132556Y-8350756D01*
X11303985Y-8331709D02*
X11303985Y-8465042D01*
X11256366Y-8255518D02*
X11208747Y-8398376D01*
X11208747Y-8398376D02*
X11332556Y-8398376D01*
X11399223Y-8265042D02*
X11399223Y-8303137D01*
X11475413Y-8265042D02*
X11475413Y-8303137D01*
X11770652Y-8541233D02*
X11761128Y-8531709D01*
X11761128Y-8531709D02*
X11742080Y-8503137D01*
X11742080Y-8503137D02*
X11732556Y-8484090D01*
X11732556Y-8484090D02*
X11723033Y-8455518D01*
X11723033Y-8455518D02*
X11713509Y-8407899D01*
X11713509Y-8407899D02*
X11713509Y-8369804D01*
X11713509Y-8369804D02*
X11723033Y-8322185D01*
X11723033Y-8322185D02*
X11732556Y-8293614D01*
X11732556Y-8293614D02*
X11742080Y-8274566D01*
X11742080Y-8274566D02*
X11761128Y-8245994D01*
X11761128Y-8245994D02*
X11770652Y-8236471D01*
X11837318Y-8284090D02*
X11846842Y-8274566D01*
X11846842Y-8274566D02*
X11865890Y-8265042D01*
X11865890Y-8265042D02*
X11913509Y-8265042D01*
X11913509Y-8265042D02*
X11932556Y-8274566D01*
X11932556Y-8274566D02*
X11942080Y-8284090D01*
X11942080Y-8284090D02*
X11951604Y-8303137D01*
X11951604Y-8303137D02*
X11951604Y-8322185D01*
X11951604Y-8322185D02*
X11942080Y-8350756D01*
X11942080Y-8350756D02*
X11827794Y-8465042D01*
X11827794Y-8465042D02*
X11951604Y-8465042D01*
X12075413Y-8265042D02*
X12094461Y-8265042D01*
X12094461Y-8265042D02*
X12113509Y-8274566D01*
X12113509Y-8274566D02*
X12123033Y-8284090D01*
X12123033Y-8284090D02*
X12132556Y-8303137D01*
X12132556Y-8303137D02*
X12142080Y-8341233D01*
X12142080Y-8341233D02*
X12142080Y-8388852D01*
X12142080Y-8388852D02*
X12132556Y-8426947D01*
X12132556Y-8426947D02*
X12123033Y-8445995D01*
X12123033Y-8445995D02*
X12113509Y-8455518D01*
X12113509Y-8455518D02*
X12094461Y-8465042D01*
X12094461Y-8465042D02*
X12075413Y-8465042D01*
X12075413Y-8465042D02*
X12056366Y-8455518D01*
X12056366Y-8455518D02*
X12046842Y-8445995D01*
X12046842Y-8445995D02*
X12037318Y-8426947D01*
X12037318Y-8426947D02*
X12027794Y-8388852D01*
X12027794Y-8388852D02*
X12027794Y-8341233D01*
X12027794Y-8341233D02*
X12037318Y-8303137D01*
X12037318Y-8303137D02*
X12046842Y-8284090D01*
X12046842Y-8284090D02*
X12056366Y-8274566D01*
X12056366Y-8274566D02*
X12075413Y-8265042D01*
X12380175Y-8465042D02*
X12380175Y-8265042D01*
X12465890Y-8465042D02*
X12465890Y-8360280D01*
X12465890Y-8360280D02*
X12456366Y-8341233D01*
X12456366Y-8341233D02*
X12437318Y-8331709D01*
X12437318Y-8331709D02*
X12408747Y-8331709D01*
X12408747Y-8331709D02*
X12389699Y-8341233D01*
X12389699Y-8341233D02*
X12380175Y-8350756D01*
X12589699Y-8465042D02*
X12570652Y-8455518D01*
X12570652Y-8455518D02*
X12561128Y-8445995D01*
X12561128Y-8445995D02*
X12551604Y-8426947D01*
X12551604Y-8426947D02*
X12551604Y-8369804D01*
X12551604Y-8369804D02*
X12561128Y-8350756D01*
X12561128Y-8350756D02*
X12570652Y-8341233D01*
X12570652Y-8341233D02*
X12589699Y-8331709D01*
X12589699Y-8331709D02*
X12618271Y-8331709D01*
X12618271Y-8331709D02*
X12637318Y-8341233D01*
X12637318Y-8341233D02*
X12646842Y-8350756D01*
X12646842Y-8350756D02*
X12656366Y-8369804D01*
X12656366Y-8369804D02*
X12656366Y-8426947D01*
X12656366Y-8426947D02*
X12646842Y-8445995D01*
X12646842Y-8445995D02*
X12637318Y-8455518D01*
X12637318Y-8455518D02*
X12618271Y-8465042D01*
X12618271Y-8465042D02*
X12589699Y-8465042D01*
X12770652Y-8465042D02*
X12751604Y-8455518D01*
X12751604Y-8455518D02*
X12742080Y-8436471D01*
X12742080Y-8436471D02*
X12742080Y-8265042D01*
X12923033Y-8455518D02*
X12903985Y-8465042D01*
X12903985Y-8465042D02*
X12865890Y-8465042D01*
X12865890Y-8465042D02*
X12846842Y-8455518D01*
X12846842Y-8455518D02*
X12837318Y-8436471D01*
X12837318Y-8436471D02*
X12837318Y-8360280D01*
X12837318Y-8360280D02*
X12846842Y-8341233D01*
X12846842Y-8341233D02*
X12865890Y-8331709D01*
X12865890Y-8331709D02*
X12903985Y-8331709D01*
X12903985Y-8331709D02*
X12923033Y-8341233D01*
X12923033Y-8341233D02*
X12932556Y-8360280D01*
X12932556Y-8360280D02*
X12932556Y-8379328D01*
X12932556Y-8379328D02*
X12837318Y-8398376D01*
X13008747Y-8455518D02*
X13027795Y-8465042D01*
X13027795Y-8465042D02*
X13065890Y-8465042D01*
X13065890Y-8465042D02*
X13084937Y-8455518D01*
X13084937Y-8455518D02*
X13094461Y-8436471D01*
X13094461Y-8436471D02*
X13094461Y-8426947D01*
X13094461Y-8426947D02*
X13084937Y-8407899D01*
X13084937Y-8407899D02*
X13065890Y-8398376D01*
X13065890Y-8398376D02*
X13037318Y-8398376D01*
X13037318Y-8398376D02*
X13018271Y-8388852D01*
X13018271Y-8388852D02*
X13008747Y-8369804D01*
X13008747Y-8369804D02*
X13008747Y-8360280D01*
X13008747Y-8360280D02*
X13018271Y-8341233D01*
X13018271Y-8341233D02*
X13037318Y-8331709D01*
X13037318Y-8331709D02*
X13065890Y-8331709D01*
X13065890Y-8331709D02*
X13084937Y-8341233D01*
X13161128Y-8541233D02*
X13170652Y-8531709D01*
X13170652Y-8531709D02*
X13189699Y-8503137D01*
X13189699Y-8503137D02*
X13199223Y-8484090D01*
X13199223Y-8484090D02*
X13208747Y-8455518D01*
X13208747Y-8455518D02*
X13218271Y-8407899D01*
X13218271Y-8407899D02*
X13218271Y-8369804D01*
X13218271Y-8369804D02*
X13208747Y-8322185D01*
X13208747Y-8322185D02*
X13199223Y-8293614D01*
X13199223Y-8293614D02*
X13189699Y-8274566D01*
X13189699Y-8274566D02*
X13170652Y-8245994D01*
X13170652Y-8245994D02*
X13161128Y-8236471D01*
X8095589Y-8537558D02*
X8095589Y-8737558D01*
X7995589Y-8637558D02*
X8195589Y-8637558D01*
X8437318Y-8529042D02*
X8561128Y-8529042D01*
X8561128Y-8529042D02*
X8494461Y-8605233D01*
X8494461Y-8605233D02*
X8523032Y-8605233D01*
X8523032Y-8605233D02*
X8542080Y-8614756D01*
X8542080Y-8614756D02*
X8551604Y-8624280D01*
X8551604Y-8624280D02*
X8561128Y-8643328D01*
X8561128Y-8643328D02*
X8561128Y-8690947D01*
X8561128Y-8690947D02*
X8551604Y-8709995D01*
X8551604Y-8709995D02*
X8542080Y-8719518D01*
X8542080Y-8719518D02*
X8523032Y-8729042D01*
X8523032Y-8729042D02*
X8465889Y-8729042D01*
X8465889Y-8729042D02*
X8446842Y-8719518D01*
X8446842Y-8719518D02*
X8437318Y-8709995D01*
X8646842Y-8709995D02*
X8656366Y-8719518D01*
X8656366Y-8719518D02*
X8646842Y-8729042D01*
X8646842Y-8729042D02*
X8637318Y-8719518D01*
X8637318Y-8719518D02*
X8646842Y-8709995D01*
X8646842Y-8709995D02*
X8646842Y-8729042D01*
X8732556Y-8548090D02*
X8742080Y-8538566D01*
X8742080Y-8538566D02*
X8761128Y-8529042D01*
X8761128Y-8529042D02*
X8808747Y-8529042D01*
X8808747Y-8529042D02*
X8827794Y-8538566D01*
X8827794Y-8538566D02*
X8837318Y-8548090D01*
X8837318Y-8548090D02*
X8846842Y-8567137D01*
X8846842Y-8567137D02*
X8846842Y-8586185D01*
X8846842Y-8586185D02*
X8837318Y-8614756D01*
X8837318Y-8614756D02*
X8723032Y-8729042D01*
X8723032Y-8729042D02*
X8846842Y-8729042D01*
X8970651Y-8529042D02*
X8989699Y-8529042D01*
X8989699Y-8529042D02*
X9008747Y-8538566D01*
X9008747Y-8538566D02*
X9018270Y-8548090D01*
X9018270Y-8548090D02*
X9027794Y-8567137D01*
X9027794Y-8567137D02*
X9037318Y-8605233D01*
X9037318Y-8605233D02*
X9037318Y-8652852D01*
X9037318Y-8652852D02*
X9027794Y-8690947D01*
X9027794Y-8690947D02*
X9018270Y-8709995D01*
X9018270Y-8709995D02*
X9008747Y-8719518D01*
X9008747Y-8719518D02*
X8989699Y-8729042D01*
X8989699Y-8729042D02*
X8970651Y-8729042D01*
X8970651Y-8729042D02*
X8951604Y-8719518D01*
X8951604Y-8719518D02*
X8942080Y-8709995D01*
X8942080Y-8709995D02*
X8932556Y-8690947D01*
X8932556Y-8690947D02*
X8923032Y-8652852D01*
X8923032Y-8652852D02*
X8923032Y-8605233D01*
X8923032Y-8605233D02*
X8932556Y-8567137D01*
X8932556Y-8567137D02*
X8942080Y-8548090D01*
X8942080Y-8548090D02*
X8951604Y-8538566D01*
X8951604Y-8538566D02*
X8970651Y-8529042D01*
X9161128Y-8529042D02*
X9180175Y-8529042D01*
X9180175Y-8529042D02*
X9199223Y-8538566D01*
X9199223Y-8538566D02*
X9208747Y-8548090D01*
X9208747Y-8548090D02*
X9218270Y-8567137D01*
X9218270Y-8567137D02*
X9227794Y-8605233D01*
X9227794Y-8605233D02*
X9227794Y-8652852D01*
X9227794Y-8652852D02*
X9218270Y-8690947D01*
X9218270Y-8690947D02*
X9208747Y-8709995D01*
X9208747Y-8709995D02*
X9199223Y-8719518D01*
X9199223Y-8719518D02*
X9180175Y-8729042D01*
X9180175Y-8729042D02*
X9161128Y-8729042D01*
X9161128Y-8729042D02*
X9142080Y-8719518D01*
X9142080Y-8719518D02*
X9132556Y-8709995D01*
X9132556Y-8709995D02*
X9123032Y-8690947D01*
X9123032Y-8690947D02*
X9113509Y-8652852D01*
X9113509Y-8652852D02*
X9113509Y-8605233D01*
X9113509Y-8605233D02*
X9123032Y-8567137D01*
X9123032Y-8567137D02*
X9132556Y-8548090D01*
X9132556Y-8548090D02*
X9142080Y-8538566D01*
X9142080Y-8538566D02*
X9161128Y-8529042D01*
X9313509Y-8729042D02*
X9313509Y-8595709D01*
X9313509Y-8614756D02*
X9323032Y-8605233D01*
X9323032Y-8605233D02*
X9342080Y-8595709D01*
X9342080Y-8595709D02*
X9370651Y-8595709D01*
X9370651Y-8595709D02*
X9389699Y-8605233D01*
X9389699Y-8605233D02*
X9399223Y-8624280D01*
X9399223Y-8624280D02*
X9399223Y-8729042D01*
X9399223Y-8624280D02*
X9408747Y-8605233D01*
X9408747Y-8605233D02*
X9427794Y-8595709D01*
X9427794Y-8595709D02*
X9456366Y-8595709D01*
X9456366Y-8595709D02*
X9475413Y-8605233D01*
X9475413Y-8605233D02*
X9484937Y-8624280D01*
X9484937Y-8624280D02*
X9484937Y-8729042D01*
X9580175Y-8729042D02*
X9580175Y-8595709D01*
X9580175Y-8614756D02*
X9589699Y-8605233D01*
X9589699Y-8605233D02*
X9608747Y-8595709D01*
X9608747Y-8595709D02*
X9637318Y-8595709D01*
X9637318Y-8595709D02*
X9656366Y-8605233D01*
X9656366Y-8605233D02*
X9665890Y-8624280D01*
X9665890Y-8624280D02*
X9665890Y-8729042D01*
X9665890Y-8624280D02*
X9675413Y-8605233D01*
X9675413Y-8605233D02*
X9694461Y-8595709D01*
X9694461Y-8595709D02*
X9723032Y-8595709D01*
X9723032Y-8595709D02*
X9742080Y-8605233D01*
X9742080Y-8605233D02*
X9751604Y-8624280D01*
X9751604Y-8624280D02*
X9751604Y-8729042D01*
X10142080Y-8519518D02*
X9970652Y-8776661D01*
X10399223Y-8529042D02*
X10418271Y-8529042D01*
X10418271Y-8529042D02*
X10437318Y-8538566D01*
X10437318Y-8538566D02*
X10446842Y-8548090D01*
X10446842Y-8548090D02*
X10456366Y-8567137D01*
X10456366Y-8567137D02*
X10465890Y-8605233D01*
X10465890Y-8605233D02*
X10465890Y-8652852D01*
X10465890Y-8652852D02*
X10456366Y-8690947D01*
X10456366Y-8690947D02*
X10446842Y-8709995D01*
X10446842Y-8709995D02*
X10437318Y-8719518D01*
X10437318Y-8719518D02*
X10418271Y-8729042D01*
X10418271Y-8729042D02*
X10399223Y-8729042D01*
X10399223Y-8729042D02*
X10380175Y-8719518D01*
X10380175Y-8719518D02*
X10370652Y-8709995D01*
X10370652Y-8709995D02*
X10361128Y-8690947D01*
X10361128Y-8690947D02*
X10351604Y-8652852D01*
X10351604Y-8652852D02*
X10351604Y-8605233D01*
X10351604Y-8605233D02*
X10361128Y-8567137D01*
X10361128Y-8567137D02*
X10370652Y-8548090D01*
X10370652Y-8548090D02*
X10380175Y-8538566D01*
X10380175Y-8538566D02*
X10399223Y-8529042D01*
X10551604Y-8709995D02*
X10561128Y-8719518D01*
X10561128Y-8719518D02*
X10551604Y-8729042D01*
X10551604Y-8729042D02*
X10542080Y-8719518D01*
X10542080Y-8719518D02*
X10551604Y-8709995D01*
X10551604Y-8709995D02*
X10551604Y-8729042D01*
X10751604Y-8729042D02*
X10637318Y-8729042D01*
X10694461Y-8729042D02*
X10694461Y-8529042D01*
X10694461Y-8529042D02*
X10675413Y-8557614D01*
X10675413Y-8557614D02*
X10656366Y-8576661D01*
X10656366Y-8576661D02*
X10637318Y-8586185D01*
X10827794Y-8548090D02*
X10837318Y-8538566D01*
X10837318Y-8538566D02*
X10856366Y-8529042D01*
X10856366Y-8529042D02*
X10903985Y-8529042D01*
X10903985Y-8529042D02*
X10923033Y-8538566D01*
X10923033Y-8538566D02*
X10932556Y-8548090D01*
X10932556Y-8548090D02*
X10942080Y-8567137D01*
X10942080Y-8567137D02*
X10942080Y-8586185D01*
X10942080Y-8586185D02*
X10932556Y-8614756D01*
X10932556Y-8614756D02*
X10818271Y-8729042D01*
X10818271Y-8729042D02*
X10942080Y-8729042D01*
X11113509Y-8529042D02*
X11075413Y-8529042D01*
X11075413Y-8529042D02*
X11056366Y-8538566D01*
X11056366Y-8538566D02*
X11046842Y-8548090D01*
X11046842Y-8548090D02*
X11027794Y-8576661D01*
X11027794Y-8576661D02*
X11018271Y-8614756D01*
X11018271Y-8614756D02*
X11018271Y-8690947D01*
X11018271Y-8690947D02*
X11027794Y-8709995D01*
X11027794Y-8709995D02*
X11037318Y-8719518D01*
X11037318Y-8719518D02*
X11056366Y-8729042D01*
X11056366Y-8729042D02*
X11094461Y-8729042D01*
X11094461Y-8729042D02*
X11113509Y-8719518D01*
X11113509Y-8719518D02*
X11123033Y-8709995D01*
X11123033Y-8709995D02*
X11132556Y-8690947D01*
X11132556Y-8690947D02*
X11132556Y-8643328D01*
X11132556Y-8643328D02*
X11123033Y-8624280D01*
X11123033Y-8624280D02*
X11113509Y-8614756D01*
X11113509Y-8614756D02*
X11094461Y-8605233D01*
X11094461Y-8605233D02*
X11056366Y-8605233D01*
X11056366Y-8605233D02*
X11037318Y-8614756D01*
X11037318Y-8614756D02*
X11027794Y-8624280D01*
X11027794Y-8624280D02*
X11018271Y-8643328D01*
X11256366Y-8529042D02*
X11275413Y-8529042D01*
X11275413Y-8529042D02*
X11294461Y-8538566D01*
X11294461Y-8538566D02*
X11303985Y-8548090D01*
X11303985Y-8548090D02*
X11313509Y-8567137D01*
X11313509Y-8567137D02*
X11323032Y-8605233D01*
X11323032Y-8605233D02*
X11323032Y-8652852D01*
X11323032Y-8652852D02*
X11313509Y-8690947D01*
X11313509Y-8690947D02*
X11303985Y-8709995D01*
X11303985Y-8709995D02*
X11294461Y-8719518D01*
X11294461Y-8719518D02*
X11275413Y-8729042D01*
X11275413Y-8729042D02*
X11256366Y-8729042D01*
X11256366Y-8729042D02*
X11237318Y-8719518D01*
X11237318Y-8719518D02*
X11227794Y-8709995D01*
X11227794Y-8709995D02*
X11218271Y-8690947D01*
X11218271Y-8690947D02*
X11208747Y-8652852D01*
X11208747Y-8652852D02*
X11208747Y-8605233D01*
X11208747Y-8605233D02*
X11218271Y-8567137D01*
X11218271Y-8567137D02*
X11227794Y-8548090D01*
X11227794Y-8548090D02*
X11237318Y-8538566D01*
X11237318Y-8538566D02*
X11256366Y-8529042D01*
X11399223Y-8529042D02*
X11399223Y-8567137D01*
X11475413Y-8529042D02*
X11475413Y-8567137D01*
X11770652Y-8805233D02*
X11761128Y-8795709D01*
X11761128Y-8795709D02*
X11742080Y-8767137D01*
X11742080Y-8767137D02*
X11732556Y-8748090D01*
X11732556Y-8748090D02*
X11723033Y-8719518D01*
X11723033Y-8719518D02*
X11713509Y-8671899D01*
X11713509Y-8671899D02*
X11713509Y-8633804D01*
X11713509Y-8633804D02*
X11723033Y-8586185D01*
X11723033Y-8586185D02*
X11732556Y-8557614D01*
X11732556Y-8557614D02*
X11742080Y-8538566D01*
X11742080Y-8538566D02*
X11761128Y-8509995D01*
X11761128Y-8509995D02*
X11770652Y-8500471D01*
X11827794Y-8529042D02*
X11951604Y-8529042D01*
X11951604Y-8529042D02*
X11884937Y-8605233D01*
X11884937Y-8605233D02*
X11913509Y-8605233D01*
X11913509Y-8605233D02*
X11932556Y-8614756D01*
X11932556Y-8614756D02*
X11942080Y-8624280D01*
X11942080Y-8624280D02*
X11951604Y-8643328D01*
X11951604Y-8643328D02*
X11951604Y-8690947D01*
X11951604Y-8690947D02*
X11942080Y-8709995D01*
X11942080Y-8709995D02*
X11932556Y-8719518D01*
X11932556Y-8719518D02*
X11913509Y-8729042D01*
X11913509Y-8729042D02*
X11856366Y-8729042D01*
X11856366Y-8729042D02*
X11837318Y-8719518D01*
X11837318Y-8719518D02*
X11827794Y-8709995D01*
X12189699Y-8729042D02*
X12189699Y-8529042D01*
X12275414Y-8729042D02*
X12275414Y-8624280D01*
X12275414Y-8624280D02*
X12265890Y-8605233D01*
X12265890Y-8605233D02*
X12246842Y-8595709D01*
X12246842Y-8595709D02*
X12218271Y-8595709D01*
X12218271Y-8595709D02*
X12199223Y-8605233D01*
X12199223Y-8605233D02*
X12189699Y-8614756D01*
X12399223Y-8729042D02*
X12380175Y-8719518D01*
X12380175Y-8719518D02*
X12370652Y-8709995D01*
X12370652Y-8709995D02*
X12361128Y-8690947D01*
X12361128Y-8690947D02*
X12361128Y-8633804D01*
X12361128Y-8633804D02*
X12370652Y-8614756D01*
X12370652Y-8614756D02*
X12380175Y-8605233D01*
X12380175Y-8605233D02*
X12399223Y-8595709D01*
X12399223Y-8595709D02*
X12427795Y-8595709D01*
X12427795Y-8595709D02*
X12446842Y-8605233D01*
X12446842Y-8605233D02*
X12456366Y-8614756D01*
X12456366Y-8614756D02*
X12465890Y-8633804D01*
X12465890Y-8633804D02*
X12465890Y-8690947D01*
X12465890Y-8690947D02*
X12456366Y-8709995D01*
X12456366Y-8709995D02*
X12446842Y-8719518D01*
X12446842Y-8719518D02*
X12427795Y-8729042D01*
X12427795Y-8729042D02*
X12399223Y-8729042D01*
X12580175Y-8729042D02*
X12561128Y-8719518D01*
X12561128Y-8719518D02*
X12551604Y-8700471D01*
X12551604Y-8700471D02*
X12551604Y-8529042D01*
X12732556Y-8719518D02*
X12713509Y-8729042D01*
X12713509Y-8729042D02*
X12675414Y-8729042D01*
X12675414Y-8729042D02*
X12656366Y-8719518D01*
X12656366Y-8719518D02*
X12646842Y-8700471D01*
X12646842Y-8700471D02*
X12646842Y-8624280D01*
X12646842Y-8624280D02*
X12656366Y-8605233D01*
X12656366Y-8605233D02*
X12675414Y-8595709D01*
X12675414Y-8595709D02*
X12713509Y-8595709D01*
X12713509Y-8595709D02*
X12732556Y-8605233D01*
X12732556Y-8605233D02*
X12742080Y-8624280D01*
X12742080Y-8624280D02*
X12742080Y-8643328D01*
X12742080Y-8643328D02*
X12646842Y-8662376D01*
X12818271Y-8719518D02*
X12837318Y-8729042D01*
X12837318Y-8729042D02*
X12875414Y-8729042D01*
X12875414Y-8729042D02*
X12894461Y-8719518D01*
X12894461Y-8719518D02*
X12903985Y-8700471D01*
X12903985Y-8700471D02*
X12903985Y-8690947D01*
X12903985Y-8690947D02*
X12894461Y-8671899D01*
X12894461Y-8671899D02*
X12875414Y-8662376D01*
X12875414Y-8662376D02*
X12846842Y-8662376D01*
X12846842Y-8662376D02*
X12827795Y-8652852D01*
X12827795Y-8652852D02*
X12818271Y-8633804D01*
X12818271Y-8633804D02*
X12818271Y-8624280D01*
X12818271Y-8624280D02*
X12827795Y-8605233D01*
X12827795Y-8605233D02*
X12846842Y-8595709D01*
X12846842Y-8595709D02*
X12875414Y-8595709D01*
X12875414Y-8595709D02*
X12894461Y-8605233D01*
X12970652Y-8805233D02*
X12980176Y-8795709D01*
X12980176Y-8795709D02*
X12999223Y-8767137D01*
X12999223Y-8767137D02*
X13008747Y-8748090D01*
X13008747Y-8748090D02*
X13018271Y-8719518D01*
X13018271Y-8719518D02*
X13027795Y-8671899D01*
X13027795Y-8671899D02*
X13027795Y-8633804D01*
X13027795Y-8633804D02*
X13018271Y-8586185D01*
X13018271Y-8586185D02*
X13008747Y-8557614D01*
X13008747Y-8557614D02*
X12999223Y-8538566D01*
X12999223Y-8538566D02*
X12980176Y-8509995D01*
X12980176Y-8509995D02*
X12970652Y-8500471D01*
M02*
