M48
; DRILL file {KiCad 7.0.8-7.0.8~ubuntu22.04.1} date Fri 26 Jan 2024 15:51:12 CET
; FORMAT={-:-/ absolute / metric / decimal}
; #@! TF.CreationDate,2024-01-26T15:51:12+01:00
; #@! TF.GenerationSoftware,Kicad,Pcbnew,7.0.8-7.0.8~ubuntu22.04.1
; #@! TF.FileFunction,Plated,1,2,PTH
FMAT,2
METRIC
; #@! TA.AperFunction,Plated,PTH,ViaDrill
T1C0.400
; #@! TA.AperFunction,Plated,PTH,ComponentDrill
T2C0.889
; #@! TA.AperFunction,Plated,PTH,ComponentDrill
T3C1.000
; #@! TA.AperFunction,Plated,PTH,ComponentDrill
T4C3.200
%
G90
G05
T1
X79.65Y-48.8
X79.65Y-53.8
X79.65Y-58.8
X79.65Y-63.8
X79.65Y-68.8
X84.65Y-48.8
X84.65Y-53.8
X84.65Y-58.8
X84.65Y-63.8
X84.65Y-68.8
X89.65Y-48.8
X89.65Y-53.8
X89.65Y-58.8
X89.65Y-63.8
X89.65Y-68.8
X94.65Y-48.8
X94.65Y-53.8
X94.65Y-58.8
X94.65Y-63.8
X94.65Y-68.8
X112.55Y-74.4
X114.35Y-50.2
X114.35Y-55.2
X114.35Y-71.1
X119.35Y-50.2
X119.35Y-55.2
X119.35Y-66.1
X121.75Y-74.5
X121.75Y-79.5
X126.75Y-74.5
X126.75Y-79.5
X128.55Y-66.2
X128.55Y-71.2
X133.55Y-66.2
X133.55Y-71.2
T2
X91.85Y-72.4
X91.85Y-74.94
X94.39Y-72.4
X94.39Y-74.94
X96.93Y-72.4
X96.93Y-74.94
X99.47Y-72.4
X99.47Y-74.94
X102.01Y-72.4
X102.01Y-74.94
X104.55Y-72.4
X104.55Y-74.94
X107.09Y-72.4
X107.09Y-74.94
X109.63Y-72.4
X109.63Y-74.94
T3
X114.15Y-60.26
X114.15Y-62.8
X116.69Y-60.26
X116.69Y-62.8
X119.23Y-60.26
X119.23Y-62.8
X121.77Y-60.26
X121.77Y-62.8
X124.31Y-60.26
X124.31Y-62.8
X126.85Y-60.26
X126.85Y-62.8
X129.39Y-60.26
X129.39Y-62.8
T4
X82.35Y-76.7
X107.85Y-50.7
X132.35Y-76.7
T0
M30
