G04 #@! TF.GenerationSoftware,KiCad,Pcbnew,7.0.8-7.0.8~ubuntu22.04.1*
G04 #@! TF.CreationDate,2024-01-26T15:51:07+01:00*
G04 #@! TF.ProjectId,rail,7261696c-2e6b-4696-9361-645f70636258,rev?*
G04 #@! TF.SameCoordinates,Original*
G04 #@! TF.FileFunction,Legend,Top*
G04 #@! TF.FilePolarity,Positive*
%FSLAX46Y46*%
G04 Gerber Fmt 4.6, Leading zero omitted, Abs format (unit mm)*
G04 Created by KiCad (PCBNEW 7.0.8-7.0.8~ubuntu22.04.1) date 2024-01-26 15:51:07*
%MOMM*%
%LPD*%
G01*
G04 APERTURE LIST*
%ADD10C,0.300000*%
%ADD11C,0.150000*%
%ADD12C,0.152400*%
%ADD13C,0.508000*%
%ADD14C,0.120000*%
%ADD15C,3.600000*%
%ADD16C,5.600000*%
%ADD17C,1.397000*%
%ADD18R,1.700000X1.700000*%
%ADD19O,1.700000X1.700000*%
G04 APERTURE END LIST*
D10*
G36*
X81925610Y-56133974D02*
G01*
X81942513Y-56134386D01*
X81958325Y-56135622D01*
X81973047Y-56137683D01*
X81993085Y-56142320D01*
X82010670Y-56148811D01*
X82025800Y-56157158D01*
X82038477Y-56167359D01*
X82048701Y-56179414D01*
X82056471Y-56193325D01*
X82061787Y-56209090D01*
X82064650Y-56226710D01*
X82065195Y-56239487D01*
X82063968Y-56258343D01*
X82060288Y-56275344D01*
X82054154Y-56290491D01*
X82045566Y-56303784D01*
X82034524Y-56315221D01*
X82021029Y-56324804D01*
X82005081Y-56332532D01*
X81986678Y-56338405D01*
X81965823Y-56342424D01*
X81950555Y-56344072D01*
X81934198Y-56344896D01*
X81925610Y-56345000D01*
X81438346Y-56345000D01*
X81421487Y-56344587D01*
X81405716Y-56343351D01*
X81391033Y-56341290D01*
X81371048Y-56336653D01*
X81353509Y-56330162D01*
X81338418Y-56321816D01*
X81325774Y-56311615D01*
X81315578Y-56299559D01*
X81307828Y-56285648D01*
X81302526Y-56269883D01*
X81299671Y-56252264D01*
X81299127Y-56239487D01*
X81299688Y-56224803D01*
X81301967Y-56208172D01*
X81305999Y-56193455D01*
X81313152Y-56178321D01*
X81322829Y-56165943D01*
X81335031Y-56156322D01*
X81349602Y-56148727D01*
X81363438Y-56143598D01*
X81378811Y-56139561D01*
X81395724Y-56136614D01*
X81410361Y-56135043D01*
X81425983Y-56134170D01*
X81438346Y-56133974D01*
X81575366Y-56133974D01*
X81575366Y-55325774D01*
X81349685Y-55325774D01*
X81349685Y-55522145D01*
X81349273Y-55539004D01*
X81348037Y-55554775D01*
X81345976Y-55569458D01*
X81341339Y-55589443D01*
X81334848Y-55606982D01*
X81326501Y-55622073D01*
X81316301Y-55634716D01*
X81304245Y-55644913D01*
X81290334Y-55652663D01*
X81274569Y-55657965D01*
X81256950Y-55660820D01*
X81244173Y-55661364D01*
X81225316Y-55660140D01*
X81208315Y-55656469D01*
X81193168Y-55650351D01*
X81179876Y-55641786D01*
X81168438Y-55630774D01*
X81158855Y-55617314D01*
X81151127Y-55601407D01*
X81145254Y-55583053D01*
X81141236Y-55562252D01*
X81139587Y-55547025D01*
X81138763Y-55530711D01*
X81138660Y-55522145D01*
X81138660Y-55114748D01*
X82227494Y-55114748D01*
X82227494Y-55522145D01*
X82227145Y-55538506D01*
X82226098Y-55553882D01*
X82223806Y-55571717D01*
X82220423Y-55588014D01*
X82215949Y-55602772D01*
X82209140Y-55618451D01*
X82205146Y-55625460D01*
X82195525Y-55637662D01*
X82183147Y-55647339D01*
X82168013Y-55654492D01*
X82153296Y-55658524D01*
X82136665Y-55660803D01*
X82121981Y-55661364D01*
X82103125Y-55660140D01*
X82086123Y-55656469D01*
X82070977Y-55650351D01*
X82057684Y-55641786D01*
X82046247Y-55630774D01*
X82036664Y-55617314D01*
X82028936Y-55601407D01*
X82023063Y-55583053D01*
X82019044Y-55562252D01*
X82017396Y-55547025D01*
X82016571Y-55530711D01*
X82016468Y-55522145D01*
X82016468Y-55325774D01*
X81786392Y-55325774D01*
X81786392Y-56133974D01*
X81925610Y-56133974D01*
G37*
G36*
X83184438Y-56133974D02*
G01*
X83201341Y-56134386D01*
X83217153Y-56135622D01*
X83231875Y-56137683D01*
X83251913Y-56142320D01*
X83269497Y-56148811D01*
X83284628Y-56157158D01*
X83297305Y-56167359D01*
X83307529Y-56179414D01*
X83315298Y-56193325D01*
X83320615Y-56209090D01*
X83323477Y-56226710D01*
X83324023Y-56239487D01*
X83322796Y-56258343D01*
X83319115Y-56275344D01*
X83312981Y-56290491D01*
X83304393Y-56303784D01*
X83293352Y-56315221D01*
X83279857Y-56324804D01*
X83263908Y-56332532D01*
X83245506Y-56338405D01*
X83224650Y-56342424D01*
X83209383Y-56344072D01*
X83193025Y-56344896D01*
X83184438Y-56345000D01*
X82697173Y-56345000D01*
X82680315Y-56344587D01*
X82664544Y-56343351D01*
X82649861Y-56341290D01*
X82629875Y-56336653D01*
X82612337Y-56330162D01*
X82597246Y-56321816D01*
X82584602Y-56311615D01*
X82574405Y-56299559D01*
X82566656Y-56285648D01*
X82561354Y-56269883D01*
X82558499Y-56252264D01*
X82557955Y-56239487D01*
X82558516Y-56224803D01*
X82560795Y-56208172D01*
X82564827Y-56193455D01*
X82571980Y-56178321D01*
X82581657Y-56165943D01*
X82593859Y-56156322D01*
X82608430Y-56148727D01*
X82622265Y-56143598D01*
X82637639Y-56139561D01*
X82654551Y-56136614D01*
X82669189Y-56135043D01*
X82684811Y-56134170D01*
X82697173Y-56133974D01*
X82834193Y-56133974D01*
X82834193Y-55325774D01*
X82608513Y-55325774D01*
X82608513Y-55522145D01*
X82608101Y-55539004D01*
X82606864Y-55554775D01*
X82604804Y-55569458D01*
X82600167Y-55589443D01*
X82593675Y-55606982D01*
X82585329Y-55622073D01*
X82575128Y-55634716D01*
X82563072Y-55644913D01*
X82549162Y-55652663D01*
X82533397Y-55657965D01*
X82515777Y-55660820D01*
X82503000Y-55661364D01*
X82484144Y-55660140D01*
X82467142Y-55656469D01*
X82451995Y-55650351D01*
X82438703Y-55641786D01*
X82427266Y-55630774D01*
X82417683Y-55617314D01*
X82409955Y-55601407D01*
X82404082Y-55583053D01*
X82400063Y-55562252D01*
X82398415Y-55547025D01*
X82397590Y-55530711D01*
X82397487Y-55522145D01*
X82397487Y-55114748D01*
X83486322Y-55114748D01*
X83486322Y-55522145D01*
X83485973Y-55538506D01*
X83484925Y-55553882D01*
X83482634Y-55571717D01*
X83479251Y-55588014D01*
X83474777Y-55602772D01*
X83467968Y-55618451D01*
X83463974Y-55625460D01*
X83454352Y-55637662D01*
X83441975Y-55647339D01*
X83426841Y-55654492D01*
X83412123Y-55658524D01*
X83395492Y-55660803D01*
X83380809Y-55661364D01*
X83361953Y-55660140D01*
X83344951Y-55656469D01*
X83329804Y-55650351D01*
X83316512Y-55641786D01*
X83305075Y-55630774D01*
X83295492Y-55617314D01*
X83287764Y-55601407D01*
X83281891Y-55583053D01*
X83277872Y-55562252D01*
X83276223Y-55547025D01*
X83275399Y-55530711D01*
X83275296Y-55522145D01*
X83275296Y-55325774D01*
X83045219Y-55325774D01*
X83045219Y-56133974D01*
X83184438Y-56133974D01*
G37*
G36*
X84050889Y-55114748D02*
G01*
X84067748Y-55115160D01*
X84083519Y-55116397D01*
X84098202Y-55118458D01*
X84118187Y-55123095D01*
X84135725Y-55129586D01*
X84150817Y-55137932D01*
X84163460Y-55148133D01*
X84173657Y-55160189D01*
X84181407Y-55174099D01*
X84186709Y-55189864D01*
X84189564Y-55207484D01*
X84190108Y-55220261D01*
X84188884Y-55239117D01*
X84185213Y-55256119D01*
X84179095Y-55271266D01*
X84170530Y-55284558D01*
X84159518Y-55295996D01*
X84146058Y-55305578D01*
X84130151Y-55313306D01*
X84111797Y-55319180D01*
X84090996Y-55323198D01*
X84075769Y-55324847D01*
X84059454Y-55325671D01*
X84050889Y-55325774D01*
X83976884Y-55325774D01*
X83976884Y-55640115D01*
X84352773Y-55317348D01*
X84337403Y-55310335D01*
X84324082Y-55301938D01*
X84312811Y-55292154D01*
X84301604Y-55277978D01*
X84293598Y-55261636D01*
X84289500Y-55247004D01*
X84287450Y-55230987D01*
X84287194Y-55222459D01*
X84288418Y-55203210D01*
X84292089Y-55185854D01*
X84298207Y-55170392D01*
X84306772Y-55156823D01*
X84317784Y-55145147D01*
X84331244Y-55135365D01*
X84347151Y-55127476D01*
X84365505Y-55121480D01*
X84386306Y-55117378D01*
X84401533Y-55115695D01*
X84417847Y-55114853D01*
X84426413Y-55114748D01*
X84637438Y-55114748D01*
X84654297Y-55115160D01*
X84670068Y-55116397D01*
X84684751Y-55118458D01*
X84704736Y-55123095D01*
X84722275Y-55129586D01*
X84737366Y-55137932D01*
X84750010Y-55148133D01*
X84760206Y-55160189D01*
X84767956Y-55174099D01*
X84773258Y-55189864D01*
X84776113Y-55207484D01*
X84776657Y-55220261D01*
X84775507Y-55239117D01*
X84772059Y-55256119D01*
X84766311Y-55271266D01*
X84758264Y-55284558D01*
X84747918Y-55295996D01*
X84735273Y-55305578D01*
X84720329Y-55313306D01*
X84703086Y-55319180D01*
X84683544Y-55323198D01*
X84661703Y-55325362D01*
X84645865Y-55325774D01*
X84274738Y-55648541D01*
X84300087Y-55663060D01*
X84312608Y-55671110D01*
X84325027Y-55679688D01*
X84337344Y-55688793D01*
X84349558Y-55698425D01*
X84361670Y-55708585D01*
X84373679Y-55719272D01*
X84385586Y-55730487D01*
X84397391Y-55742229D01*
X84409094Y-55754498D01*
X84420694Y-55767295D01*
X84432192Y-55780619D01*
X84443587Y-55794470D01*
X84454881Y-55808849D01*
X84466072Y-55823755D01*
X84477160Y-55839188D01*
X84488146Y-55855149D01*
X84499030Y-55871637D01*
X84509812Y-55888653D01*
X84520491Y-55906196D01*
X84531068Y-55924266D01*
X84541543Y-55942864D01*
X84551915Y-55961989D01*
X84562185Y-55981641D01*
X84572353Y-56001821D01*
X84582418Y-56022528D01*
X84592381Y-56043762D01*
X84602242Y-56065524D01*
X84612000Y-56087813D01*
X84621657Y-56110630D01*
X84631210Y-56133974D01*
X84698621Y-56133974D01*
X84715524Y-56134386D01*
X84731336Y-56135622D01*
X84746058Y-56137683D01*
X84766096Y-56142320D01*
X84783681Y-56148811D01*
X84798812Y-56157158D01*
X84811489Y-56167359D01*
X84821712Y-56179414D01*
X84829482Y-56193325D01*
X84834798Y-56209090D01*
X84837661Y-56226710D01*
X84838206Y-56239487D01*
X84836979Y-56258343D01*
X84833299Y-56275344D01*
X84827165Y-56290491D01*
X84818577Y-56303784D01*
X84807536Y-56315221D01*
X84794041Y-56324804D01*
X84778092Y-56332532D01*
X84759690Y-56338405D01*
X84738834Y-56342424D01*
X84723567Y-56344072D01*
X84707209Y-56344896D01*
X84698621Y-56345000D01*
X84466713Y-56345000D01*
X84462066Y-56330973D01*
X84452643Y-56303390D01*
X84443049Y-56276433D01*
X84433283Y-56250104D01*
X84423346Y-56224401D01*
X84413236Y-56199325D01*
X84402955Y-56174876D01*
X84392502Y-56151054D01*
X84381878Y-56127858D01*
X84371082Y-56105290D01*
X84360114Y-56083348D01*
X84348974Y-56062033D01*
X84337662Y-56041345D01*
X84326179Y-56021283D01*
X84314524Y-56001849D01*
X84302697Y-55983041D01*
X84296720Y-55973872D01*
X84284717Y-55956100D01*
X84272706Y-55939234D01*
X84260686Y-55923276D01*
X84248657Y-55908225D01*
X84236620Y-55894081D01*
X84224575Y-55880845D01*
X84212520Y-55868516D01*
X84200457Y-55857094D01*
X84188386Y-55846580D01*
X84176306Y-55836972D01*
X84164217Y-55828273D01*
X84146068Y-55816924D01*
X84127900Y-55807618D01*
X84109713Y-55800352D01*
X84103646Y-55798384D01*
X83976884Y-55906095D01*
X83976884Y-56133974D01*
X84050889Y-56133974D01*
X84067748Y-56134386D01*
X84083519Y-56135622D01*
X84098202Y-56137683D01*
X84118187Y-56142320D01*
X84135725Y-56148811D01*
X84150817Y-56157158D01*
X84163460Y-56167359D01*
X84173657Y-56179414D01*
X84181407Y-56193325D01*
X84186709Y-56209090D01*
X84189564Y-56226710D01*
X84190108Y-56239487D01*
X84188884Y-56258343D01*
X84185213Y-56275344D01*
X84179095Y-56290491D01*
X84170530Y-56303784D01*
X84159518Y-56315221D01*
X84146058Y-56324804D01*
X84130151Y-56332532D01*
X84111797Y-56338405D01*
X84090996Y-56342424D01*
X84075769Y-56344072D01*
X84059454Y-56344896D01*
X84050889Y-56345000D01*
X83734351Y-56345000D01*
X83717492Y-56344587D01*
X83701721Y-56343351D01*
X83687038Y-56341290D01*
X83667053Y-56336653D01*
X83649514Y-56330162D01*
X83634423Y-56321816D01*
X83621779Y-56311615D01*
X83611583Y-56299559D01*
X83603833Y-56285648D01*
X83598531Y-56269883D01*
X83595676Y-56252264D01*
X83595132Y-56239487D01*
X83596356Y-56220630D01*
X83600026Y-56203629D01*
X83606144Y-56188482D01*
X83614710Y-56175190D01*
X83625722Y-56163752D01*
X83639182Y-56154170D01*
X83655088Y-56146442D01*
X83673442Y-56140568D01*
X83694244Y-56136550D01*
X83709471Y-56134901D01*
X83725785Y-56134077D01*
X83734351Y-56133974D01*
X83765858Y-56133974D01*
X83765858Y-55325774D01*
X83734351Y-55325774D01*
X83717492Y-55325362D01*
X83701721Y-55324125D01*
X83687038Y-55322065D01*
X83667053Y-55317428D01*
X83649514Y-55310936D01*
X83634423Y-55302590D01*
X83621779Y-55292389D01*
X83611583Y-55280333D01*
X83603833Y-55266423D01*
X83598531Y-55250658D01*
X83595676Y-55233038D01*
X83595132Y-55220261D01*
X83595693Y-55205578D01*
X83597972Y-55188947D01*
X83602004Y-55174230D01*
X83609157Y-55159096D01*
X83618834Y-55146718D01*
X83631036Y-55137096D01*
X83645607Y-55129502D01*
X83659443Y-55124373D01*
X83674816Y-55120335D01*
X83691728Y-55117389D01*
X83706366Y-55115818D01*
X83721988Y-55114945D01*
X83734351Y-55114748D01*
X84050889Y-55114748D01*
G37*
G36*
X85769870Y-55842714D02*
G01*
X85785442Y-55843126D01*
X85806916Y-55845290D01*
X85826130Y-55849309D01*
X85843084Y-55855182D01*
X85857776Y-55862910D01*
X85870209Y-55872493D01*
X85880381Y-55883930D01*
X85888292Y-55897222D01*
X85893943Y-55912369D01*
X85897334Y-55929371D01*
X85898464Y-55948227D01*
X85897334Y-55966399D01*
X85893943Y-55982857D01*
X85888292Y-55997602D01*
X85880381Y-56010635D01*
X85870209Y-56021954D01*
X85857776Y-56031561D01*
X85843084Y-56039454D01*
X85826130Y-56045634D01*
X85806916Y-56050101D01*
X85785442Y-56052855D01*
X85769870Y-56053740D01*
X85769870Y-56133974D01*
X85785442Y-56134386D01*
X85806916Y-56136550D01*
X85826130Y-56140568D01*
X85843084Y-56146442D01*
X85857776Y-56154170D01*
X85870209Y-56163752D01*
X85880381Y-56175190D01*
X85888292Y-56188482D01*
X85893943Y-56203629D01*
X85897334Y-56220630D01*
X85898464Y-56239487D01*
X85897221Y-56258343D01*
X85893493Y-56275344D01*
X85887278Y-56290491D01*
X85878578Y-56303784D01*
X85867391Y-56315221D01*
X85853719Y-56324804D01*
X85837561Y-56332532D01*
X85818917Y-56338405D01*
X85797788Y-56342424D01*
X85782320Y-56344072D01*
X85765748Y-56344896D01*
X85757048Y-56345000D01*
X85478611Y-56345000D01*
X85461752Y-56344587D01*
X85445981Y-56343351D01*
X85431298Y-56341290D01*
X85411313Y-56336653D01*
X85393775Y-56330162D01*
X85378684Y-56321816D01*
X85366040Y-56311615D01*
X85355843Y-56299559D01*
X85348094Y-56285648D01*
X85342791Y-56269883D01*
X85339936Y-56252264D01*
X85339392Y-56239487D01*
X85340616Y-56220630D01*
X85344287Y-56203629D01*
X85350405Y-56188482D01*
X85358970Y-56175190D01*
X85369982Y-56163752D01*
X85383442Y-56154170D01*
X85399349Y-56146442D01*
X85417703Y-56140568D01*
X85438504Y-56136550D01*
X85453731Y-56134901D01*
X85470046Y-56134077D01*
X85478611Y-56133974D01*
X85558845Y-56133974D01*
X85558845Y-56053740D01*
X84984752Y-56053740D01*
X84984752Y-55878618D01*
X85006325Y-55842714D01*
X85242306Y-55842714D01*
X85558845Y-55842714D01*
X85558845Y-55332002D01*
X85242306Y-55842714D01*
X85006325Y-55842714D01*
X85493265Y-55032316D01*
X85769870Y-55032316D01*
X85769870Y-55842714D01*
G37*
G36*
X86766652Y-54998843D02*
G01*
X86783125Y-54999538D01*
X86799315Y-55000697D01*
X86815222Y-55002320D01*
X86830846Y-55004407D01*
X86846186Y-55006957D01*
X86861242Y-55009971D01*
X86876016Y-55013449D01*
X86890506Y-55017390D01*
X86904712Y-55021795D01*
X86918636Y-55026663D01*
X86938989Y-55034836D01*
X86958705Y-55044051D01*
X86977784Y-55054310D01*
X86984002Y-55057962D01*
X87002180Y-55069376D01*
X87019482Y-55081498D01*
X87035908Y-55094328D01*
X87051458Y-55107867D01*
X87066133Y-55122115D01*
X87079932Y-55137071D01*
X87092855Y-55152735D01*
X87104902Y-55169108D01*
X87116073Y-55186189D01*
X87126368Y-55203978D01*
X87132745Y-55216231D01*
X87141843Y-55234811D01*
X87150451Y-55253454D01*
X87158570Y-55272163D01*
X87166199Y-55290935D01*
X87173339Y-55309772D01*
X87179989Y-55328674D01*
X87186150Y-55347639D01*
X87191822Y-55366670D01*
X87197004Y-55385764D01*
X87201696Y-55404923D01*
X87204553Y-55417732D01*
X87208547Y-55436981D01*
X87212148Y-55456397D01*
X87215356Y-55475981D01*
X87218171Y-55495733D01*
X87220594Y-55515652D01*
X87222624Y-55535738D01*
X87224260Y-55555992D01*
X87225504Y-55576413D01*
X87226355Y-55597002D01*
X87226814Y-55617758D01*
X87226901Y-55631688D01*
X87226743Y-55649019D01*
X87226267Y-55666205D01*
X87225475Y-55683248D01*
X87224365Y-55700147D01*
X87222939Y-55716902D01*
X87221195Y-55733513D01*
X87219135Y-55749981D01*
X87216757Y-55766304D01*
X87214063Y-55782484D01*
X87211052Y-55798520D01*
X87207723Y-55814412D01*
X87204078Y-55830160D01*
X87200115Y-55845765D01*
X87195836Y-55861225D01*
X87191240Y-55876542D01*
X87186326Y-55891715D01*
X87181096Y-55906744D01*
X87175549Y-55921630D01*
X87169684Y-55936371D01*
X87163503Y-55950969D01*
X87157005Y-55965423D01*
X87150189Y-55979733D01*
X87143057Y-55993899D01*
X87135608Y-56007921D01*
X87127841Y-56021800D01*
X87119758Y-56035535D01*
X87111358Y-56049126D01*
X87102641Y-56062573D01*
X87093606Y-56075876D01*
X87084255Y-56089035D01*
X87074587Y-56102051D01*
X87064602Y-56114923D01*
X87051195Y-56131016D01*
X87037627Y-56146599D01*
X87023898Y-56161671D01*
X87010008Y-56176232D01*
X86995957Y-56190281D01*
X86981745Y-56203820D01*
X86967372Y-56216849D01*
X86952838Y-56229366D01*
X86938143Y-56241372D01*
X86923287Y-56252867D01*
X86908270Y-56263852D01*
X86893092Y-56274326D01*
X86877753Y-56284288D01*
X86862253Y-56293740D01*
X86846592Y-56302681D01*
X86830770Y-56311111D01*
X86814787Y-56319030D01*
X86798643Y-56326438D01*
X86782338Y-56333335D01*
X86765872Y-56339722D01*
X86749245Y-56345597D01*
X86732457Y-56350962D01*
X86715508Y-56355815D01*
X86698398Y-56360158D01*
X86681127Y-56363990D01*
X86663695Y-56367311D01*
X86646102Y-56370120D01*
X86628348Y-56372420D01*
X86610433Y-56374208D01*
X86592357Y-56375485D01*
X86574120Y-56376251D01*
X86555722Y-56376507D01*
X86535160Y-56376175D01*
X86515377Y-56375180D01*
X86496374Y-56373522D01*
X86478150Y-56371200D01*
X86460705Y-56368215D01*
X86444039Y-56364567D01*
X86428153Y-56360255D01*
X86413046Y-56355281D01*
X86398718Y-56349642D01*
X86385169Y-56343341D01*
X86376570Y-56338771D01*
X86360770Y-56328885D01*
X86347077Y-56318278D01*
X86335491Y-56306949D01*
X86326011Y-56294899D01*
X86318638Y-56282128D01*
X86312384Y-56265150D01*
X86309422Y-56247044D01*
X86309159Y-56239487D01*
X86310266Y-56223314D01*
X86313589Y-56208042D01*
X86319128Y-56193672D01*
X86326881Y-56180204D01*
X86336851Y-56167638D01*
X86340666Y-56163649D01*
X86352932Y-56152817D01*
X86366100Y-56144226D01*
X86380169Y-56137876D01*
X86395140Y-56133768D01*
X86411012Y-56131900D01*
X86416503Y-56131775D01*
X86432605Y-56134073D01*
X86448165Y-56137771D01*
X86462659Y-56141687D01*
X86476587Y-56145697D01*
X86490773Y-56149602D01*
X86505954Y-56153415D01*
X86521126Y-56156658D01*
X86536614Y-56158922D01*
X86543265Y-56159253D01*
X86563966Y-56158763D01*
X86584395Y-56157295D01*
X86604553Y-56154848D01*
X86624438Y-56151422D01*
X86644051Y-56147017D01*
X86663393Y-56141633D01*
X86682462Y-56135270D01*
X86701260Y-56127929D01*
X86719786Y-56119608D01*
X86738040Y-56110309D01*
X86756021Y-56100031D01*
X86773731Y-56088773D01*
X86791169Y-56076537D01*
X86808336Y-56063323D01*
X86825230Y-56049129D01*
X86841852Y-56033956D01*
X86857964Y-56017981D01*
X86873325Y-56001470D01*
X86887937Y-55984424D01*
X86901799Y-55966843D01*
X86914910Y-55948726D01*
X86927272Y-55930075D01*
X86938884Y-55910888D01*
X86949747Y-55891166D01*
X86959859Y-55870908D01*
X86969221Y-55850116D01*
X86977834Y-55828788D01*
X86985696Y-55806925D01*
X86992809Y-55784527D01*
X86999171Y-55761593D01*
X87004784Y-55738124D01*
X87009647Y-55714120D01*
X86992212Y-55731999D01*
X86974711Y-55748724D01*
X86957144Y-55764296D01*
X86939511Y-55778715D01*
X86921813Y-55791980D01*
X86904048Y-55804091D01*
X86886218Y-55815049D01*
X86868322Y-55824854D01*
X86850360Y-55833505D01*
X86832333Y-55841002D01*
X86814239Y-55847347D01*
X86796080Y-55852537D01*
X86777854Y-55856574D01*
X86759563Y-55859458D01*
X86741207Y-55861188D01*
X86722784Y-55861765D01*
X86702091Y-55861271D01*
X86681780Y-55859790D01*
X86661849Y-55857321D01*
X86642298Y-55853865D01*
X86623128Y-55849422D01*
X86604339Y-55843991D01*
X86585931Y-55837572D01*
X86567903Y-55830166D01*
X86550256Y-55821773D01*
X86532990Y-55812392D01*
X86516104Y-55802023D01*
X86499599Y-55790667D01*
X86483475Y-55778324D01*
X86467731Y-55764993D01*
X86452368Y-55750675D01*
X86437386Y-55735369D01*
X86423101Y-55719318D01*
X86409737Y-55702855D01*
X86397295Y-55685979D01*
X86385775Y-55668691D01*
X86375176Y-55650991D01*
X86365499Y-55632879D01*
X86356743Y-55614355D01*
X86348909Y-55595418D01*
X86341997Y-55576070D01*
X86336006Y-55556309D01*
X86330937Y-55536136D01*
X86326790Y-55515551D01*
X86323564Y-55494554D01*
X86321260Y-55473144D01*
X86319878Y-55451323D01*
X86319463Y-55431287D01*
X86530443Y-55431287D01*
X86530961Y-55448091D01*
X86532516Y-55464432D01*
X86535108Y-55480308D01*
X86538737Y-55495721D01*
X86543403Y-55510671D01*
X86549106Y-55525156D01*
X86555845Y-55539178D01*
X86563621Y-55552737D01*
X86572435Y-55565831D01*
X86582285Y-55578462D01*
X86589427Y-55586625D01*
X86600794Y-55598083D01*
X86612637Y-55608414D01*
X86624957Y-55617618D01*
X86637753Y-55625695D01*
X86651026Y-55632645D01*
X86664775Y-55638467D01*
X86679001Y-55643163D01*
X86693704Y-55646732D01*
X86708883Y-55649174D01*
X86724538Y-55650489D01*
X86735240Y-55650739D01*
X86752162Y-55649949D01*
X86769221Y-55647579D01*
X86786417Y-55643629D01*
X86803750Y-55638100D01*
X86821221Y-55630990D01*
X86838830Y-55622300D01*
X86852126Y-55614746D01*
X86865500Y-55606303D01*
X86874459Y-55600181D01*
X86887662Y-55590394D01*
X86900343Y-55580131D01*
X86912503Y-55569391D01*
X86924141Y-55558175D01*
X86935258Y-55546482D01*
X86945852Y-55534313D01*
X86955926Y-55521667D01*
X86965477Y-55508544D01*
X86974507Y-55494945D01*
X86983016Y-55480869D01*
X86988398Y-55471221D01*
X86985371Y-55454385D01*
X86982061Y-55438133D01*
X86978467Y-55422466D01*
X86974591Y-55407382D01*
X86970430Y-55392882D01*
X86963659Y-55372227D01*
X86956250Y-55352885D01*
X86948203Y-55334857D01*
X86939518Y-55318143D01*
X86930196Y-55302743D01*
X86920237Y-55288657D01*
X86909640Y-55275884D01*
X86905966Y-55271919D01*
X86894517Y-55260788D01*
X86882288Y-55250752D01*
X86869281Y-55241812D01*
X86855494Y-55233966D01*
X86840927Y-55227214D01*
X86825582Y-55221558D01*
X86809457Y-55216996D01*
X86792553Y-55213529D01*
X86774870Y-55211157D01*
X86756408Y-55209880D01*
X86743667Y-55209637D01*
X86725421Y-55210158D01*
X86707916Y-55211723D01*
X86691152Y-55214331D01*
X86675128Y-55217983D01*
X86659845Y-55222678D01*
X86645302Y-55228416D01*
X86631500Y-55235197D01*
X86618439Y-55243022D01*
X86606118Y-55251889D01*
X86594538Y-55261801D01*
X86587229Y-55268988D01*
X86577081Y-55280437D01*
X86567931Y-55292665D01*
X86559779Y-55305673D01*
X86552625Y-55319460D01*
X86546469Y-55334026D01*
X86541312Y-55349372D01*
X86537153Y-55365496D01*
X86533992Y-55382400D01*
X86531829Y-55400083D01*
X86530664Y-55418546D01*
X86530443Y-55431287D01*
X86319463Y-55431287D01*
X86319417Y-55429089D01*
X86319862Y-55405377D01*
X86321197Y-55382234D01*
X86323422Y-55359661D01*
X86326538Y-55337658D01*
X86330544Y-55316224D01*
X86335440Y-55295360D01*
X86341225Y-55275066D01*
X86347902Y-55255341D01*
X86355468Y-55236185D01*
X86363924Y-55217599D01*
X86373271Y-55199583D01*
X86383508Y-55182136D01*
X86394635Y-55165259D01*
X86406652Y-55148952D01*
X86419559Y-55133214D01*
X86433356Y-55118046D01*
X86447945Y-55103583D01*
X86463226Y-55090053D01*
X86479200Y-55077456D01*
X86495867Y-55065793D01*
X86513226Y-55055062D01*
X86531278Y-55045265D01*
X86550023Y-55036401D01*
X86569460Y-55028469D01*
X86589590Y-55021471D01*
X86610413Y-55015406D01*
X86631928Y-55010274D01*
X86654136Y-55006075D01*
X86677037Y-55002810D01*
X86700630Y-55000477D01*
X86724916Y-54999077D01*
X86749895Y-54998611D01*
X86766652Y-54998843D01*
G37*
G36*
X88004778Y-54999279D02*
G01*
X88031506Y-55001284D01*
X88057397Y-55004626D01*
X88082453Y-55009304D01*
X88106673Y-55015319D01*
X88130058Y-55022671D01*
X88152606Y-55031359D01*
X88174319Y-55041384D01*
X88195196Y-55052745D01*
X88215237Y-55065444D01*
X88234443Y-55079479D01*
X88252813Y-55094850D01*
X88270347Y-55111558D01*
X88287045Y-55129603D01*
X88302907Y-55148985D01*
X88317934Y-55169703D01*
X88332131Y-55191341D01*
X88345411Y-55213575D01*
X88357776Y-55236404D01*
X88369225Y-55259829D01*
X88379758Y-55283848D01*
X88389375Y-55308463D01*
X88398076Y-55333674D01*
X88405861Y-55359480D01*
X88412731Y-55385881D01*
X88418684Y-55412877D01*
X88423722Y-55440469D01*
X88427843Y-55468656D01*
X88431049Y-55497439D01*
X88432308Y-55512053D01*
X88433339Y-55526816D01*
X88434140Y-55541729D01*
X88434713Y-55556790D01*
X88435056Y-55572000D01*
X88435170Y-55587358D01*
X88435170Y-55787759D01*
X88434984Y-55807433D01*
X88434426Y-55826886D01*
X88433496Y-55846119D01*
X88432194Y-55865131D01*
X88430519Y-55883923D01*
X88428473Y-55902494D01*
X88426054Y-55920846D01*
X88423264Y-55938976D01*
X88420101Y-55956887D01*
X88416566Y-55974577D01*
X88412659Y-55992046D01*
X88408380Y-56009295D01*
X88403729Y-56026324D01*
X88398706Y-56043133D01*
X88393310Y-56059721D01*
X88387543Y-56076088D01*
X88381404Y-56092127D01*
X88374801Y-56107819D01*
X88367734Y-56123165D01*
X88360203Y-56138164D01*
X88352209Y-56152817D01*
X88343751Y-56167124D01*
X88334830Y-56181084D01*
X88325444Y-56194699D01*
X88315595Y-56207966D01*
X88305283Y-56220888D01*
X88294507Y-56233463D01*
X88283267Y-56245692D01*
X88271563Y-56257574D01*
X88259396Y-56269111D01*
X88246765Y-56280300D01*
X88233670Y-56291144D01*
X88220175Y-56301481D01*
X88206342Y-56311151D01*
X88192171Y-56320154D01*
X88177662Y-56328490D01*
X88162816Y-56336160D01*
X88147632Y-56343162D01*
X88132110Y-56349497D01*
X88116250Y-56355166D01*
X88100053Y-56360168D01*
X88083518Y-56364503D01*
X88066645Y-56368171D01*
X88049435Y-56371172D01*
X88031886Y-56373506D01*
X88014000Y-56375173D01*
X87995777Y-56376173D01*
X87977215Y-56376507D01*
X87949651Y-56375840D01*
X87922919Y-56373839D01*
X87897020Y-56370505D01*
X87871954Y-56365836D01*
X87847721Y-56359834D01*
X87824321Y-56352499D01*
X87801754Y-56343829D01*
X87780020Y-56333825D01*
X87759118Y-56322488D01*
X87739050Y-56309817D01*
X87719814Y-56295812D01*
X87701412Y-56280474D01*
X87683842Y-56263801D01*
X87667105Y-56245795D01*
X87651201Y-56226455D01*
X87636130Y-56205781D01*
X87621978Y-56184098D01*
X87608739Y-56161823D01*
X87596412Y-56138955D01*
X87584999Y-56115495D01*
X87574499Y-56091443D01*
X87564912Y-56066797D01*
X87556238Y-56041560D01*
X87548477Y-56015730D01*
X87541629Y-55989307D01*
X87535695Y-55962292D01*
X87530673Y-55934684D01*
X87526564Y-55906484D01*
X87523369Y-55877692D01*
X87522113Y-55863073D01*
X87521086Y-55848307D01*
X87520287Y-55833392D01*
X87519716Y-55818329D01*
X87519374Y-55803118D01*
X87519371Y-55802780D01*
X87730286Y-55802780D01*
X87730549Y-55823088D01*
X87731339Y-55842886D01*
X87732656Y-55862174D01*
X87734499Y-55880953D01*
X87736869Y-55899223D01*
X87739765Y-55916983D01*
X87743189Y-55934234D01*
X87747138Y-55950975D01*
X87751615Y-55967206D01*
X87756618Y-55982929D01*
X87762148Y-55998141D01*
X87768204Y-56012844D01*
X87774787Y-56027038D01*
X87781897Y-56040723D01*
X87789534Y-56053897D01*
X87797697Y-56066563D01*
X87806341Y-56078541D01*
X87819950Y-56095060D01*
X87834333Y-56109839D01*
X87849489Y-56122880D01*
X87865417Y-56134183D01*
X87882118Y-56143746D01*
X87899592Y-56151571D01*
X87917838Y-56157656D01*
X87936858Y-56162003D01*
X87956650Y-56164612D01*
X87977215Y-56165481D01*
X87997777Y-56164612D01*
X88017560Y-56162003D01*
X88036563Y-56157656D01*
X88054787Y-56151571D01*
X88072232Y-56143746D01*
X88088898Y-56134183D01*
X88104784Y-56122880D01*
X88119891Y-56109839D01*
X88134219Y-56095060D01*
X88147768Y-56078541D01*
X88156367Y-56066563D01*
X88164575Y-56053897D01*
X88172253Y-56040723D01*
X88179401Y-56027038D01*
X88186020Y-56012844D01*
X88192109Y-55998141D01*
X88197669Y-55982929D01*
X88202699Y-55967206D01*
X88207200Y-55950975D01*
X88211172Y-55934234D01*
X88214613Y-55916983D01*
X88217526Y-55899223D01*
X88219909Y-55880953D01*
X88221762Y-55862174D01*
X88223086Y-55842886D01*
X88223880Y-55823088D01*
X88224145Y-55802780D01*
X88224145Y-55572704D01*
X88223880Y-55552396D01*
X88223086Y-55532598D01*
X88221762Y-55513310D01*
X88219909Y-55494531D01*
X88217526Y-55476261D01*
X88214613Y-55458501D01*
X88211172Y-55441250D01*
X88207200Y-55424509D01*
X88202699Y-55408278D01*
X88197669Y-55392555D01*
X88192109Y-55377343D01*
X88186020Y-55362640D01*
X88179401Y-55348446D01*
X88172253Y-55334761D01*
X88164575Y-55321587D01*
X88156367Y-55308921D01*
X88147768Y-55296899D01*
X88134219Y-55280319D01*
X88119891Y-55265484D01*
X88104784Y-55252395D01*
X88088898Y-55241051D01*
X88072232Y-55231452D01*
X88054787Y-55223599D01*
X88036563Y-55217490D01*
X88017560Y-55213127D01*
X87997777Y-55210509D01*
X87977215Y-55209637D01*
X87956650Y-55210509D01*
X87936858Y-55213127D01*
X87917838Y-55217490D01*
X87899592Y-55223599D01*
X87882118Y-55231452D01*
X87865417Y-55241051D01*
X87849489Y-55252395D01*
X87834333Y-55265484D01*
X87819950Y-55280319D01*
X87806341Y-55296899D01*
X87797697Y-55308921D01*
X87789534Y-55321587D01*
X87781897Y-55334761D01*
X87774787Y-55348446D01*
X87768204Y-55362640D01*
X87762148Y-55377343D01*
X87756618Y-55392555D01*
X87751615Y-55408278D01*
X87747138Y-55424509D01*
X87743189Y-55441250D01*
X87739765Y-55458501D01*
X87736869Y-55476261D01*
X87734499Y-55494531D01*
X87732656Y-55513310D01*
X87731339Y-55532598D01*
X87730549Y-55552396D01*
X87730286Y-55572704D01*
X87730286Y-55802780D01*
X87519371Y-55802780D01*
X87519260Y-55787759D01*
X87519260Y-55587358D01*
X87519444Y-55567686D01*
X87519998Y-55548237D01*
X87520921Y-55529012D01*
X87522214Y-55510010D01*
X87523875Y-55491231D01*
X87525906Y-55472675D01*
X87528306Y-55454342D01*
X87531075Y-55436233D01*
X87534213Y-55418347D01*
X87537721Y-55400684D01*
X87541598Y-55383245D01*
X87545844Y-55366028D01*
X87550459Y-55349035D01*
X87555444Y-55332266D01*
X87560798Y-55315719D01*
X87566521Y-55299396D01*
X87572705Y-55283357D01*
X87579349Y-55267665D01*
X87586455Y-55252319D01*
X87594021Y-55237320D01*
X87602048Y-55222667D01*
X87610536Y-55208360D01*
X87619485Y-55194400D01*
X87628894Y-55180785D01*
X87638765Y-55167518D01*
X87649096Y-55154596D01*
X87659888Y-55142021D01*
X87671141Y-55129792D01*
X87682854Y-55117910D01*
X87695029Y-55106373D01*
X87707664Y-55095184D01*
X87720760Y-55084340D01*
X87734256Y-55073959D01*
X87748089Y-55064247D01*
X87762259Y-55055205D01*
X87776768Y-55046834D01*
X87791614Y-55039131D01*
X87806799Y-55032099D01*
X87822320Y-55025736D01*
X87838180Y-55020043D01*
X87854377Y-55015020D01*
X87870912Y-55010666D01*
X87887785Y-55006983D01*
X87904996Y-55003969D01*
X87922544Y-55001625D01*
X87940430Y-54999950D01*
X87958654Y-54998946D01*
X87977215Y-54998611D01*
X88004778Y-54999279D01*
G37*
G36*
X89263606Y-54999279D02*
G01*
X89290333Y-55001284D01*
X89316225Y-55004626D01*
X89341281Y-55009304D01*
X89365501Y-55015319D01*
X89388885Y-55022671D01*
X89411434Y-55031359D01*
X89433147Y-55041384D01*
X89454024Y-55052745D01*
X89474065Y-55065444D01*
X89493271Y-55079479D01*
X89511640Y-55094850D01*
X89529174Y-55111558D01*
X89545872Y-55129603D01*
X89561735Y-55148985D01*
X89576762Y-55169703D01*
X89590958Y-55191341D01*
X89604239Y-55213575D01*
X89616604Y-55236404D01*
X89628053Y-55259829D01*
X89638586Y-55283848D01*
X89648203Y-55308463D01*
X89656904Y-55333674D01*
X89664689Y-55359480D01*
X89671558Y-55385881D01*
X89677512Y-55412877D01*
X89682549Y-55440469D01*
X89686671Y-55468656D01*
X89689877Y-55497439D01*
X89691136Y-55512053D01*
X89692166Y-55526816D01*
X89692968Y-55541729D01*
X89693540Y-55556790D01*
X89693884Y-55572000D01*
X89693998Y-55587358D01*
X89693998Y-55787759D01*
X89693812Y-55807433D01*
X89693254Y-55826886D01*
X89692324Y-55846119D01*
X89691021Y-55865131D01*
X89689347Y-55883923D01*
X89687301Y-55902494D01*
X89684882Y-55920846D01*
X89682091Y-55938976D01*
X89678929Y-55956887D01*
X89675394Y-55974577D01*
X89671487Y-55992046D01*
X89667208Y-56009295D01*
X89662557Y-56026324D01*
X89657533Y-56043133D01*
X89652138Y-56059721D01*
X89646371Y-56076088D01*
X89640231Y-56092127D01*
X89633628Y-56107819D01*
X89626561Y-56123165D01*
X89619031Y-56138164D01*
X89611037Y-56152817D01*
X89602579Y-56167124D01*
X89593657Y-56181084D01*
X89584272Y-56194699D01*
X89574423Y-56207966D01*
X89564111Y-56220888D01*
X89553334Y-56233463D01*
X89542094Y-56245692D01*
X89530391Y-56257574D01*
X89518223Y-56269111D01*
X89505592Y-56280300D01*
X89492498Y-56291144D01*
X89479002Y-56301481D01*
X89465169Y-56311151D01*
X89450998Y-56320154D01*
X89436490Y-56328490D01*
X89421643Y-56336160D01*
X89406459Y-56343162D01*
X89390938Y-56349497D01*
X89375078Y-56355166D01*
X89358881Y-56360168D01*
X89342346Y-56364503D01*
X89325473Y-56368171D01*
X89308262Y-56371172D01*
X89290714Y-56373506D01*
X89272828Y-56375173D01*
X89254604Y-56376173D01*
X89236043Y-56376507D01*
X89208478Y-56375840D01*
X89181746Y-56373839D01*
X89155848Y-56370505D01*
X89130782Y-56365836D01*
X89106549Y-56359834D01*
X89083149Y-56352499D01*
X89060581Y-56343829D01*
X89038847Y-56333825D01*
X89017946Y-56322488D01*
X88997877Y-56309817D01*
X88978642Y-56295812D01*
X88960239Y-56280474D01*
X88942669Y-56263801D01*
X88925933Y-56245795D01*
X88910029Y-56226455D01*
X88894958Y-56205781D01*
X88880805Y-56184098D01*
X88867566Y-56161823D01*
X88855240Y-56138955D01*
X88843827Y-56115495D01*
X88833327Y-56091443D01*
X88823740Y-56066797D01*
X88815066Y-56041560D01*
X88807305Y-56015730D01*
X88800457Y-55989307D01*
X88794522Y-55962292D01*
X88789501Y-55934684D01*
X88785392Y-55906484D01*
X88782196Y-55877692D01*
X88780941Y-55863073D01*
X88779914Y-55848307D01*
X88779115Y-55833392D01*
X88778544Y-55818329D01*
X88778202Y-55803118D01*
X88778199Y-55802780D01*
X88989113Y-55802780D01*
X88989377Y-55823088D01*
X88990167Y-55842886D01*
X88991483Y-55862174D01*
X88993326Y-55880953D01*
X88995696Y-55899223D01*
X88998593Y-55916983D01*
X89002016Y-55934234D01*
X89005966Y-55950975D01*
X89010443Y-55967206D01*
X89015446Y-55982929D01*
X89020975Y-55998141D01*
X89027032Y-56012844D01*
X89033615Y-56027038D01*
X89040725Y-56040723D01*
X89048361Y-56053897D01*
X89056524Y-56066563D01*
X89065168Y-56078541D01*
X89078778Y-56095060D01*
X89093161Y-56109839D01*
X89108316Y-56122880D01*
X89124244Y-56134183D01*
X89140945Y-56143746D01*
X89158419Y-56151571D01*
X89176666Y-56157656D01*
X89195685Y-56162003D01*
X89215478Y-56164612D01*
X89236043Y-56165481D01*
X89256605Y-56164612D01*
X89276387Y-56162003D01*
X89295391Y-56157656D01*
X89313615Y-56151571D01*
X89331060Y-56143746D01*
X89347725Y-56134183D01*
X89363612Y-56122880D01*
X89378719Y-56109839D01*
X89393047Y-56095060D01*
X89406595Y-56078541D01*
X89415195Y-56066563D01*
X89423402Y-56053897D01*
X89431080Y-56040723D01*
X89438229Y-56027038D01*
X89444848Y-56012844D01*
X89450937Y-55998141D01*
X89456497Y-55982929D01*
X89461527Y-55967206D01*
X89466028Y-55950975D01*
X89469999Y-55934234D01*
X89473441Y-55916983D01*
X89476353Y-55899223D01*
X89478736Y-55880953D01*
X89480589Y-55862174D01*
X89481913Y-55842886D01*
X89482708Y-55823088D01*
X89482972Y-55802780D01*
X89482972Y-55572704D01*
X89482708Y-55552396D01*
X89481913Y-55532598D01*
X89480589Y-55513310D01*
X89478736Y-55494531D01*
X89476353Y-55476261D01*
X89473441Y-55458501D01*
X89469999Y-55441250D01*
X89466028Y-55424509D01*
X89461527Y-55408278D01*
X89456497Y-55392555D01*
X89450937Y-55377343D01*
X89444848Y-55362640D01*
X89438229Y-55348446D01*
X89431080Y-55334761D01*
X89423402Y-55321587D01*
X89415195Y-55308921D01*
X89406595Y-55296899D01*
X89393047Y-55280319D01*
X89378719Y-55265484D01*
X89363612Y-55252395D01*
X89347725Y-55241051D01*
X89331060Y-55231452D01*
X89313615Y-55223599D01*
X89295391Y-55217490D01*
X89276387Y-55213127D01*
X89256605Y-55210509D01*
X89236043Y-55209637D01*
X89215478Y-55210509D01*
X89195685Y-55213127D01*
X89176666Y-55217490D01*
X89158419Y-55223599D01*
X89140945Y-55231452D01*
X89124244Y-55241051D01*
X89108316Y-55252395D01*
X89093161Y-55265484D01*
X89078778Y-55280319D01*
X89065168Y-55296899D01*
X89056524Y-55308921D01*
X89048361Y-55321587D01*
X89040725Y-55334761D01*
X89033615Y-55348446D01*
X89027032Y-55362640D01*
X89020975Y-55377343D01*
X89015446Y-55392555D01*
X89010443Y-55408278D01*
X89005966Y-55424509D01*
X89002016Y-55441250D01*
X88998593Y-55458501D01*
X88995696Y-55476261D01*
X88993326Y-55494531D01*
X88991483Y-55513310D01*
X88990167Y-55532598D01*
X88989377Y-55552396D01*
X88989113Y-55572704D01*
X88989113Y-55802780D01*
X88778199Y-55802780D01*
X88778087Y-55787759D01*
X88778087Y-55587358D01*
X88778272Y-55567686D01*
X88778826Y-55548237D01*
X88779749Y-55529012D01*
X88781041Y-55510010D01*
X88782703Y-55491231D01*
X88784734Y-55472675D01*
X88787133Y-55454342D01*
X88789903Y-55436233D01*
X88793041Y-55418347D01*
X88796549Y-55400684D01*
X88800426Y-55383245D01*
X88804672Y-55366028D01*
X88809287Y-55349035D01*
X88814272Y-55332266D01*
X88819625Y-55315719D01*
X88825348Y-55299396D01*
X88831532Y-55283357D01*
X88838177Y-55267665D01*
X88845282Y-55252319D01*
X88852849Y-55237320D01*
X88860876Y-55222667D01*
X88869364Y-55208360D01*
X88878312Y-55194400D01*
X88887722Y-55180785D01*
X88897592Y-55167518D01*
X88907923Y-55154596D01*
X88918715Y-55142021D01*
X88929968Y-55129792D01*
X88941682Y-55117910D01*
X88953856Y-55106373D01*
X88966492Y-55095184D01*
X88979588Y-55084340D01*
X88993083Y-55073959D01*
X89006916Y-55064247D01*
X89021087Y-55055205D01*
X89035596Y-55046834D01*
X89050442Y-55039131D01*
X89065626Y-55032099D01*
X89081148Y-55025736D01*
X89097008Y-55020043D01*
X89113205Y-55015020D01*
X89129740Y-55010666D01*
X89146613Y-55006983D01*
X89163823Y-55003969D01*
X89181371Y-55001625D01*
X89199258Y-54999950D01*
X89217481Y-54998946D01*
X89236043Y-54998611D01*
X89263606Y-54999279D01*
G37*
G36*
X91762152Y-55115156D02*
G01*
X91786871Y-55116380D01*
X91811004Y-55118419D01*
X91834550Y-55121274D01*
X91857509Y-55124945D01*
X91879882Y-55129431D01*
X91901668Y-55134734D01*
X91922867Y-55140852D01*
X91943479Y-55147785D01*
X91963505Y-55155535D01*
X91982943Y-55164100D01*
X92001795Y-55173481D01*
X92020061Y-55183678D01*
X92037739Y-55194690D01*
X92054831Y-55206518D01*
X92071336Y-55219162D01*
X92087041Y-55232457D01*
X92101733Y-55246239D01*
X92115411Y-55260507D01*
X92128077Y-55275262D01*
X92139729Y-55290503D01*
X92150367Y-55306231D01*
X92159993Y-55322445D01*
X92168606Y-55339146D01*
X92176205Y-55356334D01*
X92182791Y-55374008D01*
X92188363Y-55392169D01*
X92192923Y-55410816D01*
X92196469Y-55429950D01*
X92199002Y-55449571D01*
X92200522Y-55469678D01*
X92201029Y-55490272D01*
X92200139Y-55514271D01*
X92197468Y-55537727D01*
X92193017Y-55560639D01*
X92186786Y-55583008D01*
X92178775Y-55604832D01*
X92168983Y-55626113D01*
X92157411Y-55646849D01*
X92144059Y-55667042D01*
X92128927Y-55686692D01*
X92112014Y-55705797D01*
X92093321Y-55724358D01*
X92072847Y-55742376D01*
X92050593Y-55759850D01*
X92026559Y-55776780D01*
X92013875Y-55785041D01*
X92000745Y-55793166D01*
X91987170Y-55801155D01*
X91973150Y-55809009D01*
X91990246Y-55824360D01*
X92007279Y-55840373D01*
X92024249Y-55857047D01*
X92041157Y-55874382D01*
X92058001Y-55892378D01*
X92074782Y-55911035D01*
X92091500Y-55930354D01*
X92108155Y-55950334D01*
X92124748Y-55970974D01*
X92141277Y-55992277D01*
X92157743Y-56014240D01*
X92174147Y-56036864D01*
X92190487Y-56060150D01*
X92206765Y-56084097D01*
X92214880Y-56096318D01*
X92222979Y-56108705D01*
X92231063Y-56121256D01*
X92239131Y-56133974D01*
X92266608Y-56133974D01*
X92283466Y-56134386D01*
X92299237Y-56135622D01*
X92313921Y-56137683D01*
X92333906Y-56142320D01*
X92351444Y-56148811D01*
X92366535Y-56157158D01*
X92379179Y-56167359D01*
X92389376Y-56179414D01*
X92397125Y-56193325D01*
X92402428Y-56209090D01*
X92405283Y-56226710D01*
X92405826Y-56239487D01*
X92404603Y-56258343D01*
X92400932Y-56275344D01*
X92394814Y-56290491D01*
X92386249Y-56303784D01*
X92375236Y-56315221D01*
X92361777Y-56324804D01*
X92345870Y-56332532D01*
X92327516Y-56338405D01*
X92306715Y-56342424D01*
X92291488Y-56344072D01*
X92275173Y-56344896D01*
X92266608Y-56345000D01*
X92099912Y-56345000D01*
X92089988Y-56326016D01*
X92079722Y-56307075D01*
X92069116Y-56288177D01*
X92058170Y-56269322D01*
X92046882Y-56250510D01*
X92035255Y-56231741D01*
X92023286Y-56213015D01*
X92010977Y-56194332D01*
X91998328Y-56175692D01*
X91985338Y-56157095D01*
X91972007Y-56138540D01*
X91958335Y-56120029D01*
X91944323Y-56101560D01*
X91929971Y-56083135D01*
X91915278Y-56064752D01*
X91900244Y-56046413D01*
X91885296Y-56028575D01*
X91870769Y-56011700D01*
X91856662Y-55995786D01*
X91842976Y-55980833D01*
X91829711Y-55966843D01*
X91816867Y-55953814D01*
X91804444Y-55941747D01*
X91792441Y-55930642D01*
X91780859Y-55920498D01*
X91764275Y-55907085D01*
X91748638Y-55895837D01*
X91733947Y-55886752D01*
X91720203Y-55879831D01*
X91711566Y-55876420D01*
X91508967Y-55876420D01*
X91508967Y-56133974D01*
X91582606Y-56133974D01*
X91599509Y-56134386D01*
X91615321Y-56135622D01*
X91630043Y-56137683D01*
X91650081Y-56142320D01*
X91667665Y-56148811D01*
X91682796Y-56157158D01*
X91695473Y-56167359D01*
X91705697Y-56179414D01*
X91713467Y-56193325D01*
X91718783Y-56209090D01*
X91721645Y-56226710D01*
X91722191Y-56239487D01*
X91720964Y-56258343D01*
X91717283Y-56275344D01*
X91711149Y-56290491D01*
X91702562Y-56303784D01*
X91691520Y-56315221D01*
X91678025Y-56324804D01*
X91662077Y-56332532D01*
X91643674Y-56338405D01*
X91622818Y-56342424D01*
X91607551Y-56344072D01*
X91591194Y-56344896D01*
X91582606Y-56345000D01*
X91266067Y-56345000D01*
X91249209Y-56344587D01*
X91233438Y-56343351D01*
X91218755Y-56341290D01*
X91198769Y-56336653D01*
X91181231Y-56330162D01*
X91166140Y-56321816D01*
X91153496Y-56311615D01*
X91143299Y-56299559D01*
X91135550Y-56285648D01*
X91130248Y-56269883D01*
X91127393Y-56252264D01*
X91126849Y-56239487D01*
X91128072Y-56220630D01*
X91131743Y-56203629D01*
X91137861Y-56188482D01*
X91146426Y-56175190D01*
X91157439Y-56163752D01*
X91170898Y-56154170D01*
X91186805Y-56146442D01*
X91205159Y-56140568D01*
X91225960Y-56136550D01*
X91241187Y-56134901D01*
X91257502Y-56134077D01*
X91266067Y-56133974D01*
X91297941Y-56133974D01*
X91297941Y-55325774D01*
X91508967Y-55325774D01*
X91508967Y-55665394D01*
X91669434Y-55665394D01*
X91685836Y-55665192D01*
X91701886Y-55664587D01*
X91717584Y-55663578D01*
X91732930Y-55662165D01*
X91747924Y-55660349D01*
X91762565Y-55658129D01*
X91783868Y-55654043D01*
X91804378Y-55649049D01*
X91824096Y-55643147D01*
X91843022Y-55636337D01*
X91861156Y-55628618D01*
X91878498Y-55619992D01*
X91889619Y-55613736D01*
X91905333Y-55603819D01*
X91919501Y-55593438D01*
X91932123Y-55582593D01*
X91943200Y-55571284D01*
X91952731Y-55559512D01*
X91963035Y-55543094D01*
X91970591Y-55525852D01*
X91975400Y-55507786D01*
X91977461Y-55488895D01*
X91977547Y-55484043D01*
X91976522Y-55467534D01*
X91973448Y-55451712D01*
X91968325Y-55436576D01*
X91961152Y-55422128D01*
X91951930Y-55408366D01*
X91940658Y-55395292D01*
X91927338Y-55382904D01*
X91911967Y-55371203D01*
X91899359Y-55363085D01*
X91886126Y-55355764D01*
X91872268Y-55349243D01*
X91857786Y-55343520D01*
X91842678Y-55338595D01*
X91826947Y-55334470D01*
X91810590Y-55331142D01*
X91793609Y-55328613D01*
X91776003Y-55326883D01*
X91757772Y-55325952D01*
X91745272Y-55325774D01*
X91508967Y-55325774D01*
X91297941Y-55325774D01*
X91266067Y-55325774D01*
X91249209Y-55325362D01*
X91233438Y-55324125D01*
X91218755Y-55322065D01*
X91198769Y-55317428D01*
X91181231Y-55310936D01*
X91166140Y-55302590D01*
X91153496Y-55292389D01*
X91143299Y-55280333D01*
X91135550Y-55266423D01*
X91130248Y-55250658D01*
X91127393Y-55233038D01*
X91126849Y-55220261D01*
X91127410Y-55205578D01*
X91129689Y-55188947D01*
X91133721Y-55174230D01*
X91140874Y-55159096D01*
X91150551Y-55146718D01*
X91162752Y-55137096D01*
X91177324Y-55129502D01*
X91191159Y-55124373D01*
X91206533Y-55120335D01*
X91223445Y-55117389D01*
X91238083Y-55115818D01*
X91253705Y-55114945D01*
X91266067Y-55114748D01*
X91736845Y-55114748D01*
X91762152Y-55115156D01*
G37*
G36*
X93546318Y-56133974D02*
G01*
X93563709Y-56134386D01*
X93579978Y-56135622D01*
X93595125Y-56137683D01*
X93615742Y-56142320D01*
X93633834Y-56148811D01*
X93649401Y-56157158D01*
X93662444Y-56167359D01*
X93672963Y-56179414D01*
X93680957Y-56193325D01*
X93686427Y-56209090D01*
X93689372Y-56226710D01*
X93689933Y-56239487D01*
X93688710Y-56258343D01*
X93685039Y-56275344D01*
X93678921Y-56290491D01*
X93670356Y-56303784D01*
X93659343Y-56315221D01*
X93645884Y-56324804D01*
X93629977Y-56332532D01*
X93611623Y-56338405D01*
X93590822Y-56342424D01*
X93575595Y-56344072D01*
X93559280Y-56344896D01*
X93550715Y-56345000D01*
X93257257Y-56345000D01*
X93240399Y-56344587D01*
X93224628Y-56343351D01*
X93209944Y-56341290D01*
X93189959Y-56336653D01*
X93172421Y-56330162D01*
X93157330Y-56321816D01*
X93144686Y-56311615D01*
X93134489Y-56299559D01*
X93126740Y-56285648D01*
X93121437Y-56269883D01*
X93118582Y-56252264D01*
X93118039Y-56239487D01*
X93118600Y-56224803D01*
X93120879Y-56208172D01*
X93124911Y-56193455D01*
X93132063Y-56178321D01*
X93141741Y-56165943D01*
X93153942Y-56156322D01*
X93168514Y-56148727D01*
X93182349Y-56143598D01*
X93197723Y-56139561D01*
X93214635Y-56136614D01*
X93229272Y-56135043D01*
X93244894Y-56134170D01*
X93257257Y-56133974D01*
X93305983Y-56133974D01*
X93257257Y-56011608D01*
X92754972Y-56011608D01*
X92706612Y-56133974D01*
X92754972Y-56133974D01*
X92771830Y-56134386D01*
X92787601Y-56135622D01*
X92802284Y-56137683D01*
X92822270Y-56142320D01*
X92839808Y-56148811D01*
X92854899Y-56157158D01*
X92867543Y-56167359D01*
X92877739Y-56179414D01*
X92885489Y-56193325D01*
X92890791Y-56209090D01*
X92893646Y-56226710D01*
X92894190Y-56239487D01*
X92892966Y-56258343D01*
X92889296Y-56275344D01*
X92883178Y-56290491D01*
X92874612Y-56303784D01*
X92863600Y-56315221D01*
X92850140Y-56324804D01*
X92834234Y-56332532D01*
X92815880Y-56338405D01*
X92795078Y-56342424D01*
X92779851Y-56344072D01*
X92763537Y-56344896D01*
X92754972Y-56345000D01*
X92474337Y-56345000D01*
X92457478Y-56344587D01*
X92441707Y-56343351D01*
X92427024Y-56341290D01*
X92407039Y-56336653D01*
X92389500Y-56330162D01*
X92374409Y-56321816D01*
X92361765Y-56311615D01*
X92351569Y-56299559D01*
X92343819Y-56285648D01*
X92338517Y-56269883D01*
X92335662Y-56252264D01*
X92335118Y-56239487D01*
X92335696Y-56224305D01*
X92338045Y-56207196D01*
X92342201Y-56192163D01*
X92349572Y-56176861D01*
X92359546Y-56164548D01*
X92372121Y-56155223D01*
X92387066Y-56148001D01*
X92401154Y-56143125D01*
X92416726Y-56139286D01*
X92433783Y-56136485D01*
X92448497Y-56134990D01*
X92464162Y-56134160D01*
X92476535Y-56133974D01*
X92611494Y-55800582D01*
X92839602Y-55800582D01*
X93170795Y-55800582D01*
X93006297Y-55395383D01*
X92839602Y-55800582D01*
X92611494Y-55800582D01*
X92803698Y-55325774D01*
X92670708Y-55325774D01*
X92653583Y-55325362D01*
X92637563Y-55324125D01*
X92622648Y-55322065D01*
X92602347Y-55317428D01*
X92584532Y-55310936D01*
X92569203Y-55302590D01*
X92556359Y-55292389D01*
X92546002Y-55280333D01*
X92538130Y-55266423D01*
X92532744Y-55250658D01*
X92529844Y-55233038D01*
X92529291Y-55220261D01*
X92529869Y-55205080D01*
X92532218Y-55187971D01*
X92536374Y-55172937D01*
X92543745Y-55157636D01*
X92553719Y-55145323D01*
X92566294Y-55135997D01*
X92581239Y-55128776D01*
X92595327Y-55123900D01*
X92610899Y-55120061D01*
X92627956Y-55117259D01*
X92642671Y-55115765D01*
X92658335Y-55114935D01*
X92670708Y-55114748D01*
X93126465Y-55114748D01*
X93546318Y-56133974D01*
G37*
G36*
X94590090Y-56133974D02*
G01*
X94606451Y-56134323D01*
X94621827Y-56135370D01*
X94639662Y-56137662D01*
X94655959Y-56141045D01*
X94670717Y-56145519D01*
X94686396Y-56152328D01*
X94693405Y-56156322D01*
X94705607Y-56165943D01*
X94715284Y-56178321D01*
X94722436Y-56193455D01*
X94726469Y-56208172D01*
X94728748Y-56224803D01*
X94729309Y-56239487D01*
X94728085Y-56258343D01*
X94724414Y-56275344D01*
X94718296Y-56290491D01*
X94709731Y-56303784D01*
X94698719Y-56315221D01*
X94685259Y-56324804D01*
X94669352Y-56332532D01*
X94650998Y-56338405D01*
X94630197Y-56342424D01*
X94614970Y-56344072D01*
X94598655Y-56344896D01*
X94590090Y-56345000D01*
X93952616Y-56345000D01*
X93935758Y-56344587D01*
X93919987Y-56343351D01*
X93905304Y-56341290D01*
X93885318Y-56336653D01*
X93867780Y-56330162D01*
X93852689Y-56321816D01*
X93840045Y-56311615D01*
X93829849Y-56299559D01*
X93822099Y-56285648D01*
X93816797Y-56269883D01*
X93813942Y-56252264D01*
X93813398Y-56239487D01*
X93813959Y-56224803D01*
X93816238Y-56208172D01*
X93820270Y-56193455D01*
X93827423Y-56178321D01*
X93837100Y-56165943D01*
X93849302Y-56156322D01*
X93863873Y-56148727D01*
X93877708Y-56143598D01*
X93893082Y-56139561D01*
X93909994Y-56136614D01*
X93924632Y-56135043D01*
X93940254Y-56134170D01*
X93952616Y-56133974D01*
X94165840Y-56133974D01*
X94165840Y-55325774D01*
X93952616Y-55325774D01*
X93935758Y-55325362D01*
X93919987Y-55324125D01*
X93905304Y-55322065D01*
X93885318Y-55317428D01*
X93867780Y-55310936D01*
X93852689Y-55302590D01*
X93840045Y-55292389D01*
X93829849Y-55280333D01*
X93822099Y-55266423D01*
X93816797Y-55250658D01*
X93813942Y-55233038D01*
X93813398Y-55220261D01*
X93813959Y-55205578D01*
X93816238Y-55188947D01*
X93820270Y-55174230D01*
X93827423Y-55159096D01*
X93837100Y-55146718D01*
X93849302Y-55137096D01*
X93863873Y-55129502D01*
X93877708Y-55124373D01*
X93893082Y-55120335D01*
X93909994Y-55117389D01*
X93924632Y-55115818D01*
X93940254Y-55114945D01*
X93952616Y-55114748D01*
X94590090Y-55114748D01*
X94606451Y-55115097D01*
X94621827Y-55116145D01*
X94639662Y-55118437D01*
X94655959Y-55121819D01*
X94670717Y-55126293D01*
X94686396Y-55133103D01*
X94693405Y-55137096D01*
X94705607Y-55146718D01*
X94715284Y-55159096D01*
X94722436Y-55174230D01*
X94726469Y-55188947D01*
X94728748Y-55205578D01*
X94729309Y-55220261D01*
X94728085Y-55239117D01*
X94724414Y-55256119D01*
X94718296Y-55271266D01*
X94709731Y-55284558D01*
X94698719Y-55295996D01*
X94685259Y-55305578D01*
X94669352Y-55313306D01*
X94650998Y-55319180D01*
X94630197Y-55323198D01*
X94614970Y-55324847D01*
X94598655Y-55325671D01*
X94590090Y-55325774D01*
X94376866Y-55325774D01*
X94376866Y-56133974D01*
X94590090Y-56133974D01*
G37*
G36*
X95996563Y-55798384D02*
G01*
X96011246Y-55798945D01*
X96027877Y-55801224D01*
X96042594Y-55805256D01*
X96057728Y-55812409D01*
X96070106Y-55822086D01*
X96079727Y-55834288D01*
X96087322Y-55848937D01*
X96092451Y-55862954D01*
X96096489Y-55878618D01*
X96099435Y-55895927D01*
X96101006Y-55910959D01*
X96101879Y-55927045D01*
X96102076Y-55939801D01*
X96102076Y-56345000D01*
X95105931Y-56345000D01*
X95089073Y-56344587D01*
X95073302Y-56343351D01*
X95058619Y-56341290D01*
X95038633Y-56336653D01*
X95021095Y-56330162D01*
X95006004Y-56321816D01*
X94993360Y-56311615D01*
X94983163Y-56299559D01*
X94975414Y-56285648D01*
X94970112Y-56269883D01*
X94967257Y-56252264D01*
X94966713Y-56239487D01*
X94967274Y-56224803D01*
X94969553Y-56208172D01*
X94973585Y-56193455D01*
X94980738Y-56178321D01*
X94990415Y-56165943D01*
X95002616Y-56156322D01*
X95017188Y-56148727D01*
X95031023Y-56143598D01*
X95046397Y-56139561D01*
X95063309Y-56136614D01*
X95077946Y-56135043D01*
X95093568Y-56134170D01*
X95105931Y-56133974D01*
X95226465Y-56133974D01*
X95226465Y-55325774D01*
X95105931Y-55325774D01*
X95089073Y-55325362D01*
X95073302Y-55324125D01*
X95058619Y-55322065D01*
X95038633Y-55317428D01*
X95021095Y-55310936D01*
X95006004Y-55302590D01*
X94993360Y-55292389D01*
X94983163Y-55280333D01*
X94975414Y-55266423D01*
X94970112Y-55250658D01*
X94967257Y-55233038D01*
X94966713Y-55220261D01*
X94967274Y-55205578D01*
X94969553Y-55188947D01*
X94973585Y-55174230D01*
X94980738Y-55159096D01*
X94990415Y-55146718D01*
X95002616Y-55137096D01*
X95017188Y-55129502D01*
X95031023Y-55124373D01*
X95046397Y-55120335D01*
X95063309Y-55117389D01*
X95077946Y-55115818D01*
X95093568Y-55114945D01*
X95105931Y-55114748D01*
X95557658Y-55114748D01*
X95574517Y-55115160D01*
X95590288Y-55116397D01*
X95604971Y-55118458D01*
X95624956Y-55123095D01*
X95642494Y-55129586D01*
X95657586Y-55137932D01*
X95670229Y-55148133D01*
X95680426Y-55160189D01*
X95688176Y-55174099D01*
X95693478Y-55189864D01*
X95696333Y-55207484D01*
X95696877Y-55220261D01*
X95695653Y-55239117D01*
X95691982Y-55256119D01*
X95685864Y-55271266D01*
X95677299Y-55284558D01*
X95666287Y-55295996D01*
X95652827Y-55305578D01*
X95636920Y-55313306D01*
X95618566Y-55319180D01*
X95597765Y-55323198D01*
X95582538Y-55324847D01*
X95566223Y-55325671D01*
X95557658Y-55325774D01*
X95437491Y-55325774D01*
X95437491Y-56133974D01*
X95891050Y-56133974D01*
X95891050Y-55939801D01*
X95891462Y-55922676D01*
X95892698Y-55906656D01*
X95894759Y-55891741D01*
X95899396Y-55871440D01*
X95905887Y-55853625D01*
X95914234Y-55838296D01*
X95924435Y-55825452D01*
X95936490Y-55815094D01*
X95950401Y-55807223D01*
X95966166Y-55801837D01*
X95983786Y-55798936D01*
X95996563Y-55798384D01*
G37*
G36*
X98176430Y-56239487D02*
G01*
X98176991Y-56224803D01*
X98179270Y-56208172D01*
X98183302Y-56193455D01*
X98190455Y-56178321D01*
X98200132Y-56165943D01*
X98212334Y-56156322D01*
X98226918Y-56148727D01*
X98240784Y-56143598D01*
X98256206Y-56139561D01*
X98273184Y-56136614D01*
X98287887Y-56135043D01*
X98303587Y-56134170D01*
X98316015Y-56133974D01*
X98389654Y-56133974D01*
X98389654Y-55523977D01*
X98155547Y-56055938D01*
X97963572Y-56055938D01*
X97714445Y-55526175D01*
X97714445Y-56133974D01*
X97788450Y-56133974D01*
X97805309Y-56134323D01*
X97821080Y-56135370D01*
X97835763Y-56137116D01*
X97852587Y-56140281D01*
X97867712Y-56144537D01*
X97883619Y-56151084D01*
X97892864Y-56156322D01*
X97904692Y-56165943D01*
X97914073Y-56178321D01*
X97921007Y-56193455D01*
X97924916Y-56208172D01*
X97927125Y-56224803D01*
X97927669Y-56239487D01*
X97926445Y-56258343D01*
X97922774Y-56275344D01*
X97916656Y-56290491D01*
X97908091Y-56303784D01*
X97897079Y-56315221D01*
X97883619Y-56324804D01*
X97867712Y-56332532D01*
X97849358Y-56338405D01*
X97828557Y-56342424D01*
X97813330Y-56344072D01*
X97797015Y-56344896D01*
X97788450Y-56345000D01*
X97515875Y-56345000D01*
X97498795Y-56344587D01*
X97482817Y-56343351D01*
X97467940Y-56341290D01*
X97447692Y-56336653D01*
X97429923Y-56330162D01*
X97414633Y-56321816D01*
X97401823Y-56311615D01*
X97391492Y-56299559D01*
X97383641Y-56285648D01*
X97378269Y-56269883D01*
X97375376Y-56252264D01*
X97374825Y-56239487D01*
X97375955Y-56220630D01*
X97379346Y-56203629D01*
X97384997Y-56188482D01*
X97392909Y-56175190D01*
X97403081Y-56163752D01*
X97415513Y-56154170D01*
X97430206Y-56146442D01*
X97447159Y-56140568D01*
X97466373Y-56136550D01*
X97487847Y-56134386D01*
X97503419Y-56133974D01*
X97503419Y-55327972D01*
X97483777Y-55325220D01*
X97466067Y-55320948D01*
X97450289Y-55315157D01*
X97436443Y-55307845D01*
X97424529Y-55299014D01*
X97411649Y-55284874D01*
X97402204Y-55268033D01*
X97397374Y-55253629D01*
X97394476Y-55237705D01*
X97393510Y-55220261D01*
X97394553Y-55204835D01*
X97397683Y-55190156D01*
X97402899Y-55176224D01*
X97410202Y-55163040D01*
X97419592Y-55150602D01*
X97423185Y-55146622D01*
X97435795Y-55135790D01*
X97448566Y-55128475D01*
X97463394Y-55122717D01*
X97480279Y-55118515D01*
X97495268Y-55116273D01*
X97511574Y-55115028D01*
X97524668Y-55114748D01*
X97762805Y-55114748D01*
X98054064Y-55743429D01*
X98339096Y-55114748D01*
X98571004Y-55114748D01*
X98587907Y-55115160D01*
X98603720Y-55116397D01*
X98618441Y-55118458D01*
X98638479Y-55123095D01*
X98656064Y-55129586D01*
X98671195Y-55137932D01*
X98683872Y-55148133D01*
X98694095Y-55160189D01*
X98701865Y-55174099D01*
X98707181Y-55189864D01*
X98710044Y-55207484D01*
X98710589Y-55220261D01*
X98709623Y-55237312D01*
X98706725Y-55252882D01*
X98701895Y-55266970D01*
X98692450Y-55283451D01*
X98679570Y-55297299D01*
X98667656Y-55305956D01*
X98653810Y-55313132D01*
X98638032Y-55318827D01*
X98620322Y-55323041D01*
X98600680Y-55325774D01*
X98600680Y-56133974D01*
X98616252Y-56134386D01*
X98637726Y-56136550D01*
X98656940Y-56140568D01*
X98673893Y-56146442D01*
X98688586Y-56154170D01*
X98701018Y-56163752D01*
X98711190Y-56175190D01*
X98719102Y-56188482D01*
X98724753Y-56203629D01*
X98728144Y-56220630D01*
X98729274Y-56239487D01*
X98728050Y-56258343D01*
X98724379Y-56275344D01*
X98718261Y-56290491D01*
X98709696Y-56303784D01*
X98698684Y-56315221D01*
X98685224Y-56324804D01*
X98669317Y-56332532D01*
X98650963Y-56338405D01*
X98630162Y-56342424D01*
X98614935Y-56344072D01*
X98598621Y-56344896D01*
X98590055Y-56345000D01*
X98316015Y-56345000D01*
X98299112Y-56344587D01*
X98283300Y-56343351D01*
X98268578Y-56341290D01*
X98248540Y-56336653D01*
X98230955Y-56330162D01*
X98215825Y-56321816D01*
X98203147Y-56311615D01*
X98192924Y-56299559D01*
X98185154Y-56285648D01*
X98179838Y-56269883D01*
X98176975Y-56252264D01*
X98176430Y-56239487D01*
G37*
G36*
X99156821Y-55114748D02*
G01*
X99173679Y-55115160D01*
X99189450Y-55116397D01*
X99204133Y-55118458D01*
X99224119Y-55123095D01*
X99241657Y-55129586D01*
X99256748Y-55137932D01*
X99269392Y-55148133D01*
X99279589Y-55160189D01*
X99287338Y-55174099D01*
X99292640Y-55189864D01*
X99295495Y-55207484D01*
X99296039Y-55220261D01*
X99294816Y-55239117D01*
X99291145Y-55256119D01*
X99285027Y-55271266D01*
X99276462Y-55284558D01*
X99265449Y-55295996D01*
X99251990Y-55305578D01*
X99236083Y-55313306D01*
X99217729Y-55319180D01*
X99196928Y-55323198D01*
X99181701Y-55324847D01*
X99165386Y-55325671D01*
X99156821Y-55325774D01*
X99082815Y-55325774D01*
X99082815Y-55640115D01*
X99458705Y-55317348D01*
X99443335Y-55310335D01*
X99430014Y-55301938D01*
X99418743Y-55292154D01*
X99407535Y-55277978D01*
X99399530Y-55261636D01*
X99395431Y-55247004D01*
X99393382Y-55230987D01*
X99393126Y-55222459D01*
X99394349Y-55203210D01*
X99398020Y-55185854D01*
X99404138Y-55170392D01*
X99412703Y-55156823D01*
X99423716Y-55145147D01*
X99437175Y-55135365D01*
X99453082Y-55127476D01*
X99471436Y-55121480D01*
X99492237Y-55117378D01*
X99507464Y-55115695D01*
X99523779Y-55114853D01*
X99532344Y-55114748D01*
X99743370Y-55114748D01*
X99760229Y-55115160D01*
X99775999Y-55116397D01*
X99790683Y-55118458D01*
X99810668Y-55123095D01*
X99828206Y-55129586D01*
X99843297Y-55137932D01*
X99855941Y-55148133D01*
X99866138Y-55160189D01*
X99873887Y-55174099D01*
X99879190Y-55189864D01*
X99882045Y-55207484D01*
X99882588Y-55220261D01*
X99881439Y-55239117D01*
X99877990Y-55256119D01*
X99872243Y-55271266D01*
X99864196Y-55284558D01*
X99853850Y-55295996D01*
X99841205Y-55305578D01*
X99826261Y-55313306D01*
X99809018Y-55319180D01*
X99789476Y-55323198D01*
X99767635Y-55325362D01*
X99751796Y-55325774D01*
X99380669Y-55648541D01*
X99406019Y-55663060D01*
X99418540Y-55671110D01*
X99430959Y-55679688D01*
X99443275Y-55688793D01*
X99455489Y-55698425D01*
X99467601Y-55708585D01*
X99479611Y-55719272D01*
X99491518Y-55730487D01*
X99503323Y-55742229D01*
X99515025Y-55754498D01*
X99526626Y-55767295D01*
X99538123Y-55780619D01*
X99549519Y-55794470D01*
X99560812Y-55808849D01*
X99572003Y-55823755D01*
X99583092Y-55839188D01*
X99594078Y-55855149D01*
X99604962Y-55871637D01*
X99615744Y-55888653D01*
X99626423Y-55906196D01*
X99637000Y-55924266D01*
X99647475Y-55942864D01*
X99657847Y-55961989D01*
X99668117Y-55981641D01*
X99678285Y-56001821D01*
X99688350Y-56022528D01*
X99698313Y-56043762D01*
X99708174Y-56065524D01*
X99717932Y-56087813D01*
X99727588Y-56110630D01*
X99737142Y-56133974D01*
X99804553Y-56133974D01*
X99821456Y-56134386D01*
X99837268Y-56135622D01*
X99851990Y-56137683D01*
X99872028Y-56142320D01*
X99889612Y-56148811D01*
X99904743Y-56157158D01*
X99917420Y-56167359D01*
X99927644Y-56179414D01*
X99935414Y-56193325D01*
X99940730Y-56209090D01*
X99943592Y-56226710D01*
X99944138Y-56239487D01*
X99942911Y-56258343D01*
X99939230Y-56275344D01*
X99933096Y-56290491D01*
X99924509Y-56303784D01*
X99913467Y-56315221D01*
X99899972Y-56324804D01*
X99884024Y-56332532D01*
X99865621Y-56338405D01*
X99844765Y-56342424D01*
X99829498Y-56344072D01*
X99813141Y-56344896D01*
X99804553Y-56345000D01*
X99572644Y-56345000D01*
X99567997Y-56330973D01*
X99558575Y-56303390D01*
X99548981Y-56276433D01*
X99539215Y-56250104D01*
X99529277Y-56224401D01*
X99519168Y-56199325D01*
X99508887Y-56174876D01*
X99498434Y-56151054D01*
X99487810Y-56127858D01*
X99477013Y-56105290D01*
X99466045Y-56083348D01*
X99454905Y-56062033D01*
X99443594Y-56041345D01*
X99432111Y-56021283D01*
X99420456Y-56001849D01*
X99408629Y-55983041D01*
X99402651Y-55973872D01*
X99390649Y-55956100D01*
X99378637Y-55939234D01*
X99366617Y-55923276D01*
X99354589Y-55908225D01*
X99342552Y-55894081D01*
X99330506Y-55880845D01*
X99318452Y-55868516D01*
X99306389Y-55857094D01*
X99294318Y-55846580D01*
X99282238Y-55836972D01*
X99270149Y-55828273D01*
X99252000Y-55816924D01*
X99233832Y-55807618D01*
X99215644Y-55800352D01*
X99209577Y-55798384D01*
X99082815Y-55906095D01*
X99082815Y-56133974D01*
X99156821Y-56133974D01*
X99173679Y-56134386D01*
X99189450Y-56135622D01*
X99204133Y-56137683D01*
X99224119Y-56142320D01*
X99241657Y-56148811D01*
X99256748Y-56157158D01*
X99269392Y-56167359D01*
X99279589Y-56179414D01*
X99287338Y-56193325D01*
X99292640Y-56209090D01*
X99295495Y-56226710D01*
X99296039Y-56239487D01*
X99294816Y-56258343D01*
X99291145Y-56275344D01*
X99285027Y-56290491D01*
X99276462Y-56303784D01*
X99265449Y-56315221D01*
X99251990Y-56324804D01*
X99236083Y-56332532D01*
X99217729Y-56338405D01*
X99196928Y-56342424D01*
X99181701Y-56344072D01*
X99165386Y-56344896D01*
X99156821Y-56345000D01*
X98840282Y-56345000D01*
X98823424Y-56344587D01*
X98807653Y-56343351D01*
X98792970Y-56341290D01*
X98772984Y-56336653D01*
X98755446Y-56330162D01*
X98740355Y-56321816D01*
X98727711Y-56311615D01*
X98717514Y-56299559D01*
X98709765Y-56285648D01*
X98704463Y-56269883D01*
X98701608Y-56252264D01*
X98701064Y-56239487D01*
X98702287Y-56220630D01*
X98705958Y-56203629D01*
X98712076Y-56188482D01*
X98720641Y-56175190D01*
X98731654Y-56163752D01*
X98745113Y-56154170D01*
X98761020Y-56146442D01*
X98779374Y-56140568D01*
X98800175Y-56136550D01*
X98815402Y-56134901D01*
X98831717Y-56134077D01*
X98840282Y-56133974D01*
X98871789Y-56133974D01*
X98871789Y-55325774D01*
X98840282Y-55325774D01*
X98823424Y-55325362D01*
X98807653Y-55324125D01*
X98792970Y-55322065D01*
X98772984Y-55317428D01*
X98755446Y-55310936D01*
X98740355Y-55302590D01*
X98727711Y-55292389D01*
X98717514Y-55280333D01*
X98709765Y-55266423D01*
X98704463Y-55250658D01*
X98701608Y-55233038D01*
X98701064Y-55220261D01*
X98701625Y-55205578D01*
X98703904Y-55188947D01*
X98707936Y-55174230D01*
X98715089Y-55159096D01*
X98724766Y-55146718D01*
X98736967Y-55137096D01*
X98751539Y-55129502D01*
X98765374Y-55124373D01*
X98780748Y-55120335D01*
X98797660Y-55117389D01*
X98812297Y-55115818D01*
X98827919Y-55114945D01*
X98840282Y-55114748D01*
X99156821Y-55114748D01*
G37*
G36*
X100107536Y-56239487D02*
G01*
X100108097Y-56224803D01*
X100110376Y-56208172D01*
X100114408Y-56193455D01*
X100121561Y-56178321D01*
X100131238Y-56165943D01*
X100143440Y-56156322D01*
X100158011Y-56148727D01*
X100171847Y-56143598D01*
X100187220Y-56139561D01*
X100204133Y-56136614D01*
X100218770Y-56135043D01*
X100234392Y-56134170D01*
X100246755Y-56133974D01*
X100459979Y-56133974D01*
X100459979Y-55230886D01*
X100287055Y-55353251D01*
X100274303Y-55362589D01*
X100259955Y-55369995D01*
X100244010Y-55375469D01*
X100229502Y-55378555D01*
X100213885Y-55380299D01*
X100200593Y-55380729D01*
X100185341Y-55379624D01*
X100171000Y-55376311D01*
X100155727Y-55369819D01*
X100143340Y-55361773D01*
X100138311Y-55357648D01*
X100128033Y-55346688D01*
X100119377Y-55332446D01*
X100114509Y-55318481D01*
X100112164Y-55303114D01*
X100111933Y-55296099D01*
X100112848Y-55279979D01*
X100115596Y-55265324D01*
X100120877Y-55250589D01*
X100126587Y-55240411D01*
X100136511Y-55227609D01*
X100148155Y-55215839D01*
X100160522Y-55205240D01*
X100172740Y-55195932D01*
X100177145Y-55192784D01*
X100462177Y-54998611D01*
X100671004Y-54998611D01*
X100671004Y-56133974D01*
X100884228Y-56133974D01*
X100901087Y-56134386D01*
X100916858Y-56135622D01*
X100931541Y-56137683D01*
X100951526Y-56142320D01*
X100969065Y-56148811D01*
X100984156Y-56157158D01*
X100996800Y-56167359D01*
X101006996Y-56179414D01*
X101014746Y-56193325D01*
X101020048Y-56209090D01*
X101022903Y-56226710D01*
X101023447Y-56239487D01*
X101022223Y-56258343D01*
X101018552Y-56275344D01*
X101012434Y-56290491D01*
X101003869Y-56303784D01*
X100992857Y-56315221D01*
X100979397Y-56324804D01*
X100963490Y-56332532D01*
X100945136Y-56338405D01*
X100924335Y-56342424D01*
X100909108Y-56344072D01*
X100892794Y-56344896D01*
X100884228Y-56345000D01*
X100246755Y-56345000D01*
X100229896Y-56344587D01*
X100214125Y-56343351D01*
X100199442Y-56341290D01*
X100179457Y-56336653D01*
X100161918Y-56330162D01*
X100146827Y-56321816D01*
X100134183Y-56311615D01*
X100123987Y-56299559D01*
X100116237Y-56285648D01*
X100110935Y-56269883D01*
X100108080Y-56252264D01*
X100107536Y-56239487D01*
G37*
G36*
X101843370Y-56376507D02*
G01*
X101805268Y-56376507D01*
X101787898Y-56375505D01*
X101771279Y-56372500D01*
X101755412Y-56367491D01*
X101740296Y-56360478D01*
X101725931Y-56351462D01*
X101712318Y-56340443D01*
X101707083Y-56335474D01*
X101695262Y-56322267D01*
X101685444Y-56308290D01*
X101677630Y-56293544D01*
X101671820Y-56278029D01*
X101668013Y-56261745D01*
X101666210Y-56244692D01*
X101666050Y-56237655D01*
X101667052Y-56220188D01*
X101670057Y-56203508D01*
X101675066Y-56187616D01*
X101682078Y-56172511D01*
X101691094Y-56158192D01*
X101702114Y-56144661D01*
X101707083Y-56139469D01*
X101720395Y-56127543D01*
X101734460Y-56117638D01*
X101749275Y-56109754D01*
X101764842Y-56103892D01*
X101781160Y-56100051D01*
X101798230Y-56098232D01*
X101805268Y-56098070D01*
X101843370Y-56098070D01*
X101861338Y-56099054D01*
X101878375Y-56102006D01*
X101894482Y-56106925D01*
X101909659Y-56113812D01*
X101923906Y-56122667D01*
X101937222Y-56133490D01*
X101942288Y-56138370D01*
X101953898Y-56151323D01*
X101963540Y-56165225D01*
X101971215Y-56180074D01*
X101976921Y-56195872D01*
X101980660Y-56212618D01*
X101982431Y-56230312D01*
X101982588Y-56237655D01*
X101981605Y-56255622D01*
X101978653Y-56272660D01*
X101973733Y-56288767D01*
X101966846Y-56303944D01*
X101957991Y-56318191D01*
X101947168Y-56331507D01*
X101942288Y-56336573D01*
X101929344Y-56348077D01*
X101915469Y-56357632D01*
X101900665Y-56365236D01*
X101884929Y-56370891D01*
X101868264Y-56374596D01*
X101850669Y-56376351D01*
X101843370Y-56376507D01*
G37*
G36*
X102625191Y-56239487D02*
G01*
X102625752Y-56224803D01*
X102628031Y-56208172D01*
X102632064Y-56193455D01*
X102639216Y-56178321D01*
X102648893Y-56165943D01*
X102661095Y-56156322D01*
X102675667Y-56148727D01*
X102689502Y-56143598D01*
X102704876Y-56139561D01*
X102721788Y-56136614D01*
X102736425Y-56135043D01*
X102752047Y-56134170D01*
X102764410Y-56133974D01*
X102977634Y-56133974D01*
X102977634Y-55230886D01*
X102804710Y-55353251D01*
X102791959Y-55362589D01*
X102777610Y-55369995D01*
X102761665Y-55375469D01*
X102747157Y-55378555D01*
X102731540Y-55380299D01*
X102718248Y-55380729D01*
X102702996Y-55379624D01*
X102688655Y-55376311D01*
X102673383Y-55369819D01*
X102660996Y-55361773D01*
X102655966Y-55357648D01*
X102645688Y-55346688D01*
X102637032Y-55332446D01*
X102632164Y-55318481D01*
X102629820Y-55303114D01*
X102629588Y-55296099D01*
X102630504Y-55279979D01*
X102633251Y-55265324D01*
X102638532Y-55250589D01*
X102644242Y-55240411D01*
X102654166Y-55227609D01*
X102665810Y-55215839D01*
X102678177Y-55205240D01*
X102690396Y-55195932D01*
X102694801Y-55192784D01*
X102979832Y-54998611D01*
X103188660Y-54998611D01*
X103188660Y-56133974D01*
X103401884Y-56133974D01*
X103418742Y-56134386D01*
X103434513Y-56135622D01*
X103449196Y-56137683D01*
X103469182Y-56142320D01*
X103486720Y-56148811D01*
X103501811Y-56157158D01*
X103514455Y-56167359D01*
X103524651Y-56179414D01*
X103532401Y-56193325D01*
X103537703Y-56209090D01*
X103540558Y-56226710D01*
X103541102Y-56239487D01*
X103539878Y-56258343D01*
X103536208Y-56275344D01*
X103530090Y-56290491D01*
X103521524Y-56303784D01*
X103510512Y-56315221D01*
X103497053Y-56324804D01*
X103481146Y-56332532D01*
X103462792Y-56338405D01*
X103441991Y-56342424D01*
X103426764Y-56344072D01*
X103410449Y-56344896D01*
X103401884Y-56345000D01*
X102764410Y-56345000D01*
X102747551Y-56344587D01*
X102731781Y-56343351D01*
X102717097Y-56341290D01*
X102697112Y-56336653D01*
X102679574Y-56330162D01*
X102664483Y-56321816D01*
X102651839Y-56311615D01*
X102641642Y-56299559D01*
X102633893Y-56285648D01*
X102628590Y-56269883D01*
X102625735Y-56252264D01*
X102625191Y-56239487D01*
G37*
D11*
X107088095Y-47354819D02*
X107088095Y-46354819D01*
X107088095Y-46831009D02*
X107659523Y-46831009D01*
X107659523Y-47354819D02*
X107659523Y-46354819D01*
X108088095Y-46450057D02*
X108135714Y-46402438D01*
X108135714Y-46402438D02*
X108230952Y-46354819D01*
X108230952Y-46354819D02*
X108469047Y-46354819D01*
X108469047Y-46354819D02*
X108564285Y-46402438D01*
X108564285Y-46402438D02*
X108611904Y-46450057D01*
X108611904Y-46450057D02*
X108659523Y-46545295D01*
X108659523Y-46545295D02*
X108659523Y-46640533D01*
X108659523Y-46640533D02*
X108611904Y-46783390D01*
X108611904Y-46783390D02*
X108040476Y-47354819D01*
X108040476Y-47354819D02*
X108659523Y-47354819D01*
X102216190Y-74215180D02*
X102025714Y-74215180D01*
X102025714Y-74215180D02*
X101930476Y-74167561D01*
X101930476Y-74167561D02*
X101835238Y-74072323D01*
X101835238Y-74072323D02*
X101787619Y-73881847D01*
X101787619Y-73881847D02*
X101787619Y-73548514D01*
X101787619Y-73548514D02*
X101835238Y-73358038D01*
X101835238Y-73358038D02*
X101930476Y-73262800D01*
X101930476Y-73262800D02*
X102025714Y-73215180D01*
X102025714Y-73215180D02*
X102216190Y-73215180D01*
X102216190Y-73215180D02*
X102311428Y-73262800D01*
X102311428Y-73262800D02*
X102406666Y-73358038D01*
X102406666Y-73358038D02*
X102454285Y-73548514D01*
X102454285Y-73548514D02*
X102454285Y-73881847D01*
X102454285Y-73881847D02*
X102406666Y-74072323D01*
X102406666Y-74072323D02*
X102311428Y-74167561D01*
X102311428Y-74167561D02*
X102216190Y-74215180D01*
X101359047Y-74215180D02*
X101359047Y-73405657D01*
X101359047Y-73405657D02*
X101311428Y-73310419D01*
X101311428Y-73310419D02*
X101263809Y-73262800D01*
X101263809Y-73262800D02*
X101168571Y-73215180D01*
X101168571Y-73215180D02*
X100978095Y-73215180D01*
X100978095Y-73215180D02*
X100882857Y-73262800D01*
X100882857Y-73262800D02*
X100835238Y-73310419D01*
X100835238Y-73310419D02*
X100787619Y-73405657D01*
X100787619Y-73405657D02*
X100787619Y-74215180D01*
X100454285Y-74215180D02*
X99882857Y-74215180D01*
X100168571Y-73215180D02*
X100168571Y-74215180D01*
X99025714Y-73215180D02*
X99597142Y-73215180D01*
X99311428Y-73215180D02*
X99311428Y-74215180D01*
X99311428Y-74215180D02*
X99406666Y-74072323D01*
X99406666Y-74072323D02*
X99501904Y-73977085D01*
X99501904Y-73977085D02*
X99597142Y-73929466D01*
X110741285Y-71945180D02*
X111312713Y-71945180D01*
X111026999Y-71945180D02*
X111026999Y-72945180D01*
X111026999Y-72945180D02*
X111122237Y-72802323D01*
X111122237Y-72802323D02*
X111217475Y-72707085D01*
X111217475Y-72707085D02*
X111312713Y-72659466D01*
X111217475Y-74485180D02*
X111026999Y-74485180D01*
X111026999Y-74485180D02*
X110931761Y-74532800D01*
X110931761Y-74532800D02*
X110884142Y-74580419D01*
X110884142Y-74580419D02*
X110788904Y-74723276D01*
X110788904Y-74723276D02*
X110741285Y-74913752D01*
X110741285Y-74913752D02*
X110741285Y-75294704D01*
X110741285Y-75294704D02*
X110788904Y-75389942D01*
X110788904Y-75389942D02*
X110836523Y-75437561D01*
X110836523Y-75437561D02*
X110931761Y-75485180D01*
X110931761Y-75485180D02*
X111122237Y-75485180D01*
X111122237Y-75485180D02*
X111217475Y-75437561D01*
X111217475Y-75437561D02*
X111265094Y-75389942D01*
X111265094Y-75389942D02*
X111312713Y-75294704D01*
X111312713Y-75294704D02*
X111312713Y-75056609D01*
X111312713Y-75056609D02*
X111265094Y-74961371D01*
X111265094Y-74961371D02*
X111217475Y-74913752D01*
X111217475Y-74913752D02*
X111122237Y-74866133D01*
X111122237Y-74866133D02*
X110931761Y-74866133D01*
X110931761Y-74866133D02*
X110836523Y-74913752D01*
X110836523Y-74913752D02*
X110788904Y-74961371D01*
X110788904Y-74961371D02*
X110741285Y-75056609D01*
X90548237Y-72516609D02*
X90643475Y-72564228D01*
X90643475Y-72564228D02*
X90691094Y-72611847D01*
X90691094Y-72611847D02*
X90738713Y-72707085D01*
X90738713Y-72707085D02*
X90738713Y-72754704D01*
X90738713Y-72754704D02*
X90691094Y-72849942D01*
X90691094Y-72849942D02*
X90643475Y-72897561D01*
X90643475Y-72897561D02*
X90548237Y-72945180D01*
X90548237Y-72945180D02*
X90357761Y-72945180D01*
X90357761Y-72945180D02*
X90262523Y-72897561D01*
X90262523Y-72897561D02*
X90214904Y-72849942D01*
X90214904Y-72849942D02*
X90167285Y-72754704D01*
X90167285Y-72754704D02*
X90167285Y-72707085D01*
X90167285Y-72707085D02*
X90214904Y-72611847D01*
X90214904Y-72611847D02*
X90262523Y-72564228D01*
X90262523Y-72564228D02*
X90357761Y-72516609D01*
X90357761Y-72516609D02*
X90548237Y-72516609D01*
X90548237Y-72516609D02*
X90643475Y-72468990D01*
X90643475Y-72468990D02*
X90691094Y-72421371D01*
X90691094Y-72421371D02*
X90738713Y-72326133D01*
X90738713Y-72326133D02*
X90738713Y-72135657D01*
X90738713Y-72135657D02*
X90691094Y-72040419D01*
X90691094Y-72040419D02*
X90643475Y-71992800D01*
X90643475Y-71992800D02*
X90548237Y-71945180D01*
X90548237Y-71945180D02*
X90357761Y-71945180D01*
X90357761Y-71945180D02*
X90262523Y-71992800D01*
X90262523Y-71992800D02*
X90214904Y-72040419D01*
X90214904Y-72040419D02*
X90167285Y-72135657D01*
X90167285Y-72135657D02*
X90167285Y-72326133D01*
X90167285Y-72326133D02*
X90214904Y-72421371D01*
X90214904Y-72421371D02*
X90262523Y-72468990D01*
X90262523Y-72468990D02*
X90357761Y-72516609D01*
X90643476Y-74485180D02*
X91214904Y-74485180D01*
X90929190Y-74485180D02*
X90929190Y-75485180D01*
X90929190Y-75485180D02*
X91024428Y-75342323D01*
X91024428Y-75342323D02*
X91119666Y-75247085D01*
X91119666Y-75247085D02*
X91214904Y-75199466D01*
X89786333Y-75485180D02*
X89976809Y-75485180D01*
X89976809Y-75485180D02*
X90072047Y-75437561D01*
X90072047Y-75437561D02*
X90119666Y-75389942D01*
X90119666Y-75389942D02*
X90214904Y-75247085D01*
X90214904Y-75247085D02*
X90262523Y-75056609D01*
X90262523Y-75056609D02*
X90262523Y-74675657D01*
X90262523Y-74675657D02*
X90214904Y-74580419D01*
X90214904Y-74580419D02*
X90167285Y-74532800D01*
X90167285Y-74532800D02*
X90072047Y-74485180D01*
X90072047Y-74485180D02*
X89881571Y-74485180D01*
X89881571Y-74485180D02*
X89786333Y-74532800D01*
X89786333Y-74532800D02*
X89738714Y-74580419D01*
X89738714Y-74580419D02*
X89691095Y-74675657D01*
X89691095Y-74675657D02*
X89691095Y-74913752D01*
X89691095Y-74913752D02*
X89738714Y-75008990D01*
X89738714Y-75008990D02*
X89786333Y-75056609D01*
X89786333Y-75056609D02*
X89881571Y-75104228D01*
X89881571Y-75104228D02*
X90072047Y-75104228D01*
X90072047Y-75104228D02*
X90167285Y-75056609D01*
X90167285Y-75056609D02*
X90214904Y-75008990D01*
X90214904Y-75008990D02*
X90262523Y-74913752D01*
X131588095Y-73354819D02*
X131588095Y-72354819D01*
X131588095Y-72831009D02*
X132159523Y-72831009D01*
X132159523Y-73354819D02*
X132159523Y-72354819D01*
X132540476Y-72354819D02*
X133159523Y-72354819D01*
X133159523Y-72354819D02*
X132826190Y-72735771D01*
X132826190Y-72735771D02*
X132969047Y-72735771D01*
X132969047Y-72735771D02*
X133064285Y-72783390D01*
X133064285Y-72783390D02*
X133111904Y-72831009D01*
X133111904Y-72831009D02*
X133159523Y-72926247D01*
X133159523Y-72926247D02*
X133159523Y-73164342D01*
X133159523Y-73164342D02*
X133111904Y-73259580D01*
X133111904Y-73259580D02*
X133064285Y-73307200D01*
X133064285Y-73307200D02*
X132969047Y-73354819D01*
X132969047Y-73354819D02*
X132683333Y-73354819D01*
X132683333Y-73354819D02*
X132588095Y-73307200D01*
X132588095Y-73307200D02*
X132540476Y-73259580D01*
X81588095Y-73354819D02*
X81588095Y-72354819D01*
X81588095Y-72831009D02*
X82159523Y-72831009D01*
X82159523Y-73354819D02*
X82159523Y-72354819D01*
X83159523Y-73354819D02*
X82588095Y-73354819D01*
X82873809Y-73354819D02*
X82873809Y-72354819D01*
X82873809Y-72354819D02*
X82778571Y-72497676D01*
X82778571Y-72497676D02*
X82683333Y-72592914D01*
X82683333Y-72592914D02*
X82588095Y-72640533D01*
X132174819Y-63768094D02*
X131174819Y-63768094D01*
X131174819Y-63768094D02*
X131174819Y-63529999D01*
X131174819Y-63529999D02*
X131222438Y-63387142D01*
X131222438Y-63387142D02*
X131317676Y-63291904D01*
X131317676Y-63291904D02*
X131412914Y-63244285D01*
X131412914Y-63244285D02*
X131603390Y-63196666D01*
X131603390Y-63196666D02*
X131746247Y-63196666D01*
X131746247Y-63196666D02*
X131936723Y-63244285D01*
X131936723Y-63244285D02*
X132031961Y-63291904D01*
X132031961Y-63291904D02*
X132127200Y-63387142D01*
X132127200Y-63387142D02*
X132174819Y-63529999D01*
X132174819Y-63529999D02*
X132174819Y-63768094D01*
X132127200Y-62815713D02*
X132174819Y-62672856D01*
X132174819Y-62672856D02*
X132174819Y-62434761D01*
X132174819Y-62434761D02*
X132127200Y-62339523D01*
X132127200Y-62339523D02*
X132079580Y-62291904D01*
X132079580Y-62291904D02*
X131984342Y-62244285D01*
X131984342Y-62244285D02*
X131889104Y-62244285D01*
X131889104Y-62244285D02*
X131793866Y-62291904D01*
X131793866Y-62291904D02*
X131746247Y-62339523D01*
X131746247Y-62339523D02*
X131698628Y-62434761D01*
X131698628Y-62434761D02*
X131651009Y-62625237D01*
X131651009Y-62625237D02*
X131603390Y-62720475D01*
X131603390Y-62720475D02*
X131555771Y-62768094D01*
X131555771Y-62768094D02*
X131460533Y-62815713D01*
X131460533Y-62815713D02*
X131365295Y-62815713D01*
X131365295Y-62815713D02*
X131270057Y-62768094D01*
X131270057Y-62768094D02*
X131222438Y-62720475D01*
X131222438Y-62720475D02*
X131174819Y-62625237D01*
X131174819Y-62625237D02*
X131174819Y-62387142D01*
X131174819Y-62387142D02*
X131222438Y-62244285D01*
X131174819Y-61815713D02*
X131984342Y-61815713D01*
X131984342Y-61815713D02*
X132079580Y-61768094D01*
X132079580Y-61768094D02*
X132127200Y-61720475D01*
X132127200Y-61720475D02*
X132174819Y-61625237D01*
X132174819Y-61625237D02*
X132174819Y-61434761D01*
X132174819Y-61434761D02*
X132127200Y-61339523D01*
X132127200Y-61339523D02*
X132079580Y-61291904D01*
X132079580Y-61291904D02*
X131984342Y-61244285D01*
X131984342Y-61244285D02*
X131174819Y-61244285D01*
X131651009Y-60434761D02*
X131698628Y-60291904D01*
X131698628Y-60291904D02*
X131746247Y-60244285D01*
X131746247Y-60244285D02*
X131841485Y-60196666D01*
X131841485Y-60196666D02*
X131984342Y-60196666D01*
X131984342Y-60196666D02*
X132079580Y-60244285D01*
X132079580Y-60244285D02*
X132127200Y-60291904D01*
X132127200Y-60291904D02*
X132174819Y-60387142D01*
X132174819Y-60387142D02*
X132174819Y-60768094D01*
X132174819Y-60768094D02*
X131174819Y-60768094D01*
X131174819Y-60768094D02*
X131174819Y-60434761D01*
X131174819Y-60434761D02*
X131222438Y-60339523D01*
X131222438Y-60339523D02*
X131270057Y-60291904D01*
X131270057Y-60291904D02*
X131365295Y-60244285D01*
X131365295Y-60244285D02*
X131460533Y-60244285D01*
X131460533Y-60244285D02*
X131555771Y-60291904D01*
X131555771Y-60291904D02*
X131603390Y-60339523D01*
X131603390Y-60339523D02*
X131651009Y-60434761D01*
X131651009Y-60434761D02*
X131651009Y-60768094D01*
X132174819Y-59244285D02*
X132174819Y-59815713D01*
X132174819Y-59529999D02*
X131174819Y-59529999D01*
X131174819Y-59529999D02*
X131317676Y-59625237D01*
X131317676Y-59625237D02*
X131412914Y-59720475D01*
X131412914Y-59720475D02*
X131460533Y-59815713D01*
D12*
X114837000Y-78242000D02*
X114837000Y-69098000D01*
X114837000Y-69098000D02*
X86643000Y-69098000D01*
X86643000Y-78242000D02*
X114837000Y-78242000D01*
X86643000Y-69098000D02*
X86643000Y-78242000D01*
D13*
X110011000Y-70495000D02*
G75*
G03*
X110011000Y-70495000I-381000J0D01*
G01*
D14*
X130720000Y-58930000D02*
X130720000Y-60260000D01*
X129390000Y-58930000D02*
X130720000Y-58930000D01*
X128120000Y-58930000D02*
X112820000Y-58930000D01*
X128120000Y-58930000D02*
X128120000Y-61530000D01*
X112820000Y-58930000D02*
X112820000Y-64130000D01*
X130720000Y-61530000D02*
X130720000Y-64130000D01*
X128120000Y-61530000D02*
X130720000Y-61530000D01*
X130720000Y-64130000D02*
X112820000Y-64130000D01*
%LPC*%
D15*
X107850000Y-50700000D03*
D16*
X107850000Y-50700000D03*
D17*
X109630000Y-72400000D03*
X107090000Y-72400000D03*
X104550000Y-72400000D03*
X102010000Y-72400000D03*
X99470000Y-72400000D03*
X96930000Y-72400000D03*
X94390000Y-72400000D03*
X91850000Y-72400000D03*
X109630000Y-74940000D03*
X107090000Y-74940000D03*
X104550000Y-74940000D03*
X102010000Y-74940000D03*
X99470000Y-74940000D03*
X96930000Y-74940000D03*
X94390000Y-74940000D03*
X91850000Y-74940000D03*
D15*
X132350000Y-76700000D03*
D16*
X132350000Y-76700000D03*
D15*
X82350000Y-76700000D03*
D16*
X82350000Y-76700000D03*
D18*
X129390000Y-60260000D03*
D19*
X129390000Y-62800000D03*
X126850000Y-60260000D03*
X126850000Y-62800000D03*
X124310000Y-60260000D03*
X124310000Y-62800000D03*
X121770000Y-60260000D03*
X121770000Y-62800000D03*
X119230000Y-60260000D03*
X119230000Y-62800000D03*
X116690000Y-60260000D03*
X116690000Y-62800000D03*
X114150000Y-60260000D03*
X114150000Y-62800000D03*
%LPD*%
M02*
