%TF.GenerationSoftware,KiCad,Pcbnew,7.0.8-7.0.8~ubuntu22.04.1*%
%TF.CreationDate,2024-01-26T15:51:14+01:00*%
%TF.ProjectId,rail,7261696c-2e6b-4696-9361-645f70636258,rev?*%
%TF.SameCoordinates,Original*%
%TF.FileFunction,Drillmap*%
%TF.FilePolarity,Positive*%
%FSLAX45Y45*%
G04 Gerber Fmt 4.5, Leading zero omitted, Abs format (unit mm)*
G04 Created by KiCad (PCBNEW 7.0.8-7.0.8~ubuntu22.04.1) date 2024-01-26 15:51:14*
%MOMM*%
%LPD*%
G01*
G04 APERTURE LIST*
%ADD10C,0.100000*%
%ADD11C,0.200000*%
%ADD12C,0.040000*%
%ADD13C,0.088900*%
%ADD14C,0.320000*%
G04 APERTURE END LIST*
D10*
X7785000Y-8120000D02*
X7785000Y-4720000D01*
X13635000Y-6245000D02*
X13635000Y-8120000D01*
X13635000Y-8120000D02*
X7785000Y-8120000D01*
X12150000Y-4720000D02*
X13635000Y-6245000D01*
X7785000Y-4720000D02*
X12150000Y-4720000D01*
D11*
D12*
X7945000Y-4860000D02*
X7985000Y-4900000D01*
X7985000Y-4860000D02*
X7945000Y-4900000D01*
X7945000Y-5360000D02*
X7985000Y-5400000D01*
X7985000Y-5360000D02*
X7945000Y-5400000D01*
X7945000Y-5860000D02*
X7985000Y-5900000D01*
X7985000Y-5860000D02*
X7945000Y-5900000D01*
X7945000Y-6360000D02*
X7985000Y-6400000D01*
X7985000Y-6360000D02*
X7945000Y-6400000D01*
X7945000Y-6860000D02*
X7985000Y-6900000D01*
X7985000Y-6860000D02*
X7945000Y-6900000D01*
X8445000Y-4860000D02*
X8485000Y-4900000D01*
X8485000Y-4860000D02*
X8445000Y-4900000D01*
X8445000Y-5360000D02*
X8485000Y-5400000D01*
X8485000Y-5360000D02*
X8445000Y-5400000D01*
X8445000Y-5860000D02*
X8485000Y-5900000D01*
X8485000Y-5860000D02*
X8445000Y-5900000D01*
X8445000Y-6360000D02*
X8485000Y-6400000D01*
X8485000Y-6360000D02*
X8445000Y-6400000D01*
X8445000Y-6860000D02*
X8485000Y-6900000D01*
X8485000Y-6860000D02*
X8445000Y-6900000D01*
X8945000Y-4860000D02*
X8985000Y-4900000D01*
X8985000Y-4860000D02*
X8945000Y-4900000D01*
X8945000Y-5360000D02*
X8985000Y-5400000D01*
X8985000Y-5360000D02*
X8945000Y-5400000D01*
X8945000Y-5860000D02*
X8985000Y-5900000D01*
X8985000Y-5860000D02*
X8945000Y-5900000D01*
X8945000Y-6360000D02*
X8985000Y-6400000D01*
X8985000Y-6360000D02*
X8945000Y-6400000D01*
X8945000Y-6860000D02*
X8985000Y-6900000D01*
X8985000Y-6860000D02*
X8945000Y-6900000D01*
X9445000Y-4860000D02*
X9485000Y-4900000D01*
X9485000Y-4860000D02*
X9445000Y-4900000D01*
X9445000Y-5360000D02*
X9485000Y-5400000D01*
X9485000Y-5360000D02*
X9445000Y-5400000D01*
X9445000Y-5860000D02*
X9485000Y-5900000D01*
X9485000Y-5860000D02*
X9445000Y-5900000D01*
X9445000Y-6360000D02*
X9485000Y-6400000D01*
X9485000Y-6360000D02*
X9445000Y-6400000D01*
X9445000Y-6860000D02*
X9485000Y-6900000D01*
X9485000Y-6860000D02*
X9445000Y-6900000D01*
X11235000Y-7420000D02*
X11275000Y-7460000D01*
X11275000Y-7420000D02*
X11235000Y-7460000D01*
X11415000Y-5000000D02*
X11455000Y-5040000D01*
X11455000Y-5000000D02*
X11415000Y-5040000D01*
X11415000Y-5500000D02*
X11455000Y-5540000D01*
X11455000Y-5500000D02*
X11415000Y-5540000D01*
X11415000Y-7090000D02*
X11455000Y-7130000D01*
X11455000Y-7090000D02*
X11415000Y-7130000D01*
X11915000Y-5000000D02*
X11955000Y-5040000D01*
X11955000Y-5000000D02*
X11915000Y-5040000D01*
X11915000Y-5500000D02*
X11955000Y-5540000D01*
X11955000Y-5500000D02*
X11915000Y-5540000D01*
X11915000Y-6590000D02*
X11955000Y-6630000D01*
X11955000Y-6590000D02*
X11915000Y-6630000D01*
X12155000Y-7430000D02*
X12195000Y-7470000D01*
X12195000Y-7430000D02*
X12155000Y-7470000D01*
X12155000Y-7930000D02*
X12195000Y-7970000D01*
X12195000Y-7930000D02*
X12155000Y-7970000D01*
X12655000Y-7430000D02*
X12695000Y-7470000D01*
X12695000Y-7430000D02*
X12655000Y-7470000D01*
X12655000Y-7930000D02*
X12695000Y-7970000D01*
X12695000Y-7930000D02*
X12655000Y-7970000D01*
X12835000Y-6600000D02*
X12875000Y-6640000D01*
X12875000Y-6600000D02*
X12835000Y-6640000D01*
X12835000Y-7100000D02*
X12875000Y-7140000D01*
X12875000Y-7100000D02*
X12835000Y-7140000D01*
X13335000Y-6600000D02*
X13375000Y-6640000D01*
X13375000Y-6600000D02*
X13335000Y-6640000D01*
X13335000Y-7100000D02*
X13375000Y-7140000D01*
X13375000Y-7100000D02*
X13335000Y-7140000D01*
D13*
X9229450Y-7240000D02*
G75*
G03*
X9229450Y-7240000I-44450J0D01*
G01*
X9229450Y-7494000D02*
G75*
G03*
X9229450Y-7494000I-44450J0D01*
G01*
X9483450Y-7240000D02*
G75*
G03*
X9483450Y-7240000I-44450J0D01*
G01*
X9483450Y-7494000D02*
G75*
G03*
X9483450Y-7494000I-44450J0D01*
G01*
X9737450Y-7240000D02*
G75*
G03*
X9737450Y-7240000I-44450J0D01*
G01*
X9737450Y-7494000D02*
G75*
G03*
X9737450Y-7494000I-44450J0D01*
G01*
X9991450Y-7240000D02*
G75*
G03*
X9991450Y-7240000I-44450J0D01*
G01*
X9991450Y-7494000D02*
G75*
G03*
X9991450Y-7494000I-44450J0D01*
G01*
X10245450Y-7240000D02*
G75*
G03*
X10245450Y-7240000I-44450J0D01*
G01*
X10245450Y-7494000D02*
G75*
G03*
X10245450Y-7494000I-44450J0D01*
G01*
X10499450Y-7240000D02*
G75*
G03*
X10499450Y-7240000I-44450J0D01*
G01*
X10499450Y-7494000D02*
G75*
G03*
X10499450Y-7494000I-44450J0D01*
G01*
X10753450Y-7240000D02*
G75*
G03*
X10753450Y-7240000I-44450J0D01*
G01*
X10753450Y-7494000D02*
G75*
G03*
X10753450Y-7494000I-44450J0D01*
G01*
X11007450Y-7240000D02*
G75*
G03*
X11007450Y-7240000I-44450J0D01*
G01*
X11007450Y-7494000D02*
G75*
G03*
X11007450Y-7494000I-44450J0D01*
G01*
D10*
X11415000Y-5976000D02*
X11415000Y-6076000D01*
X11365000Y-6026000D02*
X11465000Y-6026000D01*
X11415000Y-6230000D02*
X11415000Y-6330000D01*
X11365000Y-6280000D02*
X11465000Y-6280000D01*
X11669000Y-5976000D02*
X11669000Y-6076000D01*
X11619000Y-6026000D02*
X11719000Y-6026000D01*
X11669000Y-6230000D02*
X11669000Y-6330000D01*
X11619000Y-6280000D02*
X11719000Y-6280000D01*
X11923000Y-5976000D02*
X11923000Y-6076000D01*
X11873000Y-6026000D02*
X11973000Y-6026000D01*
X11923000Y-6230000D02*
X11923000Y-6330000D01*
X11873000Y-6280000D02*
X11973000Y-6280000D01*
X12177000Y-5976000D02*
X12177000Y-6076000D01*
X12127000Y-6026000D02*
X12227000Y-6026000D01*
X12177000Y-6230000D02*
X12177000Y-6330000D01*
X12127000Y-6280000D02*
X12227000Y-6280000D01*
X12431000Y-5976000D02*
X12431000Y-6076000D01*
X12381000Y-6026000D02*
X12481000Y-6026000D01*
X12431000Y-6230000D02*
X12431000Y-6330000D01*
X12381000Y-6280000D02*
X12481000Y-6280000D01*
X12685000Y-5976000D02*
X12685000Y-6076000D01*
X12635000Y-6026000D02*
X12735000Y-6026000D01*
X12685000Y-6230000D02*
X12685000Y-6330000D01*
X12635000Y-6280000D02*
X12735000Y-6280000D01*
X12939000Y-5976000D02*
X12939000Y-6076000D01*
X12889000Y-6026000D02*
X12989000Y-6026000D01*
X12939000Y-6230000D02*
X12939000Y-6330000D01*
X12889000Y-6280000D02*
X12989000Y-6280000D01*
D14*
X8348138Y-7783138D02*
X8348138Y-7556862D01*
X8121862Y-7556862D01*
X8121862Y-7783138D01*
X8348138Y-7783138D01*
X10898138Y-5183138D02*
X10898138Y-4956862D01*
X10671862Y-4956862D01*
X10671862Y-5183138D01*
X10898138Y-5183138D01*
X13348138Y-7783138D02*
X13348138Y-7556862D01*
X13121862Y-7556862D01*
X13121862Y-7783138D01*
X13348138Y-7783138D01*
D11*
X8040777Y-8436484D02*
X8040777Y-8236484D01*
X8040777Y-8236484D02*
X8088396Y-8236484D01*
X8088396Y-8236484D02*
X8116967Y-8246008D01*
X8116967Y-8246008D02*
X8136015Y-8265055D01*
X8136015Y-8265055D02*
X8145539Y-8284103D01*
X8145539Y-8284103D02*
X8155062Y-8322198D01*
X8155062Y-8322198D02*
X8155062Y-8350769D01*
X8155062Y-8350769D02*
X8145539Y-8388865D01*
X8145539Y-8388865D02*
X8136015Y-8407912D01*
X8136015Y-8407912D02*
X8116967Y-8426960D01*
X8116967Y-8426960D02*
X8088396Y-8436484D01*
X8088396Y-8436484D02*
X8040777Y-8436484D01*
X8240777Y-8436484D02*
X8240777Y-8303150D01*
X8240777Y-8341246D02*
X8250301Y-8322198D01*
X8250301Y-8322198D02*
X8259824Y-8312674D01*
X8259824Y-8312674D02*
X8278872Y-8303150D01*
X8278872Y-8303150D02*
X8297920Y-8303150D01*
X8364586Y-8436484D02*
X8364586Y-8303150D01*
X8364586Y-8236484D02*
X8355062Y-8246008D01*
X8355062Y-8246008D02*
X8364586Y-8255531D01*
X8364586Y-8255531D02*
X8374110Y-8246008D01*
X8374110Y-8246008D02*
X8364586Y-8236484D01*
X8364586Y-8236484D02*
X8364586Y-8255531D01*
X8488396Y-8436484D02*
X8469348Y-8426960D01*
X8469348Y-8426960D02*
X8459824Y-8407912D01*
X8459824Y-8407912D02*
X8459824Y-8236484D01*
X8593158Y-8436484D02*
X8574110Y-8426960D01*
X8574110Y-8426960D02*
X8564586Y-8407912D01*
X8564586Y-8407912D02*
X8564586Y-8236484D01*
X8821729Y-8436484D02*
X8821729Y-8236484D01*
X8821729Y-8236484D02*
X8888396Y-8379341D01*
X8888396Y-8379341D02*
X8955063Y-8236484D01*
X8955063Y-8236484D02*
X8955063Y-8436484D01*
X9136015Y-8436484D02*
X9136015Y-8331722D01*
X9136015Y-8331722D02*
X9126491Y-8312674D01*
X9126491Y-8312674D02*
X9107444Y-8303150D01*
X9107444Y-8303150D02*
X9069348Y-8303150D01*
X9069348Y-8303150D02*
X9050301Y-8312674D01*
X9136015Y-8426960D02*
X9116967Y-8436484D01*
X9116967Y-8436484D02*
X9069348Y-8436484D01*
X9069348Y-8436484D02*
X9050301Y-8426960D01*
X9050301Y-8426960D02*
X9040777Y-8407912D01*
X9040777Y-8407912D02*
X9040777Y-8388865D01*
X9040777Y-8388865D02*
X9050301Y-8369817D01*
X9050301Y-8369817D02*
X9069348Y-8360293D01*
X9069348Y-8360293D02*
X9116967Y-8360293D01*
X9116967Y-8360293D02*
X9136015Y-8350769D01*
X9231253Y-8303150D02*
X9231253Y-8503150D01*
X9231253Y-8312674D02*
X9250301Y-8303150D01*
X9250301Y-8303150D02*
X9288396Y-8303150D01*
X9288396Y-8303150D02*
X9307444Y-8312674D01*
X9307444Y-8312674D02*
X9316967Y-8322198D01*
X9316967Y-8322198D02*
X9326491Y-8341246D01*
X9326491Y-8341246D02*
X9326491Y-8398389D01*
X9326491Y-8398389D02*
X9316967Y-8417436D01*
X9316967Y-8417436D02*
X9307444Y-8426960D01*
X9307444Y-8426960D02*
X9288396Y-8436484D01*
X9288396Y-8436484D02*
X9250301Y-8436484D01*
X9250301Y-8436484D02*
X9231253Y-8426960D01*
X9412205Y-8417436D02*
X9421729Y-8426960D01*
X9421729Y-8426960D02*
X9412205Y-8436484D01*
X9412205Y-8436484D02*
X9402682Y-8426960D01*
X9402682Y-8426960D02*
X9412205Y-8417436D01*
X9412205Y-8417436D02*
X9412205Y-8436484D01*
X9412205Y-8312674D02*
X9421729Y-8322198D01*
X9421729Y-8322198D02*
X9412205Y-8331722D01*
X9412205Y-8331722D02*
X9402682Y-8322198D01*
X9402682Y-8322198D02*
X9412205Y-8312674D01*
X9412205Y-8312674D02*
X9412205Y-8331722D01*
D12*
X7740000Y-8745000D02*
X7780000Y-8785000D01*
X7780000Y-8745000D02*
X7740000Y-8785000D01*
D11*
X8078872Y-8656484D02*
X8097920Y-8656484D01*
X8097920Y-8656484D02*
X8116967Y-8666008D01*
X8116967Y-8666008D02*
X8126491Y-8675531D01*
X8126491Y-8675531D02*
X8136015Y-8694579D01*
X8136015Y-8694579D02*
X8145539Y-8732674D01*
X8145539Y-8732674D02*
X8145539Y-8780293D01*
X8145539Y-8780293D02*
X8136015Y-8818389D01*
X8136015Y-8818389D02*
X8126491Y-8837436D01*
X8126491Y-8837436D02*
X8116967Y-8846960D01*
X8116967Y-8846960D02*
X8097920Y-8856484D01*
X8097920Y-8856484D02*
X8078872Y-8856484D01*
X8078872Y-8856484D02*
X8059824Y-8846960D01*
X8059824Y-8846960D02*
X8050301Y-8837436D01*
X8050301Y-8837436D02*
X8040777Y-8818389D01*
X8040777Y-8818389D02*
X8031253Y-8780293D01*
X8031253Y-8780293D02*
X8031253Y-8732674D01*
X8031253Y-8732674D02*
X8040777Y-8694579D01*
X8040777Y-8694579D02*
X8050301Y-8675531D01*
X8050301Y-8675531D02*
X8059824Y-8666008D01*
X8059824Y-8666008D02*
X8078872Y-8656484D01*
X8231253Y-8837436D02*
X8240777Y-8846960D01*
X8240777Y-8846960D02*
X8231253Y-8856484D01*
X8231253Y-8856484D02*
X8221729Y-8846960D01*
X8221729Y-8846960D02*
X8231253Y-8837436D01*
X8231253Y-8837436D02*
X8231253Y-8856484D01*
X8412205Y-8723150D02*
X8412205Y-8856484D01*
X8364586Y-8646960D02*
X8316967Y-8789817D01*
X8316967Y-8789817D02*
X8440777Y-8789817D01*
X8555063Y-8656484D02*
X8574110Y-8656484D01*
X8574110Y-8656484D02*
X8593158Y-8666008D01*
X8593158Y-8666008D02*
X8602682Y-8675531D01*
X8602682Y-8675531D02*
X8612205Y-8694579D01*
X8612205Y-8694579D02*
X8621729Y-8732674D01*
X8621729Y-8732674D02*
X8621729Y-8780293D01*
X8621729Y-8780293D02*
X8612205Y-8818389D01*
X8612205Y-8818389D02*
X8602682Y-8837436D01*
X8602682Y-8837436D02*
X8593158Y-8846960D01*
X8593158Y-8846960D02*
X8574110Y-8856484D01*
X8574110Y-8856484D02*
X8555063Y-8856484D01*
X8555063Y-8856484D02*
X8536015Y-8846960D01*
X8536015Y-8846960D02*
X8526491Y-8837436D01*
X8526491Y-8837436D02*
X8516967Y-8818389D01*
X8516967Y-8818389D02*
X8507444Y-8780293D01*
X8507444Y-8780293D02*
X8507444Y-8732674D01*
X8507444Y-8732674D02*
X8516967Y-8694579D01*
X8516967Y-8694579D02*
X8526491Y-8675531D01*
X8526491Y-8675531D02*
X8536015Y-8666008D01*
X8536015Y-8666008D02*
X8555063Y-8656484D01*
X8745539Y-8656484D02*
X8764586Y-8656484D01*
X8764586Y-8656484D02*
X8783634Y-8666008D01*
X8783634Y-8666008D02*
X8793158Y-8675531D01*
X8793158Y-8675531D02*
X8802682Y-8694579D01*
X8802682Y-8694579D02*
X8812205Y-8732674D01*
X8812205Y-8732674D02*
X8812205Y-8780293D01*
X8812205Y-8780293D02*
X8802682Y-8818389D01*
X8802682Y-8818389D02*
X8793158Y-8837436D01*
X8793158Y-8837436D02*
X8783634Y-8846960D01*
X8783634Y-8846960D02*
X8764586Y-8856484D01*
X8764586Y-8856484D02*
X8745539Y-8856484D01*
X8745539Y-8856484D02*
X8726491Y-8846960D01*
X8726491Y-8846960D02*
X8716967Y-8837436D01*
X8716967Y-8837436D02*
X8707444Y-8818389D01*
X8707444Y-8818389D02*
X8697920Y-8780293D01*
X8697920Y-8780293D02*
X8697920Y-8732674D01*
X8697920Y-8732674D02*
X8707444Y-8694579D01*
X8707444Y-8694579D02*
X8716967Y-8675531D01*
X8716967Y-8675531D02*
X8726491Y-8666008D01*
X8726491Y-8666008D02*
X8745539Y-8656484D01*
X8897920Y-8856484D02*
X8897920Y-8723150D01*
X8897920Y-8742198D02*
X8907444Y-8732674D01*
X8907444Y-8732674D02*
X8926491Y-8723150D01*
X8926491Y-8723150D02*
X8955063Y-8723150D01*
X8955063Y-8723150D02*
X8974110Y-8732674D01*
X8974110Y-8732674D02*
X8983634Y-8751722D01*
X8983634Y-8751722D02*
X8983634Y-8856484D01*
X8983634Y-8751722D02*
X8993158Y-8732674D01*
X8993158Y-8732674D02*
X9012205Y-8723150D01*
X9012205Y-8723150D02*
X9040777Y-8723150D01*
X9040777Y-8723150D02*
X9059825Y-8732674D01*
X9059825Y-8732674D02*
X9069348Y-8751722D01*
X9069348Y-8751722D02*
X9069348Y-8856484D01*
X9164586Y-8856484D02*
X9164586Y-8723150D01*
X9164586Y-8742198D02*
X9174110Y-8732674D01*
X9174110Y-8732674D02*
X9193158Y-8723150D01*
X9193158Y-8723150D02*
X9221729Y-8723150D01*
X9221729Y-8723150D02*
X9240777Y-8732674D01*
X9240777Y-8732674D02*
X9250301Y-8751722D01*
X9250301Y-8751722D02*
X9250301Y-8856484D01*
X9250301Y-8751722D02*
X9259825Y-8732674D01*
X9259825Y-8732674D02*
X9278872Y-8723150D01*
X9278872Y-8723150D02*
X9307444Y-8723150D01*
X9307444Y-8723150D02*
X9326491Y-8732674D01*
X9326491Y-8732674D02*
X9336015Y-8751722D01*
X9336015Y-8751722D02*
X9336015Y-8856484D01*
X9726491Y-8646960D02*
X9555063Y-8904103D01*
X9983634Y-8656484D02*
X10002682Y-8656484D01*
X10002682Y-8656484D02*
X10021729Y-8666008D01*
X10021729Y-8666008D02*
X10031253Y-8675531D01*
X10031253Y-8675531D02*
X10040777Y-8694579D01*
X10040777Y-8694579D02*
X10050301Y-8732674D01*
X10050301Y-8732674D02*
X10050301Y-8780293D01*
X10050301Y-8780293D02*
X10040777Y-8818389D01*
X10040777Y-8818389D02*
X10031253Y-8837436D01*
X10031253Y-8837436D02*
X10021729Y-8846960D01*
X10021729Y-8846960D02*
X10002682Y-8856484D01*
X10002682Y-8856484D02*
X9983634Y-8856484D01*
X9983634Y-8856484D02*
X9964587Y-8846960D01*
X9964587Y-8846960D02*
X9955063Y-8837436D01*
X9955063Y-8837436D02*
X9945539Y-8818389D01*
X9945539Y-8818389D02*
X9936015Y-8780293D01*
X9936015Y-8780293D02*
X9936015Y-8732674D01*
X9936015Y-8732674D02*
X9945539Y-8694579D01*
X9945539Y-8694579D02*
X9955063Y-8675531D01*
X9955063Y-8675531D02*
X9964587Y-8666008D01*
X9964587Y-8666008D02*
X9983634Y-8656484D01*
X10136015Y-8837436D02*
X10145539Y-8846960D01*
X10145539Y-8846960D02*
X10136015Y-8856484D01*
X10136015Y-8856484D02*
X10126491Y-8846960D01*
X10126491Y-8846960D02*
X10136015Y-8837436D01*
X10136015Y-8837436D02*
X10136015Y-8856484D01*
X10269348Y-8656484D02*
X10288396Y-8656484D01*
X10288396Y-8656484D02*
X10307444Y-8666008D01*
X10307444Y-8666008D02*
X10316968Y-8675531D01*
X10316968Y-8675531D02*
X10326491Y-8694579D01*
X10326491Y-8694579D02*
X10336015Y-8732674D01*
X10336015Y-8732674D02*
X10336015Y-8780293D01*
X10336015Y-8780293D02*
X10326491Y-8818389D01*
X10326491Y-8818389D02*
X10316968Y-8837436D01*
X10316968Y-8837436D02*
X10307444Y-8846960D01*
X10307444Y-8846960D02*
X10288396Y-8856484D01*
X10288396Y-8856484D02*
X10269348Y-8856484D01*
X10269348Y-8856484D02*
X10250301Y-8846960D01*
X10250301Y-8846960D02*
X10240777Y-8837436D01*
X10240777Y-8837436D02*
X10231253Y-8818389D01*
X10231253Y-8818389D02*
X10221729Y-8780293D01*
X10221729Y-8780293D02*
X10221729Y-8732674D01*
X10221729Y-8732674D02*
X10231253Y-8694579D01*
X10231253Y-8694579D02*
X10240777Y-8675531D01*
X10240777Y-8675531D02*
X10250301Y-8666008D01*
X10250301Y-8666008D02*
X10269348Y-8656484D01*
X10526491Y-8856484D02*
X10412206Y-8856484D01*
X10469348Y-8856484D02*
X10469348Y-8656484D01*
X10469348Y-8656484D02*
X10450301Y-8685055D01*
X10450301Y-8685055D02*
X10431253Y-8704103D01*
X10431253Y-8704103D02*
X10412206Y-8713627D01*
X10707444Y-8656484D02*
X10612206Y-8656484D01*
X10612206Y-8656484D02*
X10602682Y-8751722D01*
X10602682Y-8751722D02*
X10612206Y-8742198D01*
X10612206Y-8742198D02*
X10631253Y-8732674D01*
X10631253Y-8732674D02*
X10678872Y-8732674D01*
X10678872Y-8732674D02*
X10697920Y-8742198D01*
X10697920Y-8742198D02*
X10707444Y-8751722D01*
X10707444Y-8751722D02*
X10716968Y-8770770D01*
X10716968Y-8770770D02*
X10716968Y-8818389D01*
X10716968Y-8818389D02*
X10707444Y-8837436D01*
X10707444Y-8837436D02*
X10697920Y-8846960D01*
X10697920Y-8846960D02*
X10678872Y-8856484D01*
X10678872Y-8856484D02*
X10631253Y-8856484D01*
X10631253Y-8856484D02*
X10612206Y-8846960D01*
X10612206Y-8846960D02*
X10602682Y-8837436D01*
X10783634Y-8656484D02*
X10916968Y-8656484D01*
X10916968Y-8656484D02*
X10831253Y-8856484D01*
X10983634Y-8656484D02*
X10983634Y-8694579D01*
X11059825Y-8656484D02*
X11059825Y-8694579D01*
X11355063Y-8932674D02*
X11345539Y-8923150D01*
X11345539Y-8923150D02*
X11326491Y-8894579D01*
X11326491Y-8894579D02*
X11316968Y-8875531D01*
X11316968Y-8875531D02*
X11307444Y-8846960D01*
X11307444Y-8846960D02*
X11297920Y-8799341D01*
X11297920Y-8799341D02*
X11297920Y-8761246D01*
X11297920Y-8761246D02*
X11307444Y-8713627D01*
X11307444Y-8713627D02*
X11316968Y-8685055D01*
X11316968Y-8685055D02*
X11326491Y-8666008D01*
X11326491Y-8666008D02*
X11345539Y-8637436D01*
X11345539Y-8637436D02*
X11355063Y-8627912D01*
X11412206Y-8656484D02*
X11536015Y-8656484D01*
X11536015Y-8656484D02*
X11469348Y-8732674D01*
X11469348Y-8732674D02*
X11497920Y-8732674D01*
X11497920Y-8732674D02*
X11516968Y-8742198D01*
X11516968Y-8742198D02*
X11526491Y-8751722D01*
X11526491Y-8751722D02*
X11536015Y-8770770D01*
X11536015Y-8770770D02*
X11536015Y-8818389D01*
X11536015Y-8818389D02*
X11526491Y-8837436D01*
X11526491Y-8837436D02*
X11516968Y-8846960D01*
X11516968Y-8846960D02*
X11497920Y-8856484D01*
X11497920Y-8856484D02*
X11440777Y-8856484D01*
X11440777Y-8856484D02*
X11421729Y-8846960D01*
X11421729Y-8846960D02*
X11412206Y-8837436D01*
X11716968Y-8656484D02*
X11621729Y-8656484D01*
X11621729Y-8656484D02*
X11612206Y-8751722D01*
X11612206Y-8751722D02*
X11621729Y-8742198D01*
X11621729Y-8742198D02*
X11640777Y-8732674D01*
X11640777Y-8732674D02*
X11688396Y-8732674D01*
X11688396Y-8732674D02*
X11707444Y-8742198D01*
X11707444Y-8742198D02*
X11716968Y-8751722D01*
X11716968Y-8751722D02*
X11726491Y-8770770D01*
X11726491Y-8770770D02*
X11726491Y-8818389D01*
X11726491Y-8818389D02*
X11716968Y-8837436D01*
X11716968Y-8837436D02*
X11707444Y-8846960D01*
X11707444Y-8846960D02*
X11688396Y-8856484D01*
X11688396Y-8856484D02*
X11640777Y-8856484D01*
X11640777Y-8856484D02*
X11621729Y-8846960D01*
X11621729Y-8846960D02*
X11612206Y-8837436D01*
X11964587Y-8856484D02*
X11964587Y-8656484D01*
X12050301Y-8856484D02*
X12050301Y-8751722D01*
X12050301Y-8751722D02*
X12040777Y-8732674D01*
X12040777Y-8732674D02*
X12021730Y-8723150D01*
X12021730Y-8723150D02*
X11993158Y-8723150D01*
X11993158Y-8723150D02*
X11974110Y-8732674D01*
X11974110Y-8732674D02*
X11964587Y-8742198D01*
X12174110Y-8856484D02*
X12155063Y-8846960D01*
X12155063Y-8846960D02*
X12145539Y-8837436D01*
X12145539Y-8837436D02*
X12136015Y-8818389D01*
X12136015Y-8818389D02*
X12136015Y-8761246D01*
X12136015Y-8761246D02*
X12145539Y-8742198D01*
X12145539Y-8742198D02*
X12155063Y-8732674D01*
X12155063Y-8732674D02*
X12174110Y-8723150D01*
X12174110Y-8723150D02*
X12202682Y-8723150D01*
X12202682Y-8723150D02*
X12221730Y-8732674D01*
X12221730Y-8732674D02*
X12231253Y-8742198D01*
X12231253Y-8742198D02*
X12240777Y-8761246D01*
X12240777Y-8761246D02*
X12240777Y-8818389D01*
X12240777Y-8818389D02*
X12231253Y-8837436D01*
X12231253Y-8837436D02*
X12221730Y-8846960D01*
X12221730Y-8846960D02*
X12202682Y-8856484D01*
X12202682Y-8856484D02*
X12174110Y-8856484D01*
X12355063Y-8856484D02*
X12336015Y-8846960D01*
X12336015Y-8846960D02*
X12326491Y-8827912D01*
X12326491Y-8827912D02*
X12326491Y-8656484D01*
X12507444Y-8846960D02*
X12488396Y-8856484D01*
X12488396Y-8856484D02*
X12450301Y-8856484D01*
X12450301Y-8856484D02*
X12431253Y-8846960D01*
X12431253Y-8846960D02*
X12421730Y-8827912D01*
X12421730Y-8827912D02*
X12421730Y-8751722D01*
X12421730Y-8751722D02*
X12431253Y-8732674D01*
X12431253Y-8732674D02*
X12450301Y-8723150D01*
X12450301Y-8723150D02*
X12488396Y-8723150D01*
X12488396Y-8723150D02*
X12507444Y-8732674D01*
X12507444Y-8732674D02*
X12516968Y-8751722D01*
X12516968Y-8751722D02*
X12516968Y-8770770D01*
X12516968Y-8770770D02*
X12421730Y-8789817D01*
X12593158Y-8846960D02*
X12612206Y-8856484D01*
X12612206Y-8856484D02*
X12650301Y-8856484D01*
X12650301Y-8856484D02*
X12669349Y-8846960D01*
X12669349Y-8846960D02*
X12678872Y-8827912D01*
X12678872Y-8827912D02*
X12678872Y-8818389D01*
X12678872Y-8818389D02*
X12669349Y-8799341D01*
X12669349Y-8799341D02*
X12650301Y-8789817D01*
X12650301Y-8789817D02*
X12621730Y-8789817D01*
X12621730Y-8789817D02*
X12602682Y-8780293D01*
X12602682Y-8780293D02*
X12593158Y-8761246D01*
X12593158Y-8761246D02*
X12593158Y-8751722D01*
X12593158Y-8751722D02*
X12602682Y-8732674D01*
X12602682Y-8732674D02*
X12621730Y-8723150D01*
X12621730Y-8723150D02*
X12650301Y-8723150D01*
X12650301Y-8723150D02*
X12669349Y-8732674D01*
X12745539Y-8932674D02*
X12755063Y-8923150D01*
X12755063Y-8923150D02*
X12774111Y-8894579D01*
X12774111Y-8894579D02*
X12783634Y-8875531D01*
X12783634Y-8875531D02*
X12793158Y-8846960D01*
X12793158Y-8846960D02*
X12802682Y-8799341D01*
X12802682Y-8799341D02*
X12802682Y-8761246D01*
X12802682Y-8761246D02*
X12793158Y-8713627D01*
X12793158Y-8713627D02*
X12783634Y-8685055D01*
X12783634Y-8685055D02*
X12774111Y-8666008D01*
X12774111Y-8666008D02*
X12755063Y-8637436D01*
X12755063Y-8637436D02*
X12745539Y-8627912D01*
D13*
X7780000Y-9029000D02*
G75*
G03*
X7780000Y-9029000I-44450J0D01*
G01*
D11*
X8078872Y-8920484D02*
X8097920Y-8920484D01*
X8097920Y-8920484D02*
X8116967Y-8930008D01*
X8116967Y-8930008D02*
X8126491Y-8939531D01*
X8126491Y-8939531D02*
X8136015Y-8958579D01*
X8136015Y-8958579D02*
X8145539Y-8996674D01*
X8145539Y-8996674D02*
X8145539Y-9044293D01*
X8145539Y-9044293D02*
X8136015Y-9082389D01*
X8136015Y-9082389D02*
X8126491Y-9101436D01*
X8126491Y-9101436D02*
X8116967Y-9110960D01*
X8116967Y-9110960D02*
X8097920Y-9120484D01*
X8097920Y-9120484D02*
X8078872Y-9120484D01*
X8078872Y-9120484D02*
X8059824Y-9110960D01*
X8059824Y-9110960D02*
X8050301Y-9101436D01*
X8050301Y-9101436D02*
X8040777Y-9082389D01*
X8040777Y-9082389D02*
X8031253Y-9044293D01*
X8031253Y-9044293D02*
X8031253Y-8996674D01*
X8031253Y-8996674D02*
X8040777Y-8958579D01*
X8040777Y-8958579D02*
X8050301Y-8939531D01*
X8050301Y-8939531D02*
X8059824Y-8930008D01*
X8059824Y-8930008D02*
X8078872Y-8920484D01*
X8231253Y-9101436D02*
X8240777Y-9110960D01*
X8240777Y-9110960D02*
X8231253Y-9120484D01*
X8231253Y-9120484D02*
X8221729Y-9110960D01*
X8221729Y-9110960D02*
X8231253Y-9101436D01*
X8231253Y-9101436D02*
X8231253Y-9120484D01*
X8355062Y-9006198D02*
X8336015Y-8996674D01*
X8336015Y-8996674D02*
X8326491Y-8987150D01*
X8326491Y-8987150D02*
X8316967Y-8968103D01*
X8316967Y-8968103D02*
X8316967Y-8958579D01*
X8316967Y-8958579D02*
X8326491Y-8939531D01*
X8326491Y-8939531D02*
X8336015Y-8930008D01*
X8336015Y-8930008D02*
X8355062Y-8920484D01*
X8355062Y-8920484D02*
X8393158Y-8920484D01*
X8393158Y-8920484D02*
X8412205Y-8930008D01*
X8412205Y-8930008D02*
X8421729Y-8939531D01*
X8421729Y-8939531D02*
X8431253Y-8958579D01*
X8431253Y-8958579D02*
X8431253Y-8968103D01*
X8431253Y-8968103D02*
X8421729Y-8987150D01*
X8421729Y-8987150D02*
X8412205Y-8996674D01*
X8412205Y-8996674D02*
X8393158Y-9006198D01*
X8393158Y-9006198D02*
X8355062Y-9006198D01*
X8355062Y-9006198D02*
X8336015Y-9015722D01*
X8336015Y-9015722D02*
X8326491Y-9025246D01*
X8326491Y-9025246D02*
X8316967Y-9044293D01*
X8316967Y-9044293D02*
X8316967Y-9082389D01*
X8316967Y-9082389D02*
X8326491Y-9101436D01*
X8326491Y-9101436D02*
X8336015Y-9110960D01*
X8336015Y-9110960D02*
X8355062Y-9120484D01*
X8355062Y-9120484D02*
X8393158Y-9120484D01*
X8393158Y-9120484D02*
X8412205Y-9110960D01*
X8412205Y-9110960D02*
X8421729Y-9101436D01*
X8421729Y-9101436D02*
X8431253Y-9082389D01*
X8431253Y-9082389D02*
X8431253Y-9044293D01*
X8431253Y-9044293D02*
X8421729Y-9025246D01*
X8421729Y-9025246D02*
X8412205Y-9015722D01*
X8412205Y-9015722D02*
X8393158Y-9006198D01*
X8545539Y-9006198D02*
X8526491Y-8996674D01*
X8526491Y-8996674D02*
X8516967Y-8987150D01*
X8516967Y-8987150D02*
X8507444Y-8968103D01*
X8507444Y-8968103D02*
X8507444Y-8958579D01*
X8507444Y-8958579D02*
X8516967Y-8939531D01*
X8516967Y-8939531D02*
X8526491Y-8930008D01*
X8526491Y-8930008D02*
X8545539Y-8920484D01*
X8545539Y-8920484D02*
X8583634Y-8920484D01*
X8583634Y-8920484D02*
X8602682Y-8930008D01*
X8602682Y-8930008D02*
X8612205Y-8939531D01*
X8612205Y-8939531D02*
X8621729Y-8958579D01*
X8621729Y-8958579D02*
X8621729Y-8968103D01*
X8621729Y-8968103D02*
X8612205Y-8987150D01*
X8612205Y-8987150D02*
X8602682Y-8996674D01*
X8602682Y-8996674D02*
X8583634Y-9006198D01*
X8583634Y-9006198D02*
X8545539Y-9006198D01*
X8545539Y-9006198D02*
X8526491Y-9015722D01*
X8526491Y-9015722D02*
X8516967Y-9025246D01*
X8516967Y-9025246D02*
X8507444Y-9044293D01*
X8507444Y-9044293D02*
X8507444Y-9082389D01*
X8507444Y-9082389D02*
X8516967Y-9101436D01*
X8516967Y-9101436D02*
X8526491Y-9110960D01*
X8526491Y-9110960D02*
X8545539Y-9120484D01*
X8545539Y-9120484D02*
X8583634Y-9120484D01*
X8583634Y-9120484D02*
X8602682Y-9110960D01*
X8602682Y-9110960D02*
X8612205Y-9101436D01*
X8612205Y-9101436D02*
X8621729Y-9082389D01*
X8621729Y-9082389D02*
X8621729Y-9044293D01*
X8621729Y-9044293D02*
X8612205Y-9025246D01*
X8612205Y-9025246D02*
X8602682Y-9015722D01*
X8602682Y-9015722D02*
X8583634Y-9006198D01*
X8716967Y-9120484D02*
X8755063Y-9120484D01*
X8755063Y-9120484D02*
X8774110Y-9110960D01*
X8774110Y-9110960D02*
X8783634Y-9101436D01*
X8783634Y-9101436D02*
X8802682Y-9072865D01*
X8802682Y-9072865D02*
X8812205Y-9034770D01*
X8812205Y-9034770D02*
X8812205Y-8958579D01*
X8812205Y-8958579D02*
X8802682Y-8939531D01*
X8802682Y-8939531D02*
X8793158Y-8930008D01*
X8793158Y-8930008D02*
X8774110Y-8920484D01*
X8774110Y-8920484D02*
X8736015Y-8920484D01*
X8736015Y-8920484D02*
X8716967Y-8930008D01*
X8716967Y-8930008D02*
X8707444Y-8939531D01*
X8707444Y-8939531D02*
X8697920Y-8958579D01*
X8697920Y-8958579D02*
X8697920Y-9006198D01*
X8697920Y-9006198D02*
X8707444Y-9025246D01*
X8707444Y-9025246D02*
X8716967Y-9034770D01*
X8716967Y-9034770D02*
X8736015Y-9044293D01*
X8736015Y-9044293D02*
X8774110Y-9044293D01*
X8774110Y-9044293D02*
X8793158Y-9034770D01*
X8793158Y-9034770D02*
X8802682Y-9025246D01*
X8802682Y-9025246D02*
X8812205Y-9006198D01*
X8897920Y-9120484D02*
X8897920Y-8987150D01*
X8897920Y-9006198D02*
X8907444Y-8996674D01*
X8907444Y-8996674D02*
X8926491Y-8987150D01*
X8926491Y-8987150D02*
X8955063Y-8987150D01*
X8955063Y-8987150D02*
X8974110Y-8996674D01*
X8974110Y-8996674D02*
X8983634Y-9015722D01*
X8983634Y-9015722D02*
X8983634Y-9120484D01*
X8983634Y-9015722D02*
X8993158Y-8996674D01*
X8993158Y-8996674D02*
X9012205Y-8987150D01*
X9012205Y-8987150D02*
X9040777Y-8987150D01*
X9040777Y-8987150D02*
X9059825Y-8996674D01*
X9059825Y-8996674D02*
X9069348Y-9015722D01*
X9069348Y-9015722D02*
X9069348Y-9120484D01*
X9164586Y-9120484D02*
X9164586Y-8987150D01*
X9164586Y-9006198D02*
X9174110Y-8996674D01*
X9174110Y-8996674D02*
X9193158Y-8987150D01*
X9193158Y-8987150D02*
X9221729Y-8987150D01*
X9221729Y-8987150D02*
X9240777Y-8996674D01*
X9240777Y-8996674D02*
X9250301Y-9015722D01*
X9250301Y-9015722D02*
X9250301Y-9120484D01*
X9250301Y-9015722D02*
X9259825Y-8996674D01*
X9259825Y-8996674D02*
X9278872Y-8987150D01*
X9278872Y-8987150D02*
X9307444Y-8987150D01*
X9307444Y-8987150D02*
X9326491Y-8996674D01*
X9326491Y-8996674D02*
X9336015Y-9015722D01*
X9336015Y-9015722D02*
X9336015Y-9120484D01*
X9726491Y-8910960D02*
X9555063Y-9168103D01*
X9983634Y-8920484D02*
X10002682Y-8920484D01*
X10002682Y-8920484D02*
X10021729Y-8930008D01*
X10021729Y-8930008D02*
X10031253Y-8939531D01*
X10031253Y-8939531D02*
X10040777Y-8958579D01*
X10040777Y-8958579D02*
X10050301Y-8996674D01*
X10050301Y-8996674D02*
X10050301Y-9044293D01*
X10050301Y-9044293D02*
X10040777Y-9082389D01*
X10040777Y-9082389D02*
X10031253Y-9101436D01*
X10031253Y-9101436D02*
X10021729Y-9110960D01*
X10021729Y-9110960D02*
X10002682Y-9120484D01*
X10002682Y-9120484D02*
X9983634Y-9120484D01*
X9983634Y-9120484D02*
X9964587Y-9110960D01*
X9964587Y-9110960D02*
X9955063Y-9101436D01*
X9955063Y-9101436D02*
X9945539Y-9082389D01*
X9945539Y-9082389D02*
X9936015Y-9044293D01*
X9936015Y-9044293D02*
X9936015Y-8996674D01*
X9936015Y-8996674D02*
X9945539Y-8958579D01*
X9945539Y-8958579D02*
X9955063Y-8939531D01*
X9955063Y-8939531D02*
X9964587Y-8930008D01*
X9964587Y-8930008D02*
X9983634Y-8920484D01*
X10136015Y-9101436D02*
X10145539Y-9110960D01*
X10145539Y-9110960D02*
X10136015Y-9120484D01*
X10136015Y-9120484D02*
X10126491Y-9110960D01*
X10126491Y-9110960D02*
X10136015Y-9101436D01*
X10136015Y-9101436D02*
X10136015Y-9120484D01*
X10269348Y-8920484D02*
X10288396Y-8920484D01*
X10288396Y-8920484D02*
X10307444Y-8930008D01*
X10307444Y-8930008D02*
X10316968Y-8939531D01*
X10316968Y-8939531D02*
X10326491Y-8958579D01*
X10326491Y-8958579D02*
X10336015Y-8996674D01*
X10336015Y-8996674D02*
X10336015Y-9044293D01*
X10336015Y-9044293D02*
X10326491Y-9082389D01*
X10326491Y-9082389D02*
X10316968Y-9101436D01*
X10316968Y-9101436D02*
X10307444Y-9110960D01*
X10307444Y-9110960D02*
X10288396Y-9120484D01*
X10288396Y-9120484D02*
X10269348Y-9120484D01*
X10269348Y-9120484D02*
X10250301Y-9110960D01*
X10250301Y-9110960D02*
X10240777Y-9101436D01*
X10240777Y-9101436D02*
X10231253Y-9082389D01*
X10231253Y-9082389D02*
X10221729Y-9044293D01*
X10221729Y-9044293D02*
X10221729Y-8996674D01*
X10221729Y-8996674D02*
X10231253Y-8958579D01*
X10231253Y-8958579D02*
X10240777Y-8939531D01*
X10240777Y-8939531D02*
X10250301Y-8930008D01*
X10250301Y-8930008D02*
X10269348Y-8920484D01*
X10402682Y-8920484D02*
X10526491Y-8920484D01*
X10526491Y-8920484D02*
X10459825Y-8996674D01*
X10459825Y-8996674D02*
X10488396Y-8996674D01*
X10488396Y-8996674D02*
X10507444Y-9006198D01*
X10507444Y-9006198D02*
X10516968Y-9015722D01*
X10516968Y-9015722D02*
X10526491Y-9034770D01*
X10526491Y-9034770D02*
X10526491Y-9082389D01*
X10526491Y-9082389D02*
X10516968Y-9101436D01*
X10516968Y-9101436D02*
X10507444Y-9110960D01*
X10507444Y-9110960D02*
X10488396Y-9120484D01*
X10488396Y-9120484D02*
X10431253Y-9120484D01*
X10431253Y-9120484D02*
X10412206Y-9110960D01*
X10412206Y-9110960D02*
X10402682Y-9101436D01*
X10707444Y-8920484D02*
X10612206Y-8920484D01*
X10612206Y-8920484D02*
X10602682Y-9015722D01*
X10602682Y-9015722D02*
X10612206Y-9006198D01*
X10612206Y-9006198D02*
X10631253Y-8996674D01*
X10631253Y-8996674D02*
X10678872Y-8996674D01*
X10678872Y-8996674D02*
X10697920Y-9006198D01*
X10697920Y-9006198D02*
X10707444Y-9015722D01*
X10707444Y-9015722D02*
X10716968Y-9034770D01*
X10716968Y-9034770D02*
X10716968Y-9082389D01*
X10716968Y-9082389D02*
X10707444Y-9101436D01*
X10707444Y-9101436D02*
X10697920Y-9110960D01*
X10697920Y-9110960D02*
X10678872Y-9120484D01*
X10678872Y-9120484D02*
X10631253Y-9120484D01*
X10631253Y-9120484D02*
X10612206Y-9110960D01*
X10612206Y-9110960D02*
X10602682Y-9101436D01*
X10840777Y-8920484D02*
X10859825Y-8920484D01*
X10859825Y-8920484D02*
X10878872Y-8930008D01*
X10878872Y-8930008D02*
X10888396Y-8939531D01*
X10888396Y-8939531D02*
X10897920Y-8958579D01*
X10897920Y-8958579D02*
X10907444Y-8996674D01*
X10907444Y-8996674D02*
X10907444Y-9044293D01*
X10907444Y-9044293D02*
X10897920Y-9082389D01*
X10897920Y-9082389D02*
X10888396Y-9101436D01*
X10888396Y-9101436D02*
X10878872Y-9110960D01*
X10878872Y-9110960D02*
X10859825Y-9120484D01*
X10859825Y-9120484D02*
X10840777Y-9120484D01*
X10840777Y-9120484D02*
X10821729Y-9110960D01*
X10821729Y-9110960D02*
X10812206Y-9101436D01*
X10812206Y-9101436D02*
X10802682Y-9082389D01*
X10802682Y-9082389D02*
X10793158Y-9044293D01*
X10793158Y-9044293D02*
X10793158Y-8996674D01*
X10793158Y-8996674D02*
X10802682Y-8958579D01*
X10802682Y-8958579D02*
X10812206Y-8939531D01*
X10812206Y-8939531D02*
X10821729Y-8930008D01*
X10821729Y-8930008D02*
X10840777Y-8920484D01*
X10983634Y-8920484D02*
X10983634Y-8958579D01*
X11059825Y-8920484D02*
X11059825Y-8958579D01*
X11355063Y-9196674D02*
X11345539Y-9187150D01*
X11345539Y-9187150D02*
X11326491Y-9158579D01*
X11326491Y-9158579D02*
X11316968Y-9139531D01*
X11316968Y-9139531D02*
X11307444Y-9110960D01*
X11307444Y-9110960D02*
X11297920Y-9063341D01*
X11297920Y-9063341D02*
X11297920Y-9025246D01*
X11297920Y-9025246D02*
X11307444Y-8977627D01*
X11307444Y-8977627D02*
X11316968Y-8949055D01*
X11316968Y-8949055D02*
X11326491Y-8930008D01*
X11326491Y-8930008D02*
X11345539Y-8901436D01*
X11345539Y-8901436D02*
X11355063Y-8891912D01*
X11536015Y-9120484D02*
X11421729Y-9120484D01*
X11478872Y-9120484D02*
X11478872Y-8920484D01*
X11478872Y-8920484D02*
X11459825Y-8949055D01*
X11459825Y-8949055D02*
X11440777Y-8968103D01*
X11440777Y-8968103D02*
X11421729Y-8977627D01*
X11707444Y-8920484D02*
X11669348Y-8920484D01*
X11669348Y-8920484D02*
X11650301Y-8930008D01*
X11650301Y-8930008D02*
X11640777Y-8939531D01*
X11640777Y-8939531D02*
X11621729Y-8968103D01*
X11621729Y-8968103D02*
X11612206Y-9006198D01*
X11612206Y-9006198D02*
X11612206Y-9082389D01*
X11612206Y-9082389D02*
X11621729Y-9101436D01*
X11621729Y-9101436D02*
X11631253Y-9110960D01*
X11631253Y-9110960D02*
X11650301Y-9120484D01*
X11650301Y-9120484D02*
X11688396Y-9120484D01*
X11688396Y-9120484D02*
X11707444Y-9110960D01*
X11707444Y-9110960D02*
X11716968Y-9101436D01*
X11716968Y-9101436D02*
X11726491Y-9082389D01*
X11726491Y-9082389D02*
X11726491Y-9034770D01*
X11726491Y-9034770D02*
X11716968Y-9015722D01*
X11716968Y-9015722D02*
X11707444Y-9006198D01*
X11707444Y-9006198D02*
X11688396Y-8996674D01*
X11688396Y-8996674D02*
X11650301Y-8996674D01*
X11650301Y-8996674D02*
X11631253Y-9006198D01*
X11631253Y-9006198D02*
X11621729Y-9015722D01*
X11621729Y-9015722D02*
X11612206Y-9034770D01*
X11964587Y-9120484D02*
X11964587Y-8920484D01*
X12050301Y-9120484D02*
X12050301Y-9015722D01*
X12050301Y-9015722D02*
X12040777Y-8996674D01*
X12040777Y-8996674D02*
X12021730Y-8987150D01*
X12021730Y-8987150D02*
X11993158Y-8987150D01*
X11993158Y-8987150D02*
X11974110Y-8996674D01*
X11974110Y-8996674D02*
X11964587Y-9006198D01*
X12174110Y-9120484D02*
X12155063Y-9110960D01*
X12155063Y-9110960D02*
X12145539Y-9101436D01*
X12145539Y-9101436D02*
X12136015Y-9082389D01*
X12136015Y-9082389D02*
X12136015Y-9025246D01*
X12136015Y-9025246D02*
X12145539Y-9006198D01*
X12145539Y-9006198D02*
X12155063Y-8996674D01*
X12155063Y-8996674D02*
X12174110Y-8987150D01*
X12174110Y-8987150D02*
X12202682Y-8987150D01*
X12202682Y-8987150D02*
X12221730Y-8996674D01*
X12221730Y-8996674D02*
X12231253Y-9006198D01*
X12231253Y-9006198D02*
X12240777Y-9025246D01*
X12240777Y-9025246D02*
X12240777Y-9082389D01*
X12240777Y-9082389D02*
X12231253Y-9101436D01*
X12231253Y-9101436D02*
X12221730Y-9110960D01*
X12221730Y-9110960D02*
X12202682Y-9120484D01*
X12202682Y-9120484D02*
X12174110Y-9120484D01*
X12355063Y-9120484D02*
X12336015Y-9110960D01*
X12336015Y-9110960D02*
X12326491Y-9091912D01*
X12326491Y-9091912D02*
X12326491Y-8920484D01*
X12507444Y-9110960D02*
X12488396Y-9120484D01*
X12488396Y-9120484D02*
X12450301Y-9120484D01*
X12450301Y-9120484D02*
X12431253Y-9110960D01*
X12431253Y-9110960D02*
X12421730Y-9091912D01*
X12421730Y-9091912D02*
X12421730Y-9015722D01*
X12421730Y-9015722D02*
X12431253Y-8996674D01*
X12431253Y-8996674D02*
X12450301Y-8987150D01*
X12450301Y-8987150D02*
X12488396Y-8987150D01*
X12488396Y-8987150D02*
X12507444Y-8996674D01*
X12507444Y-8996674D02*
X12516968Y-9015722D01*
X12516968Y-9015722D02*
X12516968Y-9034770D01*
X12516968Y-9034770D02*
X12421730Y-9053817D01*
X12593158Y-9110960D02*
X12612206Y-9120484D01*
X12612206Y-9120484D02*
X12650301Y-9120484D01*
X12650301Y-9120484D02*
X12669349Y-9110960D01*
X12669349Y-9110960D02*
X12678872Y-9091912D01*
X12678872Y-9091912D02*
X12678872Y-9082389D01*
X12678872Y-9082389D02*
X12669349Y-9063341D01*
X12669349Y-9063341D02*
X12650301Y-9053817D01*
X12650301Y-9053817D02*
X12621730Y-9053817D01*
X12621730Y-9053817D02*
X12602682Y-9044293D01*
X12602682Y-9044293D02*
X12593158Y-9025246D01*
X12593158Y-9025246D02*
X12593158Y-9015722D01*
X12593158Y-9015722D02*
X12602682Y-8996674D01*
X12602682Y-8996674D02*
X12621730Y-8987150D01*
X12621730Y-8987150D02*
X12650301Y-8987150D01*
X12650301Y-8987150D02*
X12669349Y-8996674D01*
X12745539Y-9196674D02*
X12755063Y-9187150D01*
X12755063Y-9187150D02*
X12774111Y-9158579D01*
X12774111Y-9158579D02*
X12783634Y-9139531D01*
X12783634Y-9139531D02*
X12793158Y-9110960D01*
X12793158Y-9110960D02*
X12802682Y-9063341D01*
X12802682Y-9063341D02*
X12802682Y-9025246D01*
X12802682Y-9025246D02*
X12793158Y-8977627D01*
X12793158Y-8977627D02*
X12783634Y-8949055D01*
X12783634Y-8949055D02*
X12774111Y-8930008D01*
X12774111Y-8930008D02*
X12755063Y-8901436D01*
X12755063Y-8901436D02*
X12745539Y-8891912D01*
D10*
X7730000Y-9243000D02*
X7730000Y-9343000D01*
X7680000Y-9293000D02*
X7780000Y-9293000D01*
D11*
X8145539Y-9384484D02*
X8031253Y-9384484D01*
X8088396Y-9384484D02*
X8088396Y-9184484D01*
X8088396Y-9184484D02*
X8069348Y-9213055D01*
X8069348Y-9213055D02*
X8050301Y-9232103D01*
X8050301Y-9232103D02*
X8031253Y-9241627D01*
X8231253Y-9365436D02*
X8240777Y-9374960D01*
X8240777Y-9374960D02*
X8231253Y-9384484D01*
X8231253Y-9384484D02*
X8221729Y-9374960D01*
X8221729Y-9374960D02*
X8231253Y-9365436D01*
X8231253Y-9365436D02*
X8231253Y-9384484D01*
X8364586Y-9184484D02*
X8383634Y-9184484D01*
X8383634Y-9184484D02*
X8402682Y-9194008D01*
X8402682Y-9194008D02*
X8412205Y-9203531D01*
X8412205Y-9203531D02*
X8421729Y-9222579D01*
X8421729Y-9222579D02*
X8431253Y-9260674D01*
X8431253Y-9260674D02*
X8431253Y-9308293D01*
X8431253Y-9308293D02*
X8421729Y-9346389D01*
X8421729Y-9346389D02*
X8412205Y-9365436D01*
X8412205Y-9365436D02*
X8402682Y-9374960D01*
X8402682Y-9374960D02*
X8383634Y-9384484D01*
X8383634Y-9384484D02*
X8364586Y-9384484D01*
X8364586Y-9384484D02*
X8345539Y-9374960D01*
X8345539Y-9374960D02*
X8336015Y-9365436D01*
X8336015Y-9365436D02*
X8326491Y-9346389D01*
X8326491Y-9346389D02*
X8316967Y-9308293D01*
X8316967Y-9308293D02*
X8316967Y-9260674D01*
X8316967Y-9260674D02*
X8326491Y-9222579D01*
X8326491Y-9222579D02*
X8336015Y-9203531D01*
X8336015Y-9203531D02*
X8345539Y-9194008D01*
X8345539Y-9194008D02*
X8364586Y-9184484D01*
X8555063Y-9184484D02*
X8574110Y-9184484D01*
X8574110Y-9184484D02*
X8593158Y-9194008D01*
X8593158Y-9194008D02*
X8602682Y-9203531D01*
X8602682Y-9203531D02*
X8612205Y-9222579D01*
X8612205Y-9222579D02*
X8621729Y-9260674D01*
X8621729Y-9260674D02*
X8621729Y-9308293D01*
X8621729Y-9308293D02*
X8612205Y-9346389D01*
X8612205Y-9346389D02*
X8602682Y-9365436D01*
X8602682Y-9365436D02*
X8593158Y-9374960D01*
X8593158Y-9374960D02*
X8574110Y-9384484D01*
X8574110Y-9384484D02*
X8555063Y-9384484D01*
X8555063Y-9384484D02*
X8536015Y-9374960D01*
X8536015Y-9374960D02*
X8526491Y-9365436D01*
X8526491Y-9365436D02*
X8516967Y-9346389D01*
X8516967Y-9346389D02*
X8507444Y-9308293D01*
X8507444Y-9308293D02*
X8507444Y-9260674D01*
X8507444Y-9260674D02*
X8516967Y-9222579D01*
X8516967Y-9222579D02*
X8526491Y-9203531D01*
X8526491Y-9203531D02*
X8536015Y-9194008D01*
X8536015Y-9194008D02*
X8555063Y-9184484D01*
X8745539Y-9184484D02*
X8764586Y-9184484D01*
X8764586Y-9184484D02*
X8783634Y-9194008D01*
X8783634Y-9194008D02*
X8793158Y-9203531D01*
X8793158Y-9203531D02*
X8802682Y-9222579D01*
X8802682Y-9222579D02*
X8812205Y-9260674D01*
X8812205Y-9260674D02*
X8812205Y-9308293D01*
X8812205Y-9308293D02*
X8802682Y-9346389D01*
X8802682Y-9346389D02*
X8793158Y-9365436D01*
X8793158Y-9365436D02*
X8783634Y-9374960D01*
X8783634Y-9374960D02*
X8764586Y-9384484D01*
X8764586Y-9384484D02*
X8745539Y-9384484D01*
X8745539Y-9384484D02*
X8726491Y-9374960D01*
X8726491Y-9374960D02*
X8716967Y-9365436D01*
X8716967Y-9365436D02*
X8707444Y-9346389D01*
X8707444Y-9346389D02*
X8697920Y-9308293D01*
X8697920Y-9308293D02*
X8697920Y-9260674D01*
X8697920Y-9260674D02*
X8707444Y-9222579D01*
X8707444Y-9222579D02*
X8716967Y-9203531D01*
X8716967Y-9203531D02*
X8726491Y-9194008D01*
X8726491Y-9194008D02*
X8745539Y-9184484D01*
X8897920Y-9384484D02*
X8897920Y-9251150D01*
X8897920Y-9270198D02*
X8907444Y-9260674D01*
X8907444Y-9260674D02*
X8926491Y-9251150D01*
X8926491Y-9251150D02*
X8955063Y-9251150D01*
X8955063Y-9251150D02*
X8974110Y-9260674D01*
X8974110Y-9260674D02*
X8983634Y-9279722D01*
X8983634Y-9279722D02*
X8983634Y-9384484D01*
X8983634Y-9279722D02*
X8993158Y-9260674D01*
X8993158Y-9260674D02*
X9012205Y-9251150D01*
X9012205Y-9251150D02*
X9040777Y-9251150D01*
X9040777Y-9251150D02*
X9059825Y-9260674D01*
X9059825Y-9260674D02*
X9069348Y-9279722D01*
X9069348Y-9279722D02*
X9069348Y-9384484D01*
X9164586Y-9384484D02*
X9164586Y-9251150D01*
X9164586Y-9270198D02*
X9174110Y-9260674D01*
X9174110Y-9260674D02*
X9193158Y-9251150D01*
X9193158Y-9251150D02*
X9221729Y-9251150D01*
X9221729Y-9251150D02*
X9240777Y-9260674D01*
X9240777Y-9260674D02*
X9250301Y-9279722D01*
X9250301Y-9279722D02*
X9250301Y-9384484D01*
X9250301Y-9279722D02*
X9259825Y-9260674D01*
X9259825Y-9260674D02*
X9278872Y-9251150D01*
X9278872Y-9251150D02*
X9307444Y-9251150D01*
X9307444Y-9251150D02*
X9326491Y-9260674D01*
X9326491Y-9260674D02*
X9336015Y-9279722D01*
X9336015Y-9279722D02*
X9336015Y-9384484D01*
X9726491Y-9174960D02*
X9555063Y-9432103D01*
X9983634Y-9184484D02*
X10002682Y-9184484D01*
X10002682Y-9184484D02*
X10021729Y-9194008D01*
X10021729Y-9194008D02*
X10031253Y-9203531D01*
X10031253Y-9203531D02*
X10040777Y-9222579D01*
X10040777Y-9222579D02*
X10050301Y-9260674D01*
X10050301Y-9260674D02*
X10050301Y-9308293D01*
X10050301Y-9308293D02*
X10040777Y-9346389D01*
X10040777Y-9346389D02*
X10031253Y-9365436D01*
X10031253Y-9365436D02*
X10021729Y-9374960D01*
X10021729Y-9374960D02*
X10002682Y-9384484D01*
X10002682Y-9384484D02*
X9983634Y-9384484D01*
X9983634Y-9384484D02*
X9964587Y-9374960D01*
X9964587Y-9374960D02*
X9955063Y-9365436D01*
X9955063Y-9365436D02*
X9945539Y-9346389D01*
X9945539Y-9346389D02*
X9936015Y-9308293D01*
X9936015Y-9308293D02*
X9936015Y-9260674D01*
X9936015Y-9260674D02*
X9945539Y-9222579D01*
X9945539Y-9222579D02*
X9955063Y-9203531D01*
X9955063Y-9203531D02*
X9964587Y-9194008D01*
X9964587Y-9194008D02*
X9983634Y-9184484D01*
X10136015Y-9365436D02*
X10145539Y-9374960D01*
X10145539Y-9374960D02*
X10136015Y-9384484D01*
X10136015Y-9384484D02*
X10126491Y-9374960D01*
X10126491Y-9374960D02*
X10136015Y-9365436D01*
X10136015Y-9365436D02*
X10136015Y-9384484D01*
X10269348Y-9184484D02*
X10288396Y-9184484D01*
X10288396Y-9184484D02*
X10307444Y-9194008D01*
X10307444Y-9194008D02*
X10316968Y-9203531D01*
X10316968Y-9203531D02*
X10326491Y-9222579D01*
X10326491Y-9222579D02*
X10336015Y-9260674D01*
X10336015Y-9260674D02*
X10336015Y-9308293D01*
X10336015Y-9308293D02*
X10326491Y-9346389D01*
X10326491Y-9346389D02*
X10316968Y-9365436D01*
X10316968Y-9365436D02*
X10307444Y-9374960D01*
X10307444Y-9374960D02*
X10288396Y-9384484D01*
X10288396Y-9384484D02*
X10269348Y-9384484D01*
X10269348Y-9384484D02*
X10250301Y-9374960D01*
X10250301Y-9374960D02*
X10240777Y-9365436D01*
X10240777Y-9365436D02*
X10231253Y-9346389D01*
X10231253Y-9346389D02*
X10221729Y-9308293D01*
X10221729Y-9308293D02*
X10221729Y-9260674D01*
X10221729Y-9260674D02*
X10231253Y-9222579D01*
X10231253Y-9222579D02*
X10240777Y-9203531D01*
X10240777Y-9203531D02*
X10250301Y-9194008D01*
X10250301Y-9194008D02*
X10269348Y-9184484D01*
X10402682Y-9184484D02*
X10526491Y-9184484D01*
X10526491Y-9184484D02*
X10459825Y-9260674D01*
X10459825Y-9260674D02*
X10488396Y-9260674D01*
X10488396Y-9260674D02*
X10507444Y-9270198D01*
X10507444Y-9270198D02*
X10516968Y-9279722D01*
X10516968Y-9279722D02*
X10526491Y-9298770D01*
X10526491Y-9298770D02*
X10526491Y-9346389D01*
X10526491Y-9346389D02*
X10516968Y-9365436D01*
X10516968Y-9365436D02*
X10507444Y-9374960D01*
X10507444Y-9374960D02*
X10488396Y-9384484D01*
X10488396Y-9384484D02*
X10431253Y-9384484D01*
X10431253Y-9384484D02*
X10412206Y-9374960D01*
X10412206Y-9374960D02*
X10402682Y-9365436D01*
X10621729Y-9384484D02*
X10659825Y-9384484D01*
X10659825Y-9384484D02*
X10678872Y-9374960D01*
X10678872Y-9374960D02*
X10688396Y-9365436D01*
X10688396Y-9365436D02*
X10707444Y-9336865D01*
X10707444Y-9336865D02*
X10716968Y-9298770D01*
X10716968Y-9298770D02*
X10716968Y-9222579D01*
X10716968Y-9222579D02*
X10707444Y-9203531D01*
X10707444Y-9203531D02*
X10697920Y-9194008D01*
X10697920Y-9194008D02*
X10678872Y-9184484D01*
X10678872Y-9184484D02*
X10640777Y-9184484D01*
X10640777Y-9184484D02*
X10621729Y-9194008D01*
X10621729Y-9194008D02*
X10612206Y-9203531D01*
X10612206Y-9203531D02*
X10602682Y-9222579D01*
X10602682Y-9222579D02*
X10602682Y-9270198D01*
X10602682Y-9270198D02*
X10612206Y-9289246D01*
X10612206Y-9289246D02*
X10621729Y-9298770D01*
X10621729Y-9298770D02*
X10640777Y-9308293D01*
X10640777Y-9308293D02*
X10678872Y-9308293D01*
X10678872Y-9308293D02*
X10697920Y-9298770D01*
X10697920Y-9298770D02*
X10707444Y-9289246D01*
X10707444Y-9289246D02*
X10716968Y-9270198D01*
X10888396Y-9251150D02*
X10888396Y-9384484D01*
X10840777Y-9174960D02*
X10793158Y-9317817D01*
X10793158Y-9317817D02*
X10916968Y-9317817D01*
X10983634Y-9184484D02*
X10983634Y-9222579D01*
X11059825Y-9184484D02*
X11059825Y-9222579D01*
X11355063Y-9460674D02*
X11345539Y-9451150D01*
X11345539Y-9451150D02*
X11326491Y-9422579D01*
X11326491Y-9422579D02*
X11316968Y-9403531D01*
X11316968Y-9403531D02*
X11307444Y-9374960D01*
X11307444Y-9374960D02*
X11297920Y-9327341D01*
X11297920Y-9327341D02*
X11297920Y-9289246D01*
X11297920Y-9289246D02*
X11307444Y-9241627D01*
X11307444Y-9241627D02*
X11316968Y-9213055D01*
X11316968Y-9213055D02*
X11326491Y-9194008D01*
X11326491Y-9194008D02*
X11345539Y-9165436D01*
X11345539Y-9165436D02*
X11355063Y-9155912D01*
X11536015Y-9384484D02*
X11421729Y-9384484D01*
X11478872Y-9384484D02*
X11478872Y-9184484D01*
X11478872Y-9184484D02*
X11459825Y-9213055D01*
X11459825Y-9213055D02*
X11440777Y-9232103D01*
X11440777Y-9232103D02*
X11421729Y-9241627D01*
X11707444Y-9251150D02*
X11707444Y-9384484D01*
X11659825Y-9174960D02*
X11612206Y-9317817D01*
X11612206Y-9317817D02*
X11736015Y-9317817D01*
X11964587Y-9384484D02*
X11964587Y-9184484D01*
X12050301Y-9384484D02*
X12050301Y-9279722D01*
X12050301Y-9279722D02*
X12040777Y-9260674D01*
X12040777Y-9260674D02*
X12021730Y-9251150D01*
X12021730Y-9251150D02*
X11993158Y-9251150D01*
X11993158Y-9251150D02*
X11974110Y-9260674D01*
X11974110Y-9260674D02*
X11964587Y-9270198D01*
X12174110Y-9384484D02*
X12155063Y-9374960D01*
X12155063Y-9374960D02*
X12145539Y-9365436D01*
X12145539Y-9365436D02*
X12136015Y-9346389D01*
X12136015Y-9346389D02*
X12136015Y-9289246D01*
X12136015Y-9289246D02*
X12145539Y-9270198D01*
X12145539Y-9270198D02*
X12155063Y-9260674D01*
X12155063Y-9260674D02*
X12174110Y-9251150D01*
X12174110Y-9251150D02*
X12202682Y-9251150D01*
X12202682Y-9251150D02*
X12221730Y-9260674D01*
X12221730Y-9260674D02*
X12231253Y-9270198D01*
X12231253Y-9270198D02*
X12240777Y-9289246D01*
X12240777Y-9289246D02*
X12240777Y-9346389D01*
X12240777Y-9346389D02*
X12231253Y-9365436D01*
X12231253Y-9365436D02*
X12221730Y-9374960D01*
X12221730Y-9374960D02*
X12202682Y-9384484D01*
X12202682Y-9384484D02*
X12174110Y-9384484D01*
X12355063Y-9384484D02*
X12336015Y-9374960D01*
X12336015Y-9374960D02*
X12326491Y-9355912D01*
X12326491Y-9355912D02*
X12326491Y-9184484D01*
X12507444Y-9374960D02*
X12488396Y-9384484D01*
X12488396Y-9384484D02*
X12450301Y-9384484D01*
X12450301Y-9384484D02*
X12431253Y-9374960D01*
X12431253Y-9374960D02*
X12421730Y-9355912D01*
X12421730Y-9355912D02*
X12421730Y-9279722D01*
X12421730Y-9279722D02*
X12431253Y-9260674D01*
X12431253Y-9260674D02*
X12450301Y-9251150D01*
X12450301Y-9251150D02*
X12488396Y-9251150D01*
X12488396Y-9251150D02*
X12507444Y-9260674D01*
X12507444Y-9260674D02*
X12516968Y-9279722D01*
X12516968Y-9279722D02*
X12516968Y-9298770D01*
X12516968Y-9298770D02*
X12421730Y-9317817D01*
X12593158Y-9374960D02*
X12612206Y-9384484D01*
X12612206Y-9384484D02*
X12650301Y-9384484D01*
X12650301Y-9384484D02*
X12669349Y-9374960D01*
X12669349Y-9374960D02*
X12678872Y-9355912D01*
X12678872Y-9355912D02*
X12678872Y-9346389D01*
X12678872Y-9346389D02*
X12669349Y-9327341D01*
X12669349Y-9327341D02*
X12650301Y-9317817D01*
X12650301Y-9317817D02*
X12621730Y-9317817D01*
X12621730Y-9317817D02*
X12602682Y-9308293D01*
X12602682Y-9308293D02*
X12593158Y-9289246D01*
X12593158Y-9289246D02*
X12593158Y-9279722D01*
X12593158Y-9279722D02*
X12602682Y-9260674D01*
X12602682Y-9260674D02*
X12621730Y-9251150D01*
X12621730Y-9251150D02*
X12650301Y-9251150D01*
X12650301Y-9251150D02*
X12669349Y-9260674D01*
X12745539Y-9460674D02*
X12755063Y-9451150D01*
X12755063Y-9451150D02*
X12774111Y-9422579D01*
X12774111Y-9422579D02*
X12783634Y-9403531D01*
X12783634Y-9403531D02*
X12793158Y-9374960D01*
X12793158Y-9374960D02*
X12802682Y-9327341D01*
X12802682Y-9327341D02*
X12802682Y-9289246D01*
X12802682Y-9289246D02*
X12793158Y-9241627D01*
X12793158Y-9241627D02*
X12783634Y-9213055D01*
X12783634Y-9213055D02*
X12774111Y-9194008D01*
X12774111Y-9194008D02*
X12755063Y-9165436D01*
X12755063Y-9165436D02*
X12745539Y-9155912D01*
X7750711Y-9627711D02*
X7750711Y-9486289D01*
X7609289Y-9486289D01*
X7609289Y-9627711D01*
X7750711Y-9627711D01*
X8021729Y-9448484D02*
X8145539Y-9448484D01*
X8145539Y-9448484D02*
X8078872Y-9524674D01*
X8078872Y-9524674D02*
X8107443Y-9524674D01*
X8107443Y-9524674D02*
X8126491Y-9534198D01*
X8126491Y-9534198D02*
X8136015Y-9543722D01*
X8136015Y-9543722D02*
X8145539Y-9562770D01*
X8145539Y-9562770D02*
X8145539Y-9610389D01*
X8145539Y-9610389D02*
X8136015Y-9629436D01*
X8136015Y-9629436D02*
X8126491Y-9638960D01*
X8126491Y-9638960D02*
X8107443Y-9648484D01*
X8107443Y-9648484D02*
X8050301Y-9648484D01*
X8050301Y-9648484D02*
X8031253Y-9638960D01*
X8031253Y-9638960D02*
X8021729Y-9629436D01*
X8231253Y-9629436D02*
X8240777Y-9638960D01*
X8240777Y-9638960D02*
X8231253Y-9648484D01*
X8231253Y-9648484D02*
X8221729Y-9638960D01*
X8221729Y-9638960D02*
X8231253Y-9629436D01*
X8231253Y-9629436D02*
X8231253Y-9648484D01*
X8316967Y-9467531D02*
X8326491Y-9458008D01*
X8326491Y-9458008D02*
X8345539Y-9448484D01*
X8345539Y-9448484D02*
X8393158Y-9448484D01*
X8393158Y-9448484D02*
X8412205Y-9458008D01*
X8412205Y-9458008D02*
X8421729Y-9467531D01*
X8421729Y-9467531D02*
X8431253Y-9486579D01*
X8431253Y-9486579D02*
X8431253Y-9505627D01*
X8431253Y-9505627D02*
X8421729Y-9534198D01*
X8421729Y-9534198D02*
X8307443Y-9648484D01*
X8307443Y-9648484D02*
X8431253Y-9648484D01*
X8555063Y-9448484D02*
X8574110Y-9448484D01*
X8574110Y-9448484D02*
X8593158Y-9458008D01*
X8593158Y-9458008D02*
X8602682Y-9467531D01*
X8602682Y-9467531D02*
X8612205Y-9486579D01*
X8612205Y-9486579D02*
X8621729Y-9524674D01*
X8621729Y-9524674D02*
X8621729Y-9572293D01*
X8621729Y-9572293D02*
X8612205Y-9610389D01*
X8612205Y-9610389D02*
X8602682Y-9629436D01*
X8602682Y-9629436D02*
X8593158Y-9638960D01*
X8593158Y-9638960D02*
X8574110Y-9648484D01*
X8574110Y-9648484D02*
X8555063Y-9648484D01*
X8555063Y-9648484D02*
X8536015Y-9638960D01*
X8536015Y-9638960D02*
X8526491Y-9629436D01*
X8526491Y-9629436D02*
X8516967Y-9610389D01*
X8516967Y-9610389D02*
X8507444Y-9572293D01*
X8507444Y-9572293D02*
X8507444Y-9524674D01*
X8507444Y-9524674D02*
X8516967Y-9486579D01*
X8516967Y-9486579D02*
X8526491Y-9467531D01*
X8526491Y-9467531D02*
X8536015Y-9458008D01*
X8536015Y-9458008D02*
X8555063Y-9448484D01*
X8745539Y-9448484D02*
X8764586Y-9448484D01*
X8764586Y-9448484D02*
X8783634Y-9458008D01*
X8783634Y-9458008D02*
X8793158Y-9467531D01*
X8793158Y-9467531D02*
X8802682Y-9486579D01*
X8802682Y-9486579D02*
X8812205Y-9524674D01*
X8812205Y-9524674D02*
X8812205Y-9572293D01*
X8812205Y-9572293D02*
X8802682Y-9610389D01*
X8802682Y-9610389D02*
X8793158Y-9629436D01*
X8793158Y-9629436D02*
X8783634Y-9638960D01*
X8783634Y-9638960D02*
X8764586Y-9648484D01*
X8764586Y-9648484D02*
X8745539Y-9648484D01*
X8745539Y-9648484D02*
X8726491Y-9638960D01*
X8726491Y-9638960D02*
X8716967Y-9629436D01*
X8716967Y-9629436D02*
X8707444Y-9610389D01*
X8707444Y-9610389D02*
X8697920Y-9572293D01*
X8697920Y-9572293D02*
X8697920Y-9524674D01*
X8697920Y-9524674D02*
X8707444Y-9486579D01*
X8707444Y-9486579D02*
X8716967Y-9467531D01*
X8716967Y-9467531D02*
X8726491Y-9458008D01*
X8726491Y-9458008D02*
X8745539Y-9448484D01*
X8897920Y-9648484D02*
X8897920Y-9515150D01*
X8897920Y-9534198D02*
X8907444Y-9524674D01*
X8907444Y-9524674D02*
X8926491Y-9515150D01*
X8926491Y-9515150D02*
X8955063Y-9515150D01*
X8955063Y-9515150D02*
X8974110Y-9524674D01*
X8974110Y-9524674D02*
X8983634Y-9543722D01*
X8983634Y-9543722D02*
X8983634Y-9648484D01*
X8983634Y-9543722D02*
X8993158Y-9524674D01*
X8993158Y-9524674D02*
X9012205Y-9515150D01*
X9012205Y-9515150D02*
X9040777Y-9515150D01*
X9040777Y-9515150D02*
X9059825Y-9524674D01*
X9059825Y-9524674D02*
X9069348Y-9543722D01*
X9069348Y-9543722D02*
X9069348Y-9648484D01*
X9164586Y-9648484D02*
X9164586Y-9515150D01*
X9164586Y-9534198D02*
X9174110Y-9524674D01*
X9174110Y-9524674D02*
X9193158Y-9515150D01*
X9193158Y-9515150D02*
X9221729Y-9515150D01*
X9221729Y-9515150D02*
X9240777Y-9524674D01*
X9240777Y-9524674D02*
X9250301Y-9543722D01*
X9250301Y-9543722D02*
X9250301Y-9648484D01*
X9250301Y-9543722D02*
X9259825Y-9524674D01*
X9259825Y-9524674D02*
X9278872Y-9515150D01*
X9278872Y-9515150D02*
X9307444Y-9515150D01*
X9307444Y-9515150D02*
X9326491Y-9524674D01*
X9326491Y-9524674D02*
X9336015Y-9543722D01*
X9336015Y-9543722D02*
X9336015Y-9648484D01*
X9726491Y-9438960D02*
X9555063Y-9696103D01*
X9983634Y-9448484D02*
X10002682Y-9448484D01*
X10002682Y-9448484D02*
X10021729Y-9458008D01*
X10021729Y-9458008D02*
X10031253Y-9467531D01*
X10031253Y-9467531D02*
X10040777Y-9486579D01*
X10040777Y-9486579D02*
X10050301Y-9524674D01*
X10050301Y-9524674D02*
X10050301Y-9572293D01*
X10050301Y-9572293D02*
X10040777Y-9610389D01*
X10040777Y-9610389D02*
X10031253Y-9629436D01*
X10031253Y-9629436D02*
X10021729Y-9638960D01*
X10021729Y-9638960D02*
X10002682Y-9648484D01*
X10002682Y-9648484D02*
X9983634Y-9648484D01*
X9983634Y-9648484D02*
X9964587Y-9638960D01*
X9964587Y-9638960D02*
X9955063Y-9629436D01*
X9955063Y-9629436D02*
X9945539Y-9610389D01*
X9945539Y-9610389D02*
X9936015Y-9572293D01*
X9936015Y-9572293D02*
X9936015Y-9524674D01*
X9936015Y-9524674D02*
X9945539Y-9486579D01*
X9945539Y-9486579D02*
X9955063Y-9467531D01*
X9955063Y-9467531D02*
X9964587Y-9458008D01*
X9964587Y-9458008D02*
X9983634Y-9448484D01*
X10136015Y-9629436D02*
X10145539Y-9638960D01*
X10145539Y-9638960D02*
X10136015Y-9648484D01*
X10136015Y-9648484D02*
X10126491Y-9638960D01*
X10126491Y-9638960D02*
X10136015Y-9629436D01*
X10136015Y-9629436D02*
X10136015Y-9648484D01*
X10336015Y-9648484D02*
X10221729Y-9648484D01*
X10278872Y-9648484D02*
X10278872Y-9448484D01*
X10278872Y-9448484D02*
X10259825Y-9477055D01*
X10259825Y-9477055D02*
X10240777Y-9496103D01*
X10240777Y-9496103D02*
X10221729Y-9505627D01*
X10412206Y-9467531D02*
X10421729Y-9458008D01*
X10421729Y-9458008D02*
X10440777Y-9448484D01*
X10440777Y-9448484D02*
X10488396Y-9448484D01*
X10488396Y-9448484D02*
X10507444Y-9458008D01*
X10507444Y-9458008D02*
X10516968Y-9467531D01*
X10516968Y-9467531D02*
X10526491Y-9486579D01*
X10526491Y-9486579D02*
X10526491Y-9505627D01*
X10526491Y-9505627D02*
X10516968Y-9534198D01*
X10516968Y-9534198D02*
X10402682Y-9648484D01*
X10402682Y-9648484D02*
X10526491Y-9648484D01*
X10697920Y-9448484D02*
X10659825Y-9448484D01*
X10659825Y-9448484D02*
X10640777Y-9458008D01*
X10640777Y-9458008D02*
X10631253Y-9467531D01*
X10631253Y-9467531D02*
X10612206Y-9496103D01*
X10612206Y-9496103D02*
X10602682Y-9534198D01*
X10602682Y-9534198D02*
X10602682Y-9610389D01*
X10602682Y-9610389D02*
X10612206Y-9629436D01*
X10612206Y-9629436D02*
X10621729Y-9638960D01*
X10621729Y-9638960D02*
X10640777Y-9648484D01*
X10640777Y-9648484D02*
X10678872Y-9648484D01*
X10678872Y-9648484D02*
X10697920Y-9638960D01*
X10697920Y-9638960D02*
X10707444Y-9629436D01*
X10707444Y-9629436D02*
X10716968Y-9610389D01*
X10716968Y-9610389D02*
X10716968Y-9562770D01*
X10716968Y-9562770D02*
X10707444Y-9543722D01*
X10707444Y-9543722D02*
X10697920Y-9534198D01*
X10697920Y-9534198D02*
X10678872Y-9524674D01*
X10678872Y-9524674D02*
X10640777Y-9524674D01*
X10640777Y-9524674D02*
X10621729Y-9534198D01*
X10621729Y-9534198D02*
X10612206Y-9543722D01*
X10612206Y-9543722D02*
X10602682Y-9562770D01*
X10840777Y-9448484D02*
X10859825Y-9448484D01*
X10859825Y-9448484D02*
X10878872Y-9458008D01*
X10878872Y-9458008D02*
X10888396Y-9467531D01*
X10888396Y-9467531D02*
X10897920Y-9486579D01*
X10897920Y-9486579D02*
X10907444Y-9524674D01*
X10907444Y-9524674D02*
X10907444Y-9572293D01*
X10907444Y-9572293D02*
X10897920Y-9610389D01*
X10897920Y-9610389D02*
X10888396Y-9629436D01*
X10888396Y-9629436D02*
X10878872Y-9638960D01*
X10878872Y-9638960D02*
X10859825Y-9648484D01*
X10859825Y-9648484D02*
X10840777Y-9648484D01*
X10840777Y-9648484D02*
X10821729Y-9638960D01*
X10821729Y-9638960D02*
X10812206Y-9629436D01*
X10812206Y-9629436D02*
X10802682Y-9610389D01*
X10802682Y-9610389D02*
X10793158Y-9572293D01*
X10793158Y-9572293D02*
X10793158Y-9524674D01*
X10793158Y-9524674D02*
X10802682Y-9486579D01*
X10802682Y-9486579D02*
X10812206Y-9467531D01*
X10812206Y-9467531D02*
X10821729Y-9458008D01*
X10821729Y-9458008D02*
X10840777Y-9448484D01*
X10983634Y-9448484D02*
X10983634Y-9486579D01*
X11059825Y-9448484D02*
X11059825Y-9486579D01*
X11355063Y-9724674D02*
X11345539Y-9715150D01*
X11345539Y-9715150D02*
X11326491Y-9686579D01*
X11326491Y-9686579D02*
X11316968Y-9667531D01*
X11316968Y-9667531D02*
X11307444Y-9638960D01*
X11307444Y-9638960D02*
X11297920Y-9591341D01*
X11297920Y-9591341D02*
X11297920Y-9553246D01*
X11297920Y-9553246D02*
X11307444Y-9505627D01*
X11307444Y-9505627D02*
X11316968Y-9477055D01*
X11316968Y-9477055D02*
X11326491Y-9458008D01*
X11326491Y-9458008D02*
X11345539Y-9429436D01*
X11345539Y-9429436D02*
X11355063Y-9419912D01*
X11412206Y-9448484D02*
X11536015Y-9448484D01*
X11536015Y-9448484D02*
X11469348Y-9524674D01*
X11469348Y-9524674D02*
X11497920Y-9524674D01*
X11497920Y-9524674D02*
X11516968Y-9534198D01*
X11516968Y-9534198D02*
X11526491Y-9543722D01*
X11526491Y-9543722D02*
X11536015Y-9562770D01*
X11536015Y-9562770D02*
X11536015Y-9610389D01*
X11536015Y-9610389D02*
X11526491Y-9629436D01*
X11526491Y-9629436D02*
X11516968Y-9638960D01*
X11516968Y-9638960D02*
X11497920Y-9648484D01*
X11497920Y-9648484D02*
X11440777Y-9648484D01*
X11440777Y-9648484D02*
X11421729Y-9638960D01*
X11421729Y-9638960D02*
X11412206Y-9629436D01*
X11774110Y-9648484D02*
X11774110Y-9448484D01*
X11859825Y-9648484D02*
X11859825Y-9543722D01*
X11859825Y-9543722D02*
X11850301Y-9524674D01*
X11850301Y-9524674D02*
X11831253Y-9515150D01*
X11831253Y-9515150D02*
X11802682Y-9515150D01*
X11802682Y-9515150D02*
X11783634Y-9524674D01*
X11783634Y-9524674D02*
X11774110Y-9534198D01*
X11983634Y-9648484D02*
X11964587Y-9638960D01*
X11964587Y-9638960D02*
X11955063Y-9629436D01*
X11955063Y-9629436D02*
X11945539Y-9610389D01*
X11945539Y-9610389D02*
X11945539Y-9553246D01*
X11945539Y-9553246D02*
X11955063Y-9534198D01*
X11955063Y-9534198D02*
X11964587Y-9524674D01*
X11964587Y-9524674D02*
X11983634Y-9515150D01*
X11983634Y-9515150D02*
X12012206Y-9515150D01*
X12012206Y-9515150D02*
X12031253Y-9524674D01*
X12031253Y-9524674D02*
X12040777Y-9534198D01*
X12040777Y-9534198D02*
X12050301Y-9553246D01*
X12050301Y-9553246D02*
X12050301Y-9610389D01*
X12050301Y-9610389D02*
X12040777Y-9629436D01*
X12040777Y-9629436D02*
X12031253Y-9638960D01*
X12031253Y-9638960D02*
X12012206Y-9648484D01*
X12012206Y-9648484D02*
X11983634Y-9648484D01*
X12164587Y-9648484D02*
X12145539Y-9638960D01*
X12145539Y-9638960D02*
X12136015Y-9619912D01*
X12136015Y-9619912D02*
X12136015Y-9448484D01*
X12316968Y-9638960D02*
X12297920Y-9648484D01*
X12297920Y-9648484D02*
X12259825Y-9648484D01*
X12259825Y-9648484D02*
X12240777Y-9638960D01*
X12240777Y-9638960D02*
X12231253Y-9619912D01*
X12231253Y-9619912D02*
X12231253Y-9543722D01*
X12231253Y-9543722D02*
X12240777Y-9524674D01*
X12240777Y-9524674D02*
X12259825Y-9515150D01*
X12259825Y-9515150D02*
X12297920Y-9515150D01*
X12297920Y-9515150D02*
X12316968Y-9524674D01*
X12316968Y-9524674D02*
X12326491Y-9543722D01*
X12326491Y-9543722D02*
X12326491Y-9562770D01*
X12326491Y-9562770D02*
X12231253Y-9581817D01*
X12402682Y-9638960D02*
X12421730Y-9648484D01*
X12421730Y-9648484D02*
X12459825Y-9648484D01*
X12459825Y-9648484D02*
X12478872Y-9638960D01*
X12478872Y-9638960D02*
X12488396Y-9619912D01*
X12488396Y-9619912D02*
X12488396Y-9610389D01*
X12488396Y-9610389D02*
X12478872Y-9591341D01*
X12478872Y-9591341D02*
X12459825Y-9581817D01*
X12459825Y-9581817D02*
X12431253Y-9581817D01*
X12431253Y-9581817D02*
X12412206Y-9572293D01*
X12412206Y-9572293D02*
X12402682Y-9553246D01*
X12402682Y-9553246D02*
X12402682Y-9543722D01*
X12402682Y-9543722D02*
X12412206Y-9524674D01*
X12412206Y-9524674D02*
X12431253Y-9515150D01*
X12431253Y-9515150D02*
X12459825Y-9515150D01*
X12459825Y-9515150D02*
X12478872Y-9524674D01*
X12555063Y-9724674D02*
X12564587Y-9715150D01*
X12564587Y-9715150D02*
X12583634Y-9686579D01*
X12583634Y-9686579D02*
X12593158Y-9667531D01*
X12593158Y-9667531D02*
X12602682Y-9638960D01*
X12602682Y-9638960D02*
X12612206Y-9591341D01*
X12612206Y-9591341D02*
X12612206Y-9553246D01*
X12612206Y-9553246D02*
X12602682Y-9505627D01*
X12602682Y-9505627D02*
X12593158Y-9477055D01*
X12593158Y-9477055D02*
X12583634Y-9458008D01*
X12583634Y-9458008D02*
X12564587Y-9429436D01*
X12564587Y-9429436D02*
X12555063Y-9419912D01*
M02*
