G04 #@! TF.GenerationSoftware,KiCad,Pcbnew,7.0.8-7.0.8~ubuntu22.04.1*
G04 #@! TF.CreationDate,2024-01-26T15:23:50+01:00*
G04 #@! TF.ProjectId,bogie,626f6769-652e-46b6-9963-61645f706362,rev?*
G04 #@! TF.SameCoordinates,Original*
G04 #@! TF.FileFunction,Copper,L1,Top*
G04 #@! TF.FilePolarity,Positive*
%FSLAX46Y46*%
G04 Gerber Fmt 4.6, Leading zero omitted, Abs format (unit mm)*
G04 Created by KiCad (PCBNEW 7.0.8-7.0.8~ubuntu22.04.1) date 2024-01-26 15:23:50*
%MOMM*%
%LPD*%
G01*
G04 APERTURE LIST*
G04 #@! TA.AperFunction,ComponentPad*
%ADD10C,1.397000*%
G04 #@! TD*
G04 #@! TA.AperFunction,ComponentPad*
%ADD11R,1.700000X1.700000*%
G04 #@! TD*
G04 #@! TA.AperFunction,ComponentPad*
%ADD12O,1.700000X1.700000*%
G04 #@! TD*
G04 #@! TA.AperFunction,ComponentPad*
%ADD13C,1.600200*%
G04 #@! TD*
G04 #@! TA.AperFunction,ComponentPad*
%ADD14C,1.524000*%
G04 #@! TD*
G04 #@! TA.AperFunction,ViaPad*
%ADD15C,0.800000*%
G04 #@! TD*
G04 #@! TA.AperFunction,Conductor*
%ADD16C,0.250000*%
G04 #@! TD*
G04 #@! TA.AperFunction,Conductor*
%ADD17C,1.000000*%
G04 #@! TD*
G04 #@! TA.AperFunction,Conductor*
%ADD18C,3.000000*%
G04 #@! TD*
G04 APERTURE END LIST*
D10*
X94260000Y-74500000D03*
X94260000Y-77040000D03*
X94260000Y-79580000D03*
X94260000Y-82120000D03*
X94260000Y-84660000D03*
X94260000Y-87200000D03*
X94260000Y-89740000D03*
X94260000Y-92280000D03*
X96800000Y-74500000D03*
X96800000Y-77040000D03*
X96800000Y-79580000D03*
X96800000Y-82120000D03*
X96800000Y-84660000D03*
X96800000Y-87200000D03*
X96800000Y-89740000D03*
X96800000Y-92280000D03*
D11*
X94260000Y-27960000D03*
D12*
X96800000Y-27960000D03*
X94260000Y-30500000D03*
X96800000Y-30500000D03*
X94260000Y-33040000D03*
X96800000Y-33040000D03*
X94260000Y-35580000D03*
X96800000Y-35580000D03*
X94260000Y-38120000D03*
X96800000Y-38120000D03*
D11*
X94575000Y-59000000D03*
D12*
X97115000Y-59000000D03*
X99655000Y-59000000D03*
D13*
X108635000Y-30465100D03*
X108635000Y-27925100D03*
D14*
X107760000Y-43400000D03*
X107760000Y-45940000D03*
X107760000Y-48480000D03*
X107760000Y-51020000D03*
X107760000Y-53560000D03*
X107760000Y-56100000D03*
X107760000Y-58640000D03*
X107760000Y-61180000D03*
X107760000Y-63720000D03*
X107760000Y-66260000D03*
X110300000Y-43400000D03*
X110300000Y-45940000D03*
X110300000Y-48480000D03*
X110300000Y-51020000D03*
X110300000Y-53560000D03*
X110300000Y-56100000D03*
X110300000Y-58640000D03*
X110300000Y-61180000D03*
X110300000Y-63720000D03*
X110300000Y-66260000D03*
D15*
X99655000Y-55000000D03*
X123000000Y-52400000D03*
X128900000Y-71500000D03*
X104600000Y-22300000D03*
X106500000Y-89600000D03*
X114300000Y-75000000D03*
X114300000Y-70000000D03*
X96400000Y-47500000D03*
X118900000Y-71500000D03*
X94500000Y-66700000D03*
X123000000Y-42400000D03*
X118000000Y-47400000D03*
X99600000Y-27300000D03*
X101800000Y-44200000D03*
X104600000Y-27300000D03*
X111500000Y-89600000D03*
X118900000Y-66500000D03*
X86400000Y-42500000D03*
X81400000Y-76100000D03*
X91400000Y-42500000D03*
X106500000Y-94600000D03*
X101800000Y-39200000D03*
X128000000Y-47400000D03*
X94500000Y-71700000D03*
X76400000Y-52500000D03*
X128900000Y-66500000D03*
X76400000Y-42500000D03*
X76400000Y-71100000D03*
X101800000Y-49200000D03*
X109300000Y-70000000D03*
X91400000Y-47500000D03*
X111500000Y-94600000D03*
X123900000Y-71500000D03*
X86400000Y-52500000D03*
X76400000Y-76100000D03*
X128000000Y-42400000D03*
X81400000Y-47500000D03*
X123900000Y-66500000D03*
X86400000Y-47500000D03*
X86400000Y-66100000D03*
X118000000Y-42400000D03*
X81400000Y-66100000D03*
X96400000Y-42500000D03*
X128000000Y-52400000D03*
X99500000Y-66700000D03*
X81400000Y-42500000D03*
X109300000Y-75000000D03*
X99600000Y-22300000D03*
X123000000Y-47400000D03*
X81400000Y-71100000D03*
X86400000Y-76100000D03*
X118900000Y-76500000D03*
X81400000Y-52500000D03*
X123900000Y-76500000D03*
X96400000Y-52500000D03*
X91400000Y-52500000D03*
X76400000Y-47500000D03*
X86400000Y-71100000D03*
X99500000Y-71700000D03*
X76400000Y-66100000D03*
X118000000Y-52400000D03*
X128900000Y-76500000D03*
X109975500Y-79925000D03*
X110700000Y-79200000D03*
D16*
X96800000Y-27960000D02*
X99655000Y-30815000D01*
X99655000Y-59000000D02*
X91500000Y-67155000D01*
X99655000Y-30815000D02*
X99655000Y-55000000D01*
X91500000Y-67155000D02*
X91500000Y-89520000D01*
X91500000Y-89520000D02*
X94260000Y-92280000D01*
X99655000Y-55000000D02*
X99655000Y-59000000D01*
D17*
X108635000Y-42525000D02*
X107760000Y-43400000D01*
X108635000Y-30465100D02*
X108635000Y-42525000D01*
X103900000Y-43100000D02*
X106740000Y-45940000D01*
X103900000Y-32660100D02*
X103900000Y-43100000D01*
X108635000Y-27925100D02*
X103900000Y-32660100D01*
X106740000Y-45940000D02*
X107760000Y-45940000D01*
D18*
X103500000Y-58000000D02*
X103500000Y-80600000D01*
X103500000Y-80600000D02*
X101500000Y-82600000D01*
D16*
X111975000Y-79925000D02*
X116800000Y-75100000D01*
X109975500Y-79925000D02*
X111975000Y-79925000D01*
X116800000Y-52440000D02*
X110300000Y-45940000D01*
X116800000Y-75100000D02*
X116800000Y-52440000D01*
X110700000Y-79200000D02*
X110800000Y-79300000D01*
X111963604Y-79300000D02*
X116350000Y-74913604D01*
X110800000Y-79300000D02*
X111963604Y-79300000D01*
X116350000Y-54530000D02*
X110300000Y-48480000D01*
X116350000Y-74913604D02*
X116350000Y-54530000D01*
G04 #@! TA.AperFunction,Conductor*
G36*
X103543039Y-81019685D02*
G01*
X103588794Y-81072489D01*
X103600000Y-81124000D01*
X103600000Y-87748638D01*
X103580315Y-87815677D01*
X103563681Y-87836319D01*
X98136319Y-93263681D01*
X98074996Y-93297166D01*
X98048638Y-93300000D01*
X97517809Y-93300000D01*
X97450770Y-93280315D01*
X97430128Y-93263681D01*
X96883397Y-92716950D01*
X96932499Y-92709550D01*
X97053224Y-92651412D01*
X97151450Y-92560272D01*
X97218447Y-92444228D01*
X97236906Y-92363353D01*
X97807788Y-92934235D01*
X97807789Y-92934235D01*
X97823349Y-92913632D01*
X97823350Y-92913629D01*
X97922350Y-92714813D01*
X97922356Y-92714798D01*
X97983139Y-92501168D01*
X97983140Y-92501166D01*
X98003634Y-92280000D01*
X98003634Y-92279999D01*
X97983140Y-92058833D01*
X97983139Y-92058831D01*
X97922356Y-91845201D01*
X97922350Y-91845186D01*
X97823351Y-91646370D01*
X97823349Y-91646367D01*
X97807788Y-91625762D01*
X97239319Y-92194232D01*
X97238251Y-92179972D01*
X97189297Y-92055240D01*
X97105752Y-91950478D01*
X96995040Y-91874996D01*
X96885300Y-91841145D01*
X97452238Y-91274208D01*
X97336503Y-91202550D01*
X97336504Y-91202550D01*
X97137941Y-91125627D01*
X97082540Y-91083054D01*
X97058949Y-91017287D01*
X97074660Y-90949207D01*
X97124684Y-90900428D01*
X97137941Y-90894373D01*
X97336503Y-90817450D01*
X97336509Y-90817447D01*
X97452237Y-90745791D01*
X97452238Y-90745790D01*
X96883398Y-90176950D01*
X96932499Y-90169550D01*
X97053224Y-90111412D01*
X97151450Y-90020272D01*
X97218447Y-89904228D01*
X97236906Y-89823353D01*
X97807788Y-90394235D01*
X97807789Y-90394235D01*
X97823349Y-90373632D01*
X97823350Y-90373629D01*
X97922350Y-90174813D01*
X97922356Y-90174798D01*
X97983139Y-89961168D01*
X97983140Y-89961166D01*
X98003634Y-89740000D01*
X98003634Y-89739999D01*
X97983140Y-89518833D01*
X97983139Y-89518831D01*
X97922356Y-89305201D01*
X97922350Y-89305186D01*
X97823351Y-89106370D01*
X97823349Y-89106367D01*
X97807788Y-89085762D01*
X97239319Y-89654232D01*
X97238251Y-89639972D01*
X97189297Y-89515240D01*
X97105752Y-89410478D01*
X96995040Y-89334996D01*
X96885301Y-89301145D01*
X97452238Y-88734208D01*
X97336503Y-88662550D01*
X97336504Y-88662550D01*
X97137941Y-88585627D01*
X97082540Y-88543054D01*
X97058949Y-88477287D01*
X97074660Y-88409207D01*
X97124684Y-88360428D01*
X97137941Y-88354373D01*
X97336503Y-88277450D01*
X97336509Y-88277447D01*
X97452237Y-88205791D01*
X97452238Y-88205790D01*
X96883398Y-87636950D01*
X96932499Y-87629550D01*
X97053224Y-87571412D01*
X97151450Y-87480272D01*
X97218447Y-87364228D01*
X97236906Y-87283353D01*
X97807788Y-87854235D01*
X97807789Y-87854235D01*
X97823349Y-87833632D01*
X97823350Y-87833629D01*
X97922350Y-87634813D01*
X97922356Y-87634798D01*
X97983139Y-87421168D01*
X97983140Y-87421166D01*
X98003634Y-87200000D01*
X98003634Y-87199999D01*
X97983140Y-86978833D01*
X97983139Y-86978831D01*
X97922356Y-86765201D01*
X97922350Y-86765186D01*
X97823351Y-86566370D01*
X97823349Y-86566367D01*
X97807788Y-86545762D01*
X97239319Y-87114232D01*
X97238251Y-87099972D01*
X97189297Y-86975240D01*
X97105752Y-86870478D01*
X96995040Y-86794996D01*
X96885301Y-86761145D01*
X97452238Y-86194208D01*
X97336503Y-86122550D01*
X97336504Y-86122550D01*
X97137941Y-86045627D01*
X97082540Y-86003054D01*
X97058949Y-85937287D01*
X97074660Y-85869207D01*
X97124684Y-85820428D01*
X97137941Y-85814373D01*
X97336503Y-85737450D01*
X97336509Y-85737447D01*
X97452237Y-85665791D01*
X97452238Y-85665790D01*
X96883398Y-85096950D01*
X96932499Y-85089550D01*
X97053224Y-85031412D01*
X97151450Y-84940272D01*
X97218447Y-84824228D01*
X97236906Y-84743353D01*
X97807788Y-85314235D01*
X97807789Y-85314235D01*
X97823349Y-85293632D01*
X97823350Y-85293629D01*
X97922350Y-85094813D01*
X97922356Y-85094798D01*
X97983139Y-84881168D01*
X97983140Y-84881166D01*
X98003634Y-84660000D01*
X98003634Y-84659999D01*
X97983140Y-84438833D01*
X97983139Y-84438831D01*
X97922356Y-84225201D01*
X97922350Y-84225186D01*
X97823351Y-84026370D01*
X97823349Y-84026367D01*
X97807788Y-84005762D01*
X97239319Y-84574232D01*
X97238251Y-84559972D01*
X97189297Y-84435240D01*
X97105752Y-84330478D01*
X96995040Y-84254996D01*
X96885301Y-84221145D01*
X97452238Y-83654208D01*
X97336503Y-83582550D01*
X97336504Y-83582550D01*
X97137941Y-83505627D01*
X97082540Y-83463054D01*
X97058949Y-83397287D01*
X97074660Y-83329207D01*
X97124684Y-83280428D01*
X97137941Y-83274373D01*
X97336503Y-83197450D01*
X97336509Y-83197447D01*
X97452237Y-83125791D01*
X97452238Y-83125790D01*
X96883398Y-82556950D01*
X96932499Y-82549550D01*
X97053224Y-82491412D01*
X97151450Y-82400272D01*
X97218447Y-82284228D01*
X97236906Y-82203353D01*
X97807788Y-82774235D01*
X97807789Y-82774235D01*
X97823349Y-82753632D01*
X97823350Y-82753629D01*
X97922350Y-82554813D01*
X97922356Y-82554798D01*
X97983139Y-82341168D01*
X97983140Y-82341166D01*
X98003634Y-82120000D01*
X98003634Y-82119999D01*
X97983140Y-81898833D01*
X97983139Y-81898831D01*
X97922356Y-81685201D01*
X97922350Y-81685186D01*
X97823351Y-81486370D01*
X97823349Y-81486367D01*
X97807788Y-81465762D01*
X97239319Y-82034232D01*
X97238251Y-82019972D01*
X97189297Y-81895240D01*
X97105752Y-81790478D01*
X96995040Y-81714996D01*
X96885301Y-81681145D01*
X97460605Y-81105841D01*
X97466860Y-81069429D01*
X97514039Y-81017894D01*
X97578206Y-81000000D01*
X103476000Y-81000000D01*
X103543039Y-81019685D01*
G37*
G04 #@! TD.AperFunction*
G04 #@! TA.AperFunction,Conductor*
G36*
X95267788Y-90394235D02*
G01*
X95280972Y-90393320D01*
X95305238Y-90375313D01*
X95314434Y-90311363D01*
X95316228Y-90307604D01*
X95382350Y-90174813D01*
X95382352Y-90174808D01*
X95410472Y-90075976D01*
X95447751Y-90016883D01*
X95511061Y-89987325D01*
X95580301Y-89996687D01*
X95633487Y-90041996D01*
X95649005Y-90075975D01*
X95677175Y-90174982D01*
X95678794Y-90179160D01*
X95684651Y-90248784D01*
X95651937Y-90310522D01*
X95644367Y-90317659D01*
X95588656Y-90365933D01*
X95588653Y-90365936D01*
X95520940Y-90444080D01*
X95471845Y-90475630D01*
X95467503Y-90532961D01*
X95464299Y-90540650D01*
X95434663Y-90605543D01*
X95414978Y-90672581D01*
X95414976Y-90672586D01*
X95394500Y-90815007D01*
X95394500Y-91204994D01*
X95405166Y-91308286D01*
X95405169Y-91308302D01*
X95415522Y-91357899D01*
X95415526Y-91357911D01*
X95449391Y-91464104D01*
X95447222Y-91464795D01*
X95455731Y-91522710D01*
X95447128Y-91541699D01*
X95460797Y-91541240D01*
X95520811Y-91577019D01*
X95524932Y-91581694D01*
X95529317Y-91586930D01*
X95567677Y-91632733D01*
X95567678Y-91632734D01*
X95646172Y-91703093D01*
X95682953Y-91762497D01*
X95681779Y-91832357D01*
X95679034Y-91840219D01*
X95677174Y-91845019D01*
X95649265Y-91943109D01*
X95611986Y-92002202D01*
X95548676Y-92031759D01*
X95479436Y-92022397D01*
X95426250Y-91977087D01*
X95410736Y-91943117D01*
X95382824Y-91845016D01*
X95380435Y-91840219D01*
X95318879Y-91716596D01*
X95306618Y-91647810D01*
X95316343Y-91624468D01*
X95298370Y-91624524D01*
X95239476Y-91586930D01*
X95233985Y-91580167D01*
X95149866Y-91468775D01*
X94985655Y-91319078D01*
X94985653Y-91319076D01*
X94796733Y-91202102D01*
X94796727Y-91202099D01*
X94650099Y-91145295D01*
X94598633Y-91125357D01*
X94543232Y-91082785D01*
X94519642Y-91017018D01*
X94535353Y-90948938D01*
X94585377Y-90900159D01*
X94598635Y-90894104D01*
X94796500Y-90817451D01*
X94796509Y-90817447D01*
X94912237Y-90745791D01*
X94912238Y-90745790D01*
X94343397Y-90176950D01*
X94392499Y-90169550D01*
X94513224Y-90111412D01*
X94611450Y-90020272D01*
X94678447Y-89904228D01*
X94696906Y-89823353D01*
X95267788Y-90394235D01*
G37*
G04 #@! TD.AperFunction*
G04 #@! TA.AperFunction,Conductor*
G36*
X101056785Y-59524579D02*
G01*
X101102120Y-59577744D01*
X101110087Y-59601999D01*
X101117261Y-59634976D01*
X101151383Y-59737497D01*
X101151386Y-59737503D01*
X101229171Y-59858537D01*
X101229179Y-59858548D01*
X101274923Y-59911340D01*
X101274926Y-59911343D01*
X101274930Y-59911347D01*
X101383664Y-60005567D01*
X101427013Y-60025364D01*
X101479815Y-60071117D01*
X101499500Y-60138156D01*
X101499500Y-79720004D01*
X101479815Y-79787043D01*
X101463181Y-79807685D01*
X100812685Y-80458181D01*
X100751362Y-80491666D01*
X100725004Y-80494500D01*
X97860274Y-80494500D01*
X97793235Y-80474815D01*
X97747480Y-80422011D01*
X97737536Y-80352853D01*
X97761320Y-80295773D01*
X97823349Y-80213632D01*
X97922350Y-80014813D01*
X97922356Y-80014798D01*
X97983139Y-79801168D01*
X97983140Y-79801166D01*
X98003634Y-79580000D01*
X98003634Y-79579999D01*
X97983140Y-79358833D01*
X97983139Y-79358831D01*
X97922356Y-79145201D01*
X97922350Y-79145186D01*
X97823351Y-78946370D01*
X97823349Y-78946367D01*
X97807788Y-78925762D01*
X97239319Y-79494232D01*
X97238251Y-79479972D01*
X97189297Y-79355240D01*
X97105752Y-79250478D01*
X96995040Y-79174996D01*
X96885301Y-79141145D01*
X97452238Y-78574208D01*
X97336503Y-78502550D01*
X97336504Y-78502550D01*
X97137941Y-78425627D01*
X97082540Y-78383054D01*
X97058949Y-78317287D01*
X97074660Y-78249207D01*
X97124684Y-78200428D01*
X97137941Y-78194373D01*
X97336503Y-78117450D01*
X97336509Y-78117447D01*
X97452237Y-78045791D01*
X97452238Y-78045790D01*
X96883398Y-77476950D01*
X96932499Y-77469550D01*
X97053224Y-77411412D01*
X97151450Y-77320272D01*
X97218447Y-77204228D01*
X97236906Y-77123353D01*
X97807788Y-77694235D01*
X97807789Y-77694235D01*
X97823349Y-77673632D01*
X97823350Y-77673629D01*
X97922350Y-77474813D01*
X97922356Y-77474798D01*
X97983139Y-77261168D01*
X97983140Y-77261166D01*
X98003634Y-77040000D01*
X98003634Y-77039999D01*
X97983140Y-76818833D01*
X97983139Y-76818831D01*
X97922356Y-76605201D01*
X97922350Y-76605186D01*
X97823351Y-76406370D01*
X97823349Y-76406367D01*
X97807788Y-76385762D01*
X97239319Y-76954232D01*
X97238251Y-76939972D01*
X97189297Y-76815240D01*
X97105752Y-76710478D01*
X96995040Y-76634996D01*
X96885301Y-76601145D01*
X97452238Y-76034208D01*
X97336503Y-75962550D01*
X97336504Y-75962550D01*
X97137941Y-75885627D01*
X97082540Y-75843054D01*
X97058949Y-75777287D01*
X97074660Y-75709207D01*
X97124684Y-75660428D01*
X97137941Y-75654373D01*
X97336503Y-75577450D01*
X97336509Y-75577447D01*
X97452237Y-75505791D01*
X97452238Y-75505790D01*
X96883398Y-74936950D01*
X96932499Y-74929550D01*
X97053224Y-74871412D01*
X97151450Y-74780272D01*
X97218447Y-74664228D01*
X97236906Y-74583353D01*
X97807788Y-75154235D01*
X97807789Y-75154235D01*
X97823349Y-75133632D01*
X97823350Y-75133629D01*
X97922350Y-74934813D01*
X97922356Y-74934798D01*
X97983139Y-74721168D01*
X97983140Y-74721166D01*
X98003634Y-74500000D01*
X98003634Y-74499999D01*
X97983140Y-74278833D01*
X97983139Y-74278831D01*
X97922356Y-74065201D01*
X97922350Y-74065186D01*
X97823351Y-73866370D01*
X97823349Y-73866367D01*
X97807788Y-73845762D01*
X97239319Y-74414232D01*
X97238251Y-74399972D01*
X97189297Y-74275240D01*
X97105752Y-74170478D01*
X96995040Y-74094996D01*
X96885301Y-74061145D01*
X97452238Y-73494208D01*
X97336503Y-73422550D01*
X97336504Y-73422550D01*
X97129392Y-73342315D01*
X96911055Y-73301500D01*
X96688945Y-73301500D01*
X96470607Y-73342315D01*
X96263497Y-73422549D01*
X96263494Y-73422551D01*
X96147760Y-73494208D01*
X96716602Y-74063049D01*
X96667501Y-74070450D01*
X96546776Y-74128588D01*
X96448550Y-74219728D01*
X96381553Y-74335772D01*
X96363093Y-74416645D01*
X95792210Y-73845762D01*
X95776651Y-73866367D01*
X95776646Y-73866374D01*
X95677649Y-74065186D01*
X95677644Y-74065199D01*
X95649266Y-74164939D01*
X95611987Y-74224032D01*
X95548677Y-74253589D01*
X95479437Y-74244227D01*
X95426251Y-74198917D01*
X95410734Y-74164939D01*
X95382355Y-74065199D01*
X95382350Y-74065186D01*
X95283351Y-73866370D01*
X95283349Y-73866367D01*
X95267788Y-73845762D01*
X94699319Y-74414232D01*
X94698251Y-74399972D01*
X94649297Y-74275240D01*
X94565752Y-74170478D01*
X94455040Y-74094996D01*
X94345301Y-74061145D01*
X94912238Y-73494208D01*
X94796503Y-73422550D01*
X94796504Y-73422550D01*
X94589392Y-73342315D01*
X94371055Y-73301500D01*
X94148945Y-73301500D01*
X93930607Y-73342315D01*
X93723497Y-73422549D01*
X93723494Y-73422551D01*
X93607760Y-73494208D01*
X94176602Y-74063049D01*
X94127501Y-74070450D01*
X94006776Y-74128588D01*
X93908550Y-74219728D01*
X93841553Y-74335772D01*
X93823093Y-74416645D01*
X93252210Y-73845762D01*
X93236651Y-73866367D01*
X93236646Y-73866374D01*
X93137649Y-74065186D01*
X93137643Y-74065201D01*
X93076860Y-74278831D01*
X93076859Y-74278833D01*
X93056366Y-74499999D01*
X93056366Y-74500000D01*
X93076859Y-74721166D01*
X93076860Y-74721168D01*
X93137643Y-74934798D01*
X93137649Y-74934813D01*
X93236646Y-75133626D01*
X93236651Y-75133634D01*
X93252209Y-75154235D01*
X93820680Y-74585766D01*
X93821749Y-74600028D01*
X93870703Y-74724760D01*
X93954248Y-74829522D01*
X94064960Y-74905004D01*
X94174698Y-74938854D01*
X93607760Y-75505790D01*
X93607761Y-75505791D01*
X93723488Y-75577445D01*
X93723495Y-75577449D01*
X93921365Y-75654104D01*
X93976766Y-75696677D01*
X94000357Y-75762444D01*
X93984646Y-75830524D01*
X93934622Y-75879303D01*
X93921365Y-75885357D01*
X93723281Y-75962095D01*
X93723266Y-75962102D01*
X93534346Y-76079076D01*
X93534344Y-76079078D01*
X93370133Y-76228775D01*
X93236222Y-76406103D01*
X93137180Y-76605005D01*
X93137174Y-76605020D01*
X93076366Y-76818738D01*
X93076365Y-76818740D01*
X93055863Y-77039999D01*
X93055863Y-77040000D01*
X93076365Y-77261259D01*
X93076366Y-77261261D01*
X93137174Y-77474979D01*
X93137180Y-77474994D01*
X93236222Y-77673896D01*
X93370133Y-77851224D01*
X93534344Y-78000921D01*
X93534346Y-78000923D01*
X93723266Y-78117897D01*
X93723272Y-78117900D01*
X93765693Y-78134333D01*
X93920675Y-78194374D01*
X93976074Y-78236946D01*
X93999665Y-78302713D01*
X93983954Y-78370793D01*
X93933930Y-78419572D01*
X93920684Y-78425621D01*
X93841371Y-78456348D01*
X93723272Y-78502099D01*
X93723266Y-78502102D01*
X93534346Y-78619076D01*
X93534344Y-78619078D01*
X93370133Y-78768775D01*
X93236222Y-78946103D01*
X93137180Y-79145005D01*
X93137174Y-79145020D01*
X93076366Y-79358738D01*
X93076365Y-79358740D01*
X93055863Y-79579999D01*
X93055863Y-79580000D01*
X93076365Y-79801259D01*
X93076366Y-79801261D01*
X93137174Y-80014979D01*
X93137180Y-80014994D01*
X93236222Y-80213896D01*
X93370133Y-80391224D01*
X93493423Y-80503617D01*
X93531329Y-80538173D01*
X93534344Y-80540921D01*
X93534346Y-80540923D01*
X93723266Y-80657897D01*
X93723272Y-80657900D01*
X93765693Y-80674333D01*
X93920675Y-80734374D01*
X93976074Y-80776946D01*
X93999665Y-80842713D01*
X93983954Y-80910793D01*
X93933930Y-80959572D01*
X93920684Y-80965621D01*
X93841371Y-80996348D01*
X93723272Y-81042099D01*
X93723266Y-81042102D01*
X93534346Y-81159076D01*
X93534344Y-81159078D01*
X93370133Y-81308775D01*
X93236222Y-81486103D01*
X93137180Y-81685005D01*
X93137174Y-81685020D01*
X93076366Y-81898738D01*
X93076365Y-81898740D01*
X93055863Y-82119999D01*
X93055863Y-82120000D01*
X93076365Y-82341259D01*
X93076366Y-82341261D01*
X93137174Y-82554979D01*
X93137180Y-82554994D01*
X93236222Y-82753896D01*
X93370133Y-82931224D01*
X93534344Y-83080921D01*
X93534346Y-83080923D01*
X93723266Y-83197897D01*
X93723272Y-83197900D01*
X93765693Y-83214333D01*
X93920675Y-83274374D01*
X93976074Y-83316946D01*
X93999665Y-83382713D01*
X93983954Y-83450793D01*
X93933930Y-83499572D01*
X93920684Y-83505621D01*
X93841371Y-83536348D01*
X93723272Y-83582099D01*
X93723266Y-83582102D01*
X93534346Y-83699076D01*
X93534344Y-83699078D01*
X93370133Y-83848775D01*
X93236222Y-84026103D01*
X93137180Y-84225005D01*
X93137174Y-84225020D01*
X93076366Y-84438738D01*
X93076365Y-84438740D01*
X93055863Y-84659999D01*
X93055863Y-84660000D01*
X93076365Y-84881259D01*
X93076366Y-84881261D01*
X93137174Y-85094979D01*
X93137180Y-85094994D01*
X93236222Y-85293896D01*
X93370133Y-85471224D01*
X93534344Y-85620921D01*
X93534346Y-85620923D01*
X93723266Y-85737897D01*
X93723272Y-85737900D01*
X93765693Y-85754333D01*
X93920675Y-85814374D01*
X93976074Y-85856946D01*
X93999665Y-85922713D01*
X93983954Y-85990793D01*
X93933930Y-86039572D01*
X93920684Y-86045621D01*
X93841371Y-86076348D01*
X93723272Y-86122099D01*
X93723266Y-86122102D01*
X93534346Y-86239076D01*
X93534344Y-86239078D01*
X93370133Y-86388775D01*
X93236222Y-86566103D01*
X93137180Y-86765005D01*
X93137174Y-86765020D01*
X93076366Y-86978738D01*
X93076365Y-86978740D01*
X93055863Y-87199999D01*
X93055863Y-87200000D01*
X93076365Y-87421259D01*
X93076366Y-87421261D01*
X93137174Y-87634979D01*
X93137180Y-87634994D01*
X93236222Y-87833896D01*
X93370133Y-88011224D01*
X93534344Y-88160921D01*
X93534346Y-88160923D01*
X93723266Y-88277897D01*
X93723272Y-88277900D01*
X93762684Y-88293168D01*
X93921367Y-88354642D01*
X93976766Y-88397214D01*
X94000357Y-88462981D01*
X93984646Y-88531061D01*
X93934622Y-88579840D01*
X93921365Y-88585894D01*
X93723506Y-88662545D01*
X93723494Y-88662551D01*
X93607760Y-88734208D01*
X94176602Y-89303049D01*
X94127501Y-89310450D01*
X94006776Y-89368588D01*
X93908550Y-89459728D01*
X93841553Y-89575772D01*
X93823093Y-89656646D01*
X93252210Y-89085762D01*
X93236651Y-89106367D01*
X93236646Y-89106374D01*
X93137649Y-89305186D01*
X93137643Y-89305201D01*
X93076860Y-89518831D01*
X93076859Y-89518833D01*
X93056366Y-89739999D01*
X93056366Y-89740001D01*
X93070816Y-89895951D01*
X93057401Y-89964521D01*
X93009043Y-90014953D01*
X92941097Y-90031235D01*
X92875135Y-90008197D01*
X92859664Y-89995073D01*
X92161819Y-89297228D01*
X92128334Y-89235905D01*
X92125500Y-89209547D01*
X92125500Y-67465451D01*
X92145185Y-67398412D01*
X92161814Y-67377775D01*
X99199353Y-60340235D01*
X99260674Y-60306752D01*
X99319125Y-60308143D01*
X99353780Y-60317428D01*
X99419592Y-60335063D01*
X99590319Y-60350000D01*
X99654999Y-60355659D01*
X99655000Y-60355659D01*
X99655001Y-60355659D01*
X99719681Y-60350000D01*
X99890408Y-60335063D01*
X100118663Y-60273903D01*
X100332830Y-60174035D01*
X100526401Y-60038495D01*
X100693495Y-59871401D01*
X100829035Y-59677830D01*
X100876540Y-59575954D01*
X100922711Y-59523516D01*
X100989904Y-59504364D01*
X101056785Y-59524579D01*
G37*
G04 #@! TD.AperFunction*
G04 #@! TA.AperFunction,Conductor*
G36*
X95580562Y-87457601D02*
G01*
X95633749Y-87502911D01*
X95649265Y-87536888D01*
X95677176Y-87634984D01*
X95677178Y-87634988D01*
X95678794Y-87639160D01*
X95684651Y-87708784D01*
X95651937Y-87770522D01*
X95644367Y-87777659D01*
X95588656Y-87825933D01*
X95522255Y-87902562D01*
X95471053Y-87935466D01*
X95466539Y-87995073D01*
X95463334Y-88002764D01*
X95434664Y-88065540D01*
X95414978Y-88132581D01*
X95414976Y-88132586D01*
X95394500Y-88275007D01*
X95394500Y-88664994D01*
X95405166Y-88768286D01*
X95405169Y-88768302D01*
X95415522Y-88817899D01*
X95415526Y-88817911D01*
X95449391Y-88924104D01*
X95447863Y-88924591D01*
X95456714Y-88984854D01*
X95449891Y-88999914D01*
X95459418Y-88999594D01*
X95519432Y-89035373D01*
X95523564Y-89040062D01*
X95567670Y-89092725D01*
X95567678Y-89092734D01*
X95646172Y-89163093D01*
X95682953Y-89222497D01*
X95681779Y-89292357D01*
X95679034Y-89300219D01*
X95677174Y-89305019D01*
X95649005Y-89404023D01*
X95611726Y-89463116D01*
X95548416Y-89492673D01*
X95479176Y-89483311D01*
X95425990Y-89438001D01*
X95410473Y-89404022D01*
X95382356Y-89305201D01*
X95382350Y-89305186D01*
X95317500Y-89174950D01*
X95305239Y-89106164D01*
X95312448Y-89088861D01*
X95267788Y-89085762D01*
X94699319Y-89654232D01*
X94698251Y-89639972D01*
X94649297Y-89515240D01*
X94565752Y-89410478D01*
X94455040Y-89334996D01*
X94345301Y-89301145D01*
X94912238Y-88734208D01*
X94796503Y-88662550D01*
X94796495Y-88662546D01*
X94598634Y-88585894D01*
X94543232Y-88543322D01*
X94519642Y-88477555D01*
X94535353Y-88409474D01*
X94585377Y-88360696D01*
X94598615Y-88354649D01*
X94796730Y-88277899D01*
X94985655Y-88160922D01*
X95149868Y-88011222D01*
X95251586Y-87876524D01*
X95306241Y-87835967D01*
X95315749Y-87769845D01*
X95317543Y-87766086D01*
X95382819Y-87634994D01*
X95382818Y-87634994D01*
X95382824Y-87634984D01*
X95410734Y-87536889D01*
X95448013Y-87477796D01*
X95511323Y-87448239D01*
X95580562Y-87457601D01*
G37*
G04 #@! TD.AperFunction*
G04 #@! TA.AperFunction,Conductor*
G36*
X96361749Y-79680028D02*
G01*
X96410703Y-79804760D01*
X96494248Y-79909522D01*
X96604960Y-79985004D01*
X96714698Y-80018854D01*
X96147760Y-80585790D01*
X96147761Y-80585791D01*
X96263488Y-80657445D01*
X96263495Y-80657449D01*
X96461365Y-80734104D01*
X96516766Y-80776677D01*
X96540357Y-80842444D01*
X96524646Y-80910524D01*
X96474622Y-80959303D01*
X96461365Y-80965357D01*
X96263281Y-81042095D01*
X96263266Y-81042102D01*
X96074346Y-81159076D01*
X96074344Y-81159078D01*
X95910133Y-81308775D01*
X95776222Y-81486103D01*
X95677180Y-81685005D01*
X95677174Y-81685020D01*
X95649266Y-81783109D01*
X95611987Y-81842203D01*
X95548677Y-81871760D01*
X95479438Y-81862398D01*
X95426251Y-81817088D01*
X95410734Y-81783109D01*
X95382825Y-81685020D01*
X95382824Y-81685016D01*
X95350243Y-81619585D01*
X95288718Y-81496025D01*
X95283778Y-81486104D01*
X95194681Y-81368120D01*
X95149866Y-81308775D01*
X94985655Y-81159078D01*
X94985653Y-81159076D01*
X94796733Y-81042102D01*
X94796727Y-81042100D01*
X94599322Y-80965624D01*
X94543925Y-80923054D01*
X94520334Y-80857287D01*
X94536045Y-80789207D01*
X94586069Y-80740428D01*
X94599308Y-80734380D01*
X94796730Y-80657899D01*
X94985655Y-80540922D01*
X95137930Y-80402105D01*
X95149866Y-80391224D01*
X95154873Y-80384594D01*
X95283778Y-80213896D01*
X95382824Y-80014984D01*
X95410994Y-79915975D01*
X95448273Y-79856883D01*
X95511583Y-79827325D01*
X95580822Y-79836687D01*
X95634009Y-79881997D01*
X95649526Y-79915975D01*
X95677644Y-80014800D01*
X95677649Y-80014813D01*
X95776646Y-80213626D01*
X95776651Y-80213634D01*
X95792209Y-80234235D01*
X96360680Y-79665766D01*
X96361749Y-79680028D01*
G37*
G04 #@! TD.AperFunction*
G04 #@! TA.AperFunction,Conductor*
G36*
X96361749Y-77140028D02*
G01*
X96410703Y-77264760D01*
X96494248Y-77369522D01*
X96604960Y-77445004D01*
X96714698Y-77478854D01*
X96147760Y-78045790D01*
X96147761Y-78045791D01*
X96263488Y-78117445D01*
X96263495Y-78117449D01*
X96462058Y-78194373D01*
X96517460Y-78236946D01*
X96541050Y-78302713D01*
X96525339Y-78370794D01*
X96475315Y-78419572D01*
X96462058Y-78425627D01*
X96263497Y-78502549D01*
X96263494Y-78502551D01*
X96147760Y-78574208D01*
X96716602Y-79143049D01*
X96667501Y-79150450D01*
X96546776Y-79208588D01*
X96448550Y-79299728D01*
X96381553Y-79415772D01*
X96363093Y-79496645D01*
X95792210Y-78925762D01*
X95776651Y-78946367D01*
X95776646Y-78946374D01*
X95677649Y-79145186D01*
X95677644Y-79145199D01*
X95649526Y-79244024D01*
X95612246Y-79303117D01*
X95548937Y-79332674D01*
X95479697Y-79323312D01*
X95426511Y-79278002D01*
X95410994Y-79244023D01*
X95384370Y-79150450D01*
X95382824Y-79145016D01*
X95380750Y-79140851D01*
X95283910Y-78946370D01*
X95283778Y-78946104D01*
X95197399Y-78831719D01*
X95149866Y-78768775D01*
X94985655Y-78619078D01*
X94985653Y-78619076D01*
X94796733Y-78502102D01*
X94796727Y-78502100D01*
X94599322Y-78425624D01*
X94543925Y-78383054D01*
X94520334Y-78317287D01*
X94536045Y-78249207D01*
X94586069Y-78200428D01*
X94599308Y-78194380D01*
X94796730Y-78117899D01*
X94985655Y-78000922D01*
X95149868Y-77851222D01*
X95283778Y-77673896D01*
X95382824Y-77474984D01*
X95410994Y-77375975D01*
X95448273Y-77316883D01*
X95511583Y-77287325D01*
X95580822Y-77296687D01*
X95634009Y-77341997D01*
X95649526Y-77375975D01*
X95677644Y-77474800D01*
X95677649Y-77474813D01*
X95776646Y-77673626D01*
X95776651Y-77673634D01*
X95792209Y-77694235D01*
X96360680Y-77125766D01*
X96361749Y-77140028D01*
G37*
G04 #@! TD.AperFunction*
G04 #@! TA.AperFunction,Conductor*
G36*
X95267788Y-75154235D02*
G01*
X95267789Y-75154235D01*
X95283349Y-75133632D01*
X95283350Y-75133629D01*
X95382350Y-74934813D01*
X95382356Y-74934798D01*
X95410734Y-74835061D01*
X95448013Y-74775967D01*
X95511323Y-74746410D01*
X95580562Y-74755772D01*
X95633749Y-74801082D01*
X95649266Y-74835061D01*
X95677643Y-74934798D01*
X95677649Y-74934813D01*
X95776646Y-75133626D01*
X95776651Y-75133634D01*
X95792209Y-75154235D01*
X96360680Y-74585766D01*
X96361749Y-74600028D01*
X96410703Y-74724760D01*
X96494248Y-74829522D01*
X96604960Y-74905004D01*
X96714698Y-74938854D01*
X96147760Y-75505790D01*
X96147761Y-75505791D01*
X96263488Y-75577445D01*
X96263495Y-75577449D01*
X96462058Y-75654373D01*
X96517460Y-75696946D01*
X96541050Y-75762713D01*
X96525339Y-75830794D01*
X96475315Y-75879572D01*
X96462058Y-75885627D01*
X96263497Y-75962549D01*
X96263494Y-75962551D01*
X96147760Y-76034208D01*
X96716602Y-76603049D01*
X96667501Y-76610450D01*
X96546776Y-76668588D01*
X96448550Y-76759728D01*
X96381553Y-76875772D01*
X96363093Y-76956645D01*
X95792210Y-76385762D01*
X95776651Y-76406367D01*
X95776646Y-76406374D01*
X95677649Y-76605186D01*
X95677644Y-76605199D01*
X95649526Y-76704024D01*
X95612246Y-76763117D01*
X95548937Y-76792674D01*
X95479697Y-76783312D01*
X95426511Y-76738002D01*
X95410994Y-76704023D01*
X95384370Y-76610450D01*
X95382824Y-76605016D01*
X95283778Y-76406104D01*
X95149868Y-76228778D01*
X95149866Y-76228775D01*
X94985655Y-76079078D01*
X94985653Y-76079076D01*
X94796733Y-75962102D01*
X94796727Y-75962099D01*
X94650099Y-75905295D01*
X94598633Y-75885357D01*
X94543232Y-75842785D01*
X94519642Y-75777018D01*
X94535353Y-75708938D01*
X94585377Y-75660159D01*
X94598635Y-75654104D01*
X94796500Y-75577451D01*
X94796509Y-75577447D01*
X94912237Y-75505791D01*
X94912238Y-75505790D01*
X94343398Y-74936950D01*
X94392499Y-74929550D01*
X94513224Y-74871412D01*
X94611450Y-74780272D01*
X94678447Y-74664228D01*
X94696906Y-74583353D01*
X95267788Y-75154235D01*
G37*
G04 #@! TD.AperFunction*
G04 #@! TA.AperFunction,Conductor*
G36*
X108811740Y-64418187D02*
G01*
X108811742Y-64418186D01*
X108857093Y-64353420D01*
X108857100Y-64353408D01*
X108917342Y-64224219D01*
X108963514Y-64171779D01*
X109030707Y-64152627D01*
X109097588Y-64172842D01*
X109142106Y-64224219D01*
X109202464Y-64353658D01*
X109202468Y-64353666D01*
X109329170Y-64534615D01*
X109329175Y-64534621D01*
X109485378Y-64690824D01*
X109485384Y-64690829D01*
X109666333Y-64817531D01*
X109666335Y-64817532D01*
X109666338Y-64817534D01*
X109785748Y-64873215D01*
X109795189Y-64877618D01*
X109847628Y-64923790D01*
X109866780Y-64990984D01*
X109846564Y-65057865D01*
X109795189Y-65102382D01*
X109666340Y-65162465D01*
X109666338Y-65162466D01*
X109485377Y-65289175D01*
X109329175Y-65445377D01*
X109202467Y-65626337D01*
X109202466Y-65626339D01*
X109202348Y-65626593D01*
X109142105Y-65755782D01*
X109095932Y-65808221D01*
X109028738Y-65827372D01*
X108961857Y-65807156D01*
X108917341Y-65755780D01*
X108857100Y-65626593D01*
X108857099Y-65626591D01*
X108811740Y-65561811D01*
X108249521Y-66124029D01*
X108226845Y-66046799D01*
X108147869Y-65923910D01*
X108037470Y-65828248D01*
X107904592Y-65767565D01*
X107899599Y-65766847D01*
X108458187Y-65208258D01*
X108393409Y-65162900D01*
X108393407Y-65162899D01*
X108263627Y-65102382D01*
X108211187Y-65056210D01*
X108192035Y-64989017D01*
X108212251Y-64922135D01*
X108263627Y-64877618D01*
X108393408Y-64817100D01*
X108393420Y-64817093D01*
X108458186Y-64771742D01*
X108458187Y-64771740D01*
X107899600Y-64213152D01*
X107904592Y-64212435D01*
X108037470Y-64151752D01*
X108147869Y-64056090D01*
X108226845Y-63933201D01*
X108249522Y-63855969D01*
X108811740Y-64418187D01*
G37*
G04 #@! TD.AperFunction*
G04 #@! TA.AperFunction,Conductor*
G36*
X108811740Y-61878187D02*
G01*
X108811742Y-61878186D01*
X108857093Y-61813420D01*
X108857100Y-61813408D01*
X108917342Y-61684219D01*
X108963514Y-61631779D01*
X109030707Y-61612627D01*
X109097588Y-61632842D01*
X109142106Y-61684219D01*
X109202464Y-61813658D01*
X109202468Y-61813666D01*
X109329170Y-61994615D01*
X109329175Y-61994621D01*
X109485378Y-62150824D01*
X109485384Y-62150829D01*
X109666333Y-62277531D01*
X109666335Y-62277532D01*
X109666338Y-62277534D01*
X109785748Y-62333215D01*
X109795189Y-62337618D01*
X109847628Y-62383790D01*
X109866780Y-62450984D01*
X109846564Y-62517865D01*
X109795189Y-62562382D01*
X109666340Y-62622465D01*
X109666338Y-62622466D01*
X109485377Y-62749175D01*
X109329175Y-62905377D01*
X109202467Y-63086337D01*
X109202466Y-63086339D01*
X109202348Y-63086593D01*
X109142105Y-63215782D01*
X109095932Y-63268221D01*
X109028738Y-63287372D01*
X108961857Y-63267156D01*
X108917341Y-63215780D01*
X108857100Y-63086593D01*
X108857099Y-63086591D01*
X108811740Y-63021811D01*
X108249521Y-63584029D01*
X108226845Y-63506799D01*
X108147869Y-63383910D01*
X108037470Y-63288248D01*
X107904592Y-63227565D01*
X107899599Y-63226847D01*
X108458187Y-62668258D01*
X108393409Y-62622900D01*
X108393407Y-62622899D01*
X108263627Y-62562382D01*
X108211187Y-62516210D01*
X108192035Y-62449017D01*
X108212251Y-62382135D01*
X108263627Y-62337618D01*
X108393408Y-62277100D01*
X108393420Y-62277093D01*
X108458186Y-62231742D01*
X108458187Y-62231740D01*
X107899600Y-61673152D01*
X107904592Y-61672435D01*
X108037470Y-61611752D01*
X108147869Y-61516090D01*
X108226845Y-61393201D01*
X108249522Y-61315969D01*
X108811740Y-61878187D01*
G37*
G04 #@! TD.AperFunction*
G04 #@! TA.AperFunction,Conductor*
G36*
X109097865Y-59093435D02*
G01*
X109142382Y-59144811D01*
X109202464Y-59273658D01*
X109202468Y-59273666D01*
X109329170Y-59454615D01*
X109329175Y-59454621D01*
X109485378Y-59610824D01*
X109485384Y-59610829D01*
X109666333Y-59737531D01*
X109666335Y-59737532D01*
X109666338Y-59737534D01*
X109785748Y-59793215D01*
X109795189Y-59797618D01*
X109847628Y-59843790D01*
X109866780Y-59910984D01*
X109846564Y-59977865D01*
X109795189Y-60022382D01*
X109666340Y-60082465D01*
X109666338Y-60082466D01*
X109485377Y-60209175D01*
X109329175Y-60365377D01*
X109202467Y-60546337D01*
X109202466Y-60546339D01*
X109202348Y-60546593D01*
X109142105Y-60675782D01*
X109095932Y-60728221D01*
X109028738Y-60747372D01*
X108961857Y-60727156D01*
X108917341Y-60675780D01*
X108857100Y-60546593D01*
X108857099Y-60546591D01*
X108811740Y-60481811D01*
X108249521Y-61044029D01*
X108226845Y-60966799D01*
X108147869Y-60843910D01*
X108037470Y-60748248D01*
X107904592Y-60687565D01*
X107899599Y-60686847D01*
X108458187Y-60128258D01*
X108393409Y-60082900D01*
X108393407Y-60082899D01*
X108264219Y-60022658D01*
X108211779Y-59976486D01*
X108192627Y-59909293D01*
X108212843Y-59842411D01*
X108264219Y-59797894D01*
X108270294Y-59795061D01*
X108393662Y-59737534D01*
X108574620Y-59610826D01*
X108730826Y-59454620D01*
X108857534Y-59273662D01*
X108917618Y-59144811D01*
X108963790Y-59092371D01*
X109030983Y-59073219D01*
X109097865Y-59093435D01*
G37*
G04 #@! TD.AperFunction*
G04 #@! TA.AperFunction,Conductor*
G36*
X109833155Y-43613201D02*
G01*
X109912131Y-43736090D01*
X110022530Y-43831752D01*
X110155408Y-43892435D01*
X110160400Y-43893152D01*
X109601811Y-44451741D01*
X109666582Y-44497094D01*
X109666588Y-44497098D01*
X109795781Y-44557342D01*
X109848220Y-44603514D01*
X109867372Y-44670708D01*
X109847156Y-44737589D01*
X109795781Y-44782106D01*
X109666340Y-44842465D01*
X109666338Y-44842466D01*
X109485377Y-44969175D01*
X109329175Y-45125377D01*
X109202466Y-45306338D01*
X109202465Y-45306340D01*
X109142382Y-45435189D01*
X109096209Y-45487628D01*
X109029016Y-45506780D01*
X108962135Y-45486564D01*
X108917618Y-45435189D01*
X108857534Y-45306340D01*
X108857533Y-45306338D01*
X108730827Y-45125381D01*
X108730823Y-45125377D01*
X108574620Y-44969174D01*
X108574616Y-44969171D01*
X108574615Y-44969170D01*
X108393666Y-44842468D01*
X108393658Y-44842464D01*
X108264811Y-44782382D01*
X108212371Y-44736210D01*
X108193219Y-44669017D01*
X108213435Y-44602135D01*
X108264811Y-44557618D01*
X108270802Y-44554824D01*
X108393662Y-44497534D01*
X108574620Y-44370826D01*
X108730826Y-44214620D01*
X108857534Y-44033662D01*
X108917894Y-43904218D01*
X108964066Y-43851779D01*
X109031259Y-43832627D01*
X109098141Y-43852843D01*
X109142658Y-43904219D01*
X109202899Y-44033407D01*
X109202900Y-44033409D01*
X109248258Y-44098187D01*
X109810477Y-43535968D01*
X109833155Y-43613201D01*
G37*
G04 #@! TD.AperFunction*
G04 #@! TA.AperFunction,Conductor*
G36*
X114943039Y-21019685D02*
G01*
X114988794Y-21072489D01*
X115000000Y-21124000D01*
X115000000Y-40500000D01*
X129876000Y-40500000D01*
X129943039Y-40519685D01*
X129988794Y-40572489D01*
X130000000Y-40624000D01*
X130000000Y-78376000D01*
X129980315Y-78443039D01*
X129927511Y-78488794D01*
X129876000Y-78500000D01*
X115000000Y-78500000D01*
X115000000Y-97876000D01*
X114980315Y-97943039D01*
X114927511Y-97988794D01*
X114876000Y-98000000D01*
X89624000Y-98000000D01*
X89556961Y-97980315D01*
X89511206Y-97927511D01*
X89500000Y-97876000D01*
X89500000Y-78500000D01*
X74624000Y-78500000D01*
X74556961Y-78480315D01*
X74511206Y-78427511D01*
X74500000Y-78376000D01*
X74500000Y-67135195D01*
X90869840Y-67135195D01*
X90874225Y-67181583D01*
X90874500Y-67187421D01*
X90874500Y-89437255D01*
X90872775Y-89452872D01*
X90873061Y-89452899D01*
X90872326Y-89460665D01*
X90874500Y-89529814D01*
X90874500Y-89559343D01*
X90874501Y-89559360D01*
X90875368Y-89566231D01*
X90875826Y-89572050D01*
X90877290Y-89618624D01*
X90877291Y-89618627D01*
X90882880Y-89637867D01*
X90886824Y-89656911D01*
X90889336Y-89676791D01*
X90906490Y-89720119D01*
X90908382Y-89725647D01*
X90921381Y-89770388D01*
X90931580Y-89787634D01*
X90940138Y-89805103D01*
X90947514Y-89823732D01*
X90974898Y-89861423D01*
X90978106Y-89866307D01*
X91001827Y-89906416D01*
X91001833Y-89906424D01*
X91015990Y-89920580D01*
X91028628Y-89935376D01*
X91040405Y-89951586D01*
X91040406Y-89951587D01*
X91076309Y-89981288D01*
X91080620Y-89985210D01*
X92112428Y-91017018D01*
X93042398Y-91946988D01*
X93075883Y-92008311D01*
X93076542Y-92052998D01*
X93076895Y-92053031D01*
X93076591Y-92056308D01*
X93076608Y-92057441D01*
X93076366Y-92058733D01*
X93055863Y-92279999D01*
X93055863Y-92280000D01*
X93076365Y-92501259D01*
X93076366Y-92501261D01*
X93137174Y-92714979D01*
X93137180Y-92714994D01*
X93236222Y-92913896D01*
X93370133Y-93091224D01*
X93534344Y-93240921D01*
X93534346Y-93240923D01*
X93723266Y-93357897D01*
X93723272Y-93357900D01*
X93752206Y-93369109D01*
X93930472Y-93438170D01*
X94148896Y-93479000D01*
X94148899Y-93479000D01*
X94371101Y-93479000D01*
X94371104Y-93479000D01*
X94589528Y-93438170D01*
X94796730Y-93357899D01*
X94985655Y-93240922D01*
X95149868Y-93091222D01*
X95283778Y-92913896D01*
X95382824Y-92714984D01*
X95410734Y-92616889D01*
X95448013Y-92557796D01*
X95511323Y-92528239D01*
X95580562Y-92537601D01*
X95633749Y-92582911D01*
X95649266Y-92616890D01*
X95677174Y-92714979D01*
X95677180Y-92714994D01*
X95776222Y-92913896D01*
X95910133Y-93091224D01*
X96074344Y-93240921D01*
X96074346Y-93240923D01*
X96263266Y-93357897D01*
X96263272Y-93357900D01*
X96292206Y-93369109D01*
X96470472Y-93438170D01*
X96688896Y-93479000D01*
X96688899Y-93479000D01*
X96879200Y-93479000D01*
X96946239Y-93498685D01*
X96966881Y-93515319D01*
X97082266Y-93630704D01*
X97082267Y-93630704D01*
X97102403Y-93648791D01*
X97102402Y-93648791D01*
X97133586Y-93673920D01*
X97133589Y-93673922D01*
X97177473Y-93705567D01*
X97308350Y-93765338D01*
X97351122Y-93777897D01*
X97375384Y-93785022D01*
X97375389Y-93785023D01*
X97375393Y-93785024D01*
X97517809Y-93805500D01*
X97517812Y-93805500D01*
X98062173Y-93805500D01*
X98062177Y-93805500D01*
X98089216Y-93804051D01*
X98089223Y-93804050D01*
X98089227Y-93804050D01*
X98089228Y-93804050D01*
X98129036Y-93799769D01*
X98182448Y-93791114D01*
X98317257Y-93740832D01*
X98378580Y-93707347D01*
X98493761Y-93621123D01*
X103930697Y-88184188D01*
X103930697Y-88184187D01*
X103930704Y-88184181D01*
X103930704Y-88184180D01*
X103948791Y-88164044D01*
X103948791Y-88164045D01*
X103973920Y-88132861D01*
X103978362Y-88126699D01*
X104005567Y-88088974D01*
X104065338Y-87958097D01*
X104085023Y-87891058D01*
X104085024Y-87891054D01*
X104105500Y-87748638D01*
X104105500Y-82874996D01*
X104125185Y-82807957D01*
X104141819Y-82787315D01*
X104560895Y-82368239D01*
X104965088Y-81964046D01*
X105015739Y-81913395D01*
X105057339Y-81857821D01*
X105060109Y-81854386D01*
X105073077Y-81839419D01*
X105105574Y-81801918D01*
X105143116Y-81743499D01*
X105145631Y-81739878D01*
X105187226Y-81684315D01*
X105220498Y-81623379D01*
X105222736Y-81619608D01*
X105260282Y-81561187D01*
X105289120Y-81498040D01*
X105291102Y-81494080D01*
X105295458Y-81486103D01*
X105324367Y-81433161D01*
X105348632Y-81368099D01*
X105350310Y-81364049D01*
X105379156Y-81300889D01*
X105398716Y-81234269D01*
X105400100Y-81230111D01*
X105424369Y-81165046D01*
X105439129Y-81097193D01*
X105440215Y-81092936D01*
X105459775Y-81026323D01*
X105469655Y-80957606D01*
X105470433Y-80953288D01*
X105485196Y-80885428D01*
X105490148Y-80816175D01*
X105490617Y-80811808D01*
X105500500Y-80743079D01*
X105500500Y-80456921D01*
X105500500Y-60229500D01*
X105520185Y-60162461D01*
X105572989Y-60116706D01*
X105624500Y-60105500D01*
X106653383Y-60105500D01*
X106677623Y-60102650D01*
X106770606Y-60091720D01*
X106826550Y-60078383D01*
X106890938Y-60054802D01*
X106960656Y-60050234D01*
X107021778Y-60084083D01*
X107026608Y-60093055D01*
X107620400Y-60686847D01*
X107615408Y-60687565D01*
X107482530Y-60748248D01*
X107372131Y-60843910D01*
X107293155Y-60966799D01*
X107270477Y-61044030D01*
X106708258Y-60481811D01*
X106708257Y-60481812D01*
X106662903Y-60546586D01*
X106569579Y-60746720D01*
X106569575Y-60746729D01*
X106512426Y-60960013D01*
X106512424Y-60960023D01*
X106493179Y-61179999D01*
X106493179Y-61180000D01*
X106512424Y-61399976D01*
X106512426Y-61399986D01*
X106569575Y-61613270D01*
X106569580Y-61613284D01*
X106662899Y-61813407D01*
X106662900Y-61813409D01*
X106708258Y-61878187D01*
X107270477Y-61315968D01*
X107293155Y-61393201D01*
X107372131Y-61516090D01*
X107482530Y-61611752D01*
X107615408Y-61672435D01*
X107620400Y-61673152D01*
X107061811Y-62231741D01*
X107126582Y-62277094D01*
X107126588Y-62277098D01*
X107256373Y-62337618D01*
X107308812Y-62383790D01*
X107327964Y-62450984D01*
X107307748Y-62517865D01*
X107256373Y-62562382D01*
X107126586Y-62622903D01*
X107061812Y-62668257D01*
X107061811Y-62668258D01*
X107620400Y-63226847D01*
X107615408Y-63227565D01*
X107482530Y-63288248D01*
X107372131Y-63383910D01*
X107293155Y-63506799D01*
X107270477Y-63584030D01*
X106708258Y-63021811D01*
X106708257Y-63021812D01*
X106662903Y-63086586D01*
X106569579Y-63286720D01*
X106569575Y-63286729D01*
X106512426Y-63500013D01*
X106512424Y-63500023D01*
X106493179Y-63719999D01*
X106493179Y-63720000D01*
X106512424Y-63939976D01*
X106512426Y-63939986D01*
X106569575Y-64153270D01*
X106569580Y-64153284D01*
X106662899Y-64353407D01*
X106662900Y-64353409D01*
X106708258Y-64418187D01*
X107270477Y-63855968D01*
X107293155Y-63933201D01*
X107372131Y-64056090D01*
X107482530Y-64151752D01*
X107615408Y-64212435D01*
X107620400Y-64213152D01*
X107061811Y-64771741D01*
X107126582Y-64817094D01*
X107126588Y-64817098D01*
X107256373Y-64877618D01*
X107308812Y-64923790D01*
X107327964Y-64990984D01*
X107307748Y-65057865D01*
X107256373Y-65102382D01*
X107126586Y-65162903D01*
X107061812Y-65208257D01*
X107061811Y-65208258D01*
X107620400Y-65766847D01*
X107615408Y-65767565D01*
X107482530Y-65828248D01*
X107372131Y-65923910D01*
X107293155Y-66046799D01*
X107270477Y-66124030D01*
X106708258Y-65561811D01*
X106708257Y-65561812D01*
X106662903Y-65626586D01*
X106569579Y-65826720D01*
X106569575Y-65826729D01*
X106512426Y-66040013D01*
X106512424Y-66040023D01*
X106493179Y-66259999D01*
X106493179Y-66260000D01*
X106512424Y-66479976D01*
X106512426Y-66479986D01*
X106569575Y-66693270D01*
X106569580Y-66693284D01*
X106662899Y-66893407D01*
X106662900Y-66893409D01*
X106708258Y-66958187D01*
X107270477Y-66395968D01*
X107293155Y-66473201D01*
X107372131Y-66596090D01*
X107482530Y-66691752D01*
X107615408Y-66752435D01*
X107620400Y-66753152D01*
X107061811Y-67311741D01*
X107126582Y-67357094D01*
X107126592Y-67357100D01*
X107326715Y-67450419D01*
X107326729Y-67450424D01*
X107540013Y-67507573D01*
X107540023Y-67507575D01*
X107759999Y-67526821D01*
X107760001Y-67526821D01*
X107979976Y-67507575D01*
X107979986Y-67507573D01*
X108193270Y-67450424D01*
X108193284Y-67450419D01*
X108393408Y-67357100D01*
X108393420Y-67357093D01*
X108458186Y-67311742D01*
X108458187Y-67311740D01*
X107899600Y-66753152D01*
X107904592Y-66752435D01*
X108037470Y-66691752D01*
X108147869Y-66596090D01*
X108226845Y-66473201D01*
X108249522Y-66395969D01*
X108811740Y-66958187D01*
X108811742Y-66958186D01*
X108857093Y-66893420D01*
X108857100Y-66893408D01*
X108917342Y-66764219D01*
X108963514Y-66711779D01*
X109030707Y-66692627D01*
X109097588Y-66712842D01*
X109142106Y-66764219D01*
X109202464Y-66893658D01*
X109202468Y-66893666D01*
X109329170Y-67074615D01*
X109329175Y-67074621D01*
X109485378Y-67230824D01*
X109485384Y-67230829D01*
X109666333Y-67357531D01*
X109666335Y-67357532D01*
X109666338Y-67357534D01*
X109866550Y-67450894D01*
X110079932Y-67508070D01*
X110237123Y-67521822D01*
X110299998Y-67527323D01*
X110300000Y-67527323D01*
X110300002Y-67527323D01*
X110355017Y-67522509D01*
X110520068Y-67508070D01*
X110733450Y-67450894D01*
X110933662Y-67357534D01*
X111114620Y-67230826D01*
X111270826Y-67074620D01*
X111397534Y-66893662D01*
X111490894Y-66693450D01*
X111548070Y-66480068D01*
X111567323Y-66260000D01*
X111548070Y-66039932D01*
X111490894Y-65826550D01*
X111397534Y-65626339D01*
X111270826Y-65445380D01*
X111114620Y-65289174D01*
X111114616Y-65289171D01*
X111114615Y-65289170D01*
X110933666Y-65162468D01*
X110933658Y-65162464D01*
X110804811Y-65102382D01*
X110752371Y-65056210D01*
X110733219Y-64989017D01*
X110753435Y-64922135D01*
X110804811Y-64877618D01*
X110810802Y-64874824D01*
X110933662Y-64817534D01*
X111114620Y-64690826D01*
X111270826Y-64534620D01*
X111397534Y-64353662D01*
X111490894Y-64153450D01*
X111548070Y-63940068D01*
X111567323Y-63720000D01*
X111548070Y-63499932D01*
X111490894Y-63286550D01*
X111397534Y-63086339D01*
X111270826Y-62905380D01*
X111114620Y-62749174D01*
X111114616Y-62749171D01*
X111114615Y-62749170D01*
X110933666Y-62622468D01*
X110933658Y-62622464D01*
X110804811Y-62562382D01*
X110752371Y-62516210D01*
X110733219Y-62449017D01*
X110753435Y-62382135D01*
X110804811Y-62337618D01*
X110810802Y-62334824D01*
X110933662Y-62277534D01*
X111114620Y-62150826D01*
X111270826Y-61994620D01*
X111397534Y-61813662D01*
X111490894Y-61613450D01*
X111548070Y-61400068D01*
X111567323Y-61180000D01*
X111548070Y-60959932D01*
X111490894Y-60746550D01*
X111397534Y-60546339D01*
X111283280Y-60383166D01*
X111270827Y-60365381D01*
X111195060Y-60289614D01*
X111114620Y-60209174D01*
X111114616Y-60209171D01*
X111114615Y-60209170D01*
X110933666Y-60082468D01*
X110933658Y-60082464D01*
X110804811Y-60022382D01*
X110752371Y-59976210D01*
X110733219Y-59909017D01*
X110753435Y-59842135D01*
X110804811Y-59797618D01*
X110810802Y-59794824D01*
X110933662Y-59737534D01*
X111114620Y-59610826D01*
X111270826Y-59454620D01*
X111397534Y-59273662D01*
X111490894Y-59073450D01*
X111548070Y-58860068D01*
X111567323Y-58640000D01*
X111548070Y-58419932D01*
X111490894Y-58206550D01*
X111397534Y-58006339D01*
X111297010Y-57862775D01*
X111270827Y-57825381D01*
X111217216Y-57771770D01*
X111114620Y-57669174D01*
X111114616Y-57669171D01*
X111114615Y-57669170D01*
X110933666Y-57542468D01*
X110933658Y-57542464D01*
X110804811Y-57482382D01*
X110752371Y-57436210D01*
X110733219Y-57369017D01*
X110753435Y-57302135D01*
X110804811Y-57257618D01*
X110810802Y-57254824D01*
X110933662Y-57197534D01*
X111114620Y-57070826D01*
X111270826Y-56914620D01*
X111397534Y-56733662D01*
X111490894Y-56533450D01*
X111548070Y-56320068D01*
X111567323Y-56100000D01*
X111548070Y-55879932D01*
X111490894Y-55666550D01*
X111397534Y-55466339D01*
X111270826Y-55285380D01*
X111114620Y-55129174D01*
X111114616Y-55129171D01*
X111114615Y-55129170D01*
X110933666Y-55002468D01*
X110933658Y-55002464D01*
X110804811Y-54942382D01*
X110752371Y-54896210D01*
X110733219Y-54829017D01*
X110753435Y-54762135D01*
X110804811Y-54717618D01*
X110810802Y-54714824D01*
X110933662Y-54657534D01*
X111114620Y-54530826D01*
X111270826Y-54374620D01*
X111397534Y-54193662D01*
X111490894Y-53993450D01*
X111548070Y-53780068D01*
X111567323Y-53560000D01*
X111548070Y-53339932D01*
X111490894Y-53126550D01*
X111397534Y-52926339D01*
X111294500Y-52779190D01*
X111270827Y-52745381D01*
X111224536Y-52699090D01*
X111114620Y-52589174D01*
X111114616Y-52589171D01*
X111114615Y-52589170D01*
X110933666Y-52462468D01*
X110933658Y-52462464D01*
X110804811Y-52402382D01*
X110752371Y-52356210D01*
X110733219Y-52289017D01*
X110753435Y-52222135D01*
X110804811Y-52177618D01*
X110816080Y-52172363D01*
X110933662Y-52117534D01*
X111114620Y-51990826D01*
X111270826Y-51834620D01*
X111397534Y-51653662D01*
X111490894Y-51453450D01*
X111548070Y-51240068D01*
X111567323Y-51020000D01*
X111559807Y-50934093D01*
X111573573Y-50865595D01*
X111622188Y-50815412D01*
X111690217Y-50799478D01*
X111756061Y-50822853D01*
X111771016Y-50835606D01*
X115688181Y-54752771D01*
X115721666Y-54814094D01*
X115724500Y-54840452D01*
X115724500Y-74603151D01*
X115704815Y-74670190D01*
X115688181Y-74690832D01*
X111740832Y-78638181D01*
X111679509Y-78671666D01*
X111653151Y-78674500D01*
X111493788Y-78674500D01*
X111426749Y-78654815D01*
X111401638Y-78633472D01*
X111348276Y-78574208D01*
X111305871Y-78527112D01*
X111272066Y-78502551D01*
X111152734Y-78415851D01*
X111152729Y-78415848D01*
X110979807Y-78338857D01*
X110979802Y-78338855D01*
X110834001Y-78307865D01*
X110794646Y-78299500D01*
X110605354Y-78299500D01*
X110590238Y-78302713D01*
X110420197Y-78338855D01*
X110420192Y-78338857D01*
X110247270Y-78415848D01*
X110247265Y-78415851D01*
X110094129Y-78527111D01*
X109967466Y-78667785D01*
X109872821Y-78831715D01*
X109872819Y-78831719D01*
X109827061Y-78972549D01*
X109787623Y-79030224D01*
X109734913Y-79055520D01*
X109695694Y-79063856D01*
X109695692Y-79063857D01*
X109522770Y-79140848D01*
X109522765Y-79140851D01*
X109369629Y-79252111D01*
X109242966Y-79392785D01*
X109148321Y-79556715D01*
X109148318Y-79556722D01*
X109129840Y-79613593D01*
X109089826Y-79736744D01*
X109070040Y-79925000D01*
X109089826Y-80113256D01*
X109089827Y-80113259D01*
X109148318Y-80293277D01*
X109148321Y-80293284D01*
X109242967Y-80457216D01*
X109358330Y-80585339D01*
X109369629Y-80597888D01*
X109522765Y-80709148D01*
X109522770Y-80709151D01*
X109695692Y-80786142D01*
X109695697Y-80786144D01*
X109880854Y-80825500D01*
X109880855Y-80825500D01*
X110070144Y-80825500D01*
X110070146Y-80825500D01*
X110255303Y-80786144D01*
X110428230Y-80709151D01*
X110581371Y-80597888D01*
X110584288Y-80594647D01*
X110587100Y-80591526D01*
X110646587Y-80554879D01*
X110679248Y-80550500D01*
X111892257Y-80550500D01*
X111907877Y-80552224D01*
X111907904Y-80551939D01*
X111915660Y-80552671D01*
X111915667Y-80552673D01*
X111984814Y-80550500D01*
X112014350Y-80550500D01*
X112021228Y-80549630D01*
X112027041Y-80549172D01*
X112073627Y-80547709D01*
X112092869Y-80542117D01*
X112111912Y-80538174D01*
X112131792Y-80535664D01*
X112175122Y-80518507D01*
X112180646Y-80516617D01*
X112192824Y-80513079D01*
X112225390Y-80503618D01*
X112242629Y-80493422D01*
X112260103Y-80484862D01*
X112278727Y-80477488D01*
X112278727Y-80477487D01*
X112278732Y-80477486D01*
X112316449Y-80450082D01*
X112321305Y-80446892D01*
X112361420Y-80423170D01*
X112375589Y-80408999D01*
X112390379Y-80396368D01*
X112406587Y-80384594D01*
X112436299Y-80348676D01*
X112440212Y-80344376D01*
X117183788Y-75600801D01*
X117196042Y-75590986D01*
X117195859Y-75590764D01*
X117201866Y-75585792D01*
X117201877Y-75585786D01*
X117232775Y-75552882D01*
X117249227Y-75535364D01*
X117259671Y-75524918D01*
X117270120Y-75514471D01*
X117274379Y-75508978D01*
X117278152Y-75504561D01*
X117310062Y-75470582D01*
X117319713Y-75453024D01*
X117330396Y-75436761D01*
X117342673Y-75420936D01*
X117361185Y-75378153D01*
X117363738Y-75372941D01*
X117386197Y-75332092D01*
X117391180Y-75312680D01*
X117397481Y-75294280D01*
X117405437Y-75275896D01*
X117412729Y-75229852D01*
X117413906Y-75224171D01*
X117425500Y-75179019D01*
X117425500Y-75158983D01*
X117427027Y-75139582D01*
X117427969Y-75133634D01*
X117430160Y-75119804D01*
X117425775Y-75073415D01*
X117425500Y-75067577D01*
X117425500Y-59550001D01*
X122494390Y-59550001D01*
X122514804Y-59835433D01*
X122575628Y-60115037D01*
X122575630Y-60115043D01*
X122575631Y-60115046D01*
X122675633Y-60383161D01*
X122675635Y-60383166D01*
X122812770Y-60634309D01*
X122812775Y-60634317D01*
X122984254Y-60863387D01*
X122984270Y-60863405D01*
X123186594Y-61065729D01*
X123186612Y-61065745D01*
X123415682Y-61237224D01*
X123415690Y-61237229D01*
X123666833Y-61374364D01*
X123666832Y-61374364D01*
X123666836Y-61374365D01*
X123666839Y-61374367D01*
X123934954Y-61474369D01*
X123934960Y-61474370D01*
X123934962Y-61474371D01*
X124214566Y-61535195D01*
X124214568Y-61535195D01*
X124214572Y-61535196D01*
X124428552Y-61550500D01*
X124571448Y-61550500D01*
X124785428Y-61535196D01*
X125065046Y-61474369D01*
X125333161Y-61374367D01*
X125584315Y-61237226D01*
X125813395Y-61065739D01*
X126015739Y-60863395D01*
X126187226Y-60634315D01*
X126324367Y-60383161D01*
X126424369Y-60115046D01*
X126429443Y-60091720D01*
X126485195Y-59835433D01*
X126485195Y-59835432D01*
X126485196Y-59835428D01*
X126505610Y-59550000D01*
X126485196Y-59264572D01*
X126443620Y-59073451D01*
X126424371Y-58984962D01*
X126424370Y-58984960D01*
X126424369Y-58984954D01*
X126324367Y-58716839D01*
X126205963Y-58500000D01*
X126187229Y-58465690D01*
X126187224Y-58465682D01*
X126015745Y-58236612D01*
X126015729Y-58236594D01*
X125813405Y-58034270D01*
X125813387Y-58034254D01*
X125584317Y-57862775D01*
X125584309Y-57862770D01*
X125333166Y-57725635D01*
X125333167Y-57725635D01*
X125170426Y-57664936D01*
X125065046Y-57625631D01*
X125065043Y-57625630D01*
X125065037Y-57625628D01*
X124785433Y-57564804D01*
X124571448Y-57549500D01*
X124428552Y-57549500D01*
X124214566Y-57564804D01*
X123934962Y-57625628D01*
X123666833Y-57725635D01*
X123415690Y-57862770D01*
X123415682Y-57862775D01*
X123186612Y-58034254D01*
X123186594Y-58034270D01*
X122984270Y-58236594D01*
X122984254Y-58236612D01*
X122812775Y-58465682D01*
X122812770Y-58465690D01*
X122675635Y-58716833D01*
X122575628Y-58984962D01*
X122514804Y-59264566D01*
X122494390Y-59549998D01*
X122494390Y-59550001D01*
X117425500Y-59550001D01*
X117425500Y-52522738D01*
X117427224Y-52507124D01*
X117426938Y-52507097D01*
X117427672Y-52499334D01*
X117425500Y-52430203D01*
X117425500Y-52400651D01*
X117425500Y-52400650D01*
X117424629Y-52393759D01*
X117424172Y-52387945D01*
X117422709Y-52341372D01*
X117417122Y-52322144D01*
X117413174Y-52303084D01*
X117410664Y-52283208D01*
X117393507Y-52239875D01*
X117391619Y-52234359D01*
X117378619Y-52189612D01*
X117368418Y-52172363D01*
X117359860Y-52154894D01*
X117352486Y-52136268D01*
X117352483Y-52136264D01*
X117352483Y-52136263D01*
X117325098Y-52098571D01*
X117321890Y-52093687D01*
X117298172Y-52053582D01*
X117298163Y-52053571D01*
X117284005Y-52039413D01*
X117271370Y-52024620D01*
X117259593Y-52008412D01*
X117223693Y-51978713D01*
X117219381Y-51974790D01*
X111568386Y-46323795D01*
X111534901Y-46262472D01*
X111536293Y-46204018D01*
X111548069Y-46160072D01*
X111548069Y-46160071D01*
X111548070Y-46160068D01*
X111567323Y-45940000D01*
X111548070Y-45719932D01*
X111490894Y-45506550D01*
X111397534Y-45306339D01*
X111270826Y-45125380D01*
X111114620Y-44969174D01*
X111114616Y-44969171D01*
X111114615Y-44969170D01*
X110933666Y-44842468D01*
X110933658Y-44842464D01*
X110804219Y-44782106D01*
X110751779Y-44735934D01*
X110732627Y-44668741D01*
X110752843Y-44601859D01*
X110804219Y-44557342D01*
X110933408Y-44497100D01*
X110933420Y-44497093D01*
X110998186Y-44451742D01*
X110998187Y-44451740D01*
X110439600Y-43893152D01*
X110444592Y-43892435D01*
X110577470Y-43831752D01*
X110687869Y-43736090D01*
X110766845Y-43613201D01*
X110789522Y-43535969D01*
X111351740Y-44098187D01*
X111351742Y-44098186D01*
X111397093Y-44033420D01*
X111397100Y-44033408D01*
X111490419Y-43833284D01*
X111490424Y-43833270D01*
X111547573Y-43619986D01*
X111547575Y-43619976D01*
X111566821Y-43400000D01*
X111566821Y-43399999D01*
X111547575Y-43180023D01*
X111547573Y-43180013D01*
X111490424Y-42966729D01*
X111490420Y-42966720D01*
X111397098Y-42766590D01*
X111351740Y-42701811D01*
X110789521Y-43264029D01*
X110766845Y-43186799D01*
X110687869Y-43063910D01*
X110577470Y-42968248D01*
X110444592Y-42907565D01*
X110439599Y-42906847D01*
X110998187Y-42348258D01*
X110933409Y-42302900D01*
X110933407Y-42302899D01*
X110733284Y-42209580D01*
X110733270Y-42209575D01*
X110519986Y-42152426D01*
X110519976Y-42152424D01*
X110300001Y-42133179D01*
X110299999Y-42133179D01*
X110080023Y-42152424D01*
X110080013Y-42152426D01*
X109866729Y-42209575D01*
X109866720Y-42209579D01*
X109811903Y-42235140D01*
X109742826Y-42245631D01*
X109679042Y-42217110D01*
X109640803Y-42158633D01*
X109635500Y-42122757D01*
X109635500Y-31342861D01*
X109655185Y-31275822D01*
X109657910Y-31271758D01*
X109765655Y-31117884D01*
X109861833Y-30911631D01*
X109920733Y-30691810D01*
X109940568Y-30465100D01*
X109920733Y-30238390D01*
X109861833Y-30018569D01*
X109765655Y-29812316D01*
X109635123Y-29625897D01*
X109474203Y-29464977D01*
X109474201Y-29464976D01*
X109474198Y-29464973D01*
X109287785Y-29334445D01*
X109287783Y-29334444D01*
X109229962Y-29307482D01*
X109177523Y-29261310D01*
X109158371Y-29194116D01*
X109178587Y-29127235D01*
X109229962Y-29082718D01*
X109287784Y-29055755D01*
X109474203Y-28925223D01*
X109635123Y-28764303D01*
X109765655Y-28577884D01*
X109861833Y-28371631D01*
X109920733Y-28151810D01*
X109940568Y-27925100D01*
X109920733Y-27698390D01*
X109861833Y-27478569D01*
X109765655Y-27272316D01*
X109635123Y-27085897D01*
X109474203Y-26924977D01*
X109474201Y-26924976D01*
X109474198Y-26924973D01*
X109287785Y-26794445D01*
X109287783Y-26794444D01*
X109184657Y-26746356D01*
X109081531Y-26698267D01*
X109081527Y-26698266D01*
X109081523Y-26698264D01*
X108861715Y-26639368D01*
X108861705Y-26639366D01*
X108635001Y-26619532D01*
X108634999Y-26619532D01*
X108408294Y-26639366D01*
X108408284Y-26639368D01*
X108188476Y-26698264D01*
X108188467Y-26698268D01*
X107982216Y-26794444D01*
X107982214Y-26794445D01*
X107795801Y-26924973D01*
X107795795Y-26924978D01*
X107634878Y-27085895D01*
X107634873Y-27085901D01*
X107504345Y-27272314D01*
X107504344Y-27272316D01*
X107408168Y-27478567D01*
X107408164Y-27478576D01*
X107349268Y-27698384D01*
X107349266Y-27698393D01*
X107343849Y-27760304D01*
X107318395Y-27825372D01*
X107308002Y-27837175D01*
X103201532Y-31943646D01*
X103136946Y-32005042D01*
X103101899Y-32055394D01*
X103099062Y-32059156D01*
X103060302Y-32106692D01*
X103060299Y-32106697D01*
X103044392Y-32137147D01*
X103040324Y-32143861D01*
X103020702Y-32172054D01*
X102996509Y-32228430D01*
X102994488Y-32232684D01*
X102966091Y-32287051D01*
X102966090Y-32287052D01*
X102956640Y-32320075D01*
X102954007Y-32327471D01*
X102940459Y-32359043D01*
X102928113Y-32419119D01*
X102926990Y-32423695D01*
X102910113Y-32482677D01*
X102910113Y-32482679D01*
X102907503Y-32516941D01*
X102906414Y-32524708D01*
X102900980Y-32551152D01*
X102899500Y-32558358D01*
X102899500Y-32619697D01*
X102899321Y-32624406D01*
X102894662Y-32685574D01*
X102896707Y-32701627D01*
X102899003Y-32719660D01*
X102899500Y-32727488D01*
X102899500Y-43087283D01*
X102897243Y-43176362D01*
X102897243Y-43176370D01*
X102908064Y-43236739D01*
X102908718Y-43241404D01*
X102914925Y-43302430D01*
X102914927Y-43302444D01*
X102925208Y-43335213D01*
X102927079Y-43342837D01*
X102933142Y-43376652D01*
X102933142Y-43376655D01*
X102955894Y-43433612D01*
X102957474Y-43438051D01*
X102975841Y-43496588D01*
X102975844Y-43496595D01*
X102992509Y-43526619D01*
X102995879Y-43533714D01*
X103008622Y-43565614D01*
X103008627Y-43565624D01*
X103042377Y-43616833D01*
X103044818Y-43620863D01*
X103074588Y-43674498D01*
X103074589Y-43674499D01*
X103074591Y-43674502D01*
X103096968Y-43700567D01*
X103101693Y-43706835D01*
X103114263Y-43725906D01*
X103120598Y-43735519D01*
X103163978Y-43778899D01*
X103167169Y-43782343D01*
X103207131Y-43828892D01*
X103207134Y-43828895D01*
X103213019Y-43833450D01*
X103234294Y-43849918D01*
X103240190Y-43855111D01*
X106023566Y-46638487D01*
X106084941Y-46703053D01*
X106135294Y-46738100D01*
X106139037Y-46740922D01*
X106155831Y-46754615D01*
X106186595Y-46779700D01*
X106207053Y-46790385D01*
X106217045Y-46795605D01*
X106223755Y-46799670D01*
X106251951Y-46819295D01*
X106251952Y-46819295D01*
X106251953Y-46819296D01*
X106257392Y-46822315D01*
X106306455Y-46872060D01*
X106320836Y-46940434D01*
X106295968Y-47005728D01*
X106271528Y-47030001D01*
X106206242Y-47078873D01*
X106206228Y-47078886D01*
X104805118Y-48479998D01*
X102265117Y-51019998D01*
X101269296Y-52015819D01*
X101251209Y-52035956D01*
X101251209Y-52035955D01*
X101226080Y-52067139D01*
X101194433Y-52111025D01*
X101134663Y-52241899D01*
X101114978Y-52308937D01*
X101114976Y-52308942D01*
X101094500Y-52451363D01*
X101094500Y-58332134D01*
X101074815Y-58399173D01*
X101022011Y-58444928D01*
X100952853Y-58454872D01*
X100889297Y-58425847D01*
X100858118Y-58384539D01*
X100829035Y-58322171D01*
X100829034Y-58322169D01*
X100693494Y-58128597D01*
X100526402Y-57961506D01*
X100526401Y-57961505D01*
X100333376Y-57826347D01*
X100289751Y-57771770D01*
X100280500Y-57724772D01*
X100280500Y-55698687D01*
X100300185Y-55631648D01*
X100312350Y-55615715D01*
X100330891Y-55595122D01*
X100387533Y-55532216D01*
X100482179Y-55368284D01*
X100540674Y-55188256D01*
X100560460Y-55000000D01*
X100540674Y-54811744D01*
X100482179Y-54631716D01*
X100387533Y-54467784D01*
X100312350Y-54384284D01*
X100282120Y-54321292D01*
X100280500Y-54301312D01*
X100280500Y-30897742D01*
X100282224Y-30882122D01*
X100281939Y-30882095D01*
X100282673Y-30874333D01*
X100280500Y-30805171D01*
X100280500Y-30775650D01*
X100279631Y-30768779D01*
X100279173Y-30762952D01*
X100277710Y-30716373D01*
X100272119Y-30697130D01*
X100268173Y-30678078D01*
X100265664Y-30658208D01*
X100248504Y-30614867D01*
X100246624Y-30609379D01*
X100233618Y-30564610D01*
X100223422Y-30547370D01*
X100214861Y-30529894D01*
X100207487Y-30511270D01*
X100207486Y-30511268D01*
X100180079Y-30473545D01*
X100176888Y-30468686D01*
X100174767Y-30465100D01*
X100153170Y-30428580D01*
X100153168Y-30428578D01*
X100153165Y-30428574D01*
X100139006Y-30414415D01*
X100126368Y-30399619D01*
X100117067Y-30386817D01*
X100114594Y-30383413D01*
X100106688Y-30376873D01*
X100078688Y-30353709D01*
X100074376Y-30349786D01*
X98140237Y-28415646D01*
X98106752Y-28354323D01*
X98108142Y-28295876D01*
X98135063Y-28195408D01*
X98155659Y-27960000D01*
X98152605Y-27925099D01*
X98135063Y-27724596D01*
X98135063Y-27724592D01*
X98073903Y-27496337D01*
X97974035Y-27282171D01*
X97967135Y-27272316D01*
X97838494Y-27088597D01*
X97671402Y-26921506D01*
X97671395Y-26921501D01*
X97477834Y-26785967D01*
X97477830Y-26785965D01*
X97477828Y-26785964D01*
X97263663Y-26686097D01*
X97263659Y-26686096D01*
X97263655Y-26686094D01*
X97035413Y-26624938D01*
X97035403Y-26624936D01*
X96800001Y-26604341D01*
X96799999Y-26604341D01*
X96564596Y-26624936D01*
X96564586Y-26624938D01*
X96336344Y-26686094D01*
X96336335Y-26686098D01*
X96122171Y-26785964D01*
X96122169Y-26785965D01*
X95928600Y-26921503D01*
X95806673Y-27043430D01*
X95745350Y-27076914D01*
X95675658Y-27071930D01*
X95619725Y-27030058D01*
X95602810Y-26999081D01*
X95553797Y-26867671D01*
X95553793Y-26867664D01*
X95467547Y-26752455D01*
X95467544Y-26752452D01*
X95352335Y-26666206D01*
X95352328Y-26666202D01*
X95217482Y-26615908D01*
X95217483Y-26615908D01*
X95157883Y-26609501D01*
X95157881Y-26609500D01*
X95157873Y-26609500D01*
X95157864Y-26609500D01*
X93362129Y-26609500D01*
X93362123Y-26609501D01*
X93302516Y-26615908D01*
X93167671Y-26666202D01*
X93167664Y-26666206D01*
X93052455Y-26752452D01*
X93052452Y-26752455D01*
X92966206Y-26867664D01*
X92966202Y-26867671D01*
X92915908Y-27002517D01*
X92909501Y-27062116D01*
X92909500Y-27062135D01*
X92909500Y-28857870D01*
X92909501Y-28857876D01*
X92915908Y-28917483D01*
X92966202Y-29052328D01*
X92966206Y-29052335D01*
X93052452Y-29167544D01*
X93052455Y-29167547D01*
X93167664Y-29253793D01*
X93167671Y-29253797D01*
X93299081Y-29302810D01*
X93355015Y-29344681D01*
X93379432Y-29410145D01*
X93364580Y-29478418D01*
X93343430Y-29506673D01*
X93221503Y-29628600D01*
X93085965Y-29822169D01*
X93085964Y-29822171D01*
X92986098Y-30036335D01*
X92986094Y-30036344D01*
X92924938Y-30264586D01*
X92924936Y-30264596D01*
X92904341Y-30499999D01*
X92904341Y-30500000D01*
X92924936Y-30735403D01*
X92924938Y-30735413D01*
X92986094Y-30963655D01*
X92986096Y-30963659D01*
X92986097Y-30963663D01*
X93037590Y-31074090D01*
X93085965Y-31177830D01*
X93085967Y-31177834D01*
X93151719Y-31271737D01*
X93221501Y-31371396D01*
X93221506Y-31371402D01*
X93388597Y-31538493D01*
X93388603Y-31538498D01*
X93574158Y-31668425D01*
X93617783Y-31723002D01*
X93624977Y-31792500D01*
X93593454Y-31854855D01*
X93574158Y-31871575D01*
X93388597Y-32001505D01*
X93221505Y-32168597D01*
X93085965Y-32362169D01*
X93085964Y-32362171D01*
X92986098Y-32576335D01*
X92986094Y-32576344D01*
X92924938Y-32804586D01*
X92924936Y-32804596D01*
X92904341Y-33039999D01*
X92904341Y-33040000D01*
X92924936Y-33275403D01*
X92924938Y-33275413D01*
X92986094Y-33503655D01*
X92986096Y-33503659D01*
X92986097Y-33503663D01*
X93069155Y-33681781D01*
X93085965Y-33717830D01*
X93085967Y-33717834D01*
X93194281Y-33872521D01*
X93221501Y-33911396D01*
X93221506Y-33911402D01*
X93388597Y-34078493D01*
X93388603Y-34078498D01*
X93574158Y-34208425D01*
X93617783Y-34263002D01*
X93624977Y-34332500D01*
X93593454Y-34394855D01*
X93574158Y-34411575D01*
X93388597Y-34541505D01*
X93221505Y-34708597D01*
X93085965Y-34902169D01*
X93085964Y-34902171D01*
X92986098Y-35116335D01*
X92986094Y-35116344D01*
X92924938Y-35344586D01*
X92924936Y-35344596D01*
X92904341Y-35579999D01*
X92904341Y-35580000D01*
X92924936Y-35815403D01*
X92924938Y-35815413D01*
X92986094Y-36043655D01*
X92986096Y-36043659D01*
X92986097Y-36043663D01*
X92990000Y-36052032D01*
X93085965Y-36257830D01*
X93085967Y-36257834D01*
X93194281Y-36412521D01*
X93221501Y-36451396D01*
X93221506Y-36451402D01*
X93388597Y-36618493D01*
X93388603Y-36618498D01*
X93574158Y-36748425D01*
X93617783Y-36803002D01*
X93624977Y-36872500D01*
X93593454Y-36934855D01*
X93574158Y-36951575D01*
X93388597Y-37081505D01*
X93221505Y-37248597D01*
X93085965Y-37442169D01*
X93085964Y-37442171D01*
X92986098Y-37656335D01*
X92986094Y-37656344D01*
X92924938Y-37884586D01*
X92924936Y-37884596D01*
X92904341Y-38119999D01*
X92904341Y-38120000D01*
X92924936Y-38355403D01*
X92924938Y-38355413D01*
X92986094Y-38583655D01*
X92986096Y-38583659D01*
X92986097Y-38583663D01*
X92990000Y-38592032D01*
X93085965Y-38797830D01*
X93085967Y-38797834D01*
X93194281Y-38952521D01*
X93221505Y-38991401D01*
X93388599Y-39158495D01*
X93485384Y-39226265D01*
X93582165Y-39294032D01*
X93582167Y-39294033D01*
X93582170Y-39294035D01*
X93796337Y-39393903D01*
X94024592Y-39455063D01*
X94212918Y-39471539D01*
X94259999Y-39475659D01*
X94260000Y-39475659D01*
X94260001Y-39475659D01*
X94299234Y-39472226D01*
X94495408Y-39455063D01*
X94723663Y-39393903D01*
X94937830Y-39294035D01*
X95131401Y-39158495D01*
X95298495Y-38991401D01*
X95428425Y-38805842D01*
X95483002Y-38762217D01*
X95552500Y-38755023D01*
X95614855Y-38786546D01*
X95631575Y-38805842D01*
X95761500Y-38991395D01*
X95761505Y-38991401D01*
X95928599Y-39158495D01*
X96025384Y-39226265D01*
X96122165Y-39294032D01*
X96122167Y-39294033D01*
X96122170Y-39294035D01*
X96336337Y-39393903D01*
X96564592Y-39455063D01*
X96752918Y-39471539D01*
X96799999Y-39475659D01*
X96800000Y-39475659D01*
X96800001Y-39475659D01*
X96839234Y-39472226D01*
X97035408Y-39455063D01*
X97263663Y-39393903D01*
X97477830Y-39294035D01*
X97671401Y-39158495D01*
X97838495Y-38991401D01*
X97974035Y-38797830D01*
X98073903Y-38583663D01*
X98135063Y-38355408D01*
X98155659Y-38120000D01*
X98135063Y-37884592D01*
X98073903Y-37656337D01*
X97974035Y-37442171D01*
X97968425Y-37434158D01*
X97838494Y-37248597D01*
X97671402Y-37081506D01*
X97671396Y-37081501D01*
X97485842Y-36951575D01*
X97442217Y-36896998D01*
X97435023Y-36827500D01*
X97466546Y-36765145D01*
X97485842Y-36748425D01*
X97508026Y-36732891D01*
X97671401Y-36618495D01*
X97838495Y-36451401D01*
X97974035Y-36257830D01*
X98073903Y-36043663D01*
X98135063Y-35815408D01*
X98155659Y-35580000D01*
X98135063Y-35344592D01*
X98073903Y-35116337D01*
X97974035Y-34902171D01*
X97968425Y-34894158D01*
X97838494Y-34708597D01*
X97671402Y-34541506D01*
X97671401Y-34541505D01*
X97485405Y-34411269D01*
X97441781Y-34356692D01*
X97434588Y-34287193D01*
X97466110Y-34224839D01*
X97485405Y-34208119D01*
X97671082Y-34078105D01*
X97838105Y-33911082D01*
X97973600Y-33717578D01*
X98073429Y-33503492D01*
X98073432Y-33503486D01*
X98130636Y-33290000D01*
X97233686Y-33290000D01*
X97259493Y-33249844D01*
X97300000Y-33111889D01*
X97300000Y-32968111D01*
X97259493Y-32830156D01*
X97233686Y-32790000D01*
X98130636Y-32790000D01*
X98130635Y-32789999D01*
X98073432Y-32576513D01*
X98073429Y-32576507D01*
X97973600Y-32362422D01*
X97973599Y-32362420D01*
X97838113Y-32168926D01*
X97838108Y-32168920D01*
X97671078Y-32001890D01*
X97485405Y-31871879D01*
X97441780Y-31817302D01*
X97434588Y-31747804D01*
X97466110Y-31685449D01*
X97485406Y-31668730D01*
X97485842Y-31668425D01*
X97671401Y-31538495D01*
X97838495Y-31371401D01*
X97974035Y-31177830D01*
X98073903Y-30963663D01*
X98135063Y-30735408D01*
X98155659Y-30500000D01*
X98155659Y-30499999D01*
X98155659Y-30499611D01*
X98155707Y-30499445D01*
X98156131Y-30494606D01*
X98157103Y-30494691D01*
X98175344Y-30432572D01*
X98228148Y-30386817D01*
X98297306Y-30376873D01*
X98360862Y-30405898D01*
X98367340Y-30411930D01*
X98993181Y-31037771D01*
X99026666Y-31099094D01*
X99029500Y-31125452D01*
X99029500Y-54301312D01*
X99009815Y-54368351D01*
X98997650Y-54384284D01*
X98922466Y-54467784D01*
X98827821Y-54631715D01*
X98827818Y-54631722D01*
X98769327Y-54811740D01*
X98769326Y-54811744D01*
X98749540Y-55000000D01*
X98769326Y-55188256D01*
X98769327Y-55188259D01*
X98827818Y-55368277D01*
X98827821Y-55368284D01*
X98922467Y-55532216D01*
X98965772Y-55580310D01*
X98997650Y-55615715D01*
X99027880Y-55678706D01*
X99029500Y-55698687D01*
X99029500Y-57724773D01*
X99009815Y-57791812D01*
X98976623Y-57826348D01*
X98783597Y-57961505D01*
X98616505Y-58128597D01*
X98486575Y-58314158D01*
X98431998Y-58357783D01*
X98362500Y-58364977D01*
X98300145Y-58333454D01*
X98283425Y-58314158D01*
X98153494Y-58128597D01*
X97986402Y-57961506D01*
X97986395Y-57961501D01*
X97792834Y-57825967D01*
X97792830Y-57825965D01*
X97721727Y-57792809D01*
X97578663Y-57726097D01*
X97578659Y-57726096D01*
X97578655Y-57726094D01*
X97350413Y-57664938D01*
X97350403Y-57664936D01*
X97115001Y-57644341D01*
X97114999Y-57644341D01*
X96879596Y-57664936D01*
X96879586Y-57664938D01*
X96651344Y-57726094D01*
X96651335Y-57726098D01*
X96437171Y-57825964D01*
X96437169Y-57825965D01*
X96243600Y-57961503D01*
X96121284Y-58083819D01*
X96059961Y-58117303D01*
X95990269Y-58112319D01*
X95934336Y-58070447D01*
X95917421Y-58039470D01*
X95868354Y-57907913D01*
X95868350Y-57907906D01*
X95782190Y-57792812D01*
X95782187Y-57792809D01*
X95667093Y-57706649D01*
X95667086Y-57706645D01*
X95532379Y-57656403D01*
X95532372Y-57656401D01*
X95472844Y-57650000D01*
X94825000Y-57650000D01*
X94825000Y-58564498D01*
X94717315Y-58515320D01*
X94610763Y-58500000D01*
X94539237Y-58500000D01*
X94432685Y-58515320D01*
X94325000Y-58564498D01*
X94325000Y-57650000D01*
X93677155Y-57650000D01*
X93617627Y-57656401D01*
X93617620Y-57656403D01*
X93482913Y-57706645D01*
X93482906Y-57706649D01*
X93367812Y-57792809D01*
X93367809Y-57792812D01*
X93281649Y-57907906D01*
X93281645Y-57907913D01*
X93231403Y-58042620D01*
X93231401Y-58042627D01*
X93225000Y-58102155D01*
X93225000Y-58750000D01*
X94141314Y-58750000D01*
X94115507Y-58790156D01*
X94075000Y-58928111D01*
X94075000Y-59071889D01*
X94115507Y-59209844D01*
X94141314Y-59250000D01*
X93225000Y-59250000D01*
X93225000Y-59897844D01*
X93231401Y-59957372D01*
X93231403Y-59957379D01*
X93281645Y-60092086D01*
X93281649Y-60092093D01*
X93367809Y-60207187D01*
X93367812Y-60207190D01*
X93482906Y-60293350D01*
X93482913Y-60293354D01*
X93617620Y-60343596D01*
X93617627Y-60343598D01*
X93677155Y-60349999D01*
X93677172Y-60350000D01*
X94325000Y-60350000D01*
X94325000Y-59435501D01*
X94432685Y-59484680D01*
X94539237Y-59500000D01*
X94610763Y-59500000D01*
X94717315Y-59484680D01*
X94825000Y-59435501D01*
X94825000Y-60350000D01*
X95472828Y-60350000D01*
X95472844Y-60349999D01*
X95532372Y-60343598D01*
X95532379Y-60343596D01*
X95667086Y-60293354D01*
X95667093Y-60293350D01*
X95782187Y-60207190D01*
X95782190Y-60207187D01*
X95868350Y-60092093D01*
X95868354Y-60092086D01*
X95917422Y-59960529D01*
X95959293Y-59904595D01*
X96024757Y-59880178D01*
X96093030Y-59895030D01*
X96121285Y-59916181D01*
X96243599Y-60038495D01*
X96319611Y-60091719D01*
X96437165Y-60174032D01*
X96437167Y-60174033D01*
X96437170Y-60174035D01*
X96651337Y-60273903D01*
X96879592Y-60335063D01*
X97050319Y-60350000D01*
X97114999Y-60355659D01*
X97115388Y-60355659D01*
X97115553Y-60355707D01*
X97120394Y-60356131D01*
X97120308Y-60357103D01*
X97182427Y-60375344D01*
X97228182Y-60428148D01*
X97238126Y-60497306D01*
X97209101Y-60560862D01*
X97203069Y-60567340D01*
X91116208Y-66654199D01*
X91103951Y-66664020D01*
X91104134Y-66664241D01*
X91098123Y-66669213D01*
X91050772Y-66719636D01*
X91029889Y-66740519D01*
X91029877Y-66740532D01*
X91025621Y-66746017D01*
X91021837Y-66750447D01*
X90989937Y-66784418D01*
X90989936Y-66784420D01*
X90980284Y-66801976D01*
X90969610Y-66818226D01*
X90957329Y-66834061D01*
X90957324Y-66834068D01*
X90938815Y-66876838D01*
X90936245Y-66882084D01*
X90913803Y-66922906D01*
X90908822Y-66942307D01*
X90902521Y-66960710D01*
X90894562Y-66979102D01*
X90894561Y-66979105D01*
X90887271Y-67025127D01*
X90886087Y-67030846D01*
X90874501Y-67075972D01*
X90874500Y-67075982D01*
X90874500Y-67096016D01*
X90872973Y-67115415D01*
X90869840Y-67135194D01*
X90869840Y-67135195D01*
X74500000Y-67135195D01*
X74500000Y-59550001D01*
X77844390Y-59550001D01*
X77864804Y-59835433D01*
X77925628Y-60115037D01*
X77925630Y-60115043D01*
X77925631Y-60115046D01*
X78025633Y-60383161D01*
X78025635Y-60383166D01*
X78162770Y-60634309D01*
X78162775Y-60634317D01*
X78334254Y-60863387D01*
X78334270Y-60863405D01*
X78536594Y-61065729D01*
X78536612Y-61065745D01*
X78765682Y-61237224D01*
X78765690Y-61237229D01*
X79016833Y-61374364D01*
X79016832Y-61374364D01*
X79016836Y-61374365D01*
X79016839Y-61374367D01*
X79284954Y-61474369D01*
X79284960Y-61474370D01*
X79284962Y-61474371D01*
X79564566Y-61535195D01*
X79564568Y-61535195D01*
X79564572Y-61535196D01*
X79778552Y-61550500D01*
X79921448Y-61550500D01*
X80135428Y-61535196D01*
X80415046Y-61474369D01*
X80683161Y-61374367D01*
X80934315Y-61237226D01*
X81163395Y-61065739D01*
X81365739Y-60863395D01*
X81537226Y-60634315D01*
X81674367Y-60383161D01*
X81774369Y-60115046D01*
X81779443Y-60091720D01*
X81835195Y-59835433D01*
X81835195Y-59835432D01*
X81835196Y-59835428D01*
X81855610Y-59550000D01*
X81835196Y-59264572D01*
X81793620Y-59073451D01*
X81774371Y-58984962D01*
X81774370Y-58984960D01*
X81774369Y-58984954D01*
X81674367Y-58716839D01*
X81555963Y-58500000D01*
X81537229Y-58465690D01*
X81537224Y-58465682D01*
X81365745Y-58236612D01*
X81365729Y-58236594D01*
X81163405Y-58034270D01*
X81163387Y-58034254D01*
X80934317Y-57862775D01*
X80934309Y-57862770D01*
X80683166Y-57725635D01*
X80683167Y-57725635D01*
X80520426Y-57664936D01*
X80415046Y-57625631D01*
X80415043Y-57625630D01*
X80415037Y-57625628D01*
X80135433Y-57564804D01*
X79921448Y-57549500D01*
X79778552Y-57549500D01*
X79564566Y-57564804D01*
X79284962Y-57625628D01*
X79016833Y-57725635D01*
X78765690Y-57862770D01*
X78765682Y-57862775D01*
X78536612Y-58034254D01*
X78536594Y-58034270D01*
X78334270Y-58236594D01*
X78334254Y-58236612D01*
X78162775Y-58465682D01*
X78162770Y-58465690D01*
X78025635Y-58716833D01*
X77925628Y-58984962D01*
X77864804Y-59264566D01*
X77844390Y-59549998D01*
X77844390Y-59550001D01*
X74500000Y-59550001D01*
X74500000Y-40624000D01*
X74519685Y-40556961D01*
X74572489Y-40511206D01*
X74624000Y-40500000D01*
X89500000Y-40500000D01*
X89500000Y-21124000D01*
X89519685Y-21056961D01*
X89572489Y-21011206D01*
X89624000Y-21000000D01*
X114876000Y-21000000D01*
X114943039Y-21019685D01*
G37*
G04 #@! TD.AperFunction*
G04 #@! TA.AperFunction,Conductor*
G36*
X107049231Y-47419685D02*
G01*
X107069873Y-47436319D01*
X107620400Y-47986847D01*
X107615408Y-47987565D01*
X107482530Y-48048248D01*
X107372131Y-48143910D01*
X107293155Y-48266799D01*
X107270477Y-48344030D01*
X106708258Y-47781811D01*
X106708257Y-47781812D01*
X106662903Y-47846586D01*
X106569579Y-48046720D01*
X106569575Y-48046729D01*
X106512426Y-48260013D01*
X106512424Y-48260023D01*
X106493179Y-48479999D01*
X106493179Y-48480000D01*
X106512424Y-48699976D01*
X106512426Y-48699986D01*
X106569575Y-48913270D01*
X106569580Y-48913284D01*
X106662899Y-49113407D01*
X106662900Y-49113409D01*
X106708258Y-49178187D01*
X107270477Y-48615968D01*
X107293155Y-48693201D01*
X107372131Y-48816090D01*
X107482530Y-48911752D01*
X107615408Y-48972435D01*
X107620400Y-48973152D01*
X107061811Y-49531741D01*
X107126582Y-49577094D01*
X107126588Y-49577098D01*
X107256373Y-49637618D01*
X107308812Y-49683790D01*
X107327964Y-49750984D01*
X107307748Y-49817865D01*
X107256373Y-49862382D01*
X107126586Y-49922903D01*
X107061812Y-49968257D01*
X107061811Y-49968258D01*
X107620400Y-50526847D01*
X107615408Y-50527565D01*
X107482530Y-50588248D01*
X107372131Y-50683910D01*
X107293155Y-50806799D01*
X107270477Y-50884030D01*
X106708258Y-50321811D01*
X106708257Y-50321812D01*
X106662903Y-50386586D01*
X106569579Y-50586720D01*
X106569575Y-50586729D01*
X106512426Y-50800013D01*
X106512424Y-50800023D01*
X106493179Y-51019999D01*
X106493179Y-51020000D01*
X106512424Y-51239976D01*
X106512426Y-51239986D01*
X106569575Y-51453270D01*
X106569580Y-51453284D01*
X106662899Y-51653407D01*
X106662900Y-51653409D01*
X106708258Y-51718187D01*
X107270477Y-51155968D01*
X107293155Y-51233201D01*
X107372131Y-51356090D01*
X107482530Y-51451752D01*
X107615408Y-51512435D01*
X107620400Y-51513152D01*
X107061811Y-52071741D01*
X107126582Y-52117094D01*
X107126588Y-52117098D01*
X107256373Y-52177618D01*
X107308812Y-52223790D01*
X107327964Y-52290984D01*
X107307748Y-52357865D01*
X107256373Y-52402382D01*
X107126586Y-52462903D01*
X107061812Y-52508257D01*
X107061811Y-52508258D01*
X107620400Y-53066847D01*
X107615408Y-53067565D01*
X107482530Y-53128248D01*
X107372131Y-53223910D01*
X107293155Y-53346799D01*
X107270477Y-53424030D01*
X106708258Y-52861811D01*
X106708257Y-52861812D01*
X106662903Y-52926586D01*
X106569579Y-53126720D01*
X106569575Y-53126729D01*
X106512426Y-53340013D01*
X106512424Y-53340023D01*
X106493179Y-53559999D01*
X106493179Y-53560000D01*
X106512424Y-53779976D01*
X106512426Y-53779986D01*
X106569575Y-53993270D01*
X106569580Y-53993284D01*
X106662899Y-54193407D01*
X106662900Y-54193409D01*
X106708258Y-54258187D01*
X107270477Y-53695968D01*
X107293155Y-53773201D01*
X107372131Y-53896090D01*
X107482530Y-53991752D01*
X107615408Y-54052435D01*
X107620400Y-54053152D01*
X107061811Y-54611741D01*
X107126582Y-54657094D01*
X107126588Y-54657098D01*
X107256373Y-54717618D01*
X107308812Y-54763790D01*
X107327964Y-54830984D01*
X107307748Y-54897865D01*
X107256373Y-54942382D01*
X107126586Y-55002903D01*
X107061812Y-55048257D01*
X107061811Y-55048258D01*
X107620400Y-55606847D01*
X107615408Y-55607565D01*
X107482530Y-55668248D01*
X107372131Y-55763910D01*
X107293155Y-55886799D01*
X107270477Y-55964030D01*
X106708258Y-55401811D01*
X106708257Y-55401812D01*
X106662903Y-55466586D01*
X106569579Y-55666720D01*
X106569575Y-55666729D01*
X106512426Y-55880013D01*
X106512424Y-55880023D01*
X106493179Y-56099999D01*
X106493179Y-56100000D01*
X106512424Y-56319976D01*
X106512426Y-56319986D01*
X106569575Y-56533270D01*
X106569580Y-56533284D01*
X106662899Y-56733407D01*
X106662900Y-56733409D01*
X106708258Y-56798187D01*
X107270477Y-56235968D01*
X107293155Y-56313201D01*
X107372131Y-56436090D01*
X107482530Y-56531752D01*
X107615408Y-56592435D01*
X107620400Y-56593152D01*
X107061811Y-57151741D01*
X107126582Y-57197094D01*
X107126588Y-57197098D01*
X107256373Y-57257618D01*
X107308812Y-57303790D01*
X107327964Y-57370984D01*
X107307748Y-57437865D01*
X107256373Y-57482382D01*
X107126586Y-57542903D01*
X107061812Y-57588257D01*
X107061811Y-57588258D01*
X107620400Y-58146847D01*
X107615408Y-58147565D01*
X107482530Y-58208248D01*
X107372131Y-58303910D01*
X107293155Y-58426799D01*
X107270477Y-58504031D01*
X106708258Y-57941812D01*
X106708257Y-57941812D01*
X106662903Y-58006586D01*
X106569579Y-58206720D01*
X106569575Y-58206729D01*
X106512426Y-58420013D01*
X106512424Y-58420023D01*
X106493179Y-58639999D01*
X106493179Y-58640000D01*
X106512424Y-58859976D01*
X106512426Y-58859986D01*
X106569575Y-59073270D01*
X106569580Y-59073284D01*
X106662899Y-59273407D01*
X106662900Y-59273409D01*
X106754955Y-59404876D01*
X106777282Y-59471082D01*
X106760272Y-59538850D01*
X106709324Y-59586663D01*
X106653380Y-59600000D01*
X101724000Y-59600000D01*
X101656961Y-59580315D01*
X101611206Y-59527511D01*
X101600000Y-59476000D01*
X101600000Y-52451362D01*
X101619685Y-52384323D01*
X101636319Y-52363681D01*
X106563681Y-47436319D01*
X106625004Y-47402834D01*
X106651362Y-47400000D01*
X106982192Y-47400000D01*
X107049231Y-47419685D01*
G37*
G04 #@! TD.AperFunction*
G04 #@! TA.AperFunction,Conductor*
G36*
X108775054Y-56761501D02*
G01*
X108800000Y-56807186D01*
X108800000Y-57931617D01*
X108778127Y-57975314D01*
X108775054Y-57978498D01*
X108249521Y-58504030D01*
X108226845Y-58426799D01*
X108147869Y-58303910D01*
X108037470Y-58208248D01*
X107904592Y-58147565D01*
X107899599Y-58146847D01*
X108458187Y-57588258D01*
X108393409Y-57542900D01*
X108393407Y-57542899D01*
X108263627Y-57482382D01*
X108211187Y-57436210D01*
X108192035Y-57369017D01*
X108212251Y-57302135D01*
X108263627Y-57257618D01*
X108393408Y-57197100D01*
X108393420Y-57197093D01*
X108458186Y-57151742D01*
X108458187Y-57151740D01*
X107899600Y-56593152D01*
X107904592Y-56592435D01*
X108037470Y-56531752D01*
X108147869Y-56436090D01*
X108226845Y-56313201D01*
X108249522Y-56235969D01*
X108775054Y-56761501D01*
G37*
G04 #@! TD.AperFunction*
G04 #@! TA.AperFunction,Conductor*
G36*
X108775054Y-54221501D02*
G01*
X108800000Y-54267186D01*
X108800000Y-55391617D01*
X108778127Y-55435314D01*
X108775054Y-55438498D01*
X108249521Y-55964030D01*
X108226845Y-55886799D01*
X108147869Y-55763910D01*
X108037470Y-55668248D01*
X107904592Y-55607565D01*
X107899599Y-55606847D01*
X108458187Y-55048258D01*
X108393409Y-55002900D01*
X108393407Y-55002899D01*
X108263627Y-54942382D01*
X108211187Y-54896210D01*
X108192035Y-54829017D01*
X108212251Y-54762135D01*
X108263627Y-54717618D01*
X108393408Y-54657100D01*
X108393420Y-54657093D01*
X108458186Y-54611742D01*
X108458187Y-54611740D01*
X107899600Y-54053152D01*
X107904592Y-54052435D01*
X108037470Y-53991752D01*
X108147869Y-53896090D01*
X108226845Y-53773201D01*
X108249522Y-53695969D01*
X108775054Y-54221501D01*
G37*
G04 #@! TD.AperFunction*
G04 #@! TA.AperFunction,Conductor*
G36*
X108775054Y-51681501D02*
G01*
X108800000Y-51727186D01*
X108800000Y-52851617D01*
X108778127Y-52895314D01*
X108775054Y-52898498D01*
X108249521Y-53424030D01*
X108226845Y-53346799D01*
X108147869Y-53223910D01*
X108037470Y-53128248D01*
X107904592Y-53067565D01*
X107899599Y-53066847D01*
X108458187Y-52508258D01*
X108393409Y-52462900D01*
X108393407Y-52462899D01*
X108263627Y-52402382D01*
X108211187Y-52356210D01*
X108192035Y-52289017D01*
X108212251Y-52222135D01*
X108263627Y-52177618D01*
X108393408Y-52117100D01*
X108393420Y-52117093D01*
X108458186Y-52071742D01*
X108458187Y-52071740D01*
X107899600Y-51513152D01*
X107904592Y-51512435D01*
X108037470Y-51451752D01*
X108147869Y-51356090D01*
X108226845Y-51233201D01*
X108249522Y-51155969D01*
X108775054Y-51681501D01*
G37*
G04 #@! TD.AperFunction*
G04 #@! TA.AperFunction,Conductor*
G36*
X108775054Y-49141501D02*
G01*
X108800000Y-49187186D01*
X108800000Y-50311617D01*
X108778127Y-50355314D01*
X108775054Y-50358498D01*
X108249521Y-50884030D01*
X108226845Y-50806799D01*
X108147869Y-50683910D01*
X108037470Y-50588248D01*
X107904592Y-50527565D01*
X107899599Y-50526847D01*
X108458187Y-49968258D01*
X108393409Y-49922900D01*
X108393407Y-49922899D01*
X108263627Y-49862382D01*
X108211187Y-49816210D01*
X108192035Y-49749017D01*
X108212251Y-49682135D01*
X108263627Y-49637618D01*
X108393408Y-49577100D01*
X108393420Y-49577093D01*
X108458186Y-49531742D01*
X108458187Y-49531740D01*
X107899600Y-48973152D01*
X107904592Y-48972435D01*
X108037470Y-48911752D01*
X108147869Y-48816090D01*
X108226845Y-48693201D01*
X108249522Y-48615969D01*
X108775054Y-49141501D01*
G37*
G04 #@! TD.AperFunction*
M02*
