G04 #@! TF.GenerationSoftware,KiCad,Pcbnew,7.0.8-7.0.8~ubuntu22.04.1*
G04 #@! TF.CreationDate,2024-01-26T15:23:50+01:00*
G04 #@! TF.ProjectId,bogie,626f6769-652e-46b6-9963-61645f706362,rev?*
G04 #@! TF.SameCoordinates,Original*
G04 #@! TF.FileFunction,Copper,L2,Bot*
G04 #@! TF.FilePolarity,Positive*
%FSLAX46Y46*%
G04 Gerber Fmt 4.6, Leading zero omitted, Abs format (unit mm)*
G04 Created by KiCad (PCBNEW 7.0.8-7.0.8~ubuntu22.04.1) date 2024-01-26 15:23:50*
%MOMM*%
%LPD*%
G01*
G04 APERTURE LIST*
G04 #@! TA.AperFunction,ComponentPad*
%ADD10C,1.397000*%
G04 #@! TD*
G04 #@! TA.AperFunction,ComponentPad*
%ADD11R,1.700000X1.700000*%
G04 #@! TD*
G04 #@! TA.AperFunction,ComponentPad*
%ADD12O,1.700000X1.700000*%
G04 #@! TD*
G04 #@! TA.AperFunction,ComponentPad*
%ADD13C,1.600200*%
G04 #@! TD*
G04 #@! TA.AperFunction,ComponentPad*
%ADD14C,1.524000*%
G04 #@! TD*
G04 #@! TA.AperFunction,ViaPad*
%ADD15C,0.800000*%
G04 #@! TD*
G04 #@! TA.AperFunction,Conductor*
%ADD16C,0.250000*%
G04 #@! TD*
G04 APERTURE END LIST*
D10*
X94260000Y-74500000D03*
X94260000Y-77040000D03*
X94260000Y-79580000D03*
X94260000Y-82120000D03*
X94260000Y-84660000D03*
X94260000Y-87200000D03*
X94260000Y-89740000D03*
X94260000Y-92280000D03*
X96800000Y-74500000D03*
X96800000Y-77040000D03*
X96800000Y-79580000D03*
X96800000Y-82120000D03*
X96800000Y-84660000D03*
X96800000Y-87200000D03*
X96800000Y-89740000D03*
X96800000Y-92280000D03*
D11*
X94260000Y-27960000D03*
D12*
X96800000Y-27960000D03*
X94260000Y-30500000D03*
X96800000Y-30500000D03*
X94260000Y-33040000D03*
X96800000Y-33040000D03*
X94260000Y-35580000D03*
X96800000Y-35580000D03*
X94260000Y-38120000D03*
X96800000Y-38120000D03*
D11*
X94575000Y-59000000D03*
D12*
X97115000Y-59000000D03*
X99655000Y-59000000D03*
D13*
X108635000Y-30465100D03*
X108635000Y-27925100D03*
D14*
X107760000Y-43400000D03*
X107760000Y-45940000D03*
X107760000Y-48480000D03*
X107760000Y-51020000D03*
X107760000Y-53560000D03*
X107760000Y-56100000D03*
X107760000Y-58640000D03*
X107760000Y-61180000D03*
X107760000Y-63720000D03*
X107760000Y-66260000D03*
X110300000Y-43400000D03*
X110300000Y-45940000D03*
X110300000Y-48480000D03*
X110300000Y-51020000D03*
X110300000Y-53560000D03*
X110300000Y-56100000D03*
X110300000Y-58640000D03*
X110300000Y-61180000D03*
X110300000Y-63720000D03*
X110300000Y-66260000D03*
D15*
X99655000Y-55000000D03*
X123000000Y-52400000D03*
X128900000Y-71500000D03*
X104600000Y-22300000D03*
X106500000Y-89600000D03*
X114300000Y-75000000D03*
X114300000Y-70000000D03*
X96400000Y-47500000D03*
X118900000Y-71500000D03*
X94500000Y-66700000D03*
X123000000Y-42400000D03*
X118000000Y-47400000D03*
X99600000Y-27300000D03*
X101800000Y-44200000D03*
X104600000Y-27300000D03*
X111500000Y-89600000D03*
X118900000Y-66500000D03*
X86400000Y-42500000D03*
X81400000Y-76100000D03*
X91400000Y-42500000D03*
X106500000Y-94600000D03*
X101800000Y-39200000D03*
X128000000Y-47400000D03*
X94500000Y-71700000D03*
X76400000Y-52500000D03*
X128900000Y-66500000D03*
X76400000Y-42500000D03*
X76400000Y-71100000D03*
X101800000Y-49200000D03*
X109300000Y-70000000D03*
X91400000Y-47500000D03*
X111500000Y-94600000D03*
X123900000Y-71500000D03*
X86400000Y-52500000D03*
X76400000Y-76100000D03*
X128000000Y-42400000D03*
X81400000Y-47500000D03*
X123900000Y-66500000D03*
X86400000Y-47500000D03*
X86400000Y-66100000D03*
X118000000Y-42400000D03*
X81400000Y-66100000D03*
X96400000Y-42500000D03*
X128000000Y-52400000D03*
X99500000Y-66700000D03*
X81400000Y-42500000D03*
X109300000Y-75000000D03*
X99600000Y-22300000D03*
X123000000Y-47400000D03*
X81400000Y-71100000D03*
X86400000Y-76100000D03*
X118900000Y-76500000D03*
X81400000Y-52500000D03*
X123900000Y-76500000D03*
X96400000Y-52500000D03*
X91400000Y-52500000D03*
X76400000Y-47500000D03*
X86400000Y-71100000D03*
X99500000Y-71700000D03*
X76400000Y-66100000D03*
X118000000Y-52400000D03*
X128900000Y-76500000D03*
X109975500Y-79925000D03*
X110700000Y-79200000D03*
D16*
X109100000Y-54900000D02*
X99755000Y-54900000D01*
X110300000Y-56100000D02*
X109100000Y-54900000D01*
X99755000Y-54900000D02*
X99655000Y-55000000D01*
X95560000Y-31800000D02*
X102336396Y-31800000D01*
X114200000Y-43663604D02*
X114200000Y-49660000D01*
X102336396Y-31800000D02*
X114200000Y-43663604D01*
X94260000Y-30500000D02*
X95560000Y-31800000D01*
X114200000Y-49660000D02*
X110300000Y-53560000D01*
X94260000Y-33040000D02*
X95520000Y-34300000D01*
X112920000Y-48400000D02*
X110300000Y-51020000D01*
X113600000Y-43700000D02*
X113600000Y-48400000D01*
X113600000Y-48400000D02*
X112920000Y-48400000D01*
X104200000Y-34300000D02*
X113600000Y-43700000D01*
X95520000Y-34300000D02*
X104200000Y-34300000D01*
X111400000Y-57400000D02*
X112500000Y-58500000D01*
X97115000Y-59000000D02*
X98715000Y-57400000D01*
X112500000Y-58500000D02*
X112500000Y-65500000D01*
X111740000Y-66260000D02*
X110300000Y-66260000D01*
X98715000Y-57400000D02*
X111400000Y-57400000D01*
X112500000Y-65500000D02*
X111740000Y-66260000D01*
X95600000Y-86000000D02*
X94260000Y-84660000D01*
X105263604Y-86000000D02*
X95600000Y-86000000D01*
X109975500Y-81288104D02*
X105263604Y-86000000D01*
X109975500Y-79925000D02*
X109975500Y-81288104D01*
X110700000Y-79200000D02*
X110700000Y-81200000D01*
X95360000Y-88300000D02*
X94260000Y-87200000D01*
X110700000Y-81200000D02*
X103600000Y-88300000D01*
X103600000Y-88300000D02*
X95360000Y-88300000D01*
X105500000Y-61000000D02*
X106500000Y-60000000D01*
X95620000Y-78400000D02*
X97150474Y-78400000D01*
X94260000Y-77040000D02*
X95620000Y-78400000D01*
X105500000Y-70050474D02*
X105500000Y-61000000D01*
X106500000Y-60000000D02*
X108940000Y-60000000D01*
X108940000Y-60000000D02*
X110300000Y-58640000D01*
X97150474Y-78400000D02*
X105500000Y-70050474D01*
X108980000Y-62500000D02*
X110300000Y-61180000D01*
X95380000Y-80700000D02*
X97400000Y-80700000D01*
X94260000Y-79580000D02*
X95380000Y-80700000D01*
X97400000Y-80700000D02*
X106000000Y-72100000D01*
X106000000Y-63800000D02*
X107300000Y-62500000D01*
X107300000Y-62500000D02*
X108980000Y-62500000D01*
X106000000Y-72100000D02*
X106000000Y-63800000D01*
X107500000Y-69500000D02*
X106600000Y-68600000D01*
X94260000Y-82120000D02*
X95340000Y-83200000D01*
X95340000Y-83200000D02*
X97300000Y-83200000D01*
X106600000Y-68600000D02*
X106600000Y-65800000D01*
X107500000Y-73000000D02*
X107500000Y-69500000D01*
X109120000Y-64900000D02*
X110300000Y-63720000D01*
X107500000Y-64900000D02*
X109120000Y-64900000D01*
X106600000Y-65800000D02*
X107500000Y-64900000D01*
X97300000Y-83200000D02*
X107500000Y-73000000D01*
G04 #@! TA.AperFunction,Conductor*
G36*
X95267788Y-90394235D02*
G01*
X95267789Y-90394235D01*
X95283349Y-90373632D01*
X95283350Y-90373629D01*
X95382350Y-90174813D01*
X95382352Y-90174808D01*
X95410472Y-90075976D01*
X95447751Y-90016883D01*
X95511061Y-89987325D01*
X95580301Y-89996687D01*
X95633487Y-90041996D01*
X95649005Y-90075975D01*
X95677175Y-90174981D01*
X95677180Y-90174994D01*
X95776222Y-90373896D01*
X95910133Y-90551224D01*
X96074344Y-90700921D01*
X96074346Y-90700923D01*
X96263266Y-90817897D01*
X96263272Y-90817900D01*
X96305693Y-90834333D01*
X96460675Y-90894374D01*
X96516074Y-90936946D01*
X96539665Y-91002713D01*
X96523954Y-91070793D01*
X96473930Y-91119572D01*
X96460684Y-91125621D01*
X96381371Y-91156348D01*
X96263272Y-91202099D01*
X96263266Y-91202102D01*
X96074346Y-91319076D01*
X96074344Y-91319078D01*
X95910133Y-91468775D01*
X95776222Y-91646103D01*
X95677180Y-91845005D01*
X95677174Y-91845020D01*
X95649266Y-91943109D01*
X95611987Y-92002203D01*
X95548677Y-92031760D01*
X95479438Y-92022398D01*
X95426251Y-91977088D01*
X95410734Y-91943109D01*
X95382825Y-91845020D01*
X95382824Y-91845016D01*
X95283778Y-91646104D01*
X95149868Y-91468778D01*
X95149866Y-91468775D01*
X94985655Y-91319078D01*
X94985653Y-91319076D01*
X94796733Y-91202102D01*
X94796727Y-91202099D01*
X94650099Y-91145295D01*
X94598633Y-91125357D01*
X94543232Y-91082785D01*
X94519642Y-91017018D01*
X94535353Y-90948938D01*
X94585377Y-90900159D01*
X94598635Y-90894104D01*
X94796500Y-90817451D01*
X94796509Y-90817447D01*
X94912237Y-90745791D01*
X94912238Y-90745790D01*
X94343398Y-90176950D01*
X94392499Y-90169550D01*
X94513224Y-90111412D01*
X94611450Y-90020272D01*
X94678447Y-89904228D01*
X94696906Y-89823353D01*
X95267788Y-90394235D01*
G37*
G04 #@! TD.AperFunction*
G04 #@! TA.AperFunction,Conductor*
G36*
X95267788Y-75154235D02*
G01*
X95267789Y-75154235D01*
X95283349Y-75133632D01*
X95283350Y-75133629D01*
X95382350Y-74934813D01*
X95382356Y-74934798D01*
X95410734Y-74835061D01*
X95448013Y-74775967D01*
X95511323Y-74746410D01*
X95580562Y-74755772D01*
X95633749Y-74801082D01*
X95649266Y-74835061D01*
X95677643Y-74934798D01*
X95677649Y-74934813D01*
X95776646Y-75133626D01*
X95776651Y-75133634D01*
X95792209Y-75154235D01*
X96360680Y-74585766D01*
X96361749Y-74600028D01*
X96410703Y-74724760D01*
X96494248Y-74829522D01*
X96604960Y-74905004D01*
X96714698Y-74938854D01*
X96147760Y-75505790D01*
X96147761Y-75505791D01*
X96263488Y-75577445D01*
X96263495Y-75577449D01*
X96462058Y-75654373D01*
X96517460Y-75696946D01*
X96541050Y-75762713D01*
X96525339Y-75830794D01*
X96475315Y-75879572D01*
X96462058Y-75885627D01*
X96263497Y-75962549D01*
X96263494Y-75962551D01*
X96147760Y-76034208D01*
X96716602Y-76603049D01*
X96667501Y-76610450D01*
X96546776Y-76668588D01*
X96448550Y-76759728D01*
X96381553Y-76875772D01*
X96363093Y-76956646D01*
X95792210Y-76385762D01*
X95776651Y-76406367D01*
X95776646Y-76406374D01*
X95677649Y-76605186D01*
X95677644Y-76605199D01*
X95649526Y-76704024D01*
X95612246Y-76763117D01*
X95548937Y-76792674D01*
X95479697Y-76783312D01*
X95426511Y-76738002D01*
X95410994Y-76704023D01*
X95382825Y-76605020D01*
X95382824Y-76605016D01*
X95382408Y-76604181D01*
X95283910Y-76406370D01*
X95283778Y-76406104D01*
X95149868Y-76228778D01*
X95149866Y-76228775D01*
X94985655Y-76079078D01*
X94985653Y-76079076D01*
X94796733Y-75962102D01*
X94796727Y-75962099D01*
X94650099Y-75905295D01*
X94598633Y-75885357D01*
X94543232Y-75842785D01*
X94519642Y-75777018D01*
X94535353Y-75708938D01*
X94585377Y-75660159D01*
X94598635Y-75654104D01*
X94796500Y-75577451D01*
X94796509Y-75577447D01*
X94912237Y-75505791D01*
X94912238Y-75505790D01*
X94343398Y-74936950D01*
X94392499Y-74929550D01*
X94513224Y-74871412D01*
X94611450Y-74780272D01*
X94678447Y-74664228D01*
X94696906Y-74583353D01*
X95267788Y-75154235D01*
G37*
G04 #@! TD.AperFunction*
G04 #@! TA.AperFunction,Conductor*
G36*
X111490051Y-42475721D02*
G01*
X111500309Y-42484899D01*
X112938181Y-43922771D01*
X112971666Y-43984094D01*
X112974500Y-44010452D01*
X112974500Y-47652312D01*
X112954815Y-47719351D01*
X112902011Y-47765106D01*
X112854399Y-47776251D01*
X112821374Y-47777289D01*
X112821368Y-47777290D01*
X112802126Y-47782880D01*
X112783087Y-47786823D01*
X112763217Y-47789334D01*
X112763203Y-47789337D01*
X112719883Y-47806488D01*
X112714358Y-47808380D01*
X112669613Y-47821380D01*
X112669610Y-47821381D01*
X112652366Y-47831579D01*
X112634905Y-47840133D01*
X112616274Y-47847510D01*
X112616262Y-47847517D01*
X112578570Y-47874902D01*
X112573687Y-47878109D01*
X112533580Y-47901829D01*
X112519414Y-47915995D01*
X112504624Y-47928627D01*
X112488414Y-47940404D01*
X112488411Y-47940407D01*
X112458710Y-47976309D01*
X112454777Y-47980631D01*
X111771016Y-48664391D01*
X111709693Y-48697876D01*
X111640001Y-48692892D01*
X111584068Y-48651020D01*
X111559651Y-48585556D01*
X111559806Y-48565911D01*
X111567323Y-48480000D01*
X111548070Y-48259932D01*
X111490894Y-48046550D01*
X111397534Y-47846339D01*
X111270826Y-47665380D01*
X111114620Y-47509174D01*
X111114616Y-47509171D01*
X111114615Y-47509170D01*
X110933666Y-47382468D01*
X110933658Y-47382464D01*
X110804811Y-47322382D01*
X110752371Y-47276210D01*
X110733219Y-47209017D01*
X110753435Y-47142135D01*
X110804811Y-47097618D01*
X110810802Y-47094824D01*
X110933662Y-47037534D01*
X111114620Y-46910826D01*
X111270826Y-46754620D01*
X111397534Y-46573662D01*
X111490894Y-46373450D01*
X111548070Y-46160068D01*
X111567323Y-45940000D01*
X111548070Y-45719932D01*
X111490894Y-45506550D01*
X111397534Y-45306339D01*
X111270826Y-45125380D01*
X111114620Y-44969174D01*
X111114616Y-44969171D01*
X111114615Y-44969170D01*
X110933666Y-44842468D01*
X110933658Y-44842464D01*
X110804219Y-44782106D01*
X110751779Y-44735934D01*
X110732627Y-44668741D01*
X110752843Y-44601859D01*
X110804219Y-44557342D01*
X110933408Y-44497100D01*
X110933420Y-44497093D01*
X110998186Y-44451742D01*
X110998187Y-44451740D01*
X110439600Y-43893152D01*
X110444592Y-43892435D01*
X110577470Y-43831752D01*
X110687869Y-43736090D01*
X110766845Y-43613201D01*
X110789522Y-43535968D01*
X111351741Y-44098187D01*
X111351742Y-44098186D01*
X111397093Y-44033420D01*
X111397100Y-44033408D01*
X111490419Y-43833284D01*
X111490424Y-43833270D01*
X111547573Y-43619986D01*
X111547575Y-43619976D01*
X111566821Y-43400000D01*
X111566821Y-43399999D01*
X111547575Y-43180023D01*
X111547573Y-43180013D01*
X111490424Y-42966729D01*
X111490420Y-42966720D01*
X111397099Y-42766591D01*
X111397098Y-42766589D01*
X111311053Y-42643703D01*
X111288726Y-42577497D01*
X111305736Y-42509730D01*
X111356685Y-42461917D01*
X111425394Y-42449239D01*
X111490051Y-42475721D01*
G37*
G04 #@! TD.AperFunction*
G04 #@! TA.AperFunction,Conductor*
G36*
X109833155Y-43613201D02*
G01*
X109912131Y-43736090D01*
X110022530Y-43831752D01*
X110155408Y-43892435D01*
X110160400Y-43893152D01*
X109601811Y-44451741D01*
X109666582Y-44497094D01*
X109666588Y-44497098D01*
X109795781Y-44557342D01*
X109848220Y-44603514D01*
X109867372Y-44670708D01*
X109847156Y-44737589D01*
X109795781Y-44782106D01*
X109666340Y-44842465D01*
X109666338Y-44842466D01*
X109485377Y-44969175D01*
X109329175Y-45125377D01*
X109202466Y-45306338D01*
X109202465Y-45306340D01*
X109142382Y-45435189D01*
X109096209Y-45487628D01*
X109029016Y-45506780D01*
X108962135Y-45486564D01*
X108917618Y-45435189D01*
X108857534Y-45306340D01*
X108857533Y-45306338D01*
X108730827Y-45125381D01*
X108730823Y-45125377D01*
X108574620Y-44969174D01*
X108574616Y-44969171D01*
X108574615Y-44969170D01*
X108393666Y-44842468D01*
X108393658Y-44842464D01*
X108264811Y-44782382D01*
X108212371Y-44736210D01*
X108193219Y-44669017D01*
X108213435Y-44602135D01*
X108264811Y-44557618D01*
X108270802Y-44554824D01*
X108393662Y-44497534D01*
X108574620Y-44370826D01*
X108730826Y-44214620D01*
X108857534Y-44033662D01*
X108917894Y-43904218D01*
X108964066Y-43851779D01*
X109031259Y-43832627D01*
X109098141Y-43852843D01*
X109142658Y-43904219D01*
X109202899Y-44033407D01*
X109202900Y-44033409D01*
X109248258Y-44098187D01*
X109810477Y-43535968D01*
X109833155Y-43613201D01*
G37*
G04 #@! TD.AperFunction*
G04 #@! TA.AperFunction,Conductor*
G36*
X102092983Y-32445185D02*
G01*
X102113625Y-32461819D01*
X103114625Y-33462819D01*
X103148110Y-33524142D01*
X103143126Y-33593834D01*
X103101254Y-33649767D01*
X103035790Y-33674184D01*
X103026944Y-33674500D01*
X98188279Y-33674500D01*
X98121240Y-33654815D01*
X98075485Y-33602011D01*
X98065541Y-33532853D01*
X98071759Y-33508083D01*
X98073432Y-33503485D01*
X98130636Y-33290000D01*
X97233686Y-33290000D01*
X97259493Y-33249844D01*
X97300000Y-33111889D01*
X97300000Y-32968111D01*
X97259493Y-32830156D01*
X97233686Y-32790000D01*
X98130636Y-32790000D01*
X98130636Y-32789999D01*
X98074794Y-32581593D01*
X98076457Y-32511744D01*
X98115619Y-32453881D01*
X98179848Y-32426377D01*
X98194569Y-32425500D01*
X102025944Y-32425500D01*
X102092983Y-32445185D01*
G37*
G04 #@! TD.AperFunction*
G04 #@! TA.AperFunction,Conductor*
G36*
X114943039Y-21019685D02*
G01*
X114988794Y-21072489D01*
X115000000Y-21124000D01*
X115000000Y-40500000D01*
X129876000Y-40500000D01*
X129943039Y-40519685D01*
X129988794Y-40572489D01*
X130000000Y-40624000D01*
X130000000Y-78376000D01*
X129980315Y-78443039D01*
X129927511Y-78488794D01*
X129876000Y-78500000D01*
X115000000Y-78500000D01*
X115000000Y-97876000D01*
X114980315Y-97943039D01*
X114927511Y-97988794D01*
X114876000Y-98000000D01*
X89624000Y-98000000D01*
X89556961Y-97980315D01*
X89511206Y-97927511D01*
X89500000Y-97876000D01*
X89500000Y-78500000D01*
X74624000Y-78500000D01*
X74556961Y-78480315D01*
X74511206Y-78427511D01*
X74500000Y-78376000D01*
X74500000Y-59550001D01*
X77844390Y-59550001D01*
X77864804Y-59835433D01*
X77925628Y-60115037D01*
X77925630Y-60115043D01*
X77925631Y-60115046D01*
X78025633Y-60383161D01*
X78025635Y-60383166D01*
X78162770Y-60634309D01*
X78162775Y-60634317D01*
X78334254Y-60863387D01*
X78334270Y-60863405D01*
X78536594Y-61065729D01*
X78536612Y-61065745D01*
X78765682Y-61237224D01*
X78765690Y-61237229D01*
X79016833Y-61374364D01*
X79016832Y-61374364D01*
X79016836Y-61374365D01*
X79016839Y-61374367D01*
X79284954Y-61474369D01*
X79284960Y-61474370D01*
X79284962Y-61474371D01*
X79564566Y-61535195D01*
X79564568Y-61535195D01*
X79564572Y-61535196D01*
X79778552Y-61550500D01*
X79921448Y-61550500D01*
X80135428Y-61535196D01*
X80415046Y-61474369D01*
X80683161Y-61374367D01*
X80934315Y-61237226D01*
X81163395Y-61065739D01*
X81365739Y-60863395D01*
X81537226Y-60634315D01*
X81674367Y-60383161D01*
X81774369Y-60115046D01*
X81795861Y-60016249D01*
X81835195Y-59835433D01*
X81835195Y-59835432D01*
X81835196Y-59835428D01*
X81855610Y-59550000D01*
X81835196Y-59264572D01*
X81793621Y-59073456D01*
X81774371Y-58984962D01*
X81774370Y-58984960D01*
X81774369Y-58984954D01*
X81674367Y-58716839D01*
X81647088Y-58666882D01*
X81537229Y-58465690D01*
X81537224Y-58465682D01*
X81365745Y-58236612D01*
X81365729Y-58236594D01*
X81163405Y-58034270D01*
X81163387Y-58034254D01*
X80934317Y-57862775D01*
X80934309Y-57862770D01*
X80683166Y-57725635D01*
X80683167Y-57725635D01*
X80520426Y-57664936D01*
X80415046Y-57625631D01*
X80415043Y-57625630D01*
X80415037Y-57625628D01*
X80135433Y-57564804D01*
X79921448Y-57549500D01*
X79778552Y-57549500D01*
X79564566Y-57564804D01*
X79284962Y-57625628D01*
X79016833Y-57725635D01*
X78765690Y-57862770D01*
X78765682Y-57862775D01*
X78536612Y-58034254D01*
X78536594Y-58034270D01*
X78334270Y-58236594D01*
X78334254Y-58236612D01*
X78162775Y-58465682D01*
X78162770Y-58465690D01*
X78025635Y-58716833D01*
X77925628Y-58984962D01*
X77864804Y-59264566D01*
X77844390Y-59549998D01*
X77844390Y-59550001D01*
X74500000Y-59550001D01*
X74500000Y-40624000D01*
X74519685Y-40556961D01*
X74572489Y-40511206D01*
X74624000Y-40500000D01*
X89500000Y-40500000D01*
X89500000Y-38120000D01*
X92904341Y-38120000D01*
X92924936Y-38355403D01*
X92924938Y-38355413D01*
X92986094Y-38583655D01*
X92986096Y-38583659D01*
X92986097Y-38583663D01*
X92990000Y-38592032D01*
X93085965Y-38797830D01*
X93085967Y-38797834D01*
X93194281Y-38952521D01*
X93221505Y-38991401D01*
X93388599Y-39158495D01*
X93485384Y-39226265D01*
X93582165Y-39294032D01*
X93582167Y-39294033D01*
X93582170Y-39294035D01*
X93796337Y-39393903D01*
X94024592Y-39455063D01*
X94212918Y-39471539D01*
X94259999Y-39475659D01*
X94260000Y-39475659D01*
X94260001Y-39475659D01*
X94299234Y-39472226D01*
X94495408Y-39455063D01*
X94723663Y-39393903D01*
X94937830Y-39294035D01*
X95131401Y-39158495D01*
X95298495Y-38991401D01*
X95428425Y-38805842D01*
X95483002Y-38762217D01*
X95552500Y-38755023D01*
X95614855Y-38786546D01*
X95631575Y-38805842D01*
X95761500Y-38991395D01*
X95761505Y-38991401D01*
X95928599Y-39158495D01*
X96025384Y-39226265D01*
X96122165Y-39294032D01*
X96122167Y-39294033D01*
X96122170Y-39294035D01*
X96336337Y-39393903D01*
X96564592Y-39455063D01*
X96752918Y-39471539D01*
X96799999Y-39475659D01*
X96800000Y-39475659D01*
X96800001Y-39475659D01*
X96839234Y-39472226D01*
X97035408Y-39455063D01*
X97263663Y-39393903D01*
X97477830Y-39294035D01*
X97671401Y-39158495D01*
X97838495Y-38991401D01*
X97974035Y-38797830D01*
X98073903Y-38583663D01*
X98135063Y-38355408D01*
X98155659Y-38120000D01*
X98135063Y-37884592D01*
X98073903Y-37656337D01*
X97974035Y-37442171D01*
X97968425Y-37434158D01*
X97838494Y-37248597D01*
X97671402Y-37081506D01*
X97671396Y-37081501D01*
X97485842Y-36951575D01*
X97442217Y-36896998D01*
X97435023Y-36827500D01*
X97466546Y-36765145D01*
X97485842Y-36748425D01*
X97508026Y-36732891D01*
X97671401Y-36618495D01*
X97838495Y-36451401D01*
X97974035Y-36257830D01*
X98073903Y-36043663D01*
X98135063Y-35815408D01*
X98155659Y-35580000D01*
X98135063Y-35344592D01*
X98073903Y-35116337D01*
X98067172Y-35101904D01*
X98056681Y-35032828D01*
X98085201Y-34969044D01*
X98143677Y-34930804D01*
X98179555Y-34925500D01*
X103889548Y-34925500D01*
X103956587Y-34945185D01*
X103977229Y-34961819D01*
X111215101Y-42199691D01*
X111248586Y-42261014D01*
X111243602Y-42330706D01*
X111201730Y-42386639D01*
X111136266Y-42411056D01*
X111067993Y-42396204D01*
X111056296Y-42388947D01*
X110933409Y-42302900D01*
X110933407Y-42302899D01*
X110733284Y-42209580D01*
X110733270Y-42209575D01*
X110519986Y-42152426D01*
X110519976Y-42152424D01*
X110300001Y-42133179D01*
X110299999Y-42133179D01*
X110080023Y-42152424D01*
X110080013Y-42152426D01*
X109866729Y-42209575D01*
X109866720Y-42209579D01*
X109666586Y-42302903D01*
X109601812Y-42348257D01*
X109601811Y-42348258D01*
X110160400Y-42906847D01*
X110155408Y-42907565D01*
X110022530Y-42968248D01*
X109912131Y-43063910D01*
X109833155Y-43186799D01*
X109810477Y-43264030D01*
X109248258Y-42701811D01*
X109248257Y-42701812D01*
X109202903Y-42766586D01*
X109142658Y-42895781D01*
X109096485Y-42948220D01*
X109029292Y-42967372D01*
X108962411Y-42947156D01*
X108917894Y-42895781D01*
X108902906Y-42863639D01*
X108857534Y-42766339D01*
X108730826Y-42585380D01*
X108574620Y-42429174D01*
X108574616Y-42429171D01*
X108574615Y-42429170D01*
X108393666Y-42302468D01*
X108393662Y-42302466D01*
X108393660Y-42302465D01*
X108193450Y-42209106D01*
X108193447Y-42209105D01*
X108193445Y-42209104D01*
X107980070Y-42151930D01*
X107980062Y-42151929D01*
X107760002Y-42132677D01*
X107759998Y-42132677D01*
X107539937Y-42151929D01*
X107539929Y-42151930D01*
X107326554Y-42209104D01*
X107326548Y-42209107D01*
X107126340Y-42302465D01*
X107126338Y-42302466D01*
X106945377Y-42429175D01*
X106789175Y-42585377D01*
X106662466Y-42766338D01*
X106662465Y-42766340D01*
X106569107Y-42966548D01*
X106569104Y-42966554D01*
X106511930Y-43179929D01*
X106511929Y-43179937D01*
X106492677Y-43399997D01*
X106492677Y-43400002D01*
X106511929Y-43620062D01*
X106511930Y-43620070D01*
X106569104Y-43833445D01*
X106569105Y-43833447D01*
X106569106Y-43833450D01*
X106596611Y-43892435D01*
X106662466Y-44033662D01*
X106662468Y-44033666D01*
X106789170Y-44214615D01*
X106789175Y-44214621D01*
X106945378Y-44370824D01*
X106945384Y-44370829D01*
X107126333Y-44497531D01*
X107126335Y-44497532D01*
X107126338Y-44497534D01*
X107245748Y-44553215D01*
X107255189Y-44557618D01*
X107307628Y-44603790D01*
X107326780Y-44670984D01*
X107306564Y-44737865D01*
X107255189Y-44782382D01*
X107126340Y-44842465D01*
X107126338Y-44842466D01*
X106945377Y-44969175D01*
X106789175Y-45125377D01*
X106662466Y-45306338D01*
X106662465Y-45306340D01*
X106569107Y-45506548D01*
X106569104Y-45506554D01*
X106511930Y-45719929D01*
X106511929Y-45719937D01*
X106492677Y-45939997D01*
X106492677Y-45940002D01*
X106511929Y-46160062D01*
X106511930Y-46160070D01*
X106569104Y-46373445D01*
X106569105Y-46373447D01*
X106569106Y-46373450D01*
X106602382Y-46444811D01*
X106662466Y-46573662D01*
X106662468Y-46573666D01*
X106789170Y-46754615D01*
X106789175Y-46754621D01*
X106945378Y-46910824D01*
X106945384Y-46910829D01*
X107126333Y-47037531D01*
X107126335Y-47037532D01*
X107126338Y-47037534D01*
X107245748Y-47093215D01*
X107255189Y-47097618D01*
X107307628Y-47143790D01*
X107326780Y-47210984D01*
X107306564Y-47277865D01*
X107255189Y-47322382D01*
X107126340Y-47382465D01*
X107126338Y-47382466D01*
X106945377Y-47509175D01*
X106789175Y-47665377D01*
X106662466Y-47846338D01*
X106662465Y-47846340D01*
X106569107Y-48046548D01*
X106569104Y-48046554D01*
X106511930Y-48259929D01*
X106511929Y-48259937D01*
X106492677Y-48479997D01*
X106492677Y-48480002D01*
X106511929Y-48700062D01*
X106511930Y-48700070D01*
X106569104Y-48913445D01*
X106569105Y-48913447D01*
X106569106Y-48913450D01*
X106630535Y-49045185D01*
X106662466Y-49113662D01*
X106662468Y-49113666D01*
X106789170Y-49294615D01*
X106789175Y-49294621D01*
X106945378Y-49450824D01*
X106945384Y-49450829D01*
X107126333Y-49577531D01*
X107126335Y-49577532D01*
X107126338Y-49577534D01*
X107233656Y-49627577D01*
X107255189Y-49637618D01*
X107307628Y-49683790D01*
X107326780Y-49750984D01*
X107306564Y-49817865D01*
X107255189Y-49862382D01*
X107126340Y-49922465D01*
X107126338Y-49922466D01*
X106945377Y-50049175D01*
X106789175Y-50205377D01*
X106662466Y-50386338D01*
X106662465Y-50386340D01*
X106569107Y-50586548D01*
X106569104Y-50586554D01*
X106511930Y-50799929D01*
X106511929Y-50799937D01*
X106492677Y-51019997D01*
X106492677Y-51020002D01*
X106511929Y-51240062D01*
X106511930Y-51240070D01*
X106569104Y-51453445D01*
X106569105Y-51453447D01*
X106569106Y-51453450D01*
X106596249Y-51511658D01*
X106662466Y-51653662D01*
X106662468Y-51653666D01*
X106789170Y-51834615D01*
X106789175Y-51834621D01*
X106945378Y-51990824D01*
X106945384Y-51990829D01*
X107126333Y-52117531D01*
X107126335Y-52117532D01*
X107126338Y-52117534D01*
X107245748Y-52173215D01*
X107255189Y-52177618D01*
X107307628Y-52223790D01*
X107326780Y-52290984D01*
X107306564Y-52357865D01*
X107255189Y-52402382D01*
X107126340Y-52462465D01*
X107126338Y-52462466D01*
X106945377Y-52589175D01*
X106789175Y-52745377D01*
X106662466Y-52926338D01*
X106662465Y-52926340D01*
X106569107Y-53126548D01*
X106569104Y-53126554D01*
X106511930Y-53339929D01*
X106511929Y-53339937D01*
X106492677Y-53559997D01*
X106492677Y-53560002D01*
X106511929Y-53780062D01*
X106511930Y-53780070D01*
X106569104Y-53993445D01*
X106569105Y-53993447D01*
X106569106Y-53993450D01*
X106617903Y-54098095D01*
X106628395Y-54167173D01*
X106599875Y-54230957D01*
X106541399Y-54269196D01*
X106505521Y-54274500D01*
X100228747Y-54274500D01*
X100161708Y-54254815D01*
X100155862Y-54250818D01*
X100107734Y-54215851D01*
X100107729Y-54215848D01*
X99934807Y-54138857D01*
X99934802Y-54138855D01*
X99789001Y-54107865D01*
X99749646Y-54099500D01*
X99560354Y-54099500D01*
X99527897Y-54106398D01*
X99375197Y-54138855D01*
X99375192Y-54138857D01*
X99202270Y-54215848D01*
X99202265Y-54215851D01*
X99049129Y-54327111D01*
X98922466Y-54467785D01*
X98827821Y-54631715D01*
X98827818Y-54631722D01*
X98769327Y-54811740D01*
X98769326Y-54811744D01*
X98749540Y-55000000D01*
X98769326Y-55188256D01*
X98769327Y-55188259D01*
X98827818Y-55368277D01*
X98827821Y-55368284D01*
X98922467Y-55532216D01*
X98991010Y-55608340D01*
X99049129Y-55672888D01*
X99202265Y-55784148D01*
X99202270Y-55784151D01*
X99375192Y-55861142D01*
X99375197Y-55861144D01*
X99560354Y-55900500D01*
X99560355Y-55900500D01*
X99749644Y-55900500D01*
X99749646Y-55900500D01*
X99934803Y-55861144D01*
X100107730Y-55784151D01*
X100260871Y-55672888D01*
X100356638Y-55566527D01*
X100416125Y-55529879D01*
X100448788Y-55525500D01*
X106445301Y-55525500D01*
X106512340Y-55545185D01*
X106558095Y-55597989D01*
X106568039Y-55667147D01*
X106565079Y-55681577D01*
X106537595Y-55784151D01*
X106511930Y-55879930D01*
X106511929Y-55879937D01*
X106492677Y-56099997D01*
X106492677Y-56100002D01*
X106511929Y-56320062D01*
X106511930Y-56320070D01*
X106569104Y-56533445D01*
X106569106Y-56533450D01*
X106599251Y-56598097D01*
X106609743Y-56667172D01*
X106581224Y-56730956D01*
X106522747Y-56769196D01*
X106486869Y-56774500D01*
X98797743Y-56774500D01*
X98782122Y-56772775D01*
X98782095Y-56773061D01*
X98774333Y-56772326D01*
X98705172Y-56774500D01*
X98675649Y-56774500D01*
X98668778Y-56775367D01*
X98662959Y-56775825D01*
X98616374Y-56777289D01*
X98616368Y-56777290D01*
X98597126Y-56782880D01*
X98578087Y-56786823D01*
X98558217Y-56789334D01*
X98558203Y-56789337D01*
X98514883Y-56806488D01*
X98509358Y-56808380D01*
X98464613Y-56821380D01*
X98464610Y-56821381D01*
X98447366Y-56831579D01*
X98429905Y-56840133D01*
X98411274Y-56847510D01*
X98411262Y-56847517D01*
X98373570Y-56874902D01*
X98368687Y-56878109D01*
X98328580Y-56901829D01*
X98314414Y-56915995D01*
X98299624Y-56928627D01*
X98283414Y-56940404D01*
X98283411Y-56940407D01*
X98253710Y-56976309D01*
X98249777Y-56980631D01*
X97570646Y-57659762D01*
X97509323Y-57693247D01*
X97450872Y-57691856D01*
X97350413Y-57664938D01*
X97350403Y-57664936D01*
X97115001Y-57644341D01*
X97114999Y-57644341D01*
X96879596Y-57664936D01*
X96879586Y-57664938D01*
X96651344Y-57726094D01*
X96651335Y-57726098D01*
X96437171Y-57825964D01*
X96437169Y-57825965D01*
X96243600Y-57961503D01*
X96121284Y-58083819D01*
X96059961Y-58117303D01*
X95990269Y-58112319D01*
X95934336Y-58070447D01*
X95917421Y-58039470D01*
X95868354Y-57907913D01*
X95868350Y-57907906D01*
X95782190Y-57792812D01*
X95782187Y-57792809D01*
X95667093Y-57706649D01*
X95667086Y-57706645D01*
X95532379Y-57656403D01*
X95532372Y-57656401D01*
X95472844Y-57650000D01*
X94825000Y-57650000D01*
X94825000Y-58564498D01*
X94717315Y-58515320D01*
X94610763Y-58500000D01*
X94539237Y-58500000D01*
X94432685Y-58515320D01*
X94325000Y-58564498D01*
X94325000Y-57650000D01*
X93677155Y-57650000D01*
X93617627Y-57656401D01*
X93617620Y-57656403D01*
X93482913Y-57706645D01*
X93482906Y-57706649D01*
X93367812Y-57792809D01*
X93367809Y-57792812D01*
X93281649Y-57907906D01*
X93281645Y-57907913D01*
X93231403Y-58042620D01*
X93231401Y-58042627D01*
X93225000Y-58102155D01*
X93225000Y-58750000D01*
X94141314Y-58750000D01*
X94115507Y-58790156D01*
X94075000Y-58928111D01*
X94075000Y-59071889D01*
X94115507Y-59209844D01*
X94141314Y-59250000D01*
X93225000Y-59250000D01*
X93225000Y-59897844D01*
X93231401Y-59957372D01*
X93231403Y-59957379D01*
X93281645Y-60092086D01*
X93281649Y-60092093D01*
X93367809Y-60207187D01*
X93367812Y-60207190D01*
X93482906Y-60293350D01*
X93482913Y-60293354D01*
X93617620Y-60343596D01*
X93617627Y-60343598D01*
X93677155Y-60349999D01*
X93677172Y-60350000D01*
X94325000Y-60350000D01*
X94325000Y-59435501D01*
X94432685Y-59484680D01*
X94539237Y-59500000D01*
X94610763Y-59500000D01*
X94717315Y-59484680D01*
X94825000Y-59435501D01*
X94825000Y-60350000D01*
X95472828Y-60350000D01*
X95472844Y-60349999D01*
X95532372Y-60343598D01*
X95532379Y-60343596D01*
X95667086Y-60293354D01*
X95667093Y-60293350D01*
X95782187Y-60207190D01*
X95782190Y-60207187D01*
X95868350Y-60092093D01*
X95868354Y-60092086D01*
X95917422Y-59960529D01*
X95959293Y-59904595D01*
X96024757Y-59880178D01*
X96093030Y-59895030D01*
X96121285Y-59916181D01*
X96243599Y-60038495D01*
X96306393Y-60082464D01*
X96437165Y-60174032D01*
X96437167Y-60174033D01*
X96437170Y-60174035D01*
X96651337Y-60273903D01*
X96879592Y-60335063D01*
X97050319Y-60350000D01*
X97114999Y-60355659D01*
X97115000Y-60355659D01*
X97115001Y-60355659D01*
X97179681Y-60350000D01*
X97350408Y-60335063D01*
X97578663Y-60273903D01*
X97792830Y-60174035D01*
X97986401Y-60038495D01*
X98153495Y-59871401D01*
X98283425Y-59685842D01*
X98338002Y-59642217D01*
X98407500Y-59635023D01*
X98469855Y-59666546D01*
X98486575Y-59685842D01*
X98616500Y-59871395D01*
X98616505Y-59871401D01*
X98783599Y-60038495D01*
X98846393Y-60082464D01*
X98977165Y-60174032D01*
X98977167Y-60174033D01*
X98977170Y-60174035D01*
X99191337Y-60273903D01*
X99419592Y-60335063D01*
X99590319Y-60350000D01*
X99654999Y-60355659D01*
X99655000Y-60355659D01*
X99655001Y-60355659D01*
X99719681Y-60350000D01*
X99890408Y-60335063D01*
X100118663Y-60273903D01*
X100332830Y-60174035D01*
X100526401Y-60038495D01*
X100693495Y-59871401D01*
X100829035Y-59677830D01*
X100928903Y-59463663D01*
X100990063Y-59235408D01*
X101010659Y-59000000D01*
X100990063Y-58764592D01*
X100928903Y-58536337D01*
X100829035Y-58322171D01*
X100809560Y-58294358D01*
X100757931Y-58220623D01*
X100735604Y-58154417D01*
X100752614Y-58086650D01*
X100803562Y-58038837D01*
X100859506Y-58025500D01*
X106458890Y-58025500D01*
X106525929Y-58045185D01*
X106571684Y-58097989D01*
X106581628Y-58167147D01*
X106571273Y-58201903D01*
X106569107Y-58206547D01*
X106569104Y-58206554D01*
X106511930Y-58419929D01*
X106511929Y-58419937D01*
X106492677Y-58639997D01*
X106492677Y-58640002D01*
X106511929Y-58860062D01*
X106511930Y-58860070D01*
X106569104Y-59073445D01*
X106569108Y-59073456D01*
X106626844Y-59197271D01*
X106637336Y-59266348D01*
X106608816Y-59330132D01*
X106550339Y-59368371D01*
X106518359Y-59373614D01*
X106492324Y-59374432D01*
X106490172Y-59374500D01*
X106460649Y-59374500D01*
X106453778Y-59375367D01*
X106447959Y-59375825D01*
X106401374Y-59377289D01*
X106401368Y-59377290D01*
X106382126Y-59382880D01*
X106363087Y-59386823D01*
X106343217Y-59389334D01*
X106343203Y-59389337D01*
X106299883Y-59406488D01*
X106294358Y-59408380D01*
X106249613Y-59421380D01*
X106249610Y-59421381D01*
X106232366Y-59431579D01*
X106214905Y-59440133D01*
X106196274Y-59447510D01*
X106196262Y-59447517D01*
X106158570Y-59474902D01*
X106153687Y-59478109D01*
X106113580Y-59501829D01*
X106099414Y-59515995D01*
X106084624Y-59528627D01*
X106068414Y-59540404D01*
X106068411Y-59540407D01*
X106038710Y-59576309D01*
X106034777Y-59580631D01*
X105116208Y-60499199D01*
X105103951Y-60509020D01*
X105104134Y-60509241D01*
X105098123Y-60514213D01*
X105050772Y-60564636D01*
X105029889Y-60585519D01*
X105029877Y-60585532D01*
X105025621Y-60591017D01*
X105021837Y-60595447D01*
X104989937Y-60629418D01*
X104989936Y-60629420D01*
X104980284Y-60646976D01*
X104969610Y-60663226D01*
X104957329Y-60679061D01*
X104957324Y-60679068D01*
X104938815Y-60721838D01*
X104936245Y-60727084D01*
X104913803Y-60767906D01*
X104908822Y-60787307D01*
X104902521Y-60805710D01*
X104894562Y-60824102D01*
X104894561Y-60824105D01*
X104887271Y-60870127D01*
X104886087Y-60875846D01*
X104874501Y-60920972D01*
X104874500Y-60920982D01*
X104874500Y-60941016D01*
X104872973Y-60960415D01*
X104869840Y-60980194D01*
X104869840Y-60980195D01*
X104874225Y-61026583D01*
X104874500Y-61032421D01*
X104874500Y-69740020D01*
X104854815Y-69807059D01*
X104838181Y-69827701D01*
X98090201Y-76575680D01*
X98028878Y-76609165D01*
X97959186Y-76604181D01*
X97903253Y-76562309D01*
X97891520Y-76543271D01*
X97823351Y-76406370D01*
X97823349Y-76406367D01*
X97807788Y-76385762D01*
X97239319Y-76954231D01*
X97238251Y-76939972D01*
X97189297Y-76815240D01*
X97105752Y-76710478D01*
X96995040Y-76634996D01*
X96885301Y-76601145D01*
X97452238Y-76034208D01*
X97336503Y-75962550D01*
X97336504Y-75962550D01*
X97137941Y-75885627D01*
X97082540Y-75843054D01*
X97058949Y-75777287D01*
X97074660Y-75709207D01*
X97124684Y-75660428D01*
X97137941Y-75654373D01*
X97336503Y-75577450D01*
X97336509Y-75577447D01*
X97452237Y-75505791D01*
X97452238Y-75505790D01*
X96883398Y-74936950D01*
X96932499Y-74929550D01*
X97053224Y-74871412D01*
X97151450Y-74780272D01*
X97218447Y-74664228D01*
X97236906Y-74583353D01*
X97807788Y-75154235D01*
X97807789Y-75154235D01*
X97823349Y-75133632D01*
X97823350Y-75133629D01*
X97922350Y-74934813D01*
X97922356Y-74934798D01*
X97983139Y-74721168D01*
X97983140Y-74721166D01*
X98003634Y-74500000D01*
X98003634Y-74499999D01*
X97983140Y-74278833D01*
X97983139Y-74278831D01*
X97922356Y-74065201D01*
X97922350Y-74065186D01*
X97823351Y-73866370D01*
X97823349Y-73866367D01*
X97807788Y-73845762D01*
X97239319Y-74414232D01*
X97238251Y-74399972D01*
X97189297Y-74275240D01*
X97105752Y-74170478D01*
X96995040Y-74094996D01*
X96885301Y-74061145D01*
X97452238Y-73494208D01*
X97336503Y-73422550D01*
X97336504Y-73422550D01*
X97129392Y-73342315D01*
X96911055Y-73301500D01*
X96688945Y-73301500D01*
X96470607Y-73342315D01*
X96263497Y-73422549D01*
X96263494Y-73422551D01*
X96147760Y-73494208D01*
X96716602Y-74063049D01*
X96667501Y-74070450D01*
X96546776Y-74128588D01*
X96448550Y-74219728D01*
X96381553Y-74335772D01*
X96363093Y-74416645D01*
X95792210Y-73845762D01*
X95776651Y-73866367D01*
X95776646Y-73866374D01*
X95677649Y-74065186D01*
X95677644Y-74065199D01*
X95649266Y-74164939D01*
X95611987Y-74224032D01*
X95548677Y-74253589D01*
X95479437Y-74244227D01*
X95426251Y-74198917D01*
X95410734Y-74164939D01*
X95382355Y-74065199D01*
X95382350Y-74065186D01*
X95283351Y-73866370D01*
X95283349Y-73866367D01*
X95267788Y-73845762D01*
X94699319Y-74414232D01*
X94698251Y-74399972D01*
X94649297Y-74275240D01*
X94565752Y-74170478D01*
X94455040Y-74094996D01*
X94345301Y-74061145D01*
X94912238Y-73494208D01*
X94796503Y-73422550D01*
X94796504Y-73422550D01*
X94589392Y-73342315D01*
X94371055Y-73301500D01*
X94148945Y-73301500D01*
X93930607Y-73342315D01*
X93723497Y-73422549D01*
X93723494Y-73422551D01*
X93607760Y-73494208D01*
X94176602Y-74063049D01*
X94127501Y-74070450D01*
X94006776Y-74128588D01*
X93908550Y-74219728D01*
X93841553Y-74335772D01*
X93823093Y-74416645D01*
X93252210Y-73845762D01*
X93236651Y-73866367D01*
X93236646Y-73866374D01*
X93137649Y-74065186D01*
X93137643Y-74065201D01*
X93076860Y-74278831D01*
X93076859Y-74278833D01*
X93056366Y-74499999D01*
X93056366Y-74500000D01*
X93076859Y-74721166D01*
X93076860Y-74721168D01*
X93137643Y-74934798D01*
X93137649Y-74934813D01*
X93236646Y-75133626D01*
X93236651Y-75133634D01*
X93252209Y-75154235D01*
X93820680Y-74585766D01*
X93821749Y-74600028D01*
X93870703Y-74724760D01*
X93954248Y-74829522D01*
X94064960Y-74905004D01*
X94174698Y-74938854D01*
X93607760Y-75505790D01*
X93607761Y-75505791D01*
X93723488Y-75577445D01*
X93723495Y-75577449D01*
X93921365Y-75654104D01*
X93976766Y-75696677D01*
X94000357Y-75762444D01*
X93984646Y-75830524D01*
X93934622Y-75879303D01*
X93921365Y-75885357D01*
X93723281Y-75962095D01*
X93723266Y-75962102D01*
X93534346Y-76079076D01*
X93534344Y-76079078D01*
X93370133Y-76228775D01*
X93236222Y-76406103D01*
X93137180Y-76605005D01*
X93137174Y-76605020D01*
X93076366Y-76818738D01*
X93076365Y-76818740D01*
X93055863Y-77039999D01*
X93055863Y-77040000D01*
X93076365Y-77261259D01*
X93076366Y-77261261D01*
X93137174Y-77474979D01*
X93137180Y-77474994D01*
X93236222Y-77673896D01*
X93370133Y-77851224D01*
X93534344Y-78000921D01*
X93534346Y-78000923D01*
X93723266Y-78117897D01*
X93723272Y-78117900D01*
X93765693Y-78134333D01*
X93920675Y-78194374D01*
X93976074Y-78236946D01*
X93999665Y-78302713D01*
X93983954Y-78370793D01*
X93933930Y-78419572D01*
X93920684Y-78425621D01*
X93841371Y-78456348D01*
X93723272Y-78502099D01*
X93723266Y-78502102D01*
X93534346Y-78619076D01*
X93534344Y-78619078D01*
X93370133Y-78768775D01*
X93236222Y-78946103D01*
X93137180Y-79145005D01*
X93137174Y-79145020D01*
X93076366Y-79358738D01*
X93076365Y-79358740D01*
X93055863Y-79579999D01*
X93055863Y-79580000D01*
X93076365Y-79801259D01*
X93076366Y-79801261D01*
X93137174Y-80014979D01*
X93137180Y-80014994D01*
X93236222Y-80213896D01*
X93370133Y-80391224D01*
X93534344Y-80540921D01*
X93534346Y-80540923D01*
X93723266Y-80657897D01*
X93723272Y-80657900D01*
X93765693Y-80674333D01*
X93920675Y-80734374D01*
X93976074Y-80776946D01*
X93999665Y-80842713D01*
X93983954Y-80910793D01*
X93933930Y-80959572D01*
X93920684Y-80965621D01*
X93841371Y-80996348D01*
X93723272Y-81042099D01*
X93723266Y-81042102D01*
X93534346Y-81159076D01*
X93534344Y-81159078D01*
X93370133Y-81308775D01*
X93236222Y-81486103D01*
X93137180Y-81685005D01*
X93137174Y-81685020D01*
X93076366Y-81898738D01*
X93076365Y-81898740D01*
X93055863Y-82119999D01*
X93055863Y-82120000D01*
X93076365Y-82341259D01*
X93076366Y-82341261D01*
X93137174Y-82554979D01*
X93137180Y-82554994D01*
X93236222Y-82753896D01*
X93370133Y-82931224D01*
X93534344Y-83080921D01*
X93534346Y-83080923D01*
X93723266Y-83197897D01*
X93723272Y-83197900D01*
X93765693Y-83214333D01*
X93920675Y-83274374D01*
X93976074Y-83316946D01*
X93999665Y-83382713D01*
X93983954Y-83450793D01*
X93933930Y-83499572D01*
X93920684Y-83505621D01*
X93841371Y-83536348D01*
X93723272Y-83582099D01*
X93723266Y-83582102D01*
X93534346Y-83699076D01*
X93534344Y-83699078D01*
X93370133Y-83848775D01*
X93236222Y-84026103D01*
X93137180Y-84225005D01*
X93137174Y-84225020D01*
X93076366Y-84438738D01*
X93076365Y-84438740D01*
X93055863Y-84659999D01*
X93055863Y-84660000D01*
X93076365Y-84881259D01*
X93076366Y-84881261D01*
X93137174Y-85094979D01*
X93137180Y-85094994D01*
X93236222Y-85293896D01*
X93370133Y-85471224D01*
X93534344Y-85620921D01*
X93534346Y-85620923D01*
X93723266Y-85737897D01*
X93723272Y-85737900D01*
X93765693Y-85754333D01*
X93920675Y-85814374D01*
X93976074Y-85856946D01*
X93999665Y-85922713D01*
X93983954Y-85990793D01*
X93933930Y-86039572D01*
X93920684Y-86045621D01*
X93841371Y-86076348D01*
X93723272Y-86122099D01*
X93723266Y-86122102D01*
X93534346Y-86239076D01*
X93534344Y-86239078D01*
X93370133Y-86388775D01*
X93236222Y-86566103D01*
X93137180Y-86765005D01*
X93137174Y-86765020D01*
X93076366Y-86978738D01*
X93076365Y-86978740D01*
X93055863Y-87199999D01*
X93055863Y-87200000D01*
X93076365Y-87421259D01*
X93076366Y-87421261D01*
X93137174Y-87634979D01*
X93137180Y-87634994D01*
X93236222Y-87833896D01*
X93370133Y-88011224D01*
X93534344Y-88160921D01*
X93534346Y-88160923D01*
X93723266Y-88277897D01*
X93723272Y-88277900D01*
X93762684Y-88293168D01*
X93921367Y-88354642D01*
X93976766Y-88397214D01*
X94000357Y-88462981D01*
X93984646Y-88531061D01*
X93934622Y-88579840D01*
X93921365Y-88585894D01*
X93723506Y-88662545D01*
X93723494Y-88662551D01*
X93607760Y-88734208D01*
X94176602Y-89303049D01*
X94127501Y-89310450D01*
X94006776Y-89368588D01*
X93908550Y-89459728D01*
X93841553Y-89575772D01*
X93823093Y-89656645D01*
X93252210Y-89085762D01*
X93236651Y-89106367D01*
X93236646Y-89106374D01*
X93137649Y-89305186D01*
X93137643Y-89305201D01*
X93076860Y-89518831D01*
X93076859Y-89518833D01*
X93056366Y-89739999D01*
X93056366Y-89740000D01*
X93076859Y-89961166D01*
X93076860Y-89961168D01*
X93137643Y-90174798D01*
X93137649Y-90174813D01*
X93236646Y-90373626D01*
X93236651Y-90373634D01*
X93252209Y-90394235D01*
X93820680Y-89825766D01*
X93821749Y-89840028D01*
X93870703Y-89964760D01*
X93954248Y-90069522D01*
X94064960Y-90145004D01*
X94174698Y-90178854D01*
X93607760Y-90745790D01*
X93607761Y-90745791D01*
X93723488Y-90817445D01*
X93723495Y-90817449D01*
X93921365Y-90894104D01*
X93976766Y-90936677D01*
X94000357Y-91002444D01*
X93984646Y-91070524D01*
X93934622Y-91119303D01*
X93921365Y-91125357D01*
X93723281Y-91202095D01*
X93723266Y-91202102D01*
X93534346Y-91319076D01*
X93534344Y-91319078D01*
X93370133Y-91468775D01*
X93236222Y-91646103D01*
X93137180Y-91845005D01*
X93137174Y-91845020D01*
X93076366Y-92058738D01*
X93076365Y-92058740D01*
X93055863Y-92279999D01*
X93055863Y-92280000D01*
X93076365Y-92501259D01*
X93076366Y-92501261D01*
X93137174Y-92714979D01*
X93137180Y-92714994D01*
X93236222Y-92913896D01*
X93370133Y-93091224D01*
X93534344Y-93240921D01*
X93534346Y-93240923D01*
X93723266Y-93357897D01*
X93723272Y-93357900D01*
X93752206Y-93369109D01*
X93930472Y-93438170D01*
X94148896Y-93479000D01*
X94148899Y-93479000D01*
X94371101Y-93479000D01*
X94371104Y-93479000D01*
X94589528Y-93438170D01*
X94796730Y-93357899D01*
X94985655Y-93240922D01*
X95149868Y-93091222D01*
X95283778Y-92913896D01*
X95382824Y-92714984D01*
X95410734Y-92616889D01*
X95448013Y-92557796D01*
X95511323Y-92528239D01*
X95580562Y-92537601D01*
X95633749Y-92582911D01*
X95649266Y-92616890D01*
X95677174Y-92714979D01*
X95677180Y-92714994D01*
X95776222Y-92913896D01*
X95910133Y-93091224D01*
X96074344Y-93240921D01*
X96074346Y-93240923D01*
X96263266Y-93357897D01*
X96263272Y-93357900D01*
X96292206Y-93369109D01*
X96470472Y-93438170D01*
X96688896Y-93479000D01*
X96688899Y-93479000D01*
X96911101Y-93479000D01*
X96911104Y-93479000D01*
X97129528Y-93438170D01*
X97336730Y-93357899D01*
X97525655Y-93240922D01*
X97689868Y-93091222D01*
X97823778Y-92913896D01*
X97922824Y-92714984D01*
X97983634Y-92501260D01*
X98004137Y-92280000D01*
X97983634Y-92058740D01*
X97922824Y-91845016D01*
X97823778Y-91646104D01*
X97689868Y-91468778D01*
X97689866Y-91468775D01*
X97525655Y-91319078D01*
X97525653Y-91319076D01*
X97336733Y-91202102D01*
X97336727Y-91202100D01*
X97139322Y-91125624D01*
X97083925Y-91083054D01*
X97060334Y-91017287D01*
X97076045Y-90949207D01*
X97126069Y-90900428D01*
X97139308Y-90894380D01*
X97336730Y-90817899D01*
X97525655Y-90700922D01*
X97689868Y-90551222D01*
X97823778Y-90373896D01*
X97922824Y-90174984D01*
X97983634Y-89961260D01*
X98004137Y-89740000D01*
X97983634Y-89518740D01*
X97922824Y-89305016D01*
X97823912Y-89106374D01*
X97823115Y-89104772D01*
X97810854Y-89035986D01*
X97837727Y-88971491D01*
X97895203Y-88931764D01*
X97934115Y-88925500D01*
X103517257Y-88925500D01*
X103532877Y-88927224D01*
X103532904Y-88926939D01*
X103540660Y-88927671D01*
X103540667Y-88927673D01*
X103609814Y-88925500D01*
X103639350Y-88925500D01*
X103646228Y-88924630D01*
X103652041Y-88924172D01*
X103698627Y-88922709D01*
X103717869Y-88917117D01*
X103736912Y-88913174D01*
X103756792Y-88910664D01*
X103800122Y-88893507D01*
X103805646Y-88891617D01*
X103809396Y-88890527D01*
X103850390Y-88878618D01*
X103867629Y-88868422D01*
X103885103Y-88859862D01*
X103903727Y-88852488D01*
X103903727Y-88852487D01*
X103903732Y-88852486D01*
X103941449Y-88825082D01*
X103946305Y-88821892D01*
X103986420Y-88798170D01*
X104000589Y-88783999D01*
X104015379Y-88771368D01*
X104031587Y-88759594D01*
X104061299Y-88723676D01*
X104065212Y-88719376D01*
X111083788Y-81700801D01*
X111096042Y-81690986D01*
X111095859Y-81690764D01*
X111101866Y-81685792D01*
X111101877Y-81685786D01*
X111132775Y-81652882D01*
X111149227Y-81635364D01*
X111159671Y-81624918D01*
X111170120Y-81614471D01*
X111174379Y-81608978D01*
X111178152Y-81604561D01*
X111210062Y-81570582D01*
X111219713Y-81553024D01*
X111230396Y-81536761D01*
X111242673Y-81520936D01*
X111261185Y-81478153D01*
X111263738Y-81472941D01*
X111286197Y-81432092D01*
X111291180Y-81412680D01*
X111297481Y-81394280D01*
X111305437Y-81375896D01*
X111312729Y-81329852D01*
X111313906Y-81324171D01*
X111325500Y-81279019D01*
X111325500Y-81258983D01*
X111327027Y-81239582D01*
X111330160Y-81219804D01*
X111325775Y-81173415D01*
X111325500Y-81167577D01*
X111325500Y-79898687D01*
X111345185Y-79831648D01*
X111357350Y-79815715D01*
X111375891Y-79795122D01*
X111432533Y-79732216D01*
X111527179Y-79568284D01*
X111585674Y-79388256D01*
X111605460Y-79200000D01*
X111585674Y-79011744D01*
X111527179Y-78831716D01*
X111432533Y-78667784D01*
X111305871Y-78527112D01*
X111271448Y-78502102D01*
X111152734Y-78415851D01*
X111152729Y-78415848D01*
X110979807Y-78338857D01*
X110979802Y-78338855D01*
X110834001Y-78307865D01*
X110794646Y-78299500D01*
X110605354Y-78299500D01*
X110590238Y-78302713D01*
X110420197Y-78338855D01*
X110420192Y-78338857D01*
X110247270Y-78415848D01*
X110247265Y-78415851D01*
X110094129Y-78527111D01*
X109967466Y-78667785D01*
X109872821Y-78831715D01*
X109872819Y-78831719D01*
X109827061Y-78972549D01*
X109787623Y-79030224D01*
X109734913Y-79055520D01*
X109695694Y-79063856D01*
X109695692Y-79063857D01*
X109522770Y-79140848D01*
X109522765Y-79140851D01*
X109369629Y-79252111D01*
X109242966Y-79392785D01*
X109148321Y-79556715D01*
X109148318Y-79556722D01*
X109129840Y-79613593D01*
X109089826Y-79736744D01*
X109070040Y-79925000D01*
X109089826Y-80113256D01*
X109089827Y-80113259D01*
X109148318Y-80293277D01*
X109148321Y-80293284D01*
X109242967Y-80457216D01*
X109286272Y-80505310D01*
X109318150Y-80540715D01*
X109348380Y-80603706D01*
X109350000Y-80623687D01*
X109350000Y-80977651D01*
X109330315Y-81044690D01*
X109313681Y-81065332D01*
X105040832Y-85338181D01*
X104979509Y-85371666D01*
X104953151Y-85374500D01*
X97983909Y-85374500D01*
X97916870Y-85354815D01*
X97871115Y-85302011D01*
X97861171Y-85232853D01*
X97872909Y-85195228D01*
X97922819Y-85094994D01*
X97922818Y-85094994D01*
X97922824Y-85094984D01*
X97983634Y-84881260D01*
X98004137Y-84660000D01*
X97983634Y-84438740D01*
X97922824Y-84225016D01*
X97823778Y-84026104D01*
X97689868Y-83848778D01*
X97689865Y-83848775D01*
X97688610Y-83847113D01*
X97663918Y-83781752D01*
X97678483Y-83713417D01*
X97699879Y-83684710D01*
X97700590Y-83683999D01*
X97715379Y-83671368D01*
X97731587Y-83659594D01*
X97761299Y-83623676D01*
X97765212Y-83619376D01*
X107883788Y-73500801D01*
X107896042Y-73490986D01*
X107895859Y-73490764D01*
X107901866Y-73485792D01*
X107901877Y-73485786D01*
X107932775Y-73452882D01*
X107949227Y-73435364D01*
X107959671Y-73424918D01*
X107970120Y-73414471D01*
X107974379Y-73408978D01*
X107978152Y-73404561D01*
X108010062Y-73370582D01*
X108019713Y-73353024D01*
X108030396Y-73336761D01*
X108042673Y-73320936D01*
X108061185Y-73278153D01*
X108063738Y-73272941D01*
X108086197Y-73232092D01*
X108091180Y-73212680D01*
X108097481Y-73194280D01*
X108105437Y-73175896D01*
X108112729Y-73129852D01*
X108113906Y-73124171D01*
X108125500Y-73079019D01*
X108125500Y-73058983D01*
X108127027Y-73039582D01*
X108130160Y-73019804D01*
X108125775Y-72973415D01*
X108125500Y-72967577D01*
X108125500Y-69582737D01*
X108127224Y-69567123D01*
X108126938Y-69567096D01*
X108127672Y-69559333D01*
X108125500Y-69490203D01*
X108125500Y-69460651D01*
X108125500Y-69460650D01*
X108124629Y-69453759D01*
X108124172Y-69447945D01*
X108122709Y-69401372D01*
X108117122Y-69382144D01*
X108113174Y-69363084D01*
X108110664Y-69343208D01*
X108093507Y-69299875D01*
X108091619Y-69294359D01*
X108078619Y-69249612D01*
X108068418Y-69232363D01*
X108059860Y-69214894D01*
X108052486Y-69196268D01*
X108052483Y-69196264D01*
X108052483Y-69196263D01*
X108025098Y-69158571D01*
X108021890Y-69153687D01*
X107998172Y-69113582D01*
X107998163Y-69113571D01*
X107984005Y-69099413D01*
X107971370Y-69084620D01*
X107959593Y-69068412D01*
X107923693Y-69038713D01*
X107919381Y-69034790D01*
X107261819Y-68377228D01*
X107228334Y-68315905D01*
X107225500Y-68289547D01*
X107225500Y-67584899D01*
X107245185Y-67517860D01*
X107297989Y-67472105D01*
X107367147Y-67462161D01*
X107381594Y-67465124D01*
X107540017Y-67507574D01*
X107540023Y-67507575D01*
X107759999Y-67526821D01*
X107760001Y-67526821D01*
X107979976Y-67507575D01*
X107979986Y-67507573D01*
X108193270Y-67450424D01*
X108193284Y-67450419D01*
X108393408Y-67357100D01*
X108393420Y-67357093D01*
X108458186Y-67311742D01*
X108458187Y-67311741D01*
X107899598Y-66753152D01*
X107904592Y-66752435D01*
X108037470Y-66691752D01*
X108147869Y-66596090D01*
X108226845Y-66473201D01*
X108249522Y-66395968D01*
X108811741Y-66958187D01*
X108811742Y-66958186D01*
X108857093Y-66893420D01*
X108857100Y-66893408D01*
X108917342Y-66764219D01*
X108963514Y-66711779D01*
X109030707Y-66692627D01*
X109097588Y-66712842D01*
X109142106Y-66764219D01*
X109202464Y-66893658D01*
X109202468Y-66893666D01*
X109329170Y-67074615D01*
X109329175Y-67074621D01*
X109485378Y-67230824D01*
X109485384Y-67230829D01*
X109666333Y-67357531D01*
X109666335Y-67357532D01*
X109666338Y-67357534D01*
X109866550Y-67450894D01*
X110079932Y-67508070D01*
X110237123Y-67521822D01*
X110299998Y-67527323D01*
X110300000Y-67527323D01*
X110300002Y-67527323D01*
X110355017Y-67522509D01*
X110520068Y-67508070D01*
X110733450Y-67450894D01*
X110933662Y-67357534D01*
X111114620Y-67230826D01*
X111270826Y-67074620D01*
X111366225Y-66938376D01*
X111420802Y-66894752D01*
X111467800Y-66885500D01*
X111657257Y-66885500D01*
X111672877Y-66887224D01*
X111672904Y-66886939D01*
X111680660Y-66887671D01*
X111680667Y-66887673D01*
X111749814Y-66885500D01*
X111779350Y-66885500D01*
X111786228Y-66884630D01*
X111792041Y-66884172D01*
X111838627Y-66882709D01*
X111857869Y-66877117D01*
X111876912Y-66873174D01*
X111896792Y-66870664D01*
X111940122Y-66853507D01*
X111945646Y-66851617D01*
X111949396Y-66850527D01*
X111990390Y-66838618D01*
X112007629Y-66828422D01*
X112025103Y-66819862D01*
X112043727Y-66812488D01*
X112043727Y-66812487D01*
X112043732Y-66812486D01*
X112081449Y-66785082D01*
X112086305Y-66781892D01*
X112126420Y-66758170D01*
X112140589Y-66743999D01*
X112155379Y-66731368D01*
X112171587Y-66719594D01*
X112201299Y-66683676D01*
X112205212Y-66679376D01*
X112883787Y-66000802D01*
X112896042Y-65990986D01*
X112895859Y-65990764D01*
X112901866Y-65985792D01*
X112901877Y-65985786D01*
X112932775Y-65952882D01*
X112949227Y-65935364D01*
X112959671Y-65924918D01*
X112970120Y-65914471D01*
X112974379Y-65908978D01*
X112978152Y-65904561D01*
X113010062Y-65870582D01*
X113019713Y-65853024D01*
X113030396Y-65836761D01*
X113042673Y-65820936D01*
X113061185Y-65778153D01*
X113063738Y-65772941D01*
X113086197Y-65732092D01*
X113091180Y-65712680D01*
X113097481Y-65694280D01*
X113105437Y-65675896D01*
X113112729Y-65629852D01*
X113113906Y-65624171D01*
X113125500Y-65579019D01*
X113125500Y-65558983D01*
X113127027Y-65539582D01*
X113130160Y-65519804D01*
X113125775Y-65473415D01*
X113125500Y-65467577D01*
X113125500Y-59550001D01*
X122494390Y-59550001D01*
X122514804Y-59835433D01*
X122575628Y-60115037D01*
X122575630Y-60115043D01*
X122575631Y-60115046D01*
X122675633Y-60383161D01*
X122675635Y-60383166D01*
X122812770Y-60634309D01*
X122812775Y-60634317D01*
X122984254Y-60863387D01*
X122984270Y-60863405D01*
X123186594Y-61065729D01*
X123186612Y-61065745D01*
X123415682Y-61237224D01*
X123415690Y-61237229D01*
X123666833Y-61374364D01*
X123666832Y-61374364D01*
X123666836Y-61374365D01*
X123666839Y-61374367D01*
X123934954Y-61474369D01*
X123934960Y-61474370D01*
X123934962Y-61474371D01*
X124214566Y-61535195D01*
X124214568Y-61535195D01*
X124214572Y-61535196D01*
X124428552Y-61550500D01*
X124571448Y-61550500D01*
X124785428Y-61535196D01*
X125065046Y-61474369D01*
X125333161Y-61374367D01*
X125584315Y-61237226D01*
X125813395Y-61065739D01*
X126015739Y-60863395D01*
X126187226Y-60634315D01*
X126324367Y-60383161D01*
X126424369Y-60115046D01*
X126445861Y-60016249D01*
X126485195Y-59835433D01*
X126485195Y-59835432D01*
X126485196Y-59835428D01*
X126505610Y-59550000D01*
X126485196Y-59264572D01*
X126443621Y-59073456D01*
X126424371Y-58984962D01*
X126424370Y-58984960D01*
X126424369Y-58984954D01*
X126324367Y-58716839D01*
X126297088Y-58666882D01*
X126187229Y-58465690D01*
X126187224Y-58465682D01*
X126015745Y-58236612D01*
X126015729Y-58236594D01*
X125813405Y-58034270D01*
X125813387Y-58034254D01*
X125584317Y-57862775D01*
X125584309Y-57862770D01*
X125333166Y-57725635D01*
X125333167Y-57725635D01*
X125170426Y-57664936D01*
X125065046Y-57625631D01*
X125065043Y-57625630D01*
X125065037Y-57625628D01*
X124785433Y-57564804D01*
X124571448Y-57549500D01*
X124428552Y-57549500D01*
X124214566Y-57564804D01*
X123934962Y-57625628D01*
X123666833Y-57725635D01*
X123415690Y-57862770D01*
X123415682Y-57862775D01*
X123186612Y-58034254D01*
X123186594Y-58034270D01*
X122984270Y-58236594D01*
X122984254Y-58236612D01*
X122812775Y-58465682D01*
X122812770Y-58465690D01*
X122675635Y-58716833D01*
X122575628Y-58984962D01*
X122514804Y-59264566D01*
X122494390Y-59549998D01*
X122494390Y-59550001D01*
X113125500Y-59550001D01*
X113125500Y-58582742D01*
X113127224Y-58567122D01*
X113126939Y-58567096D01*
X113127671Y-58559340D01*
X113127673Y-58559333D01*
X113125500Y-58490185D01*
X113125500Y-58460650D01*
X113124631Y-58453772D01*
X113124172Y-58447943D01*
X113122709Y-58401372D01*
X113117122Y-58382144D01*
X113113174Y-58363084D01*
X113110663Y-58343204D01*
X113093512Y-58299887D01*
X113091619Y-58294358D01*
X113078618Y-58249609D01*
X113078616Y-58249606D01*
X113068423Y-58232371D01*
X113059861Y-58214894D01*
X113052487Y-58196270D01*
X113052486Y-58196268D01*
X113025079Y-58158545D01*
X113021888Y-58153686D01*
X112998172Y-58113583D01*
X112998165Y-58113574D01*
X112984006Y-58099415D01*
X112971368Y-58084619D01*
X112970787Y-58083819D01*
X112959594Y-58068413D01*
X112928415Y-58042620D01*
X112923688Y-58038709D01*
X112919376Y-58034786D01*
X111900803Y-57016212D01*
X111890980Y-57003950D01*
X111890759Y-57004134D01*
X111885786Y-56998123D01*
X111867159Y-56980631D01*
X111835364Y-56950773D01*
X111824919Y-56940328D01*
X111814475Y-56929883D01*
X111808986Y-56925625D01*
X111804561Y-56921847D01*
X111770582Y-56889938D01*
X111770580Y-56889936D01*
X111770577Y-56889935D01*
X111753029Y-56880288D01*
X111736763Y-56869604D01*
X111720933Y-56857325D01*
X111678168Y-56838818D01*
X111672922Y-56836248D01*
X111632093Y-56813803D01*
X111632092Y-56813802D01*
X111612693Y-56808822D01*
X111594281Y-56802518D01*
X111575898Y-56794562D01*
X111575893Y-56794561D01*
X111545881Y-56789807D01*
X111482747Y-56759876D01*
X111445817Y-56700564D01*
X111446816Y-56630702D01*
X111452894Y-56614939D01*
X111490894Y-56533450D01*
X111548070Y-56320068D01*
X111567323Y-56100000D01*
X111548070Y-55879932D01*
X111490894Y-55666550D01*
X111397534Y-55466339D01*
X111270826Y-55285380D01*
X111114620Y-55129174D01*
X111114616Y-55129171D01*
X111114615Y-55129170D01*
X110933666Y-55002468D01*
X110933658Y-55002464D01*
X110804811Y-54942382D01*
X110752371Y-54896210D01*
X110733219Y-54829017D01*
X110753435Y-54762135D01*
X110804811Y-54717618D01*
X110810802Y-54714824D01*
X110933662Y-54657534D01*
X111114620Y-54530826D01*
X111270826Y-54374620D01*
X111397534Y-54193662D01*
X111490894Y-53993450D01*
X111548070Y-53780068D01*
X111567323Y-53560000D01*
X111548070Y-53339932D01*
X111536292Y-53295976D01*
X111537955Y-53226126D01*
X111568384Y-53176204D01*
X114583788Y-50160801D01*
X114596042Y-50150986D01*
X114595859Y-50150764D01*
X114601866Y-50145792D01*
X114601877Y-50145786D01*
X114632775Y-50112882D01*
X114649227Y-50095364D01*
X114659671Y-50084918D01*
X114670120Y-50074471D01*
X114674379Y-50068978D01*
X114678152Y-50064561D01*
X114710062Y-50030582D01*
X114719715Y-50013020D01*
X114730389Y-49996770D01*
X114742673Y-49980936D01*
X114761180Y-49938167D01*
X114763749Y-49932924D01*
X114769499Y-49922465D01*
X114786197Y-49892092D01*
X114791177Y-49872691D01*
X114797478Y-49854288D01*
X114805438Y-49835896D01*
X114812730Y-49789849D01*
X114813911Y-49784152D01*
X114825500Y-49739019D01*
X114825500Y-49718983D01*
X114827027Y-49699582D01*
X114830160Y-49679804D01*
X114825775Y-49633415D01*
X114825500Y-49627577D01*
X114825500Y-43746346D01*
X114827224Y-43730726D01*
X114826939Y-43730699D01*
X114827673Y-43722937D01*
X114825500Y-43653776D01*
X114825500Y-43624260D01*
X114825500Y-43624254D01*
X114824631Y-43617383D01*
X114824173Y-43611556D01*
X114822710Y-43564977D01*
X114817119Y-43545734D01*
X114813173Y-43526682D01*
X114810664Y-43506812D01*
X114793504Y-43463471D01*
X114791624Y-43457983D01*
X114778618Y-43413214D01*
X114768422Y-43395974D01*
X114759861Y-43378498D01*
X114752487Y-43359874D01*
X114752486Y-43359872D01*
X114725079Y-43322149D01*
X114721888Y-43317290D01*
X114698172Y-43277187D01*
X114698165Y-43277178D01*
X114684006Y-43263019D01*
X114671368Y-43248223D01*
X114659594Y-43232017D01*
X114623688Y-43202313D01*
X114619376Y-43198390D01*
X102837199Y-31416212D01*
X102827376Y-31403950D01*
X102827155Y-31404134D01*
X102822182Y-31398123D01*
X102793726Y-31371401D01*
X102771760Y-31350773D01*
X102761315Y-31340328D01*
X102750871Y-31329883D01*
X102745382Y-31325625D01*
X102740957Y-31321847D01*
X102706978Y-31289938D01*
X102706976Y-31289936D01*
X102706973Y-31289935D01*
X102689425Y-31280288D01*
X102673159Y-31269604D01*
X102657329Y-31257325D01*
X102614564Y-31238818D01*
X102609318Y-31236248D01*
X102568489Y-31213803D01*
X102568488Y-31213802D01*
X102549089Y-31208822D01*
X102530677Y-31202518D01*
X102512294Y-31194562D01*
X102512288Y-31194560D01*
X102466270Y-31187272D01*
X102460548Y-31186087D01*
X102415417Y-31174500D01*
X102415415Y-31174500D01*
X102395380Y-31174500D01*
X102375982Y-31172973D01*
X102368558Y-31171797D01*
X102356201Y-31169840D01*
X102356200Y-31169840D01*
X102309812Y-31174225D01*
X102303974Y-31174500D01*
X98170229Y-31174500D01*
X98103190Y-31154815D01*
X98057435Y-31102011D01*
X98047491Y-31032853D01*
X98057847Y-30998096D01*
X98073900Y-30963669D01*
X98073903Y-30963663D01*
X98135063Y-30735408D01*
X98155659Y-30500000D01*
X98152605Y-30465100D01*
X107329432Y-30465100D01*
X107349266Y-30691805D01*
X107349268Y-30691815D01*
X107408164Y-30911623D01*
X107408166Y-30911627D01*
X107408167Y-30911631D01*
X107432430Y-30963663D01*
X107504344Y-31117883D01*
X107504345Y-31117885D01*
X107634873Y-31304298D01*
X107634878Y-31304304D01*
X107795795Y-31465221D01*
X107795801Y-31465226D01*
X107982214Y-31595754D01*
X107982216Y-31595755D01*
X108188469Y-31691933D01*
X108408290Y-31750833D01*
X108589658Y-31766701D01*
X108634999Y-31770668D01*
X108635000Y-31770668D01*
X108635001Y-31770668D01*
X108672785Y-31767362D01*
X108861710Y-31750833D01*
X109081531Y-31691933D01*
X109287784Y-31595755D01*
X109474203Y-31465223D01*
X109635123Y-31304303D01*
X109765655Y-31117884D01*
X109861833Y-30911631D01*
X109920733Y-30691810D01*
X109940568Y-30465100D01*
X109920733Y-30238390D01*
X109861833Y-30018569D01*
X109765655Y-29812316D01*
X109635123Y-29625897D01*
X109474203Y-29464977D01*
X109474201Y-29464976D01*
X109474198Y-29464973D01*
X109287785Y-29334445D01*
X109287783Y-29334444D01*
X109229962Y-29307482D01*
X109177523Y-29261310D01*
X109158371Y-29194116D01*
X109178587Y-29127235D01*
X109229962Y-29082718D01*
X109287784Y-29055755D01*
X109474203Y-28925223D01*
X109635123Y-28764303D01*
X109765655Y-28577884D01*
X109861833Y-28371631D01*
X109920733Y-28151810D01*
X109940568Y-27925100D01*
X109920733Y-27698390D01*
X109861833Y-27478569D01*
X109765655Y-27272316D01*
X109635123Y-27085897D01*
X109474203Y-26924977D01*
X109474201Y-26924976D01*
X109474198Y-26924973D01*
X109287785Y-26794445D01*
X109287783Y-26794444D01*
X109184657Y-26746356D01*
X109081531Y-26698267D01*
X109081527Y-26698266D01*
X109081523Y-26698264D01*
X108861715Y-26639368D01*
X108861705Y-26639366D01*
X108635001Y-26619532D01*
X108634999Y-26619532D01*
X108408294Y-26639366D01*
X108408284Y-26639368D01*
X108188476Y-26698264D01*
X108188467Y-26698268D01*
X107982216Y-26794444D01*
X107982214Y-26794445D01*
X107795801Y-26924973D01*
X107795795Y-26924978D01*
X107634878Y-27085895D01*
X107634873Y-27085901D01*
X107504345Y-27272314D01*
X107504344Y-27272316D01*
X107408168Y-27478567D01*
X107408164Y-27478576D01*
X107349268Y-27698384D01*
X107349266Y-27698394D01*
X107329432Y-27925099D01*
X107329432Y-27925100D01*
X107349266Y-28151805D01*
X107349268Y-28151815D01*
X107408164Y-28371623D01*
X107408166Y-28371627D01*
X107408167Y-28371631D01*
X107432430Y-28423663D01*
X107504344Y-28577883D01*
X107504345Y-28577885D01*
X107634873Y-28764298D01*
X107634878Y-28764304D01*
X107795795Y-28925221D01*
X107795801Y-28925226D01*
X107982214Y-29055754D01*
X107982216Y-29055755D01*
X108040037Y-29082718D01*
X108092476Y-29128891D01*
X108111628Y-29196084D01*
X108091412Y-29262966D01*
X108040037Y-29307482D01*
X107982216Y-29334444D01*
X107982214Y-29334445D01*
X107795801Y-29464973D01*
X107795795Y-29464978D01*
X107634878Y-29625895D01*
X107634873Y-29625901D01*
X107504345Y-29812314D01*
X107504344Y-29812316D01*
X107408168Y-30018567D01*
X107408164Y-30018576D01*
X107349268Y-30238384D01*
X107349266Y-30238394D01*
X107329432Y-30465099D01*
X107329432Y-30465100D01*
X98152605Y-30465100D01*
X98152605Y-30465099D01*
X98135063Y-30264596D01*
X98135063Y-30264592D01*
X98073903Y-30036337D01*
X97974035Y-29822171D01*
X97968425Y-29814158D01*
X97838494Y-29628597D01*
X97671402Y-29461506D01*
X97671396Y-29461501D01*
X97485842Y-29331575D01*
X97442217Y-29276998D01*
X97435023Y-29207500D01*
X97466546Y-29145145D01*
X97485842Y-29128425D01*
X97589625Y-29055755D01*
X97671401Y-28998495D01*
X97838495Y-28831401D01*
X97974035Y-28637830D01*
X98073903Y-28423663D01*
X98135063Y-28195408D01*
X98155659Y-27960000D01*
X98152605Y-27925099D01*
X98135063Y-27724596D01*
X98135063Y-27724592D01*
X98073903Y-27496337D01*
X97974035Y-27282171D01*
X97967135Y-27272316D01*
X97838494Y-27088597D01*
X97671402Y-26921506D01*
X97671395Y-26921501D01*
X97477834Y-26785967D01*
X97477830Y-26785965D01*
X97477828Y-26785964D01*
X97263663Y-26686097D01*
X97263659Y-26686096D01*
X97263655Y-26686094D01*
X97035413Y-26624938D01*
X97035403Y-26624936D01*
X96800001Y-26604341D01*
X96799999Y-26604341D01*
X96564596Y-26624936D01*
X96564586Y-26624938D01*
X96336344Y-26686094D01*
X96336335Y-26686098D01*
X96122171Y-26785964D01*
X96122169Y-26785965D01*
X95928600Y-26921503D01*
X95806673Y-27043430D01*
X95745350Y-27076914D01*
X95675658Y-27071930D01*
X95619725Y-27030058D01*
X95602810Y-26999081D01*
X95553797Y-26867671D01*
X95553793Y-26867664D01*
X95467547Y-26752455D01*
X95467544Y-26752452D01*
X95352335Y-26666206D01*
X95352328Y-26666202D01*
X95217482Y-26615908D01*
X95217483Y-26615908D01*
X95157883Y-26609501D01*
X95157881Y-26609500D01*
X95157873Y-26609500D01*
X95157864Y-26609500D01*
X93362129Y-26609500D01*
X93362123Y-26609501D01*
X93302516Y-26615908D01*
X93167671Y-26666202D01*
X93167664Y-26666206D01*
X93052455Y-26752452D01*
X93052452Y-26752455D01*
X92966206Y-26867664D01*
X92966202Y-26867671D01*
X92915908Y-27002517D01*
X92909501Y-27062116D01*
X92909500Y-27062135D01*
X92909500Y-28857870D01*
X92909501Y-28857876D01*
X92915908Y-28917483D01*
X92966202Y-29052328D01*
X92966206Y-29052335D01*
X93052452Y-29167544D01*
X93052455Y-29167547D01*
X93167664Y-29253793D01*
X93167671Y-29253797D01*
X93299081Y-29302810D01*
X93355015Y-29344681D01*
X93379432Y-29410145D01*
X93364580Y-29478418D01*
X93343430Y-29506673D01*
X93221503Y-29628600D01*
X93085965Y-29822169D01*
X93085964Y-29822171D01*
X92986098Y-30036335D01*
X92986094Y-30036344D01*
X92924938Y-30264586D01*
X92924936Y-30264596D01*
X92904341Y-30499999D01*
X92904341Y-30500000D01*
X92924936Y-30735403D01*
X92924938Y-30735413D01*
X92986094Y-30963655D01*
X92986096Y-30963659D01*
X92986097Y-30963663D01*
X93018361Y-31032853D01*
X93085965Y-31177830D01*
X93085967Y-31177834D01*
X93221501Y-31371395D01*
X93221506Y-31371402D01*
X93388597Y-31538493D01*
X93388603Y-31538498D01*
X93574158Y-31668425D01*
X93617783Y-31723002D01*
X93624977Y-31792500D01*
X93593454Y-31854855D01*
X93574158Y-31871575D01*
X93388597Y-32001505D01*
X93221505Y-32168597D01*
X93085965Y-32362169D01*
X93085964Y-32362171D01*
X92986098Y-32576335D01*
X92986094Y-32576344D01*
X92924938Y-32804586D01*
X92924936Y-32804596D01*
X92904341Y-33039999D01*
X92904341Y-33040000D01*
X92924936Y-33275403D01*
X92924938Y-33275413D01*
X92986094Y-33503655D01*
X92986096Y-33503659D01*
X92986097Y-33503663D01*
X93065760Y-33674500D01*
X93085965Y-33717830D01*
X93085967Y-33717834D01*
X93221501Y-33911395D01*
X93221506Y-33911402D01*
X93388597Y-34078493D01*
X93388603Y-34078498D01*
X93574158Y-34208425D01*
X93617783Y-34263002D01*
X93624977Y-34332500D01*
X93593454Y-34394855D01*
X93574158Y-34411575D01*
X93388597Y-34541505D01*
X93221505Y-34708597D01*
X93085965Y-34902169D01*
X93085964Y-34902171D01*
X92986098Y-35116335D01*
X92986094Y-35116344D01*
X92924938Y-35344586D01*
X92924936Y-35344596D01*
X92904341Y-35579999D01*
X92904341Y-35580000D01*
X92924936Y-35815403D01*
X92924938Y-35815413D01*
X92986094Y-36043655D01*
X92986096Y-36043659D01*
X92986097Y-36043663D01*
X92990000Y-36052032D01*
X93085965Y-36257830D01*
X93085967Y-36257834D01*
X93194281Y-36412521D01*
X93221501Y-36451396D01*
X93221506Y-36451402D01*
X93388597Y-36618493D01*
X93388603Y-36618498D01*
X93574158Y-36748425D01*
X93617783Y-36803002D01*
X93624977Y-36872500D01*
X93593454Y-36934855D01*
X93574158Y-36951575D01*
X93388597Y-37081505D01*
X93221505Y-37248597D01*
X93085965Y-37442169D01*
X93085964Y-37442171D01*
X92986098Y-37656335D01*
X92986094Y-37656344D01*
X92924938Y-37884586D01*
X92924936Y-37884596D01*
X92904341Y-38119999D01*
X92904341Y-38120000D01*
X89500000Y-38120000D01*
X89500000Y-21124000D01*
X89519685Y-21056961D01*
X89572489Y-21011206D01*
X89624000Y-21000000D01*
X114876000Y-21000000D01*
X114943039Y-21019685D01*
G37*
G04 #@! TD.AperFunction*
M02*
