M48
; DRILL file {KiCad 7.0.8-7.0.8~ubuntu22.04.1} date Fri 26 Jan 2024 15:24:35 CET
; FORMAT={-:-/ absolute / metric / decimal}
; #@! TF.CreationDate,2024-01-26T15:24:35+01:00
; #@! TF.GenerationSoftware,Kicad,Pcbnew,7.0.8-7.0.8~ubuntu22.04.1
; #@! TF.FileFunction,Plated,1,2,PTH
FMAT,2
METRIC
; #@! TA.AperFunction,Plated,PTH,ViaDrill
T1C0.400
; #@! TA.AperFunction,Plated,PTH,ComponentDrill
T2C0.889
; #@! TA.AperFunction,Plated,PTH,ComponentDrill
T3C1.000
; #@! TA.AperFunction,Plated,PTH,ComponentDrill
T4C1.016
; #@! TA.AperFunction,Plated,PTH,ComponentDrill
T5C1.092
%
G90
G05
T1
X76.4Y-42.5
X76.4Y-47.5
X76.4Y-52.5
X76.4Y-66.1
X76.4Y-71.1
X76.4Y-76.1
X81.4Y-42.5
X81.4Y-47.5
X81.4Y-52.5
X81.4Y-66.1
X81.4Y-71.1
X81.4Y-76.1
X86.4Y-42.5
X86.4Y-47.5
X86.4Y-52.5
X86.4Y-66.1
X86.4Y-71.1
X86.4Y-76.1
X91.4Y-42.5
X91.4Y-47.5
X91.4Y-52.5
X94.5Y-66.7
X94.5Y-71.7
X96.4Y-42.5
X96.4Y-47.5
X96.4Y-52.5
X99.5Y-66.7
X99.5Y-71.7
X99.6Y-22.3
X99.6Y-27.3
X99.655Y-55.0
X101.8Y-39.2
X101.8Y-44.2
X101.8Y-49.2
X104.6Y-22.3
X104.6Y-27.3
X106.5Y-89.6
X106.5Y-94.6
X109.3Y-70.0
X109.3Y-75.0
X109.975Y-79.925
X110.7Y-79.2
X111.5Y-89.6
X111.5Y-94.6
X114.3Y-70.0
X114.3Y-75.0
X118.0Y-42.4
X118.0Y-47.4
X118.0Y-52.4
X118.9Y-66.5
X118.9Y-71.5
X118.9Y-76.5
X123.0Y-42.4
X123.0Y-47.4
X123.0Y-52.4
X123.9Y-66.5
X123.9Y-71.5
X123.9Y-76.5
X128.0Y-42.4
X128.0Y-47.4
X128.0Y-52.4
X128.9Y-66.5
X128.9Y-71.5
X128.9Y-76.5
T2
X94.26Y-74.5
X94.26Y-77.04
X94.26Y-79.58
X94.26Y-82.12
X94.26Y-84.66
X94.26Y-87.2
X94.26Y-89.74
X94.26Y-92.28
X96.8Y-74.5
X96.8Y-77.04
X96.8Y-79.58
X96.8Y-82.12
X96.8Y-84.66
X96.8Y-87.2
X96.8Y-89.74
X96.8Y-92.28
T3
X94.26Y-27.96
X94.26Y-30.5
X94.26Y-33.04
X94.26Y-35.58
X94.26Y-38.12
X94.575Y-59.0
X96.8Y-27.96
X96.8Y-30.5
X96.8Y-33.04
X96.8Y-35.58
X96.8Y-38.12
X97.115Y-59.0
X99.655Y-59.0
T4
X107.76Y-43.4
X107.76Y-45.94
X107.76Y-48.48
X107.76Y-51.02
X107.76Y-53.56
X107.76Y-56.1
X107.76Y-58.64
X107.76Y-61.18
X107.76Y-63.72
X107.76Y-66.26
X110.3Y-43.4
X110.3Y-45.94
X110.3Y-48.48
X110.3Y-51.02
X110.3Y-53.56
X110.3Y-56.1
X110.3Y-58.64
X110.3Y-61.18
X110.3Y-63.72
X110.3Y-66.26
T5
X108.635Y-27.925
X108.635Y-30.465
T0
M30
