G04 #@! TF.GenerationSoftware,KiCad,Pcbnew,7.0.8-7.0.8~ubuntu22.04.1*
G04 #@! TF.CreationDate,2024-01-26T15:23:50+01:00*
G04 #@! TF.ProjectId,bogie,626f6769-652e-46b6-9963-61645f706362,rev?*
G04 #@! TF.SameCoordinates,Original*
G04 #@! TF.FileFunction,Soldermask,Top*
G04 #@! TF.FilePolarity,Negative*
%FSLAX46Y46*%
G04 Gerber Fmt 4.6, Leading zero omitted, Abs format (unit mm)*
G04 Created by KiCad (PCBNEW 7.0.8-7.0.8~ubuntu22.04.1) date 2024-01-26 15:23:50*
%MOMM*%
%LPD*%
G01*
G04 APERTURE LIST*
%ADD10C,1.397000*%
%ADD11R,1.700000X1.700000*%
%ADD12O,1.700000X1.700000*%
%ADD13C,3.500000*%
%ADD14C,1.600200*%
%ADD15C,1.524000*%
G04 APERTURE END LIST*
D10*
X94260000Y-74500000D03*
X94260000Y-77040000D03*
X94260000Y-79580000D03*
X94260000Y-82120000D03*
X94260000Y-84660000D03*
X94260000Y-87200000D03*
X94260000Y-89740000D03*
X94260000Y-92280000D03*
X96800000Y-74500000D03*
X96800000Y-77040000D03*
X96800000Y-79580000D03*
X96800000Y-82120000D03*
X96800000Y-84660000D03*
X96800000Y-87200000D03*
X96800000Y-89740000D03*
X96800000Y-92280000D03*
D11*
X94260000Y-27960000D03*
D12*
X96800000Y-27960000D03*
X94260000Y-30500000D03*
X96800000Y-30500000D03*
X94260000Y-33040000D03*
X96800000Y-33040000D03*
X94260000Y-35580000D03*
X96800000Y-35580000D03*
X94260000Y-38120000D03*
X96800000Y-38120000D03*
D13*
X79850000Y-59550000D03*
X124500000Y-59550000D03*
D11*
X94575000Y-59000000D03*
D12*
X97115000Y-59000000D03*
X99655000Y-59000000D03*
D14*
X108635000Y-30465100D03*
X108635000Y-27925100D03*
D15*
X107760000Y-43400000D03*
X107760000Y-45940000D03*
X107760000Y-48480000D03*
X107760000Y-51020000D03*
X107760000Y-53560000D03*
X107760000Y-56100000D03*
X107760000Y-58640000D03*
X107760000Y-61180000D03*
X107760000Y-63720000D03*
X107760000Y-66260000D03*
X110300000Y-43400000D03*
X110300000Y-45940000D03*
X110300000Y-48480000D03*
X110300000Y-51020000D03*
X110300000Y-53560000D03*
X110300000Y-56100000D03*
X110300000Y-58640000D03*
X110300000Y-61180000D03*
X110300000Y-63720000D03*
X110300000Y-66260000D03*
M02*
