%TF.GenerationSoftware,KiCad,Pcbnew,7.0.8-7.0.8~ubuntu22.04.1*%
%TF.CreationDate,2024-01-26T15:25:03+01:00*%
%TF.ProjectId,bogie,626f6769-652e-46b6-9963-61645f706362,rev?*%
%TF.SameCoordinates,Original*%
%TF.FileFunction,Drillmap*%
%TF.FilePolarity,Positive*%
%FSLAX45Y45*%
G04 Gerber Fmt 4.5, Leading zero omitted, Abs format (unit mm)*
G04 Created by KiCad (PCBNEW 7.0.8-7.0.8~ubuntu22.04.1) date 2024-01-26 15:25:03*
%MOMM*%
%LPD*%
G01*
G04 APERTURE LIST*
%ADD10C,0.100000*%
%ADD11C,0.200000*%
%ADD12C,0.350000*%
G04 APERTURE END LIST*
D10*
X11540000Y-2050000D02*
X8890000Y-2050000D01*
X11540000Y-9850000D02*
X11540000Y-7930000D01*
X8890000Y-2050000D02*
X8890000Y-3980000D01*
X7390000Y-7930000D02*
X8890000Y-7930000D01*
X8890000Y-3980000D02*
X7390000Y-3980000D01*
X11540000Y-3980000D02*
X11540000Y-2050000D01*
X7390000Y-3980000D02*
X7390000Y-7930000D01*
X13040000Y-3980000D02*
X11540000Y-3980000D01*
X8890000Y-9850000D02*
X11540000Y-9850000D01*
X8890000Y-7930000D02*
X8890000Y-9850000D01*
X13040000Y-7930000D02*
X13040000Y-3980000D01*
X11540000Y-7930000D02*
X13040000Y-7930000D01*
D11*
D12*
X7810000Y-5780000D02*
X8160000Y-6130000D01*
X8160000Y-5780000D02*
X7810000Y-6130000D01*
X12275000Y-5780000D02*
X12625000Y-6130000D01*
X12625000Y-5780000D02*
X12275000Y-6130000D01*
D11*
X7645777Y-10166484D02*
X7645777Y-9966484D01*
X7645777Y-9966484D02*
X7693396Y-9966484D01*
X7693396Y-9966484D02*
X7721967Y-9976008D01*
X7721967Y-9976008D02*
X7741015Y-9995055D01*
X7741015Y-9995055D02*
X7750539Y-10014103D01*
X7750539Y-10014103D02*
X7760062Y-10052198D01*
X7760062Y-10052198D02*
X7760062Y-10080770D01*
X7760062Y-10080770D02*
X7750539Y-10118865D01*
X7750539Y-10118865D02*
X7741015Y-10137912D01*
X7741015Y-10137912D02*
X7721967Y-10156960D01*
X7721967Y-10156960D02*
X7693396Y-10166484D01*
X7693396Y-10166484D02*
X7645777Y-10166484D01*
X7845777Y-10166484D02*
X7845777Y-10033150D01*
X7845777Y-10071246D02*
X7855301Y-10052198D01*
X7855301Y-10052198D02*
X7864824Y-10042674D01*
X7864824Y-10042674D02*
X7883872Y-10033150D01*
X7883872Y-10033150D02*
X7902920Y-10033150D01*
X7969586Y-10166484D02*
X7969586Y-10033150D01*
X7969586Y-9966484D02*
X7960062Y-9976008D01*
X7960062Y-9976008D02*
X7969586Y-9985531D01*
X7969586Y-9985531D02*
X7979110Y-9976008D01*
X7979110Y-9976008D02*
X7969586Y-9966484D01*
X7969586Y-9966484D02*
X7969586Y-9985531D01*
X8093396Y-10166484D02*
X8074348Y-10156960D01*
X8074348Y-10156960D02*
X8064824Y-10137912D01*
X8064824Y-10137912D02*
X8064824Y-9966484D01*
X8198158Y-10166484D02*
X8179110Y-10156960D01*
X8179110Y-10156960D02*
X8169586Y-10137912D01*
X8169586Y-10137912D02*
X8169586Y-9966484D01*
X8426729Y-10166484D02*
X8426729Y-9966484D01*
X8426729Y-9966484D02*
X8493396Y-10109341D01*
X8493396Y-10109341D02*
X8560063Y-9966484D01*
X8560063Y-9966484D02*
X8560063Y-10166484D01*
X8741015Y-10166484D02*
X8741015Y-10061722D01*
X8741015Y-10061722D02*
X8731491Y-10042674D01*
X8731491Y-10042674D02*
X8712444Y-10033150D01*
X8712444Y-10033150D02*
X8674348Y-10033150D01*
X8674348Y-10033150D02*
X8655301Y-10042674D01*
X8741015Y-10156960D02*
X8721967Y-10166484D01*
X8721967Y-10166484D02*
X8674348Y-10166484D01*
X8674348Y-10166484D02*
X8655301Y-10156960D01*
X8655301Y-10156960D02*
X8645777Y-10137912D01*
X8645777Y-10137912D02*
X8645777Y-10118865D01*
X8645777Y-10118865D02*
X8655301Y-10099817D01*
X8655301Y-10099817D02*
X8674348Y-10090293D01*
X8674348Y-10090293D02*
X8721967Y-10090293D01*
X8721967Y-10090293D02*
X8741015Y-10080770D01*
X8836253Y-10033150D02*
X8836253Y-10233150D01*
X8836253Y-10042674D02*
X8855301Y-10033150D01*
X8855301Y-10033150D02*
X8893396Y-10033150D01*
X8893396Y-10033150D02*
X8912444Y-10042674D01*
X8912444Y-10042674D02*
X8921967Y-10052198D01*
X8921967Y-10052198D02*
X8931491Y-10071246D01*
X8931491Y-10071246D02*
X8931491Y-10128389D01*
X8931491Y-10128389D02*
X8921967Y-10147436D01*
X8921967Y-10147436D02*
X8912444Y-10156960D01*
X8912444Y-10156960D02*
X8893396Y-10166484D01*
X8893396Y-10166484D02*
X8855301Y-10166484D01*
X8855301Y-10166484D02*
X8836253Y-10156960D01*
X9017205Y-10147436D02*
X9026729Y-10156960D01*
X9026729Y-10156960D02*
X9017205Y-10166484D01*
X9017205Y-10166484D02*
X9007682Y-10156960D01*
X9007682Y-10156960D02*
X9017205Y-10147436D01*
X9017205Y-10147436D02*
X9017205Y-10166484D01*
X9017205Y-10042674D02*
X9026729Y-10052198D01*
X9026729Y-10052198D02*
X9017205Y-10061722D01*
X9017205Y-10061722D02*
X9007682Y-10052198D01*
X9007682Y-10052198D02*
X9017205Y-10042674D01*
X9017205Y-10042674D02*
X9017205Y-10061722D01*
X7185000Y-10395000D02*
X7385000Y-10595000D01*
X7385000Y-10395000D02*
X7185000Y-10595000D01*
X7626729Y-10386484D02*
X7750539Y-10386484D01*
X7750539Y-10386484D02*
X7683872Y-10462674D01*
X7683872Y-10462674D02*
X7712443Y-10462674D01*
X7712443Y-10462674D02*
X7731491Y-10472198D01*
X7731491Y-10472198D02*
X7741015Y-10481722D01*
X7741015Y-10481722D02*
X7750539Y-10500770D01*
X7750539Y-10500770D02*
X7750539Y-10548389D01*
X7750539Y-10548389D02*
X7741015Y-10567436D01*
X7741015Y-10567436D02*
X7731491Y-10576960D01*
X7731491Y-10576960D02*
X7712443Y-10586484D01*
X7712443Y-10586484D02*
X7655301Y-10586484D01*
X7655301Y-10586484D02*
X7636253Y-10576960D01*
X7636253Y-10576960D02*
X7626729Y-10567436D01*
X7836253Y-10567436D02*
X7845777Y-10576960D01*
X7845777Y-10576960D02*
X7836253Y-10586484D01*
X7836253Y-10586484D02*
X7826729Y-10576960D01*
X7826729Y-10576960D02*
X7836253Y-10567436D01*
X7836253Y-10567436D02*
X7836253Y-10586484D01*
X8026729Y-10386484D02*
X7931491Y-10386484D01*
X7931491Y-10386484D02*
X7921967Y-10481722D01*
X7921967Y-10481722D02*
X7931491Y-10472198D01*
X7931491Y-10472198D02*
X7950539Y-10462674D01*
X7950539Y-10462674D02*
X7998158Y-10462674D01*
X7998158Y-10462674D02*
X8017205Y-10472198D01*
X8017205Y-10472198D02*
X8026729Y-10481722D01*
X8026729Y-10481722D02*
X8036253Y-10500770D01*
X8036253Y-10500770D02*
X8036253Y-10548389D01*
X8036253Y-10548389D02*
X8026729Y-10567436D01*
X8026729Y-10567436D02*
X8017205Y-10576960D01*
X8017205Y-10576960D02*
X7998158Y-10586484D01*
X7998158Y-10586484D02*
X7950539Y-10586484D01*
X7950539Y-10586484D02*
X7931491Y-10576960D01*
X7931491Y-10576960D02*
X7921967Y-10567436D01*
X8160062Y-10386484D02*
X8179110Y-10386484D01*
X8179110Y-10386484D02*
X8198158Y-10396008D01*
X8198158Y-10396008D02*
X8207682Y-10405531D01*
X8207682Y-10405531D02*
X8217205Y-10424579D01*
X8217205Y-10424579D02*
X8226729Y-10462674D01*
X8226729Y-10462674D02*
X8226729Y-10510293D01*
X8226729Y-10510293D02*
X8217205Y-10548389D01*
X8217205Y-10548389D02*
X8207682Y-10567436D01*
X8207682Y-10567436D02*
X8198158Y-10576960D01*
X8198158Y-10576960D02*
X8179110Y-10586484D01*
X8179110Y-10586484D02*
X8160062Y-10586484D01*
X8160062Y-10586484D02*
X8141015Y-10576960D01*
X8141015Y-10576960D02*
X8131491Y-10567436D01*
X8131491Y-10567436D02*
X8121967Y-10548389D01*
X8121967Y-10548389D02*
X8112443Y-10510293D01*
X8112443Y-10510293D02*
X8112443Y-10462674D01*
X8112443Y-10462674D02*
X8121967Y-10424579D01*
X8121967Y-10424579D02*
X8131491Y-10405531D01*
X8131491Y-10405531D02*
X8141015Y-10396008D01*
X8141015Y-10396008D02*
X8160062Y-10386484D01*
X8350539Y-10386484D02*
X8369586Y-10386484D01*
X8369586Y-10386484D02*
X8388634Y-10396008D01*
X8388634Y-10396008D02*
X8398158Y-10405531D01*
X8398158Y-10405531D02*
X8407682Y-10424579D01*
X8407682Y-10424579D02*
X8417205Y-10462674D01*
X8417205Y-10462674D02*
X8417205Y-10510293D01*
X8417205Y-10510293D02*
X8407682Y-10548389D01*
X8407682Y-10548389D02*
X8398158Y-10567436D01*
X8398158Y-10567436D02*
X8388634Y-10576960D01*
X8388634Y-10576960D02*
X8369586Y-10586484D01*
X8369586Y-10586484D02*
X8350539Y-10586484D01*
X8350539Y-10586484D02*
X8331491Y-10576960D01*
X8331491Y-10576960D02*
X8321967Y-10567436D01*
X8321967Y-10567436D02*
X8312443Y-10548389D01*
X8312443Y-10548389D02*
X8302920Y-10510293D01*
X8302920Y-10510293D02*
X8302920Y-10462674D01*
X8302920Y-10462674D02*
X8312443Y-10424579D01*
X8312443Y-10424579D02*
X8321967Y-10405531D01*
X8321967Y-10405531D02*
X8331491Y-10396008D01*
X8331491Y-10396008D02*
X8350539Y-10386484D01*
X8502920Y-10586484D02*
X8502920Y-10453150D01*
X8502920Y-10472198D02*
X8512444Y-10462674D01*
X8512444Y-10462674D02*
X8531491Y-10453150D01*
X8531491Y-10453150D02*
X8560063Y-10453150D01*
X8560063Y-10453150D02*
X8579110Y-10462674D01*
X8579110Y-10462674D02*
X8588634Y-10481722D01*
X8588634Y-10481722D02*
X8588634Y-10586484D01*
X8588634Y-10481722D02*
X8598158Y-10462674D01*
X8598158Y-10462674D02*
X8617205Y-10453150D01*
X8617205Y-10453150D02*
X8645777Y-10453150D01*
X8645777Y-10453150D02*
X8664825Y-10462674D01*
X8664825Y-10462674D02*
X8674348Y-10481722D01*
X8674348Y-10481722D02*
X8674348Y-10586484D01*
X8769586Y-10586484D02*
X8769586Y-10453150D01*
X8769586Y-10472198D02*
X8779110Y-10462674D01*
X8779110Y-10462674D02*
X8798158Y-10453150D01*
X8798158Y-10453150D02*
X8826729Y-10453150D01*
X8826729Y-10453150D02*
X8845777Y-10462674D01*
X8845777Y-10462674D02*
X8855301Y-10481722D01*
X8855301Y-10481722D02*
X8855301Y-10586484D01*
X8855301Y-10481722D02*
X8864825Y-10462674D01*
X8864825Y-10462674D02*
X8883872Y-10453150D01*
X8883872Y-10453150D02*
X8912444Y-10453150D01*
X8912444Y-10453150D02*
X8931491Y-10462674D01*
X8931491Y-10462674D02*
X8941015Y-10481722D01*
X8941015Y-10481722D02*
X8941015Y-10586484D01*
X9331491Y-10376960D02*
X9160063Y-10634103D01*
X9588634Y-10386484D02*
X9607682Y-10386484D01*
X9607682Y-10386484D02*
X9626729Y-10396008D01*
X9626729Y-10396008D02*
X9636253Y-10405531D01*
X9636253Y-10405531D02*
X9645777Y-10424579D01*
X9645777Y-10424579D02*
X9655301Y-10462674D01*
X9655301Y-10462674D02*
X9655301Y-10510293D01*
X9655301Y-10510293D02*
X9645777Y-10548389D01*
X9645777Y-10548389D02*
X9636253Y-10567436D01*
X9636253Y-10567436D02*
X9626729Y-10576960D01*
X9626729Y-10576960D02*
X9607682Y-10586484D01*
X9607682Y-10586484D02*
X9588634Y-10586484D01*
X9588634Y-10586484D02*
X9569587Y-10576960D01*
X9569587Y-10576960D02*
X9560063Y-10567436D01*
X9560063Y-10567436D02*
X9550539Y-10548389D01*
X9550539Y-10548389D02*
X9541015Y-10510293D01*
X9541015Y-10510293D02*
X9541015Y-10462674D01*
X9541015Y-10462674D02*
X9550539Y-10424579D01*
X9550539Y-10424579D02*
X9560063Y-10405531D01*
X9560063Y-10405531D02*
X9569587Y-10396008D01*
X9569587Y-10396008D02*
X9588634Y-10386484D01*
X9741015Y-10567436D02*
X9750539Y-10576960D01*
X9750539Y-10576960D02*
X9741015Y-10586484D01*
X9741015Y-10586484D02*
X9731491Y-10576960D01*
X9731491Y-10576960D02*
X9741015Y-10567436D01*
X9741015Y-10567436D02*
X9741015Y-10586484D01*
X9941015Y-10586484D02*
X9826729Y-10586484D01*
X9883872Y-10586484D02*
X9883872Y-10386484D01*
X9883872Y-10386484D02*
X9864825Y-10415055D01*
X9864825Y-10415055D02*
X9845777Y-10434103D01*
X9845777Y-10434103D02*
X9826729Y-10443627D01*
X10007682Y-10386484D02*
X10131491Y-10386484D01*
X10131491Y-10386484D02*
X10064825Y-10462674D01*
X10064825Y-10462674D02*
X10093396Y-10462674D01*
X10093396Y-10462674D02*
X10112444Y-10472198D01*
X10112444Y-10472198D02*
X10121968Y-10481722D01*
X10121968Y-10481722D02*
X10131491Y-10500770D01*
X10131491Y-10500770D02*
X10131491Y-10548389D01*
X10131491Y-10548389D02*
X10121968Y-10567436D01*
X10121968Y-10567436D02*
X10112444Y-10576960D01*
X10112444Y-10576960D02*
X10093396Y-10586484D01*
X10093396Y-10586484D02*
X10036253Y-10586484D01*
X10036253Y-10586484D02*
X10017206Y-10576960D01*
X10017206Y-10576960D02*
X10007682Y-10567436D01*
X10198158Y-10386484D02*
X10331491Y-10386484D01*
X10331491Y-10386484D02*
X10245777Y-10586484D01*
X10436253Y-10472198D02*
X10417206Y-10462674D01*
X10417206Y-10462674D02*
X10407682Y-10453150D01*
X10407682Y-10453150D02*
X10398158Y-10434103D01*
X10398158Y-10434103D02*
X10398158Y-10424579D01*
X10398158Y-10424579D02*
X10407682Y-10405531D01*
X10407682Y-10405531D02*
X10417206Y-10396008D01*
X10417206Y-10396008D02*
X10436253Y-10386484D01*
X10436253Y-10386484D02*
X10474349Y-10386484D01*
X10474349Y-10386484D02*
X10493396Y-10396008D01*
X10493396Y-10396008D02*
X10502920Y-10405531D01*
X10502920Y-10405531D02*
X10512444Y-10424579D01*
X10512444Y-10424579D02*
X10512444Y-10434103D01*
X10512444Y-10434103D02*
X10502920Y-10453150D01*
X10502920Y-10453150D02*
X10493396Y-10462674D01*
X10493396Y-10462674D02*
X10474349Y-10472198D01*
X10474349Y-10472198D02*
X10436253Y-10472198D01*
X10436253Y-10472198D02*
X10417206Y-10481722D01*
X10417206Y-10481722D02*
X10407682Y-10491246D01*
X10407682Y-10491246D02*
X10398158Y-10510293D01*
X10398158Y-10510293D02*
X10398158Y-10548389D01*
X10398158Y-10548389D02*
X10407682Y-10567436D01*
X10407682Y-10567436D02*
X10417206Y-10576960D01*
X10417206Y-10576960D02*
X10436253Y-10586484D01*
X10436253Y-10586484D02*
X10474349Y-10586484D01*
X10474349Y-10586484D02*
X10493396Y-10576960D01*
X10493396Y-10576960D02*
X10502920Y-10567436D01*
X10502920Y-10567436D02*
X10512444Y-10548389D01*
X10512444Y-10548389D02*
X10512444Y-10510293D01*
X10512444Y-10510293D02*
X10502920Y-10491246D01*
X10502920Y-10491246D02*
X10493396Y-10481722D01*
X10493396Y-10481722D02*
X10474349Y-10472198D01*
X10588634Y-10386484D02*
X10588634Y-10424579D01*
X10664825Y-10386484D02*
X10664825Y-10424579D01*
X10960063Y-10662674D02*
X10950539Y-10653150D01*
X10950539Y-10653150D02*
X10931491Y-10624579D01*
X10931491Y-10624579D02*
X10921968Y-10605531D01*
X10921968Y-10605531D02*
X10912444Y-10576960D01*
X10912444Y-10576960D02*
X10902920Y-10529341D01*
X10902920Y-10529341D02*
X10902920Y-10491246D01*
X10902920Y-10491246D02*
X10912444Y-10443627D01*
X10912444Y-10443627D02*
X10921968Y-10415055D01*
X10921968Y-10415055D02*
X10931491Y-10396008D01*
X10931491Y-10396008D02*
X10950539Y-10367436D01*
X10950539Y-10367436D02*
X10960063Y-10357912D01*
X11026730Y-10405531D02*
X11036253Y-10396008D01*
X11036253Y-10396008D02*
X11055301Y-10386484D01*
X11055301Y-10386484D02*
X11102920Y-10386484D01*
X11102920Y-10386484D02*
X11121968Y-10396008D01*
X11121968Y-10396008D02*
X11131491Y-10405531D01*
X11131491Y-10405531D02*
X11141015Y-10424579D01*
X11141015Y-10424579D02*
X11141015Y-10443627D01*
X11141015Y-10443627D02*
X11131491Y-10472198D01*
X11131491Y-10472198D02*
X11017206Y-10586484D01*
X11017206Y-10586484D02*
X11141015Y-10586484D01*
X11379110Y-10586484D02*
X11379110Y-10386484D01*
X11464825Y-10586484D02*
X11464825Y-10481722D01*
X11464825Y-10481722D02*
X11455301Y-10462674D01*
X11455301Y-10462674D02*
X11436253Y-10453150D01*
X11436253Y-10453150D02*
X11407682Y-10453150D01*
X11407682Y-10453150D02*
X11388634Y-10462674D01*
X11388634Y-10462674D02*
X11379110Y-10472198D01*
X11588634Y-10586484D02*
X11569587Y-10576960D01*
X11569587Y-10576960D02*
X11560063Y-10567436D01*
X11560063Y-10567436D02*
X11550539Y-10548389D01*
X11550539Y-10548389D02*
X11550539Y-10491246D01*
X11550539Y-10491246D02*
X11560063Y-10472198D01*
X11560063Y-10472198D02*
X11569587Y-10462674D01*
X11569587Y-10462674D02*
X11588634Y-10453150D01*
X11588634Y-10453150D02*
X11617206Y-10453150D01*
X11617206Y-10453150D02*
X11636253Y-10462674D01*
X11636253Y-10462674D02*
X11645777Y-10472198D01*
X11645777Y-10472198D02*
X11655301Y-10491246D01*
X11655301Y-10491246D02*
X11655301Y-10548389D01*
X11655301Y-10548389D02*
X11645777Y-10567436D01*
X11645777Y-10567436D02*
X11636253Y-10576960D01*
X11636253Y-10576960D02*
X11617206Y-10586484D01*
X11617206Y-10586484D02*
X11588634Y-10586484D01*
X11769587Y-10586484D02*
X11750539Y-10576960D01*
X11750539Y-10576960D02*
X11741015Y-10557912D01*
X11741015Y-10557912D02*
X11741015Y-10386484D01*
X11921968Y-10576960D02*
X11902920Y-10586484D01*
X11902920Y-10586484D02*
X11864825Y-10586484D01*
X11864825Y-10586484D02*
X11845777Y-10576960D01*
X11845777Y-10576960D02*
X11836253Y-10557912D01*
X11836253Y-10557912D02*
X11836253Y-10481722D01*
X11836253Y-10481722D02*
X11845777Y-10462674D01*
X11845777Y-10462674D02*
X11864825Y-10453150D01*
X11864825Y-10453150D02*
X11902920Y-10453150D01*
X11902920Y-10453150D02*
X11921968Y-10462674D01*
X11921968Y-10462674D02*
X11931491Y-10481722D01*
X11931491Y-10481722D02*
X11931491Y-10500770D01*
X11931491Y-10500770D02*
X11836253Y-10519817D01*
X12007682Y-10576960D02*
X12026730Y-10586484D01*
X12026730Y-10586484D02*
X12064825Y-10586484D01*
X12064825Y-10586484D02*
X12083872Y-10576960D01*
X12083872Y-10576960D02*
X12093396Y-10557912D01*
X12093396Y-10557912D02*
X12093396Y-10548389D01*
X12093396Y-10548389D02*
X12083872Y-10529341D01*
X12083872Y-10529341D02*
X12064825Y-10519817D01*
X12064825Y-10519817D02*
X12036253Y-10519817D01*
X12036253Y-10519817D02*
X12017206Y-10510293D01*
X12017206Y-10510293D02*
X12007682Y-10491246D01*
X12007682Y-10491246D02*
X12007682Y-10481722D01*
X12007682Y-10481722D02*
X12017206Y-10462674D01*
X12017206Y-10462674D02*
X12036253Y-10453150D01*
X12036253Y-10453150D02*
X12064825Y-10453150D01*
X12064825Y-10453150D02*
X12083872Y-10462674D01*
X12160063Y-10662674D02*
X12169587Y-10653150D01*
X12169587Y-10653150D02*
X12188634Y-10624579D01*
X12188634Y-10624579D02*
X12198158Y-10605531D01*
X12198158Y-10605531D02*
X12207682Y-10576960D01*
X12207682Y-10576960D02*
X12217206Y-10529341D01*
X12217206Y-10529341D02*
X12217206Y-10491246D01*
X12217206Y-10491246D02*
X12207682Y-10443627D01*
X12207682Y-10443627D02*
X12198158Y-10415055D01*
X12198158Y-10415055D02*
X12188634Y-10396008D01*
X12188634Y-10396008D02*
X12169587Y-10367436D01*
X12169587Y-10367436D02*
X12160063Y-10357912D01*
X12521968Y-10662674D02*
X12512444Y-10653150D01*
X12512444Y-10653150D02*
X12493396Y-10624579D01*
X12493396Y-10624579D02*
X12483872Y-10605531D01*
X12483872Y-10605531D02*
X12474349Y-10576960D01*
X12474349Y-10576960D02*
X12464825Y-10529341D01*
X12464825Y-10529341D02*
X12464825Y-10491246D01*
X12464825Y-10491246D02*
X12474349Y-10443627D01*
X12474349Y-10443627D02*
X12483872Y-10415055D01*
X12483872Y-10415055D02*
X12493396Y-10396008D01*
X12493396Y-10396008D02*
X12512444Y-10367436D01*
X12512444Y-10367436D02*
X12521968Y-10357912D01*
X12598158Y-10453150D02*
X12598158Y-10586484D01*
X12598158Y-10472198D02*
X12607682Y-10462674D01*
X12607682Y-10462674D02*
X12626730Y-10453150D01*
X12626730Y-10453150D02*
X12655301Y-10453150D01*
X12655301Y-10453150D02*
X12674349Y-10462674D01*
X12674349Y-10462674D02*
X12683872Y-10481722D01*
X12683872Y-10481722D02*
X12683872Y-10586484D01*
X12807682Y-10586484D02*
X12788634Y-10576960D01*
X12788634Y-10576960D02*
X12779111Y-10567436D01*
X12779111Y-10567436D02*
X12769587Y-10548389D01*
X12769587Y-10548389D02*
X12769587Y-10491246D01*
X12769587Y-10491246D02*
X12779111Y-10472198D01*
X12779111Y-10472198D02*
X12788634Y-10462674D01*
X12788634Y-10462674D02*
X12807682Y-10453150D01*
X12807682Y-10453150D02*
X12836253Y-10453150D01*
X12836253Y-10453150D02*
X12855301Y-10462674D01*
X12855301Y-10462674D02*
X12864825Y-10472198D01*
X12864825Y-10472198D02*
X12874349Y-10491246D01*
X12874349Y-10491246D02*
X12874349Y-10548389D01*
X12874349Y-10548389D02*
X12864825Y-10567436D01*
X12864825Y-10567436D02*
X12855301Y-10576960D01*
X12855301Y-10576960D02*
X12836253Y-10586484D01*
X12836253Y-10586484D02*
X12807682Y-10586484D01*
X12931492Y-10453150D02*
X13007682Y-10453150D01*
X12960063Y-10386484D02*
X12960063Y-10557912D01*
X12960063Y-10557912D02*
X12969587Y-10576960D01*
X12969587Y-10576960D02*
X12988634Y-10586484D01*
X12988634Y-10586484D02*
X13007682Y-10586484D01*
X13226730Y-10453150D02*
X13226730Y-10653150D01*
X13226730Y-10462674D02*
X13245777Y-10453150D01*
X13245777Y-10453150D02*
X13283873Y-10453150D01*
X13283873Y-10453150D02*
X13302920Y-10462674D01*
X13302920Y-10462674D02*
X13312444Y-10472198D01*
X13312444Y-10472198D02*
X13321968Y-10491246D01*
X13321968Y-10491246D02*
X13321968Y-10548389D01*
X13321968Y-10548389D02*
X13312444Y-10567436D01*
X13312444Y-10567436D02*
X13302920Y-10576960D01*
X13302920Y-10576960D02*
X13283873Y-10586484D01*
X13283873Y-10586484D02*
X13245777Y-10586484D01*
X13245777Y-10586484D02*
X13226730Y-10576960D01*
X13436253Y-10586484D02*
X13417206Y-10576960D01*
X13417206Y-10576960D02*
X13407682Y-10557912D01*
X13407682Y-10557912D02*
X13407682Y-10386484D01*
X13598158Y-10586484D02*
X13598158Y-10481722D01*
X13598158Y-10481722D02*
X13588634Y-10462674D01*
X13588634Y-10462674D02*
X13569587Y-10453150D01*
X13569587Y-10453150D02*
X13531492Y-10453150D01*
X13531492Y-10453150D02*
X13512444Y-10462674D01*
X13598158Y-10576960D02*
X13579111Y-10586484D01*
X13579111Y-10586484D02*
X13531492Y-10586484D01*
X13531492Y-10586484D02*
X13512444Y-10576960D01*
X13512444Y-10576960D02*
X13502920Y-10557912D01*
X13502920Y-10557912D02*
X13502920Y-10538865D01*
X13502920Y-10538865D02*
X13512444Y-10519817D01*
X13512444Y-10519817D02*
X13531492Y-10510293D01*
X13531492Y-10510293D02*
X13579111Y-10510293D01*
X13579111Y-10510293D02*
X13598158Y-10500770D01*
X13664825Y-10453150D02*
X13741015Y-10453150D01*
X13693396Y-10386484D02*
X13693396Y-10557912D01*
X13693396Y-10557912D02*
X13702920Y-10576960D01*
X13702920Y-10576960D02*
X13721968Y-10586484D01*
X13721968Y-10586484D02*
X13741015Y-10586484D01*
X13883873Y-10576960D02*
X13864825Y-10586484D01*
X13864825Y-10586484D02*
X13826730Y-10586484D01*
X13826730Y-10586484D02*
X13807682Y-10576960D01*
X13807682Y-10576960D02*
X13798158Y-10557912D01*
X13798158Y-10557912D02*
X13798158Y-10481722D01*
X13798158Y-10481722D02*
X13807682Y-10462674D01*
X13807682Y-10462674D02*
X13826730Y-10453150D01*
X13826730Y-10453150D02*
X13864825Y-10453150D01*
X13864825Y-10453150D02*
X13883873Y-10462674D01*
X13883873Y-10462674D02*
X13893396Y-10481722D01*
X13893396Y-10481722D02*
X13893396Y-10500770D01*
X13893396Y-10500770D02*
X13798158Y-10519817D01*
X14064825Y-10586484D02*
X14064825Y-10386484D01*
X14064825Y-10576960D02*
X14045777Y-10586484D01*
X14045777Y-10586484D02*
X14007682Y-10586484D01*
X14007682Y-10586484D02*
X13988634Y-10576960D01*
X13988634Y-10576960D02*
X13979111Y-10567436D01*
X13979111Y-10567436D02*
X13969587Y-10548389D01*
X13969587Y-10548389D02*
X13969587Y-10491246D01*
X13969587Y-10491246D02*
X13979111Y-10472198D01*
X13979111Y-10472198D02*
X13988634Y-10462674D01*
X13988634Y-10462674D02*
X14007682Y-10453150D01*
X14007682Y-10453150D02*
X14045777Y-10453150D01*
X14045777Y-10453150D02*
X14064825Y-10462674D01*
X14141015Y-10662674D02*
X14150539Y-10653150D01*
X14150539Y-10653150D02*
X14169587Y-10624579D01*
X14169587Y-10624579D02*
X14179111Y-10605531D01*
X14179111Y-10605531D02*
X14188634Y-10576960D01*
X14188634Y-10576960D02*
X14198158Y-10529341D01*
X14198158Y-10529341D02*
X14198158Y-10491246D01*
X14198158Y-10491246D02*
X14188634Y-10443627D01*
X14188634Y-10443627D02*
X14179111Y-10415055D01*
X14179111Y-10415055D02*
X14169587Y-10396008D01*
X14169587Y-10396008D02*
X14150539Y-10367436D01*
X14150539Y-10367436D02*
X14141015Y-10357912D01*
M02*
