G04 #@! TF.GenerationSoftware,KiCad,Pcbnew,7.0.8-7.0.8~ubuntu22.04.1*
G04 #@! TF.CreationDate,2024-01-26T15:42:25+01:00*
G04 #@! TF.ProjectId,hand_B,68616e64-5f42-42e6-9b69-6361645f7063,rev?*
G04 #@! TF.SameCoordinates,Original*
G04 #@! TF.FileFunction,Legend,Bot*
G04 #@! TF.FilePolarity,Positive*
%FSLAX46Y46*%
G04 Gerber Fmt 4.6, Leading zero omitted, Abs format (unit mm)*
G04 Created by KiCad (PCBNEW 7.0.8-7.0.8~ubuntu22.04.1) date 2024-01-26 15:42:25*
%MOMM*%
%LPD*%
G01*
G04 APERTURE LIST*
%ADD10C,0.400000*%
%ADD11C,0.300000*%
%ADD12C,0.150000*%
%ADD13C,0.100000*%
%ADD14C,0.120000*%
%ADD15C,2.700000*%
%ADD16R,1.700000X1.700000*%
%ADD17O,1.700000X1.700000*%
%ADD18C,1.524000*%
G04 APERTURE END LIST*
D10*
G36*
X112755687Y-67227165D02*
G01*
X112733209Y-67227714D01*
X112712181Y-67229363D01*
X112692604Y-67232110D01*
X112665956Y-67238293D01*
X112642572Y-67246948D01*
X112622450Y-67258077D01*
X112605592Y-67271678D01*
X112591996Y-67287752D01*
X112581664Y-67306299D01*
X112574594Y-67327319D01*
X112570787Y-67350812D01*
X112570062Y-67367848D01*
X112571694Y-67392990D01*
X112576588Y-67415659D01*
X112584745Y-67435855D01*
X112596166Y-67453578D01*
X112610849Y-67468828D01*
X112628795Y-67481605D01*
X112650004Y-67491909D01*
X112674476Y-67499740D01*
X112702211Y-67505098D01*
X112722514Y-67507296D01*
X112744267Y-67508395D01*
X112755687Y-67508532D01*
X112854361Y-67508532D01*
X112854361Y-67927653D01*
X112353175Y-67497297D01*
X112373668Y-67487947D01*
X112391429Y-67476750D01*
X112406458Y-67463706D01*
X112421401Y-67444804D01*
X112432075Y-67423015D01*
X112437540Y-67403506D01*
X112440272Y-67382150D01*
X112440614Y-67370779D01*
X112438982Y-67345114D01*
X112434088Y-67321973D01*
X112425930Y-67301356D01*
X112414510Y-67283264D01*
X112399827Y-67267696D01*
X112381881Y-67254653D01*
X112360672Y-67244135D01*
X112336200Y-67236140D01*
X112308465Y-67230671D01*
X112288162Y-67228427D01*
X112266409Y-67227305D01*
X112254989Y-67227165D01*
X111973621Y-67227165D01*
X111951143Y-67227714D01*
X111930116Y-67229363D01*
X111910538Y-67232110D01*
X111883891Y-67238293D01*
X111860506Y-67246948D01*
X111840385Y-67258077D01*
X111823526Y-67271678D01*
X111809931Y-67287752D01*
X111799598Y-67306299D01*
X111792529Y-67327319D01*
X111788722Y-67350812D01*
X111787997Y-67367848D01*
X111789529Y-67392990D01*
X111794128Y-67415659D01*
X111801791Y-67435855D01*
X111812520Y-67453578D01*
X111826315Y-67468828D01*
X111843175Y-67481605D01*
X111863100Y-67491909D01*
X111886091Y-67499740D01*
X111912147Y-67505098D01*
X111941269Y-67507983D01*
X111962386Y-67508532D01*
X112457222Y-67938888D01*
X112423423Y-67958246D01*
X112406728Y-67968980D01*
X112390170Y-67980417D01*
X112373748Y-67992557D01*
X112357462Y-68005400D01*
X112341313Y-68018947D01*
X112325300Y-68033196D01*
X112309424Y-68048149D01*
X112293684Y-68063805D01*
X112278081Y-68080164D01*
X112262614Y-68097226D01*
X112247283Y-68114992D01*
X112232089Y-68133460D01*
X112217032Y-68152632D01*
X112202110Y-68172506D01*
X112187326Y-68193084D01*
X112172677Y-68214366D01*
X112158165Y-68236350D01*
X112143790Y-68259037D01*
X112129551Y-68282428D01*
X112115448Y-68306521D01*
X112101482Y-68331318D01*
X112087652Y-68356818D01*
X112073959Y-68383021D01*
X112060402Y-68409928D01*
X112046981Y-68437537D01*
X112033697Y-68465850D01*
X112020550Y-68494866D01*
X112007539Y-68524584D01*
X111994664Y-68555007D01*
X111981926Y-68586132D01*
X111892044Y-68586132D01*
X111869507Y-68586681D01*
X111848424Y-68588330D01*
X111828795Y-68591078D01*
X111802077Y-68597260D01*
X111778632Y-68605915D01*
X111758457Y-68617044D01*
X111741554Y-68630645D01*
X111727923Y-68646719D01*
X111717563Y-68665266D01*
X111710475Y-68686287D01*
X111706658Y-68709780D01*
X111705931Y-68726816D01*
X111707567Y-68751957D01*
X111712474Y-68774626D01*
X111720653Y-68794822D01*
X111732103Y-68812545D01*
X111746825Y-68827795D01*
X111764818Y-68840572D01*
X111786083Y-68850876D01*
X111810620Y-68858707D01*
X111838428Y-68864065D01*
X111858784Y-68866263D01*
X111880594Y-68867362D01*
X111892044Y-68867500D01*
X112201256Y-68867500D01*
X112207451Y-68848797D01*
X112220015Y-68812020D01*
X112232807Y-68776078D01*
X112245828Y-68740972D01*
X112259078Y-68706701D01*
X112272557Y-68673267D01*
X112286265Y-68640668D01*
X112300203Y-68608905D01*
X112314369Y-68577978D01*
X112328764Y-68547886D01*
X112343388Y-68518631D01*
X112358241Y-68490211D01*
X112373323Y-68462626D01*
X112388634Y-68435878D01*
X112404174Y-68409965D01*
X112419943Y-68384889D01*
X112427913Y-68372663D01*
X112443917Y-68348966D01*
X112459932Y-68326479D01*
X112475958Y-68305201D01*
X112491996Y-68285133D01*
X112508046Y-68266275D01*
X112524106Y-68248626D01*
X112540179Y-68232188D01*
X112556263Y-68216959D01*
X112572358Y-68202940D01*
X112588464Y-68190130D01*
X112604583Y-68178530D01*
X112628781Y-68163399D01*
X112653006Y-68150990D01*
X112677256Y-68141303D01*
X112685345Y-68138679D01*
X112854361Y-68282294D01*
X112854361Y-68586132D01*
X112755687Y-68586132D01*
X112733209Y-68586681D01*
X112712181Y-68588330D01*
X112692604Y-68591078D01*
X112665956Y-68597260D01*
X112642572Y-68605915D01*
X112622450Y-68617044D01*
X112605592Y-68630645D01*
X112591996Y-68646719D01*
X112581664Y-68665266D01*
X112574594Y-68686287D01*
X112570787Y-68709780D01*
X112570062Y-68726816D01*
X112571694Y-68751957D01*
X112576588Y-68774626D01*
X112584745Y-68794822D01*
X112596166Y-68812545D01*
X112610849Y-68827795D01*
X112628795Y-68840572D01*
X112650004Y-68850876D01*
X112674476Y-68858707D01*
X112702211Y-68864065D01*
X112722514Y-68866263D01*
X112744267Y-68867362D01*
X112755687Y-68867500D01*
X113177739Y-68867500D01*
X113200216Y-68866950D01*
X113221244Y-68865301D01*
X113240822Y-68862554D01*
X113267469Y-68856371D01*
X113290853Y-68847716D01*
X113310975Y-68836588D01*
X113327833Y-68822986D01*
X113341429Y-68806912D01*
X113351762Y-68788365D01*
X113358831Y-68767345D01*
X113362638Y-68743852D01*
X113363363Y-68726816D01*
X113361732Y-68701674D01*
X113356837Y-68679005D01*
X113348680Y-68658809D01*
X113337260Y-68641086D01*
X113322576Y-68625836D01*
X113304630Y-68613060D01*
X113283421Y-68602756D01*
X113258949Y-68594924D01*
X113231214Y-68589566D01*
X113210912Y-68587368D01*
X113189159Y-68586269D01*
X113177739Y-68586132D01*
X113135729Y-68586132D01*
X113135729Y-67508532D01*
X113177739Y-67508532D01*
X113200216Y-67507983D01*
X113221244Y-67506334D01*
X113240822Y-67503586D01*
X113267469Y-67497404D01*
X113290853Y-67488749D01*
X113310975Y-67477620D01*
X113327833Y-67464019D01*
X113341429Y-67447945D01*
X113351762Y-67429398D01*
X113358831Y-67408377D01*
X113362638Y-67384884D01*
X113363363Y-67367848D01*
X113362615Y-67348271D01*
X113359576Y-67326096D01*
X113354200Y-67306473D01*
X113344663Y-67286294D01*
X113331760Y-67269791D01*
X113315491Y-67256962D01*
X113296063Y-67246836D01*
X113277616Y-67239997D01*
X113257117Y-67234614D01*
X113234568Y-67230686D01*
X113215051Y-67228590D01*
X113194222Y-67227426D01*
X113177739Y-67227165D01*
X112755687Y-67227165D01*
G37*
G36*
X111544117Y-67227426D02*
G01*
X111564947Y-67228590D01*
X111584463Y-67230686D01*
X111607013Y-67234614D01*
X111627511Y-67239997D01*
X111645958Y-67246836D01*
X111665387Y-67256962D01*
X111681656Y-67269791D01*
X111694559Y-67286294D01*
X111704095Y-67306473D01*
X111709472Y-67326096D01*
X111712510Y-67348271D01*
X111713258Y-67367848D01*
X111712533Y-67384884D01*
X111708727Y-67408377D01*
X111701657Y-67429398D01*
X111691324Y-67447945D01*
X111677729Y-67464019D01*
X111660870Y-67477620D01*
X111640749Y-67488749D01*
X111617364Y-67497404D01*
X111590717Y-67503586D01*
X111571140Y-67506334D01*
X111550112Y-67507983D01*
X111527634Y-67508532D01*
X111485136Y-67508532D01*
X111485136Y-68586132D01*
X111527634Y-68586132D01*
X111539054Y-68586269D01*
X111560807Y-68587368D01*
X111581110Y-68589566D01*
X111608845Y-68594924D01*
X111633317Y-68602756D01*
X111654526Y-68613060D01*
X111672472Y-68625836D01*
X111687155Y-68641086D01*
X111698575Y-68658809D01*
X111706733Y-68679005D01*
X111711627Y-68701674D01*
X111713258Y-68726816D01*
X111712533Y-68743852D01*
X111708727Y-68767345D01*
X111701657Y-68788365D01*
X111691324Y-68806912D01*
X111677729Y-68822986D01*
X111660870Y-68836588D01*
X111640749Y-68847716D01*
X111617364Y-68856371D01*
X111590717Y-68862554D01*
X111571140Y-68865301D01*
X111550112Y-68866950D01*
X111527634Y-68867500D01*
X111105582Y-68867500D01*
X111094132Y-68867362D01*
X111072322Y-68866263D01*
X111051966Y-68864065D01*
X111024158Y-68858707D01*
X110999621Y-68850876D01*
X110978356Y-68840572D01*
X110960363Y-68827795D01*
X110945641Y-68812545D01*
X110934191Y-68794822D01*
X110926012Y-68774626D01*
X110921105Y-68751957D01*
X110919469Y-68726816D01*
X110920196Y-68709780D01*
X110924013Y-68686287D01*
X110931101Y-68665266D01*
X110941461Y-68646719D01*
X110955092Y-68630645D01*
X110971995Y-68617044D01*
X110992170Y-68605915D01*
X111015615Y-68597260D01*
X111042333Y-68591078D01*
X111061962Y-68588330D01*
X111083045Y-68586681D01*
X111105582Y-68586132D01*
X111203768Y-68586132D01*
X111203768Y-68242726D01*
X110933635Y-68242726D01*
X110922120Y-68247275D01*
X110903794Y-68256503D01*
X110884207Y-68268616D01*
X110863357Y-68283614D01*
X110841245Y-68301497D01*
X110825802Y-68315022D01*
X110809798Y-68329829D01*
X110793234Y-68345919D01*
X110776108Y-68363291D01*
X110758422Y-68381945D01*
X110740174Y-68401881D01*
X110721365Y-68423100D01*
X110701996Y-68445601D01*
X110682065Y-68469384D01*
X110662020Y-68493837D01*
X110642429Y-68518347D01*
X110623292Y-68542914D01*
X110604610Y-68567539D01*
X110586381Y-68592221D01*
X110568607Y-68616960D01*
X110551286Y-68641756D01*
X110534420Y-68666610D01*
X110518008Y-68691521D01*
X110502050Y-68716489D01*
X110486547Y-68741514D01*
X110471497Y-68766597D01*
X110456902Y-68791737D01*
X110442761Y-68816934D01*
X110429073Y-68842188D01*
X110415840Y-68867500D01*
X110193579Y-68867500D01*
X110182159Y-68867362D01*
X110160406Y-68866263D01*
X110140104Y-68864065D01*
X110112369Y-68858707D01*
X110087897Y-68850876D01*
X110066688Y-68840572D01*
X110048741Y-68827795D01*
X110034058Y-68812545D01*
X110022638Y-68794822D01*
X110014481Y-68774626D01*
X110009586Y-68751957D01*
X110007955Y-68726816D01*
X110008680Y-68709780D01*
X110012487Y-68686287D01*
X110019556Y-68665266D01*
X110029889Y-68646719D01*
X110043485Y-68630645D01*
X110060343Y-68617044D01*
X110080464Y-68605915D01*
X110103849Y-68597260D01*
X110130496Y-68591078D01*
X110150074Y-68588330D01*
X110171101Y-68586681D01*
X110193579Y-68586132D01*
X110230216Y-68586132D01*
X110240973Y-68569175D01*
X110251751Y-68552440D01*
X110262550Y-68535924D01*
X110273370Y-68519629D01*
X110295074Y-68487700D01*
X110316861Y-68456653D01*
X110338732Y-68426487D01*
X110360687Y-68397202D01*
X110382726Y-68368799D01*
X110404849Y-68341278D01*
X110427056Y-68314639D01*
X110449347Y-68288881D01*
X110471722Y-68264004D01*
X110494181Y-68240009D01*
X110516724Y-68216896D01*
X110539351Y-68194664D01*
X110562062Y-68173314D01*
X110584856Y-68152845D01*
X110566163Y-68142374D01*
X110548064Y-68131722D01*
X110530557Y-68120888D01*
X110513644Y-68109873D01*
X110481599Y-68087300D01*
X110451927Y-68064002D01*
X110424629Y-68039978D01*
X110399705Y-68015229D01*
X110377155Y-67989756D01*
X110356978Y-67963557D01*
X110339175Y-67936633D01*
X110323746Y-67908984D01*
X110310690Y-67880610D01*
X110300008Y-67851510D01*
X110291700Y-67821686D01*
X110285766Y-67791137D01*
X110282205Y-67759862D01*
X110281018Y-67727862D01*
X110281222Y-67719558D01*
X110578995Y-67719558D01*
X110579109Y-67726027D01*
X110581857Y-67751214D01*
X110588268Y-67775303D01*
X110598343Y-67798292D01*
X110612082Y-67820182D01*
X110624790Y-67835879D01*
X110639559Y-67850957D01*
X110656389Y-67865417D01*
X110675280Y-67879259D01*
X110696231Y-67892482D01*
X110711059Y-67900823D01*
X110734182Y-67912324D01*
X110758360Y-67922616D01*
X110783595Y-67931696D01*
X110809886Y-67939566D01*
X110837233Y-67946225D01*
X110865636Y-67951673D01*
X110885159Y-67954632D01*
X110905150Y-67957054D01*
X110925611Y-67958937D01*
X110946542Y-67960282D01*
X110967942Y-67961089D01*
X110989811Y-67961359D01*
X111203768Y-67961359D01*
X111203768Y-67508532D01*
X110888695Y-67508532D01*
X110872027Y-67508769D01*
X110847719Y-67510011D01*
X110824245Y-67512318D01*
X110801603Y-67515690D01*
X110779795Y-67520126D01*
X110758819Y-67525627D01*
X110738676Y-67532193D01*
X110719366Y-67539824D01*
X110700889Y-67548519D01*
X110683245Y-67558280D01*
X110666434Y-67569105D01*
X110645940Y-67584706D01*
X110628179Y-67601222D01*
X110613150Y-67618655D01*
X110600854Y-67637004D01*
X110591291Y-67656269D01*
X110584460Y-67676449D01*
X110580361Y-67697546D01*
X110578995Y-67719558D01*
X110281222Y-67719558D01*
X110281694Y-67700404D01*
X110283720Y-67673595D01*
X110287098Y-67647434D01*
X110291826Y-67621922D01*
X110297905Y-67597059D01*
X110305336Y-67572844D01*
X110314117Y-67549279D01*
X110324249Y-67526362D01*
X110335733Y-67504094D01*
X110348567Y-67482475D01*
X110362752Y-67461504D01*
X110378288Y-67441182D01*
X110395175Y-67421509D01*
X110413413Y-67402485D01*
X110433002Y-67384110D01*
X110453942Y-67366383D01*
X110475949Y-67349524D01*
X110498738Y-67333754D01*
X110522309Y-67319070D01*
X110546663Y-67305475D01*
X110571799Y-67292967D01*
X110597717Y-67281547D01*
X110624418Y-67271214D01*
X110651901Y-67261969D01*
X110680166Y-67253812D01*
X110709214Y-67246742D01*
X110739044Y-67240760D01*
X110769657Y-67235866D01*
X110801051Y-67232059D01*
X110833229Y-67229340D01*
X110866188Y-67227708D01*
X110899930Y-67227165D01*
X111527634Y-67227165D01*
X111544117Y-67227426D01*
G37*
G36*
X108774040Y-68586132D02*
G01*
X108752226Y-68586597D01*
X108731725Y-68587994D01*
X108707945Y-68591050D01*
X108686216Y-68595560D01*
X108666538Y-68601525D01*
X108645632Y-68610604D01*
X108636287Y-68615929D01*
X108620018Y-68628758D01*
X108607115Y-68645261D01*
X108597578Y-68665440D01*
X108592202Y-68685063D01*
X108589163Y-68707238D01*
X108588415Y-68726816D01*
X108590047Y-68751957D01*
X108594941Y-68774626D01*
X108603099Y-68794822D01*
X108614519Y-68812545D01*
X108629202Y-68827795D01*
X108647148Y-68840572D01*
X108668357Y-68850876D01*
X108692829Y-68858707D01*
X108720564Y-68864065D01*
X108740867Y-68866263D01*
X108762620Y-68867362D01*
X108774040Y-68867500D01*
X109624005Y-68867500D01*
X109646483Y-68866950D01*
X109667511Y-68865301D01*
X109687088Y-68862554D01*
X109713736Y-68856371D01*
X109737120Y-68847716D01*
X109757241Y-68836588D01*
X109774100Y-68822986D01*
X109787695Y-68806912D01*
X109798028Y-68788365D01*
X109805098Y-68767345D01*
X109808905Y-68743852D01*
X109809630Y-68726816D01*
X109808882Y-68707238D01*
X109805843Y-68685063D01*
X109800467Y-68665440D01*
X109790930Y-68645261D01*
X109778027Y-68628758D01*
X109761758Y-68615929D01*
X109742329Y-68605803D01*
X109723882Y-68598965D01*
X109703384Y-68593581D01*
X109680834Y-68589653D01*
X109661318Y-68587558D01*
X109640489Y-68586394D01*
X109624005Y-68586132D01*
X109339706Y-68586132D01*
X109339706Y-67508532D01*
X109624005Y-67508532D01*
X109646483Y-67507983D01*
X109667511Y-67506334D01*
X109687088Y-67503586D01*
X109713736Y-67497404D01*
X109737120Y-67488749D01*
X109757241Y-67477620D01*
X109774100Y-67464019D01*
X109787695Y-67447945D01*
X109798028Y-67429398D01*
X109805098Y-67408377D01*
X109808905Y-67384884D01*
X109809630Y-67367848D01*
X109808882Y-67348271D01*
X109805843Y-67326096D01*
X109800467Y-67306473D01*
X109790930Y-67286294D01*
X109778027Y-67269791D01*
X109761758Y-67256962D01*
X109742329Y-67246836D01*
X109723882Y-67239997D01*
X109703384Y-67234614D01*
X109680834Y-67230686D01*
X109661318Y-67228590D01*
X109640489Y-67227426D01*
X109624005Y-67227165D01*
X108774040Y-67227165D01*
X108752226Y-67227630D01*
X108731725Y-67229027D01*
X108707945Y-67232082D01*
X108686216Y-67236593D01*
X108666538Y-67242558D01*
X108645632Y-67251637D01*
X108636287Y-67256962D01*
X108620018Y-67269791D01*
X108607115Y-67286294D01*
X108597578Y-67306473D01*
X108592202Y-67326096D01*
X108589163Y-67348271D01*
X108588415Y-67367848D01*
X108590047Y-67392990D01*
X108594941Y-67415659D01*
X108603099Y-67435855D01*
X108614519Y-67453578D01*
X108629202Y-67468828D01*
X108647148Y-67481605D01*
X108668357Y-67491909D01*
X108692829Y-67499740D01*
X108720564Y-67505098D01*
X108740867Y-67507296D01*
X108762620Y-67508395D01*
X108774040Y-67508532D01*
X109058339Y-67508532D01*
X109058339Y-68586132D01*
X108774040Y-68586132D01*
G37*
G36*
X107047732Y-67187597D02*
G01*
X107027620Y-67188345D01*
X107004991Y-67191384D01*
X106985154Y-67196760D01*
X106965032Y-67206297D01*
X106948930Y-67219200D01*
X106936845Y-67235469D01*
X106927715Y-67254898D01*
X106920473Y-67277280D01*
X106915882Y-67298189D01*
X106912602Y-67321148D01*
X106910923Y-67340993D01*
X106910084Y-67362151D01*
X106909979Y-67373222D01*
X106909979Y-67620884D01*
X106910517Y-67643717D01*
X106912131Y-67665077D01*
X106914821Y-67684963D01*
X106920875Y-67712031D01*
X106929350Y-67735785D01*
X106940247Y-67756224D01*
X106953564Y-67773349D01*
X106969304Y-67787159D01*
X106987465Y-67797655D01*
X107008047Y-67804836D01*
X107031051Y-67808703D01*
X107047732Y-67809439D01*
X107067939Y-67808581D01*
X107087600Y-67805772D01*
X107088764Y-67805532D01*
X107108333Y-67799450D01*
X107119539Y-67794296D01*
X107135577Y-67782365D01*
X107143475Y-67774269D01*
X107156383Y-67758883D01*
X107160572Y-67753264D01*
X107169266Y-67735220D01*
X107171807Y-67728351D01*
X107177512Y-67709073D01*
X107178646Y-67704415D01*
X107183205Y-67684400D01*
X107184508Y-67679014D01*
X107188228Y-67659551D01*
X107188415Y-67657520D01*
X107194537Y-67636905D01*
X107202887Y-67617312D01*
X107213466Y-67598742D01*
X107226273Y-67581195D01*
X107241309Y-67564670D01*
X107258574Y-67549168D01*
X107278068Y-67534689D01*
X107299790Y-67521233D01*
X107317278Y-67511892D01*
X107335488Y-67503470D01*
X107354418Y-67495967D01*
X107374071Y-67489382D01*
X107394444Y-67483716D01*
X107415538Y-67478969D01*
X107437354Y-67475141D01*
X107459891Y-67472232D01*
X107483150Y-67470241D01*
X107507129Y-67469169D01*
X107523517Y-67468965D01*
X107547907Y-67469510D01*
X107571619Y-67471146D01*
X107594653Y-67473872D01*
X107617008Y-67477689D01*
X107638685Y-67482596D01*
X107659684Y-67488594D01*
X107680004Y-67495682D01*
X107699646Y-67503861D01*
X107718610Y-67513130D01*
X107736895Y-67523490D01*
X107748709Y-67531003D01*
X107765295Y-67542879D01*
X107784873Y-67559476D01*
X107801550Y-67576944D01*
X107815327Y-67595281D01*
X107826203Y-67614488D01*
X107834179Y-67634566D01*
X107839255Y-67655514D01*
X107841430Y-67677331D01*
X107841521Y-67682922D01*
X107840071Y-67706178D01*
X107835720Y-67728076D01*
X107828469Y-67748615D01*
X107818318Y-67767796D01*
X107805266Y-67785618D01*
X107789314Y-67802082D01*
X107770461Y-67817187D01*
X107748709Y-67830933D01*
X107730948Y-67840324D01*
X107712656Y-67849079D01*
X107693831Y-67857199D01*
X107674474Y-67864684D01*
X107654584Y-67871533D01*
X107634162Y-67877747D01*
X107613208Y-67883326D01*
X107591721Y-67888269D01*
X107569702Y-67892577D01*
X107547151Y-67896249D01*
X107531821Y-67898344D01*
X107508399Y-67901411D01*
X107484480Y-67904933D01*
X107460062Y-67908910D01*
X107435146Y-67913342D01*
X107409733Y-67918229D01*
X107383821Y-67923571D01*
X107357411Y-67929369D01*
X107330504Y-67935621D01*
X107303098Y-67942329D01*
X107275194Y-67949492D01*
X107256315Y-67954520D01*
X107228397Y-67962384D01*
X107201612Y-67970771D01*
X107175961Y-67979683D01*
X107151443Y-67989118D01*
X107128059Y-67999077D01*
X107105808Y-68009560D01*
X107084690Y-68020567D01*
X107064706Y-68032097D01*
X107045856Y-68044152D01*
X107028139Y-68056730D01*
X107016957Y-68065406D01*
X106996845Y-68082295D01*
X106978031Y-68099867D01*
X106960514Y-68118122D01*
X106944295Y-68137061D01*
X106929373Y-68156682D01*
X106915749Y-68176987D01*
X106903422Y-68197975D01*
X106892393Y-68219645D01*
X106882662Y-68241999D01*
X106874228Y-68265036D01*
X106867091Y-68288757D01*
X106861252Y-68313160D01*
X106856711Y-68338246D01*
X106853467Y-68364016D01*
X106851521Y-68390468D01*
X106850872Y-68417604D01*
X106851564Y-68444692D01*
X106853642Y-68471124D01*
X106857106Y-68496899D01*
X106861954Y-68522018D01*
X106868188Y-68546480D01*
X106875807Y-68570286D01*
X106884812Y-68593436D01*
X106895202Y-68615929D01*
X106906977Y-68637766D01*
X106920138Y-68658947D01*
X106934683Y-68679471D01*
X106950614Y-68699338D01*
X106967931Y-68718550D01*
X106986633Y-68737104D01*
X107006720Y-68755003D01*
X107028192Y-68772245D01*
X107050796Y-68788571D01*
X107074278Y-68803844D01*
X107098637Y-68818063D01*
X107123874Y-68831229D01*
X107149989Y-68843342D01*
X107176982Y-68854402D01*
X107204852Y-68864408D01*
X107233600Y-68873361D01*
X107263226Y-68881261D01*
X107293730Y-68888107D01*
X107325111Y-68893901D01*
X107357370Y-68898640D01*
X107390507Y-68902327D01*
X107424522Y-68904960D01*
X107459414Y-68906540D01*
X107495184Y-68907067D01*
X107524263Y-68906638D01*
X107553123Y-68905350D01*
X107581767Y-68903203D01*
X107610192Y-68900198D01*
X107638400Y-68896334D01*
X107666391Y-68891611D01*
X107694164Y-68886030D01*
X107721720Y-68879590D01*
X107749058Y-68872291D01*
X107776178Y-68864134D01*
X107803081Y-68855118D01*
X107829767Y-68845243D01*
X107856235Y-68834510D01*
X107882485Y-68822918D01*
X107908518Y-68810467D01*
X107934333Y-68797158D01*
X107948377Y-68812957D01*
X107962421Y-68826650D01*
X107979976Y-68840804D01*
X107997531Y-68851666D01*
X108018597Y-68860355D01*
X108039663Y-68864305D01*
X108046685Y-68864569D01*
X108072350Y-68862937D01*
X108095491Y-68858043D01*
X108116108Y-68849885D01*
X108134200Y-68838465D01*
X108149768Y-68823782D01*
X108162811Y-68805836D01*
X108173329Y-68784627D01*
X108181324Y-68760155D01*
X108186793Y-68732420D01*
X108189037Y-68712117D01*
X108190159Y-68690364D01*
X108190300Y-68678944D01*
X108190300Y-68493319D01*
X108189819Y-68470841D01*
X108188376Y-68449814D01*
X108185972Y-68430236D01*
X108181614Y-68407803D01*
X108175754Y-68387637D01*
X108166738Y-68366428D01*
X108159525Y-68354101D01*
X108146136Y-68338330D01*
X108129414Y-68325822D01*
X108109362Y-68316577D01*
X108090106Y-68311366D01*
X108068537Y-68308420D01*
X108049616Y-68307695D01*
X108029703Y-68308662D01*
X108009881Y-68311868D01*
X108003210Y-68313557D01*
X107983914Y-68320396D01*
X107968039Y-68330165D01*
X107952766Y-68342990D01*
X107944103Y-68351170D01*
X107932542Y-68367148D01*
X107927494Y-68378037D01*
X107919771Y-68396470D01*
X107917236Y-68403438D01*
X107911359Y-68422459D01*
X107910397Y-68425908D01*
X107906001Y-68442517D01*
X107899620Y-68461217D01*
X107890247Y-68479214D01*
X107877882Y-68496510D01*
X107862526Y-68513103D01*
X107844177Y-68528994D01*
X107822836Y-68544183D01*
X107804867Y-68555114D01*
X107785215Y-68565650D01*
X107771179Y-68572454D01*
X107749253Y-68581970D01*
X107726889Y-68590549D01*
X107704087Y-68598193D01*
X107680847Y-68604900D01*
X107657169Y-68610672D01*
X107633054Y-68615508D01*
X107608500Y-68619407D01*
X107583509Y-68622371D01*
X107558079Y-68624399D01*
X107532212Y-68625491D01*
X107514724Y-68625699D01*
X107485674Y-68625154D01*
X107457508Y-68623518D01*
X107430227Y-68620792D01*
X107403830Y-68616975D01*
X107378318Y-68612068D01*
X107353690Y-68606070D01*
X107329946Y-68598982D01*
X107307087Y-68590803D01*
X107285112Y-68581534D01*
X107264022Y-68571174D01*
X107250453Y-68563661D01*
X107231335Y-68551785D01*
X107214097Y-68539418D01*
X107198740Y-68526563D01*
X107181189Y-68508660D01*
X107166981Y-68489888D01*
X107156116Y-68470246D01*
X107148594Y-68449733D01*
X107144415Y-68428350D01*
X107143475Y-68411742D01*
X107144772Y-68391150D01*
X107148665Y-68371625D01*
X107155153Y-68353170D01*
X107164235Y-68335783D01*
X107175913Y-68319464D01*
X107190186Y-68304214D01*
X107207054Y-68290033D01*
X107226517Y-68276920D01*
X107247675Y-68264754D01*
X107269626Y-68253656D01*
X107292371Y-68243627D01*
X107315910Y-68234666D01*
X107340243Y-68226774D01*
X107365369Y-68219951D01*
X107384735Y-68215534D01*
X107404547Y-68211719D01*
X107418004Y-68209509D01*
X107438659Y-68206158D01*
X107459958Y-68202514D01*
X107481901Y-68198578D01*
X107504489Y-68194351D01*
X107527720Y-68189832D01*
X107551595Y-68185020D01*
X107576114Y-68179917D01*
X107601277Y-68174521D01*
X107627085Y-68168834D01*
X107653536Y-68162855D01*
X107671528Y-68158707D01*
X107698132Y-68152175D01*
X107723723Y-68145403D01*
X107748301Y-68138391D01*
X107771866Y-68131138D01*
X107794417Y-68123645D01*
X107815955Y-68115911D01*
X107836480Y-68107937D01*
X107855992Y-68099722D01*
X107874491Y-68091267D01*
X107897579Y-68079620D01*
X107903070Y-68076641D01*
X107922733Y-68064727D01*
X107941607Y-68052066D01*
X107959690Y-68038658D01*
X107976984Y-68024503D01*
X107993488Y-68009601D01*
X108009201Y-67993952D01*
X108024125Y-67977555D01*
X108038258Y-67960412D01*
X108051602Y-67942522D01*
X108064156Y-67923884D01*
X108072086Y-67911045D01*
X108083173Y-67891302D01*
X108093169Y-67871277D01*
X108102075Y-67850968D01*
X108109890Y-67830376D01*
X108116615Y-67809500D01*
X108122249Y-67788341D01*
X108126793Y-67766899D01*
X108130246Y-67745173D01*
X108132609Y-67723164D01*
X108133881Y-67700872D01*
X108134124Y-67685853D01*
X108133443Y-67659389D01*
X108131399Y-67633485D01*
X108127993Y-67608143D01*
X108123224Y-67583362D01*
X108117094Y-67559142D01*
X108109600Y-67535483D01*
X108100744Y-67512385D01*
X108090526Y-67489848D01*
X108078946Y-67467872D01*
X108066003Y-67446456D01*
X108051697Y-67425602D01*
X108036030Y-67405309D01*
X108018999Y-67385577D01*
X108000607Y-67366406D01*
X107980852Y-67347796D01*
X107959734Y-67329747D01*
X107937537Y-67312533D01*
X107914664Y-67296430D01*
X107891115Y-67281438D01*
X107866892Y-67267556D01*
X107841992Y-67254785D01*
X107816417Y-67243124D01*
X107790167Y-67232574D01*
X107763241Y-67223135D01*
X107735640Y-67214805D01*
X107707363Y-67207587D01*
X107678410Y-67201479D01*
X107648783Y-67196482D01*
X107618479Y-67192595D01*
X107587501Y-67189818D01*
X107555846Y-67188152D01*
X107523517Y-67187597D01*
X107496671Y-67187960D01*
X107470356Y-67189047D01*
X107444571Y-67190860D01*
X107419316Y-67193398D01*
X107394593Y-67196661D01*
X107370399Y-67200649D01*
X107346736Y-67205362D01*
X107323604Y-67210800D01*
X107301002Y-67216964D01*
X107278930Y-67223852D01*
X107257389Y-67231466D01*
X107236379Y-67239804D01*
X107215898Y-67248868D01*
X107195949Y-67258657D01*
X107176530Y-67269170D01*
X107157641Y-67280409D01*
X107149214Y-67261628D01*
X107139384Y-67242711D01*
X107128148Y-67225041D01*
X107114105Y-67208879D01*
X107112700Y-67207625D01*
X107094885Y-67196222D01*
X107074583Y-67189964D01*
X107052966Y-67187675D01*
X107047732Y-67187597D01*
G37*
G36*
X105518771Y-68586132D02*
G01*
X105496234Y-68586681D01*
X105475151Y-68588330D01*
X105455522Y-68591078D01*
X105428805Y-68597260D01*
X105405359Y-68605915D01*
X105385184Y-68617044D01*
X105368281Y-68630645D01*
X105354650Y-68646719D01*
X105344290Y-68665266D01*
X105337202Y-68686287D01*
X105333385Y-68709780D01*
X105332658Y-68726816D01*
X105334294Y-68751957D01*
X105339201Y-68774626D01*
X105347380Y-68794822D01*
X105358830Y-68812545D01*
X105373552Y-68827795D01*
X105391546Y-68840572D01*
X105412810Y-68850876D01*
X105437347Y-68858707D01*
X105465155Y-68864065D01*
X105485511Y-68866263D01*
X105507321Y-68867362D01*
X105518771Y-68867500D01*
X106168457Y-68867500D01*
X106190935Y-68866950D01*
X106211963Y-68865301D01*
X106231541Y-68862554D01*
X106258188Y-68856371D01*
X106281572Y-68847716D01*
X106301694Y-68836588D01*
X106318552Y-68822986D01*
X106332148Y-68806912D01*
X106342480Y-68788365D01*
X106349550Y-68767345D01*
X106353357Y-68743852D01*
X106354082Y-68726816D01*
X106353334Y-68707238D01*
X106350295Y-68685063D01*
X106344919Y-68665440D01*
X106335382Y-68645261D01*
X106322479Y-68628758D01*
X106306210Y-68615929D01*
X106286781Y-68605803D01*
X106268334Y-68598965D01*
X106247836Y-68593581D01*
X106225287Y-68589653D01*
X106205770Y-68587558D01*
X106184941Y-68586394D01*
X106168457Y-68586132D01*
X105985764Y-68586132D01*
X105985764Y-67508532D01*
X106286671Y-67508532D01*
X106286671Y-67770361D01*
X106287220Y-67792839D01*
X106288869Y-67813866D01*
X106291617Y-67833444D01*
X106297799Y-67860091D01*
X106306454Y-67883476D01*
X106317583Y-67903597D01*
X106331184Y-67920455D01*
X106347258Y-67934051D01*
X106365806Y-67944384D01*
X106386826Y-67951453D01*
X106410319Y-67955260D01*
X106427355Y-67955985D01*
X106452496Y-67954354D01*
X106475165Y-67949459D01*
X106495361Y-67941302D01*
X106513084Y-67929882D01*
X106528334Y-67915199D01*
X106541111Y-67897252D01*
X106551415Y-67876043D01*
X106559246Y-67851571D01*
X106564604Y-67823836D01*
X106566802Y-67803534D01*
X106567901Y-67781781D01*
X106568039Y-67770361D01*
X106568039Y-67227165D01*
X105116259Y-67227165D01*
X105116259Y-67770361D01*
X105116725Y-67792175D01*
X105118121Y-67812676D01*
X105121177Y-67836456D01*
X105125687Y-67858185D01*
X105131653Y-67877863D01*
X105140732Y-67898768D01*
X105146057Y-67908114D01*
X105158885Y-67924382D01*
X105175389Y-67937285D01*
X105195567Y-67946822D01*
X105215190Y-67952198D01*
X105237365Y-67955237D01*
X105256943Y-67955985D01*
X105282085Y-67954354D01*
X105304754Y-67949459D01*
X105324949Y-67941302D01*
X105342672Y-67929882D01*
X105357922Y-67915199D01*
X105370699Y-67897252D01*
X105381003Y-67876043D01*
X105388834Y-67851571D01*
X105394192Y-67823836D01*
X105396390Y-67803534D01*
X105397489Y-67781781D01*
X105397627Y-67770361D01*
X105397627Y-67508532D01*
X105704396Y-67508532D01*
X105704396Y-68586132D01*
X105518771Y-68586132D01*
G37*
G36*
X103738729Y-68586132D02*
G01*
X103716915Y-68586597D01*
X103696414Y-68587994D01*
X103672634Y-68591050D01*
X103650905Y-68595560D01*
X103631227Y-68601525D01*
X103610322Y-68610604D01*
X103600976Y-68615929D01*
X103584708Y-68628758D01*
X103571805Y-68645261D01*
X103562268Y-68665440D01*
X103556892Y-68685063D01*
X103553853Y-68707238D01*
X103553105Y-68726816D01*
X103554736Y-68751957D01*
X103559631Y-68774626D01*
X103567788Y-68794822D01*
X103579208Y-68812545D01*
X103593892Y-68827795D01*
X103611838Y-68840572D01*
X103633047Y-68850876D01*
X103657519Y-68858707D01*
X103685254Y-68864065D01*
X103705556Y-68866263D01*
X103727309Y-68867362D01*
X103738729Y-68867500D01*
X104588695Y-68867500D01*
X104611173Y-68866950D01*
X104632200Y-68865301D01*
X104651778Y-68862554D01*
X104678425Y-68856371D01*
X104701810Y-68847716D01*
X104721931Y-68836588D01*
X104738789Y-68822986D01*
X104752385Y-68806912D01*
X104762718Y-68788365D01*
X104769787Y-68767345D01*
X104773594Y-68743852D01*
X104774319Y-68726816D01*
X104773571Y-68707238D01*
X104770532Y-68685063D01*
X104765156Y-68665440D01*
X104755619Y-68645261D01*
X104742716Y-68628758D01*
X104726448Y-68615929D01*
X104707019Y-68605803D01*
X104688572Y-68598965D01*
X104668073Y-68593581D01*
X104645524Y-68589653D01*
X104626007Y-68587558D01*
X104605178Y-68586394D01*
X104588695Y-68586132D01*
X104304396Y-68586132D01*
X104304396Y-67508532D01*
X104588695Y-67508532D01*
X104611173Y-67507983D01*
X104632200Y-67506334D01*
X104651778Y-67503586D01*
X104678425Y-67497404D01*
X104701810Y-67488749D01*
X104721931Y-67477620D01*
X104738789Y-67464019D01*
X104752385Y-67447945D01*
X104762718Y-67429398D01*
X104769787Y-67408377D01*
X104773594Y-67384884D01*
X104774319Y-67367848D01*
X104773571Y-67348271D01*
X104770532Y-67326096D01*
X104765156Y-67306473D01*
X104755619Y-67286294D01*
X104742716Y-67269791D01*
X104726448Y-67256962D01*
X104707019Y-67246836D01*
X104688572Y-67239997D01*
X104668073Y-67234614D01*
X104645524Y-67230686D01*
X104626007Y-67228590D01*
X104605178Y-67227426D01*
X104588695Y-67227165D01*
X103738729Y-67227165D01*
X103716915Y-67227630D01*
X103696414Y-67229027D01*
X103672634Y-67232082D01*
X103650905Y-67236593D01*
X103631227Y-67242558D01*
X103610322Y-67251637D01*
X103600976Y-67256962D01*
X103584708Y-67269791D01*
X103571805Y-67286294D01*
X103562268Y-67306473D01*
X103556892Y-67326096D01*
X103553853Y-67348271D01*
X103553105Y-67367848D01*
X103554736Y-67392990D01*
X103559631Y-67415659D01*
X103567788Y-67435855D01*
X103579208Y-67453578D01*
X103593892Y-67468828D01*
X103611838Y-67481605D01*
X103633047Y-67491909D01*
X103657519Y-67499740D01*
X103685254Y-67505098D01*
X103705556Y-67507296D01*
X103727309Y-67508395D01*
X103738729Y-67508532D01*
X104023028Y-67508532D01*
X104023028Y-68586132D01*
X103738729Y-68586132D01*
G37*
G36*
X102957529Y-67227414D02*
G01*
X102978415Y-67228520D01*
X102998035Y-67230512D01*
X103020778Y-67234248D01*
X103041541Y-67239366D01*
X103060324Y-67245868D01*
X103080251Y-67255497D01*
X103097018Y-67267930D01*
X103110315Y-67284348D01*
X103120144Y-67304750D01*
X103125685Y-67324795D01*
X103128817Y-67347607D01*
X103129588Y-67367848D01*
X103128851Y-67384884D01*
X103124984Y-67408377D01*
X103117803Y-67429398D01*
X103107307Y-67447945D01*
X103093497Y-67464019D01*
X103076372Y-67477620D01*
X103055933Y-67488749D01*
X103032180Y-67497404D01*
X103005112Y-67503586D01*
X102985225Y-67506334D01*
X102963865Y-67507983D01*
X102941032Y-67508532D01*
X102763712Y-67508532D01*
X103199930Y-68586132D01*
X103216426Y-68586381D01*
X103237313Y-68587487D01*
X103256932Y-68589480D01*
X103279675Y-68593215D01*
X103300438Y-68598333D01*
X103319221Y-68604835D01*
X103339148Y-68614464D01*
X103355915Y-68626897D01*
X103369213Y-68643315D01*
X103379042Y-68663717D01*
X103384583Y-68683762D01*
X103387714Y-68706574D01*
X103388485Y-68726816D01*
X103387760Y-68743852D01*
X103383953Y-68767345D01*
X103376884Y-68788365D01*
X103366551Y-68806912D01*
X103352955Y-68822986D01*
X103336097Y-68836588D01*
X103315976Y-68847716D01*
X103292591Y-68856371D01*
X103265944Y-68862554D01*
X103246366Y-68865301D01*
X103225339Y-68866950D01*
X103202861Y-68867500D01*
X102828681Y-68867500D01*
X102817260Y-68867362D01*
X102795507Y-68866263D01*
X102775205Y-68864065D01*
X102747470Y-68858707D01*
X102722998Y-68850876D01*
X102701789Y-68840572D01*
X102683843Y-68827795D01*
X102669159Y-68812545D01*
X102657739Y-68794822D01*
X102649582Y-68774626D01*
X102644687Y-68751957D01*
X102643056Y-68726816D01*
X102643781Y-68709780D01*
X102647588Y-68686287D01*
X102654658Y-68665266D01*
X102664990Y-68646719D01*
X102678586Y-68630645D01*
X102695444Y-68617044D01*
X102715566Y-68605915D01*
X102738950Y-68597260D01*
X102765597Y-68591078D01*
X102785175Y-68588330D01*
X102806203Y-68586681D01*
X102828681Y-68586132D01*
X102893161Y-68586132D01*
X102828681Y-68422978D01*
X102158967Y-68422978D01*
X102093998Y-68586132D01*
X102158967Y-68586132D01*
X102175450Y-68586394D01*
X102196280Y-68587558D01*
X102215796Y-68589653D01*
X102238346Y-68593581D01*
X102258844Y-68598965D01*
X102277291Y-68605803D01*
X102296720Y-68615929D01*
X102312989Y-68628758D01*
X102325891Y-68645261D01*
X102335428Y-68665440D01*
X102340805Y-68685063D01*
X102343843Y-68707238D01*
X102344591Y-68726816D01*
X102343866Y-68743852D01*
X102340059Y-68767345D01*
X102332990Y-68788365D01*
X102322657Y-68806912D01*
X102309062Y-68822986D01*
X102292203Y-68836588D01*
X102272082Y-68847716D01*
X102248697Y-68856371D01*
X102222050Y-68862554D01*
X102202472Y-68865301D01*
X102181445Y-68866950D01*
X102158967Y-68867500D01*
X101767690Y-68867500D01*
X101756269Y-68867362D01*
X101734517Y-68866263D01*
X101714214Y-68864065D01*
X101686479Y-68858707D01*
X101662007Y-68850876D01*
X101640798Y-68840572D01*
X101622852Y-68827795D01*
X101608169Y-68812545D01*
X101596748Y-68794822D01*
X101588591Y-68774626D01*
X101583697Y-68751957D01*
X101582065Y-68726816D01*
X101582813Y-68709780D01*
X101586740Y-68686287D01*
X101594033Y-68665266D01*
X101604692Y-68646719D01*
X101618717Y-68630645D01*
X101636108Y-68617044D01*
X101656864Y-68605915D01*
X101680987Y-68597260D01*
X101708476Y-68591078D01*
X101728672Y-68588330D01*
X101750364Y-68586681D01*
X101773551Y-68586132D01*
X101956665Y-68141610D01*
X102274249Y-68141610D01*
X102715840Y-68141610D01*
X102493579Y-67601345D01*
X102274249Y-68141610D01*
X101956665Y-68141610D01*
X102333356Y-67227165D01*
X102941032Y-67227165D01*
X102957529Y-67227414D01*
G37*
G36*
X100170830Y-67227165D02*
G01*
X100148352Y-67227714D01*
X100127324Y-67229363D01*
X100107747Y-67232110D01*
X100081099Y-67238293D01*
X100057715Y-67246948D01*
X100037594Y-67258077D01*
X100020735Y-67271678D01*
X100007140Y-67287752D01*
X99996807Y-67306299D01*
X99989737Y-67327319D01*
X99985930Y-67350812D01*
X99985205Y-67367848D01*
X99986712Y-67392990D01*
X99991233Y-67415659D01*
X99998768Y-67435855D01*
X100009317Y-67453578D01*
X100022879Y-67468828D01*
X100039456Y-67481605D01*
X100059046Y-67491909D01*
X100081651Y-67499740D01*
X100107269Y-67505098D01*
X100135901Y-67507983D01*
X100156664Y-67508532D01*
X100156664Y-68867500D01*
X100435589Y-68867500D01*
X101164410Y-67759125D01*
X101164410Y-68586132D01*
X101065736Y-68586132D01*
X101043922Y-68586597D01*
X101023421Y-68587994D01*
X100999640Y-68591050D01*
X100977911Y-68595560D01*
X100958234Y-68601525D01*
X100937328Y-68610604D01*
X100927983Y-68615929D01*
X100911714Y-68628758D01*
X100898811Y-68645261D01*
X100889274Y-68665440D01*
X100883898Y-68685063D01*
X100880859Y-68707238D01*
X100880111Y-68726816D01*
X100881743Y-68751957D01*
X100886637Y-68774626D01*
X100894794Y-68794822D01*
X100906215Y-68812545D01*
X100920898Y-68827795D01*
X100938844Y-68840572D01*
X100960053Y-68850876D01*
X100984525Y-68858707D01*
X101012260Y-68864065D01*
X101032563Y-68866263D01*
X101054315Y-68867362D01*
X101065736Y-68867500D01*
X101428681Y-68867500D01*
X101451513Y-68866950D01*
X101472873Y-68865301D01*
X101492760Y-68862554D01*
X101519828Y-68856371D01*
X101543582Y-68847716D01*
X101564021Y-68836588D01*
X101581145Y-68822986D01*
X101594956Y-68806912D01*
X101605451Y-68788365D01*
X101612633Y-68767345D01*
X101616500Y-68743852D01*
X101617236Y-68726816D01*
X101615729Y-68701674D01*
X101611208Y-68679005D01*
X101603673Y-68658809D01*
X101593125Y-68641086D01*
X101579562Y-68625836D01*
X101562986Y-68613060D01*
X101543395Y-68602756D01*
X101520791Y-68594924D01*
X101495172Y-68589566D01*
X101466540Y-68586681D01*
X101445778Y-68586132D01*
X101445778Y-67508532D01*
X101487787Y-67508532D01*
X101510265Y-67507983D01*
X101531293Y-67506334D01*
X101550871Y-67503586D01*
X101577518Y-67497404D01*
X101600902Y-67488749D01*
X101621024Y-67477620D01*
X101637882Y-67464019D01*
X101651478Y-67447945D01*
X101661810Y-67429398D01*
X101668880Y-67408377D01*
X101672687Y-67384884D01*
X101673412Y-67367848D01*
X101672664Y-67348271D01*
X101669625Y-67326096D01*
X101664249Y-67306473D01*
X101654712Y-67286294D01*
X101641809Y-67269791D01*
X101625540Y-67256962D01*
X101606112Y-67246836D01*
X101587665Y-67239997D01*
X101567166Y-67234614D01*
X101544617Y-67230686D01*
X101525100Y-67228590D01*
X101504271Y-67227426D01*
X101487787Y-67227165D01*
X101164410Y-67227165D01*
X100438032Y-68330165D01*
X100438032Y-67508532D01*
X100536706Y-67508532D01*
X100559184Y-67507983D01*
X100580211Y-67506334D01*
X100599789Y-67503586D01*
X100626436Y-67497404D01*
X100649821Y-67488749D01*
X100669942Y-67477620D01*
X100686801Y-67464019D01*
X100700396Y-67447945D01*
X100710729Y-67429398D01*
X100717798Y-67408377D01*
X100721605Y-67384884D01*
X100722330Y-67367848D01*
X100721582Y-67348271D01*
X100718544Y-67326096D01*
X100713167Y-67306473D01*
X100703630Y-67286294D01*
X100690728Y-67269791D01*
X100674459Y-67256962D01*
X100655030Y-67246836D01*
X100636583Y-67239997D01*
X100616085Y-67234614D01*
X100593535Y-67230686D01*
X100574019Y-67228590D01*
X100553189Y-67227426D01*
X100536706Y-67227165D01*
X100170830Y-67227165D01*
G37*
G36*
X98082588Y-67227281D02*
G01*
X98103257Y-67228212D01*
X98127419Y-67230686D01*
X98149720Y-67234614D01*
X98170161Y-67239997D01*
X98188742Y-67246836D01*
X98208583Y-67256962D01*
X98225184Y-67269791D01*
X98238350Y-67286294D01*
X98248082Y-67306473D01*
X98253567Y-67326096D01*
X98256668Y-67348271D01*
X98257431Y-67367848D01*
X98256706Y-67384884D01*
X98252900Y-67408377D01*
X98245830Y-67429398D01*
X98235497Y-67447945D01*
X98221902Y-67464019D01*
X98205043Y-67477620D01*
X98184922Y-67488749D01*
X98161538Y-67497404D01*
X98134890Y-67503586D01*
X98115313Y-67506334D01*
X98094285Y-67507983D01*
X98071807Y-67508532D01*
X98029797Y-67508532D01*
X98029797Y-68586132D01*
X98071807Y-68586132D01*
X98083227Y-68586269D01*
X98104980Y-68587368D01*
X98125283Y-68589566D01*
X98153018Y-68594924D01*
X98177490Y-68602756D01*
X98198699Y-68613060D01*
X98216645Y-68625836D01*
X98231328Y-68641086D01*
X98242748Y-68658809D01*
X98250906Y-68679005D01*
X98255800Y-68701674D01*
X98257431Y-68726816D01*
X98256706Y-68743852D01*
X98252900Y-68767345D01*
X98245830Y-68788365D01*
X98235497Y-68806912D01*
X98221902Y-68822986D01*
X98205043Y-68836588D01*
X98184922Y-68847716D01*
X98161538Y-68856371D01*
X98134890Y-68862554D01*
X98115313Y-68865301D01*
X98094285Y-68866950D01*
X98071807Y-68867500D01*
X97241870Y-68867500D01*
X97210931Y-68867017D01*
X97180763Y-68865568D01*
X97151366Y-68863155D01*
X97122740Y-68859775D01*
X97094885Y-68855430D01*
X97067801Y-68850120D01*
X97041488Y-68843844D01*
X97015945Y-68836603D01*
X96991174Y-68828396D01*
X96967173Y-68819223D01*
X96943943Y-68809085D01*
X96921484Y-68797982D01*
X96899796Y-68785913D01*
X96878879Y-68772878D01*
X96858733Y-68758878D01*
X96839357Y-68743913D01*
X96820961Y-68728096D01*
X96803751Y-68711665D01*
X96787729Y-68694619D01*
X96772893Y-68676960D01*
X96759244Y-68658685D01*
X96746782Y-68639796D01*
X96735507Y-68620293D01*
X96725418Y-68600176D01*
X96716517Y-68579444D01*
X96708802Y-68558097D01*
X96702274Y-68536136D01*
X96696933Y-68513561D01*
X96692779Y-68490371D01*
X96689812Y-68466567D01*
X96688032Y-68442149D01*
X96687844Y-68434213D01*
X96968806Y-68434213D01*
X96969928Y-68452609D01*
X96975819Y-68477978D01*
X96986758Y-68500677D01*
X97002746Y-68520706D01*
X97023784Y-68538064D01*
X97040614Y-68548152D01*
X97059687Y-68557053D01*
X97081005Y-68564768D01*
X97104567Y-68571296D01*
X97130373Y-68576637D01*
X97158423Y-68580791D01*
X97188716Y-68583758D01*
X97221254Y-68585538D01*
X97256036Y-68586132D01*
X97748429Y-68586132D01*
X97748429Y-68186550D01*
X97368387Y-68186550D01*
X97357191Y-68186617D01*
X97335213Y-68187147D01*
X97313788Y-68188208D01*
X97292917Y-68189800D01*
X97272599Y-68191921D01*
X97252834Y-68194574D01*
X97224225Y-68199547D01*
X97196861Y-68205713D01*
X97170742Y-68213074D01*
X97145867Y-68221627D01*
X97122238Y-68231375D01*
X97099854Y-68242316D01*
X97078715Y-68254450D01*
X97071953Y-68258707D01*
X97052955Y-68272005D01*
X97035890Y-68286093D01*
X97020756Y-68300971D01*
X97007554Y-68316638D01*
X96996284Y-68333096D01*
X96986946Y-68350344D01*
X96977500Y-68374570D01*
X96972670Y-68393661D01*
X96969772Y-68413542D01*
X96968806Y-68434213D01*
X96687844Y-68434213D01*
X96687438Y-68417116D01*
X96687730Y-68401042D01*
X96690062Y-68369538D01*
X96694725Y-68338894D01*
X96701720Y-68309107D01*
X96711047Y-68280180D01*
X96722706Y-68252111D01*
X96736697Y-68224901D01*
X96753019Y-68198549D01*
X96771673Y-68173057D01*
X96792659Y-68148422D01*
X96815976Y-68124647D01*
X96841626Y-68101730D01*
X96869607Y-68079672D01*
X96899920Y-68058472D01*
X96932564Y-68038131D01*
X96949761Y-68028283D01*
X96967541Y-68018649D01*
X96985903Y-68009230D01*
X96964431Y-67991845D01*
X96944344Y-67974128D01*
X96925642Y-67956079D01*
X96908326Y-67937698D01*
X96892394Y-67918984D01*
X96877849Y-67899939D01*
X96864688Y-67880562D01*
X96852913Y-67860853D01*
X96842523Y-67840811D01*
X96833519Y-67820438D01*
X96825899Y-67799733D01*
X96819665Y-67778695D01*
X96814817Y-67757326D01*
X96811354Y-67735625D01*
X96809276Y-67713591D01*
X96808583Y-67691226D01*
X96808643Y-67688784D01*
X97089951Y-67688784D01*
X97090043Y-67694703D01*
X97092252Y-67717704D01*
X97097408Y-67739621D01*
X97105510Y-67760454D01*
X97116558Y-67780203D01*
X97130553Y-67798869D01*
X97147493Y-67816450D01*
X97167380Y-67832948D01*
X97184228Y-67844610D01*
X97196238Y-67851945D01*
X97215097Y-67862060D01*
X97234970Y-67871111D01*
X97255855Y-67879096D01*
X97277754Y-67886017D01*
X97300666Y-67891873D01*
X97324592Y-67896665D01*
X97349530Y-67900391D01*
X97375482Y-67903053D01*
X97402447Y-67904650D01*
X97430425Y-67905183D01*
X97748429Y-67905183D01*
X97748429Y-67508532D01*
X97373761Y-67508532D01*
X97365573Y-67508579D01*
X97341666Y-67509280D01*
X97318747Y-67510823D01*
X97296815Y-67513207D01*
X97275871Y-67516433D01*
X97255914Y-67520500D01*
X97230841Y-67527232D01*
X97207523Y-67535460D01*
X97185961Y-67545184D01*
X97166154Y-67556404D01*
X97161466Y-67559432D01*
X97144201Y-67572258D01*
X97129318Y-67586230D01*
X97114062Y-67605304D01*
X97102527Y-67626167D01*
X97094713Y-67648819D01*
X97091141Y-67668229D01*
X97089951Y-67688784D01*
X96808643Y-67688784D01*
X96809193Y-67666517D01*
X96811025Y-67642339D01*
X96814078Y-67618692D01*
X96818353Y-67595574D01*
X96823848Y-67572988D01*
X96830565Y-67550931D01*
X96838503Y-67529406D01*
X96847662Y-67508410D01*
X96858042Y-67487945D01*
X96869644Y-67468011D01*
X96882466Y-67448607D01*
X96896510Y-67429733D01*
X96911775Y-67411390D01*
X96928262Y-67393578D01*
X96945969Y-67376296D01*
X96964898Y-67359544D01*
X96984703Y-67343514D01*
X97005160Y-67328518D01*
X97026270Y-67314556D01*
X97048032Y-67301628D01*
X97070447Y-67289735D01*
X97093515Y-67278875D01*
X97117235Y-67269050D01*
X97141608Y-67260259D01*
X97166633Y-67252503D01*
X97192311Y-67245780D01*
X97218642Y-67240092D01*
X97245625Y-67235438D01*
X97273261Y-67231819D01*
X97301549Y-67229233D01*
X97330490Y-67227682D01*
X97360083Y-67227165D01*
X98071807Y-67227165D01*
X98082588Y-67227281D01*
G37*
G36*
X95149685Y-68138679D02*
G01*
X95130108Y-68139427D01*
X95107933Y-68142466D01*
X95088310Y-68147842D01*
X95068131Y-68157379D01*
X95051628Y-68170282D01*
X95038799Y-68186550D01*
X95028673Y-68206082D01*
X95021834Y-68224773D01*
X95016451Y-68245657D01*
X95012523Y-68268736D01*
X95010427Y-68288779D01*
X95009263Y-68310227D01*
X95009002Y-68327234D01*
X95009002Y-68867500D01*
X96337194Y-68867500D01*
X96359672Y-68866950D01*
X96380700Y-68865301D01*
X96400278Y-68862554D01*
X96426925Y-68856371D01*
X96450309Y-68847716D01*
X96470431Y-68836588D01*
X96487289Y-68822986D01*
X96500885Y-68806912D01*
X96511217Y-68788365D01*
X96518287Y-68767345D01*
X96522094Y-68743852D01*
X96522819Y-68726816D01*
X96522071Y-68707238D01*
X96519032Y-68685063D01*
X96513656Y-68665440D01*
X96504119Y-68645261D01*
X96491216Y-68628758D01*
X96474947Y-68615929D01*
X96455518Y-68605803D01*
X96437071Y-68598965D01*
X96416573Y-68593581D01*
X96394024Y-68589653D01*
X96374507Y-68587558D01*
X96353678Y-68586394D01*
X96337194Y-68586132D01*
X96176482Y-68586132D01*
X96176482Y-67508532D01*
X96337194Y-67508532D01*
X96359672Y-67507983D01*
X96380700Y-67506334D01*
X96400278Y-67503586D01*
X96426925Y-67497404D01*
X96450309Y-67488749D01*
X96470431Y-67477620D01*
X96487289Y-67464019D01*
X96500885Y-67447945D01*
X96511217Y-67429398D01*
X96518287Y-67408377D01*
X96522094Y-67384884D01*
X96522819Y-67367848D01*
X96522071Y-67348271D01*
X96519032Y-67326096D01*
X96513656Y-67306473D01*
X96504119Y-67286294D01*
X96491216Y-67269791D01*
X96474947Y-67256962D01*
X96455518Y-67246836D01*
X96437071Y-67239997D01*
X96416573Y-67234614D01*
X96394024Y-67230686D01*
X96374507Y-67228590D01*
X96353678Y-67227426D01*
X96337194Y-67227165D01*
X95734891Y-67227165D01*
X95712413Y-67227714D01*
X95691386Y-67229363D01*
X95671808Y-67232110D01*
X95645161Y-67238293D01*
X95621776Y-67246948D01*
X95601655Y-67258077D01*
X95584796Y-67271678D01*
X95571201Y-67287752D01*
X95560868Y-67306299D01*
X95553799Y-67327319D01*
X95549992Y-67350812D01*
X95549267Y-67367848D01*
X95550898Y-67392990D01*
X95555793Y-67415659D01*
X95563950Y-67435855D01*
X95575370Y-67453578D01*
X95590053Y-67468828D01*
X95608000Y-67481605D01*
X95629209Y-67491909D01*
X95653681Y-67499740D01*
X95681416Y-67505098D01*
X95701718Y-67507296D01*
X95723471Y-67508395D01*
X95734891Y-67508532D01*
X95895115Y-67508532D01*
X95895115Y-68586132D01*
X95290369Y-68586132D01*
X95290369Y-68327234D01*
X95289820Y-68304401D01*
X95288171Y-68283042D01*
X95285423Y-68263155D01*
X95279241Y-68236087D01*
X95270586Y-68212333D01*
X95259457Y-68191894D01*
X95245856Y-68174770D01*
X95229782Y-68160959D01*
X95211235Y-68150464D01*
X95190215Y-68143282D01*
X95166721Y-68139415D01*
X95149685Y-68138679D01*
G37*
G36*
X94113212Y-67187843D02*
G01*
X94133152Y-67188582D01*
X94152913Y-67189813D01*
X94172493Y-67191536D01*
X94211112Y-67196459D01*
X94249009Y-67203351D01*
X94286186Y-67212212D01*
X94322641Y-67223043D01*
X94358375Y-67235843D01*
X94393387Y-67250612D01*
X94427679Y-67267350D01*
X94461249Y-67286058D01*
X94494098Y-67306734D01*
X94510251Y-67317811D01*
X94526225Y-67329380D01*
X94542018Y-67341442D01*
X94557631Y-67353995D01*
X94573064Y-67367041D01*
X94588316Y-67380580D01*
X94603388Y-67394610D01*
X94618280Y-67409133D01*
X94632991Y-67424148D01*
X94647522Y-67439656D01*
X94661707Y-67455480D01*
X94675442Y-67471505D01*
X94688727Y-67487731D01*
X94701561Y-67504159D01*
X94713945Y-67520788D01*
X94725878Y-67537618D01*
X94737362Y-67554650D01*
X94748394Y-67571883D01*
X94758977Y-67589317D01*
X94769109Y-67606953D01*
X94778791Y-67624790D01*
X94788023Y-67642828D01*
X94796804Y-67661067D01*
X94805135Y-67679508D01*
X94813016Y-67698150D01*
X94820446Y-67716994D01*
X94827426Y-67736038D01*
X94833956Y-67755284D01*
X94840035Y-67774732D01*
X94845664Y-67794380D01*
X94850843Y-67814230D01*
X94855571Y-67834282D01*
X94859849Y-67854534D01*
X94863677Y-67874988D01*
X94867055Y-67895643D01*
X94869982Y-67916500D01*
X94872458Y-67937558D01*
X94874485Y-67958817D01*
X94876061Y-67980277D01*
X94877187Y-68001939D01*
X94877862Y-68023802D01*
X94878087Y-68045867D01*
X94877864Y-68068112D01*
X94877193Y-68090151D01*
X94876074Y-68111984D01*
X94874508Y-68133611D01*
X94872494Y-68155032D01*
X94870033Y-68176246D01*
X94867125Y-68197255D01*
X94863769Y-68218058D01*
X94859965Y-68238654D01*
X94855714Y-68259045D01*
X94851016Y-68279229D01*
X94845870Y-68299207D01*
X94840277Y-68318980D01*
X94834236Y-68338546D01*
X94827748Y-68357906D01*
X94820812Y-68377060D01*
X94813429Y-68396008D01*
X94805599Y-68414750D01*
X94797321Y-68433285D01*
X94788595Y-68451615D01*
X94779422Y-68469739D01*
X94769802Y-68487656D01*
X94759734Y-68505367D01*
X94749219Y-68522873D01*
X94738256Y-68540172D01*
X94726846Y-68557265D01*
X94714988Y-68574152D01*
X94702683Y-68590833D01*
X94689930Y-68607308D01*
X94676730Y-68623577D01*
X94663083Y-68639640D01*
X94648988Y-68655497D01*
X94634544Y-68670974D01*
X94619911Y-68685960D01*
X94605090Y-68700455D01*
X94590079Y-68714458D01*
X94574880Y-68727971D01*
X94559492Y-68740991D01*
X94543915Y-68753521D01*
X94528148Y-68765559D01*
X94512194Y-68777105D01*
X94496050Y-68788161D01*
X94463195Y-68808797D01*
X94429585Y-68827468D01*
X94395219Y-68844174D01*
X94360098Y-68858915D01*
X94324221Y-68871690D01*
X94287588Y-68882499D01*
X94250200Y-68891344D01*
X94212056Y-68898223D01*
X94192701Y-68900925D01*
X94173157Y-68903136D01*
X94153424Y-68904856D01*
X94133502Y-68906084D01*
X94113391Y-68906821D01*
X94093091Y-68907067D01*
X94073119Y-68906822D01*
X94053321Y-68906088D01*
X94014246Y-68903151D01*
X93975866Y-68898257D01*
X93938180Y-68891405D01*
X93901189Y-68882595D01*
X93864892Y-68871827D01*
X93829290Y-68859102D01*
X93794382Y-68844419D01*
X93760169Y-68827778D01*
X93726650Y-68809179D01*
X93693826Y-68788622D01*
X93677675Y-68777610D01*
X93661697Y-68766108D01*
X93645893Y-68754117D01*
X93630262Y-68741636D01*
X93614805Y-68728666D01*
X93599522Y-68715206D01*
X93584412Y-68701257D01*
X93569476Y-68686819D01*
X93554714Y-68671891D01*
X93540125Y-68656474D01*
X93525850Y-68640719D01*
X93512028Y-68624777D01*
X93498659Y-68608650D01*
X93485743Y-68592337D01*
X93473280Y-68575838D01*
X93461271Y-68559152D01*
X93449715Y-68542281D01*
X93438612Y-68525224D01*
X93427962Y-68507980D01*
X93417765Y-68490551D01*
X93408022Y-68472935D01*
X93398731Y-68455134D01*
X93389894Y-68437146D01*
X93381510Y-68418972D01*
X93373580Y-68400613D01*
X93366102Y-68382067D01*
X93359078Y-68363335D01*
X93352507Y-68344417D01*
X93346389Y-68325313D01*
X93340724Y-68306023D01*
X93335512Y-68286547D01*
X93330754Y-68266885D01*
X93326448Y-68247037D01*
X93322596Y-68227003D01*
X93319197Y-68206783D01*
X93316252Y-68186377D01*
X93313759Y-68165785D01*
X93311720Y-68145006D01*
X93310134Y-68124042D01*
X93309001Y-68102892D01*
X93308321Y-68081555D01*
X93308094Y-68060033D01*
X93308153Y-68054171D01*
X93589462Y-68054171D01*
X93590046Y-68083106D01*
X93591798Y-68111537D01*
X93594717Y-68139465D01*
X93598804Y-68166889D01*
X93604059Y-68193809D01*
X93610482Y-68220225D01*
X93618073Y-68246138D01*
X93626831Y-68271547D01*
X93636758Y-68296452D01*
X93647851Y-68320853D01*
X93660113Y-68344751D01*
X93673543Y-68368145D01*
X93688140Y-68391035D01*
X93703905Y-68413422D01*
X93720838Y-68435304D01*
X93738939Y-68456683D01*
X93757782Y-68477150D01*
X93777064Y-68496296D01*
X93796784Y-68514122D01*
X93816944Y-68530628D01*
X93837542Y-68545813D01*
X93858580Y-68559677D01*
X93880056Y-68572221D01*
X93901971Y-68583445D01*
X93924325Y-68593348D01*
X93947118Y-68601931D01*
X93970349Y-68609194D01*
X93994020Y-68615136D01*
X94018129Y-68619757D01*
X94042678Y-68623058D01*
X94067665Y-68625039D01*
X94093091Y-68625699D01*
X94118868Y-68625035D01*
X94144176Y-68623043D01*
X94169014Y-68619723D01*
X94193383Y-68615075D01*
X94217283Y-68609098D01*
X94240713Y-68601794D01*
X94263674Y-68593161D01*
X94286165Y-68583201D01*
X94308187Y-68571912D01*
X94329739Y-68559296D01*
X94350822Y-68545351D01*
X94371436Y-68530078D01*
X94391580Y-68513477D01*
X94411255Y-68495548D01*
X94430461Y-68476291D01*
X94449197Y-68455706D01*
X94467061Y-68434127D01*
X94483773Y-68412009D01*
X94499332Y-68389354D01*
X94513738Y-68366161D01*
X94526992Y-68342429D01*
X94539094Y-68318159D01*
X94550043Y-68293351D01*
X94559839Y-68268005D01*
X94568483Y-68242121D01*
X94575974Y-68215699D01*
X94582313Y-68188739D01*
X94587500Y-68161241D01*
X94591533Y-68133204D01*
X94594415Y-68104630D01*
X94596143Y-68075517D01*
X94596720Y-68045867D01*
X94596138Y-68016573D01*
X94594392Y-67987798D01*
X94591482Y-67959542D01*
X94587408Y-67931805D01*
X94582170Y-67904587D01*
X94575768Y-67877889D01*
X94568202Y-67851709D01*
X94559473Y-67826048D01*
X94549579Y-67800906D01*
X94538521Y-67776284D01*
X94526299Y-67752180D01*
X94512914Y-67728595D01*
X94498364Y-67705529D01*
X94482651Y-67682983D01*
X94465773Y-67660955D01*
X94447732Y-67639446D01*
X94428829Y-67618802D01*
X94409492Y-67599490D01*
X94389720Y-67581509D01*
X94369513Y-67564861D01*
X94348870Y-67549544D01*
X94327793Y-67535559D01*
X94306281Y-67522906D01*
X94284333Y-67511585D01*
X94261950Y-67501596D01*
X94239133Y-67492939D01*
X94215880Y-67485614D01*
X94192192Y-67479620D01*
X94168070Y-67474958D01*
X94143512Y-67471629D01*
X94118519Y-67469631D01*
X94093091Y-67468965D01*
X94067316Y-67469637D01*
X94042014Y-67471652D01*
X94017185Y-67475010D01*
X93992829Y-67479712D01*
X93968947Y-67485757D01*
X93945538Y-67493145D01*
X93922602Y-67501877D01*
X93900139Y-67511952D01*
X93878150Y-67523370D01*
X93856633Y-67536132D01*
X93835590Y-67550237D01*
X93815020Y-67565685D01*
X93794924Y-67582477D01*
X93775300Y-67600612D01*
X93756150Y-67620090D01*
X93737473Y-67640912D01*
X93719550Y-67662619D01*
X93702783Y-67684876D01*
X93687173Y-67707682D01*
X93672718Y-67731038D01*
X93659421Y-67754943D01*
X93647279Y-67779398D01*
X93636294Y-67804402D01*
X93626465Y-67829956D01*
X93617792Y-67856059D01*
X93610276Y-67882712D01*
X93603916Y-67909915D01*
X93598713Y-67937667D01*
X93594666Y-67965969D01*
X93591775Y-67994820D01*
X93590040Y-68024221D01*
X93589462Y-68054171D01*
X93308153Y-68054171D01*
X93308354Y-68034191D01*
X93309132Y-68008688D01*
X93310430Y-67983525D01*
X93312247Y-67958702D01*
X93314582Y-67934219D01*
X93317437Y-67910075D01*
X93320810Y-67886271D01*
X93324703Y-67862807D01*
X93329115Y-67839682D01*
X93334045Y-67816897D01*
X93339495Y-67794451D01*
X93345464Y-67772345D01*
X93351951Y-67750579D01*
X93358958Y-67729152D01*
X93366484Y-67708065D01*
X93374528Y-67687318D01*
X93378678Y-67677102D01*
X93387142Y-67657109D01*
X93395828Y-67637699D01*
X93404735Y-67618873D01*
X93413864Y-67600631D01*
X93423214Y-67582973D01*
X93437654Y-67557581D01*
X93452592Y-67533503D01*
X93468028Y-67510738D01*
X93483962Y-67489287D01*
X93500394Y-67469150D01*
X93517324Y-67450327D01*
X93534752Y-67432817D01*
X93546624Y-67421643D01*
X93564762Y-67405340D01*
X93583295Y-67389586D01*
X93602223Y-67374382D01*
X93621546Y-67359727D01*
X93641264Y-67345622D01*
X93661376Y-67332067D01*
X93681884Y-67319061D01*
X93702787Y-67306605D01*
X93724085Y-67294698D01*
X93745778Y-67283340D01*
X93760245Y-67276112D01*
X93781474Y-67265871D01*
X93802137Y-67256352D01*
X93822232Y-67247553D01*
X93841761Y-67239476D01*
X93860723Y-67232120D01*
X93879119Y-67225485D01*
X93902765Y-67217761D01*
X93925403Y-67211319D01*
X93947034Y-67206160D01*
X93967695Y-67201809D01*
X93987670Y-67198039D01*
X94006957Y-67194848D01*
X94030101Y-67191676D01*
X94052171Y-67189410D01*
X94073167Y-67188050D01*
X94093091Y-67187597D01*
X94113212Y-67187843D01*
G37*
G36*
X92243196Y-68726816D02*
G01*
X92242448Y-68707238D01*
X92239409Y-68685063D01*
X92234033Y-68665440D01*
X92224496Y-68645261D01*
X92211593Y-68628758D01*
X92195324Y-68615929D01*
X92175878Y-68605803D01*
X92157391Y-68598965D01*
X92136828Y-68593581D01*
X92114190Y-68589653D01*
X92094586Y-68587558D01*
X92073653Y-68586394D01*
X92057083Y-68586132D01*
X91958897Y-68586132D01*
X91958897Y-67772803D01*
X92271039Y-68482084D01*
X92527006Y-68482084D01*
X92859176Y-67775734D01*
X92859176Y-68586132D01*
X92760502Y-68586132D01*
X92738024Y-68586597D01*
X92716996Y-68587994D01*
X92697419Y-68590322D01*
X92674986Y-68594541D01*
X92654819Y-68600216D01*
X92633610Y-68608946D01*
X92621284Y-68615929D01*
X92605513Y-68628758D01*
X92593005Y-68645261D01*
X92583760Y-68665440D01*
X92578548Y-68685063D01*
X92575602Y-68707238D01*
X92574877Y-68726816D01*
X92576509Y-68751957D01*
X92581403Y-68774626D01*
X92589561Y-68794822D01*
X92600981Y-68812545D01*
X92615664Y-68827795D01*
X92633610Y-68840572D01*
X92654819Y-68850876D01*
X92679291Y-68858707D01*
X92707026Y-68864065D01*
X92727329Y-68866263D01*
X92749082Y-68867362D01*
X92760502Y-68867500D01*
X93123935Y-68867500D01*
X93146709Y-68866950D01*
X93168014Y-68865301D01*
X93187849Y-68862554D01*
X93214847Y-68856371D01*
X93238539Y-68847716D01*
X93258925Y-68836588D01*
X93276005Y-68822986D01*
X93289780Y-68806912D01*
X93300248Y-68788365D01*
X93307411Y-68767345D01*
X93311268Y-68743852D01*
X93312002Y-68726816D01*
X93310495Y-68701674D01*
X93305974Y-68679005D01*
X93298440Y-68658809D01*
X93287891Y-68641086D01*
X93274328Y-68625836D01*
X93257752Y-68613060D01*
X93238161Y-68602756D01*
X93215557Y-68594924D01*
X93189939Y-68589566D01*
X93161306Y-68586681D01*
X93140544Y-68586132D01*
X93140544Y-67511463D01*
X93166733Y-67507794D01*
X93190346Y-67502098D01*
X93211384Y-67494376D01*
X93229845Y-67484627D01*
X93245730Y-67472852D01*
X93262904Y-67453999D01*
X93275498Y-67431544D01*
X93281938Y-67412339D01*
X93285802Y-67391107D01*
X93287090Y-67367848D01*
X93285698Y-67347280D01*
X93281525Y-67327709D01*
X93274570Y-67309133D01*
X93264833Y-67291553D01*
X93252314Y-67274969D01*
X93247522Y-67269663D01*
X93230709Y-67255220D01*
X93213682Y-67245467D01*
X93193911Y-67237789D01*
X93171397Y-67232186D01*
X93151411Y-67229198D01*
X93129670Y-67227538D01*
X93112212Y-67227165D01*
X92794696Y-67227165D01*
X92406350Y-68065406D01*
X92026308Y-67227165D01*
X91717096Y-67227165D01*
X91694559Y-67227714D01*
X91673476Y-67229363D01*
X91653847Y-67232110D01*
X91627130Y-67238293D01*
X91603684Y-67246948D01*
X91583509Y-67258077D01*
X91566607Y-67271678D01*
X91552975Y-67287752D01*
X91542616Y-67306299D01*
X91535527Y-67327319D01*
X91531710Y-67350812D01*
X91530983Y-67367848D01*
X91532271Y-67390583D01*
X91536135Y-67411343D01*
X91542575Y-67430127D01*
X91555169Y-67452102D01*
X91572343Y-67470565D01*
X91588228Y-67482108D01*
X91606689Y-67491677D01*
X91627727Y-67499270D01*
X91651340Y-67504889D01*
X91677529Y-67508532D01*
X91677529Y-68586132D01*
X91656767Y-68586681D01*
X91628134Y-68589566D01*
X91602516Y-68594924D01*
X91579912Y-68602756D01*
X91560321Y-68613060D01*
X91543745Y-68625836D01*
X91530182Y-68641086D01*
X91519633Y-68658809D01*
X91512099Y-68679005D01*
X91507578Y-68701674D01*
X91506071Y-68726816D01*
X91507702Y-68751957D01*
X91512597Y-68774626D01*
X91520754Y-68794822D01*
X91532174Y-68812545D01*
X91546857Y-68827795D01*
X91564803Y-68840572D01*
X91586013Y-68850876D01*
X91610484Y-68858707D01*
X91638219Y-68864065D01*
X91658522Y-68866263D01*
X91680275Y-68867362D01*
X91691695Y-68867500D01*
X92057083Y-68867500D01*
X92079620Y-68866950D01*
X92100703Y-68865301D01*
X92120332Y-68862554D01*
X92147049Y-68856371D01*
X92170495Y-68847716D01*
X92190670Y-68836588D01*
X92207572Y-68822986D01*
X92221204Y-68806912D01*
X92231564Y-68788365D01*
X92238652Y-68767345D01*
X92242469Y-68743852D01*
X92243196Y-68726816D01*
G37*
D11*
X78729400Y-33554510D02*
X78729400Y-34697368D01*
X79300828Y-34125939D02*
X78157971Y-34125939D01*
X77800828Y-36840225D02*
X77800828Y-37125939D01*
X77800828Y-37125939D02*
X77872257Y-37268796D01*
X77872257Y-37268796D02*
X78015114Y-37411653D01*
X78015114Y-37411653D02*
X78300828Y-37483082D01*
X78300828Y-37483082D02*
X78800828Y-37483082D01*
X78800828Y-37483082D02*
X79086542Y-37411653D01*
X79086542Y-37411653D02*
X79229400Y-37268796D01*
X79229400Y-37268796D02*
X79300828Y-37125939D01*
X79300828Y-37125939D02*
X79300828Y-36840225D01*
X79300828Y-36840225D02*
X79229400Y-36697368D01*
X79229400Y-36697368D02*
X79086542Y-36554510D01*
X79086542Y-36554510D02*
X78800828Y-36483082D01*
X78800828Y-36483082D02*
X78300828Y-36483082D01*
X78300828Y-36483082D02*
X78015114Y-36554510D01*
X78015114Y-36554510D02*
X77872257Y-36697368D01*
X77872257Y-36697368D02*
X77800828Y-36840225D01*
X77872257Y-40054511D02*
X77800828Y-39911654D01*
X77800828Y-39911654D02*
X77800828Y-39697368D01*
X77800828Y-39697368D02*
X77872257Y-39483082D01*
X77872257Y-39483082D02*
X78015114Y-39340225D01*
X78015114Y-39340225D02*
X78157971Y-39268796D01*
X78157971Y-39268796D02*
X78443685Y-39197368D01*
X78443685Y-39197368D02*
X78657971Y-39197368D01*
X78657971Y-39197368D02*
X78943685Y-39268796D01*
X78943685Y-39268796D02*
X79086542Y-39340225D01*
X79086542Y-39340225D02*
X79229400Y-39483082D01*
X79229400Y-39483082D02*
X79300828Y-39697368D01*
X79300828Y-39697368D02*
X79300828Y-39840225D01*
X79300828Y-39840225D02*
X79229400Y-40054511D01*
X79229400Y-40054511D02*
X79157971Y-40125939D01*
X79157971Y-40125939D02*
X78657971Y-40125939D01*
X78657971Y-40125939D02*
X78657971Y-39840225D01*
D12*
X80559580Y-34812261D02*
X80607200Y-34764642D01*
X80607200Y-34764642D02*
X80654819Y-34621785D01*
X80654819Y-34621785D02*
X80654819Y-34526547D01*
X80654819Y-34526547D02*
X80607200Y-34383690D01*
X80607200Y-34383690D02*
X80511961Y-34288452D01*
X80511961Y-34288452D02*
X80416723Y-34240833D01*
X80416723Y-34240833D02*
X80226247Y-34193214D01*
X80226247Y-34193214D02*
X80083390Y-34193214D01*
X80083390Y-34193214D02*
X79892914Y-34240833D01*
X79892914Y-34240833D02*
X79797676Y-34288452D01*
X79797676Y-34288452D02*
X79702438Y-34383690D01*
X79702438Y-34383690D02*
X79654819Y-34526547D01*
X79654819Y-34526547D02*
X79654819Y-34621785D01*
X79654819Y-34621785D02*
X79702438Y-34764642D01*
X79702438Y-34764642D02*
X79750057Y-34812261D01*
X79654819Y-35431309D02*
X79654819Y-35621785D01*
X79654819Y-35621785D02*
X79702438Y-35717023D01*
X79702438Y-35717023D02*
X79797676Y-35812261D01*
X79797676Y-35812261D02*
X79988152Y-35859880D01*
X79988152Y-35859880D02*
X80321485Y-35859880D01*
X80321485Y-35859880D02*
X80511961Y-35812261D01*
X80511961Y-35812261D02*
X80607200Y-35717023D01*
X80607200Y-35717023D02*
X80654819Y-35621785D01*
X80654819Y-35621785D02*
X80654819Y-35431309D01*
X80654819Y-35431309D02*
X80607200Y-35336071D01*
X80607200Y-35336071D02*
X80511961Y-35240833D01*
X80511961Y-35240833D02*
X80321485Y-35193214D01*
X80321485Y-35193214D02*
X79988152Y-35193214D01*
X79988152Y-35193214D02*
X79797676Y-35240833D01*
X79797676Y-35240833D02*
X79702438Y-35336071D01*
X79702438Y-35336071D02*
X79654819Y-35431309D01*
X80654819Y-36288452D02*
X79654819Y-36288452D01*
X79654819Y-36288452D02*
X80654819Y-36859880D01*
X80654819Y-36859880D02*
X79654819Y-36859880D01*
X80750057Y-37097976D02*
X80750057Y-37859880D01*
X80131009Y-38431309D02*
X80178628Y-38574166D01*
X80178628Y-38574166D02*
X80226247Y-38621785D01*
X80226247Y-38621785D02*
X80321485Y-38669404D01*
X80321485Y-38669404D02*
X80464342Y-38669404D01*
X80464342Y-38669404D02*
X80559580Y-38621785D01*
X80559580Y-38621785D02*
X80607200Y-38574166D01*
X80607200Y-38574166D02*
X80654819Y-38478928D01*
X80654819Y-38478928D02*
X80654819Y-38097976D01*
X80654819Y-38097976D02*
X79654819Y-38097976D01*
X79654819Y-38097976D02*
X79654819Y-38431309D01*
X79654819Y-38431309D02*
X79702438Y-38526547D01*
X79702438Y-38526547D02*
X79750057Y-38574166D01*
X79750057Y-38574166D02*
X79845295Y-38621785D01*
X79845295Y-38621785D02*
X79940533Y-38621785D01*
X79940533Y-38621785D02*
X80035771Y-38574166D01*
X80035771Y-38574166D02*
X80083390Y-38526547D01*
X80083390Y-38526547D02*
X80131009Y-38431309D01*
X80131009Y-38431309D02*
X80131009Y-38097976D01*
X80654819Y-39621785D02*
X80654819Y-39050357D01*
X80654819Y-39336071D02*
X79654819Y-39336071D01*
X79654819Y-39336071D02*
X79797676Y-39240833D01*
X79797676Y-39240833D02*
X79892914Y-39145595D01*
X79892914Y-39145595D02*
X79940533Y-39050357D01*
D13*
X103247619Y-37762580D02*
X103438095Y-37762580D01*
X103438095Y-37762580D02*
X103533333Y-37714961D01*
X103533333Y-37714961D02*
X103628571Y-37619723D01*
X103628571Y-37619723D02*
X103676190Y-37429247D01*
X103676190Y-37429247D02*
X103676190Y-37095914D01*
X103676190Y-37095914D02*
X103628571Y-36905438D01*
X103628571Y-36905438D02*
X103533333Y-36810200D01*
X103533333Y-36810200D02*
X103438095Y-36762580D01*
X103438095Y-36762580D02*
X103247619Y-36762580D01*
X103247619Y-36762580D02*
X103152381Y-36810200D01*
X103152381Y-36810200D02*
X103057143Y-36905438D01*
X103057143Y-36905438D02*
X103009524Y-37095914D01*
X103009524Y-37095914D02*
X103009524Y-37429247D01*
X103009524Y-37429247D02*
X103057143Y-37619723D01*
X103057143Y-37619723D02*
X103152381Y-37714961D01*
X103152381Y-37714961D02*
X103247619Y-37762580D01*
X104104762Y-36762580D02*
X104104762Y-37762580D01*
X104104762Y-37762580D02*
X104485714Y-37762580D01*
X104485714Y-37762580D02*
X104580952Y-37714961D01*
X104580952Y-37714961D02*
X104628571Y-37667342D01*
X104628571Y-37667342D02*
X104676190Y-37572104D01*
X104676190Y-37572104D02*
X104676190Y-37429247D01*
X104676190Y-37429247D02*
X104628571Y-37334009D01*
X104628571Y-37334009D02*
X104580952Y-37286390D01*
X104580952Y-37286390D02*
X104485714Y-37238771D01*
X104485714Y-37238771D02*
X104104762Y-37238771D01*
X104961905Y-37762580D02*
X105533333Y-37762580D01*
X105247619Y-36762580D02*
X105247619Y-37762580D01*
X106390476Y-36762580D02*
X105819048Y-36762580D01*
X106104762Y-36762580D02*
X106104762Y-37762580D01*
X106104762Y-37762580D02*
X106009524Y-37619723D01*
X106009524Y-37619723D02*
X105914286Y-37524485D01*
X105914286Y-37524485D02*
X105819048Y-37476866D01*
D14*
X74770000Y-33177500D02*
X77430000Y-33177500D01*
X74770000Y-38317500D02*
X74770000Y-33177500D01*
X74770000Y-38317500D02*
X77430000Y-38317500D01*
X74770000Y-39587500D02*
X74770000Y-40917500D01*
X74770000Y-40917500D02*
X76100000Y-40917500D01*
X77430000Y-38317500D02*
X77430000Y-33177500D01*
D13*
X100350000Y-42770000D02*
X106400000Y-42770000D01*
X106400000Y-42770000D02*
X106400000Y-32645000D01*
X106400000Y-32645000D02*
X100350000Y-32645000D01*
X100350000Y-32645000D02*
X100350000Y-42770000D01*
%LPC*%
D15*
X116000000Y-65982499D03*
X88500000Y-65982499D03*
D16*
X76100000Y-39587500D03*
D17*
X76100000Y-37047500D03*
X76100000Y-34507500D03*
D18*
X102160000Y-41800000D03*
X104700000Y-41800000D03*
X101525000Y-33595000D03*
X103425000Y-33595000D03*
X105325000Y-33595000D03*
%LPD*%
M02*
