G04 #@! TF.GenerationSoftware,KiCad,Pcbnew,7.0.8-7.0.8~ubuntu22.04.1*
G04 #@! TF.CreationDate,2024-01-26T15:42:25+01:00*
G04 #@! TF.ProjectId,hand_B,68616e64-5f42-42e6-9b69-6361645f7063,rev?*
G04 #@! TF.SameCoordinates,Original*
G04 #@! TF.FileFunction,Copper,L1,Top*
G04 #@! TF.FilePolarity,Positive*
%FSLAX46Y46*%
G04 Gerber Fmt 4.6, Leading zero omitted, Abs format (unit mm)*
G04 Created by KiCad (PCBNEW 7.0.8-7.0.8~ubuntu22.04.1) date 2024-01-26 15:42:25*
%MOMM*%
%LPD*%
G01*
G04 APERTURE LIST*
G04 Aperture macros list*
%AMRoundRect*
0 Rectangle with rounded corners*
0 $1 Rounding radius*
0 $2 $3 $4 $5 $6 $7 $8 $9 X,Y pos of 4 corners*
0 Add a 4 corners polygon primitive as box body*
4,1,4,$2,$3,$4,$5,$6,$7,$8,$9,$2,$3,0*
0 Add four circle primitives for the rounded corners*
1,1,$1+$1,$2,$3*
1,1,$1+$1,$4,$5*
1,1,$1+$1,$6,$7*
1,1,$1+$1,$8,$9*
0 Add four rect primitives between the rounded corners*
20,1,$1+$1,$2,$3,$4,$5,0*
20,1,$1+$1,$4,$5,$6,$7,0*
20,1,$1+$1,$6,$7,$8,$9,0*
20,1,$1+$1,$8,$9,$2,$3,0*%
G04 Aperture macros list end*
G04 #@! TA.AperFunction,SMDPad,CuDef*
%ADD10RoundRect,0.135000X0.135000X0.185000X-0.135000X0.185000X-0.135000X-0.185000X0.135000X-0.185000X0*%
G04 #@! TD*
G04 #@! TA.AperFunction,ComponentPad*
%ADD11R,1.700000X1.700000*%
G04 #@! TD*
G04 #@! TA.AperFunction,ComponentPad*
%ADD12O,1.700000X1.700000*%
G04 #@! TD*
G04 #@! TA.AperFunction,ComponentPad*
%ADD13C,1.524000*%
G04 #@! TD*
G04 #@! TA.AperFunction,Conductor*
%ADD14C,0.250000*%
G04 #@! TD*
G04 APERTURE END LIST*
D10*
X103819999Y-38900000D03*
X102799999Y-38900000D03*
D11*
X76100000Y-39587500D03*
D12*
X76100000Y-37047500D03*
X76100000Y-34507500D03*
D13*
X102160000Y-41800000D03*
X104700000Y-41800000D03*
X101525000Y-33595000D03*
X103425000Y-33595000D03*
X105325000Y-33595000D03*
D14*
X76100000Y-37047500D02*
X99972500Y-37047500D01*
X99972500Y-37047500D02*
X103425000Y-33595000D01*
X76100000Y-39587500D02*
X102110000Y-39587500D01*
X102790000Y-36130000D02*
X105325000Y-33595000D01*
X102110000Y-39587500D02*
X102790000Y-38907500D01*
X102790000Y-38907500D02*
X102790000Y-36130000D01*
X103810000Y-38907500D02*
X103810000Y-40910000D01*
X103810000Y-40910000D02*
X104700000Y-41800000D01*
G04 #@! TA.AperFunction,NonConductor*
G36*
X102084372Y-35922730D02*
G01*
X102140305Y-35964602D01*
X102164722Y-36030066D01*
X102164368Y-36043180D01*
X102164500Y-36043180D01*
X102164500Y-36071016D01*
X102162973Y-36090415D01*
X102159840Y-36110194D01*
X102159840Y-36110195D01*
X102164225Y-36156583D01*
X102164500Y-36162421D01*
X102164500Y-38278949D01*
X102147232Y-38342070D01*
X102077130Y-38460605D01*
X102077128Y-38460611D01*
X102032334Y-38614791D01*
X102032333Y-38614797D01*
X102029499Y-38650817D01*
X102029499Y-38732047D01*
X102009814Y-38799086D01*
X101993184Y-38819723D01*
X101887226Y-38925682D01*
X101825906Y-38959166D01*
X101799547Y-38962000D01*
X77574499Y-38962000D01*
X77507460Y-38942315D01*
X77461705Y-38889511D01*
X77450499Y-38838000D01*
X77450499Y-38689629D01*
X77450498Y-38689623D01*
X77450497Y-38689616D01*
X77444091Y-38630017D01*
X77438414Y-38614797D01*
X77393797Y-38495171D01*
X77393793Y-38495164D01*
X77307547Y-38379955D01*
X77307544Y-38379952D01*
X77192335Y-38293706D01*
X77192328Y-38293702D01*
X77060917Y-38244689D01*
X77004983Y-38202818D01*
X76980566Y-38137353D01*
X76995418Y-38069080D01*
X77016563Y-38040832D01*
X77138495Y-37918901D01*
X77273652Y-37725877D01*
X77328229Y-37682252D01*
X77375227Y-37673000D01*
X99889757Y-37673000D01*
X99905377Y-37674724D01*
X99905404Y-37674439D01*
X99913160Y-37675171D01*
X99913167Y-37675173D01*
X99982314Y-37673000D01*
X100011850Y-37673000D01*
X100018728Y-37672130D01*
X100024541Y-37671672D01*
X100071127Y-37670209D01*
X100090369Y-37664617D01*
X100109412Y-37660674D01*
X100129292Y-37658164D01*
X100172622Y-37641007D01*
X100178146Y-37639117D01*
X100181896Y-37638027D01*
X100222890Y-37626118D01*
X100240129Y-37615922D01*
X100257603Y-37607362D01*
X100276227Y-37599988D01*
X100276227Y-37599987D01*
X100276232Y-37599986D01*
X100313949Y-37572582D01*
X100318805Y-37569392D01*
X100358920Y-37545670D01*
X100373089Y-37531499D01*
X100387879Y-37518868D01*
X100404087Y-37507094D01*
X100433799Y-37471176D01*
X100437712Y-37466876D01*
X101953360Y-35951229D01*
X102014680Y-35917746D01*
X102084372Y-35922730D01*
G37*
G04 #@! TD.AperFunction*
G04 #@! TA.AperFunction,NonConductor*
G36*
X100328467Y-32919685D02*
G01*
X100374222Y-32972489D01*
X100384166Y-33041647D01*
X100373810Y-33076405D01*
X100334107Y-33161548D01*
X100334104Y-33161554D01*
X100276930Y-33374929D01*
X100276929Y-33374937D01*
X100257677Y-33594997D01*
X100257677Y-33595002D01*
X100276929Y-33815062D01*
X100276930Y-33815070D01*
X100334104Y-34028445D01*
X100334105Y-34028447D01*
X100334106Y-34028450D01*
X100427466Y-34228662D01*
X100427468Y-34228666D01*
X100554170Y-34409615D01*
X100554175Y-34409621D01*
X100710378Y-34565824D01*
X100710384Y-34565829D01*
X100891333Y-34692531D01*
X100891335Y-34692532D01*
X100891338Y-34692534D01*
X101091550Y-34785894D01*
X101091563Y-34785897D01*
X101096644Y-34787748D01*
X101095858Y-34789904D01*
X101147159Y-34821136D01*
X101177722Y-34883967D01*
X101169464Y-34953347D01*
X101143131Y-34992276D01*
X99749728Y-36385681D01*
X99688405Y-36419166D01*
X99662047Y-36422000D01*
X77375227Y-36422000D01*
X77308188Y-36402315D01*
X77273652Y-36369123D01*
X77138494Y-36176097D01*
X76971402Y-36009006D01*
X76971396Y-36009001D01*
X76785842Y-35879075D01*
X76742217Y-35824498D01*
X76735023Y-35755000D01*
X76766546Y-35692645D01*
X76785842Y-35675925D01*
X76838750Y-35638878D01*
X76971401Y-35545995D01*
X77138495Y-35378901D01*
X77274035Y-35185330D01*
X77373903Y-34971163D01*
X77435063Y-34742908D01*
X77455659Y-34507500D01*
X77435063Y-34272092D01*
X77373903Y-34043837D01*
X77274035Y-33829671D01*
X77263812Y-33815070D01*
X77138494Y-33636097D01*
X76971402Y-33469006D01*
X76971395Y-33469001D01*
X76777834Y-33333467D01*
X76777830Y-33333465D01*
X76777828Y-33333464D01*
X76563663Y-33233597D01*
X76563659Y-33233596D01*
X76563655Y-33233594D01*
X76335413Y-33172438D01*
X76335403Y-33172436D01*
X76100001Y-33151841D01*
X76099999Y-33151841D01*
X75864596Y-33172436D01*
X75864586Y-33172438D01*
X75636344Y-33233594D01*
X75636335Y-33233598D01*
X75422171Y-33333464D01*
X75422169Y-33333465D01*
X75228597Y-33469005D01*
X75061505Y-33636097D01*
X74925965Y-33829669D01*
X74925964Y-33829671D01*
X74826098Y-34043835D01*
X74826094Y-34043844D01*
X74764938Y-34272086D01*
X74764936Y-34272096D01*
X74744341Y-34507499D01*
X74744341Y-34507500D01*
X74764936Y-34742903D01*
X74764938Y-34742913D01*
X74826094Y-34971155D01*
X74826096Y-34971159D01*
X74826097Y-34971163D01*
X74925965Y-35185330D01*
X74925967Y-35185334D01*
X75061501Y-35378895D01*
X75061506Y-35378902D01*
X75228597Y-35545993D01*
X75228603Y-35545998D01*
X75414158Y-35675925D01*
X75457783Y-35730502D01*
X75464977Y-35800000D01*
X75433454Y-35862355D01*
X75414158Y-35879075D01*
X75228597Y-36009005D01*
X75061505Y-36176097D01*
X74925965Y-36369669D01*
X74925964Y-36369671D01*
X74826098Y-36583835D01*
X74826094Y-36583844D01*
X74764938Y-36812086D01*
X74764936Y-36812096D01*
X74744341Y-37047499D01*
X74744341Y-37047500D01*
X74764936Y-37282903D01*
X74764938Y-37282913D01*
X74826094Y-37511155D01*
X74826096Y-37511159D01*
X74826097Y-37511163D01*
X74872630Y-37610953D01*
X74925965Y-37725330D01*
X74925967Y-37725334D01*
X75034281Y-37880021D01*
X75061501Y-37918896D01*
X75061506Y-37918902D01*
X75183430Y-38040826D01*
X75216915Y-38102149D01*
X75211931Y-38171841D01*
X75170059Y-38227774D01*
X75139083Y-38244689D01*
X75007669Y-38293703D01*
X75007664Y-38293706D01*
X74892455Y-38379952D01*
X74892452Y-38379955D01*
X74806206Y-38495164D01*
X74806202Y-38495171D01*
X74755908Y-38630017D01*
X74753672Y-38650819D01*
X74749501Y-38689623D01*
X74749500Y-38689635D01*
X74749500Y-40485370D01*
X74749501Y-40485376D01*
X74755908Y-40544983D01*
X74806202Y-40679828D01*
X74806206Y-40679835D01*
X74892452Y-40795044D01*
X74892455Y-40795047D01*
X75007664Y-40881293D01*
X75007671Y-40881297D01*
X75142517Y-40931591D01*
X75142516Y-40931591D01*
X75149444Y-40932335D01*
X75202127Y-40938000D01*
X76997872Y-40937999D01*
X77057483Y-40931591D01*
X77192331Y-40881296D01*
X77307546Y-40795046D01*
X77393796Y-40679831D01*
X77444091Y-40544983D01*
X77450500Y-40485373D01*
X77450500Y-40337000D01*
X77470185Y-40269961D01*
X77522989Y-40224206D01*
X77574500Y-40213000D01*
X102027257Y-40213000D01*
X102042877Y-40214724D01*
X102042904Y-40214439D01*
X102050660Y-40215171D01*
X102050667Y-40215173D01*
X102119814Y-40213000D01*
X102149350Y-40213000D01*
X102156228Y-40212130D01*
X102162041Y-40211672D01*
X102208627Y-40210209D01*
X102227869Y-40204617D01*
X102246912Y-40200674D01*
X102266792Y-40198164D01*
X102310122Y-40181007D01*
X102315646Y-40179117D01*
X102319396Y-40178027D01*
X102360390Y-40166118D01*
X102377629Y-40155922D01*
X102395103Y-40147362D01*
X102413727Y-40139988D01*
X102413727Y-40139987D01*
X102413732Y-40139986D01*
X102451449Y-40112582D01*
X102456305Y-40109392D01*
X102496420Y-40085670D01*
X102510589Y-40071499D01*
X102525379Y-40058868D01*
X102541587Y-40047094D01*
X102571299Y-40011176D01*
X102575212Y-40006876D01*
X102825273Y-39756815D01*
X102886595Y-39723333D01*
X102912953Y-39720499D01*
X102999179Y-39720499D01*
X103035203Y-39717665D01*
X103035219Y-39717660D01*
X103038213Y-39717114D01*
X103039920Y-39717293D01*
X103041520Y-39717168D01*
X103041543Y-39717464D01*
X103107698Y-39724429D01*
X103162199Y-39768149D01*
X103184411Y-39834394D01*
X103184500Y-39839095D01*
X103184500Y-40739691D01*
X103164815Y-40806730D01*
X103112011Y-40852485D01*
X103042853Y-40862429D01*
X102979297Y-40833404D01*
X102975968Y-40830305D01*
X102974615Y-40829170D01*
X102793666Y-40702468D01*
X102793662Y-40702466D01*
X102745114Y-40679828D01*
X102593450Y-40609106D01*
X102593447Y-40609105D01*
X102593445Y-40609104D01*
X102380070Y-40551930D01*
X102380062Y-40551929D01*
X102160002Y-40532677D01*
X102159998Y-40532677D01*
X101939937Y-40551929D01*
X101939929Y-40551930D01*
X101726554Y-40609104D01*
X101726548Y-40609107D01*
X101526340Y-40702465D01*
X101526338Y-40702466D01*
X101345377Y-40829175D01*
X101189175Y-40985377D01*
X101062466Y-41166338D01*
X101062465Y-41166340D01*
X100969107Y-41366548D01*
X100969104Y-41366554D01*
X100911930Y-41579929D01*
X100911929Y-41579937D01*
X100892677Y-41799997D01*
X100892677Y-41800002D01*
X100911929Y-42020062D01*
X100911930Y-42020070D01*
X100969104Y-42233445D01*
X100969105Y-42233447D01*
X100969106Y-42233450D01*
X101002382Y-42304811D01*
X101062466Y-42433662D01*
X101062468Y-42433666D01*
X101189170Y-42614615D01*
X101189175Y-42614621D01*
X101345378Y-42770824D01*
X101345384Y-42770829D01*
X101526333Y-42897531D01*
X101526335Y-42897532D01*
X101526338Y-42897534D01*
X101726550Y-42990894D01*
X101939932Y-43048070D01*
X102097123Y-43061822D01*
X102159998Y-43067323D01*
X102160000Y-43067323D01*
X102160002Y-43067323D01*
X102215017Y-43062509D01*
X102380068Y-43048070D01*
X102593450Y-42990894D01*
X102793662Y-42897534D01*
X102974620Y-42770826D01*
X103130826Y-42614620D01*
X103257534Y-42433662D01*
X103317618Y-42304811D01*
X103363790Y-42252371D01*
X103430983Y-42233219D01*
X103497865Y-42253435D01*
X103542382Y-42304811D01*
X103602464Y-42433658D01*
X103602468Y-42433666D01*
X103729170Y-42614615D01*
X103729175Y-42614621D01*
X103885378Y-42770824D01*
X103885384Y-42770829D01*
X104066333Y-42897531D01*
X104066335Y-42897532D01*
X104066338Y-42897534D01*
X104266550Y-42990894D01*
X104479932Y-43048070D01*
X104637123Y-43061822D01*
X104699998Y-43067323D01*
X104700000Y-43067323D01*
X104700002Y-43067323D01*
X104755017Y-43062509D01*
X104920068Y-43048070D01*
X105133450Y-42990894D01*
X105333662Y-42897534D01*
X105514620Y-42770826D01*
X105670826Y-42614620D01*
X105797534Y-42433662D01*
X105890894Y-42233450D01*
X105948070Y-42020068D01*
X105967323Y-41800000D01*
X105948070Y-41579932D01*
X105890894Y-41366550D01*
X105797534Y-41166339D01*
X105670826Y-40985380D01*
X105514620Y-40829174D01*
X105514616Y-40829171D01*
X105514615Y-40829170D01*
X105333666Y-40702468D01*
X105333662Y-40702466D01*
X105285114Y-40679828D01*
X105133450Y-40609106D01*
X105133447Y-40609105D01*
X105133445Y-40609104D01*
X104920070Y-40551930D01*
X104920062Y-40551929D01*
X104700002Y-40532677D01*
X104699998Y-40532677D01*
X104570307Y-40544023D01*
X104501807Y-40530256D01*
X104451624Y-40481641D01*
X104435500Y-40420495D01*
X104435500Y-39553100D01*
X104455185Y-39486061D01*
X104460956Y-39477897D01*
X104461131Y-39477600D01*
X104461134Y-39477598D01*
X104542868Y-39339393D01*
X104587664Y-39185204D01*
X104590499Y-39149181D01*
X104590498Y-38650820D01*
X104587664Y-38614796D01*
X104542868Y-38460607D01*
X104461134Y-38322402D01*
X104461132Y-38322400D01*
X104461129Y-38322396D01*
X104347602Y-38208869D01*
X104347594Y-38208863D01*
X104209392Y-38127131D01*
X104209387Y-38127129D01*
X104055207Y-38082335D01*
X104055201Y-38082334D01*
X104019182Y-38079500D01*
X104019180Y-38079500D01*
X103753606Y-38079500D01*
X103620818Y-38079501D01*
X103584793Y-38082335D01*
X103574092Y-38085444D01*
X103504222Y-38085243D01*
X103445553Y-38047299D01*
X103416712Y-37983660D01*
X103415500Y-37966367D01*
X103415500Y-36440452D01*
X103435185Y-36373413D01*
X103451819Y-36352771D01*
X104165712Y-35638878D01*
X104941205Y-34863384D01*
X105002526Y-34829901D01*
X105060976Y-34831291D01*
X105104932Y-34843070D01*
X105262123Y-34856822D01*
X105324998Y-34862323D01*
X105325000Y-34862323D01*
X105325002Y-34862323D01*
X105380017Y-34857509D01*
X105545068Y-34843070D01*
X105758450Y-34785894D01*
X105958662Y-34692534D01*
X106139620Y-34565826D01*
X106295826Y-34409620D01*
X106422534Y-34228662D01*
X106515894Y-34028450D01*
X106573070Y-33815068D01*
X106592323Y-33595000D01*
X106573070Y-33374932D01*
X106515894Y-33161550D01*
X106476189Y-33076404D01*
X106465698Y-33007327D01*
X106494218Y-32943543D01*
X106552694Y-32905304D01*
X106588572Y-32900000D01*
X125876000Y-32900000D01*
X125943039Y-32919685D01*
X125988794Y-32972489D01*
X126000000Y-33024000D01*
X126000000Y-69376000D01*
X125980315Y-69443039D01*
X125927511Y-69488794D01*
X125876000Y-69500000D01*
X74324000Y-69500000D01*
X74256961Y-69480315D01*
X74211206Y-69427511D01*
X74200000Y-69376000D01*
X74200000Y-65982499D01*
X86894551Y-65982499D01*
X86914317Y-66233650D01*
X86973126Y-66478609D01*
X87069533Y-66711358D01*
X87201160Y-66926152D01*
X87201161Y-66926155D01*
X87201164Y-66926158D01*
X87364776Y-67117723D01*
X87513066Y-67244374D01*
X87556343Y-67281337D01*
X87556346Y-67281338D01*
X87771140Y-67412965D01*
X88003889Y-67509372D01*
X88248852Y-67568182D01*
X88404950Y-67580467D01*
X88437116Y-67582999D01*
X88437118Y-67582999D01*
X88562884Y-67582999D01*
X88592518Y-67580666D01*
X88751148Y-67568182D01*
X88996111Y-67509372D01*
X89228859Y-67412965D01*
X89443659Y-67281335D01*
X89635224Y-67117723D01*
X89798836Y-66926158D01*
X89930466Y-66711358D01*
X90026873Y-66478610D01*
X90085683Y-66233647D01*
X90105449Y-65982499D01*
X114394551Y-65982499D01*
X114414317Y-66233650D01*
X114473126Y-66478609D01*
X114569533Y-66711358D01*
X114701160Y-66926152D01*
X114701161Y-66926155D01*
X114701164Y-66926158D01*
X114864776Y-67117723D01*
X115013066Y-67244374D01*
X115056343Y-67281337D01*
X115056346Y-67281338D01*
X115271140Y-67412965D01*
X115503889Y-67509372D01*
X115748852Y-67568182D01*
X115904950Y-67580467D01*
X115937116Y-67582999D01*
X115937118Y-67582999D01*
X116062884Y-67582999D01*
X116092518Y-67580666D01*
X116251148Y-67568182D01*
X116496111Y-67509372D01*
X116728859Y-67412965D01*
X116943659Y-67281335D01*
X117135224Y-67117723D01*
X117298836Y-66926158D01*
X117430466Y-66711358D01*
X117526873Y-66478610D01*
X117585683Y-66233647D01*
X117605449Y-65982499D01*
X117585683Y-65731351D01*
X117526873Y-65486388D01*
X117430466Y-65253640D01*
X117430466Y-65253639D01*
X117298839Y-65038845D01*
X117298838Y-65038842D01*
X117261875Y-64995565D01*
X117135224Y-64847275D01*
X117008571Y-64739103D01*
X116943656Y-64683660D01*
X116943653Y-64683659D01*
X116728859Y-64552032D01*
X116496110Y-64455625D01*
X116251150Y-64396816D01*
X116062884Y-64381999D01*
X116062882Y-64381999D01*
X115937118Y-64381999D01*
X115937116Y-64381999D01*
X115748849Y-64396816D01*
X115503889Y-64455625D01*
X115271140Y-64552032D01*
X115056346Y-64683659D01*
X115056343Y-64683660D01*
X114864776Y-64847275D01*
X114701161Y-65038842D01*
X114701160Y-65038845D01*
X114569533Y-65253639D01*
X114473126Y-65486388D01*
X114414317Y-65731347D01*
X114394551Y-65982499D01*
X90105449Y-65982499D01*
X90085683Y-65731351D01*
X90026873Y-65486388D01*
X89930466Y-65253640D01*
X89930466Y-65253639D01*
X89798839Y-65038845D01*
X89798838Y-65038842D01*
X89761875Y-64995565D01*
X89635224Y-64847275D01*
X89508571Y-64739103D01*
X89443656Y-64683660D01*
X89443653Y-64683659D01*
X89228859Y-64552032D01*
X88996110Y-64455625D01*
X88751150Y-64396816D01*
X88562884Y-64381999D01*
X88562882Y-64381999D01*
X88437118Y-64381999D01*
X88437116Y-64381999D01*
X88248849Y-64396816D01*
X88003889Y-64455625D01*
X87771140Y-64552032D01*
X87556346Y-64683659D01*
X87556343Y-64683660D01*
X87364776Y-64847275D01*
X87201161Y-65038842D01*
X87201160Y-65038845D01*
X87069533Y-65253639D01*
X86973126Y-65486388D01*
X86914317Y-65731347D01*
X86894551Y-65982499D01*
X74200000Y-65982499D01*
X74200000Y-33024000D01*
X74219685Y-32956961D01*
X74272489Y-32911206D01*
X74324000Y-32900000D01*
X100261428Y-32900000D01*
X100328467Y-32919685D01*
G37*
G04 #@! TD.AperFunction*
M02*
