G04 #@! TF.GenerationSoftware,KiCad,Pcbnew,7.0.8-7.0.8~ubuntu22.04.1*
G04 #@! TF.CreationDate,2024-01-26T15:42:25+01:00*
G04 #@! TF.ProjectId,hand_B,68616e64-5f42-42e6-9b69-6361645f7063,rev?*
G04 #@! TF.SameCoordinates,Original*
G04 #@! TF.FileFunction,Legend,Top*
G04 #@! TF.FilePolarity,Positive*
%FSLAX46Y46*%
G04 Gerber Fmt 4.6, Leading zero omitted, Abs format (unit mm)*
G04 Created by KiCad (PCBNEW 7.0.8-7.0.8~ubuntu22.04.1) date 2024-01-26 15:42:25*
%MOMM*%
%LPD*%
G01*
G04 APERTURE LIST*
G04 Aperture macros list*
%AMRoundRect*
0 Rectangle with rounded corners*
0 $1 Rounding radius*
0 $2 $3 $4 $5 $6 $7 $8 $9 X,Y pos of 4 corners*
0 Add a 4 corners polygon primitive as box body*
4,1,4,$2,$3,$4,$5,$6,$7,$8,$9,$2,$3,0*
0 Add four circle primitives for the rounded corners*
1,1,$1+$1,$2,$3*
1,1,$1+$1,$4,$5*
1,1,$1+$1,$6,$7*
1,1,$1+$1,$8,$9*
0 Add four rect primitives between the rounded corners*
20,1,$1+$1,$2,$3,$4,$5,0*
20,1,$1+$1,$4,$5,$6,$7,0*
20,1,$1+$1,$6,$7,$8,$9,0*
20,1,$1+$1,$8,$9,$2,$3,0*%
G04 Aperture macros list end*
%ADD10C,0.200000*%
%ADD11C,0.150000*%
%ADD12C,0.120000*%
%ADD13RoundRect,0.135000X0.135000X0.185000X-0.135000X0.185000X-0.135000X-0.185000X0.135000X-0.185000X0*%
%ADD14C,2.700000*%
%ADD15R,1.700000X1.700000*%
%ADD16O,1.700000X1.700000*%
%ADD17C,1.524000*%
G04 APERTURE END LIST*
D10*
G36*
X76383740Y-60789316D02*
G01*
X76395008Y-60789590D01*
X76405550Y-60790415D01*
X76415365Y-60791789D01*
X76428723Y-60794880D01*
X76440446Y-60799207D01*
X76450533Y-60804772D01*
X76458985Y-60811572D01*
X76465800Y-60819609D01*
X76470980Y-60828883D01*
X76474525Y-60839393D01*
X76476433Y-60851140D01*
X76476796Y-60859658D01*
X76475979Y-60872228D01*
X76473525Y-60883563D01*
X76469436Y-60893661D01*
X76463710Y-60902522D01*
X76456349Y-60910147D01*
X76447353Y-60916536D01*
X76436720Y-60921688D01*
X76424452Y-60925603D01*
X76410548Y-60928282D01*
X76400370Y-60929381D01*
X76389465Y-60929931D01*
X76383740Y-60930000D01*
X76058897Y-60930000D01*
X76047658Y-60929725D01*
X76037144Y-60928900D01*
X76027355Y-60927527D01*
X76014032Y-60924435D01*
X76002339Y-60920108D01*
X75992279Y-60914544D01*
X75983849Y-60907743D01*
X75977052Y-60899706D01*
X75971885Y-60890432D01*
X75968351Y-60879922D01*
X75966447Y-60868176D01*
X75966085Y-60859658D01*
X75966459Y-60849869D01*
X75967978Y-60838781D01*
X75970666Y-60828970D01*
X75975435Y-60818880D01*
X75981886Y-60810629D01*
X75990020Y-60804214D01*
X75999735Y-60799151D01*
X76008958Y-60795732D01*
X76019207Y-60793040D01*
X76030482Y-60791076D01*
X76040240Y-60790029D01*
X76050655Y-60789447D01*
X76058897Y-60789316D01*
X76150244Y-60789316D01*
X76150244Y-60250516D01*
X75999790Y-60250516D01*
X75999790Y-60381430D01*
X75999515Y-60392669D01*
X75998691Y-60403183D01*
X75997317Y-60412972D01*
X75994226Y-60426295D01*
X75989898Y-60437988D01*
X75984334Y-60448048D01*
X75977534Y-60456477D01*
X75969496Y-60463275D01*
X75960223Y-60468442D01*
X75949713Y-60471976D01*
X75937966Y-60473880D01*
X75929448Y-60474242D01*
X75916877Y-60473427D01*
X75905543Y-60470979D01*
X75895445Y-60466901D01*
X75886584Y-60461191D01*
X75878959Y-60453849D01*
X75872570Y-60444876D01*
X75867418Y-60434271D01*
X75863503Y-60422035D01*
X75860824Y-60408168D01*
X75859725Y-60398017D01*
X75859175Y-60387140D01*
X75859106Y-60381430D01*
X75859106Y-60109832D01*
X76584996Y-60109832D01*
X76584996Y-60381430D01*
X76584763Y-60392337D01*
X76584065Y-60402588D01*
X76582537Y-60414478D01*
X76580282Y-60425342D01*
X76577299Y-60435181D01*
X76572760Y-60445634D01*
X76570097Y-60450307D01*
X76563683Y-60458441D01*
X76555431Y-60464892D01*
X76545342Y-60469661D01*
X76535530Y-60472349D01*
X76524443Y-60473868D01*
X76514654Y-60474242D01*
X76502083Y-60473427D01*
X76490749Y-60470979D01*
X76480651Y-60466901D01*
X76471789Y-60461191D01*
X76464164Y-60453849D01*
X76457776Y-60444876D01*
X76452624Y-60434271D01*
X76448709Y-60422035D01*
X76446029Y-60408168D01*
X76444930Y-60398017D01*
X76444381Y-60387140D01*
X76444312Y-60381430D01*
X76444312Y-60250516D01*
X76290928Y-60250516D01*
X76290928Y-60789316D01*
X76383740Y-60789316D01*
G37*
G36*
X77222958Y-60789316D02*
G01*
X77234227Y-60789590D01*
X77244768Y-60790415D01*
X77254583Y-60791789D01*
X77267942Y-60794880D01*
X77279665Y-60799207D01*
X77289752Y-60804772D01*
X77298203Y-60811572D01*
X77305019Y-60819609D01*
X77310199Y-60828883D01*
X77313743Y-60839393D01*
X77315651Y-60851140D01*
X77316015Y-60859658D01*
X77315197Y-60872228D01*
X77312743Y-60883563D01*
X77308654Y-60893661D01*
X77302929Y-60902522D01*
X77295568Y-60910147D01*
X77286571Y-60916536D01*
X77275939Y-60921688D01*
X77263671Y-60925603D01*
X77249767Y-60928282D01*
X77239589Y-60929381D01*
X77228683Y-60929931D01*
X77222958Y-60930000D01*
X76898115Y-60930000D01*
X76886876Y-60929725D01*
X76876362Y-60928900D01*
X76866574Y-60927527D01*
X76853250Y-60924435D01*
X76841558Y-60920108D01*
X76831497Y-60914544D01*
X76823068Y-60907743D01*
X76816270Y-60899706D01*
X76811104Y-60890432D01*
X76807569Y-60879922D01*
X76805666Y-60868176D01*
X76805303Y-60859658D01*
X76805677Y-60849869D01*
X76807196Y-60838781D01*
X76809885Y-60828970D01*
X76814653Y-60818880D01*
X76821104Y-60810629D01*
X76829239Y-60804214D01*
X76838953Y-60799151D01*
X76848177Y-60795732D01*
X76858426Y-60793040D01*
X76869701Y-60791076D01*
X76879459Y-60790029D01*
X76889874Y-60789447D01*
X76898115Y-60789316D01*
X76989462Y-60789316D01*
X76989462Y-60250516D01*
X76839009Y-60250516D01*
X76839009Y-60381430D01*
X76838734Y-60392669D01*
X76837909Y-60403183D01*
X76836536Y-60412972D01*
X76833444Y-60426295D01*
X76829117Y-60437988D01*
X76823553Y-60448048D01*
X76816752Y-60456477D01*
X76808715Y-60463275D01*
X76799441Y-60468442D01*
X76788931Y-60471976D01*
X76777185Y-60473880D01*
X76768667Y-60474242D01*
X76756096Y-60473427D01*
X76744761Y-60470979D01*
X76734663Y-60466901D01*
X76725802Y-60461191D01*
X76718177Y-60453849D01*
X76711789Y-60444876D01*
X76706637Y-60434271D01*
X76702721Y-60422035D01*
X76700042Y-60408168D01*
X76698943Y-60398017D01*
X76698393Y-60387140D01*
X76698325Y-60381430D01*
X76698325Y-60109832D01*
X77424214Y-60109832D01*
X77424214Y-60381430D01*
X77423982Y-60392337D01*
X77423283Y-60402588D01*
X77421756Y-60414478D01*
X77419500Y-60425342D01*
X77416518Y-60435181D01*
X77411978Y-60445634D01*
X77409316Y-60450307D01*
X77402901Y-60458441D01*
X77394650Y-60464892D01*
X77384560Y-60469661D01*
X77374749Y-60472349D01*
X77363661Y-60473868D01*
X77353872Y-60474242D01*
X77341302Y-60473427D01*
X77329967Y-60470979D01*
X77319869Y-60466901D01*
X77311008Y-60461191D01*
X77303383Y-60453849D01*
X77296994Y-60444876D01*
X77291842Y-60434271D01*
X77287927Y-60422035D01*
X77285248Y-60408168D01*
X77284149Y-60398017D01*
X77283599Y-60387140D01*
X77283531Y-60381430D01*
X77283531Y-60250516D01*
X77130146Y-60250516D01*
X77130146Y-60789316D01*
X77222958Y-60789316D01*
G37*
G36*
X77800593Y-60109832D02*
G01*
X77811832Y-60110107D01*
X77822346Y-60110931D01*
X77832134Y-60112305D01*
X77845458Y-60115396D01*
X77857150Y-60119724D01*
X77867211Y-60125288D01*
X77875640Y-60132089D01*
X77882438Y-60140126D01*
X77887604Y-60149399D01*
X77891139Y-60159909D01*
X77893042Y-60171656D01*
X77893405Y-60180174D01*
X77892589Y-60192745D01*
X77890142Y-60204079D01*
X77886063Y-60214177D01*
X77880353Y-60223039D01*
X77873012Y-60230664D01*
X77864039Y-60237052D01*
X77853434Y-60242204D01*
X77841198Y-60246120D01*
X77827331Y-60248799D01*
X77817179Y-60249898D01*
X77806303Y-60250447D01*
X77800593Y-60250516D01*
X77751256Y-60250516D01*
X77751256Y-60460076D01*
X78001849Y-60244898D01*
X77991602Y-60240223D01*
X77982721Y-60234625D01*
X77975207Y-60228103D01*
X77967736Y-60218652D01*
X77962399Y-60207757D01*
X77959666Y-60198003D01*
X77958300Y-60187325D01*
X77958129Y-60181639D01*
X77958945Y-60168807D01*
X77961392Y-60157236D01*
X77965471Y-60146928D01*
X77971181Y-60137882D01*
X77978523Y-60130098D01*
X77987496Y-60123576D01*
X77998100Y-60118317D01*
X78010336Y-60114320D01*
X78024204Y-60111585D01*
X78034355Y-60110463D01*
X78045231Y-60109902D01*
X78050942Y-60109832D01*
X78191625Y-60109832D01*
X78202864Y-60110107D01*
X78213378Y-60110931D01*
X78223167Y-60112305D01*
X78236491Y-60115396D01*
X78248183Y-60119724D01*
X78258244Y-60125288D01*
X78266673Y-60132089D01*
X78273471Y-60140126D01*
X78278637Y-60149399D01*
X78282172Y-60159909D01*
X78284075Y-60171656D01*
X78284438Y-60180174D01*
X78283671Y-60192745D01*
X78281372Y-60204079D01*
X78277541Y-60214177D01*
X78272176Y-60223039D01*
X78265279Y-60230664D01*
X78256849Y-60237052D01*
X78246886Y-60242204D01*
X78235391Y-60246120D01*
X78222363Y-60248799D01*
X78207802Y-60250241D01*
X78197243Y-60250516D01*
X77949825Y-60465694D01*
X77966725Y-60475373D01*
X77975072Y-60480740D01*
X77983351Y-60486458D01*
X77991562Y-60492528D01*
X77999705Y-60498950D01*
X78007780Y-60505723D01*
X78015786Y-60512848D01*
X78023724Y-60520324D01*
X78031594Y-60528152D01*
X78039396Y-60536332D01*
X78047129Y-60544863D01*
X78054794Y-60553746D01*
X78062391Y-60562980D01*
X78069920Y-60572566D01*
X78077381Y-60582503D01*
X78084773Y-60592792D01*
X78092097Y-60603433D01*
X78099353Y-60614425D01*
X78106541Y-60625768D01*
X78113661Y-60637464D01*
X78120712Y-60649510D01*
X78127695Y-60661909D01*
X78134610Y-60674659D01*
X78141457Y-60687760D01*
X78148235Y-60701214D01*
X78154945Y-60715018D01*
X78161587Y-60729175D01*
X78168161Y-60743683D01*
X78174667Y-60758542D01*
X78181104Y-60773753D01*
X78187473Y-60789316D01*
X78232414Y-60789316D01*
X78243683Y-60789590D01*
X78254224Y-60790415D01*
X78264039Y-60791789D01*
X78277397Y-60794880D01*
X78289120Y-60799207D01*
X78299208Y-60804772D01*
X78307659Y-60811572D01*
X78314475Y-60819609D01*
X78319655Y-60828883D01*
X78323199Y-60839393D01*
X78325107Y-60851140D01*
X78325471Y-60859658D01*
X78324653Y-60872228D01*
X78322199Y-60883563D01*
X78318110Y-60893661D01*
X78312384Y-60902522D01*
X78305024Y-60910147D01*
X78296027Y-60916536D01*
X78285394Y-60921688D01*
X78273126Y-60925603D01*
X78259222Y-60928282D01*
X78249044Y-60929381D01*
X78238139Y-60929931D01*
X78232414Y-60930000D01*
X78077808Y-60930000D01*
X78074710Y-60920648D01*
X78068429Y-60902260D01*
X78062033Y-60884289D01*
X78055522Y-60866736D01*
X78048897Y-60849600D01*
X78042157Y-60832883D01*
X78035303Y-60816584D01*
X78028335Y-60800702D01*
X78021252Y-60785239D01*
X78014054Y-60770193D01*
X78006742Y-60755565D01*
X77999316Y-60741355D01*
X77991775Y-60727563D01*
X77984119Y-60714189D01*
X77976349Y-60701232D01*
X77968465Y-60688694D01*
X77964480Y-60682581D01*
X77956478Y-60670733D01*
X77948470Y-60659489D01*
X77940457Y-60648850D01*
X77932438Y-60638816D01*
X77924413Y-60629387D01*
X77916383Y-60620563D01*
X77908347Y-60612344D01*
X77900305Y-60604729D01*
X77892257Y-60597720D01*
X77884204Y-60591315D01*
X77876145Y-60585515D01*
X77864045Y-60577949D01*
X77851933Y-60571745D01*
X77839808Y-60566901D01*
X77835764Y-60565589D01*
X77751256Y-60637397D01*
X77751256Y-60789316D01*
X77800593Y-60789316D01*
X77811832Y-60789590D01*
X77822346Y-60790415D01*
X77832134Y-60791789D01*
X77845458Y-60794880D01*
X77857150Y-60799207D01*
X77867211Y-60804772D01*
X77875640Y-60811572D01*
X77882438Y-60819609D01*
X77887604Y-60828883D01*
X77891139Y-60839393D01*
X77893042Y-60851140D01*
X77893405Y-60859658D01*
X77892589Y-60872228D01*
X77890142Y-60883563D01*
X77886063Y-60893661D01*
X77880353Y-60902522D01*
X77873012Y-60910147D01*
X77864039Y-60916536D01*
X77853434Y-60921688D01*
X77841198Y-60925603D01*
X77827331Y-60928282D01*
X77817179Y-60929381D01*
X77806303Y-60929931D01*
X77800593Y-60930000D01*
X77589567Y-60930000D01*
X77578328Y-60929725D01*
X77567814Y-60928900D01*
X77558025Y-60927527D01*
X77544702Y-60924435D01*
X77533009Y-60920108D01*
X77522949Y-60914544D01*
X77514519Y-60907743D01*
X77507722Y-60899706D01*
X77502555Y-60890432D01*
X77499020Y-60879922D01*
X77497117Y-60868176D01*
X77496755Y-60859658D01*
X77497570Y-60847087D01*
X77500017Y-60835752D01*
X77504096Y-60825654D01*
X77509806Y-60816793D01*
X77517148Y-60809168D01*
X77526121Y-60802780D01*
X77536725Y-60797628D01*
X77548961Y-60793712D01*
X77562829Y-60791033D01*
X77572980Y-60789934D01*
X77583857Y-60789384D01*
X77589567Y-60789316D01*
X77610572Y-60789316D01*
X77610572Y-60250516D01*
X77589567Y-60250516D01*
X77578328Y-60250241D01*
X77567814Y-60249417D01*
X77558025Y-60248043D01*
X77544702Y-60244952D01*
X77533009Y-60240624D01*
X77522949Y-60235060D01*
X77514519Y-60228259D01*
X77507722Y-60220222D01*
X77502555Y-60210949D01*
X77499020Y-60200438D01*
X77497117Y-60188692D01*
X77496755Y-60180174D01*
X77497129Y-60170385D01*
X77498648Y-60159298D01*
X77501336Y-60149486D01*
X77506104Y-60139397D01*
X77512556Y-60131145D01*
X77520690Y-60124731D01*
X77530405Y-60119668D01*
X77539628Y-60116248D01*
X77549877Y-60113557D01*
X77561152Y-60111593D01*
X77570910Y-60110545D01*
X77581325Y-60109963D01*
X77589567Y-60109832D01*
X77800593Y-60109832D01*
G37*
G36*
X78946580Y-60595143D02*
G01*
X78956961Y-60595417D01*
X78971277Y-60596860D01*
X78984087Y-60599539D01*
X78995389Y-60603454D01*
X79005184Y-60608606D01*
X79013472Y-60614995D01*
X79020254Y-60622620D01*
X79025528Y-60631481D01*
X79029295Y-60641579D01*
X79031556Y-60652914D01*
X79032309Y-60665484D01*
X79031556Y-60677599D01*
X79029295Y-60688571D01*
X79025528Y-60698401D01*
X79020254Y-60707090D01*
X79013472Y-60714636D01*
X79005184Y-60721040D01*
X78995389Y-60726302D01*
X78984087Y-60730423D01*
X78971277Y-60733401D01*
X78956961Y-60735237D01*
X78946580Y-60735826D01*
X78946580Y-60789316D01*
X78956961Y-60789590D01*
X78971277Y-60791033D01*
X78984087Y-60793712D01*
X78995389Y-60797628D01*
X79005184Y-60802780D01*
X79013472Y-60809168D01*
X79020254Y-60816793D01*
X79025528Y-60825654D01*
X79029295Y-60835752D01*
X79031556Y-60847087D01*
X79032309Y-60859658D01*
X79031481Y-60872228D01*
X79028995Y-60883563D01*
X79024852Y-60893661D01*
X79019052Y-60902522D01*
X79011594Y-60910147D01*
X79002479Y-60916536D01*
X78991707Y-60921688D01*
X78979278Y-60925603D01*
X78965192Y-60928282D01*
X78954880Y-60929381D01*
X78943832Y-60929931D01*
X78938032Y-60930000D01*
X78752407Y-60930000D01*
X78741168Y-60929725D01*
X78730654Y-60928900D01*
X78720865Y-60927527D01*
X78707542Y-60924435D01*
X78695850Y-60920108D01*
X78685789Y-60914544D01*
X78677360Y-60907743D01*
X78670562Y-60899706D01*
X78665396Y-60890432D01*
X78661861Y-60879922D01*
X78659957Y-60868176D01*
X78659595Y-60859658D01*
X78660410Y-60847087D01*
X78662858Y-60835752D01*
X78666936Y-60825654D01*
X78672646Y-60816793D01*
X78679988Y-60809168D01*
X78688961Y-60802780D01*
X78699566Y-60797628D01*
X78711802Y-60793712D01*
X78725669Y-60791033D01*
X78735820Y-60789934D01*
X78746697Y-60789384D01*
X78752407Y-60789316D01*
X78805896Y-60789316D01*
X78805896Y-60735826D01*
X78423168Y-60735826D01*
X78423168Y-60619078D01*
X78437550Y-60595143D01*
X78594870Y-60595143D01*
X78805896Y-60595143D01*
X78805896Y-60254668D01*
X78594870Y-60595143D01*
X78437550Y-60595143D01*
X78762177Y-60054877D01*
X78946580Y-60054877D01*
X78946580Y-60595143D01*
G37*
G36*
X79611101Y-60032562D02*
G01*
X79622083Y-60033025D01*
X79632877Y-60033798D01*
X79643481Y-60034880D01*
X79653897Y-60036271D01*
X79664124Y-60037971D01*
X79674161Y-60039980D01*
X79684010Y-60042299D01*
X79693670Y-60044926D01*
X79703141Y-60047863D01*
X79712424Y-60051109D01*
X79725993Y-60056557D01*
X79739137Y-60062701D01*
X79751856Y-60069540D01*
X79756001Y-60071974D01*
X79768120Y-60079584D01*
X79779654Y-60087665D01*
X79790605Y-60096219D01*
X79800972Y-60105245D01*
X79810755Y-60114743D01*
X79819954Y-60124714D01*
X79828570Y-60135156D01*
X79836601Y-60146072D01*
X79844049Y-60157459D01*
X79850912Y-60169319D01*
X79855163Y-60177487D01*
X79861229Y-60189874D01*
X79866967Y-60202303D01*
X79872380Y-60214775D01*
X79877466Y-60227290D01*
X79882226Y-60239848D01*
X79886659Y-60252449D01*
X79890767Y-60265093D01*
X79894548Y-60277780D01*
X79898002Y-60290509D01*
X79901131Y-60303282D01*
X79903035Y-60311821D01*
X79905698Y-60324654D01*
X79908098Y-60337598D01*
X79910237Y-60350654D01*
X79912114Y-60363822D01*
X79913729Y-60377101D01*
X79915082Y-60390492D01*
X79916173Y-60403994D01*
X79917003Y-60417609D01*
X79917570Y-60431334D01*
X79917876Y-60445172D01*
X79917934Y-60454459D01*
X79917828Y-60466012D01*
X79917511Y-60477470D01*
X79916983Y-60488832D01*
X79916243Y-60500098D01*
X79915292Y-60511268D01*
X79914130Y-60522342D01*
X79912756Y-60533320D01*
X79911171Y-60544203D01*
X79909375Y-60554989D01*
X79907368Y-60565680D01*
X79905149Y-60576275D01*
X79902718Y-60586773D01*
X79900077Y-60597176D01*
X79897224Y-60607483D01*
X79894160Y-60617695D01*
X79890884Y-60627810D01*
X79887397Y-60637829D01*
X79883699Y-60647753D01*
X79879789Y-60657581D01*
X79875668Y-60667313D01*
X79871336Y-60676948D01*
X79866793Y-60686488D01*
X79862038Y-60695933D01*
X79857072Y-60705281D01*
X79851894Y-60714533D01*
X79846505Y-60723690D01*
X79840905Y-60732750D01*
X79835094Y-60741715D01*
X79829071Y-60750584D01*
X79822837Y-60759357D01*
X79816391Y-60768034D01*
X79809734Y-60776615D01*
X79800796Y-60787344D01*
X79791751Y-60797732D01*
X79782598Y-60807780D01*
X79773338Y-60817488D01*
X79763971Y-60826854D01*
X79754496Y-60835880D01*
X79744914Y-60844566D01*
X79735225Y-60852910D01*
X79725428Y-60860915D01*
X79715524Y-60868578D01*
X79705513Y-60875901D01*
X79695394Y-60882884D01*
X79685168Y-60889525D01*
X79674835Y-60895826D01*
X79664394Y-60901787D01*
X79653846Y-60907407D01*
X79643191Y-60912686D01*
X79632428Y-60917625D01*
X79621558Y-60922223D01*
X79610581Y-60926481D01*
X79599496Y-60930398D01*
X79588304Y-60933974D01*
X79577005Y-60937210D01*
X79565598Y-60940105D01*
X79554084Y-60942660D01*
X79542463Y-60944874D01*
X79530734Y-60946747D01*
X79518898Y-60948280D01*
X79506955Y-60949472D01*
X79494904Y-60950323D01*
X79482746Y-60950834D01*
X79470481Y-60951004D01*
X79456773Y-60950783D01*
X79443585Y-60950120D01*
X79430916Y-60949014D01*
X79418766Y-60947467D01*
X79407136Y-60945477D01*
X79396026Y-60943045D01*
X79385435Y-60940170D01*
X79375364Y-60936854D01*
X79365812Y-60933095D01*
X79356779Y-60928894D01*
X79351046Y-60925847D01*
X79340513Y-60919257D01*
X79331385Y-60912185D01*
X79323661Y-60904633D01*
X79317341Y-60896599D01*
X79312425Y-60888085D01*
X79308256Y-60876766D01*
X79306281Y-60864696D01*
X79306106Y-60859658D01*
X79306844Y-60848876D01*
X79309059Y-60838695D01*
X79312752Y-60829115D01*
X79317921Y-60820136D01*
X79324567Y-60811758D01*
X79327110Y-60809099D01*
X79335288Y-60801878D01*
X79344066Y-60796151D01*
X79353446Y-60791917D01*
X79363426Y-60789178D01*
X79374008Y-60787933D01*
X79377669Y-60787850D01*
X79388403Y-60789382D01*
X79398776Y-60791847D01*
X79408439Y-60794458D01*
X79417725Y-60797131D01*
X79427182Y-60799735D01*
X79437303Y-60802276D01*
X79447417Y-60804439D01*
X79457743Y-60805948D01*
X79462177Y-60806168D01*
X79475977Y-60805842D01*
X79489597Y-60804863D01*
X79503035Y-60803232D01*
X79516292Y-60800948D01*
X79529367Y-60798011D01*
X79542262Y-60794422D01*
X79554975Y-60790180D01*
X79567506Y-60785286D01*
X79579857Y-60779739D01*
X79592026Y-60773539D01*
X79604014Y-60766687D01*
X79615821Y-60759182D01*
X79627446Y-60751025D01*
X79638890Y-60742215D01*
X79650153Y-60732752D01*
X79661235Y-60722637D01*
X79671976Y-60711987D01*
X79682217Y-60700980D01*
X79691958Y-60689616D01*
X79701199Y-60677895D01*
X79709940Y-60665817D01*
X79718181Y-60653383D01*
X79725923Y-60640592D01*
X79733164Y-60627444D01*
X79739906Y-60613939D01*
X79746147Y-60600077D01*
X79751889Y-60585858D01*
X79757131Y-60571283D01*
X79761872Y-60556351D01*
X79766114Y-60541062D01*
X79769856Y-60525416D01*
X79773098Y-60509413D01*
X79761474Y-60521333D01*
X79749807Y-60532483D01*
X79738096Y-60542864D01*
X79726341Y-60552476D01*
X79714542Y-60561320D01*
X79702699Y-60569394D01*
X79690812Y-60576699D01*
X79678881Y-60583236D01*
X79666907Y-60589003D01*
X79654888Y-60594001D01*
X79642826Y-60598231D01*
X79630720Y-60601691D01*
X79618569Y-60604383D01*
X79606375Y-60606305D01*
X79594138Y-60607459D01*
X79581856Y-60607843D01*
X79568061Y-60607514D01*
X79554520Y-60606527D01*
X79541232Y-60604881D01*
X79528199Y-60602577D01*
X79515419Y-60599614D01*
X79502893Y-60595994D01*
X79490621Y-60591715D01*
X79478602Y-60586777D01*
X79466837Y-60581182D01*
X79455327Y-60574928D01*
X79444069Y-60568015D01*
X79433066Y-60560445D01*
X79422317Y-60552216D01*
X79411821Y-60543329D01*
X79401579Y-60533783D01*
X79391591Y-60523579D01*
X79382067Y-60512879D01*
X79373158Y-60501903D01*
X79364863Y-60490652D01*
X79357183Y-60479127D01*
X79350117Y-60467327D01*
X79343666Y-60455252D01*
X79337829Y-60442903D01*
X79332606Y-60430279D01*
X79327998Y-60417380D01*
X79324004Y-60404206D01*
X79320625Y-60390757D01*
X79317860Y-60377034D01*
X79315709Y-60363036D01*
X79314173Y-60348763D01*
X79313252Y-60334215D01*
X79312974Y-60320858D01*
X79453628Y-60320858D01*
X79453974Y-60332061D01*
X79455011Y-60342954D01*
X79456739Y-60353539D01*
X79459158Y-60363814D01*
X79462269Y-60373780D01*
X79466070Y-60383437D01*
X79470563Y-60392785D01*
X79475747Y-60401824D01*
X79481623Y-60410554D01*
X79488190Y-60418975D01*
X79492951Y-60424417D01*
X79500529Y-60432055D01*
X79508425Y-60438943D01*
X79516638Y-60445078D01*
X79525169Y-60450463D01*
X79534017Y-60455096D01*
X79543183Y-60458978D01*
X79552667Y-60462109D01*
X79562469Y-60464488D01*
X79572588Y-60466116D01*
X79583025Y-60466992D01*
X79590160Y-60467159D01*
X79601441Y-60466633D01*
X79612814Y-60465053D01*
X79624278Y-60462419D01*
X79635833Y-60458733D01*
X79647481Y-60453993D01*
X79659220Y-60448200D01*
X79668084Y-60443164D01*
X79677000Y-60437535D01*
X79682972Y-60433454D01*
X79691774Y-60426929D01*
X79700229Y-60420087D01*
X79708335Y-60412927D01*
X79716094Y-60405450D01*
X79723505Y-60397655D01*
X79730568Y-60389542D01*
X79737284Y-60381111D01*
X79743651Y-60372363D01*
X79749671Y-60363296D01*
X79755344Y-60353913D01*
X79758932Y-60347480D01*
X79756914Y-60336257D01*
X79754707Y-60325422D01*
X79752311Y-60314977D01*
X79749727Y-60304921D01*
X79746953Y-60295254D01*
X79742439Y-60281484D01*
X79737500Y-60268590D01*
X79732135Y-60256571D01*
X79726345Y-60245429D01*
X79720131Y-60235162D01*
X79713491Y-60225771D01*
X79706427Y-60217256D01*
X79703977Y-60214612D01*
X79696344Y-60207192D01*
X79688192Y-60200501D01*
X79679520Y-60194541D01*
X79670329Y-60189310D01*
X79660618Y-60184809D01*
X79650388Y-60181038D01*
X79639638Y-60177997D01*
X79628369Y-60175686D01*
X79616580Y-60174105D01*
X79604272Y-60173253D01*
X79595778Y-60173091D01*
X79583614Y-60173439D01*
X79571944Y-60174482D01*
X79560768Y-60176221D01*
X79550085Y-60178655D01*
X79539896Y-60181785D01*
X79530201Y-60185610D01*
X79521000Y-60190131D01*
X79512292Y-60195348D01*
X79504078Y-60201259D01*
X79496358Y-60207867D01*
X79491486Y-60212658D01*
X79484720Y-60220291D01*
X79478620Y-60228443D01*
X79473186Y-60237115D01*
X79468416Y-60246307D01*
X79464313Y-60256017D01*
X79460874Y-60266248D01*
X79458102Y-60276997D01*
X79455994Y-60288267D01*
X79454553Y-60300055D01*
X79453776Y-60312364D01*
X79453628Y-60320858D01*
X79312974Y-60320858D01*
X79312944Y-60319392D01*
X79313241Y-60303584D01*
X79314131Y-60288156D01*
X79315615Y-60273107D01*
X79317692Y-60258439D01*
X79320362Y-60244149D01*
X79323626Y-60230240D01*
X79327483Y-60216710D01*
X79331934Y-60203560D01*
X79336978Y-60190790D01*
X79342616Y-60178399D01*
X79348847Y-60166389D01*
X79355672Y-60154757D01*
X79363090Y-60143506D01*
X79371101Y-60132634D01*
X79379706Y-60122142D01*
X79388904Y-60112030D01*
X79398630Y-60102388D01*
X79408817Y-60093369D01*
X79419467Y-60084971D01*
X79430578Y-60077195D01*
X79442151Y-60070041D01*
X79454185Y-60063510D01*
X79466682Y-60057600D01*
X79479640Y-60052313D01*
X79493060Y-60047647D01*
X79506942Y-60043604D01*
X79521285Y-60040183D01*
X79536091Y-60037383D01*
X79551358Y-60035206D01*
X79567087Y-60033651D01*
X79583277Y-60032718D01*
X79599930Y-60032407D01*
X79611101Y-60032562D01*
G37*
G36*
X80436519Y-60032853D02*
G01*
X80454337Y-60034189D01*
X80471598Y-60036417D01*
X80488302Y-60039536D01*
X80504449Y-60043546D01*
X80520038Y-60048447D01*
X80535071Y-60054239D01*
X80549546Y-60060922D01*
X80563464Y-60068497D01*
X80576825Y-60076962D01*
X80589628Y-60086319D01*
X80601875Y-60096567D01*
X80613564Y-60107705D01*
X80624696Y-60119735D01*
X80635271Y-60132656D01*
X80645289Y-60146468D01*
X80654754Y-60160894D01*
X80663607Y-60175717D01*
X80671851Y-60190936D01*
X80679483Y-60206552D01*
X80686505Y-60222565D01*
X80692916Y-60238975D01*
X80698717Y-60255782D01*
X80703907Y-60272986D01*
X80708487Y-60290587D01*
X80712456Y-60308585D01*
X80715814Y-60326979D01*
X80718562Y-60345771D01*
X80720699Y-60364959D01*
X80721539Y-60374702D01*
X80722226Y-60384544D01*
X80722760Y-60394486D01*
X80723142Y-60404526D01*
X80723370Y-60414666D01*
X80723447Y-60424905D01*
X80723447Y-60558506D01*
X80723323Y-60571622D01*
X80722951Y-60584591D01*
X80722331Y-60597412D01*
X80721462Y-60610087D01*
X80720346Y-60622615D01*
X80718982Y-60634996D01*
X80717369Y-60647230D01*
X80715509Y-60659317D01*
X80713400Y-60671258D01*
X80711044Y-60683051D01*
X80708439Y-60694697D01*
X80705587Y-60706197D01*
X80702486Y-60717549D01*
X80699137Y-60728755D01*
X80695540Y-60739814D01*
X80691695Y-60750725D01*
X80687602Y-60761418D01*
X80683200Y-60771879D01*
X80678489Y-60782110D01*
X80673469Y-60792109D01*
X80668139Y-60801878D01*
X80662501Y-60811416D01*
X80656553Y-60820723D01*
X80650296Y-60829799D01*
X80643730Y-60838644D01*
X80636855Y-60847258D01*
X80629671Y-60855642D01*
X80622178Y-60863794D01*
X80614375Y-60871716D01*
X80606264Y-60879407D01*
X80597843Y-60886867D01*
X80589113Y-60894096D01*
X80580116Y-60900987D01*
X80570894Y-60907434D01*
X80561447Y-60913436D01*
X80551775Y-60918993D01*
X80541877Y-60924106D01*
X80531754Y-60928774D01*
X80521406Y-60932998D01*
X80510833Y-60936777D01*
X80500035Y-60940112D01*
X80489012Y-60943002D01*
X80477763Y-60945447D01*
X80466290Y-60947448D01*
X80454591Y-60949004D01*
X80442667Y-60950115D01*
X80430518Y-60950782D01*
X80418143Y-60951004D01*
X80399767Y-60950560D01*
X80381946Y-60949226D01*
X80364680Y-60947003D01*
X80347969Y-60943891D01*
X80331814Y-60939889D01*
X80316214Y-60934999D01*
X80301169Y-60929219D01*
X80286680Y-60922550D01*
X80272745Y-60914992D01*
X80259366Y-60906545D01*
X80246543Y-60897208D01*
X80234274Y-60886982D01*
X80222561Y-60875867D01*
X80211403Y-60863863D01*
X80200801Y-60850970D01*
X80190753Y-60837187D01*
X80181318Y-60822732D01*
X80172492Y-60807882D01*
X80164275Y-60792637D01*
X80156666Y-60776997D01*
X80149666Y-60760962D01*
X80143275Y-60744531D01*
X80137492Y-60727706D01*
X80132318Y-60710486D01*
X80127753Y-60692871D01*
X80123796Y-60674861D01*
X80120448Y-60656456D01*
X80117709Y-60637656D01*
X80115579Y-60618461D01*
X80114742Y-60608715D01*
X80114057Y-60598871D01*
X80113524Y-60588928D01*
X80113144Y-60578886D01*
X80112916Y-60568745D01*
X80112914Y-60568520D01*
X80253524Y-60568520D01*
X80253699Y-60582058D01*
X80254226Y-60595257D01*
X80255104Y-60608116D01*
X80256332Y-60620635D01*
X80257912Y-60632815D01*
X80259843Y-60644655D01*
X80262126Y-60656156D01*
X80264759Y-60667316D01*
X80267743Y-60678137D01*
X80271079Y-60688619D01*
X80274765Y-60698761D01*
X80278803Y-60708563D01*
X80283191Y-60718025D01*
X80287931Y-60727148D01*
X80293022Y-60735931D01*
X80298464Y-60744375D01*
X80304227Y-60752361D01*
X80313300Y-60763373D01*
X80322889Y-60773226D01*
X80332992Y-60781920D01*
X80343611Y-60789455D01*
X80354745Y-60795831D01*
X80366394Y-60801047D01*
X80378559Y-60805104D01*
X80391238Y-60808002D01*
X80404433Y-60809741D01*
X80418143Y-60810321D01*
X80431851Y-60809741D01*
X80445040Y-60808002D01*
X80457708Y-60805104D01*
X80469858Y-60801047D01*
X80481488Y-60795831D01*
X80492598Y-60789455D01*
X80503189Y-60781920D01*
X80513261Y-60773226D01*
X80522813Y-60763373D01*
X80531845Y-60752361D01*
X80537578Y-60744375D01*
X80543050Y-60735931D01*
X80548168Y-60727148D01*
X80552934Y-60718025D01*
X80557346Y-60708563D01*
X80561406Y-60698761D01*
X80565113Y-60688619D01*
X80568466Y-60678137D01*
X80571467Y-60667316D01*
X80574114Y-60656156D01*
X80576409Y-60644655D01*
X80578350Y-60632815D01*
X80579939Y-60620635D01*
X80581174Y-60608116D01*
X80582057Y-60595257D01*
X80582586Y-60582058D01*
X80582763Y-60568520D01*
X80582763Y-60415136D01*
X80582586Y-60401597D01*
X80582057Y-60388399D01*
X80581174Y-60375540D01*
X80579939Y-60363020D01*
X80578350Y-60350841D01*
X80576409Y-60339001D01*
X80574114Y-60327500D01*
X80571467Y-60316339D01*
X80568466Y-60305518D01*
X80565113Y-60295037D01*
X80561406Y-60284895D01*
X80557346Y-60275093D01*
X80552934Y-60265630D01*
X80548168Y-60256507D01*
X80543050Y-60247724D01*
X80537578Y-60239281D01*
X80531845Y-60231266D01*
X80522813Y-60220212D01*
X80513261Y-60210323D01*
X80503189Y-60201596D01*
X80492598Y-60194034D01*
X80481488Y-60187635D01*
X80469858Y-60182399D01*
X80457708Y-60178327D01*
X80445040Y-60175418D01*
X80431851Y-60173673D01*
X80418143Y-60173091D01*
X80404433Y-60173673D01*
X80391238Y-60175418D01*
X80378559Y-60178327D01*
X80366394Y-60182399D01*
X80354745Y-60187635D01*
X80343611Y-60194034D01*
X80332992Y-60201596D01*
X80322889Y-60210323D01*
X80313300Y-60220212D01*
X80304227Y-60231266D01*
X80298464Y-60239281D01*
X80293022Y-60247724D01*
X80287931Y-60256507D01*
X80283191Y-60265630D01*
X80278803Y-60275093D01*
X80274765Y-60284895D01*
X80271079Y-60295037D01*
X80267743Y-60305518D01*
X80264759Y-60316339D01*
X80262126Y-60327500D01*
X80259843Y-60339001D01*
X80257912Y-60350841D01*
X80256332Y-60363020D01*
X80255104Y-60375540D01*
X80254226Y-60388399D01*
X80253699Y-60401597D01*
X80253524Y-60415136D01*
X80253524Y-60568520D01*
X80112914Y-60568520D01*
X80112840Y-60558506D01*
X80112840Y-60424905D01*
X80112963Y-60411791D01*
X80113332Y-60398825D01*
X80113947Y-60386008D01*
X80114809Y-60373340D01*
X80115917Y-60360820D01*
X80117270Y-60348450D01*
X80118870Y-60336228D01*
X80120717Y-60324155D01*
X80122809Y-60312231D01*
X80125147Y-60300456D01*
X80127732Y-60288830D01*
X80130563Y-60277352D01*
X80133639Y-60266023D01*
X80136962Y-60254844D01*
X80140532Y-60243813D01*
X80144347Y-60232930D01*
X80148470Y-60222238D01*
X80152899Y-60211777D01*
X80157636Y-60201546D01*
X80162681Y-60191547D01*
X80168032Y-60181778D01*
X80173691Y-60172240D01*
X80179656Y-60162933D01*
X80185929Y-60153857D01*
X80192510Y-60145012D01*
X80199397Y-60136397D01*
X80206592Y-60128014D01*
X80214094Y-60119861D01*
X80221903Y-60111940D01*
X80230019Y-60104249D01*
X80238443Y-60096789D01*
X80247173Y-60089560D01*
X80256170Y-60082639D01*
X80265392Y-60076165D01*
X80274839Y-60070137D01*
X80284512Y-60064556D01*
X80294409Y-60059421D01*
X80304532Y-60054732D01*
X80314880Y-60050491D01*
X80325453Y-60046695D01*
X80336251Y-60043346D01*
X80347275Y-60040444D01*
X80358523Y-60037988D01*
X80369997Y-60035979D01*
X80381696Y-60034416D01*
X80393620Y-60033300D01*
X80405769Y-60032630D01*
X80418143Y-60032407D01*
X80436519Y-60032853D01*
G37*
G36*
X81275737Y-60032853D02*
G01*
X81293555Y-60034189D01*
X81310817Y-60036417D01*
X81327520Y-60039536D01*
X81343667Y-60043546D01*
X81359257Y-60048447D01*
X81374289Y-60054239D01*
X81388764Y-60060922D01*
X81402682Y-60068497D01*
X81416043Y-60076962D01*
X81428847Y-60086319D01*
X81441093Y-60096567D01*
X81452783Y-60107705D01*
X81463915Y-60119735D01*
X81474490Y-60132656D01*
X81484508Y-60146468D01*
X81493972Y-60160894D01*
X81502826Y-60175717D01*
X81511069Y-60190936D01*
X81518702Y-60206552D01*
X81525724Y-60222565D01*
X81532135Y-60238975D01*
X81537936Y-60255782D01*
X81543126Y-60272986D01*
X81547705Y-60290587D01*
X81551674Y-60308585D01*
X81555033Y-60326979D01*
X81557780Y-60345771D01*
X81559918Y-60364959D01*
X81560757Y-60374702D01*
X81561444Y-60384544D01*
X81561978Y-60394486D01*
X81562360Y-60404526D01*
X81562589Y-60414666D01*
X81562665Y-60424905D01*
X81562665Y-60558506D01*
X81562541Y-60571622D01*
X81562169Y-60584591D01*
X81561549Y-60597412D01*
X81560681Y-60610087D01*
X81559564Y-60622615D01*
X81558200Y-60634996D01*
X81556588Y-60647230D01*
X81554727Y-60659317D01*
X81552619Y-60671258D01*
X81550262Y-60683051D01*
X81547658Y-60694697D01*
X81544805Y-60706197D01*
X81541704Y-60717549D01*
X81538355Y-60728755D01*
X81534759Y-60739814D01*
X81530914Y-60750725D01*
X81526821Y-60761418D01*
X81522419Y-60771879D01*
X81517707Y-60782110D01*
X81512687Y-60792109D01*
X81507358Y-60801878D01*
X81501719Y-60811416D01*
X81495771Y-60820723D01*
X81489515Y-60829799D01*
X81482949Y-60838644D01*
X81476074Y-60847258D01*
X81468889Y-60855642D01*
X81461396Y-60863794D01*
X81453594Y-60871716D01*
X81445482Y-60879407D01*
X81437061Y-60886867D01*
X81428332Y-60894096D01*
X81419335Y-60900987D01*
X81410113Y-60907434D01*
X81400665Y-60913436D01*
X81390993Y-60918993D01*
X81381095Y-60924106D01*
X81370973Y-60928774D01*
X81360625Y-60932998D01*
X81350052Y-60936777D01*
X81339254Y-60940112D01*
X81328230Y-60943002D01*
X81316982Y-60945447D01*
X81305508Y-60947448D01*
X81293809Y-60949004D01*
X81281885Y-60950115D01*
X81269736Y-60950782D01*
X81257362Y-60951004D01*
X81238985Y-60950560D01*
X81221164Y-60949226D01*
X81203898Y-60947003D01*
X81187188Y-60943891D01*
X81171032Y-60939889D01*
X81155432Y-60934999D01*
X81140387Y-60929219D01*
X81125898Y-60922550D01*
X81111964Y-60914992D01*
X81098585Y-60906545D01*
X81085761Y-60897208D01*
X81073493Y-60886982D01*
X81061779Y-60875867D01*
X81050622Y-60863863D01*
X81040019Y-60850970D01*
X81029972Y-60837187D01*
X81020537Y-60822732D01*
X81011711Y-60807882D01*
X81003493Y-60792637D01*
X80995884Y-60776997D01*
X80988884Y-60760962D01*
X80982493Y-60744531D01*
X80976710Y-60727706D01*
X80971536Y-60710486D01*
X80966971Y-60692871D01*
X80963015Y-60674861D01*
X80959667Y-60656456D01*
X80956928Y-60637656D01*
X80954797Y-60618461D01*
X80953960Y-60608715D01*
X80953276Y-60598871D01*
X80952743Y-60588928D01*
X80952362Y-60578886D01*
X80952134Y-60568745D01*
X80952132Y-60568520D01*
X81092742Y-60568520D01*
X81092918Y-60582058D01*
X81093444Y-60595257D01*
X81094322Y-60608116D01*
X81095551Y-60620635D01*
X81097131Y-60632815D01*
X81099062Y-60644655D01*
X81101344Y-60656156D01*
X81103977Y-60667316D01*
X81106962Y-60678137D01*
X81110297Y-60688619D01*
X81113983Y-60698761D01*
X81118021Y-60708563D01*
X81122410Y-60718025D01*
X81127150Y-60727148D01*
X81132241Y-60735931D01*
X81137683Y-60744375D01*
X81143445Y-60752361D01*
X81152519Y-60763373D01*
X81162107Y-60773226D01*
X81172211Y-60781920D01*
X81182829Y-60789455D01*
X81193963Y-60795831D01*
X81205613Y-60801047D01*
X81217777Y-60805104D01*
X81230457Y-60808002D01*
X81243652Y-60809741D01*
X81257362Y-60810321D01*
X81271070Y-60809741D01*
X81284258Y-60808002D01*
X81296927Y-60805104D01*
X81309076Y-60801047D01*
X81320706Y-60795831D01*
X81331817Y-60789455D01*
X81342408Y-60781920D01*
X81352479Y-60773226D01*
X81362031Y-60763373D01*
X81371063Y-60752361D01*
X81376796Y-60744375D01*
X81382268Y-60735931D01*
X81387387Y-60727148D01*
X81392152Y-60718025D01*
X81396565Y-60708563D01*
X81400624Y-60698761D01*
X81404331Y-60688619D01*
X81407685Y-60678137D01*
X81410685Y-60667316D01*
X81413333Y-60656156D01*
X81415627Y-60644655D01*
X81417569Y-60632815D01*
X81419157Y-60620635D01*
X81420393Y-60608116D01*
X81421275Y-60595257D01*
X81421805Y-60582058D01*
X81421981Y-60568520D01*
X81421981Y-60415136D01*
X81421805Y-60401597D01*
X81421275Y-60388399D01*
X81420393Y-60375540D01*
X81419157Y-60363020D01*
X81417569Y-60350841D01*
X81415627Y-60339001D01*
X81413333Y-60327500D01*
X81410685Y-60316339D01*
X81407685Y-60305518D01*
X81404331Y-60295037D01*
X81400624Y-60284895D01*
X81396565Y-60275093D01*
X81392152Y-60265630D01*
X81387387Y-60256507D01*
X81382268Y-60247724D01*
X81376796Y-60239281D01*
X81371063Y-60231266D01*
X81362031Y-60220212D01*
X81352479Y-60210323D01*
X81342408Y-60201596D01*
X81331817Y-60194034D01*
X81320706Y-60187635D01*
X81309076Y-60182399D01*
X81296927Y-60178327D01*
X81284258Y-60175418D01*
X81271070Y-60173673D01*
X81257362Y-60173091D01*
X81243652Y-60173673D01*
X81230457Y-60175418D01*
X81217777Y-60178327D01*
X81205613Y-60182399D01*
X81193963Y-60187635D01*
X81182829Y-60194034D01*
X81172211Y-60201596D01*
X81162107Y-60210323D01*
X81152519Y-60220212D01*
X81143445Y-60231266D01*
X81137683Y-60239281D01*
X81132241Y-60247724D01*
X81127150Y-60256507D01*
X81122410Y-60265630D01*
X81118021Y-60275093D01*
X81113983Y-60284895D01*
X81110297Y-60295037D01*
X81106962Y-60305518D01*
X81103977Y-60316339D01*
X81101344Y-60327500D01*
X81099062Y-60339001D01*
X81097131Y-60350841D01*
X81095551Y-60363020D01*
X81094322Y-60375540D01*
X81093444Y-60388399D01*
X81092918Y-60401597D01*
X81092742Y-60415136D01*
X81092742Y-60568520D01*
X80952132Y-60568520D01*
X80952058Y-60558506D01*
X80952058Y-60424905D01*
X80952181Y-60411791D01*
X80952550Y-60398825D01*
X80953166Y-60386008D01*
X80954027Y-60373340D01*
X80955135Y-60360820D01*
X80956489Y-60348450D01*
X80958089Y-60336228D01*
X80959935Y-60324155D01*
X80962027Y-60312231D01*
X80964366Y-60300456D01*
X80966950Y-60288830D01*
X80969781Y-60277352D01*
X80972858Y-60266023D01*
X80976181Y-60254844D01*
X80979750Y-60243813D01*
X80983565Y-60232930D01*
X80987688Y-60222238D01*
X80992118Y-60211777D01*
X80996855Y-60201546D01*
X81001899Y-60191547D01*
X81007250Y-60181778D01*
X81012909Y-60172240D01*
X81018875Y-60162933D01*
X81025148Y-60153857D01*
X81031728Y-60145012D01*
X81038615Y-60136397D01*
X81045810Y-60128014D01*
X81053312Y-60119861D01*
X81061121Y-60111940D01*
X81069237Y-60104249D01*
X81077661Y-60096789D01*
X81086392Y-60089560D01*
X81095389Y-60082639D01*
X81104611Y-60076165D01*
X81114058Y-60070137D01*
X81123730Y-60064556D01*
X81133628Y-60059421D01*
X81143751Y-60054732D01*
X81154098Y-60050491D01*
X81164672Y-60046695D01*
X81175470Y-60043346D01*
X81186493Y-60040444D01*
X81197742Y-60037988D01*
X81209215Y-60035979D01*
X81220914Y-60034416D01*
X81232838Y-60033300D01*
X81244987Y-60032630D01*
X81257362Y-60032407D01*
X81275737Y-60032853D01*
G37*
G36*
X83067934Y-60930000D02*
G01*
X83056695Y-60929725D01*
X83046181Y-60928900D01*
X83036392Y-60927527D01*
X83023069Y-60924435D01*
X83011376Y-60920108D01*
X83001316Y-60914544D01*
X82992886Y-60907743D01*
X82986089Y-60899706D01*
X82980922Y-60890432D01*
X82977388Y-60879922D01*
X82975484Y-60868176D01*
X82975122Y-60859658D01*
X82975937Y-60847087D01*
X82978385Y-60835752D01*
X82982463Y-60825654D01*
X82988173Y-60816793D01*
X82995515Y-60809168D01*
X83004488Y-60802780D01*
X83015093Y-60797628D01*
X83027329Y-60793712D01*
X83041196Y-60791033D01*
X83051347Y-60789934D01*
X83062224Y-60789384D01*
X83067934Y-60789316D01*
X83089183Y-60789316D01*
X83089183Y-60590990D01*
X82788032Y-60590990D01*
X82788032Y-60789316D01*
X82809281Y-60789316D01*
X82820520Y-60789590D01*
X82831034Y-60790415D01*
X82840822Y-60791789D01*
X82854146Y-60794880D01*
X82865838Y-60799207D01*
X82875899Y-60804772D01*
X82884328Y-60811572D01*
X82891126Y-60819609D01*
X82896292Y-60828883D01*
X82899827Y-60839393D01*
X82901730Y-60851140D01*
X82902093Y-60859658D01*
X82901277Y-60872228D01*
X82898830Y-60883563D01*
X82894751Y-60893661D01*
X82889041Y-60902522D01*
X82881700Y-60910147D01*
X82872727Y-60916536D01*
X82862122Y-60921688D01*
X82849886Y-60925603D01*
X82836019Y-60928282D01*
X82825867Y-60929381D01*
X82814991Y-60929931D01*
X82809281Y-60930000D01*
X82639043Y-60930000D01*
X82627775Y-60929725D01*
X82617233Y-60928900D01*
X82607419Y-60927527D01*
X82594060Y-60924435D01*
X82582337Y-60920108D01*
X82572250Y-60914544D01*
X82563799Y-60907743D01*
X82556983Y-60899706D01*
X82551803Y-60890432D01*
X82548259Y-60879922D01*
X82546350Y-60868176D01*
X82545987Y-60859658D01*
X82546361Y-60849869D01*
X82547880Y-60838781D01*
X82550568Y-60828970D01*
X82555337Y-60818880D01*
X82561788Y-60810629D01*
X82569923Y-60804214D01*
X82579646Y-60799151D01*
X82588889Y-60795732D01*
X82599171Y-60793040D01*
X82610490Y-60791076D01*
X82620292Y-60790029D01*
X82630758Y-60789447D01*
X82639043Y-60789316D01*
X82647348Y-60789316D01*
X82647348Y-60250516D01*
X82634297Y-60248694D01*
X82622529Y-60245885D01*
X82612046Y-60242088D01*
X82602846Y-60237304D01*
X82594930Y-60231532D01*
X82586372Y-60222301D01*
X82580096Y-60211313D01*
X82576887Y-60201921D01*
X82574961Y-60191541D01*
X82574319Y-60180174D01*
X82574693Y-60170385D01*
X82576212Y-60159298D01*
X82578901Y-60149486D01*
X82583669Y-60139397D01*
X82590120Y-60131145D01*
X82598255Y-60124731D01*
X82607969Y-60119668D01*
X82617193Y-60116248D01*
X82627442Y-60113557D01*
X82638717Y-60111593D01*
X82648475Y-60110545D01*
X82658890Y-60109963D01*
X82667131Y-60109832D01*
X82809281Y-60109832D01*
X82820520Y-60110107D01*
X82831034Y-60110931D01*
X82840822Y-60112305D01*
X82854146Y-60115396D01*
X82865838Y-60119724D01*
X82875899Y-60125288D01*
X82884328Y-60132089D01*
X82891126Y-60140126D01*
X82896292Y-60149399D01*
X82899827Y-60159909D01*
X82901730Y-60171656D01*
X82902093Y-60180174D01*
X82901277Y-60192745D01*
X82898830Y-60204079D01*
X82894751Y-60214177D01*
X82889041Y-60223039D01*
X82881700Y-60230664D01*
X82872727Y-60237052D01*
X82862122Y-60242204D01*
X82849886Y-60246120D01*
X82836019Y-60248799D01*
X82825867Y-60249898D01*
X82814991Y-60250447D01*
X82809281Y-60250516D01*
X82788032Y-60250516D01*
X82788032Y-60450307D01*
X83089183Y-60450307D01*
X83089183Y-60250516D01*
X83067934Y-60250516D01*
X83056695Y-60250241D01*
X83046181Y-60249417D01*
X83036392Y-60248043D01*
X83023069Y-60244952D01*
X83011376Y-60240624D01*
X83001316Y-60235060D01*
X82992886Y-60228259D01*
X82986089Y-60220222D01*
X82980922Y-60210949D01*
X82977388Y-60200438D01*
X82975484Y-60188692D01*
X82975122Y-60180174D01*
X82975496Y-60170385D01*
X82977015Y-60159298D01*
X82979703Y-60149486D01*
X82984472Y-60139397D01*
X82990923Y-60131145D01*
X82999057Y-60124731D01*
X83008772Y-60119668D01*
X83017995Y-60116248D01*
X83028244Y-60113557D01*
X83039519Y-60111593D01*
X83049277Y-60110545D01*
X83059692Y-60109963D01*
X83067934Y-60109832D01*
X83210083Y-60109832D01*
X83221322Y-60110107D01*
X83231836Y-60110931D01*
X83241625Y-60112305D01*
X83254949Y-60115396D01*
X83266641Y-60119724D01*
X83276701Y-60125288D01*
X83285131Y-60132089D01*
X83291928Y-60140126D01*
X83297095Y-60149399D01*
X83300630Y-60159909D01*
X83302533Y-60171656D01*
X83302896Y-60180174D01*
X83302254Y-60191541D01*
X83300328Y-60201921D01*
X83297119Y-60211313D01*
X83290843Y-60222301D01*
X83282285Y-60231532D01*
X83274369Y-60237304D01*
X83265169Y-60242088D01*
X83254685Y-60245885D01*
X83242918Y-60248694D01*
X83229867Y-60250516D01*
X83229867Y-60789316D01*
X83238171Y-60789316D01*
X83249440Y-60789590D01*
X83259981Y-60790415D01*
X83269796Y-60791789D01*
X83283155Y-60794880D01*
X83294877Y-60799207D01*
X83304965Y-60804772D01*
X83313416Y-60811572D01*
X83320232Y-60819609D01*
X83325412Y-60828883D01*
X83328956Y-60839393D01*
X83330864Y-60851140D01*
X83331228Y-60859658D01*
X83330410Y-60872228D01*
X83327956Y-60883563D01*
X83323867Y-60893661D01*
X83318142Y-60902522D01*
X83310781Y-60910147D01*
X83301784Y-60916536D01*
X83291152Y-60921688D01*
X83278883Y-60925603D01*
X83264979Y-60928282D01*
X83254801Y-60929381D01*
X83243896Y-60929931D01*
X83238171Y-60930000D01*
X83067934Y-60930000D01*
G37*
G36*
X84130879Y-60789316D02*
G01*
X84142473Y-60789590D01*
X84153319Y-60790415D01*
X84163417Y-60791789D01*
X84177161Y-60794880D01*
X84189222Y-60799207D01*
X84199601Y-60804772D01*
X84208296Y-60811572D01*
X84215309Y-60819609D01*
X84220638Y-60828883D01*
X84224284Y-60839393D01*
X84226248Y-60851140D01*
X84226622Y-60859658D01*
X84225806Y-60872228D01*
X84223359Y-60883563D01*
X84219280Y-60893661D01*
X84213570Y-60902522D01*
X84206229Y-60910147D01*
X84197256Y-60916536D01*
X84186651Y-60921688D01*
X84174415Y-60925603D01*
X84160548Y-60928282D01*
X84150396Y-60929381D01*
X84139520Y-60929931D01*
X84133810Y-60930000D01*
X83938171Y-60930000D01*
X83926932Y-60929725D01*
X83916418Y-60928900D01*
X83906629Y-60927527D01*
X83893306Y-60924435D01*
X83881614Y-60920108D01*
X83871553Y-60914544D01*
X83863124Y-60907743D01*
X83856326Y-60899706D01*
X83851160Y-60890432D01*
X83847625Y-60879922D01*
X83845721Y-60868176D01*
X83845359Y-60859658D01*
X83845733Y-60849869D01*
X83847252Y-60838781D01*
X83849940Y-60828970D01*
X83854709Y-60818880D01*
X83861160Y-60810629D01*
X83869295Y-60804214D01*
X83879009Y-60799151D01*
X83888233Y-60795732D01*
X83898482Y-60793040D01*
X83909756Y-60791076D01*
X83919515Y-60790029D01*
X83929929Y-60789447D01*
X83938171Y-60789316D01*
X83970655Y-60789316D01*
X83938171Y-60707739D01*
X83603314Y-60707739D01*
X83571074Y-60789316D01*
X83603314Y-60789316D01*
X83614553Y-60789590D01*
X83625067Y-60790415D01*
X83634856Y-60791789D01*
X83648180Y-60794880D01*
X83659872Y-60799207D01*
X83669932Y-60804772D01*
X83678362Y-60811572D01*
X83685159Y-60819609D01*
X83690326Y-60828883D01*
X83693861Y-60839393D01*
X83695764Y-60851140D01*
X83696127Y-60859658D01*
X83695311Y-60872228D01*
X83692864Y-60883563D01*
X83688785Y-60893661D01*
X83683075Y-60902522D01*
X83675733Y-60910147D01*
X83666760Y-60916536D01*
X83656156Y-60921688D01*
X83643920Y-60925603D01*
X83630052Y-60928282D01*
X83619901Y-60929381D01*
X83609024Y-60929931D01*
X83603314Y-60930000D01*
X83416224Y-60930000D01*
X83404985Y-60929725D01*
X83394471Y-60928900D01*
X83384683Y-60927527D01*
X83371359Y-60924435D01*
X83359667Y-60920108D01*
X83349606Y-60914544D01*
X83341177Y-60907743D01*
X83334379Y-60899706D01*
X83329213Y-60890432D01*
X83325678Y-60879922D01*
X83323774Y-60868176D01*
X83323412Y-60859658D01*
X83323797Y-60849537D01*
X83325363Y-60838131D01*
X83328134Y-60828108D01*
X83333048Y-60817907D01*
X83339697Y-60809698D01*
X83348080Y-60803482D01*
X83358044Y-60798667D01*
X83367436Y-60795416D01*
X83377817Y-60792857D01*
X83389188Y-60790990D01*
X83398998Y-60789993D01*
X83409441Y-60789440D01*
X83417690Y-60789316D01*
X83507662Y-60567055D01*
X83659734Y-60567055D01*
X83880530Y-60567055D01*
X83770865Y-60296922D01*
X83659734Y-60567055D01*
X83507662Y-60567055D01*
X83635799Y-60250516D01*
X83547138Y-60250516D01*
X83535722Y-60250241D01*
X83525042Y-60249417D01*
X83515099Y-60248043D01*
X83501565Y-60244952D01*
X83489688Y-60240624D01*
X83479468Y-60235060D01*
X83470906Y-60228259D01*
X83464001Y-60220222D01*
X83458753Y-60210949D01*
X83455162Y-60200438D01*
X83453229Y-60188692D01*
X83452861Y-60180174D01*
X83453246Y-60170053D01*
X83454812Y-60158647D01*
X83457582Y-60148625D01*
X83462497Y-60138424D01*
X83469146Y-60130215D01*
X83477529Y-60123998D01*
X83487493Y-60119184D01*
X83496884Y-60115933D01*
X83507266Y-60113374D01*
X83518637Y-60111506D01*
X83528447Y-60110510D01*
X83538890Y-60109957D01*
X83547138Y-60109832D01*
X83850976Y-60109832D01*
X84130879Y-60789316D01*
G37*
G36*
X84932240Y-60109832D02*
G01*
X84943479Y-60110107D01*
X84953992Y-60110931D01*
X84963781Y-60112305D01*
X84977105Y-60115396D01*
X84988797Y-60119724D01*
X84998858Y-60125288D01*
X85007287Y-60132089D01*
X85014085Y-60140126D01*
X85019251Y-60149399D01*
X85022786Y-60159909D01*
X85024689Y-60171656D01*
X85025052Y-60180174D01*
X85024298Y-60192745D01*
X85022038Y-60204079D01*
X85018271Y-60214177D01*
X85012996Y-60223039D01*
X85006215Y-60230664D01*
X84997927Y-60237052D01*
X84988131Y-60242204D01*
X84976829Y-60246120D01*
X84964020Y-60248799D01*
X84949704Y-60250241D01*
X84939323Y-60250516D01*
X84939323Y-60930000D01*
X84799860Y-60930000D01*
X84435450Y-60375812D01*
X84435450Y-60789316D01*
X84484787Y-60789316D01*
X84495694Y-60789548D01*
X84505944Y-60790247D01*
X84517834Y-60791775D01*
X84528699Y-60794030D01*
X84538538Y-60797012D01*
X84548991Y-60801552D01*
X84553663Y-60804214D01*
X84561798Y-60810629D01*
X84568249Y-60818880D01*
X84573017Y-60828970D01*
X84575706Y-60838781D01*
X84577225Y-60849869D01*
X84577599Y-60859658D01*
X84576783Y-60872228D01*
X84574336Y-60883563D01*
X84570257Y-60893661D01*
X84564547Y-60902522D01*
X84557206Y-60910147D01*
X84548233Y-60916536D01*
X84537628Y-60921688D01*
X84525392Y-60925603D01*
X84511525Y-60928282D01*
X84501373Y-60929381D01*
X84490497Y-60929931D01*
X84484787Y-60930000D01*
X84303314Y-60930000D01*
X84291898Y-60929725D01*
X84281218Y-60928900D01*
X84271275Y-60927527D01*
X84257741Y-60924435D01*
X84245864Y-60920108D01*
X84235644Y-60914544D01*
X84227082Y-60907743D01*
X84220177Y-60899706D01*
X84214929Y-60890432D01*
X84211338Y-60879922D01*
X84209405Y-60868176D01*
X84209036Y-60859658D01*
X84209790Y-60847087D01*
X84212050Y-60835752D01*
X84215818Y-60825654D01*
X84221092Y-60816793D01*
X84227873Y-60809168D01*
X84236162Y-60802780D01*
X84245957Y-60797628D01*
X84257259Y-60793712D01*
X84270068Y-60791033D01*
X84284384Y-60789590D01*
X84294766Y-60789316D01*
X84294766Y-60250516D01*
X84273761Y-60250516D01*
X84262522Y-60250241D01*
X84252008Y-60249417D01*
X84242219Y-60248043D01*
X84228896Y-60244952D01*
X84217203Y-60240624D01*
X84207143Y-60235060D01*
X84198713Y-60228259D01*
X84191916Y-60220222D01*
X84186749Y-60210949D01*
X84183214Y-60200438D01*
X84181311Y-60188692D01*
X84180949Y-60180174D01*
X84181323Y-60170385D01*
X84182842Y-60159298D01*
X84185530Y-60149486D01*
X84190298Y-60139397D01*
X84196750Y-60131145D01*
X84204884Y-60124731D01*
X84214599Y-60119668D01*
X84223822Y-60116248D01*
X84234071Y-60113557D01*
X84245346Y-60111593D01*
X84255104Y-60110545D01*
X84265519Y-60109963D01*
X84273761Y-60109832D01*
X84435450Y-60109832D01*
X84798639Y-60661332D01*
X84798639Y-60250516D01*
X84749302Y-60250516D01*
X84738063Y-60250241D01*
X84727549Y-60249417D01*
X84717760Y-60248043D01*
X84704436Y-60244952D01*
X84692744Y-60240624D01*
X84682683Y-60235060D01*
X84674254Y-60228259D01*
X84667456Y-60220222D01*
X84662290Y-60210949D01*
X84658755Y-60200438D01*
X84656852Y-60188692D01*
X84656489Y-60180174D01*
X84656863Y-60170385D01*
X84658383Y-60159298D01*
X84661071Y-60149486D01*
X84665839Y-60139397D01*
X84672291Y-60131145D01*
X84680425Y-60124731D01*
X84690140Y-60119668D01*
X84699363Y-60116248D01*
X84709612Y-60113557D01*
X84720887Y-60111593D01*
X84730645Y-60110545D01*
X84741060Y-60109963D01*
X84749302Y-60109832D01*
X84932240Y-60109832D01*
G37*
G36*
X85461202Y-60110272D02*
G01*
X85479805Y-60111591D01*
X85498029Y-60113790D01*
X85515873Y-60116869D01*
X85533337Y-60120828D01*
X85550422Y-60125666D01*
X85567127Y-60131384D01*
X85583452Y-60137981D01*
X85599397Y-60145458D01*
X85614963Y-60153815D01*
X85630149Y-60163051D01*
X85644955Y-60173167D01*
X85659382Y-60184163D01*
X85673429Y-60196038D01*
X85687096Y-60208793D01*
X85700383Y-60222428D01*
X85713072Y-60236710D01*
X85724941Y-60251409D01*
X85735992Y-60266523D01*
X85746225Y-60282054D01*
X85755638Y-60298000D01*
X85764234Y-60314363D01*
X85772010Y-60331141D01*
X85778968Y-60348335D01*
X85785108Y-60365945D01*
X85790429Y-60383972D01*
X85794931Y-60402414D01*
X85798615Y-60421272D01*
X85801480Y-60440546D01*
X85802605Y-60450339D01*
X85803526Y-60460237D01*
X85804243Y-60470238D01*
X85804754Y-60480343D01*
X85805061Y-60490552D01*
X85805163Y-60500865D01*
X85805163Y-60567055D01*
X85805064Y-60577279D01*
X85804765Y-60587376D01*
X85804266Y-60597346D01*
X85803568Y-60607187D01*
X85801574Y-60626486D01*
X85798783Y-60645273D01*
X85795193Y-60663550D01*
X85790807Y-60681314D01*
X85785622Y-60698568D01*
X85779640Y-60715310D01*
X85772860Y-60731541D01*
X85765283Y-60747260D01*
X85756908Y-60762468D01*
X85747736Y-60777165D01*
X85737766Y-60791350D01*
X85726998Y-60805023D01*
X85715433Y-60818186D01*
X85703070Y-60830837D01*
X85690072Y-60842845D01*
X85676539Y-60854078D01*
X85662472Y-60864537D01*
X85647871Y-60874221D01*
X85632736Y-60883130D01*
X85617066Y-60891264D01*
X85600862Y-60898624D01*
X85584124Y-60905209D01*
X85566851Y-60911019D01*
X85549044Y-60916055D01*
X85530703Y-60920316D01*
X85511828Y-60923802D01*
X85492418Y-60926513D01*
X85482513Y-60927579D01*
X85472474Y-60928450D01*
X85462302Y-60929128D01*
X85451996Y-60929612D01*
X85441556Y-60929903D01*
X85430983Y-60930000D01*
X85143998Y-60930000D01*
X85132582Y-60929725D01*
X85121902Y-60928900D01*
X85111958Y-60927527D01*
X85098424Y-60924435D01*
X85086548Y-60920108D01*
X85076328Y-60914544D01*
X85067766Y-60907743D01*
X85060861Y-60899706D01*
X85055613Y-60890432D01*
X85052022Y-60879922D01*
X85050089Y-60868176D01*
X85049720Y-60859658D01*
X85050269Y-60849500D01*
X85052376Y-60838303D01*
X85056062Y-60828188D01*
X85061329Y-60819155D01*
X85068175Y-60811204D01*
X85072191Y-60807634D01*
X85081261Y-60801409D01*
X85091619Y-60796471D01*
X85101235Y-60793341D01*
X85111746Y-60791105D01*
X85123150Y-60789763D01*
X85132918Y-60789334D01*
X85135450Y-60789316D01*
X85135450Y-60250516D01*
X85276133Y-60250516D01*
X85276133Y-60789316D01*
X85432449Y-60789316D01*
X85445445Y-60789131D01*
X85458054Y-60788577D01*
X85470277Y-60787654D01*
X85482114Y-60786362D01*
X85493564Y-60784700D01*
X85504628Y-60782670D01*
X85515306Y-60780270D01*
X85525597Y-60777500D01*
X85535502Y-60774362D01*
X85545020Y-60770854D01*
X85551151Y-60768311D01*
X85560041Y-60764193D01*
X85571200Y-60758290D01*
X85581565Y-60751913D01*
X85591136Y-60745062D01*
X85599914Y-60737739D01*
X85607897Y-60729942D01*
X85615087Y-60721672D01*
X85621483Y-60712929D01*
X85622958Y-60710669D01*
X85628538Y-60701533D01*
X85633674Y-60692443D01*
X85638369Y-60683398D01*
X85642620Y-60674399D01*
X85647312Y-60663215D01*
X85651311Y-60652103D01*
X85654620Y-60641062D01*
X85655198Y-60638862D01*
X85657872Y-60627734D01*
X85660093Y-60616332D01*
X85661860Y-60604655D01*
X85663174Y-60592704D01*
X85663900Y-60582946D01*
X85664335Y-60573012D01*
X85664480Y-60562903D01*
X85664480Y-60498178D01*
X85664230Y-60485124D01*
X85663480Y-60472338D01*
X85662230Y-60459822D01*
X85660480Y-60447574D01*
X85658230Y-60435596D01*
X85655481Y-60423886D01*
X85652231Y-60412446D01*
X85648482Y-60401275D01*
X85644232Y-60390373D01*
X85639483Y-60379739D01*
X85634234Y-60369375D01*
X85628484Y-60359280D01*
X85622235Y-60349454D01*
X85615486Y-60339897D01*
X85608237Y-60330609D01*
X85600488Y-60321591D01*
X85592327Y-60312984D01*
X85583841Y-60304932D01*
X85575031Y-60297436D01*
X85565897Y-60290495D01*
X85556438Y-60284110D01*
X85546655Y-60278279D01*
X85536548Y-60273004D01*
X85526116Y-60268285D01*
X85515360Y-60264120D01*
X85504279Y-60260511D01*
X85492874Y-60257457D01*
X85481145Y-60254958D01*
X85469091Y-60253015D01*
X85456713Y-60251626D01*
X85444010Y-60250794D01*
X85430983Y-60250516D01*
X85276133Y-60250516D01*
X85135450Y-60250516D01*
X85125068Y-60250241D01*
X85110752Y-60248799D01*
X85097943Y-60246120D01*
X85086641Y-60242204D01*
X85076846Y-60237052D01*
X85068557Y-60230664D01*
X85061776Y-60223039D01*
X85056502Y-60214177D01*
X85052734Y-60204079D01*
X85050474Y-60192745D01*
X85049720Y-60180174D01*
X85050102Y-60170053D01*
X85051652Y-60158647D01*
X85054395Y-60148625D01*
X85059261Y-60138424D01*
X85065844Y-60130215D01*
X85074145Y-60123998D01*
X85084117Y-60119184D01*
X85093529Y-60115933D01*
X85103942Y-60113374D01*
X85115358Y-60111506D01*
X85125211Y-60110510D01*
X85135706Y-60109957D01*
X85143998Y-60109832D01*
X85442219Y-60109832D01*
X85461202Y-60110272D01*
G37*
G36*
X87191628Y-60110091D02*
G01*
X87206098Y-60110866D01*
X87220243Y-60112159D01*
X87234060Y-60113969D01*
X87247552Y-60116296D01*
X87260717Y-60119140D01*
X87273556Y-60122501D01*
X87286069Y-60126379D01*
X87298255Y-60130775D01*
X87310115Y-60135687D01*
X87321649Y-60141117D01*
X87332857Y-60147064D01*
X87343738Y-60153528D01*
X87354293Y-60160509D01*
X87364521Y-60168007D01*
X87374424Y-60176022D01*
X87383888Y-60184398D01*
X87392742Y-60193039D01*
X87400985Y-60201945D01*
X87408618Y-60211116D01*
X87415640Y-60220553D01*
X87422051Y-60230255D01*
X87427852Y-60240222D01*
X87433042Y-60250455D01*
X87437622Y-60260953D01*
X87441591Y-60271715D01*
X87444949Y-60282744D01*
X87447697Y-60294037D01*
X87449834Y-60305596D01*
X87451360Y-60317419D01*
X87452276Y-60329508D01*
X87452581Y-60341863D01*
X87452235Y-60353045D01*
X87451196Y-60364062D01*
X87449465Y-60374913D01*
X87447040Y-60385597D01*
X87443923Y-60396116D01*
X87440114Y-60406469D01*
X87435611Y-60416655D01*
X87430416Y-60426676D01*
X87424529Y-60436531D01*
X87417949Y-60446219D01*
X87410676Y-60455742D01*
X87402710Y-60465099D01*
X87394052Y-60474289D01*
X87384701Y-60483314D01*
X87374658Y-60492172D01*
X87363921Y-60500865D01*
X87373103Y-60505574D01*
X87381992Y-60510391D01*
X87390591Y-60515315D01*
X87406913Y-60525486D01*
X87422070Y-60536086D01*
X87436060Y-60547115D01*
X87448885Y-60558573D01*
X87460543Y-60570461D01*
X87471036Y-60582778D01*
X87480363Y-60595524D01*
X87488525Y-60608700D01*
X87495520Y-60622305D01*
X87501349Y-60636340D01*
X87506013Y-60650803D01*
X87509510Y-60665697D01*
X87511842Y-60681019D01*
X87513008Y-60696771D01*
X87513154Y-60704808D01*
X87512857Y-60717324D01*
X87511967Y-60729533D01*
X87510483Y-60741435D01*
X87508406Y-60753030D01*
X87505736Y-60764318D01*
X87502472Y-60775298D01*
X87498615Y-60785972D01*
X87494164Y-60796338D01*
X87489120Y-60806396D01*
X87483482Y-60816148D01*
X87477251Y-60825592D01*
X87470426Y-60834730D01*
X87463009Y-60843559D01*
X87454997Y-60852082D01*
X87446392Y-60860298D01*
X87437194Y-60868206D01*
X87427507Y-60875689D01*
X87417433Y-60882689D01*
X87406975Y-60889206D01*
X87396131Y-60895241D01*
X87384901Y-60900792D01*
X87373287Y-60905861D01*
X87361286Y-60910448D01*
X87348900Y-60914551D01*
X87336129Y-60918172D01*
X87322973Y-60921310D01*
X87309430Y-60923965D01*
X87295503Y-60926137D01*
X87281190Y-60927827D01*
X87266491Y-60929034D01*
X87251407Y-60929758D01*
X87235938Y-60930000D01*
X86820969Y-60930000D01*
X86809731Y-60929725D01*
X86799217Y-60928900D01*
X86789428Y-60927527D01*
X86776104Y-60924435D01*
X86764412Y-60920108D01*
X86754351Y-60914544D01*
X86745922Y-60907743D01*
X86739124Y-60899706D01*
X86733958Y-60890432D01*
X86730423Y-60879922D01*
X86728520Y-60868176D01*
X86728157Y-60859658D01*
X86728973Y-60847087D01*
X86731420Y-60835752D01*
X86735499Y-60825654D01*
X86741209Y-60816793D01*
X86748551Y-60809168D01*
X86757524Y-60802780D01*
X86768128Y-60797628D01*
X86780364Y-60793712D01*
X86794232Y-60791033D01*
X86804383Y-60789934D01*
X86815259Y-60789384D01*
X86820969Y-60789316D01*
X86841974Y-60789316D01*
X86841974Y-60589525D01*
X86982658Y-60589525D01*
X86982658Y-60789316D01*
X87228855Y-60789316D01*
X87246246Y-60789019D01*
X87262515Y-60788129D01*
X87277662Y-60786645D01*
X87291687Y-60784568D01*
X87304589Y-60781898D01*
X87316370Y-60778634D01*
X87327029Y-60774776D01*
X87336566Y-60770326D01*
X87344981Y-60765282D01*
X87355500Y-60756603D01*
X87363494Y-60746588D01*
X87368964Y-60735239D01*
X87371909Y-60722554D01*
X87372470Y-60713356D01*
X87371987Y-60703021D01*
X87370538Y-60693080D01*
X87368123Y-60683535D01*
X87363400Y-60671422D01*
X87358731Y-60662798D01*
X87353096Y-60654569D01*
X87346495Y-60646735D01*
X87338928Y-60639296D01*
X87330395Y-60632252D01*
X87320896Y-60625603D01*
X87317515Y-60623475D01*
X87306946Y-60617408D01*
X87295754Y-60611937D01*
X87283939Y-60607063D01*
X87271502Y-60602787D01*
X87258443Y-60599106D01*
X87244760Y-60596023D01*
X87230456Y-60593537D01*
X87220573Y-60592210D01*
X87210414Y-60591150D01*
X87199979Y-60590354D01*
X87189266Y-60589823D01*
X87178277Y-60589558D01*
X87172679Y-60589525D01*
X86982658Y-60589525D01*
X86841974Y-60589525D01*
X86841974Y-60250516D01*
X86982658Y-60250516D01*
X86982658Y-60448841D01*
X87141660Y-60448841D01*
X87155649Y-60448575D01*
X87169132Y-60447776D01*
X87182108Y-60446445D01*
X87194577Y-60444582D01*
X87206540Y-60442186D01*
X87217996Y-60439258D01*
X87228945Y-60435798D01*
X87239388Y-60431805D01*
X87249324Y-60427280D01*
X87258754Y-60422222D01*
X87264759Y-60418555D01*
X87273183Y-60412724D01*
X87283126Y-60404475D01*
X87291597Y-60395684D01*
X87298594Y-60386351D01*
X87304118Y-60376477D01*
X87308169Y-60366060D01*
X87310747Y-60355102D01*
X87311852Y-60343601D01*
X87311898Y-60340642D01*
X87311302Y-60330364D01*
X87309516Y-60320659D01*
X87305609Y-60309333D01*
X87299842Y-60298902D01*
X87292214Y-60289365D01*
X87284772Y-60282379D01*
X87276140Y-60275966D01*
X87273796Y-60274452D01*
X87263892Y-60268842D01*
X87253111Y-60263980D01*
X87241453Y-60259866D01*
X87228916Y-60256500D01*
X87218938Y-60254466D01*
X87208466Y-60252853D01*
X87197500Y-60251661D01*
X87186040Y-60250890D01*
X87174087Y-60250539D01*
X87169993Y-60250516D01*
X86982658Y-60250516D01*
X86841974Y-60250516D01*
X86820969Y-60250516D01*
X86809731Y-60250241D01*
X86799217Y-60249417D01*
X86789428Y-60248043D01*
X86776104Y-60244952D01*
X86764412Y-60240624D01*
X86754351Y-60235060D01*
X86745922Y-60228259D01*
X86739124Y-60220222D01*
X86733958Y-60210949D01*
X86730423Y-60200438D01*
X86728520Y-60188692D01*
X86728157Y-60180174D01*
X86728539Y-60170385D01*
X86730089Y-60159298D01*
X86732832Y-60149486D01*
X86737698Y-60139397D01*
X86744281Y-60131145D01*
X86752581Y-60124731D01*
X86762502Y-60119668D01*
X86771792Y-60116248D01*
X86782013Y-60113557D01*
X86793163Y-60111593D01*
X86805244Y-60110356D01*
X86815579Y-60109890D01*
X86820969Y-60109832D01*
X87176831Y-60109832D01*
X87191628Y-60110091D01*
G37*
G36*
X88820289Y-60090275D02*
G01*
X88830788Y-60090955D01*
X88841823Y-60092088D01*
X88853394Y-60093674D01*
X88863038Y-60095269D01*
X88873025Y-60097154D01*
X88883356Y-60099330D01*
X88894171Y-60101909D01*
X88905491Y-60105130D01*
X88917313Y-60108992D01*
X88926511Y-60112310D01*
X88935992Y-60115988D01*
X88945757Y-60120026D01*
X88955805Y-60124426D01*
X88966136Y-60129185D01*
X88976750Y-60134306D01*
X88983984Y-60137920D01*
X88994831Y-60143599D01*
X89005479Y-60149552D01*
X89015931Y-60155780D01*
X89026185Y-60162283D01*
X89036241Y-60169061D01*
X89046100Y-60176113D01*
X89055761Y-60183441D01*
X89065225Y-60191043D01*
X89074492Y-60198920D01*
X89083561Y-60207071D01*
X89089497Y-60212658D01*
X89098211Y-60221413D01*
X89106676Y-60230825D01*
X89114892Y-60240893D01*
X89122859Y-60251619D01*
X89130577Y-60263001D01*
X89138046Y-60275040D01*
X89145266Y-60287736D01*
X89149941Y-60296565D01*
X89154505Y-60305686D01*
X89158959Y-60315099D01*
X89163302Y-60324804D01*
X89167534Y-60334801D01*
X89169609Y-60339909D01*
X89173631Y-60350282D01*
X89177394Y-60360826D01*
X89180897Y-60371539D01*
X89184141Y-60382422D01*
X89187126Y-60393475D01*
X89189850Y-60404698D01*
X89192316Y-60416091D01*
X89194521Y-60427653D01*
X89196468Y-60439385D01*
X89198155Y-60451287D01*
X89199582Y-60463359D01*
X89200750Y-60475601D01*
X89201658Y-60488012D01*
X89202307Y-60500594D01*
X89202696Y-60513345D01*
X89202826Y-60526266D01*
X89202712Y-60537027D01*
X89202373Y-60547696D01*
X89201806Y-60558271D01*
X89201013Y-60568753D01*
X89199993Y-60579142D01*
X89198747Y-60589438D01*
X89197274Y-60599641D01*
X89195575Y-60609751D01*
X89193649Y-60619768D01*
X89191496Y-60629692D01*
X89189117Y-60639523D01*
X89186511Y-60649261D01*
X89183679Y-60658906D01*
X89180620Y-60668458D01*
X89177334Y-60677917D01*
X89173822Y-60687283D01*
X89170083Y-60696556D01*
X89166118Y-60705736D01*
X89161926Y-60714823D01*
X89157507Y-60723817D01*
X89152862Y-60732717D01*
X89147990Y-60741525D01*
X89142892Y-60750240D01*
X89137567Y-60758862D01*
X89132016Y-60767390D01*
X89126237Y-60775826D01*
X89120233Y-60784169D01*
X89114001Y-60792418D01*
X89107544Y-60800575D01*
X89100859Y-60808638D01*
X89093948Y-60816609D01*
X89086810Y-60824487D01*
X89079516Y-60832195D01*
X89072135Y-60839659D01*
X89064667Y-60846878D01*
X89057112Y-60853853D01*
X89049470Y-60860583D01*
X89041742Y-60867068D01*
X89033927Y-60873308D01*
X89026024Y-60879304D01*
X89018036Y-60885055D01*
X89009960Y-60890561D01*
X88993548Y-60900839D01*
X88976789Y-60910139D01*
X88959682Y-60918459D01*
X88942228Y-60925801D01*
X88924427Y-60932163D01*
X88906279Y-60937547D01*
X88887783Y-60941952D01*
X88868940Y-60945378D01*
X88849750Y-60947825D01*
X88830212Y-60949294D01*
X88820313Y-60949661D01*
X88810327Y-60949783D01*
X88800178Y-60949660D01*
X88790122Y-60949292D01*
X88780161Y-60948678D01*
X88770295Y-60947818D01*
X88760522Y-60946712D01*
X88750845Y-60945361D01*
X88731773Y-60941922D01*
X88713079Y-60937499D01*
X88694762Y-60932095D01*
X88676824Y-60925707D01*
X88659263Y-60918337D01*
X88642080Y-60909984D01*
X88625275Y-60900648D01*
X88608848Y-60890330D01*
X88600776Y-60884802D01*
X88592799Y-60879029D01*
X88584916Y-60873010D01*
X88577127Y-60866745D01*
X88569433Y-60860235D01*
X88561833Y-60853479D01*
X88554328Y-60846477D01*
X88546917Y-60839230D01*
X88539601Y-60831737D01*
X88532379Y-60823998D01*
X88525332Y-60816070D01*
X88518508Y-60808038D01*
X88511908Y-60799904D01*
X88505531Y-60791666D01*
X88499379Y-60783326D01*
X88493450Y-60774882D01*
X88487745Y-60766336D01*
X88482264Y-60757686D01*
X88477006Y-60748933D01*
X88471972Y-60740078D01*
X88467162Y-60731119D01*
X88462575Y-60722057D01*
X88458213Y-60712892D01*
X88454074Y-60703625D01*
X88450158Y-60694254D01*
X88446467Y-60684780D01*
X88442999Y-60675203D01*
X88439755Y-60665523D01*
X88436734Y-60655740D01*
X88433938Y-60645853D01*
X88431365Y-60635864D01*
X88429016Y-60625772D01*
X88426890Y-60615577D01*
X88424989Y-60605279D01*
X88423311Y-60594877D01*
X88421856Y-60584373D01*
X88420626Y-60573766D01*
X88419619Y-60563055D01*
X88418836Y-60552242D01*
X88418277Y-60541325D01*
X88417941Y-60530306D01*
X88417829Y-60519183D01*
X88558513Y-60519183D01*
X88558801Y-60534008D01*
X88559666Y-60548565D01*
X88561106Y-60562852D01*
X88563123Y-60576870D01*
X88565716Y-60590619D01*
X88568886Y-60604099D01*
X88572631Y-60617310D01*
X88576953Y-60630252D01*
X88581852Y-60642925D01*
X88587326Y-60655329D01*
X88593377Y-60667464D01*
X88600004Y-60679330D01*
X88607207Y-60690927D01*
X88614987Y-60702254D01*
X88623342Y-60713313D01*
X88632274Y-60724103D01*
X88641642Y-60734395D01*
X88651245Y-60744024D01*
X88661083Y-60752988D01*
X88671155Y-60761289D01*
X88681462Y-60768925D01*
X88692003Y-60775898D01*
X88702780Y-60782206D01*
X88713790Y-60787850D01*
X88725036Y-60792830D01*
X88736517Y-60797147D01*
X88748232Y-60800799D01*
X88760181Y-60803787D01*
X88772366Y-60806111D01*
X88784785Y-60807771D01*
X88797439Y-60808767D01*
X88810327Y-60809099D01*
X88823041Y-60808769D01*
X88835534Y-60807779D01*
X88847808Y-60806128D01*
X88859863Y-60803818D01*
X88871698Y-60800847D01*
X88883314Y-60797215D01*
X88894711Y-60792924D01*
X88905887Y-60787972D01*
X88916845Y-60782360D01*
X88927583Y-60776088D01*
X88938102Y-60769156D01*
X88948401Y-60761564D01*
X88958481Y-60753311D01*
X88968341Y-60744398D01*
X88977982Y-60734825D01*
X88987404Y-60724591D01*
X88996454Y-60713902D01*
X89004920Y-60702961D01*
X89012803Y-60691767D01*
X89020102Y-60680322D01*
X89026816Y-60668625D01*
X89032947Y-60656676D01*
X89038494Y-60644476D01*
X89043457Y-60632023D01*
X89047836Y-60619319D01*
X89051632Y-60606362D01*
X89054843Y-60593154D01*
X89057471Y-60579694D01*
X89059514Y-60565982D01*
X89060974Y-60552018D01*
X89061850Y-60537803D01*
X89062142Y-60523335D01*
X89061853Y-60508360D01*
X89060986Y-60493660D01*
X89059540Y-60479234D01*
X89057517Y-60465083D01*
X89054915Y-60451207D01*
X89051735Y-60437606D01*
X89047977Y-60424279D01*
X89043640Y-60411228D01*
X89038726Y-60398451D01*
X89033233Y-60385949D01*
X89027163Y-60373721D01*
X89020514Y-60361769D01*
X89013287Y-60350091D01*
X89005481Y-60338688D01*
X88997098Y-60327559D01*
X88988136Y-60316706D01*
X88978798Y-60306295D01*
X88969223Y-60296556D01*
X88959411Y-60287488D01*
X88949363Y-60279092D01*
X88939078Y-60271368D01*
X88928556Y-60264316D01*
X88917798Y-60257935D01*
X88906803Y-60252226D01*
X88895572Y-60247188D01*
X88884104Y-60242822D01*
X88872400Y-60239128D01*
X88860458Y-60236106D01*
X88848281Y-60233755D01*
X88835866Y-60232076D01*
X88823215Y-60231068D01*
X88810327Y-60230732D01*
X88797613Y-60231065D01*
X88785117Y-60232064D01*
X88772838Y-60233729D01*
X88760777Y-60236060D01*
X88748933Y-60239057D01*
X88737307Y-60242719D01*
X88725898Y-60247048D01*
X88714706Y-60252042D01*
X88703733Y-60257703D01*
X88692976Y-60264029D01*
X88682438Y-60271022D01*
X88672117Y-60278680D01*
X88662013Y-60287004D01*
X88652127Y-60295995D01*
X88642458Y-60305651D01*
X88633007Y-60315973D01*
X88623986Y-60326727D01*
X88615548Y-60337741D01*
X88607691Y-60349014D01*
X88600416Y-60360547D01*
X88593723Y-60372340D01*
X88587612Y-60384392D01*
X88582083Y-60396703D01*
X88577137Y-60409274D01*
X88572772Y-60422104D01*
X88568989Y-60435194D01*
X88565788Y-60448543D01*
X88563169Y-60462152D01*
X88561132Y-60476021D01*
X88559677Y-60490149D01*
X88558804Y-60504536D01*
X88558513Y-60519183D01*
X88417829Y-60519183D01*
X88417942Y-60508151D01*
X88418280Y-60497219D01*
X88418842Y-60486388D01*
X88419631Y-60475658D01*
X88420644Y-60465029D01*
X88421882Y-60454500D01*
X88423346Y-60444071D01*
X88425034Y-60433744D01*
X88426948Y-60423517D01*
X88429087Y-60413391D01*
X88431451Y-60403365D01*
X88434041Y-60393440D01*
X88436855Y-60383616D01*
X88439895Y-60373892D01*
X88443160Y-60364269D01*
X88446650Y-60354747D01*
X88450365Y-60345325D01*
X88454305Y-60336004D01*
X88458471Y-60326783D01*
X88462862Y-60317664D01*
X88467477Y-60308645D01*
X88472318Y-60299726D01*
X88477384Y-60290908D01*
X88482676Y-60282191D01*
X88488192Y-60273575D01*
X88493934Y-60265059D01*
X88499901Y-60256644D01*
X88506092Y-60248329D01*
X88512510Y-60240115D01*
X88519152Y-60232002D01*
X88526019Y-60223990D01*
X88533112Y-60216078D01*
X88540377Y-60208324D01*
X88547733Y-60200816D01*
X88555179Y-60193555D01*
X88562715Y-60186540D01*
X88570341Y-60179770D01*
X88578057Y-60173247D01*
X88585864Y-60166971D01*
X88593760Y-60160940D01*
X88601747Y-60155155D01*
X88609824Y-60149617D01*
X88626249Y-60139279D01*
X88643034Y-60129925D01*
X88660179Y-60121556D01*
X88677685Y-60114171D01*
X88695552Y-60107771D01*
X88713780Y-60102356D01*
X88732368Y-60097925D01*
X88751317Y-60094479D01*
X88770627Y-60092018D01*
X88780417Y-60091156D01*
X88790297Y-60090541D01*
X88800267Y-60090171D01*
X88810327Y-60090048D01*
X88820289Y-60090275D01*
G37*
G36*
X89682912Y-60110123D02*
G01*
X89699051Y-60110996D01*
X89714816Y-60112451D01*
X89730207Y-60114488D01*
X89745224Y-60117107D01*
X89759867Y-60120308D01*
X89774136Y-60124091D01*
X89788032Y-60128456D01*
X89801553Y-60133402D01*
X89814700Y-60138931D01*
X89827473Y-60145042D01*
X89839872Y-60151735D01*
X89851897Y-60159010D01*
X89863548Y-60166867D01*
X89874826Y-60175305D01*
X89885729Y-60184326D01*
X89896140Y-60193804D01*
X89905879Y-60203614D01*
X89914946Y-60213755D01*
X89923342Y-60224229D01*
X89931066Y-60235035D01*
X89938119Y-60246173D01*
X89944500Y-60257643D01*
X89950209Y-60269445D01*
X89955246Y-60281579D01*
X89959612Y-60294045D01*
X89963306Y-60306842D01*
X89966329Y-60319972D01*
X89968680Y-60333434D01*
X89970359Y-60347228D01*
X89971366Y-60361354D01*
X89971702Y-60375812D01*
X89971494Y-60387577D01*
X89970867Y-60399211D01*
X89969824Y-60410714D01*
X89968363Y-60422085D01*
X89966485Y-60433325D01*
X89964189Y-60444434D01*
X89963154Y-60448841D01*
X89960177Y-60459886D01*
X89956437Y-60471038D01*
X89951934Y-60482297D01*
X89947782Y-60491382D01*
X89943141Y-60500535D01*
X89938012Y-60509757D01*
X89932394Y-60519048D01*
X89930914Y-60521381D01*
X89924743Y-60530514D01*
X89918198Y-60539348D01*
X89911279Y-60547885D01*
X89903986Y-60556125D01*
X89896319Y-60564066D01*
X89888278Y-60571711D01*
X89879863Y-60579057D01*
X89871074Y-60586106D01*
X89861724Y-60592792D01*
X89851626Y-60599173D01*
X89840780Y-60605248D01*
X89829187Y-60611018D01*
X89820000Y-60615146D01*
X89810393Y-60619101D01*
X89800365Y-60622885D01*
X89789917Y-60626497D01*
X89779048Y-60629938D01*
X89775331Y-60631046D01*
X89764000Y-60634189D01*
X89752356Y-60637023D01*
X89740398Y-60639547D01*
X89728127Y-60641762D01*
X89715543Y-60643669D01*
X89702645Y-60645266D01*
X89689434Y-60646554D01*
X89675909Y-60647533D01*
X89662071Y-60648202D01*
X89647919Y-60648563D01*
X89638311Y-60648632D01*
X89500314Y-60648632D01*
X89500314Y-60789316D01*
X89639776Y-60789316D01*
X89651015Y-60789590D01*
X89661529Y-60790415D01*
X89671318Y-60791789D01*
X89684642Y-60794880D01*
X89696334Y-60799207D01*
X89706394Y-60804772D01*
X89714824Y-60811572D01*
X89721621Y-60819609D01*
X89726788Y-60828883D01*
X89730323Y-60839393D01*
X89732226Y-60851140D01*
X89732588Y-60859658D01*
X89731773Y-60872228D01*
X89729326Y-60883563D01*
X89725247Y-60893661D01*
X89719537Y-60902522D01*
X89712195Y-60910147D01*
X89703222Y-60916536D01*
X89692618Y-60921688D01*
X89680382Y-60925603D01*
X89666514Y-60928282D01*
X89656363Y-60929381D01*
X89645486Y-60929931D01*
X89639776Y-60930000D01*
X89338625Y-60930000D01*
X89327386Y-60929725D01*
X89316872Y-60928900D01*
X89307083Y-60927527D01*
X89293759Y-60924435D01*
X89282067Y-60920108D01*
X89272007Y-60914544D01*
X89263577Y-60907743D01*
X89256780Y-60899706D01*
X89251613Y-60890432D01*
X89248078Y-60879922D01*
X89246175Y-60868176D01*
X89245812Y-60859658D01*
X89246628Y-60847087D01*
X89249075Y-60835752D01*
X89253154Y-60825654D01*
X89258864Y-60816793D01*
X89266206Y-60809168D01*
X89275179Y-60802780D01*
X89285783Y-60797628D01*
X89298019Y-60793712D01*
X89311887Y-60791033D01*
X89322038Y-60789934D01*
X89332915Y-60789384D01*
X89338625Y-60789316D01*
X89359630Y-60789316D01*
X89359630Y-60250516D01*
X89500314Y-60250516D01*
X89500314Y-60507948D01*
X89666399Y-60507948D01*
X89679856Y-60507645D01*
X89692751Y-60506737D01*
X89705084Y-60505224D01*
X89716854Y-60503105D01*
X89728062Y-60500381D01*
X89738707Y-60497051D01*
X89748790Y-60493117D01*
X89758310Y-60488576D01*
X89767268Y-60483431D01*
X89775664Y-60477680D01*
X89780949Y-60473510D01*
X89788369Y-60466836D01*
X89797127Y-60457262D01*
X89804588Y-60446918D01*
X89810751Y-60435803D01*
X89815617Y-60423918D01*
X89818415Y-60414497D01*
X89820483Y-60404643D01*
X89821821Y-60394356D01*
X89822429Y-60383635D01*
X89822470Y-60379965D01*
X89822105Y-60368837D01*
X89821010Y-60358169D01*
X89819185Y-60347960D01*
X89816631Y-60338211D01*
X89813347Y-60328920D01*
X89807832Y-60317248D01*
X89801020Y-60306393D01*
X89792910Y-60296354D01*
X89785977Y-60289361D01*
X89780949Y-60284954D01*
X89772928Y-60278800D01*
X89764345Y-60273251D01*
X89755199Y-60268307D01*
X89745491Y-60263968D01*
X89735221Y-60260235D01*
X89724388Y-60257108D01*
X89712993Y-60254585D01*
X89701035Y-60252668D01*
X89688515Y-60251357D01*
X89675433Y-60250650D01*
X89666399Y-60250516D01*
X89500314Y-60250516D01*
X89359630Y-60250516D01*
X89338625Y-60250516D01*
X89327386Y-60250241D01*
X89316872Y-60249417D01*
X89307083Y-60248043D01*
X89293759Y-60244952D01*
X89282067Y-60240624D01*
X89272007Y-60235060D01*
X89263577Y-60228259D01*
X89256780Y-60220222D01*
X89251613Y-60210949D01*
X89248078Y-60200438D01*
X89246175Y-60188692D01*
X89245812Y-60180174D01*
X89246186Y-60170385D01*
X89247706Y-60159298D01*
X89250394Y-60149486D01*
X89255162Y-60139397D01*
X89261614Y-60131145D01*
X89269748Y-60124731D01*
X89279463Y-60119668D01*
X89288686Y-60116248D01*
X89298935Y-60113557D01*
X89310210Y-60111593D01*
X89319968Y-60110545D01*
X89330383Y-60109963D01*
X89338625Y-60109832D01*
X89666399Y-60109832D01*
X89682912Y-60110123D01*
G37*
G36*
X90650453Y-60789316D02*
G01*
X90661722Y-60789590D01*
X90672263Y-60790415D01*
X90682078Y-60791789D01*
X90695436Y-60794880D01*
X90707159Y-60799207D01*
X90717247Y-60804772D01*
X90725698Y-60811572D01*
X90732514Y-60819609D01*
X90737694Y-60828883D01*
X90741238Y-60839393D01*
X90743146Y-60851140D01*
X90743510Y-60859658D01*
X90742692Y-60872228D01*
X90740238Y-60883563D01*
X90736149Y-60893661D01*
X90730424Y-60902522D01*
X90723063Y-60910147D01*
X90714066Y-60916536D01*
X90703434Y-60921688D01*
X90691165Y-60925603D01*
X90677261Y-60928282D01*
X90667083Y-60929381D01*
X90656178Y-60929931D01*
X90650453Y-60930000D01*
X90325610Y-60930000D01*
X90314371Y-60929725D01*
X90303857Y-60928900D01*
X90294068Y-60927527D01*
X90280745Y-60924435D01*
X90269053Y-60920108D01*
X90258992Y-60914544D01*
X90250563Y-60907743D01*
X90243765Y-60899706D01*
X90238599Y-60890432D01*
X90235064Y-60879922D01*
X90233160Y-60868176D01*
X90232798Y-60859658D01*
X90233172Y-60849869D01*
X90234691Y-60838781D01*
X90237379Y-60828970D01*
X90242148Y-60818880D01*
X90248599Y-60810629D01*
X90256734Y-60804214D01*
X90266448Y-60799151D01*
X90275672Y-60795732D01*
X90285921Y-60793040D01*
X90297195Y-60791076D01*
X90306954Y-60790029D01*
X90317368Y-60789447D01*
X90325610Y-60789316D01*
X90416957Y-60789316D01*
X90416957Y-60250516D01*
X90266503Y-60250516D01*
X90266503Y-60381430D01*
X90266229Y-60392669D01*
X90265404Y-60403183D01*
X90264030Y-60412972D01*
X90260939Y-60426295D01*
X90256612Y-60437988D01*
X90251047Y-60448048D01*
X90244247Y-60456477D01*
X90236210Y-60463275D01*
X90226936Y-60468442D01*
X90216426Y-60471976D01*
X90204679Y-60473880D01*
X90196161Y-60474242D01*
X90183591Y-60473427D01*
X90172256Y-60470979D01*
X90162158Y-60466901D01*
X90153297Y-60461191D01*
X90145672Y-60453849D01*
X90139283Y-60444876D01*
X90134131Y-60434271D01*
X90130216Y-60422035D01*
X90127537Y-60408168D01*
X90126438Y-60398017D01*
X90125888Y-60387140D01*
X90125819Y-60381430D01*
X90125819Y-60109832D01*
X90851709Y-60109832D01*
X90851709Y-60381430D01*
X90851476Y-60392337D01*
X90850778Y-60402588D01*
X90849250Y-60414478D01*
X90846995Y-60425342D01*
X90844012Y-60435181D01*
X90839473Y-60445634D01*
X90836810Y-60450307D01*
X90830396Y-60458441D01*
X90822144Y-60464892D01*
X90812055Y-60469661D01*
X90802244Y-60472349D01*
X90791156Y-60473868D01*
X90781367Y-60474242D01*
X90768796Y-60473427D01*
X90757462Y-60470979D01*
X90747364Y-60466901D01*
X90738503Y-60461191D01*
X90730878Y-60453849D01*
X90724489Y-60444876D01*
X90719337Y-60434271D01*
X90715422Y-60422035D01*
X90712743Y-60408168D01*
X90711644Y-60398017D01*
X90711094Y-60387140D01*
X90711025Y-60381430D01*
X90711025Y-60250516D01*
X90557641Y-60250516D01*
X90557641Y-60789316D01*
X90650453Y-60789316D01*
G37*
G36*
X92403628Y-60090048D02*
G01*
X92413684Y-60090422D01*
X92424998Y-60091942D01*
X92434917Y-60094630D01*
X92444978Y-60099398D01*
X92453029Y-60105850D01*
X92459071Y-60113984D01*
X92463637Y-60123699D01*
X92467257Y-60134890D01*
X92469553Y-60145344D01*
X92471193Y-60156824D01*
X92472032Y-60166746D01*
X92472452Y-60177325D01*
X92472505Y-60182861D01*
X92472505Y-60306692D01*
X92472236Y-60318108D01*
X92471429Y-60328788D01*
X92470083Y-60338731D01*
X92467056Y-60352265D01*
X92462819Y-60364142D01*
X92457371Y-60374362D01*
X92450712Y-60382924D01*
X92442842Y-60389829D01*
X92433762Y-60395077D01*
X92423471Y-60398668D01*
X92411969Y-60400601D01*
X92403628Y-60400969D01*
X92393525Y-60400540D01*
X92383694Y-60399136D01*
X92383112Y-60399016D01*
X92373328Y-60395975D01*
X92367725Y-60393398D01*
X92359705Y-60387432D01*
X92355757Y-60383384D01*
X92349302Y-60375691D01*
X92347208Y-60372882D01*
X92342861Y-60363860D01*
X92341591Y-60360425D01*
X92338738Y-60350786D01*
X92338171Y-60348457D01*
X92335891Y-60338450D01*
X92335240Y-60335757D01*
X92333380Y-60326025D01*
X92333286Y-60325010D01*
X92330226Y-60314702D01*
X92326051Y-60304906D01*
X92320761Y-60295621D01*
X92314357Y-60286847D01*
X92306839Y-60278585D01*
X92298207Y-60270834D01*
X92288460Y-60263594D01*
X92277599Y-60256866D01*
X92268855Y-60252196D01*
X92259750Y-60247985D01*
X92250285Y-60244233D01*
X92240459Y-60240941D01*
X92230272Y-60238108D01*
X92219725Y-60235734D01*
X92208817Y-60233820D01*
X92197548Y-60232366D01*
X92185919Y-60231370D01*
X92173929Y-60230834D01*
X92165736Y-60230732D01*
X92153541Y-60231005D01*
X92141684Y-60231823D01*
X92130168Y-60233186D01*
X92118990Y-60235094D01*
X92108151Y-60237548D01*
X92097652Y-60240547D01*
X92087492Y-60244091D01*
X92077671Y-60248180D01*
X92068189Y-60252815D01*
X92059046Y-60257995D01*
X92053140Y-60261751D01*
X92044846Y-60267689D01*
X92035058Y-60275988D01*
X92026719Y-60284722D01*
X92019831Y-60293890D01*
X92014392Y-60303494D01*
X92010404Y-60313533D01*
X92007867Y-60324007D01*
X92006779Y-60334915D01*
X92006734Y-60337711D01*
X92007459Y-60349339D01*
X92009634Y-60360288D01*
X92013259Y-60370557D01*
X92018335Y-60380148D01*
X92024861Y-60389059D01*
X92032837Y-60397291D01*
X92042263Y-60404843D01*
X92053140Y-60411716D01*
X92062020Y-60416412D01*
X92071166Y-60420789D01*
X92080578Y-60424849D01*
X92090257Y-60428592D01*
X92100202Y-60432016D01*
X92110413Y-60435123D01*
X92120890Y-60437913D01*
X92131633Y-60440384D01*
X92142643Y-60442538D01*
X92153919Y-60444374D01*
X92161584Y-60445422D01*
X92173294Y-60446955D01*
X92185254Y-60448716D01*
X92197463Y-60450705D01*
X92209921Y-60452921D01*
X92222628Y-60455364D01*
X92235583Y-60458035D01*
X92248788Y-60460934D01*
X92262242Y-60464060D01*
X92275945Y-60467414D01*
X92289897Y-60470996D01*
X92299337Y-60473510D01*
X92313296Y-60477442D01*
X92326688Y-60481635D01*
X92339514Y-60486091D01*
X92351772Y-60490809D01*
X92363465Y-60495788D01*
X92374590Y-60501030D01*
X92385149Y-60506533D01*
X92395141Y-60512298D01*
X92404566Y-60518326D01*
X92413425Y-60524615D01*
X92419016Y-60528953D01*
X92429071Y-60537397D01*
X92438479Y-60546183D01*
X92447237Y-60555311D01*
X92455347Y-60564780D01*
X92462808Y-60574591D01*
X92469620Y-60584743D01*
X92475783Y-60595237D01*
X92481297Y-60606072D01*
X92486163Y-60617249D01*
X92490380Y-60628768D01*
X92493948Y-60640628D01*
X92496868Y-60652830D01*
X92499139Y-60665373D01*
X92500761Y-60678258D01*
X92501734Y-60691484D01*
X92502058Y-60705052D01*
X92501712Y-60718596D01*
X92500673Y-60731812D01*
X92498941Y-60744699D01*
X92496517Y-60757259D01*
X92493400Y-60769490D01*
X92489590Y-60781393D01*
X92485088Y-60792968D01*
X92479893Y-60804214D01*
X92474005Y-60815133D01*
X92467425Y-60825723D01*
X92460152Y-60835985D01*
X92452187Y-60845919D01*
X92443529Y-60855525D01*
X92434178Y-60864802D01*
X92424134Y-60873751D01*
X92413398Y-60882372D01*
X92402096Y-60890535D01*
X92390355Y-60898172D01*
X92378175Y-60905281D01*
X92365557Y-60911864D01*
X92352499Y-60917921D01*
X92339003Y-60923451D01*
X92325068Y-60928454D01*
X92310694Y-60932930D01*
X92295881Y-60936880D01*
X92280629Y-60940303D01*
X92264938Y-60943200D01*
X92248809Y-60945570D01*
X92232240Y-60947413D01*
X92215233Y-60948730D01*
X92197787Y-60949520D01*
X92179902Y-60949783D01*
X92165363Y-60949569D01*
X92150932Y-60948925D01*
X92136611Y-60947851D01*
X92122398Y-60946349D01*
X92108294Y-60944417D01*
X92094299Y-60942055D01*
X92080412Y-60939265D01*
X92066634Y-60936045D01*
X92052965Y-60932395D01*
X92039405Y-60928317D01*
X92025953Y-60923809D01*
X92012611Y-60918871D01*
X91999377Y-60913505D01*
X91986252Y-60907709D01*
X91973235Y-60901483D01*
X91960327Y-60894829D01*
X91953306Y-60902728D01*
X91946284Y-60909575D01*
X91937506Y-60916652D01*
X91928729Y-60922083D01*
X91918196Y-60926427D01*
X91907663Y-60928402D01*
X91904152Y-60928534D01*
X91891319Y-60927718D01*
X91879748Y-60925271D01*
X91869440Y-60921192D01*
X91860394Y-60915482D01*
X91852610Y-60908141D01*
X91846089Y-60899168D01*
X91840829Y-60888563D01*
X91836832Y-60876327D01*
X91834097Y-60862460D01*
X91832975Y-60852308D01*
X91832414Y-60841432D01*
X91832344Y-60835722D01*
X91832344Y-60742909D01*
X91832585Y-60731670D01*
X91833306Y-60721157D01*
X91834508Y-60711368D01*
X91836687Y-60700151D01*
X91839617Y-60690068D01*
X91844125Y-60679464D01*
X91847732Y-60673300D01*
X91854426Y-60665415D01*
X91862787Y-60659161D01*
X91872813Y-60654538D01*
X91882441Y-60651933D01*
X91893226Y-60650460D01*
X91902686Y-60650097D01*
X91912643Y-60650581D01*
X91922554Y-60652184D01*
X91925889Y-60653028D01*
X91935537Y-60656448D01*
X91943475Y-60661332D01*
X91951111Y-60667745D01*
X91955443Y-60671835D01*
X91961223Y-60679824D01*
X91963747Y-60685268D01*
X91967609Y-60694485D01*
X91968876Y-60697969D01*
X91971815Y-60707479D01*
X91972295Y-60709204D01*
X91974494Y-60717508D01*
X91977684Y-60726858D01*
X91982370Y-60735857D01*
X91988553Y-60744505D01*
X91996231Y-60752801D01*
X92005406Y-60760747D01*
X92016076Y-60768341D01*
X92025060Y-60773807D01*
X92034886Y-60779075D01*
X92041905Y-60782477D01*
X92052868Y-60787235D01*
X92064050Y-60791524D01*
X92075451Y-60795346D01*
X92087070Y-60798700D01*
X92098909Y-60801586D01*
X92110967Y-60804004D01*
X92123244Y-60805953D01*
X92135740Y-60807435D01*
X92148454Y-60808449D01*
X92161388Y-60808995D01*
X92170132Y-60809099D01*
X92184657Y-60808827D01*
X92198740Y-60808009D01*
X92212381Y-60806646D01*
X92225579Y-60804737D01*
X92238335Y-60802284D01*
X92250649Y-60799285D01*
X92262521Y-60795741D01*
X92273951Y-60791651D01*
X92284938Y-60787017D01*
X92295483Y-60781837D01*
X92302267Y-60778080D01*
X92311827Y-60772142D01*
X92320445Y-60765959D01*
X92328124Y-60759531D01*
X92336900Y-60750580D01*
X92344004Y-60741194D01*
X92349436Y-60731373D01*
X92353197Y-60721116D01*
X92355287Y-60710425D01*
X92355757Y-60702121D01*
X92355108Y-60691825D01*
X92353162Y-60682062D01*
X92349918Y-60672835D01*
X92345376Y-60664141D01*
X92339537Y-60655982D01*
X92332401Y-60648357D01*
X92323967Y-60641266D01*
X92314235Y-60634710D01*
X92303657Y-60628627D01*
X92292681Y-60623078D01*
X92281308Y-60618063D01*
X92269539Y-60613583D01*
X92257373Y-60609637D01*
X92244809Y-60606225D01*
X92235126Y-60604017D01*
X92225220Y-60602109D01*
X92218492Y-60601004D01*
X92208165Y-60599329D01*
X92197515Y-60597507D01*
X92186543Y-60595539D01*
X92175250Y-60593425D01*
X92163634Y-60591166D01*
X92151697Y-60588760D01*
X92139437Y-60586208D01*
X92126855Y-60583510D01*
X92113952Y-60580667D01*
X92100726Y-60577677D01*
X92091730Y-60575603D01*
X92078428Y-60572337D01*
X92065632Y-60568951D01*
X92053343Y-60565445D01*
X92041561Y-60561819D01*
X92030285Y-60558072D01*
X92019516Y-60554205D01*
X92009254Y-60550218D01*
X91999498Y-60546111D01*
X91990249Y-60541883D01*
X91978704Y-60536060D01*
X91975959Y-60534570D01*
X91966127Y-60528613D01*
X91956691Y-60522283D01*
X91947649Y-60515579D01*
X91939002Y-60508501D01*
X91930750Y-60501050D01*
X91922893Y-60493226D01*
X91915432Y-60485027D01*
X91908365Y-60476456D01*
X91901693Y-60467511D01*
X91895416Y-60458192D01*
X91891451Y-60451772D01*
X91885908Y-60441901D01*
X91880909Y-60431888D01*
X91876457Y-60421734D01*
X91872549Y-60411438D01*
X91869186Y-60401000D01*
X91866369Y-60390420D01*
X91864097Y-60379699D01*
X91862371Y-60368836D01*
X91861189Y-60357832D01*
X91860553Y-60346686D01*
X91860432Y-60339176D01*
X91860773Y-60325944D01*
X91861795Y-60312992D01*
X91863498Y-60300321D01*
X91865882Y-60287931D01*
X91868947Y-60275821D01*
X91872694Y-60263991D01*
X91877122Y-60252442D01*
X91882231Y-60241174D01*
X91888021Y-60230186D01*
X91894493Y-60219478D01*
X91901645Y-60209051D01*
X91909479Y-60198904D01*
X91917994Y-60189038D01*
X91927191Y-60179453D01*
X91937068Y-60170148D01*
X91947627Y-60161123D01*
X91958726Y-60152516D01*
X91970162Y-60144465D01*
X91981936Y-60136969D01*
X91994048Y-60130028D01*
X92006498Y-60123642D01*
X92019285Y-60117812D01*
X92032411Y-60112537D01*
X92045874Y-60107817D01*
X92059674Y-60103652D01*
X92073813Y-60100043D01*
X92088289Y-60096989D01*
X92103103Y-60094491D01*
X92118254Y-60092547D01*
X92133744Y-60091159D01*
X92149571Y-60090326D01*
X92165736Y-60090048D01*
X92179159Y-60090230D01*
X92192316Y-60090773D01*
X92205209Y-60091680D01*
X92217836Y-60092949D01*
X92230198Y-60094580D01*
X92242294Y-60096574D01*
X92254126Y-60098931D01*
X92265692Y-60101650D01*
X92276993Y-60104732D01*
X92288029Y-60108176D01*
X92298799Y-60111983D01*
X92309305Y-60116152D01*
X92319545Y-60120684D01*
X92329520Y-60125578D01*
X92339229Y-60130835D01*
X92348674Y-60136454D01*
X92352887Y-60127064D01*
X92357802Y-60117605D01*
X92363420Y-60108770D01*
X92370442Y-60100689D01*
X92371144Y-60100062D01*
X92380051Y-60094361D01*
X92390203Y-60091232D01*
X92401011Y-60090087D01*
X92403628Y-60090048D01*
G37*
G36*
X93217445Y-60716043D02*
G01*
X93217720Y-60704656D01*
X93218545Y-60694004D01*
X93219918Y-60684086D01*
X93223010Y-60670587D01*
X93227337Y-60658741D01*
X93232901Y-60648548D01*
X93239702Y-60640008D01*
X93247739Y-60633121D01*
X93257013Y-60627886D01*
X93267523Y-60624305D01*
X93279269Y-60622377D01*
X93287787Y-60622009D01*
X93300358Y-60622836D01*
X93311693Y-60625315D01*
X93321791Y-60629447D01*
X93330652Y-60635233D01*
X93338277Y-60642671D01*
X93344665Y-60651762D01*
X93349817Y-60662506D01*
X93353733Y-60674903D01*
X93356412Y-60688953D01*
X93357511Y-60699238D01*
X93358061Y-60710258D01*
X93358129Y-60716043D01*
X93358129Y-60930000D01*
X92695498Y-60930000D01*
X92684259Y-60929725D01*
X92673746Y-60928900D01*
X92663957Y-60927527D01*
X92650633Y-60924435D01*
X92638941Y-60920108D01*
X92628880Y-60914544D01*
X92620451Y-60907743D01*
X92613653Y-60899706D01*
X92608487Y-60890432D01*
X92604952Y-60879922D01*
X92603049Y-60868176D01*
X92602686Y-60859658D01*
X92603502Y-60847087D01*
X92605949Y-60835752D01*
X92610028Y-60825654D01*
X92615738Y-60816793D01*
X92623079Y-60809168D01*
X92632053Y-60802780D01*
X92642657Y-60797628D01*
X92654893Y-60793712D01*
X92668761Y-60791033D01*
X92678912Y-60789934D01*
X92689788Y-60789384D01*
X92695498Y-60789316D01*
X92716503Y-60789316D01*
X92716503Y-60250516D01*
X92695498Y-60250516D01*
X92684259Y-60250241D01*
X92673746Y-60249417D01*
X92663957Y-60248043D01*
X92650633Y-60244952D01*
X92638941Y-60240624D01*
X92628880Y-60235060D01*
X92620451Y-60228259D01*
X92613653Y-60220222D01*
X92608487Y-60210949D01*
X92604952Y-60200438D01*
X92603049Y-60188692D01*
X92602686Y-60180174D01*
X92603060Y-60170385D01*
X92604580Y-60159298D01*
X92607268Y-60149486D01*
X92612036Y-60139397D01*
X92618488Y-60131145D01*
X92626622Y-60124731D01*
X92636336Y-60119668D01*
X92645560Y-60116248D01*
X92655809Y-60113557D01*
X92667084Y-60111593D01*
X92676842Y-60110545D01*
X92687257Y-60109963D01*
X92695498Y-60109832D01*
X93327110Y-60109832D01*
X93327110Y-60320858D01*
X93326836Y-60332274D01*
X93326011Y-60342954D01*
X93324637Y-60352898D01*
X93321546Y-60366432D01*
X93317219Y-60378308D01*
X93311654Y-60388528D01*
X93304854Y-60397090D01*
X93296817Y-60403995D01*
X93287543Y-60409243D01*
X93277033Y-60412834D01*
X93265286Y-60414767D01*
X93256769Y-60415136D01*
X93244198Y-60414307D01*
X93232863Y-60411821D01*
X93222765Y-60407678D01*
X93213904Y-60401878D01*
X93206279Y-60394420D01*
X93199890Y-60385306D01*
X93194738Y-60374534D01*
X93190823Y-60362104D01*
X93188144Y-60348018D01*
X93187045Y-60337706D01*
X93186495Y-60326658D01*
X93186427Y-60320858D01*
X93186427Y-60250516D01*
X92857187Y-60250516D01*
X92857187Y-60448841D01*
X92976866Y-60448841D01*
X92976866Y-60439071D01*
X92977135Y-60427655D01*
X92977942Y-60416975D01*
X92979288Y-60407032D01*
X92982314Y-60393498D01*
X92986552Y-60381621D01*
X92992000Y-60371401D01*
X92998659Y-60362839D01*
X93006529Y-60355934D01*
X93015609Y-60350686D01*
X93025900Y-60347095D01*
X93037402Y-60345162D01*
X93045743Y-60344794D01*
X93058314Y-60345622D01*
X93069648Y-60348108D01*
X93079746Y-60352251D01*
X93088607Y-60358051D01*
X93096232Y-60365509D01*
X93102621Y-60374624D01*
X93107773Y-60385396D01*
X93111688Y-60397825D01*
X93114367Y-60411911D01*
X93115466Y-60422223D01*
X93116016Y-60433271D01*
X93116085Y-60439071D01*
X93116085Y-60598073D01*
X93115816Y-60609312D01*
X93115008Y-60619826D01*
X93113663Y-60629615D01*
X93110636Y-60642939D01*
X93106399Y-60654631D01*
X93100951Y-60664692D01*
X93094292Y-60673121D01*
X93086422Y-60679919D01*
X93077342Y-60685085D01*
X93067050Y-60688620D01*
X93055549Y-60690523D01*
X93047208Y-60690886D01*
X93034637Y-60690070D01*
X93023303Y-60687623D01*
X93013205Y-60683544D01*
X93004344Y-60677834D01*
X92996719Y-60670492D01*
X92990330Y-60661519D01*
X92985178Y-60650915D01*
X92981263Y-60638679D01*
X92978584Y-60624811D01*
X92977484Y-60614660D01*
X92976935Y-60603784D01*
X92976866Y-60598073D01*
X92976866Y-60588060D01*
X92857187Y-60588060D01*
X92857187Y-60789316D01*
X93217445Y-60789316D01*
X93217445Y-60716043D01*
G37*
G36*
X94163642Y-60109832D02*
G01*
X94174881Y-60110107D01*
X94185395Y-60110931D01*
X94195184Y-60112305D01*
X94208508Y-60115396D01*
X94220200Y-60119724D01*
X94230260Y-60125288D01*
X94238690Y-60132089D01*
X94245487Y-60140126D01*
X94250654Y-60149399D01*
X94254189Y-60159909D01*
X94256092Y-60171656D01*
X94256454Y-60180174D01*
X94255701Y-60192745D01*
X94253441Y-60204079D01*
X94249673Y-60214177D01*
X94244399Y-60223039D01*
X94237617Y-60230664D01*
X94229329Y-60237052D01*
X94219534Y-60242204D01*
X94208232Y-60246120D01*
X94195423Y-60248799D01*
X94181107Y-60250241D01*
X94170725Y-60250516D01*
X94170725Y-60930000D01*
X94031263Y-60930000D01*
X93666852Y-60375812D01*
X93666852Y-60789316D01*
X93716189Y-60789316D01*
X93727096Y-60789548D01*
X93737347Y-60790247D01*
X93749237Y-60791775D01*
X93760102Y-60794030D01*
X93769940Y-60797012D01*
X93780393Y-60801552D01*
X93785066Y-60804214D01*
X93793200Y-60810629D01*
X93799652Y-60818880D01*
X93804420Y-60828970D01*
X93807108Y-60838781D01*
X93808628Y-60849869D01*
X93809002Y-60859658D01*
X93808186Y-60872228D01*
X93805739Y-60883563D01*
X93801660Y-60893661D01*
X93795950Y-60902522D01*
X93788608Y-60910147D01*
X93779635Y-60916536D01*
X93769031Y-60921688D01*
X93756795Y-60925603D01*
X93742927Y-60928282D01*
X93732776Y-60929381D01*
X93721899Y-60929931D01*
X93716189Y-60930000D01*
X93534717Y-60930000D01*
X93523300Y-60929725D01*
X93512621Y-60928900D01*
X93502677Y-60927527D01*
X93489143Y-60924435D01*
X93477266Y-60920108D01*
X93467047Y-60914544D01*
X93458484Y-60907743D01*
X93451579Y-60899706D01*
X93446331Y-60890432D01*
X93442741Y-60879922D01*
X93440807Y-60868176D01*
X93440439Y-60859658D01*
X93441193Y-60847087D01*
X93443453Y-60835752D01*
X93447220Y-60825654D01*
X93452495Y-60816793D01*
X93459276Y-60809168D01*
X93467564Y-60802780D01*
X93477360Y-60797628D01*
X93488662Y-60793712D01*
X93501471Y-60791033D01*
X93515787Y-60789590D01*
X93526168Y-60789316D01*
X93526168Y-60250516D01*
X93505163Y-60250516D01*
X93493925Y-60250241D01*
X93483411Y-60249417D01*
X93473622Y-60248043D01*
X93460298Y-60244952D01*
X93448606Y-60240624D01*
X93438545Y-60235060D01*
X93430116Y-60228259D01*
X93423318Y-60220222D01*
X93418152Y-60210949D01*
X93414617Y-60200438D01*
X93412714Y-60188692D01*
X93412351Y-60180174D01*
X93412725Y-60170385D01*
X93414245Y-60159298D01*
X93416933Y-60149486D01*
X93421701Y-60139397D01*
X93428153Y-60131145D01*
X93436287Y-60124731D01*
X93446001Y-60119668D01*
X93455225Y-60116248D01*
X93465474Y-60113557D01*
X93476749Y-60111593D01*
X93486507Y-60110545D01*
X93496922Y-60109963D01*
X93505163Y-60109832D01*
X93666852Y-60109832D01*
X94030041Y-60661332D01*
X94030041Y-60250516D01*
X93980704Y-60250516D01*
X93969465Y-60250241D01*
X93958951Y-60249417D01*
X93949163Y-60248043D01*
X93935839Y-60244952D01*
X93924147Y-60240624D01*
X93914086Y-60235060D01*
X93905657Y-60228259D01*
X93898859Y-60220222D01*
X93893693Y-60210949D01*
X93890158Y-60200438D01*
X93888255Y-60188692D01*
X93887892Y-60180174D01*
X93888266Y-60170385D01*
X93889785Y-60159298D01*
X93892473Y-60149486D01*
X93897242Y-60139397D01*
X93903693Y-60131145D01*
X93911828Y-60124731D01*
X93921542Y-60119668D01*
X93930766Y-60116248D01*
X93941015Y-60113557D01*
X93952290Y-60111593D01*
X93962048Y-60110545D01*
X93972463Y-60109963D01*
X93980704Y-60109832D01*
X94163642Y-60109832D01*
G37*
G36*
X94921284Y-60090048D02*
G01*
X94931339Y-60090422D01*
X94942654Y-60091942D01*
X94952572Y-60094630D01*
X94962633Y-60099398D01*
X94970684Y-60105850D01*
X94976727Y-60113984D01*
X94981292Y-60123699D01*
X94984913Y-60134890D01*
X94987208Y-60145344D01*
X94988848Y-60156824D01*
X94989688Y-60166746D01*
X94990108Y-60177325D01*
X94990160Y-60182861D01*
X94990160Y-60306692D01*
X94989891Y-60318108D01*
X94989084Y-60328788D01*
X94987739Y-60338731D01*
X94984712Y-60352265D01*
X94980474Y-60364142D01*
X94975026Y-60374362D01*
X94968367Y-60382924D01*
X94960497Y-60389829D01*
X94951417Y-60395077D01*
X94941126Y-60398668D01*
X94929624Y-60400601D01*
X94921284Y-60400969D01*
X94911180Y-60400540D01*
X94901349Y-60399136D01*
X94900767Y-60399016D01*
X94890983Y-60395975D01*
X94885380Y-60393398D01*
X94877361Y-60387432D01*
X94873412Y-60383384D01*
X94866958Y-60375691D01*
X94864863Y-60372882D01*
X94860516Y-60363860D01*
X94859246Y-60360425D01*
X94856393Y-60350786D01*
X94855826Y-60348457D01*
X94853547Y-60338450D01*
X94852896Y-60335757D01*
X94851035Y-60326025D01*
X94850942Y-60325010D01*
X94847881Y-60314702D01*
X94843706Y-60304906D01*
X94838417Y-60295621D01*
X94832013Y-60286847D01*
X94824495Y-60278585D01*
X94815862Y-60270834D01*
X94806115Y-60263594D01*
X94795254Y-60256866D01*
X94786510Y-60252196D01*
X94777405Y-60247985D01*
X94767940Y-60244233D01*
X94758114Y-60240941D01*
X94747927Y-60238108D01*
X94737380Y-60235734D01*
X94726472Y-60233820D01*
X94715204Y-60232366D01*
X94703574Y-60231370D01*
X94691585Y-60230834D01*
X94683391Y-60230732D01*
X94671196Y-60231005D01*
X94659340Y-60231823D01*
X94647823Y-60233186D01*
X94636645Y-60235094D01*
X94625807Y-60237548D01*
X94615307Y-60240547D01*
X94605147Y-60244091D01*
X94595326Y-60248180D01*
X94585844Y-60252815D01*
X94576702Y-60257995D01*
X94570795Y-60261751D01*
X94562502Y-60267689D01*
X94552713Y-60275988D01*
X94544374Y-60284722D01*
X94537486Y-60293890D01*
X94532048Y-60303494D01*
X94528060Y-60313533D01*
X94525522Y-60324007D01*
X94524434Y-60334915D01*
X94524389Y-60337711D01*
X94525114Y-60349339D01*
X94527289Y-60360288D01*
X94530915Y-60370557D01*
X94535990Y-60380148D01*
X94542516Y-60389059D01*
X94550492Y-60397291D01*
X94559919Y-60404843D01*
X94570795Y-60411716D01*
X94579675Y-60416412D01*
X94588821Y-60420789D01*
X94598234Y-60424849D01*
X94607912Y-60428592D01*
X94617857Y-60432016D01*
X94628068Y-60435123D01*
X94638545Y-60437913D01*
X94649289Y-60440384D01*
X94660298Y-60442538D01*
X94671574Y-60444374D01*
X94679239Y-60445422D01*
X94690950Y-60446955D01*
X94702909Y-60448716D01*
X94715118Y-60450705D01*
X94727576Y-60452921D01*
X94740283Y-60455364D01*
X94753239Y-60458035D01*
X94766444Y-60460934D01*
X94779897Y-60464060D01*
X94793600Y-60467414D01*
X94807552Y-60470996D01*
X94816992Y-60473510D01*
X94830951Y-60477442D01*
X94844343Y-60481635D01*
X94857169Y-60486091D01*
X94869428Y-60490809D01*
X94881120Y-60495788D01*
X94892245Y-60501030D01*
X94902804Y-60506533D01*
X94912796Y-60512298D01*
X94922221Y-60518326D01*
X94931080Y-60524615D01*
X94936671Y-60528953D01*
X94946727Y-60537397D01*
X94956134Y-60546183D01*
X94964892Y-60555311D01*
X94973002Y-60564780D01*
X94980463Y-60574591D01*
X94987275Y-60584743D01*
X94993438Y-60595237D01*
X94998953Y-60606072D01*
X95003819Y-60617249D01*
X95008036Y-60628768D01*
X95011604Y-60640628D01*
X95014523Y-60652830D01*
X95016794Y-60665373D01*
X95018416Y-60678258D01*
X95019389Y-60691484D01*
X95019713Y-60705052D01*
X95019367Y-60718596D01*
X95018328Y-60731812D01*
X95016596Y-60744699D01*
X95014172Y-60757259D01*
X95011055Y-60769490D01*
X95007246Y-60781393D01*
X95002743Y-60792968D01*
X94997548Y-60804214D01*
X94991661Y-60815133D01*
X94985081Y-60825723D01*
X94977808Y-60835985D01*
X94969842Y-60845919D01*
X94961184Y-60855525D01*
X94951833Y-60864802D01*
X94941789Y-60873751D01*
X94931053Y-60882372D01*
X94919751Y-60890535D01*
X94908010Y-60898172D01*
X94895831Y-60905281D01*
X94883212Y-60911864D01*
X94870155Y-60917921D01*
X94856658Y-60923451D01*
X94842723Y-60928454D01*
X94828349Y-60932930D01*
X94813536Y-60936880D01*
X94798284Y-60940303D01*
X94782594Y-60943200D01*
X94766464Y-60945570D01*
X94749896Y-60947413D01*
X94732888Y-60948730D01*
X94715442Y-60949520D01*
X94697557Y-60949783D01*
X94683018Y-60949569D01*
X94668588Y-60948925D01*
X94654266Y-60947851D01*
X94640053Y-60946349D01*
X94625949Y-60944417D01*
X94611954Y-60942055D01*
X94598067Y-60939265D01*
X94584289Y-60936045D01*
X94570620Y-60932395D01*
X94557060Y-60928317D01*
X94543609Y-60923809D01*
X94530266Y-60918871D01*
X94517032Y-60913505D01*
X94503907Y-60907709D01*
X94490890Y-60901483D01*
X94477983Y-60894829D01*
X94470961Y-60902728D01*
X94463939Y-60909575D01*
X94455161Y-60916652D01*
X94446384Y-60922083D01*
X94435851Y-60926427D01*
X94425318Y-60928402D01*
X94421807Y-60928534D01*
X94408974Y-60927718D01*
X94397404Y-60925271D01*
X94387095Y-60921192D01*
X94378049Y-60915482D01*
X94370265Y-60908141D01*
X94363744Y-60899168D01*
X94358485Y-60888563D01*
X94354487Y-60876327D01*
X94351753Y-60862460D01*
X94350631Y-60852308D01*
X94350070Y-60841432D01*
X94350000Y-60835722D01*
X94350000Y-60742909D01*
X94350240Y-60731670D01*
X94350961Y-60721157D01*
X94352163Y-60711368D01*
X94354342Y-60700151D01*
X94357272Y-60690068D01*
X94361780Y-60679464D01*
X94365387Y-60673300D01*
X94372082Y-60665415D01*
X94380442Y-60659161D01*
X94390468Y-60654538D01*
X94400096Y-60651933D01*
X94410881Y-60650460D01*
X94420341Y-60650097D01*
X94430298Y-60650581D01*
X94440209Y-60652184D01*
X94443545Y-60653028D01*
X94453192Y-60656448D01*
X94461130Y-60661332D01*
X94468766Y-60667745D01*
X94473098Y-60671835D01*
X94478878Y-60679824D01*
X94481402Y-60685268D01*
X94485264Y-60694485D01*
X94486531Y-60697969D01*
X94489470Y-60707479D01*
X94489951Y-60709204D01*
X94492149Y-60717508D01*
X94495339Y-60726858D01*
X94500026Y-60735857D01*
X94506208Y-60744505D01*
X94513886Y-60752801D01*
X94523061Y-60760747D01*
X94533731Y-60768341D01*
X94542716Y-60773807D01*
X94552542Y-60779075D01*
X94559560Y-60782477D01*
X94570523Y-60787235D01*
X94581705Y-60791524D01*
X94593106Y-60795346D01*
X94604726Y-60798700D01*
X94616565Y-60801586D01*
X94628622Y-60804004D01*
X94640899Y-60805953D01*
X94653395Y-60807435D01*
X94666110Y-60808449D01*
X94679043Y-60808995D01*
X94687787Y-60809099D01*
X94702312Y-60808827D01*
X94716395Y-60808009D01*
X94730036Y-60806646D01*
X94743234Y-60804737D01*
X94755991Y-60802284D01*
X94768304Y-60799285D01*
X94780176Y-60795741D01*
X94791606Y-60791651D01*
X94802593Y-60787017D01*
X94813138Y-60781837D01*
X94819923Y-60778080D01*
X94829482Y-60772142D01*
X94838101Y-60765959D01*
X94845779Y-60759531D01*
X94854555Y-60750580D01*
X94861659Y-60741194D01*
X94867091Y-60731373D01*
X94870852Y-60721116D01*
X94872942Y-60710425D01*
X94873412Y-60702121D01*
X94872763Y-60691825D01*
X94870817Y-60682062D01*
X94867573Y-60672835D01*
X94863032Y-60664141D01*
X94857193Y-60655982D01*
X94850056Y-60648357D01*
X94841622Y-60641266D01*
X94831891Y-60634710D01*
X94821312Y-60628627D01*
X94810336Y-60623078D01*
X94798964Y-60618063D01*
X94787194Y-60613583D01*
X94775028Y-60609637D01*
X94762465Y-60606225D01*
X94752782Y-60604017D01*
X94742876Y-60602109D01*
X94736147Y-60601004D01*
X94725820Y-60599329D01*
X94715170Y-60597507D01*
X94704199Y-60595539D01*
X94692905Y-60593425D01*
X94681289Y-60591166D01*
X94669352Y-60588760D01*
X94657092Y-60586208D01*
X94644511Y-60583510D01*
X94631607Y-60580667D01*
X94618381Y-60577677D01*
X94609385Y-60575603D01*
X94596083Y-60572337D01*
X94583288Y-60568951D01*
X94570999Y-60565445D01*
X94559216Y-60561819D01*
X94547941Y-60558072D01*
X94537172Y-60554205D01*
X94526909Y-60550218D01*
X94517153Y-60546111D01*
X94507904Y-60541883D01*
X94496360Y-60536060D01*
X94493614Y-60534570D01*
X94483783Y-60528613D01*
X94474346Y-60522283D01*
X94465304Y-60515579D01*
X94456657Y-60508501D01*
X94448406Y-60501050D01*
X94440549Y-60493226D01*
X94433087Y-60485027D01*
X94426020Y-60476456D01*
X94419348Y-60467511D01*
X94413071Y-60458192D01*
X94409106Y-60451772D01*
X94403563Y-60441901D01*
X94398565Y-60431888D01*
X94394112Y-60421734D01*
X94390204Y-60411438D01*
X94386842Y-60401000D01*
X94384025Y-60390420D01*
X94381753Y-60379699D01*
X94380026Y-60368836D01*
X94378845Y-60357832D01*
X94378209Y-60346686D01*
X94378087Y-60339176D01*
X94378428Y-60325944D01*
X94379450Y-60312992D01*
X94381153Y-60300321D01*
X94383537Y-60287931D01*
X94386603Y-60275821D01*
X94390349Y-60263991D01*
X94394777Y-60252442D01*
X94399886Y-60241174D01*
X94405676Y-60230186D01*
X94412148Y-60219478D01*
X94419301Y-60209051D01*
X94427134Y-60198904D01*
X94435650Y-60189038D01*
X94444846Y-60179453D01*
X94454723Y-60170148D01*
X94465282Y-60161123D01*
X94476381Y-60152516D01*
X94487817Y-60144465D01*
X94499592Y-60136969D01*
X94511704Y-60130028D01*
X94524153Y-60123642D01*
X94536941Y-60117812D01*
X94550066Y-60112537D01*
X94563529Y-60107817D01*
X94577329Y-60103652D01*
X94591468Y-60100043D01*
X94605944Y-60096989D01*
X94620758Y-60094491D01*
X94635910Y-60092547D01*
X94651399Y-60091159D01*
X94667226Y-60090326D01*
X94683391Y-60090048D01*
X94696814Y-60090230D01*
X94709971Y-60090773D01*
X94722864Y-60091680D01*
X94735491Y-60092949D01*
X94747853Y-60094580D01*
X94759950Y-60096574D01*
X94771781Y-60098931D01*
X94783347Y-60101650D01*
X94794648Y-60104732D01*
X94805684Y-60108176D01*
X94816455Y-60111983D01*
X94826960Y-60116152D01*
X94837200Y-60120684D01*
X94847175Y-60125578D01*
X94856885Y-60130835D01*
X94866329Y-60136454D01*
X94870542Y-60127064D01*
X94875457Y-60117605D01*
X94881075Y-60108770D01*
X94888097Y-60100689D01*
X94888799Y-60100062D01*
X94897707Y-60094361D01*
X94907858Y-60091232D01*
X94918666Y-60090087D01*
X94921284Y-60090048D01*
G37*
G36*
X96449023Y-60859658D02*
G01*
X96449397Y-60849869D01*
X96450916Y-60838781D01*
X96453604Y-60828970D01*
X96458372Y-60818880D01*
X96464824Y-60810629D01*
X96472958Y-60804214D01*
X96482681Y-60799151D01*
X96491925Y-60795732D01*
X96502206Y-60793040D01*
X96513525Y-60791076D01*
X96523327Y-60790029D01*
X96533794Y-60789447D01*
X96542079Y-60789316D01*
X96591172Y-60789316D01*
X96591172Y-60382651D01*
X96435101Y-60737292D01*
X96307117Y-60737292D01*
X96141032Y-60384117D01*
X96141032Y-60789316D01*
X96190369Y-60789316D01*
X96201608Y-60789548D01*
X96212122Y-60790247D01*
X96221911Y-60791411D01*
X96233127Y-60793520D01*
X96243211Y-60796358D01*
X96253815Y-60800723D01*
X96259979Y-60804214D01*
X96267864Y-60810629D01*
X96274118Y-60818880D01*
X96278740Y-60828970D01*
X96281346Y-60838781D01*
X96282819Y-60849869D01*
X96283182Y-60859658D01*
X96282366Y-60872228D01*
X96279919Y-60883563D01*
X96275840Y-60893661D01*
X96270130Y-60902522D01*
X96262788Y-60910147D01*
X96253815Y-60916536D01*
X96243211Y-60921688D01*
X96230975Y-60925603D01*
X96217107Y-60928282D01*
X96206956Y-60929381D01*
X96196079Y-60929931D01*
X96190369Y-60930000D01*
X96008653Y-60930000D01*
X95997266Y-60929725D01*
X95986614Y-60928900D01*
X95976696Y-60927527D01*
X95963197Y-60924435D01*
X95951351Y-60920108D01*
X95941158Y-60914544D01*
X95932618Y-60907743D01*
X95925731Y-60899706D01*
X95920496Y-60890432D01*
X95916915Y-60879922D01*
X95914986Y-60868176D01*
X95914619Y-60859658D01*
X95915373Y-60847087D01*
X95917633Y-60835752D01*
X95921400Y-60825654D01*
X95926675Y-60816793D01*
X95933456Y-60809168D01*
X95941744Y-60802780D01*
X95951540Y-60797628D01*
X95962842Y-60793712D01*
X95975651Y-60791033D01*
X95989967Y-60789590D01*
X96000348Y-60789316D01*
X96000348Y-60251981D01*
X95987254Y-60250147D01*
X95975447Y-60247299D01*
X95964928Y-60243438D01*
X95955698Y-60238563D01*
X95947755Y-60232676D01*
X95939168Y-60223249D01*
X95932872Y-60212022D01*
X95929652Y-60202419D01*
X95927720Y-60191803D01*
X95927076Y-60180174D01*
X95927771Y-60169890D01*
X95929858Y-60160104D01*
X95933335Y-60150816D01*
X95938204Y-60142026D01*
X95944464Y-60133734D01*
X95946859Y-60131081D01*
X95955266Y-60123860D01*
X95963779Y-60118983D01*
X95973665Y-60115144D01*
X95984922Y-60112343D01*
X95994915Y-60110849D01*
X96005785Y-60110019D01*
X96014515Y-60109832D01*
X96173272Y-60109832D01*
X96367445Y-60528953D01*
X96557466Y-60109832D01*
X96712072Y-60109832D01*
X96723341Y-60110107D01*
X96733882Y-60110931D01*
X96743697Y-60112305D01*
X96757055Y-60115396D01*
X96768778Y-60119724D01*
X96778866Y-60125288D01*
X96787317Y-60132089D01*
X96794133Y-60140126D01*
X96799313Y-60149399D01*
X96802857Y-60159909D01*
X96804765Y-60171656D01*
X96805129Y-60180174D01*
X96804485Y-60191541D01*
X96802553Y-60201921D01*
X96799333Y-60211313D01*
X96793036Y-60222301D01*
X96784449Y-60231532D01*
X96776506Y-60237304D01*
X96767276Y-60242088D01*
X96756757Y-60245885D01*
X96744950Y-60248694D01*
X96731856Y-60250516D01*
X96731856Y-60789316D01*
X96742237Y-60789590D01*
X96756553Y-60791033D01*
X96769362Y-60793712D01*
X96780664Y-60797628D01*
X96790460Y-60802780D01*
X96798748Y-60809168D01*
X96805529Y-60816793D01*
X96810804Y-60825654D01*
X96814571Y-60835752D01*
X96816832Y-60847087D01*
X96817585Y-60859658D01*
X96816769Y-60872228D01*
X96814322Y-60883563D01*
X96810243Y-60893661D01*
X96804533Y-60902522D01*
X96797192Y-60910147D01*
X96788219Y-60916536D01*
X96777614Y-60921688D01*
X96765378Y-60925603D01*
X96751511Y-60928282D01*
X96741359Y-60929381D01*
X96730483Y-60929931D01*
X96724773Y-60930000D01*
X96542079Y-60930000D01*
X96530810Y-60929725D01*
X96520269Y-60928900D01*
X96510454Y-60927527D01*
X96497096Y-60924435D01*
X96485373Y-60920108D01*
X96475286Y-60914544D01*
X96466834Y-60907743D01*
X96460018Y-60899706D01*
X96454839Y-60890432D01*
X96451294Y-60879922D01*
X96449386Y-60868176D01*
X96449023Y-60859658D01*
G37*
G36*
X97102616Y-60109832D02*
G01*
X97113855Y-60110107D01*
X97124369Y-60110931D01*
X97134158Y-60112305D01*
X97147482Y-60115396D01*
X97159174Y-60119724D01*
X97169235Y-60125288D01*
X97177664Y-60132089D01*
X97184462Y-60140126D01*
X97189628Y-60149399D01*
X97193163Y-60159909D01*
X97195066Y-60171656D01*
X97195429Y-60180174D01*
X97194613Y-60192745D01*
X97192166Y-60204079D01*
X97188087Y-60214177D01*
X97182377Y-60223039D01*
X97175035Y-60230664D01*
X97166062Y-60237052D01*
X97155458Y-60242204D01*
X97143222Y-60246120D01*
X97129354Y-60248799D01*
X97119203Y-60249898D01*
X97108327Y-60250447D01*
X97102616Y-60250516D01*
X97053279Y-60250516D01*
X97053279Y-60460076D01*
X97303872Y-60244898D01*
X97293626Y-60240223D01*
X97284745Y-60234625D01*
X97277231Y-60228103D01*
X97269759Y-60218652D01*
X97264423Y-60207757D01*
X97261690Y-60198003D01*
X97260324Y-60187325D01*
X97260153Y-60181639D01*
X97260969Y-60168807D01*
X97263416Y-60157236D01*
X97267495Y-60146928D01*
X97273205Y-60137882D01*
X97280546Y-60130098D01*
X97289519Y-60123576D01*
X97300124Y-60118317D01*
X97312360Y-60114320D01*
X97326227Y-60111585D01*
X97336379Y-60110463D01*
X97347255Y-60109902D01*
X97352965Y-60109832D01*
X97493649Y-60109832D01*
X97504888Y-60110107D01*
X97515402Y-60110931D01*
X97525191Y-60112305D01*
X97538514Y-60115396D01*
X97550207Y-60119724D01*
X97560267Y-60125288D01*
X97568697Y-60132089D01*
X97575494Y-60140126D01*
X97580661Y-60149399D01*
X97584196Y-60159909D01*
X97586099Y-60171656D01*
X97586461Y-60180174D01*
X97585695Y-60192745D01*
X97583396Y-60204079D01*
X97579564Y-60214177D01*
X97574200Y-60223039D01*
X97567302Y-60230664D01*
X97558873Y-60237052D01*
X97548910Y-60242204D01*
X97537414Y-60246120D01*
X97524386Y-60248799D01*
X97509826Y-60250241D01*
X97499267Y-60250516D01*
X97251849Y-60465694D01*
X97268748Y-60475373D01*
X97277096Y-60480740D01*
X97285375Y-60486458D01*
X97293586Y-60492528D01*
X97301729Y-60498950D01*
X97309803Y-60505723D01*
X97317810Y-60512848D01*
X97325748Y-60520324D01*
X97333618Y-60528152D01*
X97341419Y-60536332D01*
X97349153Y-60544863D01*
X97356818Y-60553746D01*
X97364415Y-60562980D01*
X97371944Y-60572566D01*
X97379405Y-60582503D01*
X97386797Y-60592792D01*
X97394121Y-60603433D01*
X97401377Y-60614425D01*
X97408565Y-60625768D01*
X97415684Y-60637464D01*
X97422736Y-60649510D01*
X97429719Y-60661909D01*
X97436634Y-60674659D01*
X97443480Y-60687760D01*
X97450259Y-60701214D01*
X97456969Y-60715018D01*
X97463611Y-60729175D01*
X97470185Y-60743683D01*
X97476691Y-60758542D01*
X97483128Y-60773753D01*
X97489497Y-60789316D01*
X97534438Y-60789316D01*
X97545706Y-60789590D01*
X97556248Y-60790415D01*
X97566062Y-60791789D01*
X97579421Y-60794880D01*
X97591144Y-60799207D01*
X97601231Y-60804772D01*
X97609683Y-60811572D01*
X97616498Y-60819609D01*
X97621678Y-60828883D01*
X97625222Y-60839393D01*
X97627131Y-60851140D01*
X97627494Y-60859658D01*
X97626676Y-60872228D01*
X97624223Y-60883563D01*
X97620133Y-60893661D01*
X97614408Y-60902522D01*
X97607047Y-60910147D01*
X97598051Y-60916536D01*
X97587418Y-60921688D01*
X97575150Y-60925603D01*
X97561246Y-60928282D01*
X97551068Y-60929381D01*
X97540163Y-60929931D01*
X97534438Y-60930000D01*
X97379832Y-60930000D01*
X97376734Y-60920648D01*
X97370453Y-60902260D01*
X97364056Y-60884289D01*
X97357546Y-60866736D01*
X97350921Y-60849600D01*
X97344181Y-60832883D01*
X97337327Y-60816584D01*
X97330359Y-60800702D01*
X97323275Y-60785239D01*
X97316078Y-60770193D01*
X97308766Y-60755565D01*
X97301339Y-60741355D01*
X97293798Y-60727563D01*
X97286143Y-60714189D01*
X97278373Y-60701232D01*
X97270489Y-60688694D01*
X97266503Y-60682581D01*
X97258502Y-60670733D01*
X97250494Y-60659489D01*
X97242481Y-60648850D01*
X97234462Y-60638816D01*
X97226437Y-60629387D01*
X97218407Y-60620563D01*
X97210370Y-60612344D01*
X97202329Y-60604729D01*
X97194281Y-60597720D01*
X97186228Y-60591315D01*
X97178169Y-60585515D01*
X97166069Y-60577949D01*
X97153957Y-60571745D01*
X97141832Y-60566901D01*
X97137787Y-60565589D01*
X97053279Y-60637397D01*
X97053279Y-60789316D01*
X97102616Y-60789316D01*
X97113855Y-60789590D01*
X97124369Y-60790415D01*
X97134158Y-60791789D01*
X97147482Y-60794880D01*
X97159174Y-60799207D01*
X97169235Y-60804772D01*
X97177664Y-60811572D01*
X97184462Y-60819609D01*
X97189628Y-60828883D01*
X97193163Y-60839393D01*
X97195066Y-60851140D01*
X97195429Y-60859658D01*
X97194613Y-60872228D01*
X97192166Y-60883563D01*
X97188087Y-60893661D01*
X97182377Y-60902522D01*
X97175035Y-60910147D01*
X97166062Y-60916536D01*
X97155458Y-60921688D01*
X97143222Y-60925603D01*
X97129354Y-60928282D01*
X97119203Y-60929381D01*
X97108327Y-60929931D01*
X97102616Y-60930000D01*
X96891591Y-60930000D01*
X96880352Y-60929725D01*
X96869838Y-60928900D01*
X96860049Y-60927527D01*
X96846725Y-60924435D01*
X96835033Y-60920108D01*
X96824972Y-60914544D01*
X96816543Y-60907743D01*
X96809745Y-60899706D01*
X96804579Y-60890432D01*
X96801044Y-60879922D01*
X96799141Y-60868176D01*
X96798778Y-60859658D01*
X96799594Y-60847087D01*
X96802041Y-60835752D01*
X96806120Y-60825654D01*
X96811830Y-60816793D01*
X96819172Y-60809168D01*
X96828145Y-60802780D01*
X96838749Y-60797628D01*
X96850985Y-60793712D01*
X96864853Y-60791033D01*
X96875004Y-60789934D01*
X96885880Y-60789384D01*
X96891591Y-60789316D01*
X96912595Y-60789316D01*
X96912595Y-60250516D01*
X96891591Y-60250516D01*
X96880352Y-60250241D01*
X96869838Y-60249417D01*
X96860049Y-60248043D01*
X96846725Y-60244952D01*
X96835033Y-60240624D01*
X96824972Y-60235060D01*
X96816543Y-60228259D01*
X96809745Y-60220222D01*
X96804579Y-60210949D01*
X96801044Y-60200438D01*
X96799141Y-60188692D01*
X96798778Y-60180174D01*
X96799152Y-60170385D01*
X96800672Y-60159298D01*
X96803360Y-60149486D01*
X96808128Y-60139397D01*
X96814580Y-60131145D01*
X96822714Y-60124731D01*
X96832428Y-60119668D01*
X96841652Y-60116248D01*
X96851901Y-60113557D01*
X96863176Y-60111593D01*
X96872934Y-60110545D01*
X96883349Y-60109963D01*
X96891591Y-60109832D01*
X97102616Y-60109832D01*
G37*
G36*
X97736427Y-60859658D02*
G01*
X97736801Y-60849869D01*
X97738320Y-60838781D01*
X97741008Y-60828970D01*
X97745776Y-60818880D01*
X97752228Y-60810629D01*
X97760362Y-60804214D01*
X97770077Y-60799151D01*
X97779300Y-60795732D01*
X97789549Y-60793040D01*
X97800824Y-60791076D01*
X97810582Y-60790029D01*
X97820997Y-60789447D01*
X97829239Y-60789316D01*
X97971388Y-60789316D01*
X97971388Y-60187257D01*
X97856106Y-60268834D01*
X97847605Y-60275059D01*
X97838039Y-60279997D01*
X97827409Y-60283646D01*
X97817737Y-60285703D01*
X97807326Y-60286866D01*
X97798464Y-60287152D01*
X97788296Y-60286416D01*
X97778736Y-60284207D01*
X97768554Y-60279879D01*
X97760296Y-60274515D01*
X97756943Y-60271765D01*
X97750091Y-60264459D01*
X97744321Y-60254964D01*
X97741075Y-60245654D01*
X97739512Y-60235409D01*
X97739357Y-60230732D01*
X97739968Y-60219986D01*
X97741800Y-60210216D01*
X97745320Y-60200393D01*
X97749127Y-60193607D01*
X97755743Y-60185072D01*
X97763506Y-60177226D01*
X97771750Y-60170160D01*
X97779896Y-60163955D01*
X97782833Y-60161856D01*
X97972854Y-60032407D01*
X98112072Y-60032407D01*
X98112072Y-60789316D01*
X98254221Y-60789316D01*
X98265460Y-60789590D01*
X98275974Y-60790415D01*
X98285763Y-60791789D01*
X98299087Y-60794880D01*
X98310779Y-60799207D01*
X98320840Y-60804772D01*
X98329269Y-60811572D01*
X98336067Y-60819609D01*
X98341233Y-60828883D01*
X98344768Y-60839393D01*
X98346671Y-60851140D01*
X98347034Y-60859658D01*
X98346218Y-60872228D01*
X98343771Y-60883563D01*
X98339692Y-60893661D01*
X98333982Y-60902522D01*
X98326640Y-60910147D01*
X98317667Y-60916536D01*
X98307063Y-60921688D01*
X98294827Y-60925603D01*
X98280959Y-60928282D01*
X98270808Y-60929381D01*
X98259932Y-60929931D01*
X98254221Y-60930000D01*
X97829239Y-60930000D01*
X97818000Y-60929725D01*
X97807486Y-60928900D01*
X97797697Y-60927527D01*
X97784374Y-60924435D01*
X97772681Y-60920108D01*
X97762621Y-60914544D01*
X97754191Y-60907743D01*
X97747394Y-60899706D01*
X97742227Y-60890432D01*
X97738693Y-60879922D01*
X97736789Y-60868176D01*
X97736427Y-60859658D01*
G37*
G36*
X98893649Y-60951004D02*
G01*
X98868248Y-60951004D01*
X98856668Y-60950337D01*
X98845589Y-60948333D01*
X98835010Y-60944994D01*
X98824933Y-60940319D01*
X98815356Y-60934308D01*
X98806281Y-60926962D01*
X98802791Y-60923649D01*
X98794910Y-60914844D01*
X98788365Y-60905527D01*
X98783156Y-60895696D01*
X98779282Y-60885353D01*
X98776745Y-60874497D01*
X98775543Y-60863128D01*
X98775436Y-60858436D01*
X98776103Y-60846792D01*
X98778107Y-60835672D01*
X98781446Y-60825077D01*
X98786121Y-60815007D01*
X98792132Y-60805461D01*
X98799478Y-60796441D01*
X98802791Y-60792979D01*
X98811666Y-60785028D01*
X98821042Y-60778425D01*
X98830919Y-60773169D01*
X98841297Y-60769261D01*
X98852176Y-60766700D01*
X98863556Y-60765488D01*
X98868248Y-60765380D01*
X98893649Y-60765380D01*
X98905628Y-60766036D01*
X98916986Y-60768004D01*
X98927724Y-60771283D01*
X98937842Y-60775875D01*
X98947340Y-60781778D01*
X98956217Y-60788993D01*
X98959595Y-60792247D01*
X98967335Y-60800882D01*
X98973763Y-60810150D01*
X98978879Y-60820049D01*
X98982683Y-60830581D01*
X98985176Y-60841745D01*
X98986357Y-60853541D01*
X98986461Y-60858436D01*
X98985806Y-60870415D01*
X98983838Y-60881773D01*
X98980558Y-60892511D01*
X98975967Y-60902629D01*
X98970063Y-60912127D01*
X98962848Y-60921004D01*
X98959595Y-60924382D01*
X98950965Y-60932051D01*
X98941715Y-60938421D01*
X98931846Y-60943491D01*
X98921355Y-60947261D01*
X98910245Y-60949730D01*
X98898515Y-60950900D01*
X98893649Y-60951004D01*
G37*
G36*
X99414863Y-60859658D02*
G01*
X99415237Y-60849869D01*
X99416757Y-60838781D01*
X99419445Y-60828970D01*
X99424213Y-60818880D01*
X99430665Y-60810629D01*
X99438799Y-60804214D01*
X99448514Y-60799151D01*
X99457737Y-60795732D01*
X99467986Y-60793040D01*
X99479261Y-60791076D01*
X99489019Y-60790029D01*
X99499434Y-60789447D01*
X99507676Y-60789316D01*
X99649825Y-60789316D01*
X99649825Y-60187257D01*
X99534542Y-60268834D01*
X99526042Y-60275059D01*
X99516476Y-60279997D01*
X99505846Y-60283646D01*
X99496174Y-60285703D01*
X99485763Y-60286866D01*
X99476901Y-60287152D01*
X99466733Y-60286416D01*
X99457173Y-60284207D01*
X99446991Y-60279879D01*
X99438733Y-60274515D01*
X99435380Y-60271765D01*
X99428528Y-60264459D01*
X99422757Y-60254964D01*
X99419512Y-60245654D01*
X99417949Y-60235409D01*
X99417794Y-60230732D01*
X99418405Y-60219986D01*
X99420237Y-60210216D01*
X99423757Y-60200393D01*
X99427564Y-60193607D01*
X99434180Y-60185072D01*
X99441942Y-60177226D01*
X99450187Y-60170160D01*
X99458333Y-60163955D01*
X99461270Y-60161856D01*
X99651290Y-60032407D01*
X99790509Y-60032407D01*
X99790509Y-60789316D01*
X99932658Y-60789316D01*
X99943897Y-60789590D01*
X99954411Y-60790415D01*
X99964200Y-60791789D01*
X99977524Y-60794880D01*
X99989216Y-60799207D01*
X99999276Y-60804772D01*
X100007706Y-60811572D01*
X100014503Y-60819609D01*
X100019670Y-60828883D01*
X100023205Y-60839393D01*
X100025108Y-60851140D01*
X100025471Y-60859658D01*
X100024655Y-60872228D01*
X100022208Y-60883563D01*
X100018129Y-60893661D01*
X100012419Y-60902522D01*
X100005077Y-60910147D01*
X99996104Y-60916536D01*
X99985500Y-60921688D01*
X99973264Y-60925603D01*
X99959396Y-60928282D01*
X99949245Y-60929381D01*
X99938368Y-60929931D01*
X99932658Y-60930000D01*
X99507676Y-60930000D01*
X99496437Y-60929725D01*
X99485923Y-60928900D01*
X99476134Y-60927527D01*
X99462810Y-60924435D01*
X99451118Y-60920108D01*
X99441058Y-60914544D01*
X99432628Y-60907743D01*
X99425830Y-60899706D01*
X99420664Y-60890432D01*
X99417129Y-60879922D01*
X99415226Y-60868176D01*
X99414863Y-60859658D01*
G37*
D11*
X103143332Y-40524819D02*
X102809999Y-40048628D01*
X102571904Y-40524819D02*
X102571904Y-39524819D01*
X102571904Y-39524819D02*
X102952856Y-39524819D01*
X102952856Y-39524819D02*
X103048094Y-39572438D01*
X103048094Y-39572438D02*
X103095713Y-39620057D01*
X103095713Y-39620057D02*
X103143332Y-39715295D01*
X103143332Y-39715295D02*
X103143332Y-39858152D01*
X103143332Y-39858152D02*
X103095713Y-39953390D01*
X103095713Y-39953390D02*
X103048094Y-40001009D01*
X103048094Y-40001009D02*
X102952856Y-40048628D01*
X102952856Y-40048628D02*
X102571904Y-40048628D01*
X104095713Y-40524819D02*
X103524285Y-40524819D01*
X103809999Y-40524819D02*
X103809999Y-39524819D01*
X103809999Y-39524819D02*
X103714761Y-39667676D01*
X103714761Y-39667676D02*
X103619523Y-39762914D01*
X103619523Y-39762914D02*
X103524285Y-39810533D01*
X115238095Y-62737318D02*
X115238095Y-61737318D01*
X115238095Y-62213508D02*
X115809523Y-62213508D01*
X115809523Y-62737318D02*
X115809523Y-61737318D01*
X116238095Y-61832556D02*
X116285714Y-61784937D01*
X116285714Y-61784937D02*
X116380952Y-61737318D01*
X116380952Y-61737318D02*
X116619047Y-61737318D01*
X116619047Y-61737318D02*
X116714285Y-61784937D01*
X116714285Y-61784937D02*
X116761904Y-61832556D01*
X116761904Y-61832556D02*
X116809523Y-61927794D01*
X116809523Y-61927794D02*
X116809523Y-62023032D01*
X116809523Y-62023032D02*
X116761904Y-62165889D01*
X116761904Y-62165889D02*
X116190476Y-62737318D01*
X116190476Y-62737318D02*
X116809523Y-62737318D01*
X87738095Y-62737318D02*
X87738095Y-61737318D01*
X87738095Y-62213508D02*
X88309523Y-62213508D01*
X88309523Y-62737318D02*
X88309523Y-61737318D01*
X89309523Y-62737318D02*
X88738095Y-62737318D01*
X89023809Y-62737318D02*
X89023809Y-61737318D01*
X89023809Y-61737318D02*
X88928571Y-61880175D01*
X88928571Y-61880175D02*
X88833333Y-61975413D01*
X88833333Y-61975413D02*
X88738095Y-62023032D01*
D12*
X103463640Y-39280000D02*
X103156358Y-39280000D01*
X103463640Y-38520000D02*
X103156358Y-38520000D01*
%LPC*%
D13*
X103819999Y-38900000D03*
X102799999Y-38900000D03*
D14*
X116000000Y-65982499D03*
X88500000Y-65982499D03*
D15*
X76100000Y-39587500D03*
D16*
X76100000Y-37047500D03*
X76100000Y-34507500D03*
D17*
X102160000Y-41800000D03*
X104700000Y-41800000D03*
X101525000Y-33595000D03*
X103425000Y-33595000D03*
X105325000Y-33595000D03*
%LPD*%
M02*
