%TF.GenerationSoftware,KiCad,Pcbnew,7.0.8-7.0.8~ubuntu22.04.1*%
%TF.CreationDate,2024-01-26T15:42:49+01:00*%
%TF.ProjectId,hand_B,68616e64-5f42-42e6-9b69-6361645f7063,rev?*%
%TF.SameCoordinates,Original*%
%TF.FileFunction,Drillmap*%
%TF.FilePolarity,Positive*%
%FSLAX45Y45*%
G04 Gerber Fmt 4.5, Leading zero omitted, Abs format (unit mm)*
G04 Created by KiCad (PCBNEW 7.0.8-7.0.8~ubuntu22.04.1) date 2024-01-26 15:42:49*
%MOMM*%
%LPD*%
G01*
G04 APERTURE LIST*
%ADD10C,0.100000*%
%ADD11C,0.200000*%
%ADD12C,0.076200*%
G04 APERTURE END LIST*
D10*
X7380000Y-3250750D02*
X12640000Y-3250750D01*
X12640000Y-6990750D01*
X7380000Y-6990750D01*
X7380000Y-3250750D01*
D11*
D12*
X10114400Y-3321400D02*
X10190600Y-3397600D01*
X10190600Y-3321400D02*
X10114400Y-3397600D01*
X10177900Y-4141900D02*
X10254100Y-4218100D01*
X10254100Y-4141900D02*
X10177900Y-4218100D01*
X10304400Y-3321400D02*
X10380600Y-3397600D01*
X10380600Y-3321400D02*
X10304400Y-3397600D01*
X10431900Y-4141900D02*
X10508100Y-4218100D01*
X10508100Y-4141900D02*
X10431900Y-4218100D01*
X10494400Y-3321400D02*
X10570600Y-3397600D01*
X10570600Y-3321400D02*
X10494400Y-3397600D01*
D10*
X7660000Y-3450750D02*
G75*
G03*
X7660000Y-3450750I-50000J0D01*
G01*
X7660000Y-3704750D02*
G75*
G03*
X7660000Y-3704750I-50000J0D01*
G01*
X7660000Y-3958750D02*
G75*
G03*
X7660000Y-3958750I-50000J0D01*
G01*
D11*
X7635777Y-7307234D02*
X7635777Y-7107234D01*
X7635777Y-7107234D02*
X7683396Y-7107234D01*
X7683396Y-7107234D02*
X7711967Y-7116758D01*
X7711967Y-7116758D02*
X7731015Y-7135805D01*
X7731015Y-7135805D02*
X7740539Y-7154853D01*
X7740539Y-7154853D02*
X7750062Y-7192948D01*
X7750062Y-7192948D02*
X7750062Y-7221519D01*
X7750062Y-7221519D02*
X7740539Y-7259615D01*
X7740539Y-7259615D02*
X7731015Y-7278662D01*
X7731015Y-7278662D02*
X7711967Y-7297710D01*
X7711967Y-7297710D02*
X7683396Y-7307234D01*
X7683396Y-7307234D02*
X7635777Y-7307234D01*
X7835777Y-7307234D02*
X7835777Y-7173900D01*
X7835777Y-7211996D02*
X7845301Y-7192948D01*
X7845301Y-7192948D02*
X7854824Y-7183424D01*
X7854824Y-7183424D02*
X7873872Y-7173900D01*
X7873872Y-7173900D02*
X7892920Y-7173900D01*
X7959586Y-7307234D02*
X7959586Y-7173900D01*
X7959586Y-7107234D02*
X7950062Y-7116758D01*
X7950062Y-7116758D02*
X7959586Y-7126281D01*
X7959586Y-7126281D02*
X7969110Y-7116758D01*
X7969110Y-7116758D02*
X7959586Y-7107234D01*
X7959586Y-7107234D02*
X7959586Y-7126281D01*
X8083396Y-7307234D02*
X8064348Y-7297710D01*
X8064348Y-7297710D02*
X8054824Y-7278662D01*
X8054824Y-7278662D02*
X8054824Y-7107234D01*
X8188158Y-7307234D02*
X8169110Y-7297710D01*
X8169110Y-7297710D02*
X8159586Y-7278662D01*
X8159586Y-7278662D02*
X8159586Y-7107234D01*
X8416729Y-7307234D02*
X8416729Y-7107234D01*
X8416729Y-7107234D02*
X8483396Y-7250091D01*
X8483396Y-7250091D02*
X8550063Y-7107234D01*
X8550063Y-7107234D02*
X8550063Y-7307234D01*
X8731015Y-7307234D02*
X8731015Y-7202472D01*
X8731015Y-7202472D02*
X8721491Y-7183424D01*
X8721491Y-7183424D02*
X8702444Y-7173900D01*
X8702444Y-7173900D02*
X8664348Y-7173900D01*
X8664348Y-7173900D02*
X8645301Y-7183424D01*
X8731015Y-7297710D02*
X8711967Y-7307234D01*
X8711967Y-7307234D02*
X8664348Y-7307234D01*
X8664348Y-7307234D02*
X8645301Y-7297710D01*
X8645301Y-7297710D02*
X8635777Y-7278662D01*
X8635777Y-7278662D02*
X8635777Y-7259615D01*
X8635777Y-7259615D02*
X8645301Y-7240567D01*
X8645301Y-7240567D02*
X8664348Y-7231043D01*
X8664348Y-7231043D02*
X8711967Y-7231043D01*
X8711967Y-7231043D02*
X8731015Y-7221519D01*
X8826253Y-7173900D02*
X8826253Y-7373900D01*
X8826253Y-7183424D02*
X8845301Y-7173900D01*
X8845301Y-7173900D02*
X8883396Y-7173900D01*
X8883396Y-7173900D02*
X8902444Y-7183424D01*
X8902444Y-7183424D02*
X8911967Y-7192948D01*
X8911967Y-7192948D02*
X8921491Y-7211996D01*
X8921491Y-7211996D02*
X8921491Y-7269138D01*
X8921491Y-7269138D02*
X8911967Y-7288186D01*
X8911967Y-7288186D02*
X8902444Y-7297710D01*
X8902444Y-7297710D02*
X8883396Y-7307234D01*
X8883396Y-7307234D02*
X8845301Y-7307234D01*
X8845301Y-7307234D02*
X8826253Y-7297710D01*
X9007205Y-7288186D02*
X9016729Y-7297710D01*
X9016729Y-7297710D02*
X9007205Y-7307234D01*
X9007205Y-7307234D02*
X8997682Y-7297710D01*
X8997682Y-7297710D02*
X9007205Y-7288186D01*
X9007205Y-7288186D02*
X9007205Y-7307234D01*
X9007205Y-7183424D02*
X9016729Y-7192948D01*
X9016729Y-7192948D02*
X9007205Y-7202472D01*
X9007205Y-7202472D02*
X8997682Y-7192948D01*
X8997682Y-7192948D02*
X9007205Y-7183424D01*
X9007205Y-7183424D02*
X9007205Y-7202472D01*
D12*
X7298800Y-7597650D02*
X7375000Y-7673850D01*
X7375000Y-7597650D02*
X7298800Y-7673850D01*
D11*
X7673872Y-7527234D02*
X7692920Y-7527234D01*
X7692920Y-7527234D02*
X7711967Y-7536758D01*
X7711967Y-7536758D02*
X7721491Y-7546281D01*
X7721491Y-7546281D02*
X7731015Y-7565329D01*
X7731015Y-7565329D02*
X7740539Y-7603424D01*
X7740539Y-7603424D02*
X7740539Y-7651043D01*
X7740539Y-7651043D02*
X7731015Y-7689138D01*
X7731015Y-7689138D02*
X7721491Y-7708186D01*
X7721491Y-7708186D02*
X7711967Y-7717710D01*
X7711967Y-7717710D02*
X7692920Y-7727234D01*
X7692920Y-7727234D02*
X7673872Y-7727234D01*
X7673872Y-7727234D02*
X7654824Y-7717710D01*
X7654824Y-7717710D02*
X7645301Y-7708186D01*
X7645301Y-7708186D02*
X7635777Y-7689138D01*
X7635777Y-7689138D02*
X7626253Y-7651043D01*
X7626253Y-7651043D02*
X7626253Y-7603424D01*
X7626253Y-7603424D02*
X7635777Y-7565329D01*
X7635777Y-7565329D02*
X7645301Y-7546281D01*
X7645301Y-7546281D02*
X7654824Y-7536758D01*
X7654824Y-7536758D02*
X7673872Y-7527234D01*
X7826253Y-7708186D02*
X7835777Y-7717710D01*
X7835777Y-7717710D02*
X7826253Y-7727234D01*
X7826253Y-7727234D02*
X7816729Y-7717710D01*
X7816729Y-7717710D02*
X7826253Y-7708186D01*
X7826253Y-7708186D02*
X7826253Y-7727234D01*
X7902443Y-7527234D02*
X8035777Y-7527234D01*
X8035777Y-7527234D02*
X7950062Y-7727234D01*
X8197682Y-7527234D02*
X8159586Y-7527234D01*
X8159586Y-7527234D02*
X8140539Y-7536758D01*
X8140539Y-7536758D02*
X8131015Y-7546281D01*
X8131015Y-7546281D02*
X8111967Y-7574853D01*
X8111967Y-7574853D02*
X8102443Y-7612948D01*
X8102443Y-7612948D02*
X8102443Y-7689138D01*
X8102443Y-7689138D02*
X8111967Y-7708186D01*
X8111967Y-7708186D02*
X8121491Y-7717710D01*
X8121491Y-7717710D02*
X8140539Y-7727234D01*
X8140539Y-7727234D02*
X8178634Y-7727234D01*
X8178634Y-7727234D02*
X8197682Y-7717710D01*
X8197682Y-7717710D02*
X8207205Y-7708186D01*
X8207205Y-7708186D02*
X8216729Y-7689138D01*
X8216729Y-7689138D02*
X8216729Y-7641519D01*
X8216729Y-7641519D02*
X8207205Y-7622472D01*
X8207205Y-7622472D02*
X8197682Y-7612948D01*
X8197682Y-7612948D02*
X8178634Y-7603424D01*
X8178634Y-7603424D02*
X8140539Y-7603424D01*
X8140539Y-7603424D02*
X8121491Y-7612948D01*
X8121491Y-7612948D02*
X8111967Y-7622472D01*
X8111967Y-7622472D02*
X8102443Y-7641519D01*
X8292920Y-7546281D02*
X8302443Y-7536758D01*
X8302443Y-7536758D02*
X8321491Y-7527234D01*
X8321491Y-7527234D02*
X8369110Y-7527234D01*
X8369110Y-7527234D02*
X8388158Y-7536758D01*
X8388158Y-7536758D02*
X8397682Y-7546281D01*
X8397682Y-7546281D02*
X8407205Y-7565329D01*
X8407205Y-7565329D02*
X8407205Y-7584377D01*
X8407205Y-7584377D02*
X8397682Y-7612948D01*
X8397682Y-7612948D02*
X8283396Y-7727234D01*
X8283396Y-7727234D02*
X8407205Y-7727234D01*
X8492920Y-7727234D02*
X8492920Y-7593900D01*
X8492920Y-7612948D02*
X8502444Y-7603424D01*
X8502444Y-7603424D02*
X8521491Y-7593900D01*
X8521491Y-7593900D02*
X8550063Y-7593900D01*
X8550063Y-7593900D02*
X8569110Y-7603424D01*
X8569110Y-7603424D02*
X8578634Y-7622472D01*
X8578634Y-7622472D02*
X8578634Y-7727234D01*
X8578634Y-7622472D02*
X8588158Y-7603424D01*
X8588158Y-7603424D02*
X8607205Y-7593900D01*
X8607205Y-7593900D02*
X8635777Y-7593900D01*
X8635777Y-7593900D02*
X8654825Y-7603424D01*
X8654825Y-7603424D02*
X8664348Y-7622472D01*
X8664348Y-7622472D02*
X8664348Y-7727234D01*
X8759586Y-7727234D02*
X8759586Y-7593900D01*
X8759586Y-7612948D02*
X8769110Y-7603424D01*
X8769110Y-7603424D02*
X8788158Y-7593900D01*
X8788158Y-7593900D02*
X8816729Y-7593900D01*
X8816729Y-7593900D02*
X8835777Y-7603424D01*
X8835777Y-7603424D02*
X8845301Y-7622472D01*
X8845301Y-7622472D02*
X8845301Y-7727234D01*
X8845301Y-7622472D02*
X8854825Y-7603424D01*
X8854825Y-7603424D02*
X8873872Y-7593900D01*
X8873872Y-7593900D02*
X8902444Y-7593900D01*
X8902444Y-7593900D02*
X8921491Y-7603424D01*
X8921491Y-7603424D02*
X8931015Y-7622472D01*
X8931015Y-7622472D02*
X8931015Y-7727234D01*
X9321491Y-7517710D02*
X9150063Y-7774853D01*
X9578634Y-7527234D02*
X9597682Y-7527234D01*
X9597682Y-7527234D02*
X9616729Y-7536758D01*
X9616729Y-7536758D02*
X9626253Y-7546281D01*
X9626253Y-7546281D02*
X9635777Y-7565329D01*
X9635777Y-7565329D02*
X9645301Y-7603424D01*
X9645301Y-7603424D02*
X9645301Y-7651043D01*
X9645301Y-7651043D02*
X9635777Y-7689138D01*
X9635777Y-7689138D02*
X9626253Y-7708186D01*
X9626253Y-7708186D02*
X9616729Y-7717710D01*
X9616729Y-7717710D02*
X9597682Y-7727234D01*
X9597682Y-7727234D02*
X9578634Y-7727234D01*
X9578634Y-7727234D02*
X9559587Y-7717710D01*
X9559587Y-7717710D02*
X9550063Y-7708186D01*
X9550063Y-7708186D02*
X9540539Y-7689138D01*
X9540539Y-7689138D02*
X9531015Y-7651043D01*
X9531015Y-7651043D02*
X9531015Y-7603424D01*
X9531015Y-7603424D02*
X9540539Y-7565329D01*
X9540539Y-7565329D02*
X9550063Y-7546281D01*
X9550063Y-7546281D02*
X9559587Y-7536758D01*
X9559587Y-7536758D02*
X9578634Y-7527234D01*
X9731015Y-7708186D02*
X9740539Y-7717710D01*
X9740539Y-7717710D02*
X9731015Y-7727234D01*
X9731015Y-7727234D02*
X9721491Y-7717710D01*
X9721491Y-7717710D02*
X9731015Y-7708186D01*
X9731015Y-7708186D02*
X9731015Y-7727234D01*
X9864348Y-7527234D02*
X9883396Y-7527234D01*
X9883396Y-7527234D02*
X9902444Y-7536758D01*
X9902444Y-7536758D02*
X9911968Y-7546281D01*
X9911968Y-7546281D02*
X9921491Y-7565329D01*
X9921491Y-7565329D02*
X9931015Y-7603424D01*
X9931015Y-7603424D02*
X9931015Y-7651043D01*
X9931015Y-7651043D02*
X9921491Y-7689138D01*
X9921491Y-7689138D02*
X9911968Y-7708186D01*
X9911968Y-7708186D02*
X9902444Y-7717710D01*
X9902444Y-7717710D02*
X9883396Y-7727234D01*
X9883396Y-7727234D02*
X9864348Y-7727234D01*
X9864348Y-7727234D02*
X9845301Y-7717710D01*
X9845301Y-7717710D02*
X9835777Y-7708186D01*
X9835777Y-7708186D02*
X9826253Y-7689138D01*
X9826253Y-7689138D02*
X9816729Y-7651043D01*
X9816729Y-7651043D02*
X9816729Y-7603424D01*
X9816729Y-7603424D02*
X9826253Y-7565329D01*
X9826253Y-7565329D02*
X9835777Y-7546281D01*
X9835777Y-7546281D02*
X9845301Y-7536758D01*
X9845301Y-7536758D02*
X9864348Y-7527234D01*
X9997682Y-7527234D02*
X10121491Y-7527234D01*
X10121491Y-7527234D02*
X10054825Y-7603424D01*
X10054825Y-7603424D02*
X10083396Y-7603424D01*
X10083396Y-7603424D02*
X10102444Y-7612948D01*
X10102444Y-7612948D02*
X10111968Y-7622472D01*
X10111968Y-7622472D02*
X10121491Y-7641519D01*
X10121491Y-7641519D02*
X10121491Y-7689138D01*
X10121491Y-7689138D02*
X10111968Y-7708186D01*
X10111968Y-7708186D02*
X10102444Y-7717710D01*
X10102444Y-7717710D02*
X10083396Y-7727234D01*
X10083396Y-7727234D02*
X10026253Y-7727234D01*
X10026253Y-7727234D02*
X10007206Y-7717710D01*
X10007206Y-7717710D02*
X9997682Y-7708186D01*
X10245301Y-7527234D02*
X10264349Y-7527234D01*
X10264349Y-7527234D02*
X10283396Y-7536758D01*
X10283396Y-7536758D02*
X10292920Y-7546281D01*
X10292920Y-7546281D02*
X10302444Y-7565329D01*
X10302444Y-7565329D02*
X10311968Y-7603424D01*
X10311968Y-7603424D02*
X10311968Y-7651043D01*
X10311968Y-7651043D02*
X10302444Y-7689138D01*
X10302444Y-7689138D02*
X10292920Y-7708186D01*
X10292920Y-7708186D02*
X10283396Y-7717710D01*
X10283396Y-7717710D02*
X10264349Y-7727234D01*
X10264349Y-7727234D02*
X10245301Y-7727234D01*
X10245301Y-7727234D02*
X10226253Y-7717710D01*
X10226253Y-7717710D02*
X10216729Y-7708186D01*
X10216729Y-7708186D02*
X10207206Y-7689138D01*
X10207206Y-7689138D02*
X10197682Y-7651043D01*
X10197682Y-7651043D02*
X10197682Y-7603424D01*
X10197682Y-7603424D02*
X10207206Y-7565329D01*
X10207206Y-7565329D02*
X10216729Y-7546281D01*
X10216729Y-7546281D02*
X10226253Y-7536758D01*
X10226253Y-7536758D02*
X10245301Y-7527234D01*
X10435777Y-7527234D02*
X10454825Y-7527234D01*
X10454825Y-7527234D02*
X10473872Y-7536758D01*
X10473872Y-7536758D02*
X10483396Y-7546281D01*
X10483396Y-7546281D02*
X10492920Y-7565329D01*
X10492920Y-7565329D02*
X10502444Y-7603424D01*
X10502444Y-7603424D02*
X10502444Y-7651043D01*
X10502444Y-7651043D02*
X10492920Y-7689138D01*
X10492920Y-7689138D02*
X10483396Y-7708186D01*
X10483396Y-7708186D02*
X10473872Y-7717710D01*
X10473872Y-7717710D02*
X10454825Y-7727234D01*
X10454825Y-7727234D02*
X10435777Y-7727234D01*
X10435777Y-7727234D02*
X10416729Y-7717710D01*
X10416729Y-7717710D02*
X10407206Y-7708186D01*
X10407206Y-7708186D02*
X10397682Y-7689138D01*
X10397682Y-7689138D02*
X10388158Y-7651043D01*
X10388158Y-7651043D02*
X10388158Y-7603424D01*
X10388158Y-7603424D02*
X10397682Y-7565329D01*
X10397682Y-7565329D02*
X10407206Y-7546281D01*
X10407206Y-7546281D02*
X10416729Y-7536758D01*
X10416729Y-7536758D02*
X10435777Y-7527234D01*
X10578634Y-7527234D02*
X10578634Y-7565329D01*
X10654825Y-7527234D02*
X10654825Y-7565329D01*
X10950063Y-7803424D02*
X10940539Y-7793900D01*
X10940539Y-7793900D02*
X10921491Y-7765329D01*
X10921491Y-7765329D02*
X10911968Y-7746281D01*
X10911968Y-7746281D02*
X10902444Y-7717710D01*
X10902444Y-7717710D02*
X10892920Y-7670091D01*
X10892920Y-7670091D02*
X10892920Y-7631996D01*
X10892920Y-7631996D02*
X10902444Y-7584377D01*
X10902444Y-7584377D02*
X10911968Y-7555805D01*
X10911968Y-7555805D02*
X10921491Y-7536758D01*
X10921491Y-7536758D02*
X10940539Y-7508186D01*
X10940539Y-7508186D02*
X10950063Y-7498662D01*
X11121491Y-7527234D02*
X11026253Y-7527234D01*
X11026253Y-7527234D02*
X11016730Y-7622472D01*
X11016730Y-7622472D02*
X11026253Y-7612948D01*
X11026253Y-7612948D02*
X11045301Y-7603424D01*
X11045301Y-7603424D02*
X11092920Y-7603424D01*
X11092920Y-7603424D02*
X11111968Y-7612948D01*
X11111968Y-7612948D02*
X11121491Y-7622472D01*
X11121491Y-7622472D02*
X11131015Y-7641519D01*
X11131015Y-7641519D02*
X11131015Y-7689138D01*
X11131015Y-7689138D02*
X11121491Y-7708186D01*
X11121491Y-7708186D02*
X11111968Y-7717710D01*
X11111968Y-7717710D02*
X11092920Y-7727234D01*
X11092920Y-7727234D02*
X11045301Y-7727234D01*
X11045301Y-7727234D02*
X11026253Y-7717710D01*
X11026253Y-7717710D02*
X11016730Y-7708186D01*
X11369110Y-7727234D02*
X11369110Y-7527234D01*
X11454825Y-7727234D02*
X11454825Y-7622472D01*
X11454825Y-7622472D02*
X11445301Y-7603424D01*
X11445301Y-7603424D02*
X11426253Y-7593900D01*
X11426253Y-7593900D02*
X11397682Y-7593900D01*
X11397682Y-7593900D02*
X11378634Y-7603424D01*
X11378634Y-7603424D02*
X11369110Y-7612948D01*
X11578634Y-7727234D02*
X11559587Y-7717710D01*
X11559587Y-7717710D02*
X11550063Y-7708186D01*
X11550063Y-7708186D02*
X11540539Y-7689138D01*
X11540539Y-7689138D02*
X11540539Y-7631996D01*
X11540539Y-7631996D02*
X11550063Y-7612948D01*
X11550063Y-7612948D02*
X11559587Y-7603424D01*
X11559587Y-7603424D02*
X11578634Y-7593900D01*
X11578634Y-7593900D02*
X11607206Y-7593900D01*
X11607206Y-7593900D02*
X11626253Y-7603424D01*
X11626253Y-7603424D02*
X11635777Y-7612948D01*
X11635777Y-7612948D02*
X11645301Y-7631996D01*
X11645301Y-7631996D02*
X11645301Y-7689138D01*
X11645301Y-7689138D02*
X11635777Y-7708186D01*
X11635777Y-7708186D02*
X11626253Y-7717710D01*
X11626253Y-7717710D02*
X11607206Y-7727234D01*
X11607206Y-7727234D02*
X11578634Y-7727234D01*
X11759587Y-7727234D02*
X11740539Y-7717710D01*
X11740539Y-7717710D02*
X11731015Y-7698662D01*
X11731015Y-7698662D02*
X11731015Y-7527234D01*
X11911968Y-7717710D02*
X11892920Y-7727234D01*
X11892920Y-7727234D02*
X11854825Y-7727234D01*
X11854825Y-7727234D02*
X11835777Y-7717710D01*
X11835777Y-7717710D02*
X11826253Y-7698662D01*
X11826253Y-7698662D02*
X11826253Y-7622472D01*
X11826253Y-7622472D02*
X11835777Y-7603424D01*
X11835777Y-7603424D02*
X11854825Y-7593900D01*
X11854825Y-7593900D02*
X11892920Y-7593900D01*
X11892920Y-7593900D02*
X11911968Y-7603424D01*
X11911968Y-7603424D02*
X11921491Y-7622472D01*
X11921491Y-7622472D02*
X11921491Y-7641519D01*
X11921491Y-7641519D02*
X11826253Y-7660567D01*
X11997682Y-7717710D02*
X12016730Y-7727234D01*
X12016730Y-7727234D02*
X12054825Y-7727234D01*
X12054825Y-7727234D02*
X12073872Y-7717710D01*
X12073872Y-7717710D02*
X12083396Y-7698662D01*
X12083396Y-7698662D02*
X12083396Y-7689138D01*
X12083396Y-7689138D02*
X12073872Y-7670091D01*
X12073872Y-7670091D02*
X12054825Y-7660567D01*
X12054825Y-7660567D02*
X12026253Y-7660567D01*
X12026253Y-7660567D02*
X12007206Y-7651043D01*
X12007206Y-7651043D02*
X11997682Y-7631996D01*
X11997682Y-7631996D02*
X11997682Y-7622472D01*
X11997682Y-7622472D02*
X12007206Y-7603424D01*
X12007206Y-7603424D02*
X12026253Y-7593900D01*
X12026253Y-7593900D02*
X12054825Y-7593900D01*
X12054825Y-7593900D02*
X12073872Y-7603424D01*
X12150063Y-7803424D02*
X12159587Y-7793900D01*
X12159587Y-7793900D02*
X12178634Y-7765329D01*
X12178634Y-7765329D02*
X12188158Y-7746281D01*
X12188158Y-7746281D02*
X12197682Y-7717710D01*
X12197682Y-7717710D02*
X12207206Y-7670091D01*
X12207206Y-7670091D02*
X12207206Y-7631996D01*
X12207206Y-7631996D02*
X12197682Y-7584377D01*
X12197682Y-7584377D02*
X12188158Y-7555805D01*
X12188158Y-7555805D02*
X12178634Y-7536758D01*
X12178634Y-7536758D02*
X12159587Y-7508186D01*
X12159587Y-7508186D02*
X12150063Y-7498662D01*
D10*
X7375000Y-7899750D02*
G75*
G03*
X7375000Y-7899750I-50000J0D01*
G01*
D11*
X7740539Y-7991234D02*
X7626253Y-7991234D01*
X7683396Y-7991234D02*
X7683396Y-7791234D01*
X7683396Y-7791234D02*
X7664348Y-7819805D01*
X7664348Y-7819805D02*
X7645301Y-7838853D01*
X7645301Y-7838853D02*
X7626253Y-7848377D01*
X7826253Y-7972186D02*
X7835777Y-7981710D01*
X7835777Y-7981710D02*
X7826253Y-7991234D01*
X7826253Y-7991234D02*
X7816729Y-7981710D01*
X7816729Y-7981710D02*
X7826253Y-7972186D01*
X7826253Y-7972186D02*
X7826253Y-7991234D01*
X7959586Y-7791234D02*
X7978634Y-7791234D01*
X7978634Y-7791234D02*
X7997682Y-7800758D01*
X7997682Y-7800758D02*
X8007205Y-7810281D01*
X8007205Y-7810281D02*
X8016729Y-7829329D01*
X8016729Y-7829329D02*
X8026253Y-7867424D01*
X8026253Y-7867424D02*
X8026253Y-7915043D01*
X8026253Y-7915043D02*
X8016729Y-7953138D01*
X8016729Y-7953138D02*
X8007205Y-7972186D01*
X8007205Y-7972186D02*
X7997682Y-7981710D01*
X7997682Y-7981710D02*
X7978634Y-7991234D01*
X7978634Y-7991234D02*
X7959586Y-7991234D01*
X7959586Y-7991234D02*
X7940539Y-7981710D01*
X7940539Y-7981710D02*
X7931015Y-7972186D01*
X7931015Y-7972186D02*
X7921491Y-7953138D01*
X7921491Y-7953138D02*
X7911967Y-7915043D01*
X7911967Y-7915043D02*
X7911967Y-7867424D01*
X7911967Y-7867424D02*
X7921491Y-7829329D01*
X7921491Y-7829329D02*
X7931015Y-7810281D01*
X7931015Y-7810281D02*
X7940539Y-7800758D01*
X7940539Y-7800758D02*
X7959586Y-7791234D01*
X8150062Y-7791234D02*
X8169110Y-7791234D01*
X8169110Y-7791234D02*
X8188158Y-7800758D01*
X8188158Y-7800758D02*
X8197682Y-7810281D01*
X8197682Y-7810281D02*
X8207205Y-7829329D01*
X8207205Y-7829329D02*
X8216729Y-7867424D01*
X8216729Y-7867424D02*
X8216729Y-7915043D01*
X8216729Y-7915043D02*
X8207205Y-7953138D01*
X8207205Y-7953138D02*
X8197682Y-7972186D01*
X8197682Y-7972186D02*
X8188158Y-7981710D01*
X8188158Y-7981710D02*
X8169110Y-7991234D01*
X8169110Y-7991234D02*
X8150062Y-7991234D01*
X8150062Y-7991234D02*
X8131015Y-7981710D01*
X8131015Y-7981710D02*
X8121491Y-7972186D01*
X8121491Y-7972186D02*
X8111967Y-7953138D01*
X8111967Y-7953138D02*
X8102443Y-7915043D01*
X8102443Y-7915043D02*
X8102443Y-7867424D01*
X8102443Y-7867424D02*
X8111967Y-7829329D01*
X8111967Y-7829329D02*
X8121491Y-7810281D01*
X8121491Y-7810281D02*
X8131015Y-7800758D01*
X8131015Y-7800758D02*
X8150062Y-7791234D01*
X8340539Y-7791234D02*
X8359586Y-7791234D01*
X8359586Y-7791234D02*
X8378634Y-7800758D01*
X8378634Y-7800758D02*
X8388158Y-7810281D01*
X8388158Y-7810281D02*
X8397682Y-7829329D01*
X8397682Y-7829329D02*
X8407205Y-7867424D01*
X8407205Y-7867424D02*
X8407205Y-7915043D01*
X8407205Y-7915043D02*
X8397682Y-7953138D01*
X8397682Y-7953138D02*
X8388158Y-7972186D01*
X8388158Y-7972186D02*
X8378634Y-7981710D01*
X8378634Y-7981710D02*
X8359586Y-7991234D01*
X8359586Y-7991234D02*
X8340539Y-7991234D01*
X8340539Y-7991234D02*
X8321491Y-7981710D01*
X8321491Y-7981710D02*
X8311967Y-7972186D01*
X8311967Y-7972186D02*
X8302443Y-7953138D01*
X8302443Y-7953138D02*
X8292920Y-7915043D01*
X8292920Y-7915043D02*
X8292920Y-7867424D01*
X8292920Y-7867424D02*
X8302443Y-7829329D01*
X8302443Y-7829329D02*
X8311967Y-7810281D01*
X8311967Y-7810281D02*
X8321491Y-7800758D01*
X8321491Y-7800758D02*
X8340539Y-7791234D01*
X8492920Y-7991234D02*
X8492920Y-7857900D01*
X8492920Y-7876948D02*
X8502444Y-7867424D01*
X8502444Y-7867424D02*
X8521491Y-7857900D01*
X8521491Y-7857900D02*
X8550063Y-7857900D01*
X8550063Y-7857900D02*
X8569110Y-7867424D01*
X8569110Y-7867424D02*
X8578634Y-7886472D01*
X8578634Y-7886472D02*
X8578634Y-7991234D01*
X8578634Y-7886472D02*
X8588158Y-7867424D01*
X8588158Y-7867424D02*
X8607205Y-7857900D01*
X8607205Y-7857900D02*
X8635777Y-7857900D01*
X8635777Y-7857900D02*
X8654825Y-7867424D01*
X8654825Y-7867424D02*
X8664348Y-7886472D01*
X8664348Y-7886472D02*
X8664348Y-7991234D01*
X8759586Y-7991234D02*
X8759586Y-7857900D01*
X8759586Y-7876948D02*
X8769110Y-7867424D01*
X8769110Y-7867424D02*
X8788158Y-7857900D01*
X8788158Y-7857900D02*
X8816729Y-7857900D01*
X8816729Y-7857900D02*
X8835777Y-7867424D01*
X8835777Y-7867424D02*
X8845301Y-7886472D01*
X8845301Y-7886472D02*
X8845301Y-7991234D01*
X8845301Y-7886472D02*
X8854825Y-7867424D01*
X8854825Y-7867424D02*
X8873872Y-7857900D01*
X8873872Y-7857900D02*
X8902444Y-7857900D01*
X8902444Y-7857900D02*
X8921491Y-7867424D01*
X8921491Y-7867424D02*
X8931015Y-7886472D01*
X8931015Y-7886472D02*
X8931015Y-7991234D01*
X9321491Y-7781710D02*
X9150063Y-8038853D01*
X9578634Y-7791234D02*
X9597682Y-7791234D01*
X9597682Y-7791234D02*
X9616729Y-7800758D01*
X9616729Y-7800758D02*
X9626253Y-7810281D01*
X9626253Y-7810281D02*
X9635777Y-7829329D01*
X9635777Y-7829329D02*
X9645301Y-7867424D01*
X9645301Y-7867424D02*
X9645301Y-7915043D01*
X9645301Y-7915043D02*
X9635777Y-7953138D01*
X9635777Y-7953138D02*
X9626253Y-7972186D01*
X9626253Y-7972186D02*
X9616729Y-7981710D01*
X9616729Y-7981710D02*
X9597682Y-7991234D01*
X9597682Y-7991234D02*
X9578634Y-7991234D01*
X9578634Y-7991234D02*
X9559587Y-7981710D01*
X9559587Y-7981710D02*
X9550063Y-7972186D01*
X9550063Y-7972186D02*
X9540539Y-7953138D01*
X9540539Y-7953138D02*
X9531015Y-7915043D01*
X9531015Y-7915043D02*
X9531015Y-7867424D01*
X9531015Y-7867424D02*
X9540539Y-7829329D01*
X9540539Y-7829329D02*
X9550063Y-7810281D01*
X9550063Y-7810281D02*
X9559587Y-7800758D01*
X9559587Y-7800758D02*
X9578634Y-7791234D01*
X9731015Y-7972186D02*
X9740539Y-7981710D01*
X9740539Y-7981710D02*
X9731015Y-7991234D01*
X9731015Y-7991234D02*
X9721491Y-7981710D01*
X9721491Y-7981710D02*
X9731015Y-7972186D01*
X9731015Y-7972186D02*
X9731015Y-7991234D01*
X9864348Y-7791234D02*
X9883396Y-7791234D01*
X9883396Y-7791234D02*
X9902444Y-7800758D01*
X9902444Y-7800758D02*
X9911968Y-7810281D01*
X9911968Y-7810281D02*
X9921491Y-7829329D01*
X9921491Y-7829329D02*
X9931015Y-7867424D01*
X9931015Y-7867424D02*
X9931015Y-7915043D01*
X9931015Y-7915043D02*
X9921491Y-7953138D01*
X9921491Y-7953138D02*
X9911968Y-7972186D01*
X9911968Y-7972186D02*
X9902444Y-7981710D01*
X9902444Y-7981710D02*
X9883396Y-7991234D01*
X9883396Y-7991234D02*
X9864348Y-7991234D01*
X9864348Y-7991234D02*
X9845301Y-7981710D01*
X9845301Y-7981710D02*
X9835777Y-7972186D01*
X9835777Y-7972186D02*
X9826253Y-7953138D01*
X9826253Y-7953138D02*
X9816729Y-7915043D01*
X9816729Y-7915043D02*
X9816729Y-7867424D01*
X9816729Y-7867424D02*
X9826253Y-7829329D01*
X9826253Y-7829329D02*
X9835777Y-7810281D01*
X9835777Y-7810281D02*
X9845301Y-7800758D01*
X9845301Y-7800758D02*
X9864348Y-7791234D01*
X9997682Y-7791234D02*
X10121491Y-7791234D01*
X10121491Y-7791234D02*
X10054825Y-7867424D01*
X10054825Y-7867424D02*
X10083396Y-7867424D01*
X10083396Y-7867424D02*
X10102444Y-7876948D01*
X10102444Y-7876948D02*
X10111968Y-7886472D01*
X10111968Y-7886472D02*
X10121491Y-7905519D01*
X10121491Y-7905519D02*
X10121491Y-7953138D01*
X10121491Y-7953138D02*
X10111968Y-7972186D01*
X10111968Y-7972186D02*
X10102444Y-7981710D01*
X10102444Y-7981710D02*
X10083396Y-7991234D01*
X10083396Y-7991234D02*
X10026253Y-7991234D01*
X10026253Y-7991234D02*
X10007206Y-7981710D01*
X10007206Y-7981710D02*
X9997682Y-7972186D01*
X10216729Y-7991234D02*
X10254825Y-7991234D01*
X10254825Y-7991234D02*
X10273872Y-7981710D01*
X10273872Y-7981710D02*
X10283396Y-7972186D01*
X10283396Y-7972186D02*
X10302444Y-7943615D01*
X10302444Y-7943615D02*
X10311968Y-7905519D01*
X10311968Y-7905519D02*
X10311968Y-7829329D01*
X10311968Y-7829329D02*
X10302444Y-7810281D01*
X10302444Y-7810281D02*
X10292920Y-7800758D01*
X10292920Y-7800758D02*
X10273872Y-7791234D01*
X10273872Y-7791234D02*
X10235777Y-7791234D01*
X10235777Y-7791234D02*
X10216729Y-7800758D01*
X10216729Y-7800758D02*
X10207206Y-7810281D01*
X10207206Y-7810281D02*
X10197682Y-7829329D01*
X10197682Y-7829329D02*
X10197682Y-7876948D01*
X10197682Y-7876948D02*
X10207206Y-7895996D01*
X10207206Y-7895996D02*
X10216729Y-7905519D01*
X10216729Y-7905519D02*
X10235777Y-7915043D01*
X10235777Y-7915043D02*
X10273872Y-7915043D01*
X10273872Y-7915043D02*
X10292920Y-7905519D01*
X10292920Y-7905519D02*
X10302444Y-7895996D01*
X10302444Y-7895996D02*
X10311968Y-7876948D01*
X10483396Y-7857900D02*
X10483396Y-7991234D01*
X10435777Y-7781710D02*
X10388158Y-7924567D01*
X10388158Y-7924567D02*
X10511968Y-7924567D01*
X10578634Y-7791234D02*
X10578634Y-7829329D01*
X10654825Y-7791234D02*
X10654825Y-7829329D01*
X10950063Y-8067424D02*
X10940539Y-8057900D01*
X10940539Y-8057900D02*
X10921491Y-8029329D01*
X10921491Y-8029329D02*
X10911968Y-8010281D01*
X10911968Y-8010281D02*
X10902444Y-7981710D01*
X10902444Y-7981710D02*
X10892920Y-7934091D01*
X10892920Y-7934091D02*
X10892920Y-7895996D01*
X10892920Y-7895996D02*
X10902444Y-7848377D01*
X10902444Y-7848377D02*
X10911968Y-7819805D01*
X10911968Y-7819805D02*
X10921491Y-7800758D01*
X10921491Y-7800758D02*
X10940539Y-7772186D01*
X10940539Y-7772186D02*
X10950063Y-7762662D01*
X11007206Y-7791234D02*
X11131015Y-7791234D01*
X11131015Y-7791234D02*
X11064349Y-7867424D01*
X11064349Y-7867424D02*
X11092920Y-7867424D01*
X11092920Y-7867424D02*
X11111968Y-7876948D01*
X11111968Y-7876948D02*
X11121491Y-7886472D01*
X11121491Y-7886472D02*
X11131015Y-7905519D01*
X11131015Y-7905519D02*
X11131015Y-7953138D01*
X11131015Y-7953138D02*
X11121491Y-7972186D01*
X11121491Y-7972186D02*
X11111968Y-7981710D01*
X11111968Y-7981710D02*
X11092920Y-7991234D01*
X11092920Y-7991234D02*
X11035777Y-7991234D01*
X11035777Y-7991234D02*
X11016730Y-7981710D01*
X11016730Y-7981710D02*
X11007206Y-7972186D01*
X11369110Y-7991234D02*
X11369110Y-7791234D01*
X11454825Y-7991234D02*
X11454825Y-7886472D01*
X11454825Y-7886472D02*
X11445301Y-7867424D01*
X11445301Y-7867424D02*
X11426253Y-7857900D01*
X11426253Y-7857900D02*
X11397682Y-7857900D01*
X11397682Y-7857900D02*
X11378634Y-7867424D01*
X11378634Y-7867424D02*
X11369110Y-7876948D01*
X11578634Y-7991234D02*
X11559587Y-7981710D01*
X11559587Y-7981710D02*
X11550063Y-7972186D01*
X11550063Y-7972186D02*
X11540539Y-7953138D01*
X11540539Y-7953138D02*
X11540539Y-7895996D01*
X11540539Y-7895996D02*
X11550063Y-7876948D01*
X11550063Y-7876948D02*
X11559587Y-7867424D01*
X11559587Y-7867424D02*
X11578634Y-7857900D01*
X11578634Y-7857900D02*
X11607206Y-7857900D01*
X11607206Y-7857900D02*
X11626253Y-7867424D01*
X11626253Y-7867424D02*
X11635777Y-7876948D01*
X11635777Y-7876948D02*
X11645301Y-7895996D01*
X11645301Y-7895996D02*
X11645301Y-7953138D01*
X11645301Y-7953138D02*
X11635777Y-7972186D01*
X11635777Y-7972186D02*
X11626253Y-7981710D01*
X11626253Y-7981710D02*
X11607206Y-7991234D01*
X11607206Y-7991234D02*
X11578634Y-7991234D01*
X11759587Y-7991234D02*
X11740539Y-7981710D01*
X11740539Y-7981710D02*
X11731015Y-7962662D01*
X11731015Y-7962662D02*
X11731015Y-7791234D01*
X11911968Y-7981710D02*
X11892920Y-7991234D01*
X11892920Y-7991234D02*
X11854825Y-7991234D01*
X11854825Y-7991234D02*
X11835777Y-7981710D01*
X11835777Y-7981710D02*
X11826253Y-7962662D01*
X11826253Y-7962662D02*
X11826253Y-7886472D01*
X11826253Y-7886472D02*
X11835777Y-7867424D01*
X11835777Y-7867424D02*
X11854825Y-7857900D01*
X11854825Y-7857900D02*
X11892920Y-7857900D01*
X11892920Y-7857900D02*
X11911968Y-7867424D01*
X11911968Y-7867424D02*
X11921491Y-7886472D01*
X11921491Y-7886472D02*
X11921491Y-7905519D01*
X11921491Y-7905519D02*
X11826253Y-7924567D01*
X11997682Y-7981710D02*
X12016730Y-7991234D01*
X12016730Y-7991234D02*
X12054825Y-7991234D01*
X12054825Y-7991234D02*
X12073872Y-7981710D01*
X12073872Y-7981710D02*
X12083396Y-7962662D01*
X12083396Y-7962662D02*
X12083396Y-7953138D01*
X12083396Y-7953138D02*
X12073872Y-7934091D01*
X12073872Y-7934091D02*
X12054825Y-7924567D01*
X12054825Y-7924567D02*
X12026253Y-7924567D01*
X12026253Y-7924567D02*
X12007206Y-7915043D01*
X12007206Y-7915043D02*
X11997682Y-7895996D01*
X11997682Y-7895996D02*
X11997682Y-7886472D01*
X11997682Y-7886472D02*
X12007206Y-7867424D01*
X12007206Y-7867424D02*
X12026253Y-7857900D01*
X12026253Y-7857900D02*
X12054825Y-7857900D01*
X12054825Y-7857900D02*
X12073872Y-7867424D01*
X12150063Y-8067424D02*
X12159587Y-8057900D01*
X12159587Y-8057900D02*
X12178634Y-8029329D01*
X12178634Y-8029329D02*
X12188158Y-8010281D01*
X12188158Y-8010281D02*
X12197682Y-7981710D01*
X12197682Y-7981710D02*
X12207206Y-7934091D01*
X12207206Y-7934091D02*
X12207206Y-7895996D01*
X12207206Y-7895996D02*
X12197682Y-7848377D01*
X12197682Y-7848377D02*
X12188158Y-7819805D01*
X12188158Y-7819805D02*
X12178634Y-7800758D01*
X12178634Y-7800758D02*
X12159587Y-7772186D01*
X12159587Y-7772186D02*
X12150063Y-7762662D01*
M02*
